G04 start of page 6 for group -4063 idx -4063 *
G04 Title: riffle, componentmask *
G04 Creator: pcb 1.99z *
G04 CreationDate: Fri 28 Mar 2014 07:04:23 PM GMT UTC *
G04 For: ben *
G04 Format: Gerber/RS-274X *
G04 PCB-Dimensions (mil): 6000.00 5000.00 *
G04 PCB-Coordinate-Origin: lower left *
%MOIN*%
%FSLAX25Y25*%
%LNTOPMASK*%
%ADD62R,0.0612X0.0612*%
%ADD61R,0.0258X0.0258*%
%ADD60R,0.0780X0.0780*%
%ADD59R,0.0106X0.0106*%
%ADD58R,0.0476X0.0476*%
%ADD57R,0.0476X0.0476*%
%ADD56R,0.0572X0.0572*%
%ADD55R,0.0355X0.0355*%
%ADD54R,0.0400X0.0400*%
%ADD53R,0.0336X0.0336*%
%ADD52R,0.0440X0.0440*%
%ADD51C,0.0660*%
%ADD50C,0.0001*%
G54D50*G36*
X124200Y373300D02*Y366700D01*
X130800D01*
Y373300D01*
X124200D01*
G37*
G54D51*X127500Y360000D03*
G54D50*G36*
X209200Y283300D02*Y276700D01*
X215800D01*
Y283300D01*
X209200D01*
G37*
G54D51*X222500Y280000D03*
X232500D03*
G54D50*G36*
X164200Y283300D02*Y276700D01*
X170800D01*
Y283300D01*
X164200D01*
G37*
G36*
X131700D02*Y276700D01*
X138300D01*
Y283300D01*
X131700D01*
G37*
G54D51*X145000Y280000D03*
X155000D03*
G54D50*G36*
X135700Y293300D02*Y286700D01*
X142300D01*
Y293300D01*
X135700D01*
G37*
G54D51*X149000Y290000D03*
X177500Y280000D03*
X187500D03*
X197500D03*
G54D50*G36*
X279200Y378300D02*Y371700D01*
X285800D01*
Y378300D01*
X279200D01*
G37*
G54D51*X282500Y365000D03*
G54D50*G36*
X274200Y355800D02*Y349200D01*
X280800D01*
Y355800D01*
X274200D01*
G37*
G54D51*X287500Y352500D03*
X277500Y342500D03*
X287500D03*
X277500Y332500D03*
X265000Y335000D03*
X255000D03*
X265000Y345000D03*
X255000D03*
X287500Y332500D03*
X277500Y322500D03*
Y312500D03*
G54D50*G36*
X261700Y318300D02*Y311700D01*
X268300D01*
Y318300D01*
X261700D01*
G37*
G54D51*X255000Y315000D03*
X265000Y325000D03*
X255000D03*
X287500Y322500D03*
Y312500D03*
G54D52*X141150Y366200D02*X143550D01*
X151450D02*X153850D01*
G54D53*X172906Y366197D02*Y365803D01*
X167000Y366197D02*Y365803D01*
G54D52*X209900Y367500D02*X216200D01*
X209900Y362500D02*X216200D01*
G54D54*X187200Y375300D02*X187800D01*
X187200Y367500D02*X187800D01*
X195400Y371400D02*X196000D01*
G54D53*X192559Y362197D02*Y361803D01*
X186654Y362197D02*Y361803D01*
X142047Y372697D02*Y372303D01*
X147953Y372697D02*Y372303D01*
G54D52*X209900Y372500D02*X216200D01*
G54D53*X181803Y366441D02*X182197D01*
X181803Y372346D02*X182197D01*
X174803Y377500D02*X175197D01*
X174803Y371594D02*X175197D01*
X180953Y361197D02*Y360803D01*
X175047Y361197D02*Y360803D01*
X170453Y355197D02*Y354803D01*
X164547Y355197D02*Y354803D01*
G54D52*X209900Y357500D02*X216200D01*
G54D55*X135508Y371000D02*X136492D01*
X135508Y365882D02*X136492D01*
G54D53*X134094Y377197D02*Y376803D01*
X140000Y377197D02*Y376803D01*
G54D56*X159607Y366043D02*X160393D01*
X159607Y358957D02*X160393D01*
X153000Y373393D02*Y372607D01*
X160086Y373393D02*Y372607D01*
G54D52*X141150Y362500D02*X143550D01*
X141150Y358800D02*X143550D01*
X151450D02*X153850D01*
G54D53*X135803Y355047D02*X136197D01*
X135803Y360953D02*X136197D01*
G54D54*X253200Y366000D02*X253800D01*
X253200Y358200D02*X253800D01*
X261400Y362100D02*X262000D01*
G54D53*X267803Y358906D02*X268197D01*
G54D52*X228800Y357500D02*X245500D01*
X228800Y362500D02*X245500D01*
G54D53*X267803Y353000D02*X268197D01*
X262953Y307697D02*Y307303D01*
X257047Y307697D02*Y307303D01*
X273858Y367102D02*Y366709D01*
X285094Y305197D02*Y304803D01*
X291000Y305197D02*Y304803D01*
X273094Y305197D02*Y304803D01*
X279000Y305197D02*Y304803D01*
X267953Y367102D02*Y366709D01*
G54D52*X228800Y367500D02*X245500D01*
X228800Y372500D02*X245500D01*
X228874Y316429D02*Y310150D01*
G54D53*X224547Y327697D02*Y327303D01*
X230453Y327697D02*Y327303D01*
X214547Y327697D02*Y327303D01*
X220453Y327697D02*Y327303D01*
X236803Y317000D02*X237197D01*
X236803Y311094D02*X237197D01*
G54D52*X222575Y316429D02*Y310150D01*
X225724Y316429D02*Y310150D01*
X222575Y303850D02*Y297571D01*
X225724Y303850D02*Y297571D01*
X228874Y303850D02*Y297571D01*
X228087Y307000D02*X234366D01*
G54D57*X265433Y274000D02*X269567D01*
G54D58*X240764Y273988D02*X244898D01*
X257102D02*X261236D01*
G54D57*X281771Y274000D02*X285905D01*
X265433Y285024D02*X269567D01*
X281771D02*X285905D01*
G54D58*X240764Y285012D02*X244898D01*
X257102D02*X261236D01*
G54D52*X213126Y316429D02*Y310150D01*
X216276Y316429D02*Y310150D01*
X219425Y316429D02*Y310150D01*
X213126Y303850D02*Y297571D01*
X216276Y303850D02*Y297571D01*
X207634Y307000D02*X213913D01*
X219425Y303850D02*Y297571D01*
G54D59*X199311Y316673D02*X204547D01*
X199311Y318642D02*X204547D01*
X199311Y320610D02*X204547D01*
X199311Y322579D02*X204547D01*
X199311Y324547D02*X204547D01*
X199311Y326516D02*X204547D01*
X199311Y328484D02*X204547D01*
X199311Y330453D02*X204547D01*
X199311Y332421D02*X204547D01*
X199311Y334390D02*X204547D01*
X199311Y336358D02*X204547D01*
X199311Y338327D02*X204547D01*
G54D55*X140441Y354492D02*Y353508D01*
G54D53*X142094Y348197D02*Y347803D01*
G54D55*X145559Y354492D02*Y353508D01*
G54D53*X148000Y348197D02*Y347803D01*
G54D60*X123209Y350551D02*Y348976D01*
G54D53*X149047Y343197D02*Y342803D01*
X154953Y343197D02*Y342803D01*
X150787Y332197D02*Y331803D01*
X150728Y337756D02*Y337362D01*
X156500Y331697D02*Y331303D01*
X159803Y337382D02*X160197D01*
X159803Y343287D02*X160197D01*
X159803Y317047D02*X160197D01*
X159803Y322953D02*X160197D01*
G54D54*X157100Y297500D02*Y296900D01*
G54D53*X149953Y317197D02*Y316803D01*
X154803Y317047D02*X155197D01*
X154803Y322953D02*X155197D01*
X151803Y304094D02*X152197D01*
X151803Y310000D02*X152197D01*
X144823Y337756D02*Y337362D01*
G54D61*X131673Y340118D02*X139154D01*
X131673Y337559D02*X139154D01*
G54D60*X123209Y339528D02*Y339331D01*
G54D61*X131673Y335000D02*X139154D01*
X131673Y332441D02*X139154D01*
G54D53*X144882Y332197D02*Y331803D01*
X144047Y317197D02*Y316803D01*
G54D61*X131673Y329882D02*X139154D01*
G54D60*X123209Y321024D02*Y319449D01*
Y330669D02*Y330472D01*
G54D53*X137811Y313197D02*Y312803D01*
X131906Y313197D02*Y312803D01*
G54D54*X130700Y307000D02*X131300D01*
G54D53*X129000Y293197D02*Y292803D01*
X123094Y293197D02*Y292803D01*
G54D54*X130700Y299200D02*X131300D01*
X122500Y303100D02*X123100D01*
G54D53*X162406Y331697D02*Y331303D01*
G54D59*X165453Y332421D02*X170689D01*
X165453Y330453D02*X170689D01*
X165453Y338327D02*X170689D01*
X165453Y336358D02*X170689D01*
X165453Y334390D02*X170689D01*
X165453Y328484D02*X170689D01*
X165453Y326516D02*X170689D01*
X165453Y324547D02*X170689D01*
X165453Y322579D02*X170689D01*
X165453Y320610D02*X170689D01*
X165453Y318642D02*X170689D01*
X165453Y316673D02*X170689D01*
G54D62*X170000Y293000D02*X176000D01*
G54D54*X161000Y289300D02*Y288700D01*
G54D62*X170000Y300000D02*X176000D01*
G54D54*X164900Y297500D02*Y296900D01*
G54D53*X162047Y312197D02*Y311803D01*
X167953Y312197D02*Y311803D01*
X162094Y307197D02*Y306803D01*
X168000Y307197D02*Y306803D01*
G54D59*X174173Y313189D02*Y307953D01*
X176142Y313189D02*Y307953D01*
X178110Y313189D02*Y307953D01*
X180079Y313189D02*Y307953D01*
X184016Y313189D02*Y307953D01*
X182047Y313189D02*Y307953D01*
X185984Y313189D02*Y307953D01*
X187953Y313189D02*Y307953D01*
X189921Y313189D02*Y307953D01*
X191890Y313189D02*Y307953D01*
X193858Y313189D02*Y307953D01*
X195827Y313189D02*Y307953D01*
X185984Y347047D02*Y341811D01*
X184016Y347047D02*Y341811D01*
X182047Y347047D02*Y341811D01*
X180079Y347047D02*Y341811D01*
X178110Y347047D02*Y341811D01*
X195827Y347047D02*Y341811D01*
X193858Y347047D02*Y341811D01*
X191890Y347047D02*Y341811D01*
X189921Y347047D02*Y341811D01*
X187953Y347047D02*Y341811D01*
X176142Y347047D02*Y341811D01*
X174173Y347047D02*Y341811D01*
M02*
