M48
INCH
T57C0.035
T56C0.015
T55C0.020
T54C0.038
%
T56
X017400Y033550
X018700Y035500
X020300Y034600
X022000Y035650
X022850Y035050
T55
X012600Y038000
X012750Y032000
X013200Y029300
X013400Y032900
X013500Y033800
X013800Y037200
X013800Y033100
X014900Y032700
X015150Y031400
X015200Y034600
X015400Y029600
X015700Y029900
X015900Y028200
X016000Y035000
X016000Y033800
X016000Y030200
X016350Y031700
X016400Y030800
X016500Y030100
X016500Y029400
X016650Y034500
X017000Y035400
X017200Y036100
X017250Y030500
X017300Y028200
X017600Y036750
X018400Y036200
X018600Y032600
X018700Y033800
X018700Y028100
X019000Y031900
X019100Y035700
X019200Y033300
X019386Y030514
X019500Y029500
X019550Y035800
X019600Y031700
X019700Y028200
X019900Y031374
X020050Y028500
X020700Y035700
X020750Y027750
X021350Y028150
X021750Y033100
X021900Y030100
X021900Y028550
X022000Y036400
X022250Y028250
X022600Y036100
X022800Y029900
X022850Y034000
X023000Y029300
X023250Y031750
X023300Y030400
X023500Y029250
X023550Y029750
X023600Y032750
X023700Y028500
X024000Y027800
X024250Y033000
X024400Y035100
X024750Y030500
X025000Y029250
X025100Y027800
X025200Y028300
X025500Y030000
X025500Y029500
X026000Y028200
X026000Y027500
X026100Y037000
X026550Y036150
X027100Y032400
X027300Y035600
X027360Y033860
X027700Y030500
X027900Y032000
X028000Y029400
X028100Y032700
X028200Y034500
X028500Y035250
X028592Y028021
X028600Y029300
X028800Y032700
X028889Y031300
X028900Y033500
X029000Y034000
X029000Y030200
X029000Y029700
X030000Y033500
X030200Y037600
X030500Y036500
X030600Y030800
T57
X012500Y031000
X014500Y035250
X014750Y036250
X016750Y037250
X022750Y037000
T54
X012235Y037000
X012235Y036000
X025250Y035500
X025250Y034500
X025250Y033500
X025250Y032500
X026250Y035500
X026250Y034500
X026250Y033500
X026250Y032500
X028500Y037750
X029500Y037750
M30
