M48
INCH
T48C0.015
T47C0.035
T46C0.020
T45C0.038
%
T48
X015450Y033150
X017800Y032100
X018200Y032400
X018300Y032000
X018700Y035000
X018700Y031900
X018900Y035350
X019600Y032000
X020100Y034200
X020300Y034600
X028300Y030500
T46
X012100Y029000
X013000Y037700
X014250Y032750
X014400Y037500
X014700Y034300
X015000Y034800
X015250Y033750
X015900Y031200
X016000Y035000
X016400Y031700
X017000Y034500
X017250Y035500
X017300Y036000
X017400Y033100
X017500Y036600
X017600Y033500
X018400Y036200
X019200Y032300
X020400Y029600
X020700Y037200
X021600Y031600
X021800Y035700
X022000Y036400
X022000Y031900
X022000Y029750
X022400Y030300
X022500Y035400
X022500Y031000
X022600Y036100
X023273Y032612
X023500Y034000
X023700Y035100
X023800Y031700
X023900Y032600
X024100Y030800
X024200Y029800
X024300Y035200
X024300Y034000
X025500Y037300
X026000Y032000
X027100Y035800
X027300Y032800
X027300Y030200
X027500Y036500
X027500Y028500
X027800Y029300
T47
X013250Y032500
X013750Y034500
X014000Y032250
X014750Y036250
X015300Y031200
X015400Y035600
X016750Y036250
X022750Y037000
X023750Y030250
X025600Y036000
T45
X012750Y037000
X012750Y036000
X012750Y031050
X012750Y030050
X013500Y029000
X014500Y029000
X015500Y029000
X016750Y029000
X017750Y029000
X018750Y029000
X019750Y029000
X021250Y029000
X022250Y029000
X023250Y029000
X025500Y034500
X025500Y033500
X025500Y032500
X025500Y031500
X026500Y034500
X026500Y033500
X026500Y032500
X026500Y031500
X027750Y035250
X027750Y034250
X027750Y033250
X027750Y032250
X027750Y031250
X028250Y037500
X028250Y036500
X028750Y035250
X028750Y034250
X028750Y033250
X028750Y032250
X028750Y031250
M30
