G04 start of page 7 for group -4062 idx -4062 *
G04 Title: riffle, soldermask *
G04 Creator: pcb 20140316 *
G04 CreationDate: Fri 18 Apr 2014 05:49:52 PM GMT UTC *
G04 For: ben *
G04 Format: Gerber/RS-274X *
G04 PCB-Dimensions (mil): 6000.00 5000.00 *
G04 PCB-Coordinate-Origin: lower left *
%MOIN*%
%FSLAX25Y25*%
%LNBOTTOMMASK*%
%ADD65R,0.0594X0.0594*%
%ADD64C,0.0660*%
%ADD63C,0.0001*%
G54D63*G36*
X124200Y373300D02*Y366700D01*
X130800D01*
Y373300D01*
X124200D01*
G37*
G54D64*X127500Y360000D03*
G54D63*G36*
X209200Y283300D02*Y276700D01*
X215800D01*
Y283300D01*
X209200D01*
G37*
G54D64*X222500Y280000D03*
X232500D03*
G54D63*G36*
X164200Y283300D02*Y276700D01*
X170800D01*
Y283300D01*
X164200D01*
G37*
G36*
X131700D02*Y276700D01*
X138300D01*
Y283300D01*
X131700D01*
G37*
G54D64*X145000Y280000D03*
X155000D03*
G54D63*G36*
X135700Y293300D02*Y286700D01*
X142300D01*
Y293300D01*
X135700D01*
G37*
G54D64*X149000Y290000D03*
X177500Y280000D03*
X187500D03*
X197500D03*
G54D63*G36*
X279200Y378300D02*Y371700D01*
X285800D01*
Y378300D01*
X279200D01*
G37*
G54D64*X282500Y365000D03*
G54D63*G36*
X274200Y355800D02*Y349200D01*
X280800D01*
Y355800D01*
X274200D01*
G37*
G54D64*X287500Y352500D03*
X277500Y342500D03*
X287500D03*
X277500Y332500D03*
X262500Y335000D03*
X252500D03*
X262500Y345000D03*
X252500D03*
X287500Y332500D03*
X277500Y322500D03*
Y312500D03*
G54D63*G36*
X259200Y318300D02*Y311700D01*
X265800D01*
Y318300D01*
X259200D01*
G37*
G54D64*X252500Y315000D03*
X262500Y325000D03*
X252500D03*
X287500Y322500D03*
Y312500D03*
G54D65*X212461Y353350D02*X214823D01*
X178602Y316343D02*X182539D01*
X178602Y320673D02*X182539D01*
X178602Y325004D02*X182539D01*
X178602Y329335D02*X182539D01*
X178602Y333665D02*X182539D01*
X178602Y337996D02*X182539D01*
X178602Y342327D02*X182539D01*
G54D63*G36*
X178193Y354941D02*Y349004D01*
X184130D01*
Y354941D01*
X178193D01*
G37*
G54D65*X222106Y351776D02*X224272D01*
X209705Y306303D02*X212461D01*
X216988Y308469D02*Y306697D01*
X178602Y312012D02*X182539D01*
G54D63*G36*
X178587Y310256D02*Y304319D01*
X184524D01*
Y310256D01*
X178587D01*
G37*
M02*
