G04 start of page 8 for group -4079 idx -4079 *
G04 Title: riffle, topsilk *
G04 Creator: pcb 1.99z *
G04 CreationDate: Sun 23 Mar 2014 08:21:17 PM GMT UTC *
G04 For: ben *
G04 Format: Gerber/RS-274X *
G04 PCB-Dimensions (mil): 6000.00 5000.00 *
G04 PCB-Coordinate-Origin: lower left *
%MOIN*%
%FSLAX25Y25*%
%LNTOPSILK*%
%ADD68C,0.0080*%
%ADD67C,0.0060*%
%ADD66C,0.0100*%
%ADD65C,0.0001*%
G54D65*G36*
X237179Y353139D02*Y351816D01*
X235269D01*
X234972Y351714D01*
X234829Y351644D01*
X234732Y351550D01*
X234662Y351425D01*
X234542Y350828D01*
X234510Y350080D01*
Y349146D01*
X235834D01*
Y347801D01*
X234510D01*
Y342462D01*
X233164D01*
Y347801D01*
X231840D01*
Y349146D01*
X233164D01*
Y349862D01*
X233192Y350748D01*
X233251Y351317D01*
X233381Y351892D01*
X233663Y352358D01*
X233902Y352678D01*
X234282Y352922D01*
X234754Y353085D01*
X235291Y353139D01*
X237179D01*
G37*
G36*
X239392Y353161D02*X240715D01*
Y342483D01*
X239392D01*
Y353161D01*
G37*
G36*
X230092Y353139D02*Y351816D01*
X228183D01*
X227862Y351708D01*
X227726Y351613D01*
X227646Y351550D01*
X227575Y351425D01*
X227456Y350828D01*
X227423Y350080D01*
Y349146D01*
X228747D01*
Y347801D01*
X227423D01*
Y342462D01*
X226078D01*
Y347801D01*
X224754D01*
Y349146D01*
X226078D01*
Y349862D01*
X226088Y351199D01*
X226295Y351892D01*
X226577Y352358D01*
X226815Y352678D01*
X227195Y352922D01*
X227667Y353085D01*
X228204Y353139D01*
X230092D01*
G37*
G36*
X219633D02*X220957D01*
Y351816D01*
X219633D01*
Y353139D01*
G37*
G36*
Y349146D02*X220957D01*
Y342462D01*
X219633D01*
Y349146D01*
G37*
G36*
X238195Y340162D02*X240772D01*
X240855Y340129D01*
X240902Y340053D01*
X240951Y339814D01*
X240995Y339592D01*
X241386Y337460D01*
X241433Y337373D01*
X241516Y337314D01*
X241619Y337270D01*
X242409Y336999D01*
X243159Y336641D01*
X243164D01*
X243252Y336603D01*
X243349Y336589D01*
X243447Y336620D01*
X245220Y337839D01*
X245411Y337964D01*
X245612Y338100D01*
X245698Y338125D01*
X245779Y338089D01*
X246111Y337759D01*
X246614Y337259D01*
X246773Y337096D01*
X247272Y336599D01*
X247434Y336441D01*
X247602Y336267D01*
X247640Y336182D01*
X247619Y336093D01*
X247483Y335892D01*
X247353Y335702D01*
X246164Y333966D01*
X246133Y333875D01*
X246148Y333777D01*
X246193Y333678D01*
X246876Y332072D01*
X246913Y331981D01*
X246976Y331903D01*
X247066Y331856D01*
X249105Y331475D01*
X249329Y331432D01*
X249572Y331389D01*
X249647Y331342D01*
X249676Y331259D01*
Y328682D01*
X249647Y328593D01*
X249572Y328546D01*
X249329Y328503D01*
X249105Y328460D01*
X247126Y328091D01*
X247038Y328043D01*
X246984Y327960D01*
X246956Y327900D01*
Y327889D01*
X246240Y326116D01*
X246236Y326104D01*
X246219Y326062D01*
X246202Y325960D01*
X246229Y325866D01*
X247359Y324234D01*
X247483Y324043D01*
X247624Y323842D01*
X247643Y323756D01*
X247602Y323675D01*
X247434Y323495D01*
X247272Y323338D01*
X245953Y322020D01*
X245779Y321852D01*
X245698Y321812D01*
X245612Y321829D01*
X245411Y321971D01*
X245220Y322095D01*
X243626Y323192D01*
X243527Y323221D01*
X243429Y323202D01*
X243099Y323018D01*
X242905Y322909D01*
X242558Y322731D01*
X242473Y322725D01*
X242411Y322786D01*
X242264Y323142D01*
X242177Y323349D01*
X240794Y326707D01*
X240706Y326913D01*
X240609Y327146D01*
X240605Y327241D01*
X240658Y327314D01*
X240881Y327445D01*
X241022Y327553D01*
X241558Y327999D01*
X241973Y328563D01*
X242240Y329222D01*
X242334Y329952D01*
X242276Y330527D01*
X242111Y331062D01*
X241848Y331546D01*
X241499Y331968D01*
X241079Y332317D01*
X240595Y332581D01*
X240061Y332746D01*
X239487Y332804D01*
X238912Y332746D01*
X238377Y332581D01*
X237894Y332317D01*
X237472Y331968D01*
X237124Y331546D01*
X236862Y331062D01*
X236697Y330527D01*
X236638Y329952D01*
X236731Y329222D01*
X236998Y328563D01*
X237412Y327999D01*
X237951Y327553D01*
X238087Y327445D01*
X238309Y327314D01*
X238363Y327241D01*
X238358Y327146D01*
X238261Y326913D01*
X238173Y326707D01*
X236790Y323349D01*
X236703Y323142D01*
X236556Y322786D01*
X236495Y322725D01*
X236411Y322731D01*
X236069Y322909D01*
X235868Y323018D01*
X235537Y323202D01*
X235438Y323221D01*
X235340Y323192D01*
X233747Y322095D01*
X233562Y321971D01*
X233356Y321829D01*
X233269Y321812D01*
X233187Y321852D01*
X233013Y322020D01*
X232856Y322182D01*
X232358Y322681D01*
X232195Y322839D01*
X231695Y323338D01*
X231533Y323495D01*
X231364Y323675D01*
X231326Y323756D01*
X231348Y323842D01*
X231484Y324043D01*
X231614Y324234D01*
X232737Y325866D01*
X232764Y325960D01*
X232748Y326062D01*
X232726Y326121D01*
X232016Y327895D01*
X231983Y327960D01*
X231929Y328043D01*
X231843Y328091D01*
X229862Y328460D01*
X229640Y328503D01*
X229401Y328546D01*
X229322Y328596D01*
X229292Y328682D01*
Y331259D01*
X229322Y331342D01*
X229401Y331389D01*
X229640Y331438D01*
X229862Y331475D01*
X231902Y331856D01*
X231990Y331903D01*
X232053Y331986D01*
X232090Y332072D01*
X232779Y333678D01*
X232819Y333777D01*
X232836Y333875D01*
X232808Y333966D01*
X231614Y335707D01*
X231484Y335892D01*
X231348Y336093D01*
X231326Y336182D01*
X231364Y336267D01*
X231533Y336441D01*
X231695Y336599D01*
X233187Y338089D01*
X233269Y338125D01*
X233356Y338106D01*
X233562Y337970D01*
X233747Y337839D01*
X235520Y336620D01*
X235618Y336591D01*
X235716Y336609D01*
X235802Y336641D01*
X235813Y336646D01*
X236559Y337000D01*
X237349Y337275D01*
X237452Y337314D01*
X237536Y337373D01*
X237581Y337460D01*
X237979Y339592D01*
X238016Y339814D01*
X238064Y340053D01*
X238112Y340129D01*
X238195Y340162D01*
G37*
G36*
X249252Y345919D02*Y345095D01*
X243727Y345113D01*
X243836Y344616D01*
X243984Y344362D01*
X244217Y344211D01*
X244479Y344092D01*
X244866Y343915D01*
X245393Y343792D01*
X245903Y343663D01*
X246558Y343583D01*
X246757Y343581D01*
X247115D01*
X247494Y343590D01*
X247896Y343589D01*
X248102Y343581D01*
X248449Y343603D01*
X248905Y343693D01*
X249252Y343771D01*
Y342425D01*
X246475D01*
X245476Y342485D01*
X244738Y342648D01*
X244153Y342924D01*
X243632Y343315D01*
X243145Y343713D01*
X242816Y344236D01*
X242606Y344953D01*
X242590Y345702D01*
X242585Y346462D01*
X242718Y347042D01*
X243100Y347655D01*
X243545Y348176D01*
X243930Y348556D01*
X244543Y348854D01*
X245297Y349044D01*
X246072Y349042D01*
X246697Y348898D01*
X247321Y348751D01*
X247912Y348567D01*
X247408Y347395D01*
X246746Y347574D01*
X246084Y347764D01*
X245533Y347735D01*
X245104Y347600D01*
X244874Y347503D01*
X244608Y347395D01*
X244267Y347097D01*
X244088Y346885D01*
X244001Y346690D01*
X243957Y346440D01*
X247929D01*
X247858Y346618D01*
X247721Y346939D01*
X247581Y347140D01*
X247408Y347395D01*
X247912Y348567D01*
X248461Y348121D01*
X249096Y347133D01*
X249252Y345919D01*
G37*
G36*
X216226Y347801D02*X215402D01*
X214550Y347524D01*
X214257Y347454D01*
X214013Y347280D01*
X213758Y346906D01*
X213622Y346569D01*
X213568Y346227D01*
X213557Y345804D01*
Y342462D01*
X212233D01*
Y349146D01*
X213557D01*
Y347801D01*
X213546Y347953D01*
X213769Y348240D01*
X214094Y348560D01*
X214403Y348799D01*
X214572Y348843D01*
X214886Y348962D01*
X215282Y349092D01*
X215684Y349146D01*
X216226D01*
Y347801D01*
G37*
G36*
X203694Y334427D02*X203477Y335366D01*
X203374Y335491D01*
X203227D01*
X201209Y335203D01*
X201024Y335556D01*
X200818Y336424D01*
X200601Y337579D01*
X199961Y337504D01*
X199402Y337482D01*
X199245Y337715D01*
X197932Y344318D01*
X196793Y350769D01*
X197384Y350980D01*
X197861Y351203D01*
X197666Y352342D01*
X197541Y353421D01*
X197639Y353639D01*
X197851Y353698D01*
X198122Y353747D01*
X199033Y353926D01*
X197498Y354371D01*
X194156Y355130D01*
X193630Y355239D01*
X193613Y355619D01*
X193901D01*
X194574Y355532D01*
X196250Y355114D01*
X199505Y354062D01*
X199750D01*
X199511Y355266D01*
X199353Y356552D01*
X203650Y357420D01*
X203835Y357398D01*
X203954Y357268D01*
X204177Y356313D01*
X204475Y355109D01*
X205430Y355196D01*
X206564Y355364D01*
X206748Y355244D01*
X206830Y354973D01*
X206906Y354566D01*
X208278Y355027D01*
X211143Y355787D01*
X212401Y355923D01*
X213741Y355933D01*
X216015Y355695D01*
X219091Y354783D01*
X221988Y353948D01*
X223171Y353742D01*
X224278Y353676D01*
X225401Y353758D01*
X226610Y353975D01*
X229616Y354843D01*
X232969Y355798D01*
X234521Y355977D01*
X234993Y355966D01*
X235047Y355879D01*
X234944Y355781D01*
X235047Y355722D01*
X234971Y355657D01*
X234548Y355581D01*
X231623Y355190D01*
X229095Y354425D01*
X225623Y353438D01*
X224299Y353264D01*
X222959Y353253D01*
X220540Y353557D01*
X217306Y354528D01*
X214566Y355326D01*
X212434Y355537D01*
X210215Y355304D01*
X207535Y354528D01*
X206998Y354192D01*
X207063Y353910D01*
X207079Y353720D01*
X207296Y353053D01*
X207898Y353047D01*
X208533Y353123D01*
X211099Y339912D01*
X210985Y339685D01*
X210492Y339571D01*
X210014Y339462D01*
X209949Y339288D01*
X210237Y337883D01*
X210437Y336890D01*
X209238Y336673D01*
X208235Y336435D01*
X208398Y335241D01*
X208501Y333988D01*
X204215Y333136D01*
X203981Y333223D01*
X203694Y334427D01*
G37*
G54D66*X140000Y300500D02*Y288500D01*
X155000Y277500D02*Y276000D01*
X152500D02*X157500D01*
X153500Y274500D02*X156500D01*
X127500Y379500D02*Y375500D01*
X125500Y377500D02*X129500D01*
X119500Y362000D02*Y358000D01*
X154500Y273000D02*X155500D01*
X167500Y277500D02*Y276000D01*
X165000D02*X170000D01*
X166000Y274500D02*X169000D01*
X167000Y273000D02*X168000D01*
X232500Y277500D02*Y276000D01*
X230000D02*X235000D01*
X231000Y274500D02*X234000D01*
X232000Y273000D02*X233000D01*
G54D67*X192000Y275220D02*X193520D01*
X192760Y275980D02*Y274460D01*
X194432Y276360D02*X194812Y276740D01*
X195572D01*
X195952Y276360D01*
X195572Y273700D02*X195952Y274080D01*
X194812Y273700D02*X195572D01*
X194432Y274080D02*X194812Y273700D01*
Y275372D02*X195572D01*
X195952Y276360D02*Y275752D01*
Y274992D02*Y274080D01*
Y274992D02*X195572Y275372D01*
X195952Y275752D02*X195572Y275372D01*
X196864Y276740D02*X197624Y273700D01*
X198384Y276740D01*
X199296Y276360D02*X199676Y276740D01*
X200436D01*
X200816Y276360D01*
X200436Y273700D02*X200816Y274080D01*
X199676Y273700D02*X200436D01*
X199296Y274080D02*X199676Y273700D01*
Y275372D02*X200436D01*
X200816Y276360D02*Y275752D01*
Y274992D02*Y274080D01*
Y274992D02*X200436Y275372D01*
X200816Y275752D02*X200436Y275372D01*
X185000Y276760D02*X186480D01*
X185740D02*Y273800D01*
X187368D02*X189218Y276760D01*
X187368D02*X189218Y273800D01*
X175000Y276740D02*X176520D01*
X176900Y276360D01*
Y275600D01*
X176520Y275220D02*X176900Y275600D01*
X175380Y275220D02*X176520D01*
X175380Y276740D02*Y273700D01*
X175988Y275220D02*X176900Y273700D01*
X177812D02*X179712Y276740D01*
X177812D02*X179712Y273700D01*
X132518Y273800D02*X133480D01*
X132000Y274318D02*X132518Y273800D01*
X132000Y276242D02*Y274318D01*
Y276242D02*X132518Y276760D01*
X133480D01*
X134368D02*Y273800D01*
X135848D01*
X136736Y276760D02*Y273800D01*
Y275280D02*X138216Y276760D01*
X136736Y275280D02*X138216Y273800D01*
X142380Y276740D02*Y273700D01*
X143368Y276740D02*X143900Y276208D01*
Y274232D01*
X143368Y273700D02*X143900Y274232D01*
X142000Y273700D02*X143368D01*
X142000Y276740D02*X143368D01*
X144812D02*X145572D01*
X145192D02*Y273700D01*
X144812D02*X145572D01*
X146484Y276360D02*Y274080D01*
Y276360D02*X146864Y276740D01*
X147624D01*
X148004Y276360D01*
Y274080D01*
X147624Y273700D02*X148004Y274080D01*
X146864Y273700D02*X147624D01*
X146484Y274080D02*X146864Y273700D01*
X212500Y338840D02*X213720Y336400D01*
X214940Y338840D02*X213720Y336400D01*
X216404Y340670D02*X217014Y341280D01*
X218234D01*
X218844Y340670D01*
X218234Y336400D02*X218844Y337010D01*
X217014Y336400D02*X218234D01*
X216404Y337010D02*X217014Y336400D01*
Y339084D02*X218234D01*
X218844Y340670D02*Y339694D01*
Y338474D02*Y337010D01*
Y338474D02*X218234Y339084D01*
X218844Y339694D02*X218234Y339084D01*
X220308Y336400D02*X220918D01*
X222382Y340304D02*X223358Y341280D01*
Y336400D01*
X222382D02*X224212D01*
X220520Y276740D02*X220900Y276360D01*
X219380Y276740D02*X220520D01*
X219000Y276360D02*X219380Y276740D01*
X219000Y276360D02*Y275600D01*
X219380Y275220D01*
X220520D01*
X220900Y274840D01*
Y274080D01*
X220520Y273700D02*X220900Y274080D01*
X219380Y273700D02*X220520D01*
X219000Y274080D02*X219380Y273700D01*
X222192Y276740D02*Y273700D01*
X223180Y276740D02*X223712Y276208D01*
Y274232D01*
X223180Y273700D02*X223712Y274232D01*
X221812Y273700D02*X223180D01*
X221812Y276740D02*X223180D01*
X224624Y275980D02*Y273700D01*
Y275980D02*X225156Y276740D01*
X225992D01*
X226524Y275980D01*
Y273700D01*
X224624Y275220D02*X226524D01*
X210520Y276740D02*X210900Y276360D01*
X209380Y276740D02*X210520D01*
X209000Y276360D02*X209380Y276740D01*
X209000Y276360D02*Y275600D01*
X209380Y275220D01*
X210520D01*
X210900Y274840D01*
Y274080D01*
X210520Y273700D02*X210900Y274080D01*
X209380Y273700D02*X210520D01*
X209000Y274080D02*X209380Y273700D01*
X212344D02*X213332D01*
X211812Y274232D02*X212344Y273700D01*
X211812Y276208D02*Y274232D01*
Y276208D02*X212344Y276740D01*
X213332D01*
X214244D02*Y273700D01*
X215764D01*
X120000Y280000D02*Y276000D01*
X121300Y280000D02*X122000Y279300D01*
Y276700D01*
X121300Y276000D02*X122000Y276700D01*
X119500Y276000D02*X121300D01*
X119500Y280000D02*X121300D01*
X123200Y276000D02*X125200D01*
X125700Y276500D01*
Y277700D02*Y276500D01*
X125200Y278200D02*X125700Y277700D01*
X123700Y278200D02*X125200D01*
X123700Y280000D02*Y276000D01*
X123200Y280000D02*X125200D01*
X125700Y279500D01*
Y278700D01*
X125200Y278200D02*X125700Y278700D01*
X128900Y280000D02*X129400Y279500D01*
X127400Y280000D02*X128900D01*
X126900Y279500D02*X127400Y280000D01*
X126900Y279500D02*Y276500D01*
X127400Y276000D01*
X128900D01*
X129400Y276500D01*
Y277500D02*Y276500D01*
X128900Y278000D02*X129400Y277500D01*
X127900Y278000D02*X128900D01*
G54D66*X277500Y380000D02*Y360000D01*
X287500D01*
Y380000D02*Y360000D01*
X277500Y380000D02*X287500D01*
X277500Y370000D02*X287500D01*
Y380000D02*Y370000D01*
X270000Y350000D02*Y310000D01*
X250000Y350000D02*X270000D01*
X250000D02*Y310000D01*
X270000D01*
X260000Y320000D02*X270000D01*
X260000D02*Y310000D01*
X250600Y368500D02*X264500D01*
X250600D02*Y355700D01*
X264500D01*
Y368500D02*Y355700D01*
G54D67*X265825Y360883D02*Y351022D01*
Y360883D02*X270175D01*
Y351022D01*
X265825D02*X270175D01*
X265975Y369080D02*X275836D01*
Y364731D01*
X265975D02*X275836D01*
X265975Y369080D02*Y364731D01*
G54D66*X272500Y357500D02*Y307500D01*
X292500D01*
Y357500D01*
X272500D01*
Y347500D02*X282500D01*
Y357500D01*
G54D67*X232431Y325325D02*X222569D01*
Y329675D01*
X232431D01*
Y325325D01*
G54D66*X219400Y367200D02*Y371250D01*
X223000Y374850D01*
X225600D01*
Y367200D01*
X219400Y362800D02*Y355150D01*
X225600D01*
Y362800D01*
X207500Y277500D02*X237500D01*
Y287500D02*Y277500D01*
X207500Y287500D02*X237500D01*
X207500D02*Y277500D01*
X217500Y287500D02*Y277500D01*
X207500Y287500D02*X217500D01*
G54D67*X247175Y303931D02*Y294069D01*
X242825D02*X247175D01*
X242825Y303931D02*Y294069D01*
Y303931D02*X247175D01*
G54D66*X217732Y318982D02*Y295596D01*
X241118D01*
Y318982D02*Y295596D01*
X217732Y318982D02*X241118D01*
X221669Y295596D02*X217732Y299533D01*
G54D67*X222431Y325325D02*X212569D01*
Y329675D01*
X222431D01*
Y325325D01*
G54D66*X162500Y277500D02*X202500D01*
Y287500D02*Y277500D01*
X162500Y287500D02*X202500D01*
X162500D02*Y277500D01*
X172500Y287500D02*Y277500D01*
X162500Y287500D02*X172500D01*
X197795Y314705D02*X172205D01*
Y340295D01*
X197795D01*
Y314705D01*
X172205Y340295D02*X168268Y344232D01*
G54D67*X280978Y302825D02*X271117D01*
Y307175D01*
X280978D01*
Y302825D01*
X255069Y309675D02*X264931D01*
Y305325D01*
X255069D02*X264931D01*
X255069Y309675D02*Y305325D01*
X292978Y302825D02*X283117D01*
Y307175D01*
X292978D01*
Y302825D01*
G54D66*X263464Y275532D02*X287874D01*
X263464Y290492D02*Y275532D01*
Y290492D02*X287874D01*
Y275532D01*
X122500Y375000D02*Y355000D01*
X132500D01*
Y375000D02*Y355000D01*
X122500Y375000D02*X132500D01*
X122500Y365000D02*X132500D01*
Y375000D02*Y365000D01*
G54D67*X138175Y362931D02*Y353069D01*
X133825D02*X138175D01*
X133825Y362931D02*Y353069D01*
Y362931D02*X138175D01*
G54D66*X145750Y364700D02*Y367375D01*
X146975Y368600D01*
X149250D01*
Y364700D01*
X145750Y360300D02*Y356400D01*
X149250D01*
Y360300D01*
G54D67*X149931Y370325D02*X140069D01*
Y374675D01*
X149931D01*
Y370325D01*
X141978Y374825D02*X132117D01*
Y379175D01*
X141978D01*
Y374825D01*
G54D68*X162755Y362893D02*Y362107D01*
X157245Y362893D02*Y362107D01*
X156150Y375755D02*X156936D01*
X156150Y370245D02*X156936D01*
G54D67*X165022Y368175D02*X174883D01*
Y363825D01*
X165022D02*X174883D01*
X165022Y368175D02*Y363825D01*
X162569Y357175D02*X172431D01*
Y352825D01*
X162569D02*X172431D01*
X162569Y357175D02*Y352825D01*
X172825Y379478D02*Y369617D01*
Y379478D02*X177175D01*
Y369617D01*
X172825D02*X177175D01*
G54D66*X184600Y377800D02*X198500D01*
X184600D02*Y365000D01*
X198500D01*
Y377800D02*Y365000D01*
G54D67*X184175Y374324D02*Y364463D01*
X179825D02*X184175D01*
X179825Y374324D02*Y364463D01*
Y374324D02*X184175D01*
X173069Y363175D02*X182931D01*
Y358825D01*
X173069D02*X182931D01*
X173069Y363175D02*Y358825D01*
X184676Y364175D02*X194537D01*
Y359825D01*
X184676D02*X194537D01*
X184676Y364175D02*Y359825D01*
X147069Y340825D02*X156931D01*
X147069Y345175D02*Y340825D01*
Y345175D02*X156931D01*
Y340825D01*
X140117Y350175D02*X149978D01*
Y345825D01*
X140117D02*X149978D01*
X140117Y350175D02*Y345825D01*
X152765Y329825D02*X142904D01*
Y334175D01*
X152765D01*
Y329825D01*
X152706Y335384D02*X142845D01*
Y339734D01*
X152706D01*
Y335384D01*
G54D66*X114744Y352717D02*X119075D01*
X114744Y317283D02*X119075D01*
X127343Y352717D02*X137185D01*
X127343Y317283D02*X137185D01*
Y352717D02*Y341299D01*
Y328701D02*Y317283D01*
G54D67*X164383Y329325D02*X154522D01*
Y333675D01*
X164383D01*
Y329325D01*
X162175Y345265D02*Y335404D01*
X157825D02*X162175D01*
X157825Y345265D02*Y335404D01*
Y345265D02*X162175D01*
Y324931D02*Y315069D01*
X157825D02*X162175D01*
X157825Y324931D02*Y315069D01*
Y324931D02*X162175D01*
X169931Y309825D02*X160069D01*
Y314175D01*
X169931D01*
Y309825D01*
X160117Y304825D02*X169978D01*
X160117Y309175D02*Y304825D01*
Y309175D02*X169978D01*
Y304825D01*
X142069Y314825D02*X151931D01*
X142069Y319175D02*Y314825D01*
Y319175D02*X151931D01*
Y314825D01*
X157175Y324931D02*Y315069D01*
X152825D02*X157175D01*
X152825Y324931D02*Y315069D01*
Y324931D02*X157175D01*
X129928Y315175D02*X139789D01*
Y310825D01*
X129928D02*X139789D01*
X129928Y315175D02*Y310825D01*
X125269Y294978D02*Y285117D01*
X120920D02*X125269D01*
X120920Y294978D02*Y285117D01*
Y294978D02*X125269D01*
G54D66*X120000Y296700D02*X133900D01*
Y309500D02*Y296700D01*
X120000Y309500D02*X133900D01*
X120000D02*Y296700D01*
X130000Y277500D02*X160000D01*
Y287500D02*Y277500D01*
X130000Y287500D02*X160000D01*
X130000D02*Y277500D01*
X140000Y287500D02*Y277500D01*
X130000Y287500D02*X140000D01*
X178500Y300500D02*X140000D01*
Y288500D02*X178500D01*
X140000D02*X178500D01*
Y300500D01*
G54D67*X154175Y311978D02*Y302117D01*
X149825D02*X154175D01*
X149825Y311978D02*Y302117D01*
Y311978D02*X154175D01*
X117500Y374000D02*X121500D01*
Y374500D02*Y372500D01*
X121000Y372000D01*
X120000D02*X121000D01*
X119500Y372500D02*X120000Y372000D01*
X119500Y374000D02*Y372500D01*
Y370800D02*X121500D01*
X119500D02*X117500Y370300D01*
X119500Y369300D01*
X117500Y368300D01*
X119500Y367800D01*
X121500D01*
Y366600D02*Y364600D01*
X121000Y364100D01*
X120000D02*X121000D01*
X119500Y364600D02*X120000Y364100D01*
X119500Y366100D02*Y364600D01*
X117500Y366100D02*X121500D01*
X119500Y365300D02*X117500Y364100D01*
X134556Y375002D02*Y372882D01*
X135245Y375002D02*X135616Y374631D01*
Y373253D01*
X135245Y372882D02*X135616Y373253D01*
X134291Y372882D02*X135245D01*
X134291Y375002D02*X135245D01*
X136252Y374737D02*X136517Y375002D01*
X137312D01*
X137577Y374737D01*
Y374207D01*
X136252Y372882D02*X137577Y374207D01*
X136252Y372882D02*X137577D01*
X134871Y356724D02*X135560D01*
X134500Y357095D02*X134871Y356724D01*
X134500Y358473D02*Y357095D01*
Y358473D02*X134871Y358844D01*
X135560D01*
X136196Y358579D02*X136461Y358844D01*
X136991D01*
X137256Y358579D01*
X136991Y356724D02*X137256Y356989D01*
X136461Y356724D02*X136991D01*
X136196Y356989D02*X136461Y356724D01*
Y357890D02*X136991D01*
X137256Y358579D02*Y358155D01*
Y357625D02*Y356989D01*
Y357625D02*X136991Y357890D01*
X137256Y358155D02*X136991Y357890D01*
X143425Y377174D02*X144127D01*
X143047Y377552D02*X143425Y377174D01*
X143047Y378956D02*Y377552D01*
Y378956D02*X143425Y379334D01*
X144127D01*
X144775Y378902D02*X145207Y379334D01*
Y377174D01*
X144775D02*X145585D01*
X263500Y379000D02*Y375000D01*
Y379000D02*X265500D01*
X263500Y377200D02*X265000D01*
X266700Y379000D02*Y375000D01*
X268700D01*
X269900Y378500D02*Y375500D01*
Y378500D02*X270400Y379000D01*
X271400D01*
X271900Y378500D01*
Y375500D01*
X271400Y375000D02*X271900Y375500D01*
X270400Y375000D02*X271400D01*
X269900Y375500D02*X270400Y375000D01*
X273100Y379000D02*Y377000D01*
X273600Y375000D01*
X274600Y377000D01*
X275600Y375000D01*
X276100Y377000D01*
Y379000D02*Y377000D01*
X199300Y368300D02*Y365300D01*
Y368300D02*X199800Y368800D01*
X200800D01*
X201300Y368300D01*
Y365800D01*
X200300Y364800D02*X201300Y365800D01*
X199800Y364800D02*X200300D01*
X199300Y365300D02*X199800Y364800D01*
X200300Y366300D02*X201300Y364800D01*
X202500Y368000D02*X203300Y368800D01*
Y364800D01*
X202500D02*X204000D01*
X250500Y355000D02*Y351000D01*
Y355000D02*X253000Y351000D01*
Y355000D02*Y351000D01*
X254200Y355000D02*X256200D01*
X256700Y354500D01*
Y353500D01*
X256200Y353000D02*X256700Y353500D01*
X254700Y353000D02*X256200D01*
X254700Y355000D02*Y351000D01*
X255500Y353000D02*X256700Y351000D01*
X257900Y355000D02*Y351000D01*
Y355000D02*X259900D01*
X257900Y353200D02*X259400D01*
X260000Y372345D02*Y370035D01*
Y372345D02*X260385Y372730D01*
X261155D01*
X261540Y372345D01*
Y370420D01*
X260770Y369650D02*X261540Y370420D01*
X260385Y369650D02*X260770D01*
X260000Y370035D02*X260385Y369650D01*
X260770Y370805D02*X261540Y369650D01*
X262464Y372345D02*X262849Y372730D01*
X263619D01*
X264004Y372345D01*
X263619Y369650D02*X264004Y370035D01*
X262849Y369650D02*X263619D01*
X262464Y370035D02*X262849Y369650D01*
Y371344D02*X263619D01*
X264004Y372345D02*Y371729D01*
Y370959D02*Y370035D01*
Y370959D02*X263619Y371344D01*
X264004Y371729D02*X263619Y371344D01*
X267133Y369619D02*X268134D01*
X266594Y370158D02*X267133Y369619D01*
X266594Y372160D02*Y370158D01*
Y372160D02*X267133Y372699D01*
X268134D01*
X269058D02*X270598D01*
X269058D02*Y371159D01*
X269443Y371544D01*
X270213D01*
X270598Y371159D01*
Y370004D01*
X270213Y369619D02*X270598Y370004D01*
X269443Y369619D02*X270213D01*
X269058Y370004D02*X269443Y369619D01*
X288500Y360500D02*Y358500D01*
Y360500D02*X289000Y361000D01*
X290000D01*
X290500Y360500D02*X290000Y361000D01*
X290500Y360500D02*Y359000D01*
X288500D02*X292500D01*
X290500Y359800D02*X292500Y361000D01*
X290300Y363700D02*Y362200D01*
X292500Y364200D02*Y362200D01*
X288500D02*X292500D01*
X288500Y364200D02*Y362200D01*
Y365400D02*X292500D01*
X288500D02*X290500Y366900D01*
X288500Y368400D01*
X292500D01*
X289000Y369600D02*X292000D01*
X289000D02*X288500Y370100D01*
Y371100D02*Y370100D01*
Y371100D02*X289000Y371600D01*
X292000D01*
X292500Y371100D02*X292000Y371600D01*
X292500Y371100D02*Y370100D01*
X292000Y369600D02*X292500Y370100D01*
X288500Y374800D02*Y372800D01*
Y373800D02*X292500D01*
X290300Y377500D02*Y376000D01*
X292500Y378000D02*Y376000D01*
X288500D02*X292500D01*
X288500Y378000D02*Y376000D01*
X271079Y359574D02*X272067D01*
X270547Y360106D02*X271079Y359574D01*
X270547Y362082D02*Y360106D01*
Y362082D02*X271079Y362614D01*
X272067D01*
X272979Y362006D02*X273587Y362614D01*
Y359574D01*
X272979D02*X274119D01*
X275031Y362614D02*X276551D01*
X275031D02*Y361094D01*
X275411Y361474D01*
X276171D01*
X276551Y361094D01*
Y359954D01*
X276171Y359574D02*X276551Y359954D01*
X275411Y359574D02*X276171D01*
X275031Y359954D02*X275411Y359574D01*
X220150Y379850D02*Y376350D01*
X220650Y375850D01*
X221650D01*
X222150Y376350D01*
Y379850D02*Y376350D01*
X223350Y379350D02*X223850Y379850D01*
X224850D01*
X225350Y379350D01*
X224850Y375850D02*X225350Y376350D01*
X223850Y375850D02*X224850D01*
X223350Y376350D02*X223850Y375850D01*
Y378050D02*X224850D01*
X225350Y379350D02*Y378550D01*
Y377550D02*Y376350D01*
Y377550D02*X224850Y378050D01*
X225350Y378550D02*X224850Y378050D01*
X154893Y379400D02*Y376400D01*
X156393D01*
X157293Y379025D02*X157668Y379400D01*
X158418D01*
X158793Y379025D01*
X158418Y376400D02*X158793Y376775D01*
X157668Y376400D02*X158418D01*
X157293Y376775D02*X157668Y376400D01*
Y378050D02*X158418D01*
X158793Y379025D02*Y378425D01*
Y377675D02*Y376775D01*
Y377675D02*X158418Y378050D01*
X158793Y378425D02*X158418Y378050D01*
X177933Y375024D02*X178934D01*
X177394Y375563D02*X177933Y375024D01*
X177394Y377565D02*Y375563D01*
Y377565D02*X177933Y378104D01*
X178934D01*
X179858Y377488D02*X180474Y378104D01*
Y375024D01*
X179858D02*X181013D01*
X181937Y377719D02*X182322Y378104D01*
X183092D01*
X183477Y377719D01*
X183092Y375024D02*X183477Y375409D01*
X182322Y375024D02*X183092D01*
X181937Y375409D02*X182322Y375024D01*
Y376718D02*X183092D01*
X183477Y377719D02*Y377103D01*
Y376333D02*Y375409D01*
Y376333D02*X183092Y376718D01*
X183477Y377103D02*X183092Y376718D01*
X147378Y375674D02*X148080D01*
X147000Y376052D02*X147378Y375674D01*
X147000Y377456D02*Y376052D01*
Y377456D02*X147378Y377834D01*
X148080D01*
X148728Y377564D02*X148998Y377834D01*
X149808D01*
X150078Y377564D01*
Y377024D01*
X148728Y375674D02*X150078Y377024D01*
X148728Y375674D02*X150078D01*
X141776Y343163D02*X143316D01*
X143701Y342778D01*
Y342008D01*
X143316Y341623D02*X143701Y342008D01*
X142161Y341623D02*X143316D01*
X142161Y343163D02*Y340083D01*
X142777Y341623D02*X143701Y340083D01*
X144625Y342547D02*X145241Y343163D01*
Y340083D01*
X144625D02*X145780D01*
X166331Y369174D02*X167033D01*
X165953Y369552D02*X166331Y369174D01*
X165953Y370956D02*Y369552D01*
Y370956D02*X166331Y371334D01*
X167033D01*
X167681Y369984D02*X168761Y371334D01*
X167681Y369984D02*X169031D01*
X168761Y371334D02*Y369174D01*
X167453Y376104D02*X168993D01*
X169378Y375719D01*
Y374949D01*
X168993Y374564D02*X169378Y374949D01*
X167838Y374564D02*X168993D01*
X167838Y376104D02*Y373024D01*
X168454Y374564D02*X169378Y373024D01*
X170687D02*X171842Y374564D01*
Y375719D02*Y374564D01*
X171457Y376104D02*X171842Y375719D01*
X170687Y376104D02*X171457D01*
X170302Y375719D02*X170687Y376104D01*
X170302Y375719D02*Y374949D01*
X170687Y374564D01*
X171842D01*
X174000Y358104D02*X175540D01*
X175925Y357719D01*
Y356949D01*
X175540Y356564D02*X175925Y356949D01*
X174385Y356564D02*X175540D01*
X174385Y358104D02*Y355024D01*
X175001Y356564D02*X175925Y355024D01*
X176849Y357488D02*X177465Y358104D01*
Y355024D01*
X176849D02*X178004D01*
X178928Y357719D02*X179313Y358104D01*
X180468D01*
X180853Y357719D01*
Y356949D01*
X178928Y355024D02*X180853Y356949D01*
X178928Y355024D02*X180853D01*
X185394Y359104D02*X186934D01*
X187319Y358719D01*
Y357949D01*
X186934Y357564D02*X187319Y357949D01*
X185779Y357564D02*X186934D01*
X185779Y359104D02*Y356024D01*
X186395Y357564D02*X187319Y356024D01*
X188243Y358488D02*X188859Y359104D01*
Y356024D01*
X188243D02*X189398D01*
X190322Y358488D02*X190938Y359104D01*
Y356024D01*
X190322D02*X191477D01*
X166539Y349024D02*X167540D01*
X166000Y349563D02*X166539Y349024D01*
X166000Y351565D02*Y349563D01*
Y351565D02*X166539Y352104D01*
X167540D01*
X168464Y351488D02*X169080Y352104D01*
Y349024D01*
X168464D02*X169619D01*
X170543Y350179D02*X172083Y352104D01*
X170543Y350179D02*X172468D01*
X172083Y352104D02*Y349024D01*
X157350Y355880D02*Y352800D01*
X158890D01*
X159814Y355264D02*X160430Y355880D01*
Y352800D01*
X159814D02*X160969D01*
X147784Y354841D02*Y351841D01*
X148759Y354841D02*X149284Y354316D01*
Y352366D01*
X148759Y351841D02*X149284Y352366D01*
X147409Y351841D02*X148759D01*
X147409Y354841D02*X148759D01*
X150184Y354241D02*X150784Y354841D01*
Y351841D01*
X150184D02*X151309D01*
X152500Y363830D02*Y361135D01*
X152885Y360750D01*
X153655D01*
X154040Y361135D01*
Y363830D02*Y361135D01*
X154964Y363214D02*X155580Y363830D01*
Y360750D01*
X154964D02*X156119D01*
X151953Y350834D02*X153033D01*
X153303Y350564D01*
Y350024D01*
X153033Y349754D02*X153303Y350024D01*
X152223Y349754D02*X153033D01*
X152223Y350834D02*Y348674D01*
X152655Y349754D02*X153303Y348674D01*
X153951Y350564D02*X154221Y350834D01*
X154761D01*
X155031Y350564D01*
X154761Y348674D02*X155031Y348944D01*
X154221Y348674D02*X154761D01*
X153951Y348944D02*X154221Y348674D01*
Y349862D02*X154761D01*
X155031Y350564D02*Y350132D01*
Y349592D02*Y348944D01*
Y349592D02*X154761Y349862D01*
X155031Y350132D02*X154761Y349862D01*
X158586Y325477D02*X159587D01*
X158047Y326016D02*X158586Y325477D01*
X158047Y328018D02*Y326016D01*
Y328018D02*X158586Y328557D01*
X159587D01*
X160896Y325477D02*X162436Y328557D01*
X160511D02*X162436D01*
X153539Y325524D02*X154540D01*
X153000Y326063D02*X153539Y325524D01*
X153000Y328065D02*Y326063D01*
Y328065D02*X153539Y328604D01*
X154540D01*
X155464Y325909D02*X155849Y325524D01*
X155464Y326525D02*Y325909D01*
Y326525D02*X156003Y327064D01*
X156465D01*
X157004Y326525D01*
Y325909D01*
X156619Y325524D02*X157004Y325909D01*
X155849Y325524D02*X156619D01*
X155464Y327603D02*X156003Y327064D01*
X155464Y328219D02*Y327603D01*
Y328219D02*X155849Y328604D01*
X156619D01*
X157004Y328219D01*
Y327603D01*
X156465Y327064D02*X157004Y327603D01*
X170871Y311224D02*X171560D01*
X170500Y311595D02*X170871Y311224D01*
X170500Y312973D02*Y311595D01*
Y312973D02*X170871Y313344D01*
X171560D01*
X172461Y311224D02*X173256Y312284D01*
Y313079D02*Y312284D01*
X172991Y313344D02*X173256Y313079D01*
X172461Y313344D02*X172991D01*
X172196Y313079D02*X172461Y313344D01*
X172196Y313079D02*Y312549D01*
X172461Y312284D01*
X173256D01*
X212500Y324604D02*X214040D01*
X214425Y324219D01*
Y323449D01*
X214040Y323064D02*X214425Y323449D01*
X212885Y323064D02*X214040D01*
X212885Y324604D02*Y321524D01*
X213501Y323064D02*X214425Y321524D01*
X215349Y323988D02*X215965Y324604D01*
Y321524D01*
X215349D02*X216504D01*
X217428Y321909D02*X217813Y321524D01*
X217428Y324219D02*Y321909D01*
Y324219D02*X217813Y324604D01*
X218583D01*
X218968Y324219D01*
Y321909D01*
X218583Y321524D02*X218968Y321909D01*
X217813Y321524D02*X218583D01*
X217428Y322294D02*X218968Y323834D01*
X210939Y318425D02*Y314925D01*
X211439Y314425D01*
X212439D01*
X212939Y314925D01*
Y318425D02*Y314925D01*
X214139Y315925D02*X216139Y318425D01*
X214139Y315925D02*X216639D01*
X216139Y318425D02*Y314425D01*
X223000Y324604D02*Y321524D01*
X224540D01*
X225464Y323218D02*X226619D01*
X225464Y321524D02*X227004D01*
X225464Y324604D02*Y321524D01*
Y324604D02*X227004D01*
X228313D02*Y321524D01*
X229314Y324604D02*X229853Y324065D01*
Y322063D01*
X229314Y321524D02*X229853Y322063D01*
X227928Y321524D02*X229314D01*
X227928Y324604D02*X229314D01*
X275047Y302104D02*X276587D01*
X276972Y301719D01*
Y300949D01*
X276587Y300564D02*X276972Y300949D01*
X275432Y300564D02*X276587D01*
X275432Y302104D02*Y299024D01*
X276048Y300564D02*X276972Y299024D01*
X278281D02*X279821Y302104D01*
X277896D02*X279821D01*
X284547D02*X286087D01*
X286472Y301719D01*
Y300949D01*
X286087Y300564D02*X286472Y300949D01*
X284932Y300564D02*X286087D01*
X284932Y302104D02*Y299024D01*
X285548Y300564D02*X286472Y299024D01*
X287396Y299409D02*X287781Y299024D01*
X287396Y300025D02*Y299409D01*
Y300025D02*X287935Y300564D01*
X288397D01*
X288936Y300025D01*
Y299409D01*
X288551Y299024D02*X288936Y299409D01*
X287781Y299024D02*X288551D01*
X287396Y301103D02*X287935Y300564D01*
X287396Y301719D02*Y301103D01*
Y301719D02*X287781Y302104D01*
X288551D01*
X288936Y301719D01*
Y301103D01*
X288397Y300564D02*X288936Y301103D01*
X249039Y306024D02*X250040D01*
X248500Y306563D02*X249039Y306024D01*
X248500Y308565D02*Y306563D01*
Y308565D02*X249039Y309104D01*
X250040D01*
X250964Y308488D02*X251580Y309104D01*
Y306024D01*
X250964D02*X252119D01*
X253043Y308488D02*X253659Y309104D01*
Y306024D01*
X253043D02*X254198D01*
X249539Y298024D02*X250540D01*
X249000Y298563D02*X249539Y298024D01*
X249000Y300565D02*Y298563D01*
Y300565D02*X249539Y301104D01*
X250540D01*
X251464Y300488D02*X252080Y301104D01*
Y298024D01*
X251464D02*X252619D01*
X253928D02*X255468Y301104D01*
X253543D02*X255468D01*
X283669Y296012D02*X284169Y295512D01*
X282169Y296012D02*X283669D01*
X281669Y295512D02*X282169Y296012D01*
X281669Y295512D02*Y294512D01*
X282169Y294012D01*
X283669D01*
X284169Y293512D01*
Y292512D01*
X283669Y292012D02*X284169Y292512D01*
X282169Y292012D02*X283669D01*
X281669Y292512D02*X282169Y292012D01*
X285369Y295212D02*X286169Y296012D01*
Y292012D01*
X285369D02*X286869D01*
X208500Y292510D02*X209490D01*
X208995D02*Y288550D01*
X208500D02*X209490D01*
X210678Y292015D02*X211173Y292510D01*
X212658D01*
X213153Y292015D01*
Y291025D01*
X210678Y288550D02*X213153Y291025D01*
X210678Y288550D02*X213153D01*
X215034D02*X216321D01*
X214341Y289243D02*X215034Y288550D01*
X214341Y291817D02*Y289243D01*
Y291817D02*X215034Y292510D01*
X216321D01*
X189500D02*Y289045D01*
X189995Y288550D01*
X190985D01*
X191480Y289045D01*
Y292510D02*Y289045D01*
X192668Y291520D02*Y288550D01*
Y291520D02*X193361Y292510D01*
X194450D01*
X195143Y291520D01*
Y288550D01*
X192668Y290530D02*X195143D01*
X196331Y292510D02*X198311D01*
X198806Y292015D01*
Y291025D01*
X198311Y290530D02*X198806Y291025D01*
X196826Y290530D02*X198311D01*
X196826Y292510D02*Y288550D01*
X197618Y290530D02*X198806Y288550D01*
X199994Y292510D02*X201974D01*
X200984D02*Y288550D01*
X197500Y313374D02*Y309874D01*
X198000Y309374D01*
X199000D01*
X199500Y309874D01*
Y313374D02*Y309874D01*
X200700Y312874D02*X201200Y313374D01*
X202700D01*
X203200Y312874D01*
Y311874D01*
X200700Y309374D02*X203200Y311874D01*
X200700Y309374D02*X203200D01*
X180000Y297500D02*X182000D01*
X182500Y297000D01*
Y296000D01*
X182000Y295500D02*X182500Y296000D01*
X180500Y295500D02*X182000D01*
X180500Y297500D02*Y293500D01*
X181300Y295500D02*X182500Y293500D01*
X183700Y297500D02*X185700D01*
X184700D02*Y293500D01*
X187600D02*X188900D01*
X186900Y294200D02*X187600Y293500D01*
X186900Y296800D02*Y294200D01*
Y296800D02*X187600Y297500D01*
X188900D01*
X155000Y347844D02*X156060D01*
X156325Y347579D01*
Y347049D01*
X156060Y346784D02*X156325Y347049D01*
X155265Y346784D02*X156060D01*
X155265Y347844D02*Y345724D01*
X155689Y346784D02*X156325Y345724D01*
X156961Y346519D02*X158021Y347844D01*
X156961Y346519D02*X158286D01*
X158021Y347844D02*Y345724D01*
X154331Y334174D02*X155033D01*
X153953Y334552D02*X154331Y334174D01*
X153953Y335956D02*Y334552D01*
Y335956D02*X154331Y336334D01*
X155033D01*
X156491D02*X156761Y336064D01*
X155951Y336334D02*X156491D01*
X155681Y336064D02*X155951Y336334D01*
X155681Y336064D02*Y334444D01*
X155951Y334174D01*
X156491Y335362D02*X156761Y335092D01*
X155681Y335362D02*X156491D01*
X155951Y334174D02*X156491D01*
X156761Y334444D01*
Y335092D02*Y334444D01*
X163213Y342174D02*X163915D01*
X162835Y342552D02*X163213Y342174D01*
X162835Y343956D02*Y342552D01*
Y343956D02*X163213Y344334D01*
X163915D01*
X164563Y343902D02*X164995Y344334D01*
Y342174D01*
X164563D02*X165373D01*
X166021Y342444D02*X166291Y342174D01*
X166021Y344064D02*Y342444D01*
Y344064D02*X166291Y344334D01*
X166831D01*
X167101Y344064D01*
Y342444D01*
X166831Y342174D02*X167101Y342444D01*
X166291Y342174D02*X166831D01*
X166021Y342714D02*X167101Y343794D01*
X160094Y304340D02*X161634D01*
X162019Y303955D01*
Y303185D01*
X161634Y302800D02*X162019Y303185D01*
X160479Y302800D02*X161634D01*
X160479Y304340D02*Y301260D01*
X161095Y302800D02*X162019Y301260D01*
X162943Y303724D02*X163559Y304340D01*
Y301260D01*
X162943D02*X164098D01*
X165022Y303955D02*X165407Y304340D01*
X166177D01*
X166562Y303955D01*
X166177Y301260D02*X166562Y301645D01*
X165407Y301260D02*X166177D01*
X165022Y301645D02*X165407Y301260D01*
Y302954D02*X166177D01*
X166562Y303955D02*Y303339D01*
Y302569D02*Y301645D01*
Y302569D02*X166177Y302954D01*
X166562Y303339D02*X166177Y302954D01*
X126492Y291119D02*X127493D01*
X125953Y291658D02*X126492Y291119D01*
X125953Y293660D02*Y291658D01*
Y293660D02*X126492Y294199D01*
X127493D01*
X128417Y293583D02*X129033Y294199D01*
Y291119D01*
X128417D02*X129572D01*
X131651Y294199D02*X132036Y293814D01*
X130881Y294199D02*X131651D01*
X130496Y293814D02*X130881Y294199D01*
X130496Y293814D02*Y291504D01*
X130881Y291119D01*
X131651Y292813D02*X132036Y292428D01*
X130496Y292813D02*X131651D01*
X130881Y291119D02*X131651D01*
X132036Y291504D01*
Y292428D02*Y291504D01*
X119000Y314500D02*Y311000D01*
X119500Y310500D01*
X120500D01*
X121000Y311000D01*
Y314500D02*Y311000D01*
X124200Y314500D02*X124700Y314000D01*
X122700Y314500D02*X124200D01*
X122200Y314000D02*X122700Y314500D01*
X122200Y314000D02*Y313000D01*
X122700Y312500D01*
X124200D01*
X124700Y312000D01*
Y311000D01*
X124200Y310500D02*X124700Y311000D01*
X122700Y310500D02*X124200D01*
X122200Y311000D02*X122700Y310500D01*
X125900D02*X127900D01*
X128400Y311000D01*
Y312200D02*Y311000D01*
X127900Y312700D02*X128400Y312200D01*
X126400Y312700D02*X127900D01*
X126400Y314500D02*Y310500D01*
X125900Y314500D02*X127900D01*
X128400Y314000D01*
Y313200D01*
X127900Y312700D02*X128400Y313200D01*
X145835Y329114D02*X147355D01*
X147735Y328734D01*
Y327974D01*
X147355Y327594D02*X147735Y327974D01*
X146215Y327594D02*X147355D01*
X146215Y329114D02*Y326074D01*
X146823Y327594D02*X147735Y326074D01*
X148647Y328734D02*X149027Y329114D01*
X150167D01*
X150547Y328734D01*
Y327974D01*
X148647Y326074D02*X150547Y327974D01*
X148647Y326074D02*X150547D01*
X145977Y324453D02*X149057D01*
X145977D02*Y322913D01*
X148672Y321989D02*X149057Y321604D01*
Y320449D01*
X148672Y320064D01*
X147902D02*X148672D01*
X145977Y321989D02*X147902Y320064D01*
X145977Y321989D02*Y320064D01*
X136181Y307024D02*X137182D01*
X135642Y307563D02*X136181Y307024D01*
X135642Y309565D02*Y307563D01*
Y309565D02*X136181Y310104D01*
X137182D01*
X138106Y309488D02*X138722Y310104D01*
Y307024D01*
X138106D02*X139261D01*
X140185Y309719D02*X140570Y310104D01*
X141725D01*
X142110Y309719D01*
Y308949D01*
X140185Y307024D02*X142110Y308949D01*
X140185Y307024D02*X142110D01*
X142453Y305040D02*X143933D01*
X144303Y304670D01*
Y303930D01*
X143933Y303560D02*X144303Y303930D01*
X142823Y303560D02*X143933D01*
X142823Y305040D02*Y302080D01*
X143415Y303560D02*X144303Y302080D01*
X145191Y304448D02*X145783Y305040D01*
Y302080D01*
X145191D02*X146301D01*
X147189Y303190D02*X148669Y305040D01*
X147189Y303190D02*X149039D01*
X148669Y305040D02*Y302080D01*
X134907Y304866D02*Y301866D01*
Y304866D02*X135407Y305366D01*
X136407D01*
X136907Y304866D01*
Y302366D01*
X135907Y301366D02*X136907Y302366D01*
X135407Y301366D02*X135907D01*
X134907Y301866D02*X135407Y301366D01*
X135907Y302866D02*X136907Y301366D01*
X138107Y304866D02*X138607Y305366D01*
X140107D01*
X140607Y304866D01*
Y303866D01*
X138107Y301366D02*X140607Y303866D01*
X138107Y301366D02*X140607D01*
M02*
