G04 start of page 7 for group -4062 idx -4062 *
G04 Title: riffle, soldermask *
G04 Creator: pcb 1.99z *
G04 CreationDate: Tue 18 Feb 2014 02:57:50 AM GMT UTC *
G04 For: ben *
G04 Format: Gerber/RS-274X *
G04 PCB-Dimensions (mil): 6000.00 5000.00 *
G04 PCB-Coordinate-Origin: lower left *
%MOIN*%
%FSLAX25Y25*%
%LNBOTTOMMASK*%
%ADD60R,0.0712X0.0712*%
%ADD59R,0.0355X0.0355*%
%ADD58R,0.0476X0.0476*%
%ADD57R,0.0594X0.0594*%
%ADD56C,0.0660*%
%ADD55C,0.0001*%
G54D55*G36*
X124200Y373300D02*Y366700D01*
X130800D01*
Y373300D01*
X124200D01*
G37*
G54D56*X127500Y360000D03*
G54D55*G36*
X131700Y293300D02*Y286700D01*
X138300D01*
Y293300D01*
X131700D01*
G37*
G54D56*X145000Y290000D03*
X155000D03*
G54D55*G36*
X124200Y303800D02*Y297200D01*
X130800D01*
Y303800D01*
X124200D01*
G37*
G54D56*X127500Y310500D03*
G54D55*G36*
X164200Y293300D02*Y286700D01*
X170800D01*
Y293300D01*
X164200D01*
G37*
G54D56*X177500Y290000D03*
G54D55*G36*
X279200Y378300D02*Y371700D01*
X285800D01*
Y378300D01*
X279200D01*
G37*
G54D56*X282500Y365000D03*
G54D55*G36*
X261700Y318300D02*Y311700D01*
X268300D01*
Y318300D01*
X261700D01*
G37*
G54D56*X277500Y312500D03*
X287500D03*
X265000Y325000D03*
Y335000D03*
Y345000D03*
X255000Y325000D03*
Y335000D03*
Y345000D03*
G54D55*G36*
X274200Y355800D02*Y349200D01*
X280800D01*
Y355800D01*
X274200D01*
G37*
G54D56*X287500Y352500D03*
X277500Y342500D03*
X287500D03*
X277500Y332500D03*
X287500D03*
X277500Y322500D03*
X287500D03*
X255000Y315000D03*
G54D55*G36*
X209200Y293300D02*Y286700D01*
X215800D01*
Y293300D01*
X209200D01*
G37*
G54D56*X222500Y290000D03*
X232500D03*
X187500D03*
X197500D03*
G54D57*X160036Y327433D02*Y322709D01*
G54D58*X163579Y312866D02*Y308142D01*
G54D59*X170441Y303492D02*Y302508D01*
X175559Y303492D02*Y302508D01*
X186441Y304492D02*Y303508D01*
X191559Y304492D02*Y303508D01*
X180882Y299492D02*Y298508D01*
X186000Y299492D02*Y298508D01*
G54D58*X184445Y312866D02*Y308142D01*
X188776Y312866D02*Y308142D01*
X167122Y312866D02*Y308142D01*
X171453Y312866D02*Y308142D01*
X175784Y312866D02*Y308142D01*
X180114Y312866D02*Y308142D01*
G54D60*X213185Y370740D02*Y363654D01*
G54D58*X193106Y312866D02*Y308142D01*
X197437Y312866D02*Y308142D01*
G54D57*X203343Y313260D02*Y308535D01*
X160036Y351843D02*Y348693D01*
Y371134D02*Y360110D01*
M02*
