G04 start of page 11 for group -4014 idx -4014 *
G04 Title: riffle, bottompaste *
G04 Creator: pcb 1.99z *
G04 CreationDate: Tue 18 Feb 2014 02:58:49 AM GMT UTC *
G04 For: ben *
G04 Format: Gerber/RS-274X *
G04 PCB-Dimensions (mil): 6000.00 5000.00 *
G04 PCB-Coordinate-Origin: lower left *
%MOIN*%
%FSLAX25Y25*%
%LNBOTTOMPASTE*%
%ADD80R,0.0512X0.0512*%
%ADD79R,0.0276X0.0276*%
%ADD78R,0.0394X0.0394*%
%ADD77R,0.0295X0.0295*%
G54D77*X170441Y303492D02*Y302508D01*
X175559Y303492D02*Y302508D01*
X186441Y304492D02*Y303508D01*
X191559Y304492D02*Y303508D01*
G54D78*X160036Y327433D02*Y322709D01*
Y351843D02*Y348693D01*
Y371134D02*Y360110D01*
G54D79*X163579Y312866D02*Y308142D01*
X167122Y312866D02*Y308142D01*
X171453Y312866D02*Y308142D01*
X175784Y312866D02*Y308142D01*
X180114Y312866D02*Y308142D01*
X184445Y312866D02*Y308142D01*
X188776Y312866D02*Y308142D01*
X193106Y312866D02*Y308142D01*
X197437Y312866D02*Y308142D01*
G54D80*X213185Y370740D02*Y363654D01*
G54D78*X203343Y313260D02*Y308535D01*
G54D77*X180882Y299492D02*Y298508D01*
X186000Y299492D02*Y298508D01*
M02*
