G04 start of page 7 for group -4062 idx -4062 *
G04 Title: riffle, soldermask *
G04 Creator: pcb 20140316 *
G04 CreationDate: Tue 16 Sep 2014 04:17:55 PM GMT UTC *
G04 For: ben *
G04 Format: Gerber/RS-274X *
G04 PCB-Dimensions (mil): 6000.00 5000.00 *
G04 PCB-Coordinate-Origin: lower left *
%MOIN*%
%FSLAX25Y25*%
%LNBOTTOMMASK*%
%ADD77R,0.0336X0.0336*%
%ADD76R,0.0594X0.0594*%
%ADD75R,0.0700X0.0700*%
%ADD74C,0.0001*%
%ADD73C,0.0660*%
G54D73*X262500Y345000D03*
X252500D03*
X262500Y355000D03*
X252500D03*
G54D74*G36*
X259200Y328300D02*Y321700D01*
X265800D01*
Y328300D01*
X259200D01*
G37*
G54D73*X252500Y325000D03*
X262500Y335000D03*
X252500D03*
G54D74*G36*
X119050Y373300D02*Y366700D01*
X125650D01*
Y373300D01*
X119050D01*
G37*
G54D73*X122350Y360000D03*
G54D74*G36*
X281700Y380800D02*Y374200D01*
X288300D01*
Y380800D01*
X281700D01*
G37*
G36*
X291700D02*Y374200D01*
X298300D01*
Y380800D01*
X291700D01*
G37*
G54D75*X162500Y277000D02*Y273000D01*
X172500Y277000D02*Y273000D01*
X182500Y277000D02*Y273000D01*
X192500Y277000D02*Y273000D01*
X202500Y277000D02*Y273000D01*
G54D76*X212461Y353350D02*X214823D01*
X178602Y342327D02*X182539D01*
X178602Y329335D02*X182539D01*
X178602Y333665D02*X182539D01*
X178602Y337996D02*X182539D01*
G54D74*G36*
X178193Y354941D02*Y349004D01*
X184130D01*
Y354941D01*
X178193D01*
G37*
G54D77*X295803Y280000D02*X296197D01*
X295803Y274094D02*X296197D01*
X260453Y317697D02*Y317303D01*
X254547Y317697D02*Y317303D01*
G54D76*X222106Y351776D02*X224272D01*
X209705Y306303D02*X212461D01*
X216988Y308469D02*Y306697D01*
X178602Y312012D02*X182539D01*
G54D74*G36*
X178587Y310256D02*Y304319D01*
X184524D01*
Y310256D01*
X178587D01*
G37*
G54D76*X178602Y316343D02*X182539D01*
X178602Y320673D02*X182539D01*
X178602Y325004D02*X182539D01*
M02*
