M48
INCH
T53C0.035
T52C0.015
T51C0.020
T50C0.038
%
T52
X015450Y033150
X017400Y033550
X017400Y033000
X018700Y035000
X018900Y035350
X020100Y034200
X020300Y034600
T51
X012500Y032750
X012750Y038000
X012750Y032000
X013800Y037200
X015100Y034700
X015150Y031400
X015250Y033750
X015400Y030400
X015800Y030700
X015850Y033900
X016000Y035000
X016350Y031700
X016500Y030000
X016500Y029500
X016700Y034800
X017000Y035400
X017200Y034300
X017250Y030500
X017300Y036000
X017300Y028200
X017600Y036600
X018400Y036200
X018600Y032600
X018700Y033800
X018900Y029100
X019000Y031900
X019200Y033300
X019250Y028250
X019375Y029625
X019386Y030514
X019750Y029000
X019900Y031374
X020250Y028250
X020700Y037200
X020700Y035700
X020900Y028600
X021750Y028750
X021900Y030100
X022000Y036400
X022250Y028250
X022600Y036100
X022800Y029900
X022950Y035300
X023000Y029300
X023050Y032750
X023250Y031750
X023300Y030400
X023500Y034000
X023500Y029250
X023550Y029750
X024000Y031900
X024000Y027800
X024250Y033000
X024400Y035100
X024600Y027950
X024750Y030500
X024882Y028379
X025000Y029250
X025500Y030000
X025500Y029500
X025577Y028410
X026100Y037000
X026800Y029100
X027250Y035250
X027360Y033860
X027400Y027350
X027500Y031000
X027700Y031800
X028100Y032700
X028200Y034500
X028500Y035250
X028600Y031200
X028600Y029600
X028800Y032700
X028900Y033500
X029000Y034000
X030000Y033500
X030250Y037250
X030500Y036500
X030700Y028200
T53
X012500Y031000
X013200Y029300
X014500Y035250
X014750Y036250
X016750Y037250
X022750Y037000
T50
X012235Y037000
X012235Y036000
X025250Y035500
X025250Y034500
X025250Y033500
X025250Y032500
X026250Y035500
X026250Y034500
X026250Y033500
X026250Y032500
X028500Y037750
X029500Y037750
M30
