G04 start of page 11 for group -4014 idx -4014 *
G04 Title: riffle, bottompaste *
G04 Creator: pcb 1.99z *
G04 CreationDate: Tue 11 Mar 2014 07:33:07 PM GMT UTC *
G04 For: ben *
G04 Format: Gerber/RS-274X *
G04 PCB-Dimensions (mil): 6000.00 5000.00 *
G04 PCB-Coordinate-Origin: lower left *
%MOIN*%
%FSLAX25Y25*%
%LNBOTTOMPASTE*%
%ADD85R,0.0394X0.0394*%
%ADD84R,0.0315X0.0315*%
%ADD83C,0.0001*%
%ADD82R,0.0276X0.0276*%
G54D82*X182047Y297697D02*Y297303D01*
X187953Y297697D02*Y297303D01*
X180453Y302697D02*Y302303D01*
X174547Y302697D02*Y302303D01*
X204488Y312539D02*Y308602D01*
X200157Y312539D02*Y308602D01*
X195827Y312539D02*Y308602D01*
X191496Y312539D02*Y308602D01*
X187165Y312539D02*Y308602D01*
X182835Y312539D02*Y308602D01*
X178504Y312539D02*Y308602D01*
X174173Y312539D02*Y308602D01*
G54D83*G36*
X206654Y314114D02*Y308996D01*
X211772D01*
Y314114D01*
X206654D01*
G37*
G36*
X161575D02*Y308209D01*
X167480D01*
Y314114D01*
X161575D01*
G37*
G54D84*X210197Y342461D02*Y339705D01*
G54D85*X208031Y346988D02*X209803D01*
G54D84*X163150Y344823D02*Y342461D01*
G54D85*X164724Y354272D02*Y352106D01*
M02*
