G04 start of page 12 for group -3984 idx -3984 *
G04 Title: riffle, fab *
G04 Creator: pcb 1.99z *
G04 CreationDate: Tue 18 Feb 2014 03:01:03 AM GMT UTC *
G04 For: ben *
G04 Format: Gerber/RS-274X *
G04 PCB-Dimensions (mil): 6000.00 5000.00 *
G04 PCB-Coordinate-Origin: lower left *
%MOIN*%
%FSLAX25Y25*%
%LNFAB*%
%ADD84C,0.0100*%
%ADD83C,0.0075*%
%ADD82C,0.0060*%
%ADD81C,0.0001*%
G54D81*G36*
X126300Y371766D02*X129266Y368800D01*
X128700Y368234D01*
X125734Y371200D01*
X126300Y371766D01*
G37*
G36*
X125734Y368800D02*X128700Y371766D01*
X129266Y371200D01*
X126300Y368234D01*
X125734Y368800D01*
G37*
G36*
X126300Y361766D02*X129266Y358800D01*
X128700Y358234D01*
X125734Y361200D01*
X126300Y361766D01*
G37*
G36*
X125734Y358800D02*X128700Y361766D01*
X129266Y361200D01*
X126300Y358234D01*
X125734Y358800D01*
G37*
G36*
X133800Y291766D02*X136766Y288800D01*
X136200Y288234D01*
X133234Y291200D01*
X133800Y291766D01*
G37*
G36*
X133234Y288800D02*X136200Y291766D01*
X136766Y291200D01*
X133800Y288234D01*
X133234Y288800D01*
G37*
G36*
X143800Y291766D02*X146766Y288800D01*
X146200Y288234D01*
X143234Y291200D01*
X143800Y291766D01*
G37*
G36*
X143234Y288800D02*X146200Y291766D01*
X146766Y291200D01*
X143800Y288234D01*
X143234Y288800D01*
G37*
G36*
X153800Y291766D02*X156766Y288800D01*
X156200Y288234D01*
X153234Y291200D01*
X153800Y291766D01*
G37*
G36*
X153234Y288800D02*X156200Y291766D01*
X156766Y291200D01*
X153800Y288234D01*
X153234Y288800D01*
G37*
G36*
X281300Y376766D02*X284266Y373800D01*
X283700Y373234D01*
X280734Y376200D01*
X281300Y376766D01*
G37*
G36*
X280734Y373800D02*X283700Y376766D01*
X284266Y376200D01*
X281300Y373234D01*
X280734Y373800D01*
G37*
G36*
X281300Y366766D02*X284266Y363800D01*
X283700Y363234D01*
X280734Y366200D01*
X281300Y366766D01*
G37*
G36*
X280734Y363800D02*X283700Y366766D01*
X284266Y366200D01*
X281300Y363234D01*
X280734Y363800D01*
G37*
G36*
X263800Y316766D02*X266766Y313800D01*
X266200Y313234D01*
X263234Y316200D01*
X263800Y316766D01*
G37*
G36*
X263234Y313800D02*X266200Y316766D01*
X266766Y316200D01*
X263800Y313234D01*
X263234Y313800D01*
G37*
G36*
X253800Y316766D02*X256766Y313800D01*
X256200Y313234D01*
X253234Y316200D01*
X253800Y316766D01*
G37*
G36*
X253234Y313800D02*X256200Y316766D01*
X256766Y316200D01*
X253800Y313234D01*
X253234Y313800D01*
G37*
G36*
X263800Y326766D02*X266766Y323800D01*
X266200Y323234D01*
X263234Y326200D01*
X263800Y326766D01*
G37*
G36*
X263234Y323800D02*X266200Y326766D01*
X266766Y326200D01*
X263800Y323234D01*
X263234Y323800D01*
G37*
G36*
X253800Y326766D02*X256766Y323800D01*
X256200Y323234D01*
X253234Y326200D01*
X253800Y326766D01*
G37*
G36*
X253234Y323800D02*X256200Y326766D01*
X256766Y326200D01*
X253800Y323234D01*
X253234Y323800D01*
G37*
G36*
X263800Y336766D02*X266766Y333800D01*
X266200Y333234D01*
X263234Y336200D01*
X263800Y336766D01*
G37*
G36*
X263234Y333800D02*X266200Y336766D01*
X266766Y336200D01*
X263800Y333234D01*
X263234Y333800D01*
G37*
G36*
X253800Y336766D02*X256766Y333800D01*
X256200Y333234D01*
X253234Y336200D01*
X253800Y336766D01*
G37*
G36*
X253234Y333800D02*X256200Y336766D01*
X256766Y336200D01*
X253800Y333234D01*
X253234Y333800D01*
G37*
G36*
X263800Y346766D02*X266766Y343800D01*
X266200Y343234D01*
X263234Y346200D01*
X263800Y346766D01*
G37*
G36*
X263234Y343800D02*X266200Y346766D01*
X266766Y346200D01*
X263800Y343234D01*
X263234Y343800D01*
G37*
G36*
X253800Y346766D02*X256766Y343800D01*
X256200Y343234D01*
X253234Y346200D01*
X253800Y346766D01*
G37*
G36*
X253234Y343800D02*X256200Y346766D01*
X256766Y346200D01*
X253800Y343234D01*
X253234Y343800D01*
G37*
G36*
X211300Y291766D02*X214266Y288800D01*
X213700Y288234D01*
X210734Y291200D01*
X211300Y291766D01*
G37*
G36*
X210734Y288800D02*X213700Y291766D01*
X214266Y291200D01*
X211300Y288234D01*
X210734Y288800D01*
G37*
G36*
X221300Y291766D02*X224266Y288800D01*
X223700Y288234D01*
X220734Y291200D01*
X221300Y291766D01*
G37*
G36*
X220734Y288800D02*X223700Y291766D01*
X224266Y291200D01*
X221300Y288234D01*
X220734Y288800D01*
G37*
G36*
X231300Y291766D02*X234266Y288800D01*
X233700Y288234D01*
X230734Y291200D01*
X231300Y291766D01*
G37*
G36*
X230734Y288800D02*X233700Y291766D01*
X234266Y291200D01*
X231300Y288234D01*
X230734Y288800D01*
G37*
G36*
X276300Y354266D02*X279266Y351300D01*
X278700Y350734D01*
X275734Y353700D01*
X276300Y354266D01*
G37*
G36*
X275734Y351300D02*X278700Y354266D01*
X279266Y353700D01*
X276300Y350734D01*
X275734Y351300D01*
G37*
G36*
X286300Y354266D02*X289266Y351300D01*
X288700Y350734D01*
X285734Y353700D01*
X286300Y354266D01*
G37*
G36*
X285734Y351300D02*X288700Y354266D01*
X289266Y353700D01*
X286300Y350734D01*
X285734Y351300D01*
G37*
G36*
X276300Y344266D02*X279266Y341300D01*
X278700Y340734D01*
X275734Y343700D01*
X276300Y344266D01*
G37*
G36*
X275734Y341300D02*X278700Y344266D01*
X279266Y343700D01*
X276300Y340734D01*
X275734Y341300D01*
G37*
G36*
X286300Y344266D02*X289266Y341300D01*
X288700Y340734D01*
X285734Y343700D01*
X286300Y344266D01*
G37*
G36*
X285734Y341300D02*X288700Y344266D01*
X289266Y343700D01*
X286300Y340734D01*
X285734Y341300D01*
G37*
G36*
X276300Y334266D02*X279266Y331300D01*
X278700Y330734D01*
X275734Y333700D01*
X276300Y334266D01*
G37*
G36*
X275734Y331300D02*X278700Y334266D01*
X279266Y333700D01*
X276300Y330734D01*
X275734Y331300D01*
G37*
G36*
X286300Y334266D02*X289266Y331300D01*
X288700Y330734D01*
X285734Y333700D01*
X286300Y334266D01*
G37*
G36*
X285734Y331300D02*X288700Y334266D01*
X289266Y333700D01*
X286300Y330734D01*
X285734Y331300D01*
G37*
G36*
X276300Y324266D02*X279266Y321300D01*
X278700Y320734D01*
X275734Y323700D01*
X276300Y324266D01*
G37*
G36*
X275734Y321300D02*X278700Y324266D01*
X279266Y323700D01*
X276300Y320734D01*
X275734Y321300D01*
G37*
G36*
X286300Y324266D02*X289266Y321300D01*
X288700Y320734D01*
X285734Y323700D01*
X286300Y324266D01*
G37*
G36*
X285734Y321300D02*X288700Y324266D01*
X289266Y323700D01*
X286300Y320734D01*
X285734Y321300D01*
G37*
G36*
X276300Y314266D02*X279266Y311300D01*
X278700Y310734D01*
X275734Y313700D01*
X276300Y314266D01*
G37*
G36*
X275734Y311300D02*X278700Y314266D01*
X279266Y313700D01*
X276300Y310734D01*
X275734Y311300D01*
G37*
G36*
X286300Y314266D02*X289266Y311300D01*
X288700Y310734D01*
X285734Y313700D01*
X286300Y314266D01*
G37*
G36*
X285734Y311300D02*X288700Y314266D01*
X289266Y313700D01*
X286300Y310734D01*
X285734Y311300D01*
G37*
G36*
X126300Y302266D02*X129266Y299300D01*
X128700Y298734D01*
X125734Y301700D01*
X126300Y302266D01*
G37*
G36*
X125734Y299300D02*X128700Y302266D01*
X129266Y301700D01*
X126300Y298734D01*
X125734Y299300D01*
G37*
G36*
X126300Y312266D02*X129266Y309300D01*
X128700Y308734D01*
X125734Y311700D01*
X126300Y312266D01*
G37*
G36*
X125734Y309300D02*X128700Y312266D01*
X129266Y311700D01*
X126300Y308734D01*
X125734Y309300D01*
G37*
G36*
X166300Y291766D02*X169266Y288800D01*
X168700Y288234D01*
X165734Y291200D01*
X166300Y291766D01*
G37*
G36*
X165734Y288800D02*X168700Y291766D01*
X169266Y291200D01*
X166300Y288234D01*
X165734Y288800D01*
G37*
G36*
X176300Y291766D02*X179266Y288800D01*
X178700Y288234D01*
X175734Y291200D01*
X176300Y291766D01*
G37*
G36*
X175734Y288800D02*X178700Y291766D01*
X179266Y291200D01*
X176300Y288234D01*
X175734Y288800D01*
G37*
G36*
X186300Y291766D02*X189266Y288800D01*
X188700Y288234D01*
X185734Y291200D01*
X186300Y291766D01*
G37*
G36*
X185734Y288800D02*X188700Y291766D01*
X189266Y291200D01*
X186300Y288234D01*
X185734Y288800D01*
G37*
G36*
X196300Y291766D02*X199266Y288800D01*
X198700Y288234D01*
X195734Y291200D01*
X196300Y291766D01*
G37*
G36*
X195734Y288800D02*X198700Y291766D01*
X199266Y291200D01*
X196300Y288234D01*
X195734Y288800D01*
G37*
G36*
X13800Y528016D02*X16766Y525050D01*
X16200Y524484D01*
X13234Y527450D01*
X13800Y528016D01*
G37*
G36*
X13234Y525050D02*X16200Y528016D01*
X16766Y527450D01*
X13800Y524484D01*
X13234Y525050D01*
G37*
G54D82*X135000Y528500D02*X136500Y525500D01*
X138000Y528500D01*
X136500Y525500D02*Y522500D01*
X139800Y525800D02*X142050D01*
X139800Y522500D02*X142800D01*
X139800Y528500D02*Y522500D01*
Y528500D02*X142800D01*
X147600D02*X148350Y527750D01*
X145350Y528500D02*X147600D01*
X144600Y527750D02*X145350Y528500D01*
X144600Y527750D02*Y526250D01*
X145350Y525500D01*
X147600D01*
X148350Y524750D01*
Y523250D01*
X147600Y522500D02*X148350Y523250D01*
X145350Y522500D02*X147600D01*
X144600Y523250D02*X145350Y522500D01*
X98000Y527750D02*X98750Y528500D01*
X100250D01*
X101000Y527750D01*
X100250Y522500D02*X101000Y523250D01*
X98750Y522500D02*X100250D01*
X98000Y523250D02*X98750Y522500D01*
Y525800D02*X100250D01*
X101000Y527750D02*Y526550D01*
Y525050D02*Y523250D01*
Y525050D02*X100250Y525800D01*
X101000Y526550D02*X100250Y525800D01*
X102800Y524750D02*X105800Y528500D01*
X102800Y524750D02*X106550D01*
X105800Y528500D02*Y522500D01*
X45000Y523250D02*X45750Y522500D01*
X45000Y527750D02*Y523250D01*
Y527750D02*X45750Y528500D01*
X47250D01*
X48000Y527750D01*
Y523250D01*
X47250Y522500D02*X48000Y523250D01*
X45750Y522500D02*X47250D01*
X45000Y524000D02*X48000Y527000D01*
X49800Y522500D02*X50550D01*
X52350Y523250D02*X53100Y522500D01*
X52350Y527750D02*Y523250D01*
Y527750D02*X53100Y528500D01*
X54600D01*
X55350Y527750D01*
Y523250D01*
X54600Y522500D02*X55350Y523250D01*
X53100Y522500D02*X54600D01*
X52350Y524000D02*X55350Y527000D01*
X57150Y527750D02*X57900Y528500D01*
X59400D01*
X60150Y527750D01*
X59400Y522500D02*X60150Y523250D01*
X57900Y522500D02*X59400D01*
X57150Y523250D02*X57900Y522500D01*
Y525800D02*X59400D01*
X60150Y527750D02*Y526550D01*
Y525050D02*Y523250D01*
Y525050D02*X59400Y525800D01*
X60150Y526550D02*X59400Y525800D01*
X61950Y523250D02*X62700Y522500D01*
X61950Y524450D02*Y523250D01*
Y524450D02*X63000Y525500D01*
X63900D01*
X64950Y524450D01*
Y523250D01*
X64200Y522500D02*X64950Y523250D01*
X62700Y522500D02*X64200D01*
X61950Y526550D02*X63000Y525500D01*
X61950Y527750D02*Y526550D01*
Y527750D02*X62700Y528500D01*
X64200D01*
X64950Y527750D01*
Y526550D01*
X63900Y525500D02*X64950Y526550D01*
X147500Y364100D02*Y360900D01*
X145900Y362500D02*X149100D01*
X176000Y368600D02*Y365400D01*
X174400Y367000D02*X177600D01*
X237500Y304100D02*Y300900D01*
X235900Y302500D02*X239100D01*
X167500Y364100D02*Y360900D01*
X165900Y362500D02*X169100D01*
X218000Y306600D02*Y303400D01*
X216400Y305000D02*X219600D01*
X150000Y354600D02*Y351400D01*
X148400Y353000D02*X151600D01*
X165000Y344100D02*Y340900D01*
X163400Y342500D02*X166600D01*
X237500Y371600D02*Y368400D01*
X235900Y370000D02*X239100D01*
X262500Y371600D02*Y368400D01*
X260900Y370000D02*X264100D01*
X132500Y326600D02*Y323400D01*
X130900Y325000D02*X134100D01*
X137500Y346600D02*Y343400D01*
X135900Y345000D02*X139100D01*
X140000Y324100D02*Y320900D01*
X138400Y322500D02*X141600D01*
X15000Y542850D02*Y539650D01*
X13400Y541250D02*X16600D01*
X135000Y543500D02*X136500Y540500D01*
X138000Y543500D01*
X136500Y540500D02*Y537500D01*
X139800Y540800D02*X142050D01*
X139800Y537500D02*X142800D01*
X139800Y543500D02*Y537500D01*
Y543500D02*X142800D01*
X147600D02*X148350Y542750D01*
X145350Y543500D02*X147600D01*
X144600Y542750D02*X145350Y543500D01*
X144600Y542750D02*Y541250D01*
X145350Y540500D01*
X147600D01*
X148350Y539750D01*
Y538250D01*
X147600Y537500D02*X148350Y538250D01*
X145350Y537500D02*X147600D01*
X144600Y538250D02*X145350Y537500D01*
X98000Y542300D02*X99200Y543500D01*
Y537500D01*
X98000D02*X100250D01*
X102050Y542750D02*X102800Y543500D01*
X105050D01*
X105800Y542750D01*
Y541250D01*
X102050Y537500D02*X105800Y541250D01*
X102050Y537500D02*X105800D01*
X45000Y538250D02*X45750Y537500D01*
X45000Y542750D02*Y538250D01*
Y542750D02*X45750Y543500D01*
X47250D01*
X48000Y542750D01*
Y538250D01*
X47250Y537500D02*X48000Y538250D01*
X45750Y537500D02*X47250D01*
X45000Y539000D02*X48000Y542000D01*
X49800Y537500D02*X50550D01*
X52350Y538250D02*X53100Y537500D01*
X52350Y542750D02*Y538250D01*
Y542750D02*X53100Y543500D01*
X54600D01*
X55350Y542750D01*
Y538250D01*
X54600Y537500D02*X55350Y538250D01*
X53100Y537500D02*X54600D01*
X52350Y539000D02*X55350Y542000D01*
X57150Y542750D02*X57900Y543500D01*
X59400D01*
X60150Y542750D01*
X59400Y537500D02*X60150Y538250D01*
X57900Y537500D02*X59400D01*
X57150Y538250D02*X57900Y537500D01*
Y540800D02*X59400D01*
X60150Y542750D02*Y541550D01*
Y540050D02*Y538250D01*
Y540050D02*X59400Y540800D01*
X60150Y541550D02*X59400Y540800D01*
X61950Y543500D02*X64950D01*
X61950D02*Y540500D01*
X62700Y541250D01*
X64200D01*
X64950Y540500D01*
Y538250D01*
X64200Y537500D02*X64950Y538250D01*
X62700Y537500D02*X64200D01*
X61950Y538250D02*X62700Y537500D01*
X152500Y337500D02*Y335900D01*
Y337500D02*X153887Y338300D01*
X152500Y337500D02*X151113Y338300D01*
X164000Y317000D02*Y315400D01*
Y317000D02*X165387Y317800D01*
X164000Y317000D02*X162613Y317800D01*
X121000Y290000D02*Y288400D01*
Y290000D02*X122387Y290800D01*
X121000Y290000D02*X119613Y290800D01*
X148000Y321000D02*Y319400D01*
Y321000D02*X149387Y321800D01*
X148000Y321000D02*X146613Y321800D01*
X155000Y331000D02*Y329400D01*
Y331000D02*X156387Y331800D01*
X155000Y331000D02*X153613Y331800D01*
X142500Y327500D02*Y325900D01*
Y327500D02*X143887Y328300D01*
X142500Y327500D02*X141113Y328300D01*
X194000Y318000D02*Y316400D01*
Y318000D02*X195387Y318800D01*
X194000Y318000D02*X192613Y318800D01*
X242000Y298000D02*Y296400D01*
Y298000D02*X243387Y298800D01*
X242000Y298000D02*X240613Y298800D01*
X152500Y342500D02*Y340900D01*
Y342500D02*X153887Y343300D01*
X152500Y342500D02*X151113Y343300D01*
X204000Y304000D02*Y302400D01*
Y304000D02*X205387Y304800D01*
X204000Y304000D02*X202613Y304800D01*
X218400Y313100D02*Y311500D01*
Y313100D02*X219787Y313900D01*
X218400Y313100D02*X217013Y313900D01*
X231000Y326000D02*Y324400D01*
Y326000D02*X232387Y326800D01*
X231000Y326000D02*X229613Y326800D01*
X236000Y317000D02*Y315400D01*
Y317000D02*X237387Y317800D01*
X236000Y317000D02*X234613Y317800D01*
X241000Y309000D02*Y307400D01*
Y309000D02*X242387Y309800D01*
X241000Y309000D02*X239613Y309800D01*
X273000Y302000D02*Y300400D01*
Y302000D02*X274387Y302800D01*
X273000Y302000D02*X271613Y302800D01*
X165000Y352500D02*Y350900D01*
Y352500D02*X166387Y353300D01*
X165000Y352500D02*X163613Y353300D01*
X159000Y309000D02*Y307400D01*
Y309000D02*X160387Y309800D01*
X159000Y309000D02*X157613Y309800D01*
X196000Y323000D02*Y321400D01*
Y323000D02*X197387Y323800D01*
X196000Y323000D02*X194613Y323800D01*
X192000Y326000D02*Y324400D01*
Y326000D02*X193387Y326800D01*
X192000Y326000D02*X190613Y326800D01*
X174000Y331000D02*Y329400D01*
Y331000D02*X175387Y331800D01*
X174000Y331000D02*X172613Y331800D01*
X176000Y335000D02*Y333400D01*
Y335000D02*X177387Y335800D01*
X176000Y335000D02*X174613Y335800D01*
X260000Y320000D02*Y318400D01*
Y320000D02*X261387Y320800D01*
X260000Y320000D02*X258613Y320800D01*
X283000Y305000D02*Y303400D01*
Y305000D02*X284387Y305800D01*
X283000Y305000D02*X281613Y305800D01*
X278000Y293000D02*Y291400D01*
Y293000D02*X279387Y293800D01*
X278000Y293000D02*X276613Y293800D01*
X220000Y297500D02*Y295900D01*
Y297500D02*X221387Y298300D01*
X220000Y297500D02*X218613Y298300D01*
X227500Y302500D02*Y300900D01*
Y302500D02*X228887Y303300D01*
X227500Y302500D02*X226113Y303300D01*
X142000Y374500D02*Y372900D01*
Y374500D02*X143387Y375300D01*
X142000Y374500D02*X140613Y375300D01*
X155000Y374500D02*Y372900D01*
Y374500D02*X156387Y375300D01*
X155000Y374500D02*X153613Y375300D01*
X186000Y335500D02*Y333900D01*
Y335500D02*X187387Y336300D01*
X186000Y335500D02*X184613Y336300D01*
X194500Y330000D02*Y328400D01*
Y330000D02*X195887Y330800D01*
X194500Y330000D02*X193113Y330800D01*
X243000Y340000D02*Y338400D01*
Y340000D02*X244387Y340800D01*
X243000Y340000D02*X241613Y340800D01*
X252500Y370000D02*Y368400D01*
Y370000D02*X253887Y370800D01*
X252500Y370000D02*X251113Y370800D01*
X207000Y372000D02*Y370400D01*
Y372000D02*X208387Y372800D01*
X207000Y372000D02*X205613Y372800D01*
X218000Y357000D02*Y355400D01*
Y357000D02*X219387Y357800D01*
X218000Y357000D02*X216613Y357800D01*
X226000Y361000D02*Y359400D01*
Y361000D02*X227387Y361800D01*
X226000Y361000D02*X224613Y361800D01*
X187000Y348500D02*Y346900D01*
Y348500D02*X188387Y349300D01*
X187000Y348500D02*X185613Y349300D01*
X190000Y352500D02*Y350900D01*
Y352500D02*X191387Y353300D01*
X190000Y352500D02*X188613Y353300D01*
X275000Y365000D02*Y363400D01*
Y365000D02*X276387Y365800D01*
X275000Y365000D02*X273613Y365800D01*
X271000Y358000D02*Y356400D01*
Y358000D02*X272387Y358800D01*
X271000Y358000D02*X269613Y358800D01*
X243000Y352000D02*Y350400D01*
Y352000D02*X244387Y352800D01*
X243000Y352000D02*X241613Y352800D01*
X237000Y351000D02*Y349400D01*
Y351000D02*X238387Y351800D01*
X237000Y351000D02*X235613Y351800D01*
X235000Y340000D02*Y338400D01*
Y340000D02*X236387Y340800D01*
X235000Y340000D02*X233613Y340800D01*
X239000Y326000D02*Y324400D01*
Y326000D02*X240387Y326800D01*
X239000Y326000D02*X237613Y326800D01*
X205000Y346000D02*Y344400D01*
Y346000D02*X206387Y346800D01*
X205000Y346000D02*X203613Y346800D01*
X203000Y342000D02*Y340400D01*
Y342000D02*X204387Y342800D01*
X203000Y342000D02*X201613Y342800D01*
X175000Y360000D02*Y358400D01*
Y360000D02*X176387Y360800D01*
X175000Y360000D02*X173613Y360800D01*
X220000Y364000D02*Y362400D01*
Y364000D02*X221387Y364800D01*
X220000Y364000D02*X218613Y364800D01*
X225000Y354000D02*Y352400D01*
Y354000D02*X226387Y354800D01*
X225000Y354000D02*X223613Y354800D01*
X185000Y362000D02*Y360400D01*
Y362000D02*X186387Y362800D01*
X185000Y362000D02*X183613Y362800D01*
X273000Y328000D02*Y326400D01*
Y328000D02*X274387Y328800D01*
X273000Y328000D02*X271613Y328800D01*
X204000Y296000D02*Y294400D01*
Y296000D02*X205387Y296800D01*
X204000Y296000D02*X202613Y296800D01*
X275000Y285000D02*Y283400D01*
Y285000D02*X276387Y285800D01*
X275000Y285000D02*X273613Y285800D01*
X133000Y377000D02*Y375400D01*
Y377000D02*X134387Y377800D01*
X133000Y377000D02*X131613Y377800D01*
X15000Y556250D02*Y554650D01*
Y556250D02*X16387Y557050D01*
X15000Y556250D02*X13613Y557050D01*
X135000Y558500D02*X136500Y555500D01*
X138000Y558500D01*
X136500Y555500D02*Y552500D01*
X139800Y555800D02*X142050D01*
X139800Y552500D02*X142800D01*
X139800Y558500D02*Y552500D01*
Y558500D02*X142800D01*
X147600D02*X148350Y557750D01*
X145350Y558500D02*X147600D01*
X144600Y557750D02*X145350Y558500D01*
X144600Y557750D02*Y556250D01*
X145350Y555500D01*
X147600D01*
X148350Y554750D01*
Y553250D01*
X147600Y552500D02*X148350Y553250D01*
X145350Y552500D02*X147600D01*
X144600Y553250D02*X145350Y552500D01*
X98000Y558500D02*X101000D01*
X98000D02*Y555500D01*
X98750Y556250D01*
X100250D01*
X101000Y555500D01*
Y553250D01*
X100250Y552500D02*X101000Y553250D01*
X98750Y552500D02*X100250D01*
X98000Y553250D02*X98750Y552500D01*
X102800Y557750D02*X103550Y558500D01*
X105050D01*
X105800Y557750D01*
X105050Y552500D02*X105800Y553250D01*
X103550Y552500D02*X105050D01*
X102800Y553250D02*X103550Y552500D01*
Y555800D02*X105050D01*
X105800Y557750D02*Y556550D01*
Y555050D02*Y553250D01*
Y555050D02*X105050Y555800D01*
X105800Y556550D02*X105050Y555800D01*
X45000Y553250D02*X45750Y552500D01*
X45000Y557750D02*Y553250D01*
Y557750D02*X45750Y558500D01*
X47250D01*
X48000Y557750D01*
Y553250D01*
X47250Y552500D02*X48000Y553250D01*
X45750Y552500D02*X47250D01*
X45000Y554000D02*X48000Y557000D01*
X49800Y552500D02*X50550D01*
X52350Y553250D02*X53100Y552500D01*
X52350Y557750D02*Y553250D01*
Y557750D02*X53100Y558500D01*
X54600D01*
X55350Y557750D01*
Y553250D01*
X54600Y552500D02*X55350Y553250D01*
X53100Y552500D02*X54600D01*
X52350Y554000D02*X55350Y557000D01*
X57150Y557750D02*X57900Y558500D01*
X60150D01*
X60900Y557750D01*
Y556250D01*
X57150Y552500D02*X60900Y556250D01*
X57150Y552500D02*X60900D01*
X62700Y553250D02*X63450Y552500D01*
X62700Y557750D02*Y553250D01*
Y557750D02*X63450Y558500D01*
X64950D01*
X65700Y557750D01*
Y553250D01*
X64950Y552500D02*X65700Y553250D01*
X63450Y552500D02*X64950D01*
X62700Y554000D02*X65700Y557000D01*
X3000Y573500D02*X3750Y572750D01*
X750Y573500D02*X3000D01*
X0Y572750D02*X750Y573500D01*
X0Y572750D02*Y571250D01*
X750Y570500D01*
X3000D01*
X3750Y569750D01*
Y568250D01*
X3000Y567500D02*X3750Y568250D01*
X750Y567500D02*X3000D01*
X0Y568250D02*X750Y567500D01*
X5550Y570500D02*Y568250D01*
X6300Y567500D01*
X8550Y570500D02*Y566000D01*
X7800Y565250D02*X8550Y566000D01*
X6300Y565250D02*X7800D01*
X5550Y566000D02*X6300Y565250D01*
Y567500D02*X7800D01*
X8550Y568250D01*
X11100Y569750D02*Y567500D01*
Y569750D02*X11850Y570500D01*
X12600D01*
X13350Y569750D01*
Y567500D01*
Y569750D02*X14100Y570500D01*
X14850D01*
X15600Y569750D01*
Y567500D01*
X10350Y570500D02*X11100Y569750D01*
X17400Y573500D02*Y567500D01*
Y568250D02*X18150Y567500D01*
X19650D01*
X20400Y568250D01*
Y569750D02*Y568250D01*
X19650Y570500D02*X20400Y569750D01*
X18150Y570500D02*X19650D01*
X17400Y569750D02*X18150Y570500D01*
X22200Y569750D02*Y568250D01*
Y569750D02*X22950Y570500D01*
X24450D01*
X25200Y569750D01*
Y568250D01*
X24450Y567500D02*X25200Y568250D01*
X22950Y567500D02*X24450D01*
X22200Y568250D02*X22950Y567500D01*
X27000Y573500D02*Y568250D01*
X27750Y567500D01*
X0Y564250D02*X29250D01*
X41750Y573500D02*Y567500D01*
X43700Y573500D02*X44750Y572450D01*
Y568550D01*
X43700Y567500D02*X44750Y568550D01*
X41000Y567500D02*X43700D01*
X41000Y573500D02*X43700D01*
G54D83*X46550Y572000D02*Y571850D01*
G54D82*Y569750D02*Y567500D01*
X50300Y570500D02*X51050Y569750D01*
X48800Y570500D02*X50300D01*
X48050Y569750D02*X48800Y570500D01*
X48050Y569750D02*Y568250D01*
X48800Y567500D01*
X51050Y570500D02*Y568250D01*
X51800Y567500D01*
X48800D02*X50300D01*
X51050Y568250D01*
X54350Y569750D02*Y567500D01*
Y569750D02*X55100Y570500D01*
X55850D01*
X56600Y569750D01*
Y567500D01*
Y569750D02*X57350Y570500D01*
X58100D01*
X58850Y569750D01*
Y567500D01*
X53600Y570500D02*X54350Y569750D01*
X60650Y567500D02*X61400D01*
X65900Y568250D02*X66650Y567500D01*
X65900Y572750D02*X66650Y573500D01*
X65900Y572750D02*Y568250D01*
X68450Y573500D02*X69950D01*
X69200D02*Y567500D01*
X68450D02*X69950D01*
X72500Y569750D02*Y567500D01*
Y569750D02*X73250Y570500D01*
X74000D01*
X74750Y569750D01*
Y567500D01*
X71750Y570500D02*X72500Y569750D01*
X77300Y570500D02*X79550D01*
X76550Y569750D02*X77300Y570500D01*
X76550Y569750D02*Y568250D01*
X77300Y567500D01*
X79550D01*
X81350Y573500D02*Y567500D01*
Y569750D02*X82100Y570500D01*
X83600D01*
X84350Y569750D01*
Y567500D01*
X86150Y573500D02*X86900Y572750D01*
Y568250D01*
X86150Y567500D02*X86900Y568250D01*
X41000Y564250D02*X88700D01*
X96050Y567500D02*X98000D01*
X95000Y568550D02*X96050Y567500D01*
X95000Y572450D02*Y568550D01*
Y572450D02*X96050Y573500D01*
X98000D01*
X99800Y569750D02*Y568250D01*
Y569750D02*X100550Y570500D01*
X102050D01*
X102800Y569750D01*
Y568250D01*
X102050Y567500D02*X102800Y568250D01*
X100550Y567500D02*X102050D01*
X99800Y568250D02*X100550Y567500D01*
X104600Y570500D02*Y568250D01*
X105350Y567500D01*
X106850D01*
X107600Y568250D01*
Y570500D02*Y568250D01*
X110150Y569750D02*Y567500D01*
Y569750D02*X110900Y570500D01*
X111650D01*
X112400Y569750D01*
Y567500D01*
X109400Y570500D02*X110150Y569750D01*
X114950Y573500D02*Y568250D01*
X115700Y567500D01*
X114200Y571250D02*X115700D01*
X95000Y564250D02*X117200D01*
X130750Y573500D02*Y567500D01*
X130000Y573500D02*X133000D01*
X133750Y572750D01*
Y571250D01*
X133000Y570500D02*X133750Y571250D01*
X130750Y570500D02*X133000D01*
X135550Y573500D02*Y568250D01*
X136300Y567500D01*
X140050Y570500D02*X140800Y569750D01*
X138550Y570500D02*X140050D01*
X137800Y569750D02*X138550Y570500D01*
X137800Y569750D02*Y568250D01*
X138550Y567500D01*
X140800Y570500D02*Y568250D01*
X141550Y567500D01*
X138550D02*X140050D01*
X140800Y568250D01*
X144100Y573500D02*Y568250D01*
X144850Y567500D01*
X143350Y571250D02*X144850D01*
X147100Y567500D02*X149350D01*
X146350Y568250D02*X147100Y567500D01*
X146350Y569750D02*Y568250D01*
Y569750D02*X147100Y570500D01*
X148600D01*
X149350Y569750D01*
X146350Y569000D02*X149350D01*
Y569750D02*Y569000D01*
X154150Y573500D02*Y567500D01*
X153400D02*X154150Y568250D01*
X151900Y567500D02*X153400D01*
X151150Y568250D02*X151900Y567500D01*
X151150Y569750D02*Y568250D01*
Y569750D02*X151900Y570500D01*
X153400D01*
X154150Y569750D01*
X157450Y570500D02*Y569750D01*
Y568250D02*Y567500D01*
X155950Y572750D02*Y572000D01*
Y572750D02*X156700Y573500D01*
X158200D01*
X158950Y572750D01*
Y572000D01*
X157450Y570500D02*X158950Y572000D01*
X130000Y564250D02*X160750D01*
X0Y588500D02*X3000D01*
X1500D02*Y582500D01*
X4800Y588500D02*Y582500D01*
Y584750D02*X5550Y585500D01*
X7050D01*
X7800Y584750D01*
Y582500D01*
X10350D02*X12600D01*
X9600Y583250D02*X10350Y582500D01*
X9600Y584750D02*Y583250D01*
Y584750D02*X10350Y585500D01*
X11850D01*
X12600Y584750D01*
X9600Y584000D02*X12600D01*
Y584750D02*Y584000D01*
X15150Y584750D02*Y582500D01*
Y584750D02*X15900Y585500D01*
X17400D01*
X14400D02*X15150Y584750D01*
X19950Y582500D02*X22200D01*
X19200Y583250D02*X19950Y582500D01*
X19200Y584750D02*Y583250D01*
Y584750D02*X19950Y585500D01*
X21450D01*
X22200Y584750D01*
X19200Y584000D02*X22200D01*
Y584750D02*Y584000D01*
X28950Y585500D02*X29700Y584750D01*
X27450Y585500D02*X28950D01*
X26700Y584750D02*X27450Y585500D01*
X26700Y584750D02*Y583250D01*
X27450Y582500D01*
X29700Y585500D02*Y583250D01*
X30450Y582500D01*
X27450D02*X28950D01*
X29700Y583250D01*
X33000Y584750D02*Y582500D01*
Y584750D02*X33750Y585500D01*
X35250D01*
X32250D02*X33000Y584750D01*
X37800Y582500D02*X40050D01*
X37050Y583250D02*X37800Y582500D01*
X37050Y584750D02*Y583250D01*
Y584750D02*X37800Y585500D01*
X39300D01*
X40050Y584750D01*
X37050Y584000D02*X40050D01*
Y584750D02*Y584000D01*
X44550Y587750D02*X45300Y588500D01*
X46800D01*
X47550Y587750D01*
X46800Y582500D02*X47550Y583250D01*
X45300Y582500D02*X46800D01*
X44550Y583250D02*X45300Y582500D01*
Y585800D02*X46800D01*
X47550Y587750D02*Y586550D01*
Y585050D02*Y583250D01*
Y585050D02*X46800Y585800D01*
X47550Y586550D02*X46800Y585800D01*
X55050Y588500D02*Y582500D01*
X54300D02*X55050Y583250D01*
X52800Y582500D02*X54300D01*
X52050Y583250D02*X52800Y582500D01*
X52050Y584750D02*Y583250D01*
Y584750D02*X52800Y585500D01*
X54300D01*
X55050Y584750D01*
G54D83*X56850Y587000D02*Y586850D01*
G54D82*Y584750D02*Y582500D01*
X59100Y587750D02*Y582500D01*
Y587750D02*X59850Y588500D01*
X60600D01*
X58350Y585500D02*X59850D01*
X62850Y587750D02*Y582500D01*
Y587750D02*X63600Y588500D01*
X64350D01*
X62100Y585500D02*X63600D01*
X66600Y582500D02*X68850D01*
X65850Y583250D02*X66600Y582500D01*
X65850Y584750D02*Y583250D01*
Y584750D02*X66600Y585500D01*
X68100D01*
X68850Y584750D01*
X65850Y584000D02*X68850D01*
Y584750D02*Y584000D01*
X71400Y584750D02*Y582500D01*
Y584750D02*X72150Y585500D01*
X73650D01*
X70650D02*X71400Y584750D01*
X76200Y582500D02*X78450D01*
X75450Y583250D02*X76200Y582500D01*
X75450Y584750D02*Y583250D01*
Y584750D02*X76200Y585500D01*
X77700D01*
X78450Y584750D01*
X75450Y584000D02*X78450D01*
Y584750D02*Y584000D01*
X81000Y584750D02*Y582500D01*
Y584750D02*X81750Y585500D01*
X82500D01*
X83250Y584750D01*
Y582500D01*
X80250Y585500D02*X81000Y584750D01*
X85800Y588500D02*Y583250D01*
X86550Y582500D01*
X85050Y586250D02*X86550D01*
X93750Y588500D02*Y582500D01*
X93000D02*X93750Y583250D01*
X91500Y582500D02*X93000D01*
X90750Y583250D02*X91500Y582500D01*
X90750Y584750D02*Y583250D01*
Y584750D02*X91500Y585500D01*
X93000D01*
X93750Y584750D01*
X96300D02*Y582500D01*
Y584750D02*X97050Y585500D01*
X98550D01*
X95550D02*X96300Y584750D01*
G54D83*X100350Y587000D02*Y586850D01*
G54D82*Y584750D02*Y582500D01*
X101850Y588500D02*Y583250D01*
X102600Y582500D01*
X104100Y588500D02*Y583250D01*
X104850Y582500D01*
X109800D02*X112050D01*
X112800Y583250D01*
X112050Y584000D02*X112800Y583250D01*
X109800Y584000D02*X112050D01*
X109050Y584750D02*X109800Y584000D01*
X109050Y584750D02*X109800Y585500D01*
X112050D01*
X112800Y584750D01*
X109050Y583250D02*X109800Y582500D01*
G54D83*X114600Y587000D02*Y586850D01*
G54D82*Y584750D02*Y582500D01*
X116100Y585500D02*X119100D01*
X116100Y582500D02*X119100Y585500D01*
X116100Y582500D02*X119100D01*
X121650D02*X123900D01*
X120900Y583250D02*X121650Y582500D01*
X120900Y584750D02*Y583250D01*
Y584750D02*X121650Y585500D01*
X123150D01*
X123900Y584750D01*
X120900Y584000D02*X123900D01*
Y584750D02*Y584000D01*
X126450Y582500D02*X128700D01*
X129450Y583250D01*
X128700Y584000D02*X129450Y583250D01*
X126450Y584000D02*X128700D01*
X125700Y584750D02*X126450Y584000D01*
X125700Y584750D02*X126450Y585500D01*
X128700D01*
X129450Y584750D01*
X125700Y583250D02*X126450Y582500D01*
X133950Y585500D02*Y583250D01*
X134700Y582500D01*
X136200D01*
X136950Y583250D01*
Y585500D02*Y583250D01*
X139500Y582500D02*X141750D01*
X142500Y583250D01*
X141750Y584000D02*X142500Y583250D01*
X139500Y584000D02*X141750D01*
X138750Y584750D02*X139500Y584000D01*
X138750Y584750D02*X139500Y585500D01*
X141750D01*
X142500Y584750D01*
X138750Y583250D02*X139500Y582500D01*
X145050D02*X147300D01*
X144300Y583250D02*X145050Y582500D01*
X144300Y584750D02*Y583250D01*
Y584750D02*X145050Y585500D01*
X146550D01*
X147300Y584750D01*
X144300Y584000D02*X147300D01*
Y584750D02*Y584000D01*
X152100Y588500D02*Y582500D01*
X151350D02*X152100Y583250D01*
X149850Y582500D02*X151350D01*
X149100Y583250D02*X149850Y582500D01*
X149100Y584750D02*Y583250D01*
Y584750D02*X149850Y585500D01*
X151350D01*
X152100Y584750D01*
G54D83*X156600Y587000D02*Y586850D01*
G54D82*Y584750D02*Y582500D01*
X158850Y584750D02*Y582500D01*
Y584750D02*X159600Y585500D01*
X160350D01*
X161100Y584750D01*
Y582500D01*
X158100Y585500D02*X158850Y584750D01*
X166350Y588500D02*Y583250D01*
X167100Y582500D01*
X165600Y586250D02*X167100D01*
X168600Y588500D02*Y582500D01*
Y584750D02*X169350Y585500D01*
X170850D01*
X171600Y584750D01*
Y582500D01*
G54D83*X173400Y587000D02*Y586850D01*
G54D82*Y584750D02*Y582500D01*
X175650D02*X177900D01*
X178650Y583250D01*
X177900Y584000D02*X178650Y583250D01*
X175650Y584000D02*X177900D01*
X174900Y584750D02*X175650Y584000D01*
X174900Y584750D02*X175650Y585500D01*
X177900D01*
X178650Y584750D01*
X174900Y583250D02*X175650Y582500D01*
X183150Y588500D02*Y583250D01*
X183900Y582500D01*
X187650Y585500D02*X188400Y584750D01*
X186150Y585500D02*X187650D01*
X185400Y584750D02*X186150Y585500D01*
X185400Y584750D02*Y583250D01*
X186150Y582500D01*
X188400Y585500D02*Y583250D01*
X189150Y582500D01*
X186150D02*X187650D01*
X188400Y583250D01*
X190950Y585500D02*Y583250D01*
X191700Y582500D01*
X193950Y585500D02*Y581000D01*
X193200Y580250D02*X193950Y581000D01*
X191700Y580250D02*X193200D01*
X190950Y581000D02*X191700Y580250D01*
Y582500D02*X193200D01*
X193950Y583250D01*
X195750Y584750D02*Y583250D01*
Y584750D02*X196500Y585500D01*
X198000D01*
X198750Y584750D01*
Y583250D01*
X198000Y582500D02*X198750Y583250D01*
X196500Y582500D02*X198000D01*
X195750Y583250D02*X196500Y582500D01*
X200550Y585500D02*Y583250D01*
X201300Y582500D01*
X202800D01*
X203550Y583250D01*
Y585500D02*Y583250D01*
X206100Y588500D02*Y583250D01*
X206850Y582500D01*
X205350Y586250D02*X206850D01*
X208350Y581000D02*X209850Y582500D01*
X215100D02*X217350Y585500D01*
Y587750D02*Y585500D01*
X216600Y588500D02*X217350Y587750D01*
X215100Y588500D02*X216600D01*
X214350Y587750D02*X215100Y588500D01*
X214350Y587750D02*Y586250D01*
X215100Y585500D01*
X217350D01*
X219900Y582500D02*X222150Y585500D01*
Y587750D02*Y585500D01*
X221400Y588500D02*X222150Y587750D01*
X219900Y588500D02*X221400D01*
X219150Y587750D02*X219900Y588500D01*
X219150Y587750D02*Y586250D01*
X219900Y585500D01*
X222150D01*
X226650Y588500D02*Y582500D01*
Y584750D02*X227400Y585500D01*
X228900D01*
X229650Y584750D01*
Y582500D01*
X231450Y584750D02*Y583250D01*
Y584750D02*X232200Y585500D01*
X233700D01*
X234450Y584750D01*
Y583250D01*
X233700Y582500D02*X234450Y583250D01*
X232200Y582500D02*X233700D01*
X231450Y583250D02*X232200Y582500D01*
X236250Y588500D02*Y583250D01*
X237000Y582500D01*
X239250D02*X241500D01*
X238500Y583250D02*X239250Y582500D01*
X238500Y584750D02*Y583250D01*
Y584750D02*X239250Y585500D01*
X240750D01*
X241500Y584750D01*
X238500Y584000D02*X241500D01*
Y584750D02*Y584000D01*
X244050Y582500D02*X246300D01*
X247050Y583250D01*
X246300Y584000D02*X247050Y583250D01*
X244050Y584000D02*X246300D01*
X243300Y584750D02*X244050Y584000D01*
X243300Y584750D02*X244050Y585500D01*
X246300D01*
X247050Y584750D01*
X243300Y583250D02*X244050Y582500D01*
X252300Y588500D02*Y583250D01*
X253050Y582500D01*
X251550Y586250D02*X253050D01*
X254550Y584750D02*Y583250D01*
Y584750D02*X255300Y585500D01*
X256800D01*
X257550Y584750D01*
Y583250D01*
X256800Y582500D02*X257550Y583250D01*
X255300Y582500D02*X256800D01*
X254550Y583250D02*X255300Y582500D01*
X260100Y588500D02*Y583250D01*
X260850Y582500D01*
X259350Y586250D02*X260850D01*
X264600Y585500D02*X265350Y584750D01*
X263100Y585500D02*X264600D01*
X262350Y584750D02*X263100Y585500D01*
X262350Y584750D02*Y583250D01*
X263100Y582500D01*
X265350Y585500D02*Y583250D01*
X266100Y582500D01*
X263100D02*X264600D01*
X265350Y583250D01*
X267900Y588500D02*Y583250D01*
X268650Y582500D01*
G54D84*X117500Y290000D02*Y370000D01*
X295000D02*Y290000D01*
X127500Y280000D02*X285000D01*
X127500Y380000D02*X285000D01*
X127500Y280000D02*G75*G02X117500Y290000I0J10000D01*G01*
Y370000D02*G75*G02X127500Y380000I10000J0D01*G01*
X285000D02*G75*G02X295000Y370000I0J-10000D01*G01*
Y290000D02*G75*G02X285000Y280000I-10000J0D01*G01*
G54D82*X213675Y-9500D02*X216675D01*
X217425Y-8750D01*
Y-6950D02*Y-8750D01*
X216675Y-6200D02*X217425Y-6950D01*
X214425Y-6200D02*X216675D01*
X214425Y-3500D02*Y-9500D01*
X213675Y-3500D02*X216675D01*
X217425Y-4250D01*
Y-5450D01*
X216675Y-6200D02*X217425Y-5450D01*
X219225Y-7250D02*Y-8750D01*
Y-7250D02*X219975Y-6500D01*
X221475D01*
X222225Y-7250D01*
Y-8750D01*
X221475Y-9500D02*X222225Y-8750D01*
X219975Y-9500D02*X221475D01*
X219225Y-8750D02*X219975Y-9500D01*
X226275Y-6500D02*X227025Y-7250D01*
X224775Y-6500D02*X226275D01*
X224025Y-7250D02*X224775Y-6500D01*
X224025Y-7250D02*Y-8750D01*
X224775Y-9500D01*
X227025Y-6500D02*Y-8750D01*
X227775Y-9500D01*
X224775D02*X226275D01*
X227025Y-8750D01*
X230325Y-7250D02*Y-9500D01*
Y-7250D02*X231075Y-6500D01*
X232575D01*
X229575D02*X230325Y-7250D01*
X237375Y-3500D02*Y-9500D01*
X236625D02*X237375Y-8750D01*
X235125Y-9500D02*X236625D01*
X234375Y-8750D02*X235125Y-9500D01*
X234375Y-7250D02*Y-8750D01*
Y-7250D02*X235125Y-6500D01*
X236625D01*
X237375Y-7250D01*
X241875D02*Y-8750D01*
Y-7250D02*X242625Y-6500D01*
X244125D01*
X244875Y-7250D01*
Y-8750D01*
X244125Y-9500D02*X244875Y-8750D01*
X242625Y-9500D02*X244125D01*
X241875Y-8750D02*X242625Y-9500D01*
X246675Y-6500D02*Y-8750D01*
X247425Y-9500D01*
X248925D01*
X249675Y-8750D01*
Y-6500D02*Y-8750D01*
X252225Y-3500D02*Y-8750D01*
X252975Y-9500D01*
X251475Y-5750D02*X252975D01*
X254475Y-3500D02*Y-8750D01*
X255225Y-9500D01*
G54D83*X256725Y-5000D02*Y-5150D01*
G54D82*Y-7250D02*Y-9500D01*
X258975Y-7250D02*Y-9500D01*
Y-7250D02*X259725Y-6500D01*
X260475D01*
X261225Y-7250D01*
Y-9500D01*
X258225Y-6500D02*X258975Y-7250D01*
X263775Y-9500D02*X266025D01*
X263025Y-8750D02*X263775Y-9500D01*
X263025Y-7250D02*Y-8750D01*
Y-7250D02*X263775Y-6500D01*
X265275D01*
X266025Y-7250D01*
X263025Y-8000D02*X266025D01*
Y-7250D02*Y-8000D01*
G54D83*X270525Y-5000D02*Y-5150D01*
G54D82*Y-7250D02*Y-9500D01*
X272775D02*X275025D01*
X275775Y-8750D01*
X275025Y-8000D02*X275775Y-8750D01*
X272775Y-8000D02*X275025D01*
X272025Y-7250D02*X272775Y-8000D01*
X272025Y-7250D02*X272775Y-6500D01*
X275025D01*
X275775Y-7250D01*
X272025Y-8750D02*X272775Y-9500D01*
X281025Y-3500D02*Y-8750D01*
X281775Y-9500D01*
X280275Y-5750D02*X281775D01*
X283275Y-3500D02*Y-9500D01*
Y-7250D02*X284025Y-6500D01*
X285525D01*
X286275Y-7250D01*
Y-9500D01*
X288825D02*X291075D01*
X288075Y-8750D02*X288825Y-9500D01*
X288075Y-7250D02*Y-8750D01*
Y-7250D02*X288825Y-6500D01*
X290325D01*
X291075Y-7250D01*
X288075Y-8000D02*X291075D01*
Y-7250D02*Y-8000D01*
X296325Y-6500D02*X298575D01*
X295575Y-7250D02*X296325Y-6500D01*
X295575Y-7250D02*Y-8750D01*
X296325Y-9500D01*
X298575D01*
X301125D02*X303375D01*
X300375Y-8750D02*X301125Y-9500D01*
X300375Y-7250D02*Y-8750D01*
Y-7250D02*X301125Y-6500D01*
X302625D01*
X303375Y-7250D01*
X300375Y-8000D02*X303375D01*
Y-7250D02*Y-8000D01*
X305925Y-7250D02*Y-9500D01*
Y-7250D02*X306675Y-6500D01*
X307425D01*
X308175Y-7250D01*
Y-9500D01*
X305175Y-6500D02*X305925Y-7250D01*
X310725Y-3500D02*Y-8750D01*
X311475Y-9500D01*
X309975Y-5750D02*X311475D01*
X313725Y-9500D02*X315975D01*
X312975Y-8750D02*X313725Y-9500D01*
X312975Y-7250D02*Y-8750D01*
Y-7250D02*X313725Y-6500D01*
X315225D01*
X315975Y-7250D01*
X312975Y-8000D02*X315975D01*
Y-7250D02*Y-8000D01*
X318525Y-7250D02*Y-9500D01*
Y-7250D02*X319275Y-6500D01*
X320775D01*
X317775D02*X318525Y-7250D01*
X322575Y-3500D02*Y-8750D01*
X323325Y-9500D01*
G54D83*X324825Y-5000D02*Y-5150D01*
G54D82*Y-7250D02*Y-9500D01*
X327075Y-7250D02*Y-9500D01*
Y-7250D02*X327825Y-6500D01*
X328575D01*
X329325Y-7250D01*
Y-9500D01*
X326325Y-6500D02*X327075Y-7250D01*
X331875Y-9500D02*X334125D01*
X331125Y-8750D02*X331875Y-9500D01*
X331125Y-7250D02*Y-8750D01*
Y-7250D02*X331875Y-6500D01*
X333375D01*
X334125Y-7250D01*
X331125Y-8000D02*X334125D01*
Y-7250D02*Y-8000D01*
X338625Y-7250D02*Y-8750D01*
Y-7250D02*X339375Y-6500D01*
X340875D01*
X341625Y-7250D01*
Y-8750D01*
X340875Y-9500D02*X341625Y-8750D01*
X339375Y-9500D02*X340875D01*
X338625Y-8750D02*X339375Y-9500D01*
X344175Y-4250D02*Y-9500D01*
Y-4250D02*X344925Y-3500D01*
X345675D01*
X343425Y-6500D02*X344925D01*
X350625Y-3500D02*Y-8750D01*
X351375Y-9500D01*
X349875Y-5750D02*X351375D01*
X352875Y-3500D02*Y-9500D01*
Y-7250D02*X353625Y-6500D01*
X355125D01*
X355875Y-7250D01*
Y-9500D01*
G54D83*X357675Y-5000D02*Y-5150D01*
G54D82*Y-7250D02*Y-9500D01*
X359925D02*X362175D01*
X362925Y-8750D01*
X362175Y-8000D02*X362925Y-8750D01*
X359925Y-8000D02*X362175D01*
X359175Y-7250D02*X359925Y-8000D01*
X359175Y-7250D02*X359925Y-6500D01*
X362175D01*
X362925Y-7250D01*
X359175Y-8750D02*X359925Y-9500D01*
X368175Y-7250D02*Y-11750D01*
X367425Y-6500D02*X368175Y-7250D01*
X368925Y-6500D01*
X370425D01*
X371175Y-7250D01*
Y-8750D01*
X370425Y-9500D02*X371175Y-8750D01*
X368925Y-9500D02*X370425D01*
X368175Y-8750D02*X368925Y-9500D01*
X375225Y-6500D02*X375975Y-7250D01*
X373725Y-6500D02*X375225D01*
X372975Y-7250D02*X373725Y-6500D01*
X372975Y-7250D02*Y-8750D01*
X373725Y-9500D01*
X375975Y-6500D02*Y-8750D01*
X376725Y-9500D01*
X373725D02*X375225D01*
X375975Y-8750D01*
X379275Y-3500D02*Y-8750D01*
X380025Y-9500D01*
X378525Y-5750D02*X380025D01*
X381525Y-3500D02*Y-9500D01*
Y-7250D02*X382275Y-6500D01*
X383775D01*
X384525Y-7250D01*
Y-9500D01*
X200750Y528500D02*Y522500D01*
X202700Y528500D02*X203750Y527450D01*
Y523550D01*
X202700Y522500D02*X203750Y523550D01*
X200000Y522500D02*X202700D01*
X200000Y528500D02*X202700D01*
X207800Y525500D02*X208550Y524750D01*
X206300Y525500D02*X207800D01*
X205550Y524750D02*X206300Y525500D01*
X205550Y524750D02*Y523250D01*
X206300Y522500D01*
X208550Y525500D02*Y523250D01*
X209300Y522500D01*
X206300D02*X207800D01*
X208550Y523250D01*
X211850Y528500D02*Y523250D01*
X212600Y522500D01*
X211100Y526250D02*X212600D01*
X214850Y522500D02*X217100D01*
X214100Y523250D02*X214850Y522500D01*
X214100Y524750D02*Y523250D01*
Y524750D02*X214850Y525500D01*
X216350D01*
X217100Y524750D01*
X214100Y524000D02*X217100D01*
Y524750D02*Y524000D01*
X218900Y526250D02*X219650D01*
X218900Y524750D02*X219650D01*
X224150Y528500D02*X227150D01*
X225650D02*Y522500D01*
X228950Y525500D02*Y523250D01*
X229700Y522500D01*
X231200D01*
X231950Y523250D01*
Y525500D02*Y523250D01*
X234500Y522500D02*X236750D01*
X233750Y523250D02*X234500Y522500D01*
X233750Y524750D02*Y523250D01*
Y524750D02*X234500Y525500D01*
X236000D01*
X236750Y524750D01*
X233750Y524000D02*X236750D01*
Y524750D02*Y524000D01*
X241250Y527300D02*X242450Y528500D01*
Y522500D01*
X241250D02*X243500D01*
X245300Y523250D02*X246050Y522500D01*
X245300Y524450D02*Y523250D01*
Y524450D02*X246350Y525500D01*
X247250D01*
X248300Y524450D01*
Y523250D01*
X247550Y522500D02*X248300Y523250D01*
X246050Y522500D02*X247550D01*
X245300Y526550D02*X246350Y525500D01*
X245300Y527750D02*Y526550D01*
Y527750D02*X246050Y528500D01*
X247550D01*
X248300Y527750D01*
Y526550D01*
X247250Y525500D02*X248300Y526550D01*
X252800Y528500D02*Y522500D01*
Y528500D02*X255800D01*
X252800Y525800D02*X255050D01*
X258350Y522500D02*X260600D01*
X257600Y523250D02*X258350Y522500D01*
X257600Y524750D02*Y523250D01*
Y524750D02*X258350Y525500D01*
X259850D01*
X260600Y524750D01*
X257600Y524000D02*X260600D01*
Y524750D02*Y524000D01*
X262400Y528500D02*Y522500D01*
Y523250D02*X263150Y522500D01*
X264650D01*
X265400Y523250D01*
Y524750D02*Y523250D01*
X264650Y525500D02*X265400Y524750D01*
X263150Y525500D02*X264650D01*
X262400Y524750D02*X263150Y525500D01*
X269900Y527750D02*X270650Y528500D01*
X272900D01*
X273650Y527750D01*
Y526250D01*
X269900Y522500D02*X273650Y526250D01*
X269900Y522500D02*X273650D01*
X275450Y523250D02*X276200Y522500D01*
X275450Y527750D02*Y523250D01*
Y527750D02*X276200Y528500D01*
X277700D01*
X278450Y527750D01*
Y523250D01*
X277700Y522500D02*X278450Y523250D01*
X276200Y522500D02*X277700D01*
X275450Y524000D02*X278450Y527000D01*
X280250Y527300D02*X281450Y528500D01*
Y522500D01*
X280250D02*X282500D01*
X284300Y524750D02*X287300Y528500D01*
X284300Y524750D02*X288050D01*
X287300Y528500D02*Y522500D01*
X292550Y523250D02*X293300Y522500D01*
X292550Y527750D02*Y523250D01*
Y527750D02*X293300Y528500D01*
X294800D01*
X295550Y527750D01*
Y523250D01*
X294800Y522500D02*X295550Y523250D01*
X293300Y522500D02*X294800D01*
X292550Y524000D02*X295550Y527000D01*
X297350Y527750D02*X298100Y528500D01*
X299600D01*
X300350Y527750D01*
X299600Y522500D02*X300350Y523250D01*
X298100Y522500D02*X299600D01*
X297350Y523250D02*X298100Y522500D01*
Y525800D02*X299600D01*
X300350Y527750D02*Y526550D01*
Y525050D02*Y523250D01*
Y525050D02*X299600Y525800D01*
X300350Y526550D02*X299600Y525800D01*
X302150Y526250D02*X302900D01*
X302150Y524750D02*X302900D01*
X304700Y523250D02*X305450Y522500D01*
X304700Y527750D02*Y523250D01*
Y527750D02*X305450Y528500D01*
X306950D01*
X307700Y527750D01*
Y523250D01*
X306950Y522500D02*X307700Y523250D01*
X305450Y522500D02*X306950D01*
X304700Y524000D02*X307700Y527000D01*
X309500Y527300D02*X310700Y528500D01*
Y522500D01*
X309500D02*X311750D01*
X313550Y526250D02*X314300D01*
X313550Y524750D02*X314300D01*
X316100Y523250D02*X316850Y522500D01*
X316100Y527750D02*Y523250D01*
Y527750D02*X316850Y528500D01*
X318350D01*
X319100Y527750D01*
Y523250D01*
X318350Y522500D02*X319100Y523250D01*
X316850Y522500D02*X318350D01*
X316100Y524000D02*X319100Y527000D01*
X320900Y527750D02*X321650Y528500D01*
X323150D01*
X323900Y527750D01*
X323150Y522500D02*X323900Y523250D01*
X321650Y522500D02*X323150D01*
X320900Y523250D02*X321650Y522500D01*
Y525800D02*X323150D01*
X323900Y527750D02*Y526550D01*
Y525050D02*Y523250D01*
Y525050D02*X323150Y525800D01*
X323900Y526550D02*X323150Y525800D01*
X328400Y527000D02*Y522500D01*
Y527000D02*X329450Y528500D01*
X331100D01*
X332150Y527000D01*
Y522500D01*
X328400Y525500D02*X332150D01*
X333950Y528500D02*Y522500D01*
Y528500D02*X336200Y525500D01*
X338450Y528500D01*
Y522500D01*
X345950Y528500D02*X346700Y527750D01*
X343700Y528500D02*X345950D01*
X342950Y527750D02*X343700Y528500D01*
X342950Y527750D02*Y523250D01*
X343700Y522500D01*
X345950D01*
X346700Y523250D01*
Y524750D02*Y523250D01*
X345950Y525500D02*X346700Y524750D01*
X344450Y525500D02*X345950D01*
X348500Y528500D02*Y522500D01*
Y528500D02*X350750Y525500D01*
X353000Y528500D01*
Y522500D01*
X354800Y528500D02*X357800D01*
X356300D02*Y522500D01*
X362300Y528500D02*Y523250D01*
X363050Y522500D01*
X364550D01*
X365300Y523250D01*
Y528500D02*Y523250D01*
X367100Y528500D02*X370100D01*
X368600D02*Y522500D01*
X372950D02*X374900D01*
X371900Y523550D02*X372950Y522500D01*
X371900Y527450D02*Y523550D01*
Y527450D02*X372950Y528500D01*
X374900D01*
X200000Y542000D02*Y537500D01*
Y542000D02*X201050Y543500D01*
X202700D01*
X203750Y542000D01*
Y537500D01*
X200000Y540500D02*X203750D01*
X205550D02*Y538250D01*
X206300Y537500D01*
X207800D01*
X208550Y538250D01*
Y540500D02*Y538250D01*
X211100Y543500D02*Y538250D01*
X211850Y537500D01*
X210350Y541250D02*X211850D01*
X213350Y543500D02*Y537500D01*
Y539750D02*X214100Y540500D01*
X215600D01*
X216350Y539750D01*
Y537500D01*
X218150Y539750D02*Y538250D01*
Y539750D02*X218900Y540500D01*
X220400D01*
X221150Y539750D01*
Y538250D01*
X220400Y537500D02*X221150Y538250D01*
X218900Y537500D02*X220400D01*
X218150Y538250D02*X218900Y537500D01*
X223700Y539750D02*Y537500D01*
Y539750D02*X224450Y540500D01*
X225950D01*
X222950D02*X223700Y539750D01*
X227750Y541250D02*X228500D01*
X227750Y539750D02*X228500D01*
X233000Y537500D02*X236000D01*
X236750Y538250D01*
Y540050D02*Y538250D01*
X236000Y540800D02*X236750Y540050D01*
X233750Y540800D02*X236000D01*
X233750Y543500D02*Y537500D01*
X233000Y543500D02*X236000D01*
X236750Y542750D01*
Y541550D01*
X236000Y540800D02*X236750Y541550D01*
X239300Y537500D02*X241550D01*
X238550Y538250D02*X239300Y537500D01*
X238550Y539750D02*Y538250D01*
Y539750D02*X239300Y540500D01*
X240800D01*
X241550Y539750D01*
X238550Y539000D02*X241550D01*
Y539750D02*Y539000D01*
X244100Y539750D02*Y537500D01*
Y539750D02*X244850Y540500D01*
X245600D01*
X246350Y539750D01*
Y537500D01*
X243350Y540500D02*X244100Y539750D01*
X253850Y543500D02*X254600Y542750D01*
X251600Y543500D02*X253850D01*
X250850Y542750D02*X251600Y543500D01*
X250850Y542750D02*Y538250D01*
X251600Y537500D01*
X253850D01*
X254600Y538250D01*
Y539750D02*Y538250D01*
X253850Y540500D02*X254600Y539750D01*
X252350Y540500D02*X253850D01*
X258650D02*X259400Y539750D01*
X257150Y540500D02*X258650D01*
X256400Y539750D02*X257150Y540500D01*
X256400Y539750D02*Y538250D01*
X257150Y537500D01*
X259400Y540500D02*Y538250D01*
X260150Y537500D01*
X257150D02*X258650D01*
X259400Y538250D01*
X262700Y539750D02*Y537500D01*
Y539750D02*X263450Y540500D01*
X264200D01*
X264950Y539750D01*
Y537500D01*
Y539750D02*X265700Y540500D01*
X266450D01*
X267200Y539750D01*
Y537500D01*
X261950Y540500D02*X262700Y539750D01*
X271250Y540500D02*X272000Y539750D01*
X269750Y540500D02*X271250D01*
X269000Y539750D02*X269750Y540500D01*
X269000Y539750D02*Y538250D01*
X269750Y537500D01*
X272000Y540500D02*Y538250D01*
X272750Y537500D01*
X269750D02*X271250D01*
X272000Y538250D01*
X275300Y539750D02*Y537500D01*
Y539750D02*X276050Y540500D01*
X277550D01*
X274550D02*X275300Y539750D01*
G54D83*X279350Y542000D02*Y541850D01*
G54D82*Y539750D02*Y537500D01*
X200000Y558500D02*X203000D01*
X201500D02*Y552500D01*
G54D83*X204800Y557000D02*Y556850D01*
G54D82*Y554750D02*Y552500D01*
X207050Y558500D02*Y553250D01*
X207800Y552500D01*
X206300Y556250D02*X207800D01*
X209300Y558500D02*Y553250D01*
X210050Y552500D01*
X212300D02*X214550D01*
X211550Y553250D02*X212300Y552500D01*
X211550Y554750D02*Y553250D01*
Y554750D02*X212300Y555500D01*
X213800D01*
X214550Y554750D01*
X211550Y554000D02*X214550D01*
Y554750D02*Y554000D01*
X216350Y556250D02*X217100D01*
X216350Y554750D02*X217100D01*
X222350D02*Y552500D01*
Y554750D02*X223100Y555500D01*
X224600D01*
X221600D02*X222350Y554750D01*
G54D83*X226400Y557000D02*Y556850D01*
G54D82*Y554750D02*Y552500D01*
X228650Y557750D02*Y552500D01*
Y557750D02*X229400Y558500D01*
X230150D01*
X227900Y555500D02*X229400D01*
X232400Y557750D02*Y552500D01*
Y557750D02*X233150Y558500D01*
X233900D01*
X231650Y555500D02*X233150D01*
X235400Y558500D02*Y553250D01*
X236150Y552500D01*
X238400D02*X240650D01*
X237650Y553250D02*X238400Y552500D01*
X237650Y554750D02*Y553250D01*
Y554750D02*X238400Y555500D01*
X239900D01*
X240650Y554750D01*
X237650Y554000D02*X240650D01*
Y554750D02*Y554000D01*
X245150Y555500D02*X248150D01*
X252650Y558500D02*Y552500D01*
Y558500D02*X255650D01*
X252650Y555800D02*X254900D01*
X259700Y555500D02*X260450Y554750D01*
X258200Y555500D02*X259700D01*
X257450Y554750D02*X258200Y555500D01*
X257450Y554750D02*Y553250D01*
X258200Y552500D01*
X260450Y555500D02*Y553250D01*
X261200Y552500D01*
X258200D02*X259700D01*
X260450Y553250D01*
X263000Y558500D02*Y552500D01*
Y553250D02*X263750Y552500D01*
X265250D01*
X266000Y553250D01*
Y554750D02*Y553250D01*
X265250Y555500D02*X266000Y554750D01*
X263750Y555500D02*X265250D01*
X263000Y554750D02*X263750Y555500D01*
X268550Y554750D02*Y552500D01*
Y554750D02*X269300Y555500D01*
X270800D01*
X267800D02*X268550Y554750D01*
G54D83*X272600Y557000D02*Y556850D01*
G54D82*Y554750D02*Y552500D01*
X274850Y555500D02*X277100D01*
X274100Y554750D02*X274850Y555500D01*
X274100Y554750D02*Y553250D01*
X274850Y552500D01*
X277100D01*
X281150Y555500D02*X281900Y554750D01*
X279650Y555500D02*X281150D01*
X278900Y554750D02*X279650Y555500D01*
X278900Y554750D02*Y553250D01*
X279650Y552500D01*
X281900Y555500D02*Y553250D01*
X282650Y552500D01*
X279650D02*X281150D01*
X281900Y553250D01*
X285200Y558500D02*Y553250D01*
X285950Y552500D01*
X284450Y556250D02*X285950D01*
G54D83*X287450Y557000D02*Y556850D01*
G54D82*Y554750D02*Y552500D01*
X288950Y554750D02*Y553250D01*
Y554750D02*X289700Y555500D01*
X291200D01*
X291950Y554750D01*
Y553250D01*
X291200Y552500D02*X291950Y553250D01*
X289700Y552500D02*X291200D01*
X288950Y553250D02*X289700Y552500D01*
X294500Y554750D02*Y552500D01*
Y554750D02*X295250Y555500D01*
X296000D01*
X296750Y554750D01*
Y552500D01*
X293750Y555500D02*X294500Y554750D01*
X302000Y558500D02*Y552500D01*
X303950Y558500D02*X305000Y557450D01*
Y553550D01*
X303950Y552500D02*X305000Y553550D01*
X301250Y552500D02*X303950D01*
X301250Y558500D02*X303950D01*
X307550Y554750D02*Y552500D01*
Y554750D02*X308300Y555500D01*
X309800D01*
X306800D02*X307550Y554750D01*
X313850Y555500D02*X314600Y554750D01*
X312350Y555500D02*X313850D01*
X311600Y554750D02*X312350Y555500D01*
X311600Y554750D02*Y553250D01*
X312350Y552500D01*
X314600Y555500D02*Y553250D01*
X315350Y552500D01*
X312350D02*X313850D01*
X314600Y553250D01*
X317150Y555500D02*Y553250D01*
X317900Y552500D01*
X318650D01*
X319400Y553250D01*
Y555500D02*Y553250D01*
X320150Y552500D01*
X320900D01*
X321650Y553250D01*
Y555500D02*Y553250D01*
G54D83*X323450Y557000D02*Y556850D01*
G54D82*Y554750D02*Y552500D01*
X325700Y554750D02*Y552500D01*
Y554750D02*X326450Y555500D01*
X327200D01*
X327950Y554750D01*
Y552500D01*
X324950Y555500D02*X325700Y554750D01*
X332000Y555500D02*X332750Y554750D01*
X330500Y555500D02*X332000D01*
X329750Y554750D02*X330500Y555500D01*
X329750Y554750D02*Y553250D01*
X330500Y552500D01*
X332000D01*
X332750Y553250D01*
X329750Y551000D02*X330500Y550250D01*
X332000D01*
X332750Y551000D01*
Y555500D02*Y551000D01*
M02*
