G04 start of page 2 for group 0 idx 0 *
G04 Title: riffle, top *
G04 Creator: pcb 20140316 *
G04 CreationDate: Tue 16 Sep 2014 07:13:16 PM GMT UTC *
G04 For: ben *
G04 Format: Gerber/RS-274X *
G04 PCB-Dimensions (mil): 6000.00 5000.00 *
G04 PCB-Coordinate-Origin: lower left *
%MOIN*%
%FSLAX25Y25*%
%LNTOP*%
%ADD34C,0.0380*%
%ADD33C,0.0150*%
%ADD32C,0.0350*%
%ADD31C,0.0200*%
%ADD30C,0.0340*%
%ADD29C,0.0360*%
%ADD28R,0.0410X0.0410*%
%ADD27R,0.0177X0.0177*%
%ADD26R,0.0118X0.0118*%
%ADD25R,0.0130X0.0130*%
%ADD24R,0.0276X0.0276*%
%ADD23R,0.0240X0.0240*%
%ADD22R,0.0512X0.0512*%
%ADD21R,0.0500X0.0500*%
%ADD20R,0.0106X0.0106*%
%ADD19R,0.0748X0.0748*%
%ADD18R,0.0157X0.0157*%
%ADD17R,0.0340X0.0340*%
%ADD16R,0.0276X0.0276*%
%ADD15R,0.0295X0.0295*%
%ADD14C,0.0001*%
%ADD13C,0.0600*%
%ADD12C,0.0250*%
%ADD11C,0.0100*%
G54D11*X209000Y334390D02*X218610D01*
X220500Y332500D01*
X201732Y336358D02*X223642Y336358D01*
X225000Y335000D01*
X201732Y338327D02*X225673Y338327D01*
X225000Y342000D02*X201000D01*
X203000Y350000D02*X231000D01*
X200000Y352500D02*X229000D01*
X213050Y357500D02*X208500D01*
X207000Y356000D01*
X201929Y322579D02*X209421D01*
X225673Y338327D02*X227000Y337000D01*
X228000Y339000D02*X225000Y342000D01*
X228000Y339000D02*X234000D01*
X235000Y340000D01*
X225000Y335000D02*X243000D01*
X242500Y357500D02*X222500D01*
X229000Y352500D02*X229500Y353000D01*
X232000Y351000D02*X231000Y350000D01*
X220500Y332500D02*X240000D01*
X220453Y327500D02*X226547D01*
X230500D02*X232453D01*
X212250Y322250D02*X245250D01*
X227000Y337000D02*X247000D01*
X203500Y377500D02*X260000D01*
X242500Y357500D02*X252500Y347500D01*
Y345000D01*
X227500Y362500D02*X252500D01*
X257500Y357500D01*
Y350000D01*
X244000Y351000D02*X232000D01*
X250000Y340000D02*X257500D01*
X237150Y372500D02*X249547D01*
X252047Y370000D01*
X225000Y365000D02*X257500D01*
X267500Y274000D02*X273500D01*
X274000Y273500D01*
X283338D01*
X283838Y274000D01*
X254000Y280500D02*X287530D01*
X267500Y285024D02*X283838D01*
X279000Y285047D02*X279024Y285024D01*
X287500Y280500D02*X293000D01*
X297500Y285000D01*
X307000Y282000D02*X306047D01*
X304000Y284047D01*
X252000Y282500D02*X254000Y280500D01*
X252000Y286500D02*Y282500D01*
Y286500D02*X250000Y288500D01*
X247597Y285012D02*X248819Y283790D01*
X249469Y293031D02*X250000Y292500D01*
X250500D01*
X252000Y291000D01*
X251437Y299134D02*Y298563D01*
X255000Y295000D01*
X249469Y299134D02*Y293031D01*
X253366Y301634D02*X256338Y298662D01*
X252000Y291000D02*X257000D01*
X262000Y296000D01*
X268000D01*
X256338Y298662D02*X267886D01*
X268000Y291000D02*Y293430D01*
X267886Y293544D01*
X249000Y315000D02*X277000D01*
X279000Y313000D01*
Y285047D01*
X267886Y306338D02*X271338D01*
X275000Y310000D01*
X291114Y306338D02*X299709D01*
X291114Y311456D02*X286544D01*
X286000Y312000D01*
X299709Y306338D02*X300047Y306000D01*
X297268Y303779D02*X300047Y301000D01*
X297000Y299047D02*X300047Y296000D01*
X291114Y303779D02*X297268D01*
X291114Y301221D02*X295779D01*
X297000Y300000D01*
Y299047D01*
X291114Y298662D02*Y293544D01*
Y296000D02*X286000D01*
X209953Y324547D02*X212250Y322250D01*
X201929Y324547D02*X209953D01*
X210000Y324500D01*
X212000Y320000D02*X209421Y322579D01*
X201929Y320610D02*X208390D01*
X209500Y319500D01*
X201929Y316673D02*X199000Y313744D01*
X209500Y315500D02*X203000Y309000D01*
X205000Y308000D02*X209000Y312000D01*
X215000D01*
X208000Y304000D02*X205000D01*
X211000Y309000D02*Y306906D01*
X213906Y304000D01*
X201929Y318642D02*X206358D01*
X207500Y317500D01*
X201929Y316673D02*X203327D01*
X209500Y315500D02*Y319500D01*
X207500Y317500D02*Y316500D01*
X214000Y320000D02*X212000D01*
X207500Y316500D02*X201000Y310000D01*
X243000Y335000D02*X248000Y330000D01*
X240000Y332500D02*X242500Y330000D01*
X247000Y337000D02*X250000Y340000D01*
X232500Y317500D02*X233406D01*
X235000Y315906D01*
X245250Y322250D02*X250000Y317500D01*
X240000Y319000D02*X245000D01*
X249000Y315000D01*
X227200Y314900D02*X229900D01*
X232500Y317500D01*
X235000Y310000D02*Y306000D01*
X233000Y304000D02*X235969Y306969D01*
X233000Y304000D02*X233500D01*
X219000Y314900D02*X220100D01*
X219000D02*Y318800D01*
X220100Y314900D02*X224000Y311000D01*
X227200Y304300D02*Y311000D01*
X224000D02*Y303000D01*
X215000Y312000D02*Y319000D01*
X214000Y320000D01*
X215000Y312000D02*X216000Y311000D01*
X218000D01*
X213906Y304000D02*X224000D01*
X203000Y309000D02*Y292000D01*
X202500Y282500D02*Y275000D01*
X201000Y310000D02*Y289000D01*
X203000Y292000D02*X217000Y278000D01*
X201000Y289000D02*X216012Y273988D01*
X211063Y293441D02*X205559D01*
X206559D02*X205559D01*
X205000Y294000D01*
X218000Y282000D02*X206559Y293441D01*
X284882Y361280D02*Y363839D01*
X296339Y356161D02*X291339D01*
X290000Y357500D01*
Y372500D01*
X295118Y356161D02*X295453Y355827D01*
X290000Y372500D02*X295000Y377500D01*
X275000Y376811D02*X284311D01*
X285000Y377500D01*
X260000D02*X262500Y375000D01*
X268406D02*X270000Y373406D01*
X257953Y370000D02*X261000D01*
X284882Y363839D02*X279114D01*
X257500Y365000D02*X262500Y360000D01*
X279114Y363839D02*X275000Y367953D01*
Y370906D01*
X277500Y355906D02*X273858D01*
X284882Y358720D02*X274232D01*
X262500Y360000D02*Y355000D01*
X273858Y355906D02*X272500Y354547D01*
X274232Y358720D02*X270000Y362953D01*
Y373406D01*
X284882Y356161D02*Y352618D01*
X285000Y352500D01*
X292500Y347500D02*X289764D01*
X290000D02*X287500D01*
X284882Y350118D01*
Y352382D01*
X285000Y352500D01*
X295118Y361280D02*X303327D01*
X302500Y360453D02*X304547D01*
X307500Y357500D01*
X295118Y358720D02*X298780D01*
X302500Y355000D01*
X295118Y363839D02*X303839D01*
X305000Y365000D01*
Y373406D02*X303406D01*
X302500Y372500D01*
X305000Y365000D02*Y367500D01*
X307500Y357500D02*Y335000D01*
X302500Y355000D02*Y351594D01*
X298406Y347500D01*
X307500Y335000D02*X301250Y328750D01*
X304000Y289953D02*Y294047D01*
X305953Y296000D01*
Y311000D01*
X291114Y308897D02*X297944D01*
X300047Y311000D01*
X277500Y342500D02*Y350000D01*
X257500D02*X262500Y345000D01*
X285700Y334700D02*X292200D01*
X292047Y332500D02*Y334547D01*
X248000Y330000D02*X289750D01*
X277500Y334700D02*X272700D01*
X271000Y333000D01*
X277500Y338600D02*X273600D01*
X257500Y340000D02*X262500Y335000D01*
X282000Y345000D02*X283200D01*
X285700Y342500D01*
X250000Y317500D02*X271500D01*
X271000Y327094D02*Y324000D01*
X295453Y355827D02*Y337953D01*
X285700Y338600D02*X288600D01*
X290000Y340000D01*
X292500D01*
X295453Y337953D02*X292047Y334547D01*
X297953Y332500D02*Y332953D01*
X300000Y335000D01*
X298406Y340000D02*Y336594D01*
X300000Y335000D01*
X301250Y328750D02*X291000D01*
X289750Y330000D02*X291000Y328750D01*
X288000Y327000D02*X286000D01*
X277000Y318000D01*
X281000Y327000D02*X271500Y317500D01*
X247500Y285109D02*X242928D01*
X242831Y285012D01*
X250000Y288500D02*X238500D01*
X237500Y287500D01*
X253366Y305000D02*X247500D01*
X245531Y306969D02*X247500Y305000D01*
X249469Y306969D02*X247500Y305000D01*
X253366Y303031D02*Y301634D01*
X241634Y306969D02*X235969D01*
X245531Y310866D02*Y306969D01*
X249469Y310866D02*Y306969D01*
X245531Y299134D02*Y293031D01*
X245000Y292500D01*
X237500Y300000D02*X242697D01*
X243563Y299134D01*
X239094Y292500D02*X235000D01*
X238000Y278000D02*X240000D01*
X246000Y279500D02*X243500Y282000D01*
X217500Y287500D02*X237500D01*
X218937Y293441D02*X229559D01*
X230000Y293000D01*
X218937Y296000D02*X234000D01*
Y297500D02*X227200Y304300D01*
X233500Y304000D02*X237500Y300000D01*
X235500Y297500D02*X234000D01*
Y296000D02*X235500Y297500D01*
X219000Y301000D02*Y298622D01*
X218937Y298559D01*
X228000Y299000D02*X224000Y303000D01*
X243500Y282000D02*X218000D01*
X217000Y278000D02*X240000D01*
X259169Y273988D02*X216012D01*
X168858Y334390D02*X154449D01*
X161024Y336358D02*X160000Y337382D01*
X152390Y334390D02*X154500D01*
X168268Y332421D02*X172579D01*
X168268Y330453D02*X163453D01*
X162406Y331500D01*
X156500D02*X154500D01*
X147953Y332500D02*X150500D01*
X152500Y337500D02*Y337787D01*
X150728Y339559D01*
X150287Y340000D02*X152500Y337787D01*
X150500Y332500D02*X152390Y334390D01*
X165642Y318642D02*X164000Y317000D01*
X168858Y316673D02*X164327D01*
X164000Y317000D01*
X168858Y318642D02*X165642D01*
X147500Y314547D02*X155000D01*
X172579Y332421D02*X174000Y331000D01*
Y335000D02*X177000Y332000D01*
Y328000D01*
X175000Y326000D01*
Y318000D01*
X168268Y320610D02*Y322579D01*
X174173Y310768D02*X169350D01*
X167618Y312500D01*
X175000Y318000D02*X172000Y315000D01*
X166000D01*
X163500Y312500D01*
X160000D01*
X174000Y335000D02*Y335500D01*
X168268Y320610D02*X155157D01*
X140000Y320453D02*X154843D01*
X155000Y320610D01*
X168268Y328484D02*X135984D01*
X220000Y360000D02*X222500Y357500D01*
X220000Y360000D02*X205000D01*
X206000Y364000D02*X196500Y354500D01*
X194000D01*
X205000Y360000D02*X197500Y352500D01*
X194500D01*
Y358500D02*X195250Y359250D01*
X194500Y358500D02*X202000Y366000D01*
X227500Y362500D02*X226000Y361000D01*
X213050Y362500D02*X218500D01*
X220000Y364000D01*
X178110Y343641D02*Y352110D01*
X184016Y343641D02*Y352016D01*
X185984Y344232D02*Y348484D01*
X178110Y350890D02*Y355992D01*
X184016Y352016D02*X184500Y352500D01*
X185984Y348484D02*X187000Y349500D01*
X178000Y356000D02*X178110Y355890D01*
X180079Y354579D02*X184000Y358500D01*
X194500D02*X184000D01*
X180953Y362000D02*X184047D01*
X187047Y365000D01*
X191890Y349890D02*X194500Y352500D01*
X194000Y354500D02*X189921Y350421D01*
X195000Y350000D02*X193858Y348858D01*
X195500Y350500D01*
X198000D02*X195500D01*
X195700Y367747D02*X192953Y365000D01*
X207500Y367500D02*X222500D01*
X225000Y365000D01*
X202000Y366000D02*Y376000D01*
X203500Y377500D02*X202000Y376000D01*
X195700Y376400D02*Y367747D01*
X213050Y372500D02*X208000D01*
X206000Y364000D02*Y366000D01*
X207500Y367500D01*
G54D12*X230000D02*X227500Y370000D01*
X230000Y372500D02*X227500Y370000D01*
X237150Y367500D02*X230000D01*
X237150Y372500D02*X230000D01*
G54D11*X178000Y363000D02*Y356000D01*
G54D12*X175047Y361000D02*X174000D01*
X173000Y360000D01*
X172906Y366000D02*X176000D01*
G54D11*X180000Y367047D02*Y365000D01*
X178000Y363000D01*
X180000Y372953D02*Y379547D01*
X180906Y380453D01*
X187347D01*
X187500Y380300D01*
X175000Y380453D02*Y372500D01*
X177500Y370000D01*
X185000D01*
X187500Y372500D01*
X201732Y328484D02*X208516Y328484D01*
X201732Y334390D02*X209390Y334390D01*
X208516Y328484D02*X213563D01*
X214547Y327500D01*
X201000Y346000D02*X203000D01*
X203500Y350000D02*X203000D01*
X196500Y348500D02*X201500D01*
X203000Y350000D01*
X200000Y352500D02*X198000Y350500D01*
X195827Y344232D02*Y347827D01*
X196500Y348500D01*
X198000Y343000D02*X201000Y346000D01*
X184016Y347484D02*Y343641D01*
X176142Y344232D02*Y347858D01*
X180079Y350921D02*Y354579D01*
Y343641D02*Y351079D01*
X189000Y353500D02*X185500D01*
X184016Y352016D01*
X192000Y350000D02*X191890Y349890D01*
X161024Y336358D02*X168071Y336358D01*
X197579Y332421D02*X197000Y333000D01*
X191890Y333110D02*X192000Y333000D01*
X195000Y339000D02*X193858Y340142D01*
Y348858D01*
X189921Y350421D02*Y335921D01*
X191890Y349890D02*Y333110D01*
X187953Y344429D02*Y338953D01*
X187000Y338000D01*
X160000Y350000D02*X161000Y351000D01*
G54D12*X164750Y339250D02*X154000Y350000D01*
G54D11*X161000Y351000D02*X173000D01*
X176142Y347858D02*X173000Y351000D01*
X172000Y343000D02*X172744D01*
X174173Y344429D01*
G54D12*X168000Y339250D02*X164750D01*
X177750D02*X168250D01*
G54D11*X168858Y338327D02*X166673D01*
G54D12*X177750Y339250D02*X180000Y337000D01*
G54D11*X201732Y332421D02*X197579D01*
X195000Y331000D02*X190000Y326000D01*
X197000Y333000D02*Y339500D01*
X198000Y340500D01*
Y343000D01*
X195000Y339000D02*Y331000D01*
X190000Y326000D02*X186000D01*
X189921Y335921D02*X183000Y329000D01*
Y323000D01*
Y324000D02*Y323000D01*
X190000Y319000D02*X187000D01*
G54D12*X180000Y337000D02*Y316000D01*
G54D11*X201929Y326516D02*X197516D01*
X196000Y325000D01*
Y317000D01*
G54D12*X152650Y366200D02*X159843D01*
X153700Y365000D02*X160000D01*
X153800Y367500D02*X160000D01*
X160086Y367286D02*X159000Y366200D01*
X167000Y372000D02*X167500Y372500D01*
X167000Y362000D02*Y372000D01*
X159586Y366786D02*X159000Y366200D01*
X159586Y375000D02*Y366786D01*
G54D11*X174047Y379500D02*X175000Y380453D01*
X135453Y380000D02*X175000D01*
G54D12*X160000Y358957D02*X163957D01*
X160059Y359941D02*X160000Y360000D01*
X167000Y362000D02*X163957Y358957D01*
X160000D02*X164094D01*
X153800Y357500D02*X160000D01*
X153700Y360000D02*X160000D01*
X159843Y358800D02*X160000Y358957D01*
X152650Y358800D02*X159843D01*
X154000Y356000D02*Y350000D01*
X152000Y358800D02*X154500Y356300D01*
G54D11*X167000Y348000D02*X168858D01*
X160000Y350000D02*X160953D01*
X162953Y348000D01*
G54D12*X167000Y354047D02*X169953D01*
X170000Y354000D01*
X154000Y355000D02*X147500D01*
X145000Y352500D01*
G54D11*X142350Y358800D02*X135000Y351450D01*
Y350059D01*
X148953Y347000D02*X151000D01*
X132106Y339547D02*X139559Y347000D01*
X143047D01*
X147953Y340000D02*X150287D01*
X127047Y339547D02*X122047D01*
G54D12*X122350Y360000D02*Y359500D01*
X130850Y355047D02*X126803D01*
X122350Y359500D02*X126803Y355047D01*
X122350Y370000D02*X124909Y372559D01*
X132500D01*
X135453Y375512D01*
X132500Y360906D02*X132350Y367291D01*
X132500Y367441D01*
X133741Y366200D02*X132500Y367441D01*
X135453Y375512D02*Y380000D01*
X142350Y366200D02*Y371897D01*
X145453Y375000D01*
X152500D01*
G54D11*X139547D02*Y373547D01*
X138000Y372000D01*
G54D12*X142350Y366200D02*X133741D01*
X142350Y362500D02*X147500D01*
X132500Y360906D02*X134606Y358800D01*
X142350D01*
X123094Y293000D02*Y302806D01*
X122800Y303100D01*
X129000Y293000D02*X132000D01*
G54D11*X132500Y320453D02*X127953D01*
X127500Y320000D01*
X120000Y325000D02*X122500Y322500D01*
X125000D01*
X127500Y325000D01*
X152000Y304094D02*X153906D01*
X154000Y304000D01*
G54D12*X159000Y306000D02*X162000D01*
X146094Y303094D02*X146089Y303100D01*
G54D11*X140000Y314547D02*X132500D01*
Y308500D01*
X131000Y307000D01*
G54D12*X128000D01*
X125000Y310000D01*
X146089Y303100D02*X122800D01*
G54D11*X131000Y299200D02*X157800D01*
G54D12*X146100Y303100D02*X151000Y308000D01*
X157000D01*
X159000Y306000D02*X157000Y308000D01*
G54D11*X127205Y334429D02*X140118D01*
X127205Y336988D02*X139299D01*
X127205Y339547D02*X132106D01*
X140118Y334429D02*X142047Y332500D01*
X139299Y336988D02*X141870Y339559D01*
X122047Y339547D02*X120000Y337500D01*
Y325000D01*
X127500D02*X132500D01*
X135984Y328484D01*
X127205Y329311D02*X126811D01*
X125000Y327500D01*
X182047Y311358D02*Y297047D01*
X180000Y305000D02*Y296000D01*
X182047Y292047D02*Y297953D01*
X180000Y296000D02*X177000Y293000D01*
X173000D01*
X176142Y303142D02*X173000Y300000D01*
X182047Y292500D02*Y292047D01*
X178110Y310571D02*Y306890D01*
X176142Y310571D02*Y303142D01*
X187000Y319000D02*X183000Y323000D01*
X180079Y315921D02*X180000Y316000D01*
X180079Y310571D02*Y315921D01*
X191500Y316000D02*X191890Y315610D01*
X180000Y316000D02*X191500D01*
X191890Y310768D02*Y315610D01*
X191890D01*
X185984Y301516D02*Y311358D01*
X193858Y310571D02*Y305142D01*
X186000Y310555D02*X185984Y310571D01*
X193858Y305142D02*X194000Y305000D01*
X205000Y308000D02*Y294000D01*
X197500Y307500D02*Y297500D01*
X195000Y295000D01*
X195827Y310571D02*Y309173D01*
X197500Y307500D01*
X189921Y310571D02*Y295079D01*
X184016Y311358D02*Y286516D01*
X187953Y310571D02*Y292047D01*
X195000Y290000D02*X197500D01*
X192500Y275000D02*Y277500D01*
X197000Y282000D01*
X189921Y295079D02*X195000Y290000D01*
X186000Y302000D02*Y285000D01*
X182500Y281500D01*
X187953Y281047D02*X188000Y281000D01*
X187953Y291953D02*Y281953D01*
X187000Y281000D01*
X178110Y306890D02*X180000Y305000D01*
X167953Y306094D02*X171406D01*
X172500Y305000D01*
X157800Y299200D02*X158000Y299000D01*
X165000Y301000D02*X160000Y296000D01*
X184016Y286516D02*X172500Y275000D01*
X173000Y282000D02*Y283000D01*
X182500Y281500D02*Y275000D01*
X182047Y292047D02*X173000Y283000D01*
X162500Y275000D02*Y292500D01*
X164000Y294000D01*
X165000D01*
X160000Y296000D02*Y283000D01*
X159000Y282000D02*X160000Y283000D01*
G54D13*X262500Y345000D03*
X252500D03*
X262500Y355000D03*
X252500D03*
G54D14*G36*
X259500Y328000D02*Y322000D01*
X265500D01*
Y328000D01*
X259500D01*
G37*
G54D13*X252500Y325000D03*
X262500Y335000D03*
X252500D03*
G54D14*G36*
X119350Y373000D02*Y367000D01*
X125350D01*
Y373000D01*
X119350D01*
G37*
G54D13*X122350Y360000D03*
G54D14*G36*
X282000Y380500D02*Y374500D01*
X288000D01*
Y380500D01*
X282000D01*
G37*
G36*
X292000D02*Y374500D01*
X298000D01*
Y380500D01*
X292000D01*
G37*
G54D15*X134508Y344941D02*X135492D01*
X134508Y350059D02*X135492D01*
G54D16*X148953Y347197D02*Y346803D01*
X143047Y347197D02*Y346803D01*
X142047Y332697D02*Y332303D01*
X139803Y314547D02*X140197D01*
X139803Y320453D02*X140197D01*
X132303D02*X132697D01*
X132303Y314547D02*X132697D01*
X142047Y340197D02*Y339803D01*
X147953Y340197D02*Y339803D01*
Y332697D02*Y332303D01*
X147303Y314547D02*X147697D01*
X147303Y320453D02*X147697D01*
X152000Y303291D02*Y302898D01*
X146094Y303291D02*Y302898D01*
X129000Y293197D02*Y292803D01*
X123094Y293197D02*Y292803D01*
G54D17*X130700Y299200D02*X131300D01*
X130700Y307000D02*X131300D01*
X122500Y303100D02*X123100D01*
G54D18*X123465Y339547D02*X130945D01*
X123465Y336988D02*X130945D01*
X123465Y334429D02*X130945D01*
X123465Y331870D02*X130945D01*
X123465Y329311D02*X130945D01*
G54D19*X115000Y320453D02*Y318878D01*
Y330098D02*Y329902D01*
Y338957D02*Y338760D01*
Y349980D02*Y348406D01*
G54D16*X156500Y331697D02*Y331303D01*
X162406Y331697D02*Y331303D01*
X159803Y337382D02*X160197D01*
X159803Y343287D02*X160197D01*
X167756Y306094D02*X168150D01*
X167756Y312000D02*X168150D01*
X159803Y306594D02*X160197D01*
X159803Y312500D02*X160197D01*
X154803Y314547D02*X155197D01*
G54D20*X165453Y338327D02*X170689D01*
X165453Y336358D02*X170689D01*
X165453Y334390D02*X170689D01*
X165453Y332421D02*X170689D01*
X165453Y330453D02*X170689D01*
X165453Y328484D02*X170689D01*
X165453Y326516D02*X170689D01*
X165453Y324547D02*X170689D01*
X165453Y322579D02*X170689D01*
X165453Y320610D02*X170689D01*
X165453Y318642D02*X170689D01*
X165453Y316673D02*X170689D01*
G54D16*X154803Y320453D02*X155197D01*
G54D21*X162500Y277000D02*Y273000D01*
X172500Y277000D02*Y273000D01*
X182500Y277000D02*Y273000D01*
X192500Y277000D02*Y273000D01*
X202500Y277000D02*Y273000D01*
G54D22*X159586Y375393D02*Y374607D01*
G54D17*X187200Y380300D02*X187800D01*
X187200Y372500D02*X187800D01*
X195400Y376400D02*X196000D01*
G54D16*X192953Y365197D02*Y364803D01*
X187047Y365197D02*Y364803D01*
G54D23*X209900Y372500D02*X216200D01*
X209900Y367500D02*X216200D01*
X209900Y362500D02*X216200D01*
G54D20*X199311Y322579D02*X204547D01*
X199311Y324547D02*X204547D01*
X199311Y326516D02*X204547D01*
X199311Y328484D02*X204547D01*
X199311Y330453D02*X204547D01*
X199311Y332421D02*X204547D01*
X199311Y334390D02*X204547D01*
X199311Y336358D02*X204547D01*
X199311Y338327D02*X204547D01*
G54D23*X209900Y357500D02*X216200D01*
G54D20*X195827Y347047D02*Y341811D01*
X193858Y347047D02*Y341811D01*
X191890Y347047D02*Y341811D01*
X189921Y347047D02*Y341811D01*
X187953Y347047D02*Y341811D01*
X185984Y347047D02*Y341811D01*
X184016Y347047D02*Y341811D01*
X182047Y347047D02*Y341811D01*
X180079Y347047D02*Y341811D01*
X178110Y347047D02*Y341811D01*
X176142Y347047D02*Y341811D01*
X174173Y347047D02*Y341811D01*
G54D22*X159607Y366043D02*X160393D01*
X159607Y358957D02*X160393D01*
G54D16*X167000Y366197D02*Y365803D01*
G54D23*X151450Y358800D02*X153850D01*
X151450Y366200D02*X153850D01*
G54D22*X152500Y375393D02*Y374607D01*
G54D16*X145453Y375197D02*Y374803D01*
G54D15*X132008Y372559D02*X132992D01*
X132008Y367441D02*X132992D01*
G54D16*X129547Y380197D02*Y379803D01*
X135453Y380197D02*Y379803D01*
X139547Y375197D02*Y374803D01*
G54D23*X141150Y366200D02*X143550D01*
X141150Y362500D02*X143550D01*
X141150Y358800D02*X143550D01*
G54D16*X132303Y355000D02*X132697D01*
X132303Y360906D02*X132697D01*
X179803Y367047D02*X180197D01*
X179803Y372953D02*X180197D01*
X175000Y380650D02*Y380256D01*
X180906Y380650D02*Y380256D01*
X172906Y366197D02*Y365803D01*
X168858Y348197D02*Y347803D01*
X162953Y348197D02*Y347803D01*
X166803Y354047D02*X167197D01*
X166803Y359953D02*X167197D01*
X180953Y361197D02*Y360803D01*
X175047Y361197D02*Y360803D01*
G54D24*X265433Y274000D02*X269567D01*
X281771D02*X285905D01*
X265433Y285024D02*X269567D01*
X281771D02*X285905D01*
G54D16*X257102Y273988D02*X261236D01*
X257102Y285012D02*X261236D01*
X303803Y284047D02*X304197D01*
X303803Y289953D02*X304197D01*
G54D25*X288811Y293544D02*X293417D01*
X288811Y296103D02*X293417D01*
X288811Y298662D02*X293417D01*
X288811Y301221D02*X293417D01*
X265583D02*X270189D01*
X265583Y298662D02*X270189D01*
X265583Y296103D02*X270189D01*
X265583Y293544D02*X270189D01*
G54D16*X305953Y296197D02*Y295803D01*
Y301197D02*Y300803D01*
X300047Y296197D02*Y295803D01*
Y306197D02*Y305803D01*
Y301197D02*Y300803D01*
X305953Y311197D02*Y310803D01*
Y306197D02*Y305803D01*
X300047Y311197D02*Y310803D01*
G54D25*X288811Y311456D02*X293417D01*
X288811Y303779D02*X293417D01*
X265583D02*X270189D01*
X288811Y306338D02*X293417D01*
X288811Y308897D02*X293417D01*
X265583Y306338D02*X270189D01*
X265583Y311456D02*X270189D01*
X265583Y308897D02*X270189D01*
G54D26*X251437Y312874D02*Y308858D01*
X249469Y312874D02*Y308858D01*
X247500Y312874D02*Y308858D01*
X245531Y312874D02*Y308858D01*
X243563Y312874D02*Y308858D01*
X251437Y301142D02*Y297126D01*
X249469Y301142D02*Y297126D01*
X247500Y301142D02*Y297126D01*
X251358Y303031D02*X255374D01*
X251358Y305000D02*X255374D01*
X251358Y306969D02*X255374D01*
X239626Y305000D02*X243642D01*
X239626Y306969D02*X243642D01*
X245531Y301142D02*Y297126D01*
X243563Y301142D02*Y297126D01*
X239626Y303031D02*X243642D01*
G54D16*X245000Y292697D02*Y292303D01*
X239094Y292697D02*Y292303D01*
X240764Y273988D02*X244898D01*
X240764Y285012D02*X244898D01*
X298406Y340197D02*Y339803D01*
X292500Y340197D02*Y339803D01*
X297953Y332697D02*Y332303D01*
X292047Y332697D02*Y332303D01*
G54D23*X276700Y338600D02*X278300D01*
X276700Y334700D02*X278300D01*
X284900D02*X286500D01*
G54D16*X270803Y333000D02*X271197D01*
X270803Y327094D02*X271197D01*
X277303Y350000D02*X277697D01*
X277303Y355906D02*X277697D01*
G54D23*X276700Y342500D02*X278300D01*
G54D16*X272303Y354547D02*X272697D01*
X272303Y360453D02*X272697D01*
G54D23*X284900Y338600D02*X286500D01*
X284900Y342500D02*X286500D01*
G54D27*X283406Y363839D02*X286358D01*
X283406Y361280D02*X286358D01*
X283406Y358720D02*X286358D01*
X283406Y356161D02*X286358D01*
G54D16*X302303Y354547D02*X302697D01*
X302303Y360453D02*X302697D01*
G54D27*X293642Y356161D02*X296594D01*
X293642Y358720D02*X296594D01*
X293642Y361280D02*X296594D01*
X293642Y363839D02*X296594D01*
G54D16*X292500Y347697D02*Y347303D01*
X298406Y347697D02*Y347303D01*
X304803Y373406D02*X305197D01*
X304803Y367500D02*X305197D01*
X274803Y376811D02*X275197D01*
X257953Y370197D02*Y369803D01*
X252047Y370197D02*Y369803D01*
X262500Y375197D02*Y374803D01*
X268406Y375197D02*Y374803D01*
X274803Y370906D02*X275197D01*
G54D23*X228800Y357500D02*X245500D01*
X228800Y362500D02*X245500D01*
X228800Y367500D02*X245500D01*
X228800Y372500D02*X245500D01*
G54D16*X226547Y327697D02*Y327303D01*
X232453Y327697D02*Y327303D01*
X214547Y327697D02*Y327303D01*
X220453Y327697D02*Y327303D01*
X234803Y315906D02*X235197D01*
X234803Y310000D02*X235197D01*
X210803Y309000D02*X211197D01*
X210803Y314906D02*X211197D01*
G54D23*X226400Y311000D02*X228000D01*
X218200Y314900D02*X219800D01*
X218200Y311000D02*X219800D01*
X226400Y314900D02*X228000D01*
X226400Y318800D02*X228000D01*
X218200D02*X219800D01*
G54D16*X213906Y304197D02*Y303803D01*
X208000Y304197D02*Y303803D01*
G54D20*X199311Y316673D02*X204547D01*
X199311Y318642D02*X204547D01*
X199311Y320610D02*X204547D01*
G54D18*X216772Y293441D02*X221102D01*
X208898D02*X213228D01*
X216772Y296000D02*X221102D01*
X208898D02*X213228D01*
X216772Y298559D02*X221102D01*
X208898D02*X213228D01*
G54D20*X174173Y313189D02*Y307953D01*
X176142Y313189D02*Y307953D01*
X178110Y313189D02*Y307953D01*
X180079Y313189D02*Y307953D01*
X182047Y313189D02*Y307953D01*
G54D28*X170000Y293000D02*X176000D01*
X170000Y300000D02*X176000D01*
G54D20*X184016Y313189D02*Y307953D01*
X185984Y313189D02*Y307953D01*
X187953Y313189D02*Y307953D01*
X189921Y313189D02*Y307953D01*
X191890Y313189D02*Y307953D01*
X193858Y313189D02*Y307953D01*
X195827Y313189D02*Y307953D01*
G54D29*X229500Y353000D03*
X226000Y361000D03*
G54D13*X227500Y370000D03*
G54D29*X220000Y364000D03*
X235000Y340000D03*
X290000D03*
X300000Y335000D03*
X273600Y338600D03*
X289000Y335000D03*
X272500Y352500D03*
X244000Y351000D03*
X285000Y352500D03*
X305000Y365000D03*
X302500Y372500D03*
X282000Y345000D03*
X261000Y370000D03*
X255766Y284096D03*
X274000Y273500D03*
X248819Y283790D03*
X240000Y278000D03*
X246000Y279500D03*
X202500Y282500D03*
X197000Y282000D03*
X187000Y281000D03*
X222500Y282500D03*
X209000Y286000D03*
X173000Y282000D03*
X197500Y290000D03*
X230500Y327500D03*
X242500Y330000D03*
X288000Y327000D03*
X281000D03*
X271000Y324000D03*
X232500Y317500D03*
X233000Y304000D03*
X247500Y305000D03*
X240000Y319000D03*
X196000Y317000D03*
X255000Y295000D03*
X286000Y296000D03*
X195000Y295000D03*
X235000Y292500D03*
X235500Y297500D03*
X217500Y287500D03*
X230000Y293000D03*
X228000Y299000D03*
X219000Y301000D03*
X250000Y292500D03*
X268000Y291000D03*
X255000Y300000D03*
X275000Y310000D03*
X277000Y318000D03*
X286000Y312000D03*
X307000Y282000D03*
X297500Y285000D03*
X152500Y337500D03*
X158500Y339000D03*
G54D30*X154500Y331500D03*
G54D29*X160000Y350000D03*
X151000Y347000D03*
X138000Y372000D03*
G54D13*X147500Y362500D03*
X145000Y352500D03*
G54D29*X127500Y380000D03*
X207000Y372000D03*
G54D30*X189000Y353500D03*
X187000Y350000D03*
X203000Y346000D03*
G54D29*X207000Y357000D03*
X176000Y366000D03*
G54D13*X167500Y372500D03*
G54D29*X184000Y362000D03*
X173000Y360000D03*
X170000Y354000D03*
G54D30*X201000Y342000D03*
G54D29*X192000Y333000D03*
X187000Y338000D03*
G54D30*X174000Y330000D03*
Y335500D03*
G54D29*X172000Y343000D03*
X167000Y348000D03*
X172500Y305000D03*
X190000Y319000D03*
X186000Y326000D03*
X193858Y305142D03*
X199000Y313744D03*
X163500Y317000D03*
X158000Y307000D03*
X151500Y314000D03*
X125000Y327500D03*
G54D13*Y310000D03*
G54D29*X127500Y320000D03*
G54D13*X132000Y293000D03*
G54D29*X154000Y304000D03*
X165000Y294000D03*
X158000Y299000D03*
X165000Y301000D03*
X159000Y282000D03*
G54D31*G54D32*G54D31*G54D33*G54D31*G54D32*G54D31*G54D33*G54D31*G54D32*G54D31*G54D33*G54D31*G54D33*G54D31*G54D32*G54D31*G54D32*G54D31*G54D34*M02*
