M48
INCH
T49C0.015
T48C0.020
T47C0.035
T46C0.038
%
T49
X015450Y033150
X017400Y033550
X017400Y033000
X018700Y035000
X018900Y035350
X020100Y034200
X020300Y034600
T48
X013000Y037700
X014250Y032750
X014400Y037500
X015100Y034700
X015250Y033750
X015400Y031500
X015400Y030400
X015700Y030100
X015800Y030700
X015850Y033900
X015900Y031200
X016000Y035000
X016350Y031700
X016500Y030100
X016700Y034800
X017000Y035400
X017200Y034300
X017300Y036000
X017600Y036600
X018400Y036200
X018600Y032600
X018700Y033800
X019000Y031900
X019100Y029200
X019200Y033300
X019386Y030514
X019500Y031700
X020100Y029700
X020700Y037200
X020700Y035700
X020800Y029700
X020900Y030200
X021400Y029100
X021628Y031928
X022000Y036400
X022400Y029600
X022600Y036100
X022950Y035300
X023273Y032612
X023357Y030871
X023400Y031600
X023500Y034000
X023700Y035100
X023800Y028650
X023900Y032600
X024000Y034000
X024300Y031500
X024800Y035000
X025500Y037300
X026000Y028750
X026700Y030900
X027100Y035800
X027200Y031700
X027400Y027350
X027500Y036500
X027500Y030500
X028300Y030500
X028800Y029700
T47
X012100Y035800
X013200Y029300
X013250Y032500
X013750Y034500
X014000Y032250
X014600Y031100
X014750Y036250
X015400Y035300
X016750Y037250
X022750Y037000
X025600Y036000
T46
X012750Y037000
X012750Y036000
X013500Y028000
X013900Y029000
X014500Y028000
X014900Y029000
X015500Y028000
X016750Y028000
X017750Y028000
X018750Y028000
X019750Y028000
X021250Y028000
X022250Y028000
X023250Y028000
X025250Y034500
X025250Y033500
X025250Y032500
X025250Y031500
X026250Y034500
X026250Y033500
X026250Y032500
X026250Y031500
X027750Y035250
X027750Y034250
X027750Y033250
X027750Y032250
X027750Y031250
X028250Y037500
X028250Y036500
X028750Y035250
X028750Y034250
X028750Y033250
X028750Y032250
X028750Y031250
M30
