M48
INCH
T44C0.035
T43C0.020
T42C0.038
%
T43
X012100Y029000
X013300Y037700
X014200Y037450
X014250Y032750
X014800Y032100
X015250Y034250
X015250Y033750
X015500Y037450
X015500Y033100
X015900Y030900
X016400Y031700
X016500Y035250
X017400Y033100
X017500Y036000
X017600Y033500
X018500Y036200
X018600Y033550
X018700Y034850
X019000Y035250
X019200Y032600
X019400Y031800
X019450Y033000
X019600Y032300
X020300Y034200
X020400Y030400
X020400Y029600
X020500Y034600
X020700Y037200
X021800Y035700
X021840Y031310
X022000Y036400
X022000Y029750
X022500Y035400
X022600Y036100
X022750Y030250
X023100Y032600
X023500Y034000
X023600Y031700
X023700Y035100
X023900Y032600
X024100Y030900
X024200Y029800
X024300Y035200
X024300Y034000
X025250Y037000
X026000Y032000
X027100Y035800
X027300Y032800
X027300Y030200
X027500Y036500
X027500Y028500
X027800Y029300
X028300Y030500
T44
X013250Y032500
X013750Y034500
X014000Y032250
X014750Y036250
X015000Y035300
X016500Y034250
X016750Y036250
X017600Y036700
X021800Y030500
X023750Y037000
X023750Y030250
X026250Y037000
T42
X012750Y037000
X012750Y036000
X012750Y031050
X012750Y030050
X013500Y029000
X014500Y029000
X015500Y029000
X016750Y029000
X017750Y029000
X018750Y029000
X019750Y029000
X021250Y029000
X022250Y029000
X023250Y029000
X025500Y034500
X025500Y033500
X025500Y032500
X025500Y031500
X026500Y034500
X026500Y033500
X026500Y032500
X026500Y031500
X027750Y035250
X027750Y034250
X027750Y033250
X027750Y032250
X027750Y031250
X028250Y037500
X028250Y036500
X028750Y035250
X028750Y034250
X028750Y033250
X028750Y032250
X028750Y031250
M30
