G04 start of page 9 for group -4078 idx -4078 *
G04 Title: riffle, bottomsilk *
G04 Creator: pcb 1.99z *
G04 CreationDate: Fri 28 Mar 2014 07:04:23 PM GMT UTC *
G04 For: ben *
G04 Format: Gerber/RS-274X *
G04 PCB-Dimensions (mil): 6000.00 5000.00 *
G04 PCB-Coordinate-Origin: lower left *
%MOIN*%
%FSLAX25Y25*%
%LNBOTTOMSILK*%
%ADD72C,0.0079*%
%ADD71C,0.0060*%
%ADD70C,0.0001*%
G54D70*G36*
X278557Y275930D02*X276669D01*
X276132Y275984D01*
X275660Y276147D01*
X275280Y276391D01*
X275041Y276711D01*
X274759Y277177D01*
X274629Y277752D01*
X274570Y278320D01*
X274542Y279207D01*
Y279923D01*
X273218D01*
Y281268D01*
X274542D01*
X275888Y286607D01*
Y281268D01*
X277212D01*
Y279923D01*
X275888D01*
Y278989D01*
X275920Y278241D01*
X276040Y277644D01*
X276110Y277519D01*
X276207Y277425D01*
X276350Y277355D01*
X276647Y277253D01*
X278557D01*
Y275930D01*
G37*
G36*
X290630Y283150D02*X290474Y281936D01*
X289839Y280948D01*
X289290Y280502D01*
X288786Y281674D01*
X288959Y281929D01*
X289099Y282130D01*
X289236Y282451D01*
X289307Y282629D01*
X285335D01*
X285379Y282379D01*
X285466Y282184D01*
X285645Y281972D01*
X285986Y281674D01*
X286252Y281566D01*
X286482Y281469D01*
X286911Y281334D01*
X287462Y281305D01*
X288124Y281495D01*
X288786Y281674D01*
X289290Y280502D01*
X288699Y280318D01*
X288075Y280171D01*
X287450Y280027D01*
X286675Y280025D01*
X285921Y280215D01*
X285308Y280513D01*
X284923Y280893D01*
X284478Y281414D01*
X284096Y282027D01*
X283963Y282607D01*
X283968Y283367D01*
X283984Y284116D01*
X284194Y284833D01*
X284523Y285356D01*
X285010Y285754D01*
X285531Y286145D01*
X286116Y286421D01*
X286854Y286584D01*
X287853Y286644D01*
X290630D01*
Y285298D01*
X290283Y285376D01*
X289827Y285466D01*
X289480Y285488D01*
X289274Y285480D01*
X288872Y285479D01*
X288493Y285488D01*
X288135D01*
X287936Y285485D01*
X287281Y285406D01*
X286770Y285277D01*
X286244Y285154D01*
X285857Y284977D01*
X285595Y284858D01*
X285362Y284707D01*
X285214Y284453D01*
X285105Y283956D01*
X290630Y283974D01*
Y283150D01*
G37*
G36*
X280770Y275908D02*Y286585D01*
X282093D01*
Y275908D01*
X280770D01*
G37*
G36*
X271470Y275930D02*X269582D01*
X269045Y275984D01*
X268573Y276147D01*
X268193Y276391D01*
X267955Y276711D01*
X267673Y277177D01*
X267466Y277870D01*
X267456Y279207D01*
Y279923D01*
X266132D01*
Y281268D01*
X267456D01*
Y286607D01*
X268801D01*
Y281268D01*
X270125D01*
Y279923D01*
X268801D01*
Y278989D01*
X268834Y278241D01*
X268953Y277644D01*
X269024Y277519D01*
X269104Y277456D01*
X269240Y277361D01*
X269561Y277253D01*
X271470D01*
Y275930D01*
G37*
G36*
X242694Y296014D02*X242981Y297218D01*
X243215Y297305D01*
X247501Y296453D01*
X247398Y295200D01*
X247235Y294006D01*
X248238Y293768D01*
X249437Y293551D01*
X249237Y292558D01*
X248949Y291153D01*
X249014Y290979D01*
X249492Y290870D01*
X249985Y290756D01*
X250099Y290529D01*
X248819Y283790D01*
X247533Y277318D01*
X246898Y277394D01*
X246296Y277388D01*
X246079Y276721D01*
X246063Y276531D01*
X245998Y276249D01*
X246535Y275913D01*
X249215Y275137D01*
X251434Y274904D01*
X253566Y275115D01*
X256306Y275913D01*
X259540Y276884D01*
X261959Y277188D01*
X263299Y277177D01*
X264623Y277003D01*
X268095Y276016D01*
X270623Y275251D01*
X273548Y274860D01*
X273971Y274784D01*
X274047Y274719D01*
X273944Y274660D01*
X274047Y274562D01*
X273993Y274475D01*
X273521Y274464D01*
X271969Y274643D01*
X268616Y275598D01*
X265610Y276466D01*
X264401Y276683D01*
X263278Y276765D01*
X262171Y276699D01*
X260988Y276493D01*
X258091Y275658D01*
X255015Y274746D01*
X252741Y274508D01*
X251401Y274518D01*
X250143Y274654D01*
X247278Y275414D01*
X245906Y275875D01*
X245830Y275468D01*
X245748Y275197D01*
X245564Y275077D01*
X244430Y275245D01*
X243475Y275332D01*
X243177Y274128D01*
X242954Y273173D01*
X242835Y273043D01*
X242650Y273021D01*
X238353Y273889D01*
X238511Y275175D01*
X238750Y276379D01*
X238505D01*
X235250Y275327D01*
X233574Y274909D01*
X232901Y274822D01*
X232613D01*
X232630Y275202D01*
X233156Y275311D01*
X236498Y276070D01*
X238033Y276515D01*
X237122Y276694D01*
X236851Y276743D01*
X236639Y276802D01*
X236541Y277020D01*
X236666Y278099D01*
X236861Y279238D01*
X236384Y279461D01*
X235793Y279672D01*
X236932Y286123D01*
X238245Y292726D01*
X238402Y292959D01*
X238961Y292937D01*
X239601Y292862D01*
X239818Y294017D01*
X240024Y294885D01*
X240209Y295238D01*
X242227Y294950D01*
X242374D01*
X242477Y295075D01*
X242694Y296014D01*
G37*
G36*
X261011Y275930D02*Y277253D01*
X262335D01*
Y275930D01*
X261011D01*
G37*
G36*
Y279923D02*Y286607D01*
X262335D01*
Y279923D01*
X261011D01*
G37*
G36*
X257604Y281268D02*Y279923D01*
X257062D01*
X256660Y279977D01*
X256264Y280107D01*
X255950Y280226D01*
X255781Y280270D01*
X255472Y280509D01*
X255147Y280829D01*
X254924Y281116D01*
X254935Y281268D01*
Y279923D01*
X253611D01*
Y286607D01*
X254935D01*
Y283265D01*
X254946Y282842D01*
X255000Y282500D01*
X255136Y282163D01*
X255391Y281789D01*
X255635Y281615D01*
X255928Y281545D01*
X256780Y281268D01*
X257604D01*
G37*
G54D71*X260163Y301518D02*Y304598D01*
X261703D01*
X263782Y303058D02*X264167Y303443D01*
X263012Y303058D02*X263782D01*
X262627Y303443D02*X263012Y303058D01*
X262627Y303443D02*Y304213D01*
X263012Y304598D01*
X264167Y303058D02*Y304213D01*
X264552Y304598D01*
X263012D02*X263782D01*
X264167Y304213D01*
X265476Y303058D02*Y304213D01*
X265861Y304598D01*
X266631D01*
X267016Y304213D01*
Y303058D02*Y304213D01*
X268325Y303443D02*Y304598D01*
Y303443D02*X268710Y303058D01*
X269480D01*
X267940D02*X268325Y303443D01*
X271559Y303058D02*X271944Y303443D01*
X270789Y303058D02*X271559D01*
X270404Y303443D02*X270789Y303058D01*
X270404Y303443D02*Y304213D01*
X270789Y304598D01*
X271944Y303058D02*Y304213D01*
X272329Y304598D01*
X270789D02*X271559D01*
X271944Y304213D01*
X275024Y301518D02*Y304598D01*
X276025Y301518D02*X276564Y302057D01*
Y304059D01*
X276025Y304598D02*X276564Y304059D01*
X274639Y304598D02*X276025D01*
X274639Y301518D02*X276025D01*
X277488Y302288D02*Y302365D01*
Y303443D02*Y304598D01*
X278643D02*X279798D01*
X278258Y304213D02*X278643Y304598D01*
X278258Y303443D02*Y304213D01*
Y303443D02*X278643Y303058D01*
X279413D01*
X279798Y303443D01*
X278258Y303828D02*X279798D01*
Y303443D02*Y303828D01*
X281107Y301518D02*Y304213D01*
X281492Y304598D01*
X280722Y302673D02*X281492D01*
X282262Y303058D02*X283802D01*
X282262Y304598D02*X283802Y303058D01*
X282262Y304598D02*X283802D01*
X260084Y308800D02*X261604D01*
X261984Y308420D01*
Y307508D02*Y308420D01*
X261604Y307128D02*X261984Y307508D01*
X260464Y307128D02*X261604D01*
X260464Y305760D02*Y308800D01*
X260084Y305760D02*X261604D01*
X261984Y306140D01*
Y306748D01*
X261604Y307128D02*X261984Y306748D01*
X263276Y308800D02*X264416D01*
X262896Y308420D02*X263276Y308800D01*
X262896Y307660D02*Y308420D01*
Y307660D02*X263276Y307280D01*
X264036D01*
X264416Y307660D01*
X262896Y308040D02*X264416D01*
Y307660D02*Y308040D01*
X265708Y307660D02*Y308800D01*
Y307660D02*X266088Y307280D01*
X266468D01*
X266848Y307660D01*
Y308800D01*
X265328Y307280D02*X265708Y307660D01*
X270648Y305760D02*X271028Y306140D01*
X269508Y305760D02*X270648D01*
X269128Y306140D02*X269508Y305760D01*
X269128Y306140D02*Y308420D01*
X269508Y308800D01*
X270648D01*
X271028Y308420D01*
Y307660D02*Y308420D01*
X270648Y307280D02*X271028Y307660D01*
X269888Y307280D02*X270648D01*
X273080D02*X273460Y307660D01*
X272320Y307280D02*X273080D01*
X271940Y307660D02*X272320Y307280D01*
X271940Y307660D02*Y308420D01*
X272320Y308800D01*
X273460Y307280D02*Y308420D01*
X273840Y308800D01*
X272320D02*X273080D01*
X273460Y308420D01*
X275132Y307660D02*Y308800D01*
Y307660D02*X275512Y307280D01*
X275892D01*
X276272Y307660D01*
Y308800D01*
Y307660D02*X276652Y307280D01*
X277032D01*
X277412Y307660D01*
Y308800D01*
X274752Y307280D02*X275132Y307660D01*
X279464Y307280D02*X279844Y307660D01*
X278704Y307280D02*X279464D01*
X278324Y307660D02*X278704Y307280D01*
X278324Y307660D02*Y308420D01*
X278704Y308800D01*
X279844Y307280D02*Y308420D01*
X280224Y308800D01*
X278704D02*X279464D01*
X279844Y308420D01*
X281516Y307660D02*Y308800D01*
Y307660D02*X281896Y307280D01*
X282656D01*
X281136D02*X281516Y307660D01*
X283568Y306520D02*Y306596D01*
Y307660D02*Y308800D01*
X258084Y293727D02*Y296767D01*
X257704D02*X258084Y296387D01*
X256944Y296767D02*X257704D01*
X256564Y296387D02*X256944Y296767D01*
X256564Y295627D02*Y296387D01*
Y295627D02*X256944Y295247D01*
X257704D01*
X258084Y295627D01*
X259376Y296767D02*X260516D01*
X258996Y296387D02*X259376Y296767D01*
X258996Y295627D02*Y296387D01*
Y295627D02*X259376Y295247D01*
X260136D01*
X260516Y295627D01*
X258996Y296007D02*X260516D01*
Y295627D02*Y296007D01*
X261808Y296767D02*X262948D01*
X263328Y296387D01*
X262948Y296007D02*X263328Y296387D01*
X261808Y296007D02*X262948D01*
X261428Y295627D02*X261808Y296007D01*
X261428Y295627D02*X261808Y295247D01*
X262948D01*
X263328Y295627D01*
X261428Y296387D02*X261808Y296767D01*
X264240Y294487D02*Y294563D01*
Y295627D02*Y296767D01*
X266140Y295247D02*X266520Y295627D01*
X265380Y295247D02*X266140D01*
X265000Y295627D02*X265380Y295247D01*
X265000Y295627D02*Y296387D01*
X265380Y296767D01*
X266140D01*
X266520Y296387D01*
X265000Y297527D02*X265380Y297907D01*
X266140D01*
X266520Y297527D01*
Y295247D02*Y297527D01*
X267812Y295627D02*Y296767D01*
Y295627D02*X268192Y295247D01*
X268572D01*
X268952Y295627D01*
Y296767D01*
X267432Y295247D02*X267812Y295627D01*
X270244Y296767D02*X271384D01*
X269864Y296387D02*X270244Y296767D01*
X269864Y295627D02*Y296387D01*
Y295627D02*X270244Y295247D01*
X271004D01*
X271384Y295627D01*
X269864Y296007D02*X271384D01*
Y295627D02*Y296007D01*
X273816Y293727D02*Y296767D01*
X273436D02*X273816Y296387D01*
X272676Y296767D02*X273436D01*
X272296Y296387D02*X272676Y296767D01*
X272296Y295627D02*Y296387D01*
Y295627D02*X272676Y295247D01*
X273436D01*
X273816Y295627D01*
X276096Y293727D02*Y296767D01*
Y296387D02*X276476Y296767D01*
X277236D01*
X277616Y296387D01*
Y295627D02*Y296387D01*
X277236Y295247D02*X277616Y295627D01*
X276476Y295247D02*X277236D01*
X276096Y295627D02*X276476Y295247D01*
X278528D02*Y296387D01*
X278908Y296767D01*
X280048Y295247D02*Y297527D01*
X279668Y297907D02*X280048Y297527D01*
X278908Y297907D02*X279668D01*
X278528Y297527D02*X278908Y297907D01*
Y296767D02*X279668D01*
X280048Y296387D01*
G54D72*X175453Y304138D02*X226634D01*
Y355319D02*Y304138D01*
X175453Y355319D02*X226634D01*
X175453D02*Y304138D01*
G54D71*X178512Y356386D02*X179012Y356886D01*
X177012Y356386D02*X178512D01*
X176512Y356886D02*X177012Y356386D01*
X176512Y356886D02*Y357886D01*
X177012Y358386D01*
X178512D01*
X179012Y358886D01*
Y359886D01*
X178512Y360386D02*X179012Y359886D01*
X177012Y360386D02*X178512D01*
X176512Y359886D02*X177012Y360386D01*
X180712Y356386D02*Y360386D01*
X182012Y356386D02*X182712Y357086D01*
Y359686D01*
X182012Y360386D02*X182712Y359686D01*
X180212Y360386D02*X182012D01*
X180212Y356386D02*X182012D01*
X183912Y360386D02*X185912D01*
X187812D02*X189112D01*
X187112Y359686D02*X187812Y360386D01*
X187112Y357086D02*Y359686D01*
Y357086D02*X187812Y356386D01*
X189112D01*
X190312Y357386D02*Y360386D01*
Y357386D02*X191012Y356386D01*
X192112D01*
X192812Y357386D01*
Y360386D01*
X190312Y358386D02*X192812D01*
X194012Y356386D02*X196012D01*
X196512Y356886D01*
Y357886D01*
X196012Y358386D02*X196512Y357886D01*
X194512Y358386D02*X196012D01*
X194512Y356386D02*Y360386D01*
X195312Y358386D02*X196512Y360386D01*
X198212Y356386D02*Y360386D01*
X199512Y356386D02*X200212Y357086D01*
Y359686D01*
X199512Y360386D02*X200212Y359686D01*
X197712Y360386D02*X199512D01*
X197712Y356386D02*X199512D01*
M02*
