G04 start of page 8 for group -4079 idx -4079 *
G04 Title: riffle, topsilk *
G04 Creator: pcb 20140316 *
G04 CreationDate: Thu 16 Oct 2014 05:32:55 AM GMT UTC *
G04 For: ben *
G04 Format: Gerber/RS-274X *
G04 PCB-Dimensions (mil): 6000.00 5000.00 *
G04 PCB-Coordinate-Origin: lower left *
%MOIN*%
%FSLAX25Y25*%
%LNTOPSILK*%
%ADD86C,0.0080*%
%ADD85C,0.0060*%
%ADD84C,0.0100*%
%ADD83C,0.0001*%
G54D83*G36*
X216226Y347801D02*X215402D01*
X214550Y347524D01*
X214257Y347454D01*
X214013Y347280D01*
X213758Y346906D01*
X213622Y346569D01*
X213568Y346227D01*
X213557Y345804D01*
Y342462D01*
X212233D01*
Y349146D01*
X213557D01*
Y347801D01*
X213546Y347953D01*
X213769Y348240D01*
X214094Y348560D01*
X214403Y348799D01*
X214572Y348843D01*
X214886Y348962D01*
X215282Y349092D01*
X215684Y349146D01*
X216226D01*
Y347801D01*
G37*
G36*
X203694Y334427D02*X203477Y335366D01*
X203374Y335491D01*
X203227D01*
X201209Y335203D01*
X201024Y335556D01*
X200818Y336424D01*
X200601Y337579D01*
X199961Y337504D01*
X199402Y337482D01*
X199245Y337715D01*
X197932Y344318D01*
X196793Y350769D01*
X197384Y350980D01*
X197861Y351203D01*
X197666Y352342D01*
X197541Y353421D01*
X197639Y353639D01*
X197851Y353698D01*
X198122Y353747D01*
X199033Y353926D01*
X197498Y354371D01*
X194156Y355130D01*
X193630Y355239D01*
X193613Y355619D01*
X193901D01*
X194574Y355532D01*
X196250Y355114D01*
X199505Y354062D01*
X199750D01*
X199511Y355266D01*
X199353Y356552D01*
X203650Y357420D01*
X203835Y357398D01*
X203954Y357268D01*
X204177Y356313D01*
X204475Y355109D01*
X205430Y355196D01*
X206564Y355364D01*
X206748Y355244D01*
X206830Y354973D01*
X206906Y354566D01*
X208278Y355027D01*
X211143Y355787D01*
X212401Y355923D01*
X213741Y355933D01*
X216015Y355695D01*
X219091Y354783D01*
X221988Y353948D01*
X223171Y353742D01*
X224278Y353676D01*
X225401Y353758D01*
X226610Y353975D01*
X229616Y354843D01*
X232969Y355798D01*
X234521Y355977D01*
X234993Y355966D01*
X235047Y355879D01*
X234944Y355781D01*
X235047Y355722D01*
X234971Y355657D01*
X234548Y355581D01*
X231623Y355190D01*
X229095Y354425D01*
X225623Y353438D01*
X224299Y353264D01*
X222959Y353253D01*
X220540Y353557D01*
X217306Y354528D01*
X214566Y355326D01*
X212434Y355537D01*
X210215Y355304D01*
X207535Y354528D01*
X206998Y354192D01*
X207063Y353910D01*
X207079Y353720D01*
X207296Y353053D01*
X207898Y353047D01*
X208533Y353123D01*
X211099Y339912D01*
X210985Y339685D01*
X210492Y339571D01*
X210014Y339462D01*
X209949Y339288D01*
X210237Y337883D01*
X210437Y336890D01*
X209238Y336673D01*
X208235Y336435D01*
X208398Y335241D01*
X208501Y333988D01*
X204215Y333136D01*
X203981Y333223D01*
X203694Y334427D01*
G37*
G36*
X218133Y349146D02*X219457D01*
Y342462D01*
X218133D01*
Y349146D01*
G37*
G36*
X139865Y300221D02*X141466D01*
X141547Y300150D01*
X141575Y300005D01*
X141601Y299869D01*
X141845Y298545D01*
X141927Y298453D01*
X141993Y298431D01*
X142947Y298041D01*
Y298035D01*
X143001Y298013D01*
X143126Y298024D01*
X144227Y298778D01*
X144341Y298860D01*
X144466Y298946D01*
X144575Y298935D01*
X144677Y298827D01*
X144781Y298730D01*
X145704Y297807D01*
X145713Y297699D01*
X145627Y297574D01*
X145551Y297455D01*
X144808Y296381D01*
X144802Y296262D01*
X144830Y296196D01*
X145068Y295714D01*
X145252Y295203D01*
X145280Y295149D01*
X145372Y295067D01*
X146636Y294834D01*
X146777Y294807D01*
X146925Y294780D01*
X146988Y294699D01*
Y293098D01*
X146925Y293017D01*
X146777Y292989D01*
X146636Y292963D01*
X145411Y292735D01*
X145318Y292653D01*
X145302Y292616D01*
Y292605D01*
X145115Y292041D01*
X144862Y291509D01*
X144856Y291498D01*
X144845Y291470D01*
X144851Y291352D01*
X145551Y290337D01*
X145627Y290223D01*
X145713Y290098D01*
X145704Y289989D01*
X145600Y289881D01*
X145497Y289784D01*
X144575Y288862D01*
X144466Y288851D01*
X144341Y288937D01*
X144227Y289013D01*
X143234Y289691D01*
X143115Y289696D01*
X142909Y289582D01*
X142784Y289517D01*
X142573Y289409D01*
X142520Y289403D01*
X142486Y289442D01*
X142394Y289664D01*
X142340Y289789D01*
X141477Y291873D01*
X141423Y292002D01*
X141363Y292149D01*
X141395Y292252D01*
X141531Y292334D01*
X141618Y292398D01*
X141954Y292676D01*
X142209Y293025D01*
X142373Y293434D01*
X142431Y293885D01*
X142294Y294574D01*
X141916Y295138D01*
X141356Y295519D01*
X140669Y295659D01*
X139980Y295519D01*
X139418Y295138D01*
X139038Y294574D01*
X138900Y293885D01*
X138958Y293434D01*
X139122Y293025D01*
X139379Y292676D01*
X139713Y292398D01*
X139801Y292334D01*
X139936Y292252D01*
X139969Y292149D01*
X139909Y292002D01*
X139855Y291873D01*
X138993Y289789D01*
X138938Y289664D01*
X138851Y289442D01*
X138759Y289409D01*
X138547Y289517D01*
X138422Y289582D01*
X138216Y289696D01*
X138097Y289691D01*
X137104Y289013D01*
X136990Y288937D01*
X136865Y288851D01*
X136756Y288862D01*
X135834Y289784D01*
X135731Y289881D01*
X135629Y289989D01*
X135618Y290098D01*
X135704Y290223D01*
X135780Y290337D01*
X136480Y291352D01*
X136486Y291470D01*
X136475Y291509D01*
X136219Y292045D01*
X136030Y292610D01*
X136013Y292653D01*
X135927Y292735D01*
X134695Y292963D01*
X134559Y292989D01*
X134408Y293012D01*
X134343Y293098D01*
Y294699D01*
X134408Y294780D01*
X134559Y294807D01*
X134695Y294834D01*
X135959Y295067D01*
X136056Y295149D01*
X136079Y295203D01*
X136265Y295714D01*
X136508Y296196D01*
X136529Y296262D01*
X136523Y296381D01*
X135786Y297455D01*
X135704Y297574D01*
X135618Y297699D01*
X135629Y297807D01*
X136551Y298730D01*
X136654Y298827D01*
X136756Y298935D01*
X136865Y298946D01*
X136990Y298860D01*
X137104Y298778D01*
X138205Y298024D01*
X138330Y298013D01*
X138384Y298035D01*
X138390Y298041D01*
X139340Y298431D01*
X139404Y298453D01*
X139486Y298545D01*
X139730Y299869D01*
X139756Y300005D01*
X139784Y300150D01*
X139865Y300221D01*
G37*
G36*
X218133Y353139D02*X219457D01*
Y351816D01*
X218133D01*
Y353139D01*
G37*
G36*
X226592D02*Y351816D01*
X224683D01*
X224362Y351708D01*
X224226Y351613D01*
X224146Y351550D01*
X224075Y351425D01*
X223956Y350828D01*
X223923Y350080D01*
Y349146D01*
X225247D01*
Y347801D01*
X223923D01*
Y342462D01*
X222578D01*
Y347801D01*
X221254D01*
Y349146D01*
X222578D01*
Y349862D01*
X222588Y351199D01*
X222795Y351892D01*
X223077Y352358D01*
X223315Y352678D01*
X223695Y352922D01*
X224167Y353085D01*
X224704Y353139D01*
X226592D01*
G37*
G36*
X232179D02*Y351816D01*
X230269D01*
X229972Y351714D01*
X229829Y351644D01*
X229732Y351550D01*
X229662Y351425D01*
X229542Y350828D01*
X229510Y350080D01*
Y349146D01*
X230834D01*
Y347801D01*
X229510D01*
Y342462D01*
X228164D01*
Y347801D01*
X226840D01*
Y349146D01*
X228164D01*
Y349862D01*
X228192Y350748D01*
X228251Y351317D01*
X228381Y351892D01*
X228663Y352358D01*
X228902Y352678D01*
X229282Y352922D01*
X229754Y353085D01*
X230291Y353139D01*
X232179D01*
G37*
G36*
X233392Y353161D02*X234715D01*
Y342483D01*
X233392D01*
Y353161D01*
G37*
G36*
X242752Y345919D02*Y345095D01*
X237227Y345113D01*
X237336Y344616D01*
X237484Y344362D01*
X237717Y344211D01*
X237979Y344092D01*
X238366Y343915D01*
X238893Y343792D01*
X239403Y343663D01*
X240058Y343583D01*
X240257Y343581D01*
X240615D01*
X240994Y343590D01*
X241396Y343589D01*
X241602Y343581D01*
X241949Y343603D01*
X242405Y343693D01*
X242752Y343771D01*
Y342425D01*
X239975D01*
X238238Y342648D01*
X237653Y342924D01*
X237132Y343315D01*
X236645Y343713D01*
X236316Y344236D01*
X236106Y344953D01*
X236090Y345702D01*
X236085Y346462D01*
X236218Y347042D01*
X236600Y347655D01*
X237045Y348176D01*
X237430Y348556D01*
X238043Y348854D01*
X238797Y349044D01*
X239572Y349042D01*
X240197Y348898D01*
X240821Y348751D01*
X241412Y348567D01*
X240908Y347395D01*
X240246Y347574D01*
X239584Y347764D01*
X239033Y347735D01*
X238604Y347600D01*
X238374Y347503D01*
X238108Y347395D01*
X237767Y347097D01*
X237588Y346885D01*
X237501Y346690D01*
X237457Y346440D01*
X241429D01*
X241358Y346618D01*
X241221Y346939D01*
X241081Y347140D01*
X240908Y347395D01*
X241412Y348567D01*
X241961Y348121D01*
X242596Y347133D01*
X242752Y345919D01*
G37*
G54D84*X206000Y302500D02*Y290500D01*
X230000Y309000D02*X232000Y307000D01*
X275000Y344000D02*X273000Y346000D01*
X285000Y301000D02*X287000Y299000D01*
X122350Y379500D02*Y375500D01*
X120350Y377500D02*X124350D01*
X114350Y362000D02*Y358000D01*
X223000Y291000D02*X225000Y289000D01*
G54D85*X212500Y338840D02*X213720Y336400D01*
X214940Y338840D02*X213720Y336400D01*
X216404Y338230D02*X218844Y341280D01*
X216404Y338230D02*X219454D01*
X218844Y341280D02*Y336400D01*
X220918D02*X221528D01*
X222992Y340670D02*X223602Y341280D01*
X225432D01*
X226042Y340670D01*
Y339450D01*
X222992Y336400D02*X226042Y339450D01*
X222992Y336400D02*X226042D01*
X199520Y285740D02*X199900Y285360D01*
X198380Y285740D02*X199520D01*
X198000Y285360D02*X198380Y285740D01*
X198000Y285360D02*Y284600D01*
X198380Y284220D01*
X199520D01*
X199900Y283840D01*
Y283080D01*
X199520Y282700D02*X199900Y283080D01*
X198380Y282700D02*X199520D01*
X198000Y283080D02*X198380Y282700D01*
X201192Y285740D02*Y282700D01*
X202180Y285740D02*X202712Y285208D01*
Y283232D01*
X202180Y282700D02*X202712Y283232D01*
X200812Y282700D02*X202180D01*
X200812Y285740D02*X202180D01*
X203624Y284980D02*Y282700D01*
Y284980D02*X204156Y285740D01*
X204992D01*
X205524Y284980D01*
Y282700D01*
X203624Y284220D02*X205524D01*
X180000Y285730D02*X181540D01*
X180770D02*Y282650D01*
X182464D02*X184389Y285730D01*
X182464D02*X184389Y282650D01*
X190000Y285750D02*X190375Y285375D01*
X188875Y285750D02*X190000D01*
X188500Y285375D02*X188875Y285750D01*
X188500Y285375D02*Y284625D01*
X188875Y284250D01*
X190000D01*
X190375Y283875D01*
Y283125D01*
X190000Y282750D02*X190375Y283125D01*
X188875Y282750D02*X190000D01*
X188500Y283125D02*X188875Y282750D01*
X191800D02*X192775D01*
X191275Y283275D02*X191800Y282750D01*
X191275Y285225D02*Y283275D01*
Y285225D02*X191800Y285750D01*
X192775D01*
X193675D02*Y282750D01*
X195175D01*
X169500Y285730D02*X171040D01*
X171425Y285345D01*
Y284575D01*
X171040Y284190D02*X171425Y284575D01*
X169885Y284190D02*X171040D01*
X169885Y285730D02*Y282650D01*
X170501Y284190D02*X171425Y282650D01*
X172349D02*X174274Y285730D01*
X172349D02*X174274Y282650D01*
X161500Y284960D02*Y282650D01*
Y284960D02*X162039Y285730D01*
X162886D01*
X163425Y284960D01*
Y282650D01*
X161500Y284190D02*X163425D01*
X160975Y350175D02*X170836D01*
Y345825D01*
X160975D02*X170836D01*
X160975Y350175D02*Y345825D01*
X141069Y349175D02*X150931D01*
Y344825D01*
X141069D02*X150931D01*
X141069Y349175D02*Y344825D01*
X148931Y336825D02*X139069D01*
Y341175D01*
X148931D01*
Y336825D01*
Y329825D02*X139069D01*
Y334175D01*
X148931D01*
Y329825D01*
X159931Y325825D02*X150069D01*
Y330175D01*
X159931D01*
Y325825D01*
X159175Y346265D02*Y336404D01*
X154825D02*X159175D01*
X154825Y346265D02*Y336404D01*
Y346265D02*X159175D01*
X142175Y322431D02*Y312569D01*
X137825D02*X142175D01*
X137825Y322431D02*Y312569D01*
Y322431D02*X142175D01*
X149675D02*Y312569D01*
X145325D02*X149675D01*
X145325Y322431D02*Y312569D01*
Y322431D02*X149675D01*
X170128Y313978D02*Y304117D01*
X165778D02*X170128D01*
X165778Y313978D02*Y304117D01*
Y313978D02*X170128D01*
X144117Y305269D02*X153978D01*
Y300920D01*
X144117D02*X153978D01*
X144117Y305269D02*Y300920D01*
X163175Y313931D02*Y304069D01*
X158825D02*X163175D01*
X158825Y313931D02*Y304069D01*
Y313931D02*X163175D01*
X157175Y322431D02*Y312569D01*
X152825D02*X157175D01*
X152825Y322431D02*Y312569D01*
Y322431D02*X157175D01*
X222431Y325325D02*X212569D01*
Y329675D01*
X222431D01*
Y325325D01*
X213175Y316883D02*Y307022D01*
X208825D02*X213175D01*
X208825Y316883D02*Y307022D01*
Y316883D02*X213175D01*
X206022Y306175D02*X215883D01*
Y301825D01*
X206022D02*X215883D01*
X206022Y306175D02*Y301825D01*
G54D84*X197795Y314705D02*X172205D01*
Y340295D01*
X197795D01*
Y314705D01*
X172205Y340295D02*X168268Y344232D01*
X216200Y309000D02*X230100D01*
Y320800D02*Y309000D01*
X216200Y320800D02*X230100D01*
X216200D02*Y309000D01*
G54D85*X130325Y322431D02*Y312569D01*
Y322431D02*X134675D01*
Y312569D01*
X130325D02*X134675D01*
X121117Y295175D02*X130978D01*
Y290825D01*
X121117D02*X130978D01*
X121117Y295175D02*Y290825D01*
G54D84*X106535Y352146D02*X110866D01*
X106535Y316713D02*X110866D01*
X119134Y352146D02*X128976D01*
X119134Y316713D02*X128976D01*
Y352146D02*Y340728D01*
Y328130D02*Y316713D01*
X120000Y296700D02*X133900D01*
Y309500D02*Y296700D01*
X120000Y309500D02*X133900D01*
X120000D02*Y296700D01*
X121795Y272520D02*X146205D01*
X121795Y287480D02*Y272520D01*
Y287480D02*X146205D01*
Y272520D01*
X207610Y300846D02*X224390D01*
Y291154D01*
X207610D02*X224390D01*
X207610Y300846D02*Y291154D01*
X216000Y295091D02*X219937Y291154D01*
X216000Y295091D02*X212063Y291154D01*
X167500Y290500D02*X206000D01*
X167500Y302500D02*X206000D01*
X167500D02*X206000D01*
X167500D02*Y290500D01*
X157500Y269000D02*X207500D01*
X157500Y281000D02*Y269000D01*
Y281000D02*X207500D01*
Y269000D01*
X184600Y382800D02*X198500D01*
X184600D02*Y370000D01*
X198500D01*
Y382800D02*Y370000D01*
G54D85*X182175Y374931D02*Y365069D01*
X177825D02*X182175D01*
X177825Y374931D02*Y365069D01*
Y374931D02*X182175D01*
X173022Y378278D02*X182883D01*
X173022Y382628D02*Y378278D01*
Y382628D02*X182883D01*
Y378278D01*
G54D86*X162755Y362893D02*Y362107D01*
X157245Y362893D02*Y362107D01*
X155650Y377755D02*X156436D01*
X155650Y372245D02*X156436D01*
G54D85*X165022Y369675D02*X174883D01*
Y365325D01*
X165022D02*X174883D01*
X165022Y369675D02*Y365325D01*
X169175Y361931D02*Y352069D01*
X164825D02*X169175D01*
X164825Y361931D02*Y352069D01*
Y361931D02*X169175D01*
G54D84*X145750Y364700D02*Y367375D01*
X146975Y368600D01*
X149250D01*
Y364700D01*
X145750Y360300D02*Y356400D01*
X149250D01*
Y360300D01*
G54D85*X173069Y363175D02*X182931D01*
Y358825D01*
X173069D02*X182931D01*
X173069Y363175D02*Y358825D01*
X187569Y367175D02*X197431D01*
Y362825D01*
X187569D02*X197431D01*
X187569Y367175D02*Y362825D01*
G54D84*X219400Y367200D02*Y371250D01*
X223000Y374850D01*
X225600D01*
Y367200D01*
X219400Y362800D02*Y355150D01*
X225600D01*
Y362800D01*
X117350Y375000D02*Y355000D01*
X127350D01*
Y375000D02*Y355000D01*
X117350Y375000D02*X127350D01*
X117350Y365000D02*X127350D01*
Y375000D02*Y365000D01*
G54D85*X137431Y377825D02*X127569D01*
Y382175D01*
X137431D01*
Y377825D01*
X134675Y362883D02*Y353022D01*
X130325D02*X134675D01*
X130325Y362883D02*Y353022D01*
Y362883D02*X134675D01*
X137569Y372825D02*X147431D01*
X137569Y377175D02*Y372825D01*
Y377175D02*X147431D01*
Y372825D01*
X234431Y325325D02*X224569D01*
Y329675D01*
X234431D01*
Y325325D01*
X232825Y317883D02*Y308022D01*
Y317883D02*X237175D01*
Y308022D01*
X232825D02*X237175D01*
G54D84*X267500Y360000D02*Y320000D01*
X247500Y360000D02*X267500D01*
X247500D02*Y320000D01*
X267500D01*
X257500Y330000D02*X267500D01*
X257500D02*Y320000D01*
G54D85*X292825Y307931D02*Y298069D01*
Y307931D02*X297175D01*
Y298069D01*
X292825D02*X297175D01*
X280069Y317825D02*X289931D01*
X280069Y322175D02*Y317825D01*
Y322175D02*X289931D01*
Y317825D01*
G54D84*X295066Y295106D02*Y273894D01*
X263934Y295106D02*X295066D01*
X263934D02*Y273894D01*
X282000D02*X295066D01*
X263934D02*X277000D01*
X282000D02*G75*G03X277000Y273894I-2500J0D01*G01*
G54D85*X284677Y315283D02*Y300717D01*
X269323D02*X284677D01*
X269323Y315283D02*Y300717D01*
Y315283D02*X284677D01*
X279675Y357883D02*Y348022D01*
X275325D02*X279675D01*
X275325Y357883D02*Y348022D01*
Y357883D02*X279675D01*
X290069Y334675D02*X299931D01*
Y330325D01*
X290069D02*X299931D01*
X290069Y334675D02*Y330325D01*
X298069Y280175D02*X307931D01*
Y275825D01*
X298069D02*X307931D01*
X298069Y280175D02*Y275825D01*
Y295175D02*X307931D01*
Y290825D01*
X298069D02*X307931D01*
X298069Y295175D02*Y290825D01*
Y290175D02*X307931D01*
Y285825D01*
X298069D02*X307931D01*
X298069Y290175D02*Y285825D01*
Y285175D02*X307931D01*
Y280825D01*
X298069D02*X307931D01*
X298069Y285175D02*Y280825D01*
G54D84*X274600Y344500D02*X288500D01*
X274600D02*Y332700D01*
X288500D01*
Y344500D02*Y332700D01*
G54D85*X268825Y334978D02*Y325117D01*
Y334978D02*X273175D01*
Y325117D01*
X268825D02*X273175D01*
G54D84*X241201Y311299D02*Y308543D01*
Y311299D02*X241988D01*
X241201Y301457D02*Y298701D01*
X241988D01*
X253799Y311299D02*Y308543D01*
X253012Y311299D02*X253799D01*
Y301457D02*Y298701D01*
X253012D02*X253799D01*
X241201D02*X239626Y297126D01*
G54D85*X237117Y294675D02*X246978D01*
Y290325D01*
X237117D02*X246978D01*
X237117Y294675D02*Y290325D01*
G54D84*X224795Y272520D02*X249205D01*
X224795Y287480D02*Y272520D01*
Y287480D02*X249205D01*
Y272520D01*
G54D85*X302825Y375383D02*Y365522D01*
Y375383D02*X307175D01*
Y365522D01*
X302825D02*X307175D01*
X290522Y342175D02*X300383D01*
Y337825D01*
X290522D02*X300383D01*
X290522Y342175D02*Y337825D01*
X304675Y362431D02*Y352569D01*
X300325D02*X304675D01*
X300325Y362431D02*Y352569D01*
Y362431D02*X304675D01*
X290522Y345325D02*X300383D01*
X290522Y349675D02*Y345325D01*
Y349675D02*X300383D01*
Y345325D01*
X250069Y372175D02*X259931D01*
Y367825D01*
X250069D02*X259931D01*
X250069Y372175D02*Y367825D01*
X260522Y372825D02*X270383D01*
X260522Y377175D02*Y372825D01*
Y377175D02*X270383D01*
Y372825D01*
X272825Y378789D02*Y368928D01*
Y378789D02*X277175D01*
Y368928D01*
X272825D02*X277175D01*
G54D84*X280000Y382500D02*Y372500D01*
X290000D01*
Y382500D01*
X280000D01*
Y372500D02*X290000D01*
Y382500D01*
Y372500D01*
X300000D01*
Y382500D01*
X290000D01*
Y372500D02*X300000D01*
Y382500D01*
X291772Y354291D02*X288228D01*
Y365709D01*
X287500D01*
X292500D02*X291772D01*
Y354291D01*
X287500Y365709D02*G75*G03X292500Y365709I2500J0D01*G01*
G54D85*X261617Y362872D02*X271478D01*
X261617Y367222D02*Y362872D01*
Y367222D02*X271478D01*
Y362872D01*
X209047Y321010D02*X210587D01*
X210972Y320625D01*
Y319855D01*
X210587Y319470D02*X210972Y319855D01*
X209432Y319470D02*X210587D01*
X209432Y321010D02*Y317930D01*
X210048Y319470D02*X210972Y317930D01*
X211896Y318315D02*X212281Y317930D01*
X211896Y318931D02*Y318315D01*
Y318931D02*X212435Y319470D01*
X212897D01*
X213436Y318931D01*
Y318315D01*
X213051Y317930D02*X213436Y318315D01*
X212281Y317930D02*X213051D01*
X211896Y320009D02*X212435Y319470D01*
X211896Y320625D02*Y320009D01*
Y320625D02*X212281Y321010D01*
X213051D01*
X213436Y320625D01*
Y320009D01*
X212897Y319470D02*X213436Y320009D01*
X197500Y313374D02*Y309874D01*
X198000Y309374D01*
X199000D01*
X199500Y309874D01*
Y313374D02*Y309874D01*
X200700Y312874D02*X201200Y313374D01*
X202700D01*
X203200Y312874D01*
Y311874D01*
X200700Y309374D02*X203200Y311874D01*
X200700Y309374D02*X203200D01*
X218500Y289874D02*Y286374D01*
X219000Y285874D01*
X220000D01*
X220500Y286374D01*
Y289874D02*Y286374D01*
X223200Y289874D02*X223700Y289374D01*
X222200Y289874D02*X223200D01*
X221700Y289374D02*X222200Y289874D01*
X221700Y289374D02*Y286374D01*
X222200Y285874D01*
X223200Y288074D02*X223700Y287574D01*
X221700Y288074D02*X223200D01*
X222200Y285874D02*X223200D01*
X223700Y286374D01*
Y287574D02*Y286374D01*
X208000Y277000D02*X210000D01*
X210500Y276500D01*
Y275500D01*
X210000Y275000D02*X210500Y275500D01*
X208500Y275000D02*X210000D01*
X208500Y277000D02*Y273000D01*
X209300Y275000D02*X210500Y273000D01*
X211700Y275200D02*X213200D01*
X211700Y273000D02*X213700D01*
X211700Y277000D02*Y273000D01*
Y277000D02*X213700D01*
X216900D02*X217400Y276500D01*
X215400Y277000D02*X216900D01*
X214900Y276500D02*X215400Y277000D01*
X214900Y276500D02*Y275500D01*
X215400Y275000D01*
X216900D01*
X217400Y274500D01*
Y273500D01*
X216900Y273000D02*X217400Y273500D01*
X215400Y273000D02*X216900D01*
X214900Y273500D02*X215400Y273000D01*
X218600Y275200D02*X220100D01*
X218600Y273000D02*X220600D01*
X218600Y277000D02*Y273000D01*
Y277000D02*X220600D01*
X221800D02*X223800D01*
X222800D02*Y273000D01*
X216547Y305604D02*X218087D01*
X218472Y305219D01*
Y304449D01*
X218087Y304064D02*X218472Y304449D01*
X216932Y304064D02*X218087D01*
X216932Y305604D02*Y302524D01*
X217548Y304064D02*X218472Y302524D01*
X219781D02*X221321Y305604D01*
X219396D02*X221321D01*
X288000Y307104D02*X289540D01*
X289925Y306719D01*
Y305949D01*
X289540Y305564D02*X289925Y305949D01*
X288385Y305564D02*X289540D01*
X288385Y307104D02*Y304024D01*
X289001Y305564D02*X289925Y304024D01*
X290849Y307104D02*X292389D01*
X290849D02*Y305564D01*
X291234Y305949D01*
X292004D01*
X292389Y305564D01*
Y304409D01*
X292004Y304024D02*X292389Y304409D01*
X291234Y304024D02*X292004D01*
X290849Y304409D02*X291234Y304024D01*
X264500Y300500D02*Y297000D01*
X265000Y296500D01*
X266000D01*
X266500Y297000D01*
Y300500D02*Y297000D01*
X268200Y296500D02*X270200Y300500D01*
X267700D02*X270200D01*
X230492Y291524D02*X231493D01*
X229953Y292063D02*X230492Y291524D01*
X229953Y294065D02*Y292063D01*
Y294065D02*X230492Y294604D01*
X231493D01*
X232417Y293988D02*X233033Y294604D01*
Y291524D01*
X232417D02*X233572D01*
X234496Y291909D02*X234881Y291524D01*
X234496Y292525D02*Y291909D01*
Y292525D02*X235035Y293064D01*
X235497D01*
X236036Y292525D01*
Y291909D01*
X235651Y291524D02*X236036Y291909D01*
X234881Y291524D02*X235651D01*
X234496Y293603D02*X235035Y293064D01*
X234496Y294219D02*Y293603D01*
Y294219D02*X234881Y294604D01*
X235651D01*
X236036Y294219D01*
Y293603D01*
X235497Y293064D02*X236036Y293603D01*
X224200Y308000D02*Y304500D01*
X224700Y304000D01*
X225700D01*
X226200Y304500D01*
Y308000D02*Y304500D01*
X227400Y308000D02*X229400D01*
X227400D02*Y306000D01*
X227900Y306500D01*
X228900D01*
X229400Y306000D01*
Y304500D01*
X228900Y304000D02*X229400Y304500D01*
X227900Y304000D02*X228900D01*
X227400Y304500D02*X227900Y304000D01*
X269000Y319874D02*Y316374D01*
X269500Y315874D01*
X270500D01*
X271000Y316374D01*
Y319874D02*Y316374D01*
X272200D02*X272700Y315874D01*
X272200Y317174D02*Y316374D01*
Y317174D02*X272900Y317874D01*
X273500D01*
X274200Y317174D01*
Y316374D01*
X273700Y315874D02*X274200Y316374D01*
X272700Y315874D02*X273700D01*
X272200Y318574D02*X272900Y317874D01*
X272200Y319374D02*Y318574D01*
Y319374D02*X272700Y319874D01*
X273700D01*
X274200Y319374D01*
Y318574D01*
X273500Y317874D02*X274200Y318574D01*
X303681Y376713D02*X304682D01*
X303142Y377252D02*X303681Y376713D01*
X303142Y379254D02*Y377252D01*
Y379254D02*X303681Y379793D01*
X304682D01*
X305606D02*X307146D01*
X305606D02*Y378253D01*
X305991Y378638D01*
X306761D01*
X307146Y378253D01*
Y377098D01*
X306761Y376713D02*X307146Y377098D01*
X305991Y376713D02*X306761D01*
X305606Y377098D02*X305991Y376713D01*
X305396Y357040D02*Y355500D01*
Y357040D02*X305781Y357425D01*
X306551D01*
X306936Y357040D02*X306551Y357425D01*
X306936Y357040D02*Y355885D01*
X305396D02*X308476D01*
X306936Y356501D02*X308476Y357425D01*
X306012Y358349D02*X305396Y358965D01*
X308476D01*
Y359504D02*Y358349D01*
Y360813D02*X306936Y361968D01*
X305781D02*X306936D01*
X305396Y361583D02*X305781Y361968D01*
X305396Y361583D02*Y360813D01*
X305781Y360428D02*X305396Y360813D01*
X305781Y360428D02*X306551D01*
X306936Y360813D01*
Y361968D02*Y360813D01*
X301453Y349604D02*X302993D01*
X303378Y349219D01*
Y348449D01*
X302993Y348064D02*X303378Y348449D01*
X301838Y348064D02*X302993D01*
X301838Y349604D02*Y346524D01*
X302454Y348064D02*X303378Y346524D01*
X304302Y348988D02*X304918Y349604D01*
Y346524D01*
X304302D02*X305457D01*
X306381Y346909D02*X306766Y346524D01*
X306381Y347525D02*Y346909D01*
Y347525D02*X306920Y348064D01*
X307382D01*
X307921Y347525D01*
Y346909D01*
X307536Y346524D02*X307921Y346909D01*
X306766Y346524D02*X307536D01*
X306381Y348603D02*X306920Y348064D01*
X306381Y349219D02*Y348603D01*
Y349219D02*X306766Y349604D01*
X307536D01*
X307921Y349219D01*
Y348603D01*
X307382Y348064D02*X307921Y348603D01*
X300500Y382488D02*X301310D01*
X300500Y381300D02*X301580D01*
X300500Y383460D02*Y381300D01*
Y383460D02*X301580D01*
X302606Y381300D02*X303308D01*
X302228Y381678D02*X302606Y381300D01*
X302228Y383082D02*Y381678D01*
Y383082D02*X302606Y383460D01*
X303308D01*
X303956D02*Y381300D01*
Y383460D02*X304766Y382380D01*
X305576Y383460D01*
Y381300D01*
X251032Y373074D02*X252020D01*
X250500Y373606D02*X251032Y373074D01*
X250500Y375582D02*Y373606D01*
Y375582D02*X251032Y376114D01*
X252020D01*
X252932Y375506D02*X253540Y376114D01*
Y373074D01*
X252932D02*X254072D01*
X254984Y375506D02*X255592Y376114D01*
Y373074D01*
X254984D02*X256124D01*
X248000Y365000D02*Y361000D01*
Y365000D02*X250500Y361000D01*
Y365000D02*Y361000D01*
X251700Y365000D02*X253700D01*
X254200Y364500D01*
Y363500D01*
X253700Y363000D02*X254200Y363500D01*
X252200Y363000D02*X253700D01*
X252200Y365000D02*Y361000D01*
X253000Y363000D02*X254200Y361000D01*
X255400Y365000D02*Y361000D01*
Y365000D02*X257400D01*
X255400Y363200D02*X256900D01*
X273992Y358524D02*X274993D01*
X273453Y359063D02*X273992Y358524D01*
X273453Y361065D02*Y359063D01*
Y361065D02*X273992Y361604D01*
X274993D01*
X275917Y361219D02*X276302Y361604D01*
X277457D01*
X277842Y361219D01*
Y360449D01*
X275917Y358524D02*X277842Y360449D01*
X275917Y358524D02*X277842D01*
X278766Y361219D02*X279151Y361604D01*
X280306D01*
X280691Y361219D01*
Y360449D01*
X278766Y358524D02*X280691Y360449D01*
X278766Y358524D02*X280691D01*
X260453Y381114D02*X261973D01*
X262353Y380734D01*
Y379974D01*
X261973Y379594D02*X262353Y379974D01*
X260833Y379594D02*X261973D01*
X260833Y381114D02*Y378074D01*
X261441Y379594D02*X262353Y378074D01*
X264405Y381114D02*X264785Y380734D01*
X263645Y381114D02*X264405D01*
X263265Y380734D02*X263645Y381114D01*
X263265Y380734D02*Y378454D01*
X263645Y378074D01*
X264405Y379746D02*X264785Y379366D01*
X263265Y379746D02*X264405D01*
X263645Y378074D02*X264405D01*
X264785Y378454D01*
Y379366D02*Y378454D01*
X274500Y382488D02*X275310D01*
X274500Y381300D02*X275580D01*
X274500Y383460D02*Y381300D01*
Y383460D02*X275580D01*
X276606Y381300D02*X277308D01*
X276228Y381678D02*X276606Y381300D01*
X276228Y383082D02*Y381678D01*
Y383082D02*X276606Y383460D01*
X277308D01*
X278226D02*Y381300D01*
X277956Y383460D02*X279036D01*
X279306Y383190D01*
Y382650D01*
X279036Y382380D02*X279306Y382650D01*
X278226Y382380D02*X279036D01*
X272453Y366651D02*X273993D01*
X274378Y366266D01*
Y365496D01*
X273993Y365111D02*X274378Y365496D01*
X272838Y365111D02*X273993D01*
X272838Y366651D02*Y363571D01*
X273454Y365111D02*X274378Y363571D01*
X275302Y366035D02*X275918Y366651D01*
Y363571D01*
X275302D02*X276457D01*
X277381Y366651D02*X278921D01*
X277381D02*Y365111D01*
X277766Y365496D01*
X278536D01*
X278921Y365111D01*
Y363956D01*
X278536Y363571D02*X278921Y363956D01*
X277766Y363571D02*X278536D01*
X277381Y363956D02*X277766Y363571D01*
X281500Y349500D02*Y346000D01*
X282000Y345500D01*
X283000D01*
X283500Y346000D01*
Y349500D02*Y346000D01*
X284700Y348700D02*X285500Y349500D01*
Y345500D01*
X284700D02*X286200D01*
X287400Y348700D02*X288200Y349500D01*
Y345500D01*
X287400D02*X288900D01*
X291000Y370874D02*Y367374D01*
X291500Y366874D01*
X292500D01*
X293000Y367374D01*
Y370874D02*Y367374D01*
X294700Y366874D02*X296200Y368874D01*
Y370374D02*Y368874D01*
X295700Y370874D02*X296200Y370374D01*
X294700Y370874D02*X295700D01*
X294200Y370374D02*X294700Y370874D01*
X294200Y370374D02*Y369374D01*
X294700Y368874D01*
X296200D01*
X278142Y371104D02*X279682D01*
X280067Y370719D01*
Y369949D01*
X279682Y369564D02*X280067Y369949D01*
X278527Y369564D02*X279682D01*
X278527Y371104D02*Y368024D01*
X279143Y369564D02*X280067Y368024D01*
X280991Y370488D02*X281607Y371104D01*
Y368024D01*
X280991D02*X282146D01*
X283455D02*X284995Y371104D01*
X283070D02*X284995D01*
X220150Y379850D02*Y376350D01*
X220650Y375850D01*
X221650D01*
X222150Y376350D01*
Y379850D02*Y376350D01*
X223350Y379350D02*X223850Y379850D01*
X224850D01*
X225350Y379350D01*
X224850Y375850D02*X225350Y376350D01*
X223850Y375850D02*X224850D01*
X223350Y376350D02*X223850Y375850D01*
Y378050D02*X224850D01*
X225350Y379350D02*Y378550D01*
Y377550D02*Y376350D01*
Y377550D02*X224850Y378050D01*
X225350Y378550D02*X224850Y378050D01*
X238445Y314788D02*X239446D01*
X237906Y315327D02*X238445Y314788D01*
X237906Y317329D02*Y315327D01*
Y317329D02*X238445Y317868D01*
X239446D01*
X240370Y317252D02*X240986Y317868D01*
Y314788D01*
X240370D02*X241525D01*
X242834D02*X244374Y317868D01*
X242449D02*X244374D01*
X282200Y323374D02*X283500D01*
X281500Y324074D02*X282200Y323374D01*
X281500Y326674D02*Y324074D01*
Y326674D02*X282200Y327374D01*
X283500D01*
X284700Y326874D02*X285200Y327374D01*
X286700D01*
X287200Y326874D01*
Y325874D01*
X284700Y323374D02*X287200Y325874D01*
X284700Y323374D02*X287200D01*
X288400Y323874D02*X288900Y323374D01*
X288400Y326874D02*Y323874D01*
Y326874D02*X288900Y327374D01*
X289900D01*
X290400Y326874D01*
Y323874D01*
X289900Y323374D02*X290400Y323874D01*
X288900Y323374D02*X289900D01*
X288400Y324374D02*X290400Y326374D01*
X255150Y312850D02*Y309350D01*
X255650Y308850D01*
X256650D01*
X257150Y309350D01*
Y312850D02*Y309350D01*
X258350Y310350D02*X260350Y312850D01*
X258350Y310350D02*X260850D01*
X260350Y312850D02*Y308850D01*
X302086Y339024D02*X303087D01*
X301547Y339563D02*X302086Y339024D01*
X301547Y341565D02*Y339563D01*
Y341565D02*X302086Y342104D01*
X303087D01*
X304011Y341719D02*X304396Y342104D01*
X305551D01*
X305936Y341719D01*
Y340949D01*
X304011Y339024D02*X305936Y340949D01*
X304011Y339024D02*X305936D01*
X306860Y341719D02*X307245Y342104D01*
X308015D01*
X308400Y341719D01*
X308015Y339024D02*X308400Y339409D01*
X307245Y339024D02*X308015D01*
X306860Y339409D02*X307245Y339024D01*
Y340718D02*X308015D01*
X308400Y341719D02*Y341103D01*
Y340333D02*Y339409D01*
Y340333D02*X308015Y340718D01*
X308400Y341103D02*X308015Y340718D01*
X301000Y334604D02*X302540D01*
X302925Y334219D01*
Y333449D01*
X302540Y333064D02*X302925Y333449D01*
X301385Y333064D02*X302540D01*
X301385Y334604D02*Y331524D01*
X302001Y333064D02*X302925Y331524D01*
X303849Y333988D02*X304465Y334604D01*
Y331524D01*
X303849D02*X305004D01*
X307083Y334604D02*X307468Y334219D01*
X306313Y334604D02*X307083D01*
X305928Y334219D02*X306313Y334604D01*
X305928Y334219D02*Y331909D01*
X306313Y331524D01*
X307083Y333218D02*X307468Y332833D01*
X305928Y333218D02*X307083D01*
X306313Y331524D02*X307083D01*
X307468Y331909D01*
Y332833D02*Y331909D01*
X273874Y329347D02*Y328047D01*
X274574Y330047D02*X273874Y329347D01*
X274574Y330047D02*X277174D01*
X277874Y329347D01*
Y328047D01*
X277074Y326847D02*X277874Y326047D01*
X273874D02*X277874D01*
X273874Y326847D02*Y325347D01*
X277874Y324147D02*Y322147D01*
X275874Y324147D02*X277874D01*
X275874D02*X276374Y323647D01*
Y322647D01*
X275874Y322147D01*
X274374D02*X275874D01*
X273874Y322647D02*X274374Y322147D01*
X273874Y323647D02*Y322647D01*
X274374Y324147D02*X273874Y323647D01*
X298000Y299104D02*Y296024D01*
X299540D01*
X300464Y297718D02*X301619D01*
X300464Y296024D02*X302004D01*
X300464Y299104D02*Y296024D01*
Y299104D02*X302004D01*
X303313D02*Y296024D01*
X304314Y299104D02*X304853Y298565D01*
Y296563D01*
X304314Y296024D02*X304853Y296563D01*
X302928Y296024D02*X304314D01*
X302928Y299104D02*X304314D01*
X305777Y296409D02*X306162Y296024D01*
X305777Y298719D02*Y296409D01*
Y298719D02*X306162Y299104D01*
X306932D01*
X307317Y298719D01*
Y296409D01*
X306932Y296024D02*X307317Y296409D01*
X306162Y296024D02*X306932D01*
X305777Y296794D02*X307317Y298334D01*
X298000Y311104D02*Y308024D01*
X299540D01*
X300464Y309718D02*X301619D01*
X300464Y308024D02*X302004D01*
X300464Y311104D02*Y308024D01*
Y311104D02*X302004D01*
X303313D02*Y308024D01*
X304314Y311104D02*X304853Y310565D01*
Y308563D01*
X304314Y308024D02*X304853Y308563D01*
X302928Y308024D02*X304314D01*
X302928Y311104D02*X304314D01*
X305777Y310719D02*X306162Y311104D01*
X306932D01*
X307317Y310719D01*
X306932Y308024D02*X307317Y308409D01*
X306162Y308024D02*X306932D01*
X305777Y308409D02*X306162Y308024D01*
Y309718D02*X306932D01*
X307317Y310719D02*Y310103D01*
Y309333D02*Y308409D01*
Y309333D02*X306932Y309718D01*
X307317Y310103D02*X306932Y309718D01*
X298000Y307104D02*Y304024D01*
X299540D01*
X300464Y305718D02*X301619D01*
X300464Y304024D02*X302004D01*
X300464Y307104D02*Y304024D01*
Y307104D02*X302004D01*
X303313D02*Y304024D01*
X304314Y307104D02*X304853Y306565D01*
Y304563D01*
X304314Y304024D02*X304853Y304563D01*
X302928Y304024D02*X304314D01*
X302928Y307104D02*X304314D01*
X305777Y306719D02*X306162Y307104D01*
X307317D01*
X307702Y306719D01*
Y305949D01*
X305777Y304024D02*X307702Y305949D01*
X305777Y304024D02*X307702D01*
X298000Y303104D02*Y300024D01*
X299540D01*
X300464Y301718D02*X301619D01*
X300464Y300024D02*X302004D01*
X300464Y303104D02*Y300024D01*
Y303104D02*X302004D01*
X303313D02*Y300024D01*
X304314Y303104D02*X304853Y302565D01*
Y300563D01*
X304314Y300024D02*X304853Y300563D01*
X302928Y300024D02*X304314D01*
X302928Y303104D02*X304314D01*
X305777Y302488D02*X306393Y303104D01*
Y300024D01*
X305777D02*X306932D01*
X157350Y355880D02*Y352800D01*
X158890D01*
X159814Y355264D02*X160430Y355880D01*
Y352800D01*
X159814D02*X160969D01*
X134284Y342841D02*Y339841D01*
X135259Y342841D02*X135784Y342316D01*
Y340366D01*
X135259Y339841D02*X135784Y340366D01*
X133909Y339841D02*X135259D01*
X133909Y342841D02*X135259D01*
X136684Y342241D02*X137284Y342841D01*
Y339841D01*
X136684D02*X137809D01*
X155094Y350911D02*X156594D01*
X156969Y350536D01*
Y349786D01*
X156594Y349411D02*X156969Y349786D01*
X155469Y349411D02*X156594D01*
X155469Y350911D02*Y347911D01*
X156069Y349411D02*X156969Y347911D01*
X157869Y349036D02*X159369Y350911D01*
X157869Y349036D02*X159744D01*
X159369Y350911D02*Y347911D01*
X146406Y352614D02*X147926D01*
X148306Y352234D01*
Y351474D01*
X147926Y351094D02*X148306Y351474D01*
X146786Y351094D02*X147926D01*
X146786Y352614D02*Y349574D01*
X147394Y351094D02*X148306Y349574D01*
X149218Y352234D02*X149598Y352614D01*
X150358D01*
X150738Y352234D01*
X150358Y349574D02*X150738Y349954D01*
X149598Y349574D02*X150358D01*
X149218Y349954D02*X149598Y349574D01*
Y351246D02*X150358D01*
X150738Y352234D02*Y351626D01*
Y350866D02*Y349954D01*
Y350866D02*X150358Y351246D01*
X150738Y351626D02*X150358Y351246D01*
X177000Y358104D02*X178540D01*
X178925Y357719D01*
Y356949D01*
X178540Y356564D02*X178925Y356949D01*
X177385Y356564D02*X178540D01*
X177385Y358104D02*Y355024D01*
X178001Y356564D02*X178925Y355024D01*
X179849Y357488D02*X180465Y358104D01*
Y355024D01*
X179849D02*X181004D01*
X181928Y357719D02*X182313Y358104D01*
X183468D01*
X183853Y357719D01*
Y356949D01*
X181928Y355024D02*X183853Y356949D01*
X181928Y355024D02*X183853D01*
X149500Y340614D02*X151020D01*
X151400Y340234D01*
Y339474D01*
X151020Y339094D02*X151400Y339474D01*
X149880Y339094D02*X151020D01*
X149880Y340614D02*Y337574D01*
X150488Y339094D02*X151400Y337574D01*
X152312Y340234D02*X152692Y340614D01*
X153832D01*
X154212Y340234D01*
Y339474D01*
X152312Y337574D02*X154212Y339474D01*
X152312Y337574D02*X154212D01*
X149500Y333614D02*X151020D01*
X151400Y333234D01*
Y332474D01*
X151020Y332094D02*X151400Y332474D01*
X149880Y332094D02*X151020D01*
X149880Y333614D02*Y330574D01*
X150488Y332094D02*X151400Y330574D01*
X152312Y333006D02*X152920Y333614D01*
Y330574D01*
X152312D02*X153452D01*
X161018Y326674D02*X161980D01*
X160500Y327192D02*X161018Y326674D01*
X160500Y329116D02*Y327192D01*
Y329116D02*X161018Y329634D01*
X161980D01*
X163978D02*X164348Y329264D01*
X163238Y329634D02*X163978D01*
X162868Y329264D02*X163238Y329634D01*
X162868Y329264D02*Y327044D01*
X163238Y326674D01*
X163978Y328302D02*X164348Y327932D01*
X162868Y328302D02*X163978D01*
X163238Y326674D02*X163978D01*
X164348Y327044D01*
Y327932D02*Y327044D01*
X160367Y340574D02*X161355D01*
X159835Y341106D02*X160367Y340574D01*
X159835Y343082D02*Y341106D01*
Y343082D02*X160367Y343614D01*
X161355D01*
X162267Y343006D02*X162875Y343614D01*
Y340574D01*
X162267D02*X163407D01*
X164319Y340954D02*X164699Y340574D01*
X164319Y343234D02*Y340954D01*
Y343234D02*X164699Y343614D01*
X165459D01*
X165839Y343234D01*
Y340954D01*
X165459Y340574D02*X165839Y340954D01*
X164699Y340574D02*X165459D01*
X164319Y341334D02*X165839Y342854D01*
X199800Y377800D02*Y374800D01*
Y377800D02*X200300Y378300D01*
X201300D01*
X201800Y377800D01*
Y375300D01*
X200800Y374300D02*X201800Y375300D01*
X200300Y374300D02*X200800D01*
X199800Y374800D02*X200300Y374300D01*
X200800Y375800D02*X201800Y374300D01*
X203000Y377500D02*X203800Y378300D01*
Y374300D01*
X203000D02*X204500D01*
X162393Y376400D02*Y373400D01*
X163893D01*
X164793Y376025D02*X165168Y376400D01*
X165918D01*
X166293Y376025D01*
X165918Y373400D02*X166293Y373775D01*
X165168Y373400D02*X165918D01*
X164793Y373775D02*X165168Y373400D01*
Y375050D02*X165918D01*
X166293Y376025D02*Y375425D01*
Y374675D02*Y373775D01*
Y374675D02*X165918Y375050D01*
X166293Y375425D02*X165918Y375050D01*
X168485Y370574D02*X169473D01*
X167953Y371106D02*X168485Y370574D01*
X167953Y373082D02*Y371106D01*
Y373082D02*X168485Y373614D01*
X169473D01*
X170385Y371714D02*X171905Y373614D01*
X170385Y371714D02*X172285D01*
X171905Y373614D02*Y370574D01*
X177772Y375780D02*X178474D01*
X177394Y376158D02*X177772Y375780D01*
X177394Y377562D02*Y376158D01*
Y377562D02*X177772Y377940D01*
X178474D01*
X179122Y377508D02*X179554Y377940D01*
Y375780D01*
X179122D02*X179932D01*
X180580Y377670D02*X180850Y377940D01*
X181390D01*
X181660Y377670D01*
X181390Y375780D02*X181660Y376050D01*
X180850Y375780D02*X181390D01*
X180580Y376050D02*X180850Y375780D01*
Y376968D02*X181390D01*
X181660Y377670D02*Y377238D01*
Y376698D02*Y376050D01*
Y376698D02*X181390Y376968D01*
X181660Y377238D02*X181390Y376968D01*
X167906Y382104D02*X169446D01*
X169831Y381719D01*
Y380949D01*
X169446Y380564D02*X169831Y380949D01*
X168291Y380564D02*X169446D01*
X168291Y382104D02*Y379024D01*
X168907Y380564D02*X169831Y379024D01*
X171140D02*X172295Y380564D01*
Y381719D02*Y380564D01*
X171910Y382104D02*X172295Y381719D01*
X171140Y382104D02*X171910D01*
X170755Y381719D02*X171140Y382104D01*
X170755Y381719D02*Y380949D01*
X171140Y380564D01*
X172295D01*
X188287Y362104D02*X189827D01*
X190212Y361719D01*
Y360949D01*
X189827Y360564D02*X190212Y360949D01*
X188672Y360564D02*X189827D01*
X188672Y362104D02*Y359024D01*
X189288Y360564D02*X190212Y359024D01*
X191136Y361488D02*X191752Y362104D01*
Y359024D01*
X191136D02*X192291D01*
X193215Y361488D02*X193831Y362104D01*
Y359024D01*
X193215D02*X194370D01*
X236000Y328604D02*Y325524D01*
X237540D01*
X238464Y327218D02*X239619D01*
X238464Y325524D02*X240004D01*
X238464Y328604D02*Y325524D01*
Y328604D02*X240004D01*
X241313D02*Y325524D01*
X242314Y328604D02*X242853Y328065D01*
Y326063D01*
X242314Y325524D02*X242853Y326063D01*
X240928Y325524D02*X242314D01*
X240928Y328604D02*X242314D01*
X205000D02*X206540D01*
X206925Y328219D01*
Y327449D01*
X206540Y327064D02*X206925Y327449D01*
X205385Y327064D02*X206540D01*
X205385Y328604D02*Y325524D01*
X206001Y327064D02*X206925Y325524D01*
X207849Y327988D02*X208465Y328604D01*
Y325524D01*
X207849D02*X209004D01*
X209928Y325909D02*X210313Y325524D01*
X209928Y328219D02*Y325909D01*
Y328219D02*X210313Y328604D01*
X211083D01*
X211468Y328219D01*
Y325909D01*
X211083Y325524D02*X211468Y325909D01*
X210313Y325524D02*X211083D01*
X209928Y326294D02*X211468Y327834D01*
X170532Y352574D02*X171520D01*
X170000Y353106D02*X170532Y352574D01*
X170000Y355082D02*Y353106D01*
Y355082D02*X170532Y355614D01*
X171520D01*
X172432Y355006D02*X173040Y355614D01*
Y352574D01*
X172432D02*X173572D01*
X174484Y353714D02*X176004Y355614D01*
X174484Y353714D02*X176384D01*
X176004Y355614D02*Y352574D01*
X171572Y304171D02*X172547D01*
X171047Y304696D02*X171572Y304171D01*
X171047Y306646D02*Y304696D01*
Y306646D02*X171572Y307171D01*
X172547D01*
X173822Y304171D02*X174947Y305671D01*
Y306796D02*Y305671D01*
X174572Y307171D02*X174947Y306796D01*
X173822Y307171D02*X174572D01*
X173447Y306796D02*X173822Y307171D01*
X173447Y306796D02*Y306046D01*
X173822Y305671D01*
X174947D01*
X112350Y374000D02*X116350D01*
Y374500D02*Y372500D01*
X115850Y372000D01*
X114850D02*X115850D01*
X114350Y372500D02*X114850Y372000D01*
X114350Y374000D02*Y372500D01*
Y370800D02*X116350D01*
X114350D02*X112350Y370300D01*
X114350Y369300D01*
X112350Y368300D01*
X114350Y367800D01*
X116350D01*
Y366600D02*Y364600D01*
X115850Y364100D01*
X114850D02*X115850D01*
X114350Y364600D02*X114850Y364100D01*
X114350Y366100D02*Y364600D01*
X112350Y366100D02*X116350D01*
X114350Y365300D02*X112350Y364100D01*
X131056Y376561D02*Y374441D01*
X131745Y376561D02*X132116Y376190D01*
Y374812D01*
X131745Y374441D02*X132116Y374812D01*
X130791Y374441D02*X131745D01*
X130791Y376561D02*X131745D01*
X132752Y376296D02*X133017Y376561D01*
X133812D01*
X134077Y376296D01*
Y375766D01*
X132752Y374441D02*X134077Y375766D01*
X132752Y374441D02*X134077D01*
X139032Y379074D02*X140020D01*
X138500Y379606D02*X139032Y379074D01*
X138500Y381582D02*Y379606D01*
Y381582D02*X139032Y382114D01*
X140020D01*
X140932Y381506D02*X141540Y382114D01*
Y379074D01*
X140932D02*X142072D01*
X143525Y378124D02*X144500D01*
X143000Y378649D02*X143525Y378124D01*
X143000Y380599D02*Y378649D01*
Y380599D02*X143525Y381124D01*
X144500D01*
X145400Y380749D02*X145775Y381124D01*
X146900D01*
X147275Y380749D01*
Y379999D01*
X145400Y378124D02*X147275Y379999D01*
X145400Y378124D02*X147275D01*
X152500Y363830D02*Y361135D01*
X152885Y360750D01*
X153655D01*
X154040Y361135D01*
Y363830D02*Y361135D01*
X154964Y363214D02*X155580Y363830D01*
Y360750D01*
X154964D02*X156119D01*
X135525Y356577D02*X136500D01*
X135000Y357102D02*X135525Y356577D01*
X135000Y359052D02*Y357102D01*
Y359052D02*X135525Y359577D01*
X136500D01*
X137400Y359202D02*X137775Y359577D01*
X138525D01*
X138900Y359202D01*
X138525Y356577D02*X138900Y356952D01*
X137775Y356577D02*X138525D01*
X137400Y356952D02*X137775Y356577D01*
Y358227D02*X138525D01*
X138900Y359202D02*Y358602D01*
Y357852D02*Y356952D01*
Y357852D02*X138525Y358227D01*
X138900Y358602D02*X138525Y358227D01*
X137547Y312057D02*Y308977D01*
X139087D01*
X140011Y311672D02*X140396Y312057D01*
X141551D01*
X141936Y311672D01*
Y310902D01*
X140011Y308977D02*X141936Y310902D01*
X140011Y308977D02*X141936D01*
X146039Y323024D02*X147040D01*
X145500Y323563D02*X146039Y323024D01*
X145500Y325565D02*Y323563D01*
Y325565D02*X146039Y326104D01*
X147040D01*
X147964Y323409D02*X148349Y323024D01*
X147964Y324025D02*Y323409D01*
Y324025D02*X148503Y324564D01*
X148965D01*
X149504Y324025D01*
Y323409D01*
X149119Y323024D02*X149504Y323409D01*
X148349Y323024D02*X149119D01*
X147964Y325103D02*X148503Y324564D01*
X147964Y325719D02*Y325103D01*
Y325719D02*X148349Y326104D01*
X149119D01*
X149504Y325719D01*
Y325103D01*
X148965Y324564D02*X149504Y325103D01*
X130822Y323524D02*X131823D01*
X130283Y324063D02*X130822Y323524D01*
X130283Y326065D02*Y324063D01*
Y326065D02*X130822Y326604D01*
X131823D01*
X132747Y325988D02*X133363Y326604D01*
Y323524D01*
X132747D02*X133902D01*
X134826Y326219D02*X135211Y326604D01*
X136366D01*
X136751Y326219D01*
Y325449D01*
X134826Y323524D02*X136751Y325449D01*
X134826Y323524D02*X136751D01*
X134907Y304211D02*Y301901D01*
Y304211D02*X135292Y304596D01*
X136062D01*
X136447Y304211D01*
Y302286D01*
X135677Y301516D02*X136447Y302286D01*
X135292Y301516D02*X135677D01*
X134907Y301901D02*X135292Y301516D01*
X135677Y302671D02*X136447Y301516D01*
X137371Y304211D02*X137756Y304596D01*
X138911D01*
X139296Y304211D01*
Y303441D01*
X137371Y301516D02*X139296Y303441D01*
X137371Y301516D02*X139296D01*
X114390Y291074D02*X115378D01*
X113858Y291606D02*X114390Y291074D01*
X113858Y293582D02*Y291606D01*
Y293582D02*X114390Y294114D01*
X115378D01*
X116290Y293506D02*X116898Y294114D01*
Y291074D01*
X116290D02*X117430D01*
X119482Y294114D02*X119862Y293734D01*
X118722Y294114D02*X119482D01*
X118342Y293734D02*X118722Y294114D01*
X118342Y293734D02*Y291454D01*
X118722Y291074D01*
X119482Y292746D02*X119862Y292366D01*
X118342Y292746D02*X119482D01*
X118722Y291074D02*X119482D01*
X119862Y291454D01*
Y292366D02*Y291454D01*
X112791Y313929D02*Y310429D01*
X113291Y309929D01*
X114291D01*
X114791Y310429D01*
Y313929D02*Y310429D01*
X117991Y313929D02*X118491Y313429D01*
X116491Y313929D02*X117991D01*
X115991Y313429D02*X116491Y313929D01*
X115991Y313429D02*Y312429D01*
X116491Y311929D01*
X117991D01*
X118491Y311429D01*
Y310429D01*
X117991Y309929D02*X118491Y310429D01*
X116491Y309929D02*X117991D01*
X115991Y310429D02*X116491Y309929D01*
X119691D02*X121691D01*
X122191Y310429D01*
Y311629D02*Y310429D01*
X121691Y312129D02*X122191Y311629D01*
X120191Y312129D02*X121691D01*
X120191Y313929D02*Y309929D01*
X119691Y313929D02*X121691D01*
X122191Y313429D01*
Y312629D01*
X121691Y312129D02*X122191Y312629D01*
X147047Y299945D02*X148527D01*
X148897Y299575D01*
Y298835D01*
X148527Y298465D02*X148897Y298835D01*
X147417Y298465D02*X148527D01*
X147417Y299945D02*Y296985D01*
X148009Y298465D02*X148897Y296985D01*
X149785Y299353D02*X150377Y299945D01*
Y296985D01*
X149785D02*X150895D01*
X151783Y298095D02*X153263Y299945D01*
X151783Y298095D02*X153633D01*
X153263Y299945D02*Y296985D01*
X158094Y303293D02*X159634D01*
X160019Y302908D01*
Y302138D01*
X159634Y301753D02*X160019Y302138D01*
X158479Y301753D02*X159634D01*
X158479Y303293D02*Y300213D01*
X159095Y301753D02*X160019Y300213D01*
X160943Y302677D02*X161559Y303293D01*
Y300213D01*
X160943D02*X162098D01*
X163022Y302908D02*X163407Y303293D01*
X164177D01*
X164562Y302908D01*
X164177Y300213D02*X164562Y300598D01*
X163407Y300213D02*X164177D01*
X163022Y300598D02*X163407Y300213D01*
Y301907D02*X164177D01*
X164562Y302908D02*Y302292D01*
Y301522D02*Y300598D01*
Y301522D02*X164177Y301907D01*
X164562Y302292D02*X164177Y301907D01*
X158586Y317977D02*X159587D01*
X158047Y318516D02*X158586Y317977D01*
X158047Y320518D02*Y318516D01*
Y320518D02*X158586Y321057D01*
X159587D01*
X160896Y317977D02*X162436Y321057D01*
X160511D02*X162436D01*
X157000Y295500D02*X159000D01*
X159500Y295000D01*
Y294000D01*
X159000Y293500D02*X159500Y294000D01*
X157500Y293500D02*X159000D01*
X157500Y295500D02*Y291500D01*
X158300Y293500D02*X159500Y291500D01*
X160700Y295500D02*X162700D01*
X161700D02*Y291500D01*
X164600D02*X165900D01*
X163900Y292200D02*X164600Y291500D01*
X163900Y294800D02*Y292200D01*
Y294800D02*X164600Y295500D01*
X165900D01*
X149000Y291000D02*X149500Y290500D01*
X147500Y291000D02*X149000D01*
X147000Y290500D02*X147500Y291000D01*
X147000Y290500D02*Y289500D01*
X147500Y289000D01*
X149000D01*
X149500Y288500D01*
Y287500D01*
X149000Y287000D02*X149500Y287500D01*
X147500Y287000D02*X149000D01*
X147000Y287500D02*X147500Y287000D01*
X150700Y290200D02*X151500Y291000D01*
Y287000D01*
X150700D02*X152200D01*
X152500Y270000D02*X156000D01*
X156500Y270500D01*
Y271500D02*Y270500D01*
Y271500D02*X156000Y272000D01*
X152500D02*X156000D01*
X152500Y273700D02*X156500D01*
X152500Y275200D02*Y273200D01*
Y275200D02*X153000Y275700D01*
X154000D01*
X154500Y275200D02*X154000Y275700D01*
X154500Y275200D02*Y273700D01*
X152500Y277400D02*X156500D01*
X152500Y278900D02*Y276900D01*
Y278900D02*X153000Y279400D01*
X154000D01*
X154500Y278900D02*X154000Y279400D01*
X154500Y278900D02*Y277400D01*
X154300Y282100D02*Y280600D01*
X156500Y282600D02*Y280600D01*
X152500D02*X156500D01*
X152500Y282600D02*Y280600D01*
Y285800D02*Y283800D01*
Y285800D02*X153000Y286300D01*
X154000D01*
X154500Y285800D02*X154000Y286300D01*
X154500Y285800D02*Y284300D01*
X152500D02*X156500D01*
X154500Y285100D02*X156500Y286300D01*
M02*
