M48
INCH
T49C0.015
T48C0.035
T47C0.020
T46C0.038
%
T49
X015450Y033150
X017400Y033550
X017400Y033000
X018700Y035000
X018900Y035350
X020100Y034200
X020300Y034600
X027800Y028700
T47
X013000Y037700
X014250Y032750
X014400Y037500
X014700Y034300
X015000Y034800
X015250Y033750
X015400Y030400
X015500Y031500
X015800Y030700
X015850Y033900
X015900Y031200
X016000Y035000
X016350Y031700
X017100Y034800
X017250Y035500
X017300Y036000
X017500Y036600
X018400Y036200
X018600Y032600
X018700Y033800
X019000Y031900
X019200Y033300
X019386Y030514
X020200Y029100
X020700Y037200
X020700Y035700
X021100Y030200
X021800Y030200
X022000Y036400
X022000Y029000
X022465Y031929
X022465Y029529
X022600Y036100
X022950Y035300
X023265Y029529
X023273Y032612
X023500Y034000
X023700Y035100
X023900Y032600
X024200Y029600
X024300Y031600
X024700Y034500
X024700Y030200
X024800Y033400
X025100Y028850
X025500Y037300
X026000Y032000
X027100Y035800
X027200Y030000
X027300Y032800
X027300Y027800
X027500Y036500
X028200Y030000
T48
X012200Y028400
X013250Y032500
X013750Y034500
X014000Y032250
X014100Y031200
X014750Y036250
X015400Y035600
X016750Y037250
X022750Y037000
X025600Y036000
T46
X012750Y037000
X012750Y036000
X013500Y028250
X014500Y028250
X015500Y028250
X016750Y028250
X017750Y028250
X018750Y028250
X019750Y028250
X021250Y028250
X022250Y028250
X023250Y028250
X025500Y034500
X025500Y033500
X025500Y032500
X025500Y031500
X026500Y034500
X026500Y033500
X026500Y032500
X026500Y031500
X027750Y035250
X027750Y034250
X027750Y033250
X027750Y032250
X027750Y031250
X028250Y037500
X028250Y036500
X028750Y035250
X028750Y034250
X028750Y033250
X028750Y032250
X028750Y031250
M30
