G04 start of page 11 for group -4014 idx -4014 *
G04 Title: riffle, bottompaste *
G04 Creator: pcb 20140316 *
G04 CreationDate: Thu 16 Oct 2014 05:32:55 AM GMT UTC *
G04 For: ben *
G04 Format: Gerber/RS-274X *
G04 PCB-Dimensions (mil): 6000.00 5000.00 *
G04 PCB-Coordinate-Origin: lower left *
%MOIN*%
%FSLAX25Y25*%
%LNBOTTOMPASTE*%
%ADD111R,0.0400X0.0400*%
%ADD110R,0.0500X0.0500*%
%ADD109R,0.0394X0.0394*%
%ADD108R,0.0315X0.0315*%
%ADD107C,0.0001*%
%ADD106R,0.0276X0.0276*%
G54D106*X260453Y317697D02*Y317303D01*
X254547Y317697D02*Y317303D01*
X178602Y312012D02*X182539D01*
X178602Y316343D02*X182539D01*
X178602Y320673D02*X182539D01*
X178602Y325004D02*X182539D01*
X178602Y329335D02*X182539D01*
X178602Y333665D02*X182539D01*
X178602Y337996D02*X182539D01*
X178602Y342327D02*X182539D01*
G54D107*G36*
X178996Y309846D02*Y304728D01*
X184114D01*
Y309846D01*
X178996D01*
G37*
G36*
X178209Y354925D02*Y349020D01*
X184114D01*
Y354925D01*
X178209D01*
G37*
G54D108*X209705Y306303D02*X212461D01*
G54D109*X216988Y308469D02*Y306697D01*
G54D108*X212461Y353350D02*X214823D01*
G54D109*X222106Y351776D02*X224272D01*
G54D110*X162500Y277000D02*Y273000D01*
X172500Y277000D02*Y273000D01*
X182500Y277000D02*Y273000D01*
X192500Y277000D02*Y273000D01*
X202500Y277000D02*Y273000D01*
G54D111*X302000Y345000D02*Y341000D01*
Y286000D02*Y282000D01*
G54D106*X220937Y293638D02*Y293244D01*
X226843Y293638D02*Y293244D01*
M02*
