G04 start of page 6 for group -4063 idx -4063 *
G04 Title: riffle, componentmask *
G04 Creator: pcb 20140316 *
G04 CreationDate: Tue 16 Sep 2014 07:13:16 PM GMT UTC *
G04 For: ben *
G04 Format: Gerber/RS-274X *
G04 PCB-Dimensions (mil): 6000.00 5000.00 *
G04 PCB-Coordinate-Origin: lower left *
%MOIN*%
%FSLAX25Y25*%
%LNTOPMASK*%
%ADD73R,0.0612X0.0612*%
%ADD72R,0.0157X0.0157*%
%ADD71R,0.0237X0.0237*%
%ADD70R,0.0300X0.0300*%
%ADD69R,0.0197X0.0197*%
%ADD68R,0.0230X0.0230*%
%ADD67R,0.0476X0.0476*%
%ADD66R,0.0476X0.0476*%
%ADD65R,0.0440X0.0440*%
%ADD64R,0.0572X0.0572*%
%ADD63R,0.0700X0.0700*%
%ADD62R,0.0106X0.0106*%
%ADD61R,0.0780X0.0780*%
%ADD60R,0.0258X0.0258*%
%ADD59R,0.0400X0.0400*%
%ADD58R,0.0336X0.0336*%
%ADD57R,0.0355X0.0355*%
%ADD56C,0.0001*%
%ADD55C,0.0660*%
G54D55*X262500Y345000D03*
X252500D03*
X262500Y355000D03*
X252500D03*
G54D56*G36*
X259200Y328300D02*Y321700D01*
X265800D01*
Y328300D01*
X259200D01*
G37*
G54D55*X252500Y325000D03*
X262500Y335000D03*
X252500D03*
G54D56*G36*
X119050Y373300D02*Y366700D01*
X125650D01*
Y373300D01*
X119050D01*
G37*
G54D55*X122350Y360000D03*
G54D56*G36*
X281700Y380800D02*Y374200D01*
X288300D01*
Y380800D01*
X281700D01*
G37*
G36*
X291700D02*Y374200D01*
X298300D01*
Y380800D01*
X291700D01*
G37*
G54D57*X134508Y344941D02*X135492D01*
X134508Y350059D02*X135492D01*
G54D58*X148953Y347197D02*Y346803D01*
X143047Y347197D02*Y346803D01*
X142047Y332697D02*Y332303D01*
X139803Y314547D02*X140197D01*
X139803Y320453D02*X140197D01*
X132303D02*X132697D01*
X132303Y314547D02*X132697D01*
X142047Y340197D02*Y339803D01*
X147953Y340197D02*Y339803D01*
Y332697D02*Y332303D01*
X147303Y314547D02*X147697D01*
X147303Y320453D02*X147697D01*
X152000Y303291D02*Y302898D01*
X146094Y303291D02*Y302898D01*
X129000Y293197D02*Y292803D01*
X123094Y293197D02*Y292803D01*
G54D59*X130700Y299200D02*X131300D01*
X130700Y307000D02*X131300D01*
X122500Y303100D02*X123100D01*
G54D60*X123465Y339547D02*X130945D01*
X123465Y336988D02*X130945D01*
X123465Y334429D02*X130945D01*
X123465Y331870D02*X130945D01*
X123465Y329311D02*X130945D01*
G54D61*X115000Y320453D02*Y318878D01*
Y330098D02*Y329902D01*
Y338957D02*Y338760D01*
Y349980D02*Y348406D01*
G54D58*X156500Y331697D02*Y331303D01*
X162406Y331697D02*Y331303D01*
X159803Y337382D02*X160197D01*
X159803Y343287D02*X160197D01*
X167756Y306094D02*X168150D01*
X167756Y312000D02*X168150D01*
X159803Y306594D02*X160197D01*
X159803Y312500D02*X160197D01*
X154803Y314547D02*X155197D01*
G54D62*X165453Y338327D02*X170689D01*
X165453Y336358D02*X170689D01*
X165453Y334390D02*X170689D01*
X165453Y332421D02*X170689D01*
X165453Y330453D02*X170689D01*
X165453Y328484D02*X170689D01*
X165453Y326516D02*X170689D01*
X165453Y324547D02*X170689D01*
X165453Y322579D02*X170689D01*
X165453Y320610D02*X170689D01*
X165453Y318642D02*X170689D01*
X165453Y316673D02*X170689D01*
G54D58*X154803Y320453D02*X155197D01*
G54D63*X162500Y277000D02*Y273000D01*
X172500Y277000D02*Y273000D01*
X182500Y277000D02*Y273000D01*
X192500Y277000D02*Y273000D01*
X202500Y277000D02*Y273000D01*
G54D64*X159586Y375393D02*Y374607D01*
G54D59*X187200Y380300D02*X187800D01*
X187200Y372500D02*X187800D01*
X195400Y376400D02*X196000D01*
G54D58*X192953Y365197D02*Y364803D01*
X187047Y365197D02*Y364803D01*
G54D65*X209900Y372500D02*X216200D01*
X209900Y367500D02*X216200D01*
X209900Y362500D02*X216200D01*
G54D62*X199311Y322579D02*X204547D01*
X199311Y324547D02*X204547D01*
X199311Y326516D02*X204547D01*
X199311Y328484D02*X204547D01*
X199311Y330453D02*X204547D01*
X199311Y332421D02*X204547D01*
X199311Y334390D02*X204547D01*
X199311Y336358D02*X204547D01*
X199311Y338327D02*X204547D01*
G54D65*X209900Y357500D02*X216200D01*
G54D62*X195827Y347047D02*Y341811D01*
X193858Y347047D02*Y341811D01*
X191890Y347047D02*Y341811D01*
X189921Y347047D02*Y341811D01*
X187953Y347047D02*Y341811D01*
X185984Y347047D02*Y341811D01*
X184016Y347047D02*Y341811D01*
X182047Y347047D02*Y341811D01*
X180079Y347047D02*Y341811D01*
X178110Y347047D02*Y341811D01*
X176142Y347047D02*Y341811D01*
X174173Y347047D02*Y341811D01*
G54D64*X159607Y366043D02*X160393D01*
X159607Y358957D02*X160393D01*
G54D58*X167000Y366197D02*Y365803D01*
G54D65*X151450Y358800D02*X153850D01*
X151450Y366200D02*X153850D01*
G54D64*X152500Y375393D02*Y374607D01*
G54D58*X145453Y375197D02*Y374803D01*
G54D57*X132008Y372559D02*X132992D01*
X132008Y367441D02*X132992D01*
G54D58*X129547Y380197D02*Y379803D01*
X135453Y380197D02*Y379803D01*
X139547Y375197D02*Y374803D01*
G54D65*X141150Y366200D02*X143550D01*
X141150Y362500D02*X143550D01*
X141150Y358800D02*X143550D01*
G54D58*X132303Y355000D02*X132697D01*
X132303Y360906D02*X132697D01*
X179803Y367047D02*X180197D01*
X179803Y372953D02*X180197D01*
X175000Y380650D02*Y380256D01*
X180906Y380650D02*Y380256D01*
X172906Y366197D02*Y365803D01*
X168858Y348197D02*Y347803D01*
X162953Y348197D02*Y347803D01*
X166803Y354047D02*X167197D01*
X166803Y359953D02*X167197D01*
X180953Y361197D02*Y360803D01*
X175047Y361197D02*Y360803D01*
G54D66*X265433Y274000D02*X269567D01*
X281771D02*X285905D01*
X265433Y285024D02*X269567D01*
X281771D02*X285905D01*
G54D67*X257102Y273988D02*X261236D01*
X257102Y285012D02*X261236D01*
G54D58*X303803Y284047D02*X304197D01*
X303803Y289953D02*X304197D01*
G54D68*X288811Y293544D02*X293417D01*
X288811Y296103D02*X293417D01*
X288811Y298662D02*X293417D01*
X288811Y301221D02*X293417D01*
X265583D02*X270189D01*
X265583Y298662D02*X270189D01*
X265583Y296103D02*X270189D01*
X265583Y293544D02*X270189D01*
G54D58*X305953Y296197D02*Y295803D01*
Y301197D02*Y300803D01*
X300047Y296197D02*Y295803D01*
Y306197D02*Y305803D01*
Y301197D02*Y300803D01*
X305953Y311197D02*Y310803D01*
Y306197D02*Y305803D01*
X300047Y311197D02*Y310803D01*
G54D68*X288811Y311456D02*X293417D01*
X288811Y303779D02*X293417D01*
X265583D02*X270189D01*
X288811Y306338D02*X293417D01*
X288811Y308897D02*X293417D01*
X265583Y306338D02*X270189D01*
X265583Y311456D02*X270189D01*
X265583Y308897D02*X270189D01*
G54D69*X251437Y312874D02*Y308858D01*
X249469Y312874D02*Y308858D01*
X247500Y312874D02*Y308858D01*
X245531Y312874D02*Y308858D01*
X243563Y312874D02*Y308858D01*
X251437Y301142D02*Y297126D01*
X249469Y301142D02*Y297126D01*
X247500Y301142D02*Y297126D01*
X251358Y303031D02*X255374D01*
X251358Y305000D02*X255374D01*
X251358Y306969D02*X255374D01*
X239626Y305000D02*X243642D01*
X239626Y306969D02*X243642D01*
X245531Y301142D02*Y297126D01*
X243563Y301142D02*Y297126D01*
X239626Y303031D02*X243642D01*
G54D58*X245000Y292697D02*Y292303D01*
X239094Y292697D02*Y292303D01*
G54D67*X240764Y273988D02*X244898D01*
X240764Y285012D02*X244898D01*
G54D58*X298406Y340197D02*Y339803D01*
X292500Y340197D02*Y339803D01*
X297953Y332697D02*Y332303D01*
X292047Y332697D02*Y332303D01*
G54D70*X276700Y338600D02*X278300D01*
X276700Y334700D02*X278300D01*
X284900D02*X286500D01*
G54D58*X270803Y333000D02*X271197D01*
X270803Y327094D02*X271197D01*
X277303Y350000D02*X277697D01*
X277303Y355906D02*X277697D01*
G54D70*X276700Y342500D02*X278300D01*
G54D58*X272303Y354547D02*X272697D01*
X272303Y360453D02*X272697D01*
G54D70*X284900Y338600D02*X286500D01*
X284900Y342500D02*X286500D01*
G54D71*X283406Y363839D02*X286358D01*
X283406Y361280D02*X286358D01*
X283406Y358720D02*X286358D01*
X283406Y356161D02*X286358D01*
G54D58*X302303Y354547D02*X302697D01*
X302303Y360453D02*X302697D01*
G54D71*X293642Y356161D02*X296594D01*
X293642Y358720D02*X296594D01*
X293642Y361280D02*X296594D01*
X293642Y363839D02*X296594D01*
G54D58*X292500Y347697D02*Y347303D01*
X298406Y347697D02*Y347303D01*
X304803Y373406D02*X305197D01*
X304803Y367500D02*X305197D01*
X274803Y376811D02*X275197D01*
X257953Y370197D02*Y369803D01*
X252047Y370197D02*Y369803D01*
X262500Y375197D02*Y374803D01*
X268406Y375197D02*Y374803D01*
X274803Y370906D02*X275197D01*
G54D65*X228800Y357500D02*X245500D01*
X228800Y362500D02*X245500D01*
X228800Y367500D02*X245500D01*
X228800Y372500D02*X245500D01*
G54D58*X226547Y327697D02*Y327303D01*
X232453Y327697D02*Y327303D01*
X214547Y327697D02*Y327303D01*
X220453Y327697D02*Y327303D01*
X234803Y315906D02*X235197D01*
X234803Y310000D02*X235197D01*
X210803Y309000D02*X211197D01*
X210803Y314906D02*X211197D01*
G54D70*X226400Y311000D02*X228000D01*
X218200Y314900D02*X219800D01*
X218200Y311000D02*X219800D01*
X226400Y314900D02*X228000D01*
X226400Y318800D02*X228000D01*
X218200D02*X219800D01*
G54D58*X213906Y304197D02*Y303803D01*
X208000Y304197D02*Y303803D01*
G54D62*X199311Y316673D02*X204547D01*
X199311Y318642D02*X204547D01*
X199311Y320610D02*X204547D01*
G54D72*X216772Y293441D02*X221102D01*
X208898D02*X213228D01*
X216772Y296000D02*X221102D01*
X208898D02*X213228D01*
X216772Y298559D02*X221102D01*
X208898D02*X213228D01*
G54D62*X174173Y313189D02*Y307953D01*
X176142Y313189D02*Y307953D01*
X178110Y313189D02*Y307953D01*
X180079Y313189D02*Y307953D01*
X182047Y313189D02*Y307953D01*
G54D73*X170000Y293000D02*X176000D01*
X170000Y300000D02*X176000D01*
G54D62*X184016Y313189D02*Y307953D01*
X185984Y313189D02*Y307953D01*
X187953Y313189D02*Y307953D01*
X189921Y313189D02*Y307953D01*
X191890Y313189D02*Y307953D01*
X193858Y313189D02*Y307953D01*
X195827Y313189D02*Y307953D01*
M02*
