G04 start of page 7 for group -4062 idx -4062 *
G04 Title: riffle, soldermask *
G04 Creator: pcb 1.99z *
G04 CreationDate: Tue 11 Mar 2014 07:33:07 PM GMT UTC *
G04 For: ben *
G04 Format: Gerber/RS-274X *
G04 PCB-Dimensions (mil): 6000.00 5000.00 *
G04 PCB-Coordinate-Origin: lower left *
%MOIN*%
%FSLAX25Y25*%
%LNBOTTOMMASK*%
%ADD64R,0.0336X0.0336*%
%ADD63R,0.0594X0.0594*%
%ADD62C,0.0660*%
%ADD61C,0.0001*%
G54D61*G36*
X124200Y373300D02*Y366700D01*
X130800D01*
Y373300D01*
X124200D01*
G37*
G54D62*X127500Y360000D03*
G54D61*G36*
X131700Y293300D02*Y286700D01*
X138300D01*
Y293300D01*
X131700D01*
G37*
G54D62*X145000Y290000D03*
X155000D03*
G54D61*G36*
X124200Y303800D02*Y297200D01*
X130800D01*
Y303800D01*
X124200D01*
G37*
G54D62*X127500Y310500D03*
G54D61*G36*
X164200Y293300D02*Y286700D01*
X170800D01*
Y293300D01*
X164200D01*
G37*
G54D62*X177500Y290000D03*
G54D61*G36*
X279200Y378300D02*Y371700D01*
X285800D01*
Y378300D01*
X279200D01*
G37*
G54D62*X282500Y365000D03*
G54D61*G36*
X261700Y318300D02*Y311700D01*
X268300D01*
Y318300D01*
X261700D01*
G37*
G54D62*X277500Y312500D03*
X287500D03*
X265000Y325000D03*
Y335000D03*
Y345000D03*
X255000Y325000D03*
Y335000D03*
Y345000D03*
G54D61*G36*
X274200Y355800D02*Y349200D01*
X280800D01*
Y355800D01*
X274200D01*
G37*
G54D62*X287500Y352500D03*
X277500Y342500D03*
X287500D03*
X277500Y332500D03*
X287500D03*
X277500Y322500D03*
X287500D03*
X255000Y315000D03*
G54D61*G36*
X209200Y293300D02*Y286700D01*
X215800D01*
Y293300D01*
X209200D01*
G37*
G54D62*X222500Y290000D03*
X232500D03*
X187500D03*
X197500D03*
G54D63*X164724Y354272D02*Y352106D01*
G54D64*X182047Y297697D02*Y297303D01*
X187953Y297697D02*Y297303D01*
X180453Y302697D02*Y302303D01*
X174547Y302697D02*Y302303D01*
G54D61*G36*
X161559Y314130D02*Y308193D01*
X167496D01*
Y314130D01*
X161559D01*
G37*
G54D63*X163150Y344823D02*Y342461D01*
X182835Y312539D02*Y308602D01*
X178504Y312539D02*Y308602D01*
X174173Y312539D02*Y308602D01*
X191496Y312539D02*Y308602D01*
X187165Y312539D02*Y308602D01*
G54D61*G36*
X206244Y314524D02*Y308587D01*
X212181D01*
Y314524D01*
X206244D01*
G37*
G54D63*X195827Y312539D02*Y308602D01*
X204488Y312539D02*Y308602D01*
X200157Y312539D02*Y308602D01*
X210197Y342461D02*Y339705D01*
X208031Y346988D02*X209803D01*
M02*
