G04 start of page 2 for group 0 idx 0 *
G04 Title: riffle, top *
G04 Creator: pcb 20140316 *
G04 CreationDate: Fri 18 Apr 2014 06:34:42 PM GMT UTC *
G04 For: ben *
G04 Format: Gerber/RS-274X *
G04 PCB-Dimensions (mil): 6000.00 5000.00 *
G04 PCB-Coordinate-Origin: lower left *
%MOIN*%
%FSLAX25Y25*%
%LNTOP*%
%ADD31C,0.0380*%
%ADD30C,0.0150*%
%ADD29C,0.0350*%
%ADD28C,0.0200*%
%ADD27C,0.0340*%
%ADD26C,0.0360*%
%ADD25R,0.0410X0.0410*%
%ADD24R,0.0748X0.0748*%
%ADD23R,0.0157X0.0157*%
%ADD22R,0.0118X0.0118*%
%ADD21R,0.0276X0.0276*%
%ADD20R,0.0106X0.0106*%
%ADD19R,0.0512X0.0512*%
%ADD18R,0.0295X0.0295*%
%ADD17R,0.0340X0.0340*%
%ADD16R,0.0276X0.0276*%
%ADD15R,0.0240X0.0240*%
%ADD14C,0.0600*%
%ADD13C,0.0001*%
%ADD12C,0.0250*%
%ADD11C,0.0100*%
G54D11*X178110Y350890D02*Y355992D01*
X182047Y350453D02*Y353547D01*
X180079Y350921D02*Y354579D01*
X184016Y352016D02*X184500Y352500D01*
X185984Y344232D02*Y348484D01*
X187000Y349500D01*
X184016Y343641D02*Y352016D01*
X176142Y344232D02*Y347858D01*
X180079Y343641D02*Y351079D01*
X182047Y343641D02*Y350547D01*
X176142Y347858D02*X173000Y351000D01*
X185500Y353500D02*X184016Y352016D01*
X213050Y372500D02*X208000D01*
X206000Y364000D02*Y366000D01*
X207500Y367500D01*
X206000Y364000D02*X196500Y354500D01*
X194500Y358500D02*X195250Y359250D01*
X195500Y356500D02*X204000Y365000D01*
X194500Y358500D02*X202000Y366000D01*
X205000Y360000D02*X197500Y352500D01*
X203500Y350000D02*X203000D01*
X196500Y348500D02*X201500D01*
X203000Y350000D01*
X200000Y352500D02*X198000Y350500D01*
X192559Y362000D02*Y368259D01*
X195700Y371400D01*
X213050Y357500D02*X208500D01*
X207000Y356000D01*
X196500Y354500D02*X194000D01*
X197500Y352500D02*X194500D01*
X195000Y350000D02*X193858Y348858D01*
X195500Y350500D01*
X198000D02*X195500D01*
X194500Y358500D02*X184000D01*
X195500Y356500D02*X185000D01*
X194000Y354500D02*X189921Y350421D01*
X189000Y353500D02*X185500D01*
X192000Y350000D02*X191890Y349890D01*
X185000Y362000D02*X187441D01*
X184000D02*X180953D01*
X182000Y366441D02*X181441D01*
X186000Y369000D02*X187500Y367500D01*
G54D12*X175047Y361000D02*X174000D01*
X173000Y360000D01*
X172906Y366000D02*X176000D01*
X167000Y354047D02*X169953D01*
X170000Y354000D01*
G54D11*X181441Y366441D02*X178000Y363000D01*
Y356000D01*
X178110Y355890D01*
X180079Y354579D02*X184000Y358500D01*
X182047Y353547D02*X185000Y356500D01*
X175752Y372346D02*X175000Y371594D01*
X175752Y372346D02*X184546D01*
X172000Y369000D02*X186000D01*
X175000Y377500D02*X172000Y374500D01*
Y369000D01*
X168500Y378000D02*X172000Y374500D01*
X168858Y334390D02*X154449D01*
X161024Y336358D02*X160000Y337382D01*
X161024Y336358D02*X168071Y336358D01*
X156500Y331500D02*X154500D01*
X154000Y315000D02*Y317000D01*
X153953Y317047D01*
X160000Y350000D02*X161000Y351000D01*
X160000Y350000D02*X160953D01*
G54D12*X168000Y339250D02*X164750D01*
G54D11*X168858Y338327D02*X166673D01*
X167000Y348000D02*X168858D01*
X160953Y350000D02*X162953Y348000D01*
X191890Y349890D02*X194500Y352500D01*
X195827Y344232D02*Y347827D01*
X196500Y348500D01*
X201732Y332421D02*X197579D01*
X197000Y333000D01*
Y339500D01*
X198000Y340500D01*
Y343000D01*
X201000Y346000D01*
X209953Y324547D02*X212250Y322250D01*
X201929Y318642D02*X206358D01*
X207500Y317500D01*
Y316000D02*Y317500D01*
X209500Y319500D02*X208390Y320610D01*
X209500Y315500D02*Y319500D01*
X211500Y320500D02*Y314500D01*
Y316500D02*Y314500D01*
X201929Y316673D02*X203327D01*
X201929D02*X199000Y313744D01*
X195827Y316173D02*X195000Y317000D01*
X161000Y351000D02*X173000D01*
X174000Y335000D02*X177000Y332000D01*
Y328000D01*
X175000Y326000D01*
X168268Y332421D02*X172579D01*
X174000Y331000D01*
Y335000D02*Y335500D01*
G54D12*X180000Y337000D02*Y316000D01*
X177750Y339250D02*X168250D01*
X177750D02*X180000Y337000D01*
G54D11*X172000Y343000D02*X172744D01*
X174173Y344429D01*
G54D12*X153700Y365000D02*X160000D01*
X160086Y367286D02*X159000Y366200D01*
X152500D02*X153700Y365000D01*
X142350Y362500D02*X147500D01*
X142350Y366200D02*X149150Y373000D01*
G54D11*X142047Y372500D02*Y373047D01*
X144000Y375000D01*
G54D12*X152500Y366200D02*X153800Y367500D01*
X153000Y373000D02*X149000D01*
X149150D02*X150000D01*
G54D11*X141000Y378000D02*X168500D01*
G54D12*X167000Y372000D02*X167500Y372500D01*
X137409Y365850D02*X136000Y364441D01*
X142000Y365850D02*X137409D01*
X136000Y360953D02*Y364441D01*
X135118Y365000D02*X136000Y365882D01*
G54D11*Y373000D02*X141000Y378000D01*
G54D12*X130000Y377000D02*X133000D01*
D03*
G54D11*X136000Y373000D02*Y371000D01*
G54D12*X128500D01*
X142200Y358800D02*X138153D01*
X136000Y360953D01*
X152650Y366200D02*X159843D01*
X153800Y367500D02*X160000D01*
X160086Y373000D02*Y367286D01*
X167000Y362000D02*Y372000D01*
X160000Y358957D02*X163957D01*
X160000D02*X164094D01*
X160059Y359941D02*X160000Y360000D01*
X167000Y362000D02*X163957Y358957D01*
X142800Y358800D02*X143200D01*
X145559Y356441D01*
X152000Y358800D02*X154500Y356300D01*
X152500Y358800D02*X153800Y357500D01*
X152500Y358800D02*X153700Y360000D01*
X153800Y357500D02*X160000D01*
X153700Y360000D02*X160000D01*
X159843Y358800D02*X160000Y358957D01*
X152650Y358800D02*X159843D01*
X128500Y371000D02*X127500Y370000D01*
Y360000D02*Y359500D01*
X136000Y355047D02*X131953D01*
X135118Y365000D02*X122000D01*
X120000Y363000D01*
Y359000D01*
X121000Y358000D01*
X127500Y359500D02*X131953Y355047D01*
X140441Y354000D02*X140000Y353559D01*
X145559Y356441D02*Y354000D01*
X140000Y353559D02*Y341189D01*
G54D11*X143047Y347000D02*X140000D01*
G54D12*X137000Y345000D02*X140000D01*
X154000Y356000D02*Y350000D01*
X164750Y339250D02*X154000Y350000D01*
G54D11*X148953Y347000D02*X151000D01*
X135413Y337559D02*X142823D01*
X144823Y339559D01*
X152500Y337500D02*Y337787D01*
X150728Y339559D01*
X168268Y322579D02*X160421D01*
X160000Y323000D01*
X168268Y330453D02*X163453D01*
X162406Y331500D01*
X168268Y328484D02*X149484D01*
G54D12*X154000Y322953D02*X149953D01*
X148000Y321000D01*
Y317000D01*
G54D11*X184016Y347484D02*Y343641D01*
X201000Y346000D02*X203000D01*
X178110Y343641D02*Y352110D01*
X193858Y340142D02*Y348858D01*
X189921Y350421D02*Y335921D01*
X191890Y349890D02*Y333110D01*
X187953Y344429D02*Y338953D01*
X187000Y338000D01*
X201732Y328484D02*X208516Y328484D01*
X201732Y334390D02*X209390Y334390D01*
X195000Y339000D02*X193858Y340142D01*
X195000Y339000D02*Y331000D01*
X191890Y333110D02*X192000Y333000D01*
X195000Y331000D02*X190000Y326000D01*
X186000D01*
X189921Y335921D02*X183000Y329000D01*
Y323000D01*
Y324000D02*Y323000D01*
X201732Y322579D02*X209421D01*
X201732Y320610D02*X208390D01*
X208516Y328484D02*X213563D01*
X211000Y326516D02*X213516Y324000D01*
X210984Y326516D02*X213516Y324000D01*
X209000Y334390D02*X218610D01*
X201732Y330453D02*X234547Y330453D01*
X213563Y328484D02*X214547Y327500D01*
X212250Y322250D02*X228750D01*
X220453Y327500D02*X226547D01*
X213516Y324000D02*X230000D01*
X207516Y326516D02*X210984D01*
X201732Y326516D02*X207484Y326516D01*
X201929Y324547D02*X209953D01*
X210000Y324500D01*
X211500Y320500D02*X209421Y322579D01*
X230500Y327500D02*X232453D01*
X242500Y357500D02*X247500Y352500D01*
X240000Y355000D02*X236000D01*
X246000Y362500D02*X248000Y360500D01*
Y354500D01*
X247500Y365000D02*X250000Y362500D01*
X248750Y368750D02*X251500Y366000D01*
X253500D01*
X250000Y362500D02*Y355000D01*
X248750Y368750D02*Y373750D01*
X247500Y375000D01*
X251250Y373750D02*Y371750D01*
X253000Y370000D01*
G54D12*X277500Y352500D02*X267300D01*
G54D11*X268000Y358559D02*X270441D01*
X271000Y358000D01*
X277500Y357500D02*X271000Y364000D01*
X277500Y357500D02*X282500D01*
G54D12*X261700Y359300D02*X268000Y353000D01*
G54D11*X282500Y357500D02*X287500Y352500D01*
X257500Y355000D02*X262500Y350000D01*
X255000Y352500D02*X257500Y350000D01*
X262500D02*Y345000D01*
X257500Y350000D02*Y340000D01*
X282500Y375000D02*X257500D01*
X255000Y373000D02*X255500D01*
X257500Y375000D02*X255500Y373000D01*
X270000Y370000D02*X271000Y369000D01*
Y364000D01*
X273118Y367441D02*Y366882D01*
X275000Y365000D01*
X253000Y370000D02*X270000D01*
G54D12*X267858Y367000D02*X267953Y366906D01*
X261700Y362100D02*Y359300D01*
X259000Y367000D02*X267858D01*
X257500Y365500D02*X259000Y367000D01*
X257500Y363500D02*Y365500D01*
X256000Y362000D02*X257500Y363500D01*
X256000Y360000D02*Y362000D01*
X254200Y358200D02*X256000Y360000D01*
X253500Y358200D02*X254200D01*
G54D11*X250000Y355000D02*X257500D01*
X250000Y352500D02*X255000D01*
X247500D02*Y350500D01*
X248000Y350000D01*
X244000Y348000D02*X247000Y345000D01*
X252500D01*
X237000Y351000D02*Y344000D01*
X250000Y340000D02*X254000D01*
X237000Y344000D02*X240000Y341000D01*
Y340000D01*
X282500Y325000D03*
X287500Y332500D02*Y330000D01*
X282500Y325000D01*
X292500Y335000D02*X290000Y337500D01*
X285000D01*
X280000Y332500D01*
X270000Y334000D02*X273000Y337000D01*
X280000D01*
X285500Y342500D01*
X287500D01*
X280000Y332500D02*X277500D01*
X292500Y335000D02*Y306500D01*
X291000Y305000D01*
X272000Y309000D02*Y317000D01*
X273000Y305000D02*X275000D01*
X282500Y309500D02*X279000Y306000D01*
Y304000D02*X281000Y302000D01*
X288000D01*
X279000Y304000D02*Y306000D01*
X293000Y303000D02*X291000Y305000D01*
X293000Y303000D02*Y279500D01*
X291000Y280500D02*Y299000D01*
X288000Y302000D02*X291000Y299000D01*
X289000Y289500D02*Y296000D01*
X288959Y281929D02*X289000Y289500D01*
X285000Y297000D02*Y286186D01*
X283838Y285024D01*
X283000Y299000D02*X285000Y297000D01*
X289000Y296000D02*X288000Y297000D01*
X287530Y280500D02*X288959Y281929D01*
X289000Y278500D02*X291000Y280500D01*
X290000Y276500D02*X293000Y279500D01*
X282500Y325000D02*Y309500D01*
X260000Y320000D02*X267000D01*
X270000Y323000D01*
Y334000D01*
X266000Y308000D02*Y305000D01*
Y308000D02*X267000Y309000D01*
X268000Y304000D02*Y305000D01*
X272000Y309000D01*
X268000Y304000D02*X265000Y301000D01*
G54D12*X262500Y315000D02*Y307547D01*
G54D11*X254000Y301000D02*X265000D01*
X253000Y299000D02*X283000D01*
X266000Y305000D02*X264250Y303250D01*
X254250D01*
G54D12*X262500Y307547D02*X261953Y307000D01*
G54D11*X207500Y367500D02*X222500D01*
X202000Y366000D02*Y376000D01*
X204000Y374000D02*X205000Y375000D01*
X204000Y365000D02*Y374000D01*
X203500Y377500D02*X202000Y376000D01*
X218500Y362500D02*X220000Y364000D01*
Y360000D02*X205000D01*
X213050Y362500D02*X218500D01*
X205000Y375000D02*X247500D01*
X251250Y373750D02*X247500Y377500D01*
X184546Y372346D02*X187500Y375300D01*
G54D12*X237150Y372500D02*X230000D01*
G54D11*X203500Y377500D02*X247500D01*
X228000Y339000D02*X234000D01*
X235000Y340000D01*
X234547Y330453D02*X239000Y326000D01*
X228750Y322250D02*X231000Y320000D01*
X230000Y324000D02*X231500Y322500D01*
X245000D01*
X231000Y320000D02*X244000D01*
X218610Y334390D02*X220500Y332500D01*
X220000Y360000D02*X222500Y357500D01*
X201732Y336358D02*X223642Y336358D01*
X201732Y338327D02*X225673Y338327D01*
X225000Y342000D02*X201000D01*
X223642Y336358D02*X225000Y335000D01*
X225673Y338327D02*X227000Y337000D01*
X228000Y339000D02*X225000Y342000D01*
X203000Y350000D02*X231000D01*
X236000Y355000D01*
X200000Y352500D02*X229000D01*
X229500Y353000D01*
X222500Y367500D02*X225000Y365000D01*
X227500Y362500D02*X226000Y361000D01*
G54D12*X230000Y367500D02*X227500Y370000D01*
X230000Y372500D02*X227500Y370000D01*
G54D11*X225000Y365000D02*X247500D01*
G54D12*X237150Y367500D02*X230000D01*
G54D11*X242500Y357500D02*X222500D01*
X227500Y362500D02*X246000D01*
X248000Y354500D02*X250000Y352500D01*
X240000Y355000D02*X244000Y351000D01*
Y348000D01*
X249000Y289500D02*X252000Y286500D01*
X259169Y286669D02*X260000Y287500D01*
X259169Y285012D02*Y286669D01*
X252000Y282500D02*X254000Y280500D01*
X252000Y286500D02*Y282500D01*
X267500Y274000D02*X273500D01*
X274000Y273500D01*
X283338D01*
X283838Y274000D01*
X254000Y280500D02*X287530D01*
X289000Y278500D02*X248500D01*
X236500Y276500D02*X290000D01*
X267500Y285024D02*X283838D01*
X238000Y282000D02*X245000D01*
X248500Y278500D01*
X239488Y285012D02*X238000Y286500D01*
X242831Y285012D02*X239488D01*
X235000Y285000D02*X227500D01*
X249000Y289500D02*X217500D01*
X242831Y273988D02*X259169D01*
X241343Y272500D02*X242831Y273988D01*
X210000Y272500D02*X241343D01*
X235000Y275000D02*X217500D01*
X236500Y276500D02*X236250Y276250D01*
X236500Y276500D02*X235250Y275250D01*
X235000Y275000D02*X236500Y276500D01*
X235000Y285000D02*X238000Y282000D01*
X254250Y303250D02*X248000Y309500D01*
X246000Y309000D02*X254000Y301000D01*
X243000Y315000D02*Y309000D01*
X253000Y299000D01*
G54D12*X252500Y315000D02*Y310547D01*
X256047Y307000D01*
G54D11*X233900Y300000D02*X234000Y299900D01*
X239000Y300000D02*X242100D01*
X242200Y299900D01*
X234000D02*Y303800D01*
Y293000D02*Y296000D01*
X242200D02*Y293200D01*
X242000Y293000D01*
X218000Y284500D02*X214500D01*
X205000Y294000D02*X214500Y284500D01*
X214000Y291000D02*X216000D01*
X217500Y289500D01*
X218000Y284500D02*X222500Y280000D01*
X227500Y285000D02*X222500Y280000D01*
X212500D02*X217500Y275000D01*
X218031Y299528D02*Y295969D01*
X220000Y294000D01*
X221969Y295969D02*X220000Y294000D01*
X221969Y299528D02*Y295969D01*
X257500Y330000D02*X262500Y325000D01*
X254000Y330000D02*X257000Y327000D01*
Y323000D01*
X260000Y320000D01*
X257500Y340000D02*X262500Y335000D01*
X257500Y336500D02*X254000Y340000D01*
X225000Y335000D02*X243000D01*
X220500Y332500D02*X242500D01*
X227000Y337000D02*X247000D01*
X250000Y340000D01*
X257500Y330000D02*Y336500D01*
X243000Y335000D02*X248000Y330000D01*
X254000D01*
X242500Y332500D02*X250000Y325000D01*
X252500D01*
X248000Y309500D02*Y319500D01*
X245000Y322500D01*
X244000Y320000D02*X246000Y318000D01*
Y309000D01*
X221969Y317969D02*X222000Y318000D01*
X223937Y310472D02*X231813D01*
X232906Y316594D02*X235406D01*
X235500Y316500D01*
X223937Y310472D02*Y313531D01*
X227000Y316594D01*
X195827Y310571D02*Y316173D01*
X211500Y314500D02*X207000Y310000D01*
X212028Y310472D02*X212000Y310500D01*
X216063Y310472D02*X212028D01*
X218000Y310504D02*X218031Y310472D01*
X216094Y318000D02*X218000D01*
X221969Y310472D02*Y317969D01*
X218031Y310866D02*Y313969D01*
X217000Y315000D01*
X211500D01*
X233575Y307575D02*Y308711D01*
X231813Y310472D02*X233575Y308711D01*
X230000Y304000D02*Y307000D01*
X233000Y310000D01*
X214134Y305000D02*X211000D01*
X210000Y304000D01*
X214134Y306969D02*X209969D01*
X208000Y305000D01*
X233643Y308643D02*X232000Y310285D01*
X208000Y305000D02*Y297000D01*
X210000Y304000D02*Y302000D01*
X212000Y300000D01*
X213000D01*
X225866Y303031D02*X229031D01*
X230000Y304000D01*
Y300000D02*X233900D01*
X184016Y311358D02*Y296516D01*
X182047Y287047D02*Y297953D01*
X184016Y297500D02*Y286516D01*
X186000Y281500D02*Y310555D01*
X187953Y310571D02*Y287547D01*
X180079Y315921D02*X180000Y316000D01*
X185984Y301516D02*Y311358D01*
X193858Y310571D02*Y305142D01*
X186000Y310555D02*X185984Y310571D01*
X190000Y319000D02*X187000D01*
X183000Y323000D01*
X189921Y310571D02*Y297079D01*
X191500Y316000D02*X191890Y315610D01*
Y310768D02*Y315610D01*
X191890D01*
X180000Y316000D02*X191500D01*
X199000Y303000D02*X196000Y300000D01*
Y293000D01*
X198000Y294000D02*Y299000D01*
X201000Y302000D01*
X200000Y298000D02*Y295000D01*
X189921Y297079D02*Y291579D01*
X205000Y284000D02*X196000Y293000D01*
X207500Y284500D02*X198000Y294000D01*
X200000Y295000D02*X212500Y282500D01*
X190750Y284750D02*X187953Y287547D01*
X199250Y284750D02*X190750D01*
X187953Y287547D02*X190750Y284750D01*
X207500Y275000D02*Y284500D01*
Y275000D02*X210000Y272500D01*
X212500Y282500D02*Y280000D01*
X205000Y284000D02*Y275500D01*
X202500Y277500D02*X200000Y275000D01*
X202500Y281500D02*Y277500D01*
X205000Y275500D02*X202000Y272500D01*
X199250Y284750D02*X202500Y281500D01*
X193858Y305142D02*X194000Y305000D01*
X199000Y313744D02*Y303000D01*
X201000Y302000D02*Y313000D01*
X203000Y311000D02*Y301000D01*
X200000Y298000D01*
X201000Y313000D02*X202000Y314000D01*
X205500D01*
X204000Y312000D02*X203000Y311000D01*
X205500Y314000D02*X207500Y316000D01*
X209500Y315500D02*X206000Y312000D01*
X204000D01*
X207000Y310000D02*X206000D01*
X205000Y309000D01*
Y294000D01*
X144882Y332000D02*X142768Y334114D01*
X150000Y332000D02*X152390Y334390D01*
X154500D01*
X135413Y340118D02*X140118D01*
X140000Y345000D01*
G54D12*X137500D02*X140000D01*
G54D11*X135413Y335000D02*X141882D01*
X135413Y329882D02*X140118D01*
X142500Y327500D02*X140118Y329882D01*
G54D12*X140000Y341189D02*X140094Y341094D01*
G54D11*X141882Y335000D02*X142768Y334114D01*
G54D12*X148000Y327000D02*X143500Y322500D01*
X140000D01*
G54D11*X152000Y304094D02*X153906D01*
X154000Y304000D01*
X149484Y328484D02*X148000Y327000D01*
G54D12*X132500Y319500D02*X135000Y317000D01*
X134000Y318000D02*X135000Y317000D01*
X142094D02*X135000D01*
X131000Y307000D02*X134000Y310000D01*
X137094D01*
X132500Y308500D02*X131000Y307000D01*
X132500Y325000D02*Y308500D01*
X146100Y303100D02*X151000Y308000D01*
X123094Y293000D02*Y302806D01*
X122800Y303100D01*
X129000Y293000D02*X132000D01*
G54D11*X126000Y297000D02*X128200Y299200D01*
X131000D01*
X128000Y272500D02*X126000Y274500D01*
Y297000D01*
X150000Y275000D02*X145000Y280000D01*
X140000Y285000D02*X135000Y280000D01*
G54D12*X146094Y303094D02*X146089Y303100D01*
X122800D01*
G54D11*X200000Y275000D02*X150000D01*
X202000Y272500D02*X128000D01*
X186000Y281500D02*X187500Y280000D01*
X180000Y285000D02*X140000D01*
X165642Y318642D02*X164000Y317000D01*
X168858Y316673D02*X164327D01*
X164000Y317000D01*
X166000Y315000D02*X165000Y314000D01*
X168858Y318642D02*X165642D01*
X162047Y312000D02*X159000D01*
G54D12*X160000Y317047D02*X155047D01*
X155000Y317000D01*
X160000D02*X159953Y317047D01*
G54D11*X168268Y320610D02*X162390D01*
X160000Y323000D01*
G54D12*X163500Y317000D02*X160000D01*
X155000Y323000D02*X160000D01*
G54D11*X175000Y326000D02*Y318000D01*
X172000Y315000D01*
X174173Y310768D02*X169350D01*
X167618Y312500D01*
X172000Y315000D02*X166000D01*
X165000Y314000D02*Y310000D01*
Y311000D02*Y309000D01*
X168000Y306000D01*
X164900Y297200D02*Y300900D01*
X157100Y297200D02*Y300900D01*
X157000Y301000D01*
G54D12*X149000Y290000D02*X160000D01*
X161000Y289000D01*
G54D11*X164900Y300900D02*X165000Y301000D01*
G54D12*X159000Y306000D02*X162000D01*
X151000Y308000D02*X157000D01*
X159000Y306000D02*X157000Y308000D01*
G54D11*X182047Y311358D02*Y297047D01*
X178110Y310571D02*Y306890D01*
X180000Y305000D01*
Y296000D01*
X180079Y310571D02*Y315921D01*
X184016Y286516D02*X177500Y280000D01*
X182047Y287047D02*X180000Y285000D01*
X186000Y294000D02*Y294500D01*
X180000Y296000D02*X177000Y293000D01*
X173000D01*
X176142Y310571D02*Y303142D01*
X173000Y300000D01*
G54D13*G36*
X124500Y373000D02*Y367000D01*
X130500D01*
Y373000D01*
X124500D01*
G37*
G54D14*X127500Y360000D03*
G54D13*G36*
X209500Y283000D02*Y277000D01*
X215500D01*
Y283000D01*
X209500D01*
G37*
G54D14*X222500Y280000D03*
X232500D03*
G54D13*G36*
X164500Y283000D02*Y277000D01*
X170500D01*
Y283000D01*
X164500D01*
G37*
G36*
X132000D02*Y277000D01*
X138000D01*
Y283000D01*
X132000D01*
G37*
G54D14*X145000Y280000D03*
X155000D03*
G54D13*G36*
X136000Y293000D02*Y287000D01*
X142000D01*
Y293000D01*
X136000D01*
G37*
G54D14*X149000Y290000D03*
X177500Y280000D03*
X187500D03*
X197500D03*
G54D13*G36*
X279500Y378000D02*Y372000D01*
X285500D01*
Y378000D01*
X279500D01*
G37*
G54D14*X282500Y365000D03*
G54D13*G36*
X274500Y355500D02*Y349500D01*
X280500D01*
Y355500D01*
X274500D01*
G37*
G54D14*X287500Y352500D03*
X277500Y342500D03*
X287500D03*
X277500Y332500D03*
X262500Y335000D03*
X252500D03*
X262500Y345000D03*
X252500D03*
X287500Y332500D03*
X277500Y322500D03*
Y312500D03*
G54D13*G36*
X259500Y318000D02*Y312000D01*
X265500D01*
Y318000D01*
X259500D01*
G37*
G54D14*X252500Y315000D03*
X262500Y325000D03*
X252500D03*
X287500Y322500D03*
Y312500D03*
G54D15*X141150Y366200D02*X143550D01*
X151450D02*X153850D01*
G54D16*X172906Y366197D02*Y365803D01*
X167000Y366197D02*Y365803D01*
G54D17*X187200Y375300D02*X187800D01*
X187200Y367500D02*X187800D01*
X195400Y371400D02*X196000D01*
G54D16*X192559Y362197D02*Y361803D01*
X186654Y362197D02*Y361803D01*
X180803Y366441D02*X181197D01*
X180953Y361197D02*Y360803D01*
X166803Y359953D02*X167197D01*
X180803Y372346D02*X181197D01*
X142047Y372697D02*Y372303D01*
X147953Y372697D02*Y372303D01*
X174803Y377500D02*X175197D01*
X174803Y371594D02*X175197D01*
X175047Y361197D02*Y360803D01*
G54D15*X209900Y372500D02*X216200D01*
X209900Y367500D02*X216200D01*
X209900Y362500D02*X216200D01*
X209900Y357500D02*X216200D01*
G54D18*X135508Y371000D02*X136492D01*
X135508Y365882D02*X136492D01*
G54D16*X133094Y377197D02*Y376803D01*
X139000Y377197D02*Y376803D01*
G54D19*X159607Y366043D02*X160393D01*
X159607Y358957D02*X160393D01*
X154000Y373393D02*Y372607D01*
X161086Y373393D02*Y372607D01*
G54D15*X141150Y362500D02*X143550D01*
X141150Y358800D02*X143550D01*
X151450D02*X153850D01*
G54D16*X135803Y355047D02*X136197D01*
X135803Y360953D02*X136197D01*
G54D18*X140441Y354492D02*Y353508D01*
G54D16*X144823Y339756D02*Y339362D01*
G54D18*X145559Y354492D02*Y353508D01*
G54D16*X168858Y348197D02*Y347803D01*
X162953Y348197D02*Y347803D01*
X148953Y347197D02*Y346803D01*
X143047Y347197D02*Y346803D01*
X166803Y354047D02*X167197D01*
X144882Y332197D02*Y331803D01*
X150787Y332197D02*Y331803D01*
X150728Y339756D02*Y339362D01*
X156500Y331697D02*Y331303D01*
X162406Y331697D02*Y331303D01*
X159803Y337382D02*X160197D01*
X159803Y343287D02*X160197D01*
G54D20*X165453Y338327D02*X170689D01*
X165453Y336358D02*X170689D01*
X165453Y334390D02*X170689D01*
X165453Y332421D02*X170689D01*
X165453Y330453D02*X170689D01*
X165453Y328484D02*X170689D01*
X199311Y316673D02*X204547D01*
X199311Y318642D02*X204547D01*
X199311Y320610D02*X204547D01*
X199311Y322579D02*X204547D01*
X199311Y324547D02*X204547D01*
X199311Y326516D02*X204547D01*
X199311Y328484D02*X204547D01*
X199311Y330453D02*X204547D01*
X199311Y332421D02*X204547D01*
X199311Y334390D02*X204547D01*
X199311Y336358D02*X204547D01*
X199311Y338327D02*X204547D01*
X195827Y347047D02*Y341811D01*
X193858Y347047D02*Y341811D01*
X191890Y347047D02*Y341811D01*
X189921Y347047D02*Y341811D01*
X187953Y347047D02*Y341811D01*
X185984Y347047D02*Y341811D01*
X184016Y347047D02*Y341811D01*
X182047Y347047D02*Y341811D01*
X180079Y347047D02*Y341811D01*
X178110Y347047D02*Y341811D01*
X176142Y347047D02*Y341811D01*
X174173Y347047D02*Y341811D01*
G54D17*X253200Y366000D02*X253800D01*
X253200Y358200D02*X253800D01*
G54D15*X228800Y357500D02*X245500D01*
X228800Y362500D02*X245500D01*
X228800Y367500D02*X245500D01*
X228800Y372500D02*X245500D01*
G54D17*X261400Y362100D02*X262000D01*
G54D16*X267803Y358906D02*X268197D01*
X267803Y353000D02*X268197D01*
X273858Y367102D02*Y366709D01*
X267953Y367102D02*Y366709D01*
X226547Y327697D02*Y327303D01*
X227000Y316791D02*Y316398D01*
X232453Y327697D02*Y327303D01*
X232906Y316791D02*Y316398D01*
X214547Y327697D02*Y327303D01*
X220453Y327697D02*Y327303D01*
X222000Y318197D02*Y317803D01*
X285094Y305197D02*Y304803D01*
X291000Y305197D02*Y304803D01*
X261953Y307197D02*Y306803D01*
X256047Y307197D02*Y306803D01*
X273094Y305197D02*Y304803D01*
X279000Y305197D02*Y304803D01*
G54D21*X265433Y274000D02*X269567D01*
X281771D02*X285905D01*
X265433Y285024D02*X269567D01*
X281771D02*X285905D01*
G54D16*X240764Y273988D02*X244898D01*
X257102D02*X261236D01*
X240764Y285012D02*X244898D01*
X257102D02*X261236D01*
G54D15*X241400Y296000D02*X243000D01*
X241400Y299900D02*X243000D01*
X241400Y303800D02*X243000D01*
G54D16*X216094Y318197D02*Y317803D01*
G54D22*X216063Y312874D02*Y308858D01*
X218031Y312874D02*Y308858D01*
X212126Y306969D02*X216142D01*
X212126Y305000D02*X216142D01*
X212126Y303031D02*X216142D01*
X220000Y312874D02*Y308858D01*
X221969Y312874D02*Y308858D01*
X216063Y301142D02*Y297126D01*
X218031Y301142D02*Y297126D01*
X220000Y301142D02*Y297126D01*
X221969Y301142D02*Y297126D01*
X223937Y301142D02*Y297126D01*
Y312874D02*Y308858D01*
X223858Y306969D02*X227874D01*
X223858Y305000D02*X227874D01*
X223858Y303031D02*X227874D01*
G54D15*X233200Y303800D02*X234800D01*
X233200Y299900D02*X234800D01*
X233200Y296000D02*X234800D01*
G54D16*X159803Y317047D02*X160197D01*
X153803D02*X154197D01*
X162047Y312197D02*Y311803D01*
X159803Y322953D02*X160197D01*
X153803D02*X154197D01*
G54D20*X165453Y326516D02*X170689D01*
X165453Y324547D02*X170689D01*
X165453Y322579D02*X170689D01*
X165453Y320610D02*X170689D01*
X165453Y318642D02*X170689D01*
G54D23*X131673Y340118D02*X139154D01*
X131673Y337559D02*X139154D01*
X131673Y335000D02*X139154D01*
X131673Y332441D02*X139154D01*
X131673Y329882D02*X139154D01*
G54D24*X123209Y350551D02*Y348976D01*
Y330669D02*Y330472D01*
Y339528D02*Y339331D01*
G54D16*X142094Y317197D02*Y316803D01*
X148000Y317197D02*Y316803D01*
X143000Y310197D02*Y309803D01*
X152000Y303291D02*Y302898D01*
X146094Y303291D02*Y302898D01*
X137094Y310197D02*Y309803D01*
X129000Y293197D02*Y292803D01*
G54D17*X130700Y299200D02*X131300D01*
X130700Y307000D02*X131300D01*
G54D16*X123094Y293197D02*Y292803D01*
G54D24*X123209Y321024D02*Y319449D01*
G54D17*X122500Y303100D02*X123100D01*
G54D16*X162094Y306197D02*Y305803D01*
X168000Y306197D02*Y305803D01*
G54D25*X170000Y293000D02*X176000D01*
X170000Y300000D02*X176000D01*
G54D17*X164900Y297500D02*Y296900D01*
G54D16*X167953Y312197D02*Y311803D01*
G54D20*X165453Y316673D02*X170689D01*
X174173Y313189D02*Y307953D01*
X176142Y313189D02*Y307953D01*
G54D17*X157100Y297500D02*Y296900D01*
X161000Y289300D02*Y288700D01*
G54D20*X178110Y313189D02*Y307953D01*
X180079Y313189D02*Y307953D01*
X182047Y313189D02*Y307953D01*
X184016Y313189D02*Y307953D01*
X185984Y313189D02*Y307953D01*
X187953Y313189D02*Y307953D01*
X189921Y313189D02*Y307953D01*
X191890Y313189D02*Y307953D01*
X193858Y313189D02*Y307953D01*
X195827Y313189D02*Y307953D01*
G54D26*X275000Y365000D03*
X255000Y373000D03*
X271000Y358000D03*
X237000Y351000D03*
X226000Y361000D03*
G54D14*X256000Y360000D03*
X227500Y370000D03*
G54D26*X248000Y350000D03*
X207000Y372000D03*
X184000Y362000D03*
X176000Y366000D03*
X220000Y364000D03*
X173000Y360000D03*
G54D27*X189000Y353500D03*
X187000Y350000D03*
G54D26*X170000Y354000D03*
X192000Y333000D03*
X187000Y338000D03*
X190000Y319000D03*
X186000Y326000D03*
G54D27*X174000Y330000D03*
Y335500D03*
G54D26*X172000Y343000D03*
X218000Y318000D03*
X193858Y305142D03*
X201000Y297000D03*
X195000Y317000D03*
X214000Y291000D03*
X212000Y310500D03*
X213000Y300000D03*
X220000Y294000D03*
X208000Y297000D03*
X191000Y292000D03*
X229500Y353000D03*
G54D27*X203000Y346000D03*
X201000Y342000D03*
G54D26*X207000Y357000D03*
X235000Y340000D03*
X239000Y326000D03*
X240000Y340000D03*
X230500Y327500D03*
X267000Y309000D03*
X283000Y305000D03*
X288000Y297000D03*
X260000Y287500D03*
X274000Y273500D03*
X275000Y305000D03*
X238000Y286500D03*
X233000Y286000D03*
X242000Y278000D03*
X272000Y317000D03*
X243000Y315000D03*
X235500Y316500D03*
G54D14*X233000Y310000D03*
G54D26*X234000Y293000D03*
X242000D03*
X230000Y300000D03*
X239000D03*
G54D14*X147500Y362500D03*
G54D26*X144000Y375000D03*
X160000Y350000D03*
G54D14*X121000Y358000D03*
X154000Y353000D03*
G54D26*X152500Y337500D03*
X158500Y339000D03*
G54D14*X137500Y345000D03*
G54D26*X167000Y348000D03*
X151000Y347000D03*
X130000Y377000D03*
G54D14*X132000Y293000D03*
G54D27*X154500Y331500D03*
G54D14*X132500Y325000D03*
X167500Y372500D03*
G54D26*X163500Y317000D03*
X165000Y301000D03*
X142500Y327500D03*
G54D14*X140000Y322500D03*
X146000Y311000D03*
G54D26*X159000Y312000D03*
X158000Y307000D03*
X154000Y304000D03*
X157000Y301000D03*
X154000Y315000D03*
G54D28*G54D29*G54D28*G54D30*G54D28*G54D30*G54D28*G54D30*G54D28*G54D29*G54D28*G54D29*G54D28*G54D29*G54D28*G54D29*G54D28*G54D29*G54D30*G54D29*G54D28*G54D29*G54D28*G54D31*M02*
