G04 start of page 8 for group -4079 idx -4079 *
G04 Title: riffle, topsilk *
G04 Creator: pcb 20140316 *
G04 CreationDate: Fri 18 Apr 2014 05:49:52 PM GMT UTC *
G04 For: ben *
G04 Format: Gerber/RS-274X *
G04 PCB-Dimensions (mil): 6000.00 5000.00 *
G04 PCB-Coordinate-Origin: lower left *
%MOIN*%
%FSLAX25Y25*%
%LNTOPSILK*%
%ADD69C,0.0080*%
%ADD68C,0.0060*%
%ADD67C,0.0100*%
%ADD66C,0.0001*%
G54D66*G36*
X216226Y347801D02*X215402D01*
X214550Y347524D01*
X214257Y347454D01*
X214013Y347280D01*
X213758Y346906D01*
X213622Y346569D01*
X213568Y346227D01*
X213557Y345804D01*
Y342462D01*
X212233D01*
Y349146D01*
X213557D01*
Y347801D01*
X213546Y347953D01*
X213769Y348240D01*
X214094Y348560D01*
X214403Y348799D01*
X214572Y348843D01*
X214886Y348962D01*
X215282Y349092D01*
X215684Y349146D01*
X216226D01*
Y347801D01*
G37*
G36*
X203694Y334427D02*X203477Y335366D01*
X203374Y335491D01*
X203227D01*
X201209Y335203D01*
X201024Y335556D01*
X200818Y336424D01*
X200601Y337579D01*
X199961Y337504D01*
X199402Y337482D01*
X199245Y337715D01*
X197932Y344318D01*
X196793Y350769D01*
X197384Y350980D01*
X197861Y351203D01*
X197666Y352342D01*
X197541Y353421D01*
X197639Y353639D01*
X197851Y353698D01*
X198122Y353747D01*
X199033Y353926D01*
X197498Y354371D01*
X194156Y355130D01*
X193630Y355239D01*
X193613Y355619D01*
X193901D01*
X194574Y355532D01*
X196250Y355114D01*
X199505Y354062D01*
X199750D01*
X199511Y355266D01*
X199353Y356552D01*
X203650Y357420D01*
X203835Y357398D01*
X203954Y357268D01*
X204177Y356313D01*
X204475Y355109D01*
X205430Y355196D01*
X206564Y355364D01*
X206748Y355244D01*
X206830Y354973D01*
X206906Y354566D01*
X208278Y355027D01*
X211143Y355787D01*
X212401Y355923D01*
X213741Y355933D01*
X216015Y355695D01*
X219091Y354783D01*
X221988Y353948D01*
X223171Y353742D01*
X224278Y353676D01*
X225401Y353758D01*
X226610Y353975D01*
X229616Y354843D01*
X232969Y355798D01*
X234521Y355977D01*
X234993Y355966D01*
X235047Y355879D01*
X234944Y355781D01*
X235047Y355722D01*
X234971Y355657D01*
X234548Y355581D01*
X231623Y355190D01*
X229095Y354425D01*
X225623Y353438D01*
X224299Y353264D01*
X222959Y353253D01*
X220540Y353557D01*
X217306Y354528D01*
X214566Y355326D01*
X212434Y355537D01*
X210215Y355304D01*
X207535Y354528D01*
X206998Y354192D01*
X207063Y353910D01*
X207079Y353720D01*
X207296Y353053D01*
X207898Y353047D01*
X208533Y353123D01*
X211099Y339912D01*
X210985Y339685D01*
X210492Y339571D01*
X210014Y339462D01*
X209949Y339288D01*
X210237Y337883D01*
X210437Y336890D01*
X209238Y336673D01*
X208235Y336435D01*
X208398Y335241D01*
X208501Y333988D01*
X204215Y333136D01*
X203981Y333223D01*
X203694Y334427D01*
G37*
G36*
X218133Y349146D02*X219457D01*
Y342462D01*
X218133D01*
Y349146D01*
G37*
G36*
X240365Y306221D02*X241966D01*
X242047Y306150D01*
X242075Y306005D01*
X242101Y305869D01*
X242345Y304545D01*
X242427Y304453D01*
X242493Y304431D01*
X243447Y304041D01*
Y304035D01*
X243501Y304013D01*
X243626Y304024D01*
X244727Y304778D01*
X244841Y304860D01*
X244966Y304946D01*
X245075Y304935D01*
X245177Y304827D01*
X245281Y304730D01*
X246204Y303807D01*
X246213Y303699D01*
X246127Y303574D01*
X246051Y303455D01*
X245308Y302381D01*
X245302Y302262D01*
X245330Y302196D01*
X245568Y301714D01*
X245752Y301203D01*
X245780Y301149D01*
X245872Y301067D01*
X247136Y300834D01*
X247277Y300807D01*
X247425Y300780D01*
X247488Y300699D01*
Y299098D01*
X247425Y299017D01*
X247277Y298989D01*
X247136Y298963D01*
X245911Y298735D01*
X245818Y298653D01*
X245802Y298616D01*
Y298605D01*
X245615Y298041D01*
X245362Y297509D01*
X245356Y297498D01*
X245345Y297470D01*
X245351Y297352D01*
X246051Y296337D01*
X246127Y296223D01*
X246213Y296098D01*
X246204Y295989D01*
X246100Y295881D01*
X245997Y295784D01*
X245075Y294862D01*
X244966Y294851D01*
X244841Y294937D01*
X244727Y295013D01*
X243734Y295691D01*
X243615Y295696D01*
X243409Y295582D01*
X243284Y295517D01*
X243073Y295409D01*
X243020Y295403D01*
X242986Y295442D01*
X242894Y295664D01*
X242840Y295789D01*
X241977Y297873D01*
X241923Y298002D01*
X241863Y298149D01*
X241895Y298252D01*
X242031Y298334D01*
X242118Y298398D01*
X242454Y298676D01*
X242709Y299025D01*
X242873Y299434D01*
X242931Y299885D01*
X242794Y300574D01*
X242416Y301138D01*
X241856Y301519D01*
X241169Y301659D01*
X240480Y301519D01*
X239918Y301138D01*
X239538Y300574D01*
X239400Y299885D01*
X239458Y299434D01*
X239622Y299025D01*
X239879Y298676D01*
X240213Y298398D01*
X240301Y298334D01*
X240436Y298252D01*
X240469Y298149D01*
X240409Y298002D01*
X240355Y297873D01*
X239493Y295789D01*
X239438Y295664D01*
X239351Y295442D01*
X239259Y295409D01*
X239047Y295517D01*
X238922Y295582D01*
X238716Y295696D01*
X238597Y295691D01*
X237604Y295013D01*
X237490Y294937D01*
X237365Y294851D01*
X237256Y294862D01*
X236334Y295784D01*
X236231Y295881D01*
X236129Y295989D01*
X236118Y296098D01*
X236204Y296223D01*
X236280Y296337D01*
X236980Y297352D01*
X236986Y297470D01*
X236975Y297509D01*
X236719Y298045D01*
X236530Y298610D01*
X236513Y298653D01*
X236427Y298735D01*
X235195Y298963D01*
X235059Y298989D01*
X234908Y299012D01*
X234843Y299098D01*
Y300699D01*
X234908Y300780D01*
X235059Y300807D01*
X235195Y300834D01*
X236459Y301067D01*
X236556Y301149D01*
X236579Y301203D01*
X236765Y301714D01*
X237008Y302196D01*
X237029Y302262D01*
X237023Y302381D01*
X236286Y303455D01*
X236204Y303574D01*
X236118Y303699D01*
X236129Y303807D01*
X237051Y304730D01*
X237154Y304827D01*
X237256Y304935D01*
X237365Y304946D01*
X237490Y304860D01*
X237604Y304778D01*
X238705Y304024D01*
X238830Y304013D01*
X238884Y304035D01*
X238890Y304041D01*
X239840Y304431D01*
X239904Y304453D01*
X239986Y304545D01*
X240230Y305869D01*
X240256Y306005D01*
X240284Y306150D01*
X240365Y306221D01*
G37*
G36*
X218133Y353139D02*X219457D01*
Y351816D01*
X218133D01*
Y353139D01*
G37*
G36*
X226592D02*Y351816D01*
X224683D01*
X224362Y351708D01*
X224226Y351613D01*
X224146Y351550D01*
X224075Y351425D01*
X223956Y350828D01*
X223923Y350080D01*
Y349146D01*
X225247D01*
Y347801D01*
X223923D01*
Y342462D01*
X222578D01*
Y347801D01*
X221254D01*
Y349146D01*
X222578D01*
Y349862D01*
X222588Y351199D01*
X222795Y351892D01*
X223077Y352358D01*
X223315Y352678D01*
X223695Y352922D01*
X224167Y353085D01*
X224704Y353139D01*
X226592D01*
G37*
G36*
X232179D02*Y351816D01*
X230269D01*
X229972Y351714D01*
X229829Y351644D01*
X229732Y351550D01*
X229662Y351425D01*
X229542Y350828D01*
X229510Y350080D01*
Y349146D01*
X230834D01*
Y347801D01*
X229510D01*
Y342462D01*
X228164D01*
Y347801D01*
X226840D01*
Y349146D01*
X228164D01*
Y349862D01*
X228192Y350748D01*
X228251Y351317D01*
X228381Y351892D01*
X228663Y352358D01*
X228902Y352678D01*
X229282Y352922D01*
X229754Y353085D01*
X230291Y353139D01*
X232179D01*
G37*
G36*
X233392Y353161D02*X234715D01*
Y342483D01*
X233392D01*
Y353161D01*
G37*
G36*
X242752Y345919D02*Y345095D01*
X237227Y345113D01*
X237336Y344616D01*
X237484Y344362D01*
X237717Y344211D01*
X237979Y344092D01*
X238366Y343915D01*
X238893Y343792D01*
X239403Y343663D01*
X240058Y343583D01*
X240257Y343581D01*
X240615D01*
X240994Y343590D01*
X241396Y343589D01*
X241602Y343581D01*
X241949Y343603D01*
X242405Y343693D01*
X242752Y343771D01*
Y342425D01*
X239975D01*
X238976Y342485D01*
X238238Y342648D01*
X237653Y342924D01*
X237132Y343315D01*
X236645Y343713D01*
X236316Y344236D01*
X236106Y344953D01*
X236090Y345702D01*
X236085Y346462D01*
X236218Y347042D01*
X236600Y347655D01*
X237045Y348176D01*
X237430Y348556D01*
X238043Y348854D01*
X238797Y349044D01*
X239572Y349042D01*
X240197Y348898D01*
X240821Y348751D01*
X241412Y348567D01*
X240908Y347395D01*
X240246Y347574D01*
X239584Y347764D01*
X239033Y347735D01*
X238604Y347600D01*
X238374Y347503D01*
X238108Y347395D01*
X237767Y347097D01*
X237588Y346885D01*
X237501Y346690D01*
X237457Y346440D01*
X241429D01*
X241358Y346618D01*
X241221Y346939D01*
X241081Y347140D01*
X240908Y347395D01*
X241412Y348567D01*
X241961Y348121D01*
X242596Y347133D01*
X242752Y345919D01*
G37*
G54D67*X127500Y379500D02*Y375500D01*
X125500Y377500D02*X129500D01*
X119500Y362000D02*Y358000D01*
X139000Y299500D02*Y295500D01*
X137000Y297500D02*X141000D01*
X147000D02*X151000D01*
X155000Y274500D02*Y273000D01*
X152500D02*X157500D01*
X153500Y271500D02*X156500D01*
X154500Y270000D02*X155500D01*
X167000Y274500D02*Y273000D01*
X233000Y274500D02*Y273000D01*
X230500D02*X235500D01*
X231500Y271500D02*X234500D01*
X232500Y270000D02*X233500D01*
X164500Y273000D02*X169500D01*
X165500Y271500D02*X168500D01*
X166500Y270000D02*X167500D01*
X206000Y302500D02*Y290500D01*
G54D68*X120000Y280000D02*Y276000D01*
X121300Y280000D02*X122000Y279300D01*
Y276700D01*
X121300Y276000D02*X122000Y276700D01*
X119500Y276000D02*X121300D01*
X119500Y280000D02*X121300D01*
X123200Y276000D02*X125200D01*
X125700Y276500D01*
Y277700D02*Y276500D01*
X125200Y278200D02*X125700Y277700D01*
X123700Y278200D02*X125200D01*
X123700Y280000D02*Y276000D01*
X123200Y280000D02*X125200D01*
X125700Y279500D01*
Y278700D01*
X125200Y278200D02*X125700Y278700D01*
X128900Y280000D02*X129400Y279500D01*
X127400Y280000D02*X128900D01*
X126900Y279500D02*X127400Y280000D01*
X126900Y279500D02*Y276500D01*
X127400Y276000D01*
X128900D01*
X129400Y276500D01*
Y277500D02*Y276500D01*
X128900Y278000D02*X129400Y277500D01*
X127900Y278000D02*X128900D01*
X132518Y270800D02*X133480D01*
X132000Y271318D02*X132518Y270800D01*
X132000Y273242D02*Y271318D01*
Y273242D02*X132518Y273760D01*
X133480D01*
X134368D02*Y270800D01*
X135848D01*
X136736Y273760D02*Y270800D01*
Y272280D02*X138216Y273760D01*
X136736Y272280D02*X138216Y270800D01*
X142380Y273740D02*Y270700D01*
X143368Y273740D02*X143900Y273208D01*
Y271232D01*
X143368Y270700D02*X143900Y271232D01*
X142000Y270700D02*X143368D01*
X142000Y273740D02*X143368D01*
X144812D02*X145572D01*
X145192D02*Y270700D01*
X144812D02*X145572D01*
X146484Y273360D02*Y271080D01*
Y273360D02*X146864Y273740D01*
X147624D01*
X148004Y273360D01*
Y271080D01*
X147624Y270700D02*X148004Y271080D01*
X146864Y270700D02*X147624D01*
X146484Y271080D02*X146864Y270700D01*
X191500Y272220D02*X193020D01*
X192260Y272980D02*Y271460D01*
X193932Y273360D02*X194312Y273740D01*
X195072D01*
X195452Y273360D01*
X195072Y270700D02*X195452Y271080D01*
X194312Y270700D02*X195072D01*
X193932Y271080D02*X194312Y270700D01*
Y272372D02*X195072D01*
X195452Y273360D02*Y272752D01*
Y271992D02*Y271080D01*
Y271992D02*X195072Y272372D01*
X195452Y272752D02*X195072Y272372D01*
X196364Y273740D02*X197124Y270700D01*
X197884Y273740D01*
X198796Y273360D02*X199176Y273740D01*
X199936D01*
X200316Y273360D01*
X199936Y270700D02*X200316Y271080D01*
X199176Y270700D02*X199936D01*
X198796Y271080D02*X199176Y270700D01*
Y272372D02*X199936D01*
X200316Y273360D02*Y272752D01*
Y271992D02*Y271080D01*
Y271992D02*X199936Y272372D01*
X200316Y272752D02*X199936Y272372D01*
X184500Y273760D02*X185980D01*
X185240D02*Y270800D01*
X186868D02*X188718Y273760D01*
X186868D02*X188718Y270800D01*
X174500Y273740D02*X176020D01*
X176400Y273360D01*
Y272600D01*
X176020Y272220D02*X176400Y272600D01*
X174880Y272220D02*X176020D01*
X174880Y273740D02*Y270700D01*
X175488Y272220D02*X176400Y270700D01*
X177312D02*X179212Y273740D01*
X177312D02*X179212Y270700D01*
X212500Y338840D02*X213720Y336400D01*
X214940Y338840D02*X213720Y336400D01*
X216404Y340670D02*X217014Y341280D01*
X218234D01*
X218844Y340670D01*
X218234Y336400D02*X218844Y337010D01*
X217014Y336400D02*X218234D01*
X216404Y337010D02*X217014Y336400D01*
Y339084D02*X218234D01*
X218844Y340670D02*Y339694D01*
Y338474D02*Y337010D01*
Y338474D02*X218234Y339084D01*
X218844Y339694D02*X218234Y339084D01*
X220308Y336400D02*X220918D01*
X222382Y338230D02*X224822Y341280D01*
X222382Y338230D02*X225432D01*
X224822Y341280D02*Y336400D01*
X221020Y273740D02*X221400Y273360D01*
X219880Y273740D02*X221020D01*
X219500Y273360D02*X219880Y273740D01*
X219500Y273360D02*Y272600D01*
X219880Y272220D01*
X221020D01*
X221400Y271840D01*
Y271080D01*
X221020Y270700D02*X221400Y271080D01*
X219880Y270700D02*X221020D01*
X219500Y271080D02*X219880Y270700D01*
X222692Y273740D02*Y270700D01*
X223680Y273740D02*X224212Y273208D01*
Y271232D01*
X223680Y270700D02*X224212Y271232D01*
X222312Y270700D02*X223680D01*
X222312Y273740D02*X223680D01*
X225124Y272980D02*Y270700D01*
Y272980D02*X225656Y273740D01*
X226492D01*
X227024Y272980D01*
Y270700D01*
X225124Y272220D02*X227024D01*
X211020Y273740D02*X211400Y273360D01*
X209880Y273740D02*X211020D01*
X209500Y273360D02*X209880Y273740D01*
X209500Y273360D02*Y272600D01*
X209880Y272220D01*
X211020D01*
X211400Y271840D01*
Y271080D01*
X211020Y270700D02*X211400Y271080D01*
X209880Y270700D02*X211020D01*
X209500Y271080D02*X209880Y270700D01*
X212844D02*X213832D01*
X212312Y271232D02*X212844Y270700D01*
X212312Y273208D02*Y271232D01*
Y273208D02*X212844Y273740D01*
X213832D01*
X214744D02*Y270700D01*
X216264D01*
G54D67*X122500Y375000D02*Y355000D01*
X132500D01*
Y375000D02*Y355000D01*
X122500Y375000D02*X132500D01*
X122500Y365000D02*X132500D01*
Y375000D02*Y365000D01*
G54D68*X138175Y362931D02*Y353069D01*
X133825D02*X138175D01*
X133825Y362931D02*Y353069D01*
Y362931D02*X138175D01*
G54D69*X157150Y375755D02*X157936D01*
X157150Y370245D02*X157936D01*
X162755Y362893D02*Y362107D01*
X157245Y362893D02*Y362107D01*
G54D67*X145750Y364700D02*Y367375D01*
X146975Y368600D01*
X149250D01*
Y364700D01*
X145750Y360300D02*Y356400D01*
X149250D01*
Y360300D01*
G54D68*X140978Y374825D02*X131117D01*
Y379175D01*
X140978D01*
Y374825D01*
X149931Y370325D02*X140069D01*
Y374675D01*
X149931D01*
Y370325D01*
G54D67*X277500Y380000D02*Y360000D01*
X287500D01*
Y380000D02*Y360000D01*
X277500Y380000D02*X287500D01*
X277500Y370000D02*X287500D01*
Y380000D02*Y370000D01*
X184600Y377800D02*X198500D01*
X184600D02*Y365000D01*
X198500D01*
Y377800D02*Y365000D01*
G54D68*X184676Y364175D02*X194537D01*
Y359825D01*
X184676D02*X194537D01*
X184676Y364175D02*Y359825D01*
X265975Y369080D02*X275836D01*
Y364731D01*
X265975D02*X275836D01*
X265975Y369080D02*Y364731D01*
G54D67*X219400Y367200D02*Y371250D01*
X223000Y374850D01*
X225600D01*
Y367200D01*
X219400Y362800D02*Y355150D01*
X225600D01*
Y362800D01*
X250600Y368500D02*X264500D01*
X250600D02*Y355700D01*
X264500D01*
Y368500D02*Y355700D01*
G54D68*X265825Y360883D02*Y351022D01*
Y360883D02*X270175D01*
Y351022D01*
X265825D02*X270175D01*
G54D67*X272500Y357500D02*Y307500D01*
X292500D01*
Y357500D01*
X272500D01*
Y347500D02*X282500D01*
Y357500D01*
X267500Y350000D02*Y310000D01*
X247500Y350000D02*X267500D01*
X247500D02*Y310000D01*
X267500D01*
X257500Y320000D02*X267500D01*
X257500D02*Y310000D01*
G54D68*X232431Y325325D02*X222569D01*
Y329675D01*
X232431D01*
Y325325D01*
X227825Y318978D02*Y309117D01*
Y318978D02*X232175D01*
Y309117D01*
X227825D02*X232175D01*
G54D67*X207500Y275000D02*X237500D01*
Y285000D02*Y275000D01*
X207500Y285000D02*X237500D01*
X207500D02*Y275000D01*
X217500Y285000D02*Y275000D01*
X207500Y285000D02*X217500D01*
X162500Y275000D02*X202500D01*
Y285000D02*Y275000D01*
X162500Y285000D02*X202500D01*
X162500D02*Y275000D01*
X172500Y285000D02*Y275000D01*
X162500Y285000D02*X172500D01*
G54D68*X214117Y320175D02*X223978D01*
Y315825D01*
X214117D02*X223978D01*
X214117Y320175D02*Y315825D01*
G54D67*X227244Y312244D02*Y297756D01*
X212756Y312244D02*X227244D01*
X212756D02*Y297756D01*
X227244D01*
X227756Y316693D02*X231693Y312756D01*
G54D68*X222431Y325325D02*X212569D01*
Y329675D01*
X222431D01*
Y325325D01*
X292978Y302825D02*X283117D01*
Y307175D01*
X292978D01*
Y302825D01*
X254069Y309175D02*X263931D01*
Y304825D01*
X254069D02*X263931D01*
X254069Y309175D02*Y304825D01*
X280978Y302825D02*X271117D01*
Y307175D01*
X280978D01*
Y302825D01*
G54D67*X263464Y272032D02*X287874D01*
X263464Y286992D02*Y272032D01*
Y286992D02*X287874D01*
Y272032D01*
X238795Y272020D02*X263205D01*
X238795Y286980D02*Y272020D01*
Y286980D02*X263205D01*
Y272020D01*
G54D68*X165022Y368175D02*X174883D01*
Y363825D01*
X165022D02*X174883D01*
X165022Y368175D02*Y363825D01*
X160975Y350175D02*X170836D01*
Y345825D01*
X160975D02*X170836D01*
X160975Y350175D02*Y345825D01*
X169175Y361931D02*Y352069D01*
X164825D02*X169175D01*
X164825Y361931D02*Y352069D01*
Y361931D02*X169175D01*
X183175Y374324D02*Y364463D01*
X178825D02*X183175D01*
X178825Y374324D02*Y364463D01*
Y374324D02*X183175D01*
X172825Y379478D02*Y369617D01*
Y379478D02*X177175D01*
Y369617D01*
X172825D02*X177175D01*
X173069Y363175D02*X182931D01*
Y358825D01*
X173069D02*X182931D01*
X173069Y363175D02*Y358825D01*
X162175Y324931D02*Y315069D01*
X157825D02*X162175D01*
X157825Y324931D02*Y315069D01*
Y324931D02*X162175D01*
X169931Y309825D02*X160069D01*
Y314175D01*
X169931D01*
Y309825D01*
X160117Y303825D02*X169978D01*
X160117Y308175D02*Y303825D01*
Y308175D02*X169978D01*
Y303825D01*
G54D67*X167500Y290500D02*X206000D01*
X167500Y302500D02*X206000D01*
X167500D02*X206000D01*
X167500D02*Y290500D01*
X197795Y314705D02*X172205D01*
Y340295D01*
X197795D01*
Y314705D01*
X172205Y340295D02*X168268Y344232D01*
G54D68*X141069Y349175D02*X150931D01*
Y344825D01*
X141069D02*X150931D01*
X141069Y349175D02*Y344825D01*
X152765Y329825D02*X142904D01*
Y334175D01*
X152765D01*
Y329825D01*
X152706Y337384D02*X142845D01*
Y341734D01*
X152706D01*
Y337384D01*
X164383Y329325D02*X154522D01*
Y333675D01*
X164383D01*
Y329325D01*
X162175Y345265D02*Y335404D01*
X157825D02*X162175D01*
X157825Y345265D02*Y335404D01*
Y345265D02*X162175D01*
G54D67*X114744Y352717D02*X119075D01*
X114744Y317283D02*X119075D01*
X127343Y352717D02*X137185D01*
X127343Y317283D02*X137185D01*
Y352717D02*Y341299D01*
Y328701D02*Y317283D01*
G54D68*X140117Y314825D02*X149978D01*
X140117Y319175D02*Y314825D01*
Y319175D02*X149978D01*
Y314825D01*
X135117Y312175D02*X144978D01*
Y307825D01*
X135117D02*X144978D01*
X135117Y312175D02*Y307825D01*
X144117Y305269D02*X153978D01*
Y300920D01*
X144117D02*X153978D01*
X144117Y305269D02*Y300920D01*
X156175Y324931D02*Y315069D01*
X151825D02*X156175D01*
X151825Y324931D02*Y315069D01*
Y324931D02*X156175D01*
X121117Y295175D02*X130978D01*
Y290825D01*
X121117D02*X130978D01*
X121117Y295175D02*Y290825D01*
G54D67*X120000Y296700D02*X133900D01*
Y309500D02*Y296700D01*
X120000Y309500D02*X133900D01*
X120000D02*Y296700D01*
X130000Y275000D02*X160000D01*
Y285000D02*Y275000D01*
X130000Y285000D02*X160000D01*
X130000D02*Y275000D01*
X140000Y285000D02*Y275000D01*
X130000Y285000D02*X140000D01*
X134000D02*X154000D01*
Y295000D02*Y285000D01*
X134000Y295000D02*X154000D01*
X134000D02*Y285000D01*
X144000Y295000D02*Y285000D01*
X134000Y295000D02*X144000D01*
X167400Y300100D02*Y286200D01*
X154600Y300100D02*X167400D01*
X154600D02*Y286200D01*
X167400D01*
G54D68*X117500Y374000D02*X121500D01*
Y374500D02*Y372500D01*
X121000Y372000D01*
X120000D02*X121000D01*
X119500Y372500D02*X120000Y372000D01*
X119500Y374000D02*Y372500D01*
Y370800D02*X121500D01*
X119500D02*X117500Y370300D01*
X119500Y369300D01*
X117500Y368300D01*
X119500Y367800D01*
X121500D01*
Y366600D02*Y364600D01*
X121000Y364100D01*
X120000D02*X121000D01*
X119500Y364600D02*X120000Y364100D01*
X119500Y366100D02*Y364600D01*
X117500Y366100D02*X121500D01*
X119500Y365300D02*X117500Y364100D01*
X134556Y375002D02*Y372882D01*
X135245Y375002D02*X135616Y374631D01*
Y373253D01*
X135245Y372882D02*X135616Y373253D01*
X134291Y372882D02*X135245D01*
X134291Y375002D02*X135245D01*
X136252Y374737D02*X136517Y375002D01*
X137312D01*
X137577Y374737D01*
Y374207D01*
X136252Y372882D02*X137577Y374207D01*
X136252Y372882D02*X137577D01*
X134871Y356724D02*X135560D01*
X134500Y357095D02*X134871Y356724D01*
X134500Y358473D02*Y357095D01*
Y358473D02*X134871Y358844D01*
X135560D01*
X136196Y358579D02*X136461Y358844D01*
X136991D01*
X137256Y358579D01*
X136991Y356724D02*X137256Y356989D01*
X136461Y356724D02*X136991D01*
X136196Y356989D02*X136461Y356724D01*
Y357890D02*X136991D01*
X137256Y358579D02*Y358155D01*
Y357625D02*Y356989D01*
Y357625D02*X136991Y357890D01*
X137256Y358155D02*X136991Y357890D01*
X155893Y379400D02*Y376400D01*
X157393D01*
X158293Y379025D02*X158668Y379400D01*
X159418D01*
X159793Y379025D01*
X159418Y376400D02*X159793Y376775D01*
X158668Y376400D02*X159418D01*
X158293Y376775D02*X158668Y376400D01*
Y378050D02*X159418D01*
X159793Y379025D02*Y378425D01*
Y377675D02*Y376775D01*
Y377675D02*X159418Y378050D01*
X159793Y378425D02*X159418Y378050D01*
X142425Y377174D02*X143127D01*
X142047Y377552D02*X142425Y377174D01*
X142047Y378956D02*Y377552D01*
Y378956D02*X142425Y379334D01*
X143127D01*
X143775Y378902D02*X144207Y379334D01*
Y377174D01*
X143775D02*X144585D01*
X147378Y375674D02*X148080D01*
X147000Y376052D02*X147378Y375674D01*
X147000Y377456D02*Y376052D01*
Y377456D02*X147378Y377834D01*
X148080D01*
X148728Y377564D02*X148998Y377834D01*
X149808D01*
X150078Y377564D01*
Y377024D01*
X148728Y375674D02*X150078Y377024D01*
X148728Y375674D02*X150078D01*
X263500Y379000D02*Y375000D01*
Y379000D02*X265500D01*
X263500Y377200D02*X265000D01*
X266700Y379000D02*Y375000D01*
X268700D01*
X269900Y378500D02*Y375500D01*
Y378500D02*X270400Y379000D01*
X271400D01*
X271900Y378500D01*
Y375500D01*
X271400Y375000D02*X271900Y375500D01*
X270400Y375000D02*X271400D01*
X269900Y375500D02*X270400Y375000D01*
X273100Y379000D02*Y377000D01*
X273600Y375000D01*
X274600Y377000D01*
X275600Y375000D01*
X276100Y377000D01*
Y379000D02*Y377000D01*
X199300Y368300D02*Y365300D01*
Y368300D02*X199800Y368800D01*
X200800D01*
X201300Y368300D01*
Y365800D01*
X200300Y364800D02*X201300Y365800D01*
X199800Y364800D02*X200300D01*
X199300Y365300D02*X199800Y364800D01*
X200300Y366300D02*X201300Y364800D01*
X202500Y368000D02*X203300Y368800D01*
Y364800D01*
X202500D02*X204000D01*
X260000Y372345D02*Y370035D01*
Y372345D02*X260385Y372730D01*
X261155D01*
X261540Y372345D01*
Y370420D01*
X260770Y369650D02*X261540Y370420D01*
X260385Y369650D02*X260770D01*
X260000Y370035D02*X260385Y369650D01*
X260770Y370805D02*X261540Y369650D01*
X262464Y372345D02*X262849Y372730D01*
X263619D01*
X264004Y372345D01*
X263619Y369650D02*X264004Y370035D01*
X262849Y369650D02*X263619D01*
X262464Y370035D02*X262849Y369650D01*
Y371344D02*X263619D01*
X264004Y372345D02*Y371729D01*
Y370959D02*Y370035D01*
Y370959D02*X263619Y371344D01*
X264004Y371729D02*X263619Y371344D01*
X267133Y369619D02*X268134D01*
X266594Y370158D02*X267133Y369619D01*
X266594Y372160D02*Y370158D01*
Y372160D02*X267133Y372699D01*
X268134D01*
X269058D02*X270598D01*
X269058D02*Y371159D01*
X269443Y371544D01*
X270213D01*
X270598Y371159D01*
Y370004D01*
X270213Y369619D02*X270598Y370004D01*
X269443Y369619D02*X270213D01*
X269058Y370004D02*X269443Y369619D01*
X271079Y359574D02*X272067D01*
X270547Y360106D02*X271079Y359574D01*
X270547Y362082D02*Y360106D01*
Y362082D02*X271079Y362614D01*
X272067D01*
X272979Y362006D02*X273587Y362614D01*
Y359574D01*
X272979D02*X274119D01*
X275031Y362614D02*X276551D01*
X275031D02*Y361094D01*
X275411Y361474D01*
X276171D01*
X276551Y361094D01*
Y359954D01*
X276171Y359574D02*X276551Y359954D01*
X275411Y359574D02*X276171D01*
X275031Y359954D02*X275411Y359574D01*
X220150Y379850D02*Y376350D01*
X220650Y375850D01*
X221650D01*
X222150Y376350D01*
Y379850D02*Y376350D01*
X223350Y379350D02*X223850Y379850D01*
X224850D01*
X225350Y379350D01*
X224850Y375850D02*X225350Y376350D01*
X223850Y375850D02*X224850D01*
X223350Y376350D02*X223850Y375850D01*
Y378050D02*X224850D01*
X225350Y379350D02*Y378550D01*
Y377550D02*Y376350D01*
Y377550D02*X224850Y378050D01*
X225350Y378550D02*X224850Y378050D01*
X288500Y360500D02*Y358500D01*
Y360500D02*X289000Y361000D01*
X290000D01*
X290500Y360500D02*X290000Y361000D01*
X290500Y360500D02*Y359000D01*
X288500D02*X292500D01*
X290500Y359800D02*X292500Y361000D01*
X290300Y363700D02*Y362200D01*
X292500Y364200D02*Y362200D01*
X288500D02*X292500D01*
X288500Y364200D02*Y362200D01*
Y365400D02*X292500D01*
X288500D02*X290500Y366900D01*
X288500Y368400D01*
X292500D01*
X289000Y369600D02*X292000D01*
X289000D02*X288500Y370100D01*
Y371100D02*Y370100D01*
Y371100D02*X289000Y371600D01*
X292000D01*
X292500Y371100D02*X292000Y371600D01*
X292500Y371100D02*Y370100D01*
X292000Y369600D02*X292500Y370100D01*
X288500Y374800D02*Y372800D01*
Y373800D02*X292500D01*
X290300Y377500D02*Y376000D01*
X292500Y378000D02*Y376000D01*
X288500D02*X292500D01*
X288500Y378000D02*Y376000D01*
X248000Y355000D02*Y351000D01*
Y355000D02*X250500Y351000D01*
Y355000D02*Y351000D01*
X251700Y355000D02*X253700D01*
X254200Y354500D01*
Y353500D01*
X253700Y353000D02*X254200Y353500D01*
X252200Y353000D02*X253700D01*
X252200Y355000D02*Y351000D01*
X253000Y353000D02*X254200Y351000D01*
X255400Y355000D02*Y351000D01*
Y355000D02*X257400D01*
X255400Y353200D02*X256900D01*
X166331Y369174D02*X167033D01*
X165953Y369552D02*X166331Y369174D01*
X165953Y370956D02*Y369552D01*
Y370956D02*X166331Y371334D01*
X167033D01*
X167681Y369984D02*X168761Y371334D01*
X167681Y369984D02*X169031D01*
X168761Y371334D02*Y369174D01*
X164094Y345131D02*X165154D01*
X165419Y344866D01*
Y344336D01*
X165154Y344071D02*X165419Y344336D01*
X164359Y344071D02*X165154D01*
X164359Y345131D02*Y343011D01*
X164783Y344071D02*X165419Y343011D01*
X166055Y343806D02*X167115Y345131D01*
X166055Y343806D02*X167380D01*
X167115Y345131D02*Y343011D01*
X170871Y311224D02*X171560D01*
X170500Y311595D02*X170871Y311224D01*
X170500Y312973D02*Y311595D01*
Y312973D02*X170871Y313344D01*
X171560D01*
X172461Y311224D02*X173256Y312284D01*
Y313079D02*Y312284D01*
X172991Y313344D02*X173256Y313079D01*
X172461Y313344D02*X172991D01*
X172196Y313079D02*X172461Y313344D01*
X172196Y313079D02*Y312549D01*
X172461Y312284D01*
X173256D01*
X176933Y375024D02*X177934D01*
X176394Y375563D02*X176933Y375024D01*
X176394Y377565D02*Y375563D01*
Y377565D02*X176933Y378104D01*
X177934D01*
X178858Y377488D02*X179474Y378104D01*
Y375024D01*
X178858D02*X180013D01*
X180937Y377719D02*X181322Y378104D01*
X182092D01*
X182477Y377719D01*
X182092Y375024D02*X182477Y375409D01*
X181322Y375024D02*X182092D01*
X180937Y375409D02*X181322Y375024D01*
Y376718D02*X182092D01*
X182477Y377719D02*Y377103D01*
Y376333D02*Y375409D01*
Y376333D02*X182092Y376718D01*
X182477Y377103D02*X182092Y376718D01*
X174000Y358104D02*X175540D01*
X175925Y357719D01*
Y356949D01*
X175540Y356564D02*X175925Y356949D01*
X174385Y356564D02*X175540D01*
X174385Y358104D02*Y355024D01*
X175001Y356564D02*X175925Y355024D01*
X176849Y357488D02*X177465Y358104D01*
Y355024D01*
X176849D02*X178004D01*
X178928Y357719D02*X179313Y358104D01*
X180468D01*
X180853Y357719D01*
Y356949D01*
X178928Y355024D02*X180853Y356949D01*
X178928Y355024D02*X180853D01*
X185394Y359104D02*X186934D01*
X187319Y358719D01*
Y357949D01*
X186934Y357564D02*X187319Y357949D01*
X185779Y357564D02*X186934D01*
X185779Y359104D02*Y356024D01*
X186395Y357564D02*X187319Y356024D01*
X188243Y358488D02*X188859Y359104D01*
Y356024D01*
X188243D02*X189398D01*
X190322Y358488D02*X190938Y359104D01*
Y356024D01*
X190322D02*X191477D01*
X171878Y351174D02*X172580D01*
X171500Y351552D02*X171878Y351174D01*
X171500Y352956D02*Y351552D01*
Y352956D02*X171878Y353334D01*
X172580D01*
X173228Y352902D02*X173660Y353334D01*
Y351174D01*
X173228D02*X174038D01*
X174686Y351984D02*X175766Y353334D01*
X174686Y351984D02*X176036D01*
X175766Y353334D02*Y351174D01*
X167453Y376104D02*X168993D01*
X169378Y375719D01*
Y374949D01*
X168993Y374564D02*X169378Y374949D01*
X167838Y374564D02*X168993D01*
X167838Y376104D02*Y373024D01*
X168454Y374564D02*X169378Y373024D01*
X170687D02*X171842Y374564D01*
Y375719D02*Y374564D01*
X171457Y376104D02*X171842Y375719D01*
X170687Y376104D02*X171457D01*
X170302Y375719D02*X170687Y376104D01*
X170302Y375719D02*Y374949D01*
X170687Y374564D01*
X171842D01*
X157350Y355880D02*Y352800D01*
X158890D01*
X159814Y355264D02*X160430Y355880D01*
Y352800D01*
X159814D02*X160969D01*
X147784Y354841D02*Y351841D01*
X148759Y354841D02*X149284Y354316D01*
Y352366D01*
X148759Y351841D02*X149284Y352366D01*
X147409Y351841D02*X148759D01*
X147409Y354841D02*X148759D01*
X150184Y354241D02*X150784Y354841D01*
Y351841D01*
X150184D02*X151309D01*
X152500Y363830D02*Y361135D01*
X152885Y360750D01*
X153655D01*
X154040Y361135D01*
Y363830D02*Y361135D01*
X154964Y363214D02*X155580Y363830D01*
Y360750D01*
X154964D02*X156119D01*
X152906Y349834D02*X153986D01*
X154256Y349564D01*
Y349024D01*
X153986Y348754D02*X154256Y349024D01*
X153176Y348754D02*X153986D01*
X153176Y349834D02*Y347674D01*
X153608Y348754D02*X154256Y347674D01*
X154904Y349564D02*X155174Y349834D01*
X155714D01*
X155984Y349564D01*
X155714Y347674D02*X155984Y347944D01*
X155174Y347674D02*X155714D01*
X154904Y347944D02*X155174Y347674D01*
Y348862D02*X155714D01*
X155984Y349564D02*Y349132D01*
Y348592D02*Y347944D01*
Y348592D02*X155714Y348862D01*
X155984Y349132D02*X155714Y348862D01*
X223000Y324604D02*Y321524D01*
X224540D01*
X225464Y323218D02*X226619D01*
X225464Y321524D02*X227004D01*
X225464Y324604D02*Y321524D01*
Y324604D02*X227004D01*
X228313D02*Y321524D01*
X229314Y324604D02*X229853Y324065D01*
Y322063D01*
X229314Y321524D02*X229853Y322063D01*
X227928Y321524D02*X229314D01*
X227928Y324604D02*X229314D01*
X212500D02*X214040D01*
X214425Y324219D01*
Y323449D01*
X214040Y323064D02*X214425Y323449D01*
X212885Y323064D02*X214040D01*
X212885Y324604D02*Y321524D01*
X213501Y323064D02*X214425Y321524D01*
X215349Y323988D02*X215965Y324604D01*
Y321524D01*
X215349D02*X216504D01*
X217428Y321909D02*X217813Y321524D01*
X217428Y324219D02*Y321909D01*
Y324219D02*X217813Y324604D01*
X218583D01*
X218968Y324219D01*
Y321909D01*
X218583Y321524D02*X218968Y321909D01*
X217813Y321524D02*X218583D01*
X217428Y322294D02*X218968Y323834D01*
X208500Y290010D02*X209490D01*
X208995D02*Y286050D01*
X208500D02*X209490D01*
X210678Y289515D02*X211173Y290010D01*
X212658D01*
X213153Y289515D01*
Y288525D01*
X210678Y286050D02*X213153Y288525D01*
X210678Y286050D02*X213153D01*
X215034D02*X216321D01*
X214341Y286743D02*X215034Y286050D01*
X214341Y289317D02*Y286743D01*
Y289317D02*X215034Y290010D01*
X216321D01*
X207492Y317024D02*X208493D01*
X206953Y317563D02*X207492Y317024D01*
X206953Y319565D02*Y317563D01*
Y319565D02*X207492Y320104D01*
X208493D01*
X209417Y319488D02*X210033Y320104D01*
Y317024D01*
X209417D02*X210572D01*
X211496Y317409D02*X211881Y317024D01*
X211496Y318025D02*Y317409D01*
Y318025D02*X212035Y318564D01*
X212497D01*
X213036Y318025D01*
Y317409D01*
X212651Y317024D02*X213036Y317409D01*
X211881Y317024D02*X212651D01*
X211496Y319103D02*X212035Y318564D01*
X211496Y319719D02*Y319103D01*
Y319719D02*X211881Y320104D01*
X212651D01*
X213036Y319719D01*
Y319103D01*
X212497Y318564D02*X213036Y319103D01*
X284547Y302104D02*X286087D01*
X286472Y301719D01*
Y300949D01*
X286087Y300564D02*X286472Y300949D01*
X284932Y300564D02*X286087D01*
X284932Y302104D02*Y299024D01*
X285548Y300564D02*X286472Y299024D01*
X287396Y299409D02*X287781Y299024D01*
X287396Y300025D02*Y299409D01*
Y300025D02*X287935Y300564D01*
X288397D01*
X288936Y300025D01*
Y299409D01*
X288551Y299024D02*X288936Y299409D01*
X287781Y299024D02*X288551D01*
X287396Y301103D02*X287935Y300564D01*
X287396Y301719D02*Y301103D01*
Y301719D02*X287781Y302104D01*
X288551D01*
X288936Y301719D01*
Y301103D01*
X288397Y300564D02*X288936Y301103D01*
X275047Y302104D02*X276587D01*
X276972Y301719D01*
Y300949D01*
X276587Y300564D02*X276972Y300949D01*
X275432Y300564D02*X276587D01*
X275432Y302104D02*Y299024D01*
X276048Y300564D02*X276972Y299024D01*
X278281D02*X279821Y302104D01*
X277896D02*X279821D01*
X283669Y292512D02*X284169Y292012D01*
X282169Y292512D02*X283669D01*
X281669Y292012D02*X282169Y292512D01*
X281669Y292012D02*Y291012D01*
X282169Y290512D01*
X283669D01*
X284169Y290012D01*
Y289012D01*
X283669Y288512D02*X284169Y289012D01*
X282169Y288512D02*X283669D01*
X281669Y289012D02*X282169Y288512D01*
X285369Y291712D02*X286169Y292512D01*
Y288512D01*
X285369D02*X286869D01*
X255039Y300524D02*X256040D01*
X254500Y301063D02*X255039Y300524D01*
X254500Y303065D02*Y301063D01*
Y303065D02*X255039Y303604D01*
X256040D01*
X256964Y302988D02*X257580Y303604D01*
Y300524D01*
X256964D02*X258119D01*
X259043Y302988D02*X259659Y303604D01*
Y300524D01*
X259043D02*X260198D01*
X239000Y292500D02*X241000D01*
X241500Y292000D01*
Y291000D01*
X241000Y290500D02*X241500Y291000D01*
X239500Y290500D02*X241000D01*
X239500Y292500D02*Y288500D01*
X240300Y290500D02*X241500Y288500D01*
X242700Y290700D02*X244200D01*
X242700Y288500D02*X244700D01*
X242700Y292500D02*Y288500D01*
Y292500D02*X244700D01*
X247900D02*X248400Y292000D01*
X246400Y292500D02*X247900D01*
X245900Y292000D02*X246400Y292500D01*
X245900Y292000D02*Y291000D01*
X246400Y290500D01*
X247900D01*
X248400Y290000D01*
Y289000D01*
X247900Y288500D02*X248400Y289000D01*
X246400Y288500D02*X247900D01*
X245900Y289000D02*X246400Y288500D01*
X249600Y290700D02*X251100D01*
X249600Y288500D02*X251600D01*
X249600Y292500D02*Y288500D01*
Y292500D02*X251600D01*
X252800D02*X254800D01*
X253800D02*Y288500D01*
X197000Y307500D02*X199000D01*
X199500Y307000D01*
Y306000D01*
X199000Y305500D02*X199500Y306000D01*
X197500Y305500D02*X199000D01*
X197500Y307500D02*Y303500D01*
X198300Y305500D02*X199500Y303500D01*
X200700Y307500D02*X202700D01*
X201700D02*Y303500D01*
X204600D02*X205900D01*
X203900Y304200D02*X204600Y303500D01*
X203900Y306800D02*Y304200D01*
Y306800D02*X204600Y307500D01*
X205900D01*
X197500Y313374D02*Y309874D01*
X198000Y309374D01*
X199000D01*
X199500Y309874D01*
Y313374D02*Y309874D01*
X200700Y312874D02*X201200Y313374D01*
X202700D01*
X203200Y312874D01*
Y311874D01*
X200700Y309374D02*X203200Y311874D01*
X200700Y309374D02*X203200D01*
X189500Y290010D02*Y286545D01*
X189995Y286050D01*
X190985D01*
X191480Y286545D01*
Y290010D02*Y286545D01*
X192668Y289020D02*Y286050D01*
Y289020D02*X193361Y290010D01*
X194450D01*
X195143Y289020D01*
Y286050D01*
X192668Y288030D02*X195143D01*
X196331Y290010D02*X198311D01*
X198806Y289515D01*
Y288525D01*
X198311Y288030D02*X198806Y288525D01*
X196826Y288030D02*X198311D01*
X196826Y290010D02*Y286050D01*
X197618Y288030D02*X198806Y286050D01*
X199994Y290010D02*X201974D01*
X200984D02*Y286050D01*
X233539Y314977D02*X234540D01*
X233000Y315516D02*X233539Y314977D01*
X233000Y317518D02*Y315516D01*
Y317518D02*X233539Y318057D01*
X234540D01*
X235464Y317441D02*X236080Y318057D01*
Y314977D01*
X235464D02*X236619D01*
X237928D02*X239468Y318057D01*
X237543D02*X239468D01*
X228650Y307850D02*Y304350D01*
X229150Y303850D01*
X230150D01*
X230650Y304350D01*
Y307850D02*Y304350D01*
X231850Y305350D02*X233850Y307850D01*
X231850Y305350D02*X234350D01*
X233850Y307850D02*Y303850D01*
X145835Y329114D02*X147355D01*
X147735Y328734D01*
Y327974D01*
X147355Y327594D02*X147735Y327974D01*
X146215Y327594D02*X147355D01*
X146215Y329114D02*Y326074D01*
X146823Y327594D02*X147735Y326074D01*
X148647Y328734D02*X149027Y329114D01*
X150167D01*
X150547Y328734D01*
Y327974D01*
X148647Y326074D02*X150547Y327974D01*
X148647Y326074D02*X150547D01*
X153276Y341393D02*X154356D01*
X154626Y341123D01*
Y340583D01*
X154356Y340313D02*X154626Y340583D01*
X153546Y340313D02*X154356D01*
X153546Y341393D02*Y339233D01*
X153978Y340313D02*X154626Y339233D01*
X155274Y340961D02*X155706Y341393D01*
Y339233D01*
X155274D02*X156084D01*
X154331Y334174D02*X155033D01*
X153953Y334552D02*X154331Y334174D01*
X153953Y335956D02*Y334552D01*
Y335956D02*X154331Y336334D01*
X155033D01*
X156491D02*X156761Y336064D01*
X155951Y336334D02*X156491D01*
X155681Y336064D02*X155951Y336334D01*
X155681Y336064D02*Y334444D01*
X155951Y334174D01*
X156491Y335362D02*X156761Y335092D01*
X155681Y335362D02*X156491D01*
X155951Y334174D02*X156491D01*
X156761Y334444D01*
Y335092D02*Y334444D01*
X158586Y325477D02*X159587D01*
X158047Y326016D02*X158586Y325477D01*
X158047Y328018D02*Y326016D01*
Y328018D02*X158586Y328557D01*
X159587D01*
X160896Y325477D02*X162436Y328557D01*
X160511D02*X162436D01*
X152539Y325524D02*X153540D01*
X152000Y326063D02*X152539Y325524D01*
X152000Y328065D02*Y326063D01*
Y328065D02*X152539Y328604D01*
X153540D01*
X154464Y325909D02*X154849Y325524D01*
X154464Y326525D02*Y325909D01*
Y326525D02*X155003Y327064D01*
X155465D01*
X156004Y326525D01*
Y325909D01*
X155619Y325524D02*X156004Y325909D01*
X154849Y325524D02*X155619D01*
X154464Y327603D02*X155003Y327064D01*
X154464Y328219D02*Y327603D01*
Y328219D02*X154849Y328604D01*
X155619D01*
X156004Y328219D01*
Y327603D01*
X155465Y327064D02*X156004Y327603D01*
X153213Y343174D02*X153915D01*
X152835Y343552D02*X153213Y343174D01*
X152835Y344956D02*Y343552D01*
Y344956D02*X153213Y345334D01*
X153915D01*
X154563Y344902D02*X154995Y345334D01*
Y343174D01*
X154563D02*X155373D01*
X156021Y343444D02*X156291Y343174D01*
X156021Y345064D02*Y343444D01*
Y345064D02*X156291Y345334D01*
X156831D01*
X157101Y345064D01*
Y343444D01*
X156831Y343174D02*X157101Y343444D01*
X156291Y343174D02*X156831D01*
X156021Y343714D02*X157101Y344794D01*
X142094Y323057D02*Y319977D01*
X143634D01*
X144558Y322672D02*X144943Y323057D01*
X146098D01*
X146483Y322672D01*
Y321902D01*
X144558Y319977D02*X146483Y321902D01*
X144558Y319977D02*X146483D01*
X133370Y313024D02*X134371D01*
X132831Y313563D02*X133370Y313024D01*
X132831Y315565D02*Y313563D01*
Y315565D02*X133370Y316104D01*
X134371D01*
X135295Y315488D02*X135911Y316104D01*
Y313024D01*
X135295D02*X136450D01*
X137374Y315719D02*X137759Y316104D01*
X138914D01*
X139299Y315719D01*
Y314949D01*
X137374Y313024D02*X139299Y314949D01*
X137374Y313024D02*X139299D01*
X119000Y314500D02*Y311000D01*
X119500Y310500D01*
X120500D01*
X121000Y311000D01*
Y314500D02*Y311000D01*
X124200Y314500D02*X124700Y314000D01*
X122700Y314500D02*X124200D01*
X122200Y314000D02*X122700Y314500D01*
X122200Y314000D02*Y313000D01*
X122700Y312500D01*
X124200D01*
X124700Y312000D01*
Y311000D01*
X124200Y310500D02*X124700Y311000D01*
X122700Y310500D02*X124200D01*
X122200Y311000D02*X122700Y310500D01*
X125900D02*X127900D01*
X128400Y311000D01*
Y312200D02*Y311000D01*
X127900Y312700D02*X128400Y312200D01*
X126400Y312700D02*X127900D01*
X126400Y314500D02*Y310500D01*
X125900Y314500D02*X127900D01*
X128400Y314000D01*
Y313200D01*
X127900Y312700D02*X128400Y313200D01*
X120826Y291938D02*Y291236D01*
X120448Y290858D02*X120826Y291236D01*
X119044Y290858D02*X120448D01*
X119044D02*X118666Y291236D01*
Y291938D02*Y291236D01*
X119098Y292586D02*X118666Y293018D01*
X120826D01*
Y293396D02*Y292586D01*
X118666Y294854D02*X118936Y295124D01*
X118666Y294854D02*Y294314D01*
X118936Y294044D02*X118666Y294314D01*
X118936Y294044D02*X120556D01*
X120826Y294314D01*
X119638Y294854D02*X119908Y295124D01*
X119638Y294854D02*Y294044D01*
X120826Y294854D02*Y294314D01*
Y294854D02*X120556Y295124D01*
X119908D02*X120556D01*
X118265Y288470D02*Y286350D01*
X118000Y288470D02*X119060D01*
X119325Y288205D01*
Y287675D01*
X119060Y287410D02*X119325Y287675D01*
X118265Y287410D02*X119060D01*
X119961Y288470D02*X121021D01*
X121286Y288205D01*
Y287675D01*
X121021Y287410D02*X121286Y287675D01*
X120226Y287410D02*X121021D01*
X120226Y288470D02*Y286350D01*
X120650Y287410D02*X121286Y286350D01*
X121922Y287516D02*X122717D01*
X121922Y286350D02*X122982D01*
X121922Y288470D02*Y286350D01*
Y288470D02*X122982D01*
X124678D02*X124943Y288205D01*
X123883Y288470D02*X124678D01*
X123618Y288205D02*X123883Y288470D01*
X123618Y288205D02*Y287675D01*
X123883Y287410D01*
X124678D01*
X124943Y287145D01*
Y286615D01*
X124678Y286350D02*X124943Y286615D01*
X123883Y286350D02*X124678D01*
X123618Y286615D02*X123883Y286350D01*
X125579D02*X126639D01*
X127540Y288470D02*Y286350D01*
X127275Y288470D02*X128335D01*
X128600Y288205D01*
Y287675D01*
X128335Y287410D02*X128600Y287675D01*
X127540Y287410D02*X128335D01*
X129236Y288470D02*Y287410D01*
X129501Y286350D01*
X130031Y287410D01*
X130561Y286350D01*
X130826Y287410D01*
Y288470D02*Y287410D01*
X131462Y288470D02*X132522D01*
X132787Y288205D01*
Y287675D01*
X132522Y287410D02*X132787Y287675D01*
X131727Y287410D02*X132522D01*
X131727Y288470D02*Y286350D01*
X132151Y287410D02*X132787Y286350D01*
X148547Y308945D02*X150027D01*
X150397Y308575D01*
Y307835D01*
X150027Y307465D02*X150397Y307835D01*
X148917Y307465D02*X150027D01*
X148917Y308945D02*Y305985D01*
X149509Y307465D02*X150397Y305985D01*
X151285Y308353D02*X151877Y308945D01*
Y305985D01*
X151285D02*X152395D01*
X153283Y307095D02*X154763Y308945D01*
X153283Y307095D02*X155133D01*
X154763Y308945D02*Y305985D01*
X134907Y304211D02*Y301901D01*
Y304211D02*X135292Y304596D01*
X136062D01*
X136447Y304211D01*
Y302286D01*
X135677Y301516D02*X136447Y302286D01*
X135292Y301516D02*X135677D01*
X134907Y301901D02*X135292Y301516D01*
X135677Y302671D02*X136447Y301516D01*
X137371Y304211D02*X137756Y304596D01*
X138911D01*
X139296Y304211D01*
Y303441D01*
X137371Y301516D02*X139296Y303441D01*
X137371Y301516D02*X139296D01*
X160094Y303340D02*X161634D01*
X162019Y302955D01*
Y302185D01*
X161634Y301800D02*X162019Y302185D01*
X160479Y301800D02*X161634D01*
X160479Y303340D02*Y300260D01*
X161095Y301800D02*X162019Y300260D01*
X162943Y302724D02*X163559Y303340D01*
Y300260D01*
X162943D02*X164098D01*
X165022Y302955D02*X165407Y303340D01*
X166177D01*
X166562Y302955D01*
X166177Y300260D02*X166562Y300645D01*
X165407Y300260D02*X166177D01*
X165022Y300645D02*X165407Y300260D01*
Y301954D02*X166177D01*
X166562Y302955D02*Y302339D01*
Y301569D02*Y300645D01*
Y301569D02*X166177Y301954D01*
X166562Y302339D02*X166177Y301954D01*
X168200Y289100D02*Y286100D01*
Y289100D02*X168700Y289600D01*
X169700D01*
X170200Y289100D01*
Y286600D01*
X169200Y285600D02*X170200Y286600D01*
X168700Y285600D02*X169200D01*
X168200Y286100D02*X168700Y285600D01*
X169200Y287100D02*X170200Y285600D01*
X171400Y287100D02*X173400Y289600D01*
X171400Y287100D02*X173900D01*
X173400Y289600D02*Y285600D01*
M02*
