G04 start of page 9 for group -4078 idx -4078 *
G04 Title: riffle, bottomsilk *
G04 Creator: pcb 20140316 *
G04 CreationDate: Fri 26 Sep 2014 03:41:52 PM GMT UTC *
G04 For: ben *
G04 Format: Gerber/RS-274X *
G04 PCB-Dimensions (mil): 6000.00 5000.00 *
G04 PCB-Coordinate-Origin: lower left *
%MOIN*%
%FSLAX25Y25*%
%LNBOTTOMSILK*%
%ADD90C,0.0079*%
%ADD89C,0.0060*%
%ADD88C,0.0100*%
%ADD87C,0.0001*%
G54D87*G36*
X290630Y283150D02*X290474Y281936D01*
X289839Y280948D01*
X289290Y280502D01*
X288786Y281674D01*
X288959Y281929D01*
X289099Y282130D01*
X289236Y282451D01*
X289307Y282629D01*
X285335D01*
X285379Y282379D01*
X285466Y282184D01*
X285645Y281972D01*
X285986Y281674D01*
X286252Y281566D01*
X286482Y281469D01*
X287462Y281305D01*
X288124Y281495D01*
X288786Y281674D01*
X289290Y280502D01*
X288699Y280318D01*
X288075Y280171D01*
X287450Y280027D01*
X286675Y280025D01*
X285921Y280215D01*
X285308Y280513D01*
X284923Y280893D01*
X284478Y281414D01*
X284096Y282027D01*
X283963Y282607D01*
X283968Y283367D01*
X283984Y284116D01*
X284194Y284833D01*
X284523Y285356D01*
X285010Y285754D01*
X285531Y286145D01*
X286116Y286421D01*
X286854Y286584D01*
X287853Y286644D01*
X290630D01*
Y285298D01*
X290283Y285376D01*
X289827Y285466D01*
X289480Y285488D01*
X289274Y285480D01*
X288872Y285479D01*
X288493Y285488D01*
X288135D01*
X287936Y285485D01*
X287281Y285406D01*
X286770Y285277D01*
X286244Y285154D01*
X285857Y284977D01*
X285595Y284858D01*
X285362Y284707D01*
X285214Y284453D01*
X285105Y283956D01*
X290630Y283974D01*
Y283150D01*
G37*
G36*
X280770Y275908D02*Y286585D01*
X282093D01*
Y275908D01*
X280770D01*
G37*
G36*
X271470Y275930D02*X269582D01*
X269045Y275984D01*
X268573Y276147D01*
X268193Y276391D01*
X267955Y276711D01*
X267673Y277177D01*
X267466Y277870D01*
X267456Y279207D01*
Y279923D01*
X266132D01*
Y281268D01*
X267456D01*
Y286607D01*
X268801D01*
Y281268D01*
X270125D01*
Y279923D01*
X268801D01*
Y278989D01*
X268834Y278241D01*
X268953Y277644D01*
X269024Y277519D01*
X269104Y277456D01*
X269240Y277361D01*
X269561Y277253D01*
X271470D01*
Y275930D01*
G37*
G36*
X242694Y296014D02*X242981Y297218D01*
X243215Y297305D01*
X247501Y296453D01*
X247398Y295200D01*
X247235Y294006D01*
X248238Y293768D01*
X249437Y293551D01*
X249237Y292558D01*
X248949Y291153D01*
X249014Y290979D01*
X249492Y290870D01*
X249985Y290756D01*
X250099Y290529D01*
X248819Y283790D01*
X247533Y277318D01*
X246898Y277394D01*
X246296Y277388D01*
X246079Y276721D01*
X246063Y276531D01*
X245998Y276249D01*
X246535Y275913D01*
X249215Y275137D01*
X251434Y274904D01*
X253566Y275115D01*
X256306Y275913D01*
X259540Y276884D01*
X261959Y277188D01*
X263299Y277177D01*
X264623Y277003D01*
X268095Y276016D01*
X270623Y275251D01*
X273548Y274860D01*
X273971Y274784D01*
X274047Y274719D01*
X273944Y274660D01*
X274047Y274562D01*
X273993Y274475D01*
X273521Y274464D01*
X271969Y274643D01*
X268616Y275598D01*
X265610Y276466D01*
X264401Y276683D01*
X263278Y276765D01*
X262171Y276699D01*
X260988Y276493D01*
X258091Y275658D01*
X255015Y274746D01*
X252741Y274508D01*
X251401Y274518D01*
X250143Y274654D01*
X247278Y275414D01*
X245906Y275875D01*
X245830Y275468D01*
X245748Y275197D01*
X245564Y275077D01*
X244430Y275245D01*
X243475Y275332D01*
X243177Y274128D01*
X242954Y273173D01*
X242835Y273043D01*
X242650Y273021D01*
X238353Y273889D01*
X238511Y275175D01*
X238750Y276379D01*
X238505D01*
X235250Y275327D01*
X233574Y274909D01*
X232901Y274822D01*
X232613D01*
X232630Y275202D01*
X233156Y275311D01*
X236498Y276070D01*
X238033Y276515D01*
X237122Y276694D01*
X236851Y276743D01*
X236639Y276802D01*
X236541Y277020D01*
X236666Y278099D01*
X236861Y279238D01*
X236384Y279461D01*
X235793Y279672D01*
X236932Y286123D01*
X238245Y292726D01*
X238402Y292959D01*
X238961Y292937D01*
X239601Y292862D01*
X239818Y294017D01*
X240024Y294885D01*
X240209Y295238D01*
X242227Y294950D01*
X242374D01*
X242477Y295075D01*
X242694Y296014D01*
G37*
G36*
X261011Y275930D02*Y277253D01*
X262335D01*
Y275930D01*
X261011D01*
G37*
G36*
Y279923D02*Y286607D01*
X262335D01*
Y279923D01*
X261011D01*
G37*
G36*
X257604Y281268D02*Y279923D01*
X257062D01*
X256660Y279977D01*
X256264Y280107D01*
X255950Y280226D01*
X255781Y280270D01*
X255472Y280509D01*
X255147Y280829D01*
X254924Y281116D01*
X254935Y281268D01*
Y279923D01*
X253611D01*
Y286607D01*
X254935Y283265D01*
X254946Y282842D01*
X255000Y282500D01*
X255136Y282163D01*
X255391Y281789D01*
X255635Y281615D01*
X255928Y281545D01*
X256780Y281268D01*
X257604D01*
G37*
G36*
X277669Y276007D02*X275781D01*
X275244Y276061D01*
X274772Y276224D01*
X274392Y276468D01*
X274154Y276788D01*
X273872Y277254D01*
X273665Y277947D01*
X273655Y279284D01*
Y280000D01*
X272331D01*
Y281345D01*
X273655D01*
Y286684D01*
X275000D01*
Y281345D01*
X276324D01*
Y280000D01*
X275000D01*
Y279066D01*
X275033Y278318D01*
X275152Y277721D01*
X275223Y277596D01*
X275303Y277533D01*
X275439Y277438D01*
X275760Y277330D01*
X277669D01*
Y276007D01*
G37*
G54D88*X127350Y355000D02*Y375000D01*
X117350D01*
Y355000D01*
Y365000D02*X127350D01*
X127500Y352500D02*Y347500D01*
X125000Y350000D02*X130000D01*
X117350Y355000D02*X127350D01*
X129850Y360000D02*X134850D01*
X132350Y357500D02*Y362500D01*
Y367500D02*Y372500D01*
X192500Y287500D02*Y286000D01*
X190000D02*X195000D01*
X191000Y284500D02*X194000D01*
X192000Y283000D02*X193000D01*
G54D89*X257663Y296518D02*Y299598D01*
X259203D01*
X261282Y298058D02*X261667Y298443D01*
X260512Y298058D02*X261282D01*
X260127Y298443D02*X260512Y298058D01*
X260127Y298443D02*Y299213D01*
X260512Y299598D01*
X261667Y298058D02*Y299213D01*
X262052Y299598D01*
X260512D02*X261282D01*
X261667Y299213D01*
X262976Y298058D02*Y299213D01*
X263361Y299598D01*
X264131D01*
X264516Y299213D01*
Y298058D02*Y299213D01*
X265825Y298443D02*Y299598D01*
Y298443D02*X266210Y298058D01*
X266980D01*
X265440D02*X265825Y298443D01*
X269059Y298058D02*X269444Y298443D01*
X268289Y298058D02*X269059D01*
X267904Y298443D02*X268289Y298058D01*
X267904Y298443D02*Y299213D01*
X268289Y299598D01*
X269444Y298058D02*Y299213D01*
X269829Y299598D01*
X268289D02*X269059D01*
X269444Y299213D01*
X272524Y296518D02*Y299598D01*
X273525Y296518D02*X274064Y297057D01*
Y299059D01*
X273525Y299598D02*X274064Y299059D01*
X272139Y299598D02*X273525D01*
X272139Y296518D02*X273525D01*
X274988Y297288D02*Y297365D01*
Y298443D02*Y299598D01*
X276143D02*X277298D01*
X275758Y299213D02*X276143Y299598D01*
X275758Y298443D02*Y299213D01*
Y298443D02*X276143Y298058D01*
X276913D01*
X277298Y298443D01*
X275758Y298828D02*X277298D01*
Y298443D02*Y298828D01*
X278607Y296518D02*Y299213D01*
X278992Y299598D01*
X278222Y297673D02*X278992D01*
X279762Y298058D02*X281302D01*
X279762Y299598D02*X281302Y298058D01*
X279762Y299598D02*X281302D01*
X255584Y291227D02*Y294267D01*
X255204D02*X255584Y293887D01*
X254444Y294267D02*X255204D01*
X254064Y293887D02*X254444Y294267D01*
X254064Y293127D02*Y293887D01*
Y293127D02*X254444Y292747D01*
X255204D01*
X255584Y293127D01*
X256876Y294267D02*X258016D01*
X256496Y293887D02*X256876Y294267D01*
X256496Y293127D02*Y293887D01*
Y293127D02*X256876Y292747D01*
X257636D01*
X258016Y293127D01*
X256496Y293507D02*X258016D01*
Y293127D02*Y293507D01*
X259308Y294267D02*X260448D01*
X260828Y293887D01*
X260448Y293507D02*X260828Y293887D01*
X259308Y293507D02*X260448D01*
X258928Y293127D02*X259308Y293507D01*
X258928Y293127D02*X259308Y292747D01*
X260448D01*
X260828Y293127D01*
X258928Y293887D02*X259308Y294267D01*
X261740Y291987D02*Y292063D01*
Y293127D02*Y294267D01*
X263640Y292747D02*X264020Y293127D01*
X262880Y292747D02*X263640D01*
X262500Y293127D02*X262880Y292747D01*
X262500Y293127D02*Y293887D01*
X262880Y294267D01*
X263640D01*
X264020Y293887D01*
X262500Y295027D02*X262880Y295407D01*
X263640D01*
X264020Y295027D01*
Y292747D02*Y295027D01*
X265312Y293127D02*Y294267D01*
Y293127D02*X265692Y292747D01*
X266072D01*
X266452Y293127D01*
Y294267D01*
X264932Y292747D02*X265312Y293127D01*
X267744Y294267D02*X268884D01*
X267364Y293887D02*X267744Y294267D01*
X267364Y293127D02*Y293887D01*
Y293127D02*X267744Y292747D01*
X268504D01*
X268884Y293127D01*
X267364Y293507D02*X268884D01*
Y293127D02*Y293507D01*
X271316Y291227D02*Y294267D01*
X270936D02*X271316Y293887D01*
X270176Y294267D02*X270936D01*
X269796Y293887D02*X270176Y294267D01*
X269796Y293127D02*Y293887D01*
Y293127D02*X270176Y292747D01*
X270936D01*
X271316Y293127D01*
X273596Y291227D02*Y294267D01*
Y293887D02*X273976Y294267D01*
X274736D01*
X275116Y293887D01*
Y293127D02*Y293887D01*
X274736Y292747D02*X275116Y293127D01*
X273976Y292747D02*X274736D01*
X273596Y293127D02*X273976Y292747D01*
X276028D02*Y293887D01*
X276408Y294267D01*
X277548Y292747D02*Y295027D01*
X277168Y295407D02*X277548Y295027D01*
X276408Y295407D02*X277168D01*
X276028Y295027D02*X276408Y295407D01*
Y294267D02*X277168D01*
X277548Y293887D01*
X257131Y303800D02*X258651D01*
X259031Y303420D01*
Y302508D02*Y303420D01*
X258651Y302128D02*X259031Y302508D01*
X257511Y302128D02*X258651D01*
X257511Y300760D02*Y303800D01*
X257131Y300760D02*X258651D01*
X259031Y301140D01*
Y301748D01*
X258651Y302128D02*X259031Y301748D01*
X260323Y303800D02*X261463D01*
X259943Y303420D02*X260323Y303800D01*
X259943Y302660D02*Y303420D01*
Y302660D02*X260323Y302280D01*
X261083D01*
X261463Y302660D01*
X259943Y303040D02*X261463D01*
Y302660D02*Y303040D01*
X262756Y302660D02*Y303800D01*
Y302660D02*X263136Y302280D01*
X263516D01*
X263896Y302660D01*
Y303800D01*
X262376Y302280D02*X262756Y302660D01*
X267696Y300760D02*X268076Y301140D01*
X266556Y300760D02*X267696D01*
X266176Y301140D02*X266556Y300760D01*
X266176Y301140D02*Y303420D01*
X266556Y303800D01*
X267696D01*
X268076Y303420D01*
Y302660D02*Y303420D01*
X267696Y302280D02*X268076Y302660D01*
X266936Y302280D02*X267696D01*
X270128D02*X270508Y302660D01*
X269368Y302280D02*X270128D01*
X268988Y302660D02*X269368Y302280D01*
X268988Y302660D02*Y303420D01*
X269368Y303800D01*
X270508Y302280D02*Y303420D01*
X270888Y303800D01*
X269368D02*X270128D01*
X270508Y303420D01*
X272180Y302660D02*Y303800D01*
Y302660D02*X272560Y302280D01*
X272940D01*
X273320Y302660D01*
Y303800D01*
Y302660D02*X273700Y302280D01*
X274080D01*
X274460Y302660D01*
Y303800D01*
X271800Y302280D02*X272180Y302660D01*
X276512Y302280D02*X276892Y302660D01*
X275752Y302280D02*X276512D01*
X275372Y302660D02*X275752Y302280D01*
X275372Y302660D02*Y303420D01*
X275752Y303800D01*
X276892Y302280D02*Y303420D01*
X277272Y303800D01*
X275752D02*X276512D01*
X276892Y303420D01*
X278564Y302660D02*Y303800D01*
Y302660D02*X278944Y302280D01*
X279704D01*
X278184D02*X278564Y302660D01*
X280616Y301520D02*Y301596D01*
Y302660D02*Y303800D01*
X206000Y286345D02*X205615Y286730D01*
X204845D02*X205615D01*
X204845D02*X204460Y286345D01*
X204845Y283650D02*X204460Y284035D01*
X204845Y283650D02*X205615D01*
X206000Y284035D02*X205615Y283650D01*
X204845Y285344D02*X205615D01*
X204460Y285729D02*Y286345D01*
Y284035D02*Y284959D01*
X204845Y285344D01*
X204460Y285729D02*X204845Y285344D01*
X203536Y286730D02*X202766Y283650D01*
X201996Y286730D01*
X201072Y286345D02*X200687Y286730D01*
X199917D02*X200687D01*
X199917D02*X199532Y286345D01*
X199917Y283650D02*X199532Y284035D01*
X199917Y283650D02*X200687D01*
X201072Y284035D02*X200687Y283650D01*
X199917Y285344D02*X200687D01*
X199532Y285729D02*Y286345D01*
Y284035D02*Y284959D01*
X199917Y285344D01*
X199532Y285729D02*X199917Y285344D01*
X185115Y283650D02*Y286730D01*
X184114D02*X183575Y286191D01*
Y284189D02*Y286191D01*
X184114Y283650D02*X183575Y284189D01*
X184114Y283650D02*X185500D01*
X184114Y286730D02*X185500D01*
X181881D02*X182651D01*
X182266Y283650D02*Y286730D01*
X181881Y283650D02*X182651D01*
X180957Y284035D02*Y286345D01*
X180572Y286730D01*
X179802D02*X180572D01*
X179802D02*X179417Y286345D01*
Y284035D02*Y286345D01*
X179802Y283650D02*X179417Y284035D01*
X179802Y283650D02*X180572D01*
X180957Y284035D02*X180572Y283650D01*
X174460D02*X175461D01*
X176000Y284189D02*X175461Y283650D01*
X176000Y284189D02*Y286191D01*
X175461Y286730D01*
X174460D02*X175461D01*
X173536Y283650D02*Y286730D01*
X171996Y283650D02*X173536D01*
X171072D02*Y286730D01*
Y285190D02*X169532Y286730D01*
X171072Y285190D02*X169532Y283650D01*
G54D90*X175453Y304138D02*X226634D01*
Y355319D02*Y304138D01*
X175453Y355319D02*X226634D01*
X175453D02*Y304138D01*
G54D88*X157500Y281000D02*X207500D01*
X157500D02*Y269000D01*
X207500D01*
Y281000D02*Y269000D01*
G54D89*X228820Y295616D02*X218959D01*
Y291266D01*
X228820D01*
Y295616D01*
X252569Y315325D02*X262431D01*
Y319675D01*
X252569D02*X262431D01*
X252569Y315325D02*Y319675D01*
G54D88*X297500Y288500D02*X307000D01*
X297500Y338000D02*X307000D01*
Y288500D01*
X297500Y338000D02*Y288500D01*
G54D89*X178512Y356386D02*X179012Y356886D01*
X177012Y356386D02*X178512D01*
X176512Y356886D02*X177012Y356386D01*
X176512Y356886D02*Y357886D01*
X177012Y358386D01*
X178512D01*
X179012Y358886D01*
Y359886D01*
X178512Y360386D02*X179012Y359886D01*
X177012Y360386D02*X178512D01*
X176512Y359886D02*X177012Y360386D01*
X180712Y356386D02*Y360386D01*
X182012Y356386D02*X182712Y357086D01*
Y359686D01*
X182012Y360386D02*X182712Y359686D01*
X180212Y360386D02*X182012D01*
X180212Y356386D02*X182012D01*
X183912Y360386D02*X185912D01*
X187812D02*X189112D01*
X187112Y359686D02*X187812Y360386D01*
X187112Y357086D02*Y359686D01*
Y357086D02*X187812Y356386D01*
X189112D01*
X190312Y357386D02*Y360386D01*
Y357386D02*X191012Y356386D01*
X192112D01*
X192812Y357386D01*
Y360386D01*
X190312Y358386D02*X192812D01*
X194012Y356386D02*X196012D01*
X196512Y356886D01*
Y357886D01*
X196012Y358386D02*X196512Y357886D01*
X194512Y358386D02*X196012D01*
X194512Y356386D02*Y360386D01*
X195312Y358386D02*X196512Y360386D01*
X198212Y356386D02*Y360386D01*
X199512Y356386D02*X200212Y357086D01*
Y359686D01*
X199512Y360386D02*X200212Y359686D01*
X197712Y360386D02*X199512D01*
X197712Y356386D02*X199512D01*
X152500Y270000D02*X156500D01*
X152500D02*Y272000D01*
X153000Y273200D02*X156000D01*
X156500Y273700D01*
Y274700D01*
X156000Y275200D01*
X153000D02*X156000D01*
X152500Y274700D02*X153000Y275200D01*
X152500Y273700D02*Y274700D01*
X153000Y273200D02*X152500Y273700D01*
X154500Y276400D02*X156500D01*
X154500D02*X152500Y276900D01*
X154500Y277900D01*
X152500Y278900D01*
X154500Y279400D01*
X156500D01*
X154700Y280600D02*Y282100D01*
X152500Y280600D02*Y282600D01*
Y280600D02*X156500D01*
Y282600D01*
Y283800D02*Y285800D01*
X156000Y286300D01*
X155000D02*X156000D01*
X154500Y285800D02*X155000Y286300D01*
X154500Y284300D02*Y285800D01*
X152500Y284300D02*X156500D01*
X154500Y285100D02*X152500Y286300D01*
X255500Y320374D02*X256800D01*
X257500Y321074D02*X256800Y320374D01*
X257500Y321074D02*Y323674D01*
X256800Y324374D01*
X255500D02*X256800D01*
X254300Y323574D02*X253500Y324374D01*
Y320374D02*Y324374D01*
X252800Y320374D02*X254300D01*
X251100D02*X249600Y322374D01*
Y323874D01*
X250100Y324374D02*X249600Y323874D01*
X250100Y324374D02*X251100D01*
X251600Y323874D02*X251100Y324374D01*
X251600Y322874D02*Y323874D01*
Y322874D02*X251100Y322374D01*
X249600D02*X251100D01*
X224590Y290567D02*X225890D01*
X223890Y289867D02*X224590Y290567D01*
X223890Y287267D02*Y289867D01*
Y287267D02*X224590Y286567D01*
X225890D01*
X227090Y287067D02*X227590Y286567D01*
X229090D01*
X229590Y287067D01*
Y288067D01*
X227090Y290567D02*X229590Y288067D01*
X227090Y290567D02*X229590D01*
X230790Y287367D02*X231590Y286567D01*
Y290567D01*
X230790D02*X232290D01*
X304500Y300500D02*Y302500D01*
X304000Y303000D01*
X303000D02*X304000D01*
X302500Y302500D02*X303000Y303000D01*
X302500Y301000D02*Y302500D01*
X300500Y301000D02*X304500D01*
X302500Y301800D02*X300500Y303000D01*
X302700Y304200D02*Y305700D01*
X300500Y304200D02*Y306200D01*
Y304200D02*X304500D01*
Y306200D01*
X302700Y307400D02*Y308900D01*
X300500Y307400D02*Y309400D01*
Y307400D02*X304500D01*
Y309400D01*
X300500Y311100D02*X304500D01*
Y312400D02*X303800Y313100D01*
X301200D02*X303800D01*
X300500Y312400D02*X301200Y313100D01*
X300500Y310600D02*Y312400D01*
X304500Y310600D02*Y312400D01*
X300500Y314300D02*Y316300D01*
X304500Y319500D02*X304000Y320000D01*
X304500Y318000D02*Y319500D01*
X304000Y317500D02*X304500Y318000D01*
X303000Y317500D02*X304000D01*
X303000D02*X302500Y318000D01*
Y319500D01*
X302000Y320000D01*
X301000D02*X302000D01*
X300500Y319500D02*X301000Y320000D01*
X300500Y318000D02*Y319500D01*
X301000Y317500D02*X300500Y318000D01*
X302500Y321200D02*X304500D01*
X302500D02*X300500Y321700D01*
X302500Y322700D01*
X300500Y323700D01*
X302500Y324200D01*
X304500D01*
M02*
