G04 start of page 11 for group -4014 idx -4014 *
G04 Title: remote-board, bottompaste *
G04 Creator: pcb 20140316 *
G04 CreationDate: Fri 11 Apr 2014 05:25:08 AM GMT UTC *
G04 For: ben *
G04 Format: Gerber/RS-274X *
G04 PCB-Dimensions (mil): 6000.00 5000.00 *
G04 PCB-Coordinate-Origin: lower left *
%MOIN*%
%FSLAX25Y25*%
%LNBOTTOMPASTE*%
%ADD71R,0.0130X0.0130*%
%ADD70R,0.0276X0.0276*%
%ADD69R,0.0240X0.0240*%
G54D69*X171100Y431800D02*Y430200D01*
X175000Y431800D02*Y430200D01*
X178900Y431800D02*Y430200D01*
Y423600D02*Y422000D01*
X175000Y423600D02*Y422000D01*
X171100Y423600D02*Y422000D01*
G54D70*X180803Y437000D02*X181197D01*
X180803Y442906D02*X181197D01*
X167303Y437047D02*X167697D01*
X167303Y442953D02*X167697D01*
X174803Y410047D02*X175197D01*
X174803Y415953D02*X175197D01*
X160000Y420197D02*Y419803D01*
X154094Y420197D02*Y419803D01*
G54D71*X164044Y482917D02*Y478311D01*
X166603Y482917D02*Y478311D01*
X169162Y482917D02*Y478311D01*
X171721Y482917D02*Y478311D01*
X174279Y482917D02*Y478311D01*
X176838Y482917D02*Y478311D01*
X179397Y482917D02*Y478311D01*
X181956Y482917D02*Y478311D01*
Y459689D02*Y455083D01*
X179397Y459689D02*Y455083D01*
X176838Y459689D02*Y455083D01*
X174279Y459689D02*Y455083D01*
X171721Y459689D02*Y455083D01*
X169162Y459689D02*Y455083D01*
X166603Y459689D02*Y455083D01*
X164044Y459689D02*Y455083D01*
M02*
