G04 start of page 11 for group -4078 idx -4078 *
G04 Title: (unknown), bottomsilk *
G04 Creator: pcb 1.99z *
G04 CreationDate: Tue 11 Mar 2014 07:33:07 PM GMT UTC *
G04 For: ben *
G04 Format: Gerber/RS-274X *
G04 PCB-Dimensions (mil): 6000.00 5000.00 *
G04 PCB-Coordinate-Origin: lower left *
%MOIN*%
%FSLAX25Y25*%
%LNBOTTOMSILK*%
%ADD82C,0.0100*%
%ADD81C,0.0060*%
%ADD80C,0.0083*%
%ADD79C,0.0080*%
G54D79*X197280Y423500D02*X198800Y422740D01*
X197280Y421980D02*X198800Y422740D01*
X196140Y421068D02*X195760Y420688D01*
Y419548D02*Y420688D01*
Y419548D02*X196140Y419168D01*
X196900D01*
X198800Y421068D02*X196900Y419168D01*
X198800D02*Y421068D01*
Y417876D02*Y418256D01*
X196368Y416964D02*X195760Y416356D01*
X198800D01*
Y415824D02*Y416964D01*
X194500Y463000D02*Y465000D01*
Y463000D02*X195000Y462500D01*
X196000D01*
X196500Y463000D02*X196000Y462500D01*
X196500Y463000D02*Y464500D01*
X194500D02*X198500D01*
X196500Y463700D02*X198500Y462500D01*
Y459300D02*Y460800D01*
X198000Y461300D02*X198500Y460800D01*
X197000Y461300D02*X198000D01*
X197000D02*X196500Y460800D01*
Y459800D02*Y460800D01*
Y459800D02*X197000Y459300D01*
X197500D02*Y461300D01*
X197000Y459300D02*X197500D01*
X197000Y457600D02*X198500D01*
X197000D02*X196500Y457100D01*
Y456600D02*Y457100D01*
Y456600D02*X197000Y456100D01*
X198500D01*
X197000D02*X196500Y455600D01*
Y455100D02*Y455600D01*
Y455100D02*X197000Y454600D01*
X198500D01*
X196500Y458100D02*X197000Y457600D01*
Y453400D02*X198000D01*
X197000D02*X196500Y452900D01*
Y451900D02*Y452900D01*
Y451900D02*X197000Y451400D01*
X198000D01*
X198500Y451900D02*X198000Y451400D01*
X198500Y451900D02*Y452900D01*
X198000Y453400D02*X198500Y452900D01*
X194500Y449700D02*X198000D01*
X198500Y449200D01*
X196000D02*Y450200D01*
X198500Y446200D02*Y447700D01*
X198000Y448200D02*X198500Y447700D01*
X197000Y448200D02*X198000D01*
X197000D02*X196500Y447700D01*
Y446700D02*Y447700D01*
Y446700D02*X197000Y446200D01*
X197500D02*Y448200D01*
X197000Y446200D02*X197500D01*
X194500Y443200D02*X198500D01*
X198000D02*X198500Y442700D01*
Y441700D02*Y442700D01*
Y441700D02*X198000Y441200D01*
X197000D02*X198000D01*
X196500Y441700D02*X197000Y441200D01*
X196500Y441700D02*Y442700D01*
X197000Y443200D02*X196500Y442700D01*
X197000Y440000D02*X198000D01*
X197000D02*X196500Y439500D01*
Y438500D02*Y439500D01*
Y438500D02*X197000Y438000D01*
X198000D01*
X198500Y438500D02*X198000Y438000D01*
X198500Y438500D02*Y439500D01*
X198000Y440000D02*X198500Y439500D01*
X196500Y435300D02*X197000Y434800D01*
X196500Y435300D02*Y436300D01*
X197000Y436800D02*X196500Y436300D01*
X197000Y436800D02*X198000D01*
X198500Y436300D01*
X196500Y434800D02*X198000D01*
X198500Y434300D01*
Y435300D02*Y436300D01*
Y435300D02*X198000Y434800D01*
X197000Y432600D02*X198500D01*
X197000D02*X196500Y432100D01*
Y431100D02*Y432100D01*
Y433100D02*X197000Y432600D01*
X194500Y427900D02*X198500D01*
Y428400D02*X198000Y427900D01*
X198500Y428400D02*Y429400D01*
X198000Y429900D02*X198500Y429400D01*
X197000Y429900D02*X198000D01*
X197000D02*X196500Y429400D01*
Y428400D02*Y429400D01*
Y428400D02*X197000Y427900D01*
X190310Y450670D02*X192800D01*
X190310D02*X189480Y449840D01*
Y448180D02*Y449840D01*
Y451500D02*X190310Y450670D01*
G54D80*X187820Y446188D02*X187986D01*
G54D79*X190310D02*X192800D01*
X186990Y443698D02*X192800D01*
X186990D02*X186160Y442868D01*
Y442038D02*Y442868D01*
X189480D02*Y444528D01*
X186990Y439548D02*X192800D01*
X186990D02*X186160Y438718D01*
Y437888D02*Y438718D01*
X189480D02*Y440378D01*
X186160Y436228D02*X191970D01*
X192800Y435398D01*
Y430418D02*Y432908D01*
X191970Y433738D02*X192800Y432908D01*
X190310Y433738D02*X191970D01*
X190310D02*X189480Y432908D01*
Y431248D02*Y432908D01*
Y431248D02*X190310Y430418D01*
X191140D02*Y433738D01*
X190310Y430418D02*X191140D01*
G54D81*X177475Y415825D02*X187336D01*
Y420175D02*Y415825D01*
X177475Y420175D02*X187336D01*
X177475D02*Y415825D01*
X161069Y406825D02*X170931D01*
Y411175D02*Y406825D01*
X161069Y411175D02*X170931D01*
X161069D02*Y406825D01*
G54D82*X176200Y434900D02*X180250D01*
X183850Y438500D01*
Y441100D02*Y438500D01*
X176200Y441100D02*X183850D01*
X164150Y434900D02*X171800D01*
X164150Y441100D02*Y434900D01*
Y441100D02*X171800D01*
G54D81*X154676Y451175D02*X164537D01*
X154676D02*Y446825D01*
X164537D01*
Y451175D02*Y446825D01*
X152117Y417825D02*X161978D01*
Y422175D02*Y417825D01*
X152117Y422175D02*X161978D01*
X152117D02*Y417825D01*
G54D82*X162394Y484566D02*X183606D01*
Y453434D02*Y484566D01*
X162394Y453434D02*X183606D01*
X162394Y471500D02*Y484566D01*
Y453434D02*Y466500D01*
G75*G03X162394Y471500I0J2500D01*G01*
G54D79*X158150Y428150D02*Y431650D01*
X158650Y432150D01*
X159650D01*
X160150Y431650D01*
Y428150D02*Y431650D01*
X161350Y430650D02*X163350Y428150D01*
X161350Y430650D02*X163850D01*
X163350Y428150D02*Y432150D01*
X160153Y417126D02*X161453D01*
X159453Y416426D02*X160153Y417126D01*
X159453Y413826D02*Y416426D01*
Y413826D02*X160153Y413126D01*
X161453D01*
X162653Y413626D02*X163153Y413126D01*
X164153D01*
X164653Y413626D01*
X164153Y417126D02*X164653Y416626D01*
X163153Y417126D02*X164153D01*
X162653Y416626D02*X163153Y417126D01*
Y414926D02*X164153D01*
X164653Y413626D02*Y414426D01*
Y415426D02*Y416626D01*
Y415426D02*X164153Y414926D01*
X164653Y414426D02*X164153Y414926D01*
X167500Y411626D02*X169500D01*
X170000Y412126D01*
Y413126D01*
X169500Y413626D02*X170000Y413126D01*
X168000Y413626D02*X169500D01*
X168000Y411626D02*Y415626D01*
X168800Y413626D02*X170000Y415626D01*
X171200Y412426D02*X172000Y411626D01*
Y415626D01*
X171200D02*X172700D01*
X179294Y415126D02*X180594D01*
X178594Y414426D02*X179294Y415126D01*
X178594Y411826D02*Y414426D01*
Y411826D02*X179294Y411126D01*
X180594D01*
X181794Y411926D02*X182594Y411126D01*
Y415126D01*
X181794D02*X183294D01*
X159306Y446126D02*X160606D01*
X158606Y445426D02*X159306Y446126D01*
X158606Y442826D02*Y445426D01*
Y442826D02*X159306Y442126D01*
X160606D01*
X161806Y445626D02*X162306Y446126D01*
X161806Y444826D02*Y445626D01*
Y444826D02*X162506Y444126D01*
X163106D01*
X163806Y444826D01*
Y445626D01*
X163306Y446126D02*X163806Y445626D01*
X162306Y446126D02*X163306D01*
X161806Y443426D02*X162506Y444126D01*
X161806Y442626D02*Y443426D01*
Y442626D02*X162306Y442126D01*
X163306D01*
X163806Y442626D01*
Y443426D01*
X163106Y444126D02*X163806Y443426D01*
X156500Y466000D02*Y469500D01*
X157000Y470000D01*
X158000D01*
X158500Y469500D01*
Y466000D02*Y469500D01*
X161200Y466000D02*X161700Y466500D01*
X160200Y466000D02*X161200D01*
X159700Y466500D02*X160200Y466000D01*
X159700Y466500D02*Y469500D01*
X160200Y470000D01*
X161200Y467800D02*X161700Y468300D01*
X159700Y467800D02*X161200D01*
X160200Y470000D02*X161200D01*
X161700Y469500D01*
Y468300D02*Y469500D01*
M02*
