G04 start of page 10 for group -4015 idx -4015 *
G04 Title: remote-board, toppaste *
G04 Creator: pcb 20140316 *
G04 CreationDate: Fri 18 Apr 2014 05:49:53 PM GMT UTC *
G04 For: ben *
G04 Format: Gerber/RS-274X *
G04 PCB-Dimensions (mil): 6000.00 5000.00 *
G04 PCB-Coordinate-Origin: lower left *
%MOIN*%
%FSLAX25Y25*%
%LNTOPPASTE*%
%ADD68R,0.0400X0.0400*%
%ADD67R,0.0354X0.0354*%
%ADD66R,0.0276X0.0276*%
%ADD65R,0.0240X0.0240*%
%ADD64R,0.0157X0.0157*%
G54D64*X154441Y426228D02*Y421898D01*
X157000Y426228D02*Y421898D01*
X159559Y426228D02*Y421898D01*
Y434102D02*Y429772D01*
X157000Y434102D02*Y429772D01*
X154441Y434102D02*Y429772D01*
G54D65*X160500Y468300D02*Y466700D01*
X156600Y468300D02*Y466700D01*
X152700Y468300D02*Y466700D01*
Y460100D02*Y458500D01*
X156600Y460100D02*Y458500D01*
X160500Y460100D02*Y458500D01*
G54D66*X169803Y484953D02*X170197D01*
X169803Y479047D02*X170197D01*
X174803Y484953D02*X175197D01*
X174803Y479047D02*X175197D01*
X185803Y469906D02*X186197D01*
X185803Y464000D02*X186197D01*
X164803Y484953D02*X165197D01*
X164803Y479047D02*X165197D01*
X159803Y484953D02*X160197D01*
X159803Y479047D02*X160197D01*
X187303Y445547D02*X187697D01*
X187303Y451453D02*X187697D01*
X193453Y484197D02*Y483803D01*
X187547Y484197D02*Y483803D01*
X179803Y484953D02*X180197D01*
X179803Y479047D02*X180197D01*
G54D67*X166618Y432411D02*Y426112D01*
X171539Y432411D02*Y426112D01*
X176461Y432411D02*Y426112D01*
X181382Y432411D02*Y426112D01*
Y458888D02*Y452589D01*
X176461Y458888D02*Y452589D01*
X171539Y458888D02*Y452589D01*
X166618Y458888D02*Y452589D01*
G54D68*X195000Y478500D02*Y474500D01*
Y419500D02*Y415500D01*
M02*
