G04 start of page 9 for group -4078 idx -4078 *
G04 Title: remote-board, bottomsilk *
G04 Creator: pcb 20140316 *
G04 CreationDate: Fri 11 Apr 2014 05:27:53 AM GMT UTC *
G04 For: ben *
G04 Format: Gerber/RS-274X *
G04 PCB-Dimensions (mil): 6000.00 5000.00 *
G04 PCB-Coordinate-Origin: lower left *
%MOIN*%
%FSLAX25Y25*%
%LNBOTTOMSILK*%
%ADD63C,0.0060*%
%ADD62C,0.0100*%
%ADD61C,0.0105*%
%ADD60C,0.0084*%
%ADD59C,0.0080*%
G54D59*X205780Y431000D02*X207300Y430240D01*
X205780Y429480D02*X207300Y430240D01*
X204640Y428568D02*X204260Y428188D01*
Y427428D02*Y428188D01*
Y427428D02*X204640Y427048D01*
X207300Y427428D02*X206920Y427048D01*
X207300Y427428D02*Y428188D01*
X206920Y428568D02*X207300Y428188D01*
X205628Y427428D02*Y428188D01*
X204640Y427048D02*X205248D01*
X206008D02*X206920D01*
X206008D02*X205628Y427428D01*
X205248Y427048D02*X205628Y427428D01*
X207300Y425756D02*Y426136D01*
X204640Y424844D02*X204260Y424464D01*
Y423704D02*Y424464D01*
Y423704D02*X204640Y423324D01*
X207300Y423704D02*X206920Y423324D01*
X207300Y423704D02*Y424464D01*
X206920Y424844D02*X207300Y424464D01*
X205628Y423704D02*Y424464D01*
X204640Y423324D02*X205248D01*
X206008D02*X206920D01*
X206008D02*X205628Y423704D01*
X205248Y423324D02*X205628Y423704D01*
X203500Y468000D02*Y470000D01*
Y468000D02*X204000Y467500D01*
X205000D01*
X205500Y468000D02*X205000Y467500D01*
X205500Y468000D02*Y469500D01*
X203500D02*X207500D01*
X205500Y468700D02*X207500Y467500D01*
Y464300D02*Y465800D01*
X207000Y466300D02*X207500Y465800D01*
X206000Y466300D02*X207000D01*
X206000D02*X205500Y465800D01*
Y464800D02*Y465800D01*
Y464800D02*X206000Y464300D01*
X206500D02*Y466300D01*
X206000Y464300D02*X206500D01*
X206000Y462600D02*X207500D01*
X206000D02*X205500Y462100D01*
Y461600D02*Y462100D01*
Y461600D02*X206000Y461100D01*
X207500D01*
X206000D02*X205500Y460600D01*
Y460100D02*Y460600D01*
Y460100D02*X206000Y459600D01*
X207500D01*
X205500Y463100D02*X206000Y462600D01*
Y458400D02*X207000D01*
X206000D02*X205500Y457900D01*
Y456900D02*Y457900D01*
Y456900D02*X206000Y456400D01*
X207000D01*
X207500Y456900D02*X207000Y456400D01*
X207500Y456900D02*Y457900D01*
X207000Y458400D02*X207500Y457900D01*
X203500Y454700D02*X207000D01*
X207500Y454200D01*
X205000D02*Y455200D01*
X207500Y451200D02*Y452700D01*
X207000Y453200D02*X207500Y452700D01*
X206000Y453200D02*X207000D01*
X206000D02*X205500Y452700D01*
Y451700D02*Y452700D01*
Y451700D02*X206000Y451200D01*
X206500D02*Y453200D01*
X206000Y451200D02*X206500D01*
X203500Y448200D02*X207500D01*
X207000D02*X207500Y447700D01*
Y446700D02*Y447700D01*
Y446700D02*X207000Y446200D01*
X206000D02*X207000D01*
X205500Y446700D02*X206000Y446200D01*
X205500Y446700D02*Y447700D01*
X206000Y448200D02*X205500Y447700D01*
X206000Y445000D02*X207000D01*
X206000D02*X205500Y444500D01*
Y443500D02*Y444500D01*
Y443500D02*X206000Y443000D01*
X207000D01*
X207500Y443500D02*X207000Y443000D01*
X207500Y443500D02*Y444500D01*
X207000Y445000D02*X207500Y444500D01*
X205500Y440300D02*X206000Y439800D01*
X205500Y440300D02*Y441300D01*
X206000Y441800D02*X205500Y441300D01*
X206000Y441800D02*X207000D01*
X207500Y441300D01*
X205500Y439800D02*X207000D01*
X207500Y439300D01*
Y440300D02*Y441300D01*
Y440300D02*X207000Y439800D01*
X206000Y437600D02*X207500D01*
X206000D02*X205500Y437100D01*
Y436100D02*Y437100D01*
Y438100D02*X206000Y437600D01*
X203500Y432900D02*X207500D01*
Y433400D02*X207000Y432900D01*
X207500Y433400D02*Y434400D01*
X207000Y434900D02*X207500Y434400D01*
X206000Y434900D02*X207000D01*
X206000D02*X205500Y434400D01*
Y433400D02*Y434400D01*
Y433400D02*X206000Y432900D01*
G54D60*X197850Y468950D02*X201000D01*
X197850D02*X196800Y467900D01*
Y465800D02*Y467900D01*
Y470000D02*X197850Y468950D01*
G54D61*X194700Y463280D02*X194910D01*
G54D60*X197850D02*X201000D01*
X193650Y460130D02*X201000D01*
X193650D02*X192600Y459080D01*
Y458030D02*Y459080D01*
X196800D02*Y461180D01*
X193650Y454880D02*X201000D01*
X193650D02*X192600Y453830D01*
Y452780D02*Y453830D01*
X196800D02*Y455930D01*
X192600Y450680D02*X199950D01*
X201000Y449630D01*
Y443330D02*Y446480D01*
X199950Y447530D02*X201000Y446480D01*
X197850Y447530D02*X199950D01*
X197850D02*X196800Y446480D01*
Y444380D02*Y446480D01*
Y444380D02*X197850Y443330D01*
X198900D02*Y447530D01*
X197850Y443330D02*X198900D01*
G54D62*X169100Y420000D02*Y433900D01*
X180900D01*
Y420000D02*Y433900D01*
X169100Y420000D02*X180900D01*
G54D63*X178825Y444883D02*Y435022D01*
X183175D01*
Y444883D02*Y435022D01*
X178825Y444883D02*X183175D01*
X165325Y444931D02*Y435069D01*
X169675D01*
Y444931D02*Y435069D01*
X165325Y444931D02*X169675D01*
X172825Y417931D02*Y408069D01*
X177175D01*
Y417931D02*Y408069D01*
X172825Y417931D02*X177175D01*
X152117Y417825D02*X161978D01*
Y422175D02*Y417825D01*
X152117Y422175D02*X161978D01*
X152117D02*Y417825D01*
G54D62*X162394Y484566D02*X183606D01*
Y453434D01*
X162394D02*X183606D01*
X162394Y484566D02*Y471500D01*
Y466500D02*Y453434D01*
Y466500D02*G75*G03X162394Y471500I0J2500D01*G01*
G54D59*X183100Y424600D02*Y428100D01*
X183600Y428600D01*
X184600D01*
X185100Y428100D01*
Y424600D02*Y428100D01*
X186300Y424600D02*X188300D01*
X186300D02*Y426600D01*
X186800Y426100D01*
X187800D01*
X188300Y426600D01*
Y428100D01*
X187800Y428600D02*X188300Y428100D01*
X186800Y428600D02*X187800D01*
X186300Y428100D02*X186800Y428600D01*
X179700Y412126D02*X181000D01*
X179000Y411426D02*X179700Y412126D01*
X179000Y408826D02*Y411426D01*
Y408826D02*X179700Y408126D01*
X181000D01*
X182200Y408626D02*X182700Y408126D01*
X183700D01*
X184200Y408626D01*
X183700Y412126D02*X184200Y411626D01*
X182700Y412126D02*X183700D01*
X182200Y411626D02*X182700Y412126D01*
Y409926D02*X183700D01*
X184200Y408626D02*Y409426D01*
Y410426D02*Y411626D01*
Y410426D02*X183700Y409926D01*
X184200Y409426D02*X183700Y409926D01*
X158492Y416976D02*X159493D01*
X157953Y416437D02*X158492Y416976D01*
X157953Y414435D02*Y416437D01*
Y414435D02*X158492Y413896D01*
X159493D01*
X160417Y414512D02*X161033Y413896D01*
Y416976D01*
X160417D02*X161572D01*
X155500Y465500D02*Y469000D01*
X156000Y469500D01*
X157000D01*
X157500Y469000D01*
Y465500D02*Y469000D01*
X160200Y465500D02*X160700Y466000D01*
X159200Y465500D02*X160200D01*
X158700Y466000D02*X159200Y465500D01*
X158700Y466000D02*Y469000D01*
X159200Y469500D01*
X160200Y467300D02*X160700Y467800D01*
X158700Y467300D02*X160200D01*
X159200Y469500D02*X160200D01*
X160700Y469000D01*
Y467800D02*Y469000D01*
X165200Y449626D02*X166500D01*
X164500Y448926D02*X165200Y449626D01*
X164500Y446326D02*Y448926D01*
Y446326D02*X165200Y445626D01*
X166500D01*
X169200D02*X169700Y446126D01*
X168200Y445626D02*X169200D01*
X167700Y446126D02*X168200Y445626D01*
X167700Y446126D02*Y449126D01*
X168200Y449626D01*
X169200Y447426D02*X169700Y447926D01*
X167700Y447426D02*X169200D01*
X168200Y449626D02*X169200D01*
X169700Y449126D01*
Y447926D02*Y449126D01*
X178653Y449626D02*X179953D01*
X177953Y448926D02*X178653Y449626D01*
X177953Y446326D02*Y448926D01*
Y446326D02*X178653Y445626D01*
X179953D01*
X181653Y449626D02*X183653Y445626D01*
X181153D02*X183653D01*
M02*
