G04 start of page 2 for group 0 idx 0 *
G04 Title: (unknown), top *
G04 Creator: pcb 1.99z *
G04 CreationDate: Tue 11 Mar 2014 07:33:57 PM GMT UTC *
G04 For: ben *
G04 Format: Gerber/RS-274X *
G04 PCB-Dimensions (mil): 6000.00 5000.00 *
G04 PCB-Coordinate-Origin: lower left *
%MOIN*%
%FSLAX25Y25*%
%LNTOP*%
%ADD26C,0.0380*%
%ADD25C,0.0130*%
%ADD24C,0.0200*%
%ADD23C,0.0350*%
%ADD22C,0.0300*%
%ADD21C,0.0360*%
%ADD20R,0.0295X0.0295*%
%ADD19R,0.0400X0.0400*%
%ADD18R,0.0240X0.0240*%
%ADD17R,0.0157X0.0157*%
%ADD16R,0.0276X0.0276*%
%ADD15R,0.0354X0.0354*%
%ADD14C,0.0001*%
%ADD13C,0.0600*%
%ADD12C,0.0100*%
%ADD11C,0.0250*%
G54D11*X181382Y455738D02*Y453618D01*
X185000Y450000D01*
G54D12*X171539Y449539D02*Y460461D01*
X170000Y462000D01*
G54D11*X176461Y455738D02*X181382D01*
G54D12*X185500Y461500D02*X183500Y463500D01*
G54D11*X184010Y450753D02*X185257Y452000D01*
X187500D01*
X188000Y457906D02*X192000Y458000D01*
G54D12*X167000Y475000D02*X166000Y476000D01*
X152500Y472600D02*X152800Y472300D01*
X161000Y468400D02*Y473500D01*
X162500Y475000D01*
X157000Y467000D02*X155600Y468400D01*
X152800D01*
X166000Y476000D02*Y479441D01*
X150600Y474500D02*X152800Y472300D01*
X145000Y480000D02*X145100D01*
X150550Y474550D01*
X171000Y479441D02*Y477000D01*
G54D11*X166000Y484559D02*X184441D01*
X185000Y484000D01*
G54D12*Y480000D02*Y484000D01*
X171000Y477000D02*X173000Y475000D01*
X171500Y470500D02*Y468500D01*
X170941Y467941D01*
X176000Y472500D02*Y479441D01*
X181000D02*Y479000D01*
X179500Y477500D01*
Y472500D01*
X186500Y471618D02*X183500Y468618D01*
X179500Y472500D02*X180000Y472000D01*
X176059Y467941D02*X182823D01*
X183691Y468809D01*
X195000Y474500D02*Y480000D01*
X186500Y478500D02*X185000Y480000D01*
X186500Y478500D02*Y471618D01*
X190953Y484000D02*Y482953D01*
X189500Y481500D02*X190953Y482953D01*
X171539Y449539D02*X169000Y447000D01*
X159000Y461000D02*X157000Y463000D01*
Y467000D01*
X163000Y461000D02*X159000D01*
X164000Y462000D02*X163000Y461000D01*
X161000Y464500D02*X172500D01*
X173500Y463500D01*
X170000Y462000D02*X164000D01*
X153000Y455000D02*X150000D01*
X145000Y450000D01*
X172200Y406800D02*X167359D01*
X167000Y406441D01*
X157000Y418000D02*X162000D01*
X180000Y406800D02*X184359D01*
X175000Y411000D02*X176000Y410000D01*
X177000Y411000D02*X176000Y410000D01*
G54D11*X176100Y406800D02*Y409900D01*
X176000Y410000D01*
G54D12*X188000Y415000D02*X193000Y410000D01*
X188000Y415000D02*X180000D01*
X172000Y422000D02*X194000D01*
X195000Y421000D01*
X177000Y411000D02*X184441D01*
X175000D02*X167559D01*
X167000Y411559D01*
X184441Y411000D02*X185000Y411559D01*
G54D11*X171539Y426262D02*Y435539D01*
X174000Y438000D01*
X176461Y426262D02*Y435539D01*
G54D12*X176100Y417900D02*X176000Y418000D01*
G54D11*X176100Y415000D02*Y418100D01*
X176461Y435539D02*X174000Y438000D01*
G54D12*X181000Y440000D02*X176000D01*
X175000Y441000D01*
X157000Y424063D02*Y418000D01*
X153000Y424000D02*X154378D01*
X154441Y424063D01*
X166500Y428550D02*Y422500D01*
X162000Y418000D02*X166500Y422500D01*
X172200Y415000D02*X152500D01*
X172000Y422000D02*X168000Y418000D01*
X154441Y431937D02*Y433559D01*
X153000Y435000D01*
Y446000D01*
X154000Y447000D02*X153000Y446000D01*
X157000Y431937D02*Y437000D01*
X169000Y447000D02*X154000D01*
X175000Y441000D02*X159000D01*
X156000Y444000D01*
X145000Y442500D02*X152500D01*
X153000Y443000D01*
X150000Y422500D02*Y417500D01*
X152500Y415000D01*
X150000Y422500D02*X145000Y427500D01*
G54D13*Y480000D03*
Y472500D03*
Y465000D03*
Y457500D03*
Y450000D03*
G54D14*G36*
X190000Y413000D02*Y407000D01*
X196000D01*
Y413000D01*
X190000D01*
G37*
G36*
X152000D02*Y407000D01*
X158000D01*
Y413000D01*
X152000D01*
G37*
G54D13*X145000Y442500D03*
Y435000D03*
Y427500D03*
Y420000D03*
Y412500D03*
G54D15*X181382Y458888D02*Y452589D01*
G54D16*X187803Y457906D02*X188197D01*
X187803Y452000D02*X188197D01*
G54D15*X166618Y458888D02*Y452589D01*
X176461Y458888D02*Y452589D01*
X171539Y458888D02*Y452589D01*
X166618Y432411D02*Y426112D01*
X171539Y432411D02*Y426112D01*
G54D17*X154441Y426228D02*Y421898D01*
Y434102D02*Y429772D01*
X157000Y426228D02*Y421898D01*
X159559Y426228D02*Y421898D01*
Y434102D02*Y429772D01*
X157000Y434102D02*Y429772D01*
G54D18*X172200Y407600D02*Y406000D01*
Y415800D02*Y414200D01*
G54D16*X165803Y406047D02*X166197D01*
X165803Y411953D02*X166197D01*
G54D18*X176100Y407600D02*Y406000D01*
Y415800D02*Y414200D01*
X180000Y407600D02*Y406000D01*
Y415800D02*Y414200D01*
G54D15*X176461Y432411D02*Y426112D01*
X181382Y432411D02*Y426112D01*
G54D19*X195000Y423000D02*Y419000D01*
G54D16*X184803Y406047D02*X185197D01*
X184803Y411953D02*X185197D01*
G54D20*X170508Y484559D02*X171492D01*
X165508D02*X166492D01*
X170508Y479441D02*X171492D01*
X165508D02*X166492D01*
X170941Y468433D02*Y467449D01*
X183008Y468618D02*X183992D01*
X183008Y463500D02*X183992D01*
X176059Y468433D02*Y467449D01*
G54D18*X160200Y464500D02*X161800D01*
X160200Y468400D02*X161800D01*
X160200Y472300D02*X161800D01*
X152000D02*X153600D01*
X152000Y468400D02*X153600D01*
X152000Y464500D02*X153600D01*
G54D20*X175508Y484559D02*X176492D01*
X175508Y479441D02*X176492D01*
X180508D02*X181492D01*
G54D19*X195000Y482000D02*Y478000D01*
G54D16*X190953Y484197D02*Y483803D01*
G54D20*X180508Y484559D02*X181492D01*
G54D16*X185047Y484197D02*Y483803D01*
G54D13*X184010Y450753D03*
G54D21*X181000Y440000D03*
X162500Y475000D03*
G54D22*X167000D03*
G54D21*X156000Y451500D03*
G54D22*Y444000D03*
X153000Y455000D03*
G54D21*X162000Y457000D03*
G54D22*X159000Y461000D03*
G54D21*X183000Y475000D03*
X173500Y463500D03*
G54D22*X180000Y472000D03*
X176000Y472500D03*
X173000Y475000D03*
X171500Y470500D03*
X185500Y461500D03*
G54D13*X192000Y458000D03*
G54D22*X189500Y481500D03*
G54D21*X195000Y474500D03*
X161000Y425000D03*
X153000Y424000D03*
X174000Y437000D03*
X162937Y436144D03*
G54D22*X157000Y437000D03*
G54D21*X176000Y410000D03*
Y418000D03*
X186000Y428000D03*
X187500Y418500D03*
G54D22*X165500Y421500D03*
X168000Y418000D03*
G54D23*G54D24*G54D25*G54D24*G54D25*G54D24*G54D25*G54D24*G54D25*G54D23*G54D25*G54D24*G54D25*G54D24*G54D25*G54D23*G54D26*G54D23*M02*
