G04 start of page 8 for group -4063 idx -4063 *
G04 Title: (unknown), componentmask *
G04 Creator: pcb 1.99z *
G04 CreationDate: Fri 28 Mar 2014 07:04:24 PM GMT UTC *
G04 For: ben *
G04 Format: Gerber/RS-274X *
G04 PCB-Dimensions (mil): 6000.00 5000.00 *
G04 PCB-Coordinate-Origin: lower left *
%MOIN*%
%FSLAX25Y25*%
%LNTOPMASK*%
%ADD69R,0.0300X0.0300*%
%ADD68R,0.0157X0.0157*%
%ADD67R,0.0354X0.0354*%
%ADD66R,0.0336X0.0336*%
%ADD65R,0.0600X0.0600*%
%ADD64R,0.0355X0.0355*%
%ADD63C,0.0001*%
%ADD62C,0.0660*%
G54D62*X145000Y480000D03*
Y472500D03*
Y465000D03*
Y457500D03*
Y450000D03*
G54D63*G36*
X151700Y413300D02*Y406700D01*
X158300D01*
Y413300D01*
X151700D01*
G37*
G36*
X188700D02*Y406700D01*
X195300D01*
Y413300D01*
X188700D01*
G37*
G54D62*X145000Y442500D03*
Y435000D03*
Y427500D03*
Y420000D03*
Y412500D03*
G54D64*X175508Y484559D02*X176492D01*
X180508D02*X181492D01*
X175508Y479441D02*X176492D01*
X180508D02*X181492D01*
X176059Y468433D02*Y467449D01*
X170941Y468433D02*Y467449D01*
X170508Y484559D02*X171492D01*
X165508D02*X166492D01*
X165508Y479441D02*X166492D01*
X170508D02*X171492D01*
G54D65*X195000Y482000D02*Y478000D01*
G54D66*X190953Y484197D02*Y483803D01*
X185047Y484197D02*Y483803D01*
G54D67*X176461Y432411D02*Y426112D01*
G54D68*X154441Y426228D02*Y421898D01*
X157000Y426228D02*Y421898D01*
X159559Y426228D02*Y421898D01*
Y434102D02*Y429772D01*
X157000Y434102D02*Y429772D01*
X154441Y434102D02*Y429772D01*
G54D67*X166618Y432411D02*Y426112D01*
X171539Y432411D02*Y426112D01*
G54D64*X183008Y468618D02*X183992D01*
X183008Y463500D02*X183992D01*
G54D67*X181382Y458888D02*Y452589D01*
X176461Y458888D02*Y452589D01*
X171539Y458888D02*Y452589D01*
X166618Y458888D02*Y452589D01*
G54D66*X186803Y446047D02*X187197D01*
X186803Y451953D02*X187197D01*
G54D69*X160200Y464500D02*X161800D01*
X160200Y468400D02*X161800D01*
X160200Y472300D02*X161800D01*
X152000D02*X153600D01*
X152000Y468400D02*X153600D01*
X152000Y464500D02*X153600D01*
G54D65*X195000Y423000D02*Y419000D01*
G54D67*X181382Y432411D02*Y426112D01*
M02*
