M48
INCH
T44C0.013
T43C0.020
T42C0.035
T41C0.038
%
T44
X016850Y047250
X017250Y047000
X017750Y047100
X018200Y047450
X018550Y046150
T43
X015150Y047350
X015300Y042400
X015400Y045450
X015700Y048100
X015800Y044800
X016100Y046200
X016100Y042500
X016220Y045150
X016700Y041400
X017500Y041995
X018500Y048000
X018600Y041800
X019700Y043000
X020000Y046300
T42
X014500Y048000
X014500Y047250
X014500Y046500
X014500Y045750
X014500Y045000
X014500Y044250
X014500Y043500
X014500Y042750
X014500Y042000
X014500Y041250
X017400Y043800
X018800Y044200
X019300Y043600
T41
X020300Y047750
X020350Y041650
M30
