G04 start of page 9 for group -4062 idx -4062 *
G04 Title: (unknown), soldermask *
G04 Creator: pcb 1.99z *
G04 CreationDate: Tue 11 Mar 2014 07:33:57 PM GMT UTC *
G04 For: ben *
G04 Format: Gerber/RS-274X *
G04 PCB-Dimensions (mil): 6000.00 5000.00 *
G04 PCB-Coordinate-Origin: lower left *
%MOIN*%
%FSLAX25Y25*%
%LNBOTTOMMASK*%
%ADD75R,0.0336X0.0336*%
%ADD74R,0.0440X0.0440*%
%ADD73R,0.0230X0.0230*%
%ADD72C,0.0001*%
%ADD71C,0.0660*%
G54D71*X145000Y480000D03*
Y472500D03*
Y465000D03*
Y457500D03*
Y450000D03*
G54D72*G36*
X189700Y413300D02*Y406700D01*
X196300D01*
Y413300D01*
X189700D01*
G37*
G36*
X151700D02*Y406700D01*
X158300D01*
Y413300D01*
X151700D01*
G37*
G54D71*X145000Y442500D03*
Y435000D03*
Y427500D03*
Y420000D03*
Y412500D03*
G54D73*X181956Y459689D02*Y455083D01*
X179397Y459689D02*Y455083D01*
X166603Y459689D02*Y455083D01*
X164044Y459689D02*Y455083D01*
G54D74*X166500Y450600D02*Y444300D01*
G54D75*X156654Y449197D02*Y448803D01*
X162559Y449197D02*Y448803D01*
G54D74*X171500Y450600D02*Y444300D01*
X176500Y450600D02*Y444300D01*
X181500Y450600D02*Y444300D01*
G54D73*X176838Y459689D02*Y455083D01*
X174279Y459689D02*Y455083D01*
X171721Y459689D02*Y455083D01*
X169162Y459689D02*Y455083D01*
G54D74*X171500Y431700D02*Y425400D01*
X166500Y431700D02*Y425400D01*
G54D75*X160000Y420197D02*Y419803D01*
X154094Y420197D02*Y419803D01*
X168953Y409197D02*Y408803D01*
X163047Y409197D02*Y408803D01*
X179453Y418197D02*Y417803D01*
G54D74*X181500Y431700D02*Y425400D01*
X176500Y431700D02*Y425400D01*
G54D75*X185358Y418197D02*Y417803D01*
G54D73*X164044Y482917D02*Y478311D01*
X166603Y482917D02*Y478311D01*
X169162Y482917D02*Y478311D01*
X171721Y482917D02*Y478311D01*
X174279Y482917D02*Y478311D01*
X176838Y482917D02*Y478311D01*
X179397Y482917D02*Y478311D01*
X181956Y482917D02*Y478311D01*
M02*
