G04 start of page 3 for group 1 idx 1 *
G04 Title: (unknown), ground *
G04 Creator: pcb 1.99z *
G04 CreationDate: Tue 11 Mar 2014 07:33:57 PM GMT UTC *
G04 For: ben *
G04 Format: Gerber/RS-274X *
G04 PCB-Dimensions (mil): 6000.00 5000.00 *
G04 PCB-Coordinate-Origin: lower left *
%MOIN*%
%FSLAX25Y25*%
%LNGROUP1*%
%ADD34C,0.0380*%
%ADD33C,0.0130*%
%ADD32C,0.0200*%
%ADD31C,0.0350*%
%ADD30C,0.0300*%
%ADD29C,0.0360*%
%ADD28C,0.0600*%
%ADD27C,0.0001*%
G54D27*G36*
X195284Y487216D02*X200000Y482500D01*
Y407500D01*
X195284Y402784D01*
Y405512D01*
X196235Y405514D01*
X196465Y405569D01*
X196683Y405659D01*
X196884Y405783D01*
X197064Y405936D01*
X197217Y406116D01*
X197341Y406317D01*
X197431Y406535D01*
X197486Y406765D01*
X197500Y407000D01*
X197486Y413235D01*
X197431Y413465D01*
X197341Y413683D01*
X197217Y413884D01*
X197064Y414064D01*
X196884Y414217D01*
X196683Y414341D01*
X196465Y414431D01*
X196235Y414486D01*
X196000Y414500D01*
X195284Y414498D01*
Y455869D01*
X195287Y455870D01*
X195355Y455909D01*
X195416Y455958D01*
X195469Y456017D01*
X195511Y456083D01*
X195674Y456408D01*
X195803Y456748D01*
X195901Y457098D01*
X195967Y457456D01*
X196000Y457818D01*
Y458182D01*
X195967Y458544D01*
X195901Y458902D01*
X195803Y459252D01*
X195674Y459592D01*
X195515Y459919D01*
X195472Y459985D01*
X195419Y460044D01*
X195357Y460094D01*
X195288Y460133D01*
X195284Y460135D01*
Y471714D01*
X195439Y471726D01*
X195868Y471829D01*
X196275Y471997D01*
X196651Y472228D01*
X196986Y472514D01*
X197272Y472849D01*
X197503Y473225D01*
X197671Y473632D01*
X197774Y474061D01*
X197800Y474500D01*
X197774Y474939D01*
X197671Y475368D01*
X197503Y475775D01*
X197272Y476151D01*
X196986Y476486D01*
X196651Y476772D01*
X196275Y477003D01*
X195868Y477171D01*
X195439Y477274D01*
X195284Y477286D01*
Y487216D01*
G37*
G36*
Y402784D02*X195000Y402500D01*
X192002D01*
Y405504D01*
X195284Y405512D01*
Y402784D01*
G37*
G36*
X192002Y487500D02*X195000D01*
X195284Y487216D01*
Y477286D01*
X195000Y477309D01*
X194561Y477274D01*
X194132Y477171D01*
X193725Y477003D01*
X193349Y476772D01*
X193014Y476486D01*
X192728Y476151D01*
X192497Y475775D01*
X192329Y475368D01*
X192226Y474939D01*
X192191Y474500D01*
X192226Y474061D01*
X192329Y473632D01*
X192497Y473225D01*
X192728Y472849D01*
X193014Y472514D01*
X193349Y472228D01*
X193725Y471997D01*
X194132Y471829D01*
X194561Y471726D01*
X195000Y471691D01*
X195284Y471714D01*
Y460135D01*
X195214Y460161D01*
X195137Y460177D01*
X195058Y460181D01*
X194979Y460173D01*
X194903Y460152D01*
X194830Y460120D01*
X194764Y460077D01*
X194705Y460024D01*
X194656Y459962D01*
X194616Y459893D01*
X194588Y459819D01*
X194572Y459742D01*
X194568Y459663D01*
X194576Y459584D01*
X194597Y459507D01*
X194630Y459436D01*
X194753Y459193D01*
X194850Y458938D01*
X194923Y458676D01*
X194972Y458408D01*
X194997Y458136D01*
Y457864D01*
X194972Y457592D01*
X194923Y457324D01*
X194850Y457062D01*
X194753Y456807D01*
X194633Y456563D01*
X194600Y456491D01*
X194579Y456416D01*
X194571Y456337D01*
X194575Y456259D01*
X194591Y456182D01*
X194619Y456108D01*
X194658Y456040D01*
X194707Y455979D01*
X194766Y455926D01*
X194832Y455883D01*
X194904Y455851D01*
X194980Y455830D01*
X195058Y455822D01*
X195136Y455826D01*
X195213Y455842D01*
X195284Y455869D01*
Y414498D01*
X192002Y414491D01*
Y454000D01*
X192182D01*
X192544Y454033D01*
X192902Y454099D01*
X193252Y454197D01*
X193592Y454326D01*
X193919Y454485D01*
X193985Y454528D01*
X194044Y454581D01*
X194094Y454643D01*
X194133Y454712D01*
X194161Y454786D01*
X194177Y454863D01*
X194181Y454942D01*
X194173Y455021D01*
X194152Y455097D01*
X194120Y455170D01*
X194077Y455236D01*
X194024Y455295D01*
X193962Y455344D01*
X193893Y455384D01*
X193819Y455412D01*
X193742Y455428D01*
X193663Y455432D01*
X193584Y455424D01*
X193507Y455403D01*
X193436Y455370D01*
X193193Y455247D01*
X192938Y455150D01*
X192676Y455077D01*
X192408Y455028D01*
X192136Y455003D01*
X192002D01*
Y460997D01*
X192136D01*
X192408Y460972D01*
X192676Y460923D01*
X192938Y460850D01*
X193193Y460753D01*
X193437Y460633D01*
X193509Y460600D01*
X193584Y460579D01*
X193663Y460571D01*
X193741Y460575D01*
X193818Y460591D01*
X193892Y460619D01*
X193960Y460658D01*
X194021Y460707D01*
X194074Y460766D01*
X194117Y460832D01*
X194149Y460904D01*
X194170Y460980D01*
X194178Y461058D01*
X194174Y461136D01*
X194158Y461213D01*
X194130Y461287D01*
X194091Y461355D01*
X194042Y461416D01*
X193983Y461469D01*
X193917Y461511D01*
X193592Y461674D01*
X193252Y461803D01*
X192902Y461901D01*
X192544Y461967D01*
X192182Y462000D01*
X192002D01*
Y487500D01*
G37*
G36*
X188716Y406224D02*X188783Y406116D01*
X188936Y405936D01*
X189116Y405783D01*
X189317Y405659D01*
X189535Y405569D01*
X189765Y405514D01*
X190000Y405500D01*
X192002Y405504D01*
Y402500D01*
X188716D01*
Y406224D01*
G37*
G36*
X189730Y487500D02*X192002D01*
Y462000D01*
X191818D01*
X191456Y461967D01*
X191098Y461901D01*
X190748Y461803D01*
X190408Y461674D01*
X190081Y461515D01*
X190015Y461472D01*
X189956Y461419D01*
X189906Y461357D01*
X189867Y461288D01*
X189839Y461214D01*
X189823Y461137D01*
X189819Y461058D01*
X189827Y460979D01*
X189848Y460903D01*
X189880Y460830D01*
X189923Y460764D01*
X189976Y460705D01*
X190038Y460656D01*
X190107Y460616D01*
X190181Y460588D01*
X190258Y460572D01*
X190337Y460568D01*
X190416Y460576D01*
X190493Y460597D01*
X190564Y460630D01*
X190807Y460753D01*
X191062Y460850D01*
X191324Y460923D01*
X191592Y460972D01*
X191864Y460997D01*
X192002D01*
Y455003D01*
X191864D01*
X191592Y455028D01*
X191324Y455077D01*
X191062Y455150D01*
X190807Y455247D01*
X190563Y455367D01*
X190491Y455400D01*
X190415Y455421D01*
X190337Y455429D01*
X190259Y455425D01*
X190182Y455409D01*
X190108Y455381D01*
X190040Y455342D01*
X189979Y455293D01*
X189926Y455234D01*
X189883Y455168D01*
X189851Y455096D01*
X189830Y455020D01*
X189822Y454942D01*
X189826Y454864D01*
X189842Y454787D01*
X189870Y454713D01*
X189909Y454645D01*
X189958Y454584D01*
X190017Y454531D01*
X190083Y454489D01*
X190408Y454326D01*
X190748Y454197D01*
X191098Y454099D01*
X191456Y454033D01*
X191818Y454000D01*
X192002D01*
Y414491D01*
X189765Y414486D01*
X189730Y414478D01*
Y417214D01*
X189798Y417228D01*
X189871Y417255D01*
X189940Y417294D01*
X190002Y417343D01*
X190055Y417401D01*
X190098Y417466D01*
X190130Y417538D01*
X190206Y417771D01*
X190260Y418011D01*
X190292Y418255D01*
X190303Y418500D01*
X190292Y418745D01*
X190260Y418989D01*
X190206Y419229D01*
X190132Y419463D01*
X190100Y419535D01*
X190056Y419600D01*
X190003Y419659D01*
X189941Y419708D01*
X189872Y419746D01*
X189798Y419774D01*
X189730Y419788D01*
Y479211D01*
X189861Y479221D01*
X190213Y479306D01*
X190547Y479444D01*
X190856Y479634D01*
X191131Y479869D01*
X191366Y480144D01*
X191556Y480453D01*
X191694Y480787D01*
X191779Y481139D01*
X191800Y481500D01*
X191779Y481861D01*
X191694Y482213D01*
X191556Y482547D01*
X191366Y482856D01*
X191131Y483131D01*
X190856Y483366D01*
X190547Y483556D01*
X190213Y483694D01*
X189861Y483779D01*
X189730Y483789D01*
Y487500D01*
G37*
G36*
Y414478D02*X189535Y414431D01*
X189317Y414341D01*
X189116Y414217D01*
X188936Y414064D01*
X188783Y413884D01*
X188716Y413776D01*
Y416074D01*
X188746Y416128D01*
X188774Y416202D01*
X188790Y416279D01*
X188793Y416358D01*
X188784Y416437D01*
X188763Y416513D01*
X188730Y416585D01*
X188716Y416605D01*
Y420398D01*
X188728Y420416D01*
X188761Y420488D01*
X188782Y420564D01*
X188791Y420642D01*
X188788Y420720D01*
X188772Y420798D01*
X188745Y420871D01*
X188716Y420922D01*
Y427316D01*
X188760Y427511D01*
X188792Y427755D01*
X188803Y428000D01*
X188792Y428245D01*
X188760Y428489D01*
X188716Y428684D01*
Y455865D01*
X188786Y455839D01*
X188863Y455823D01*
X188942Y455819D01*
X189021Y455827D01*
X189097Y455848D01*
X189170Y455880D01*
X189236Y455923D01*
X189295Y455976D01*
X189344Y456038D01*
X189384Y456107D01*
X189412Y456181D01*
X189428Y456258D01*
X189432Y456337D01*
X189424Y456416D01*
X189403Y456493D01*
X189370Y456564D01*
X189247Y456807D01*
X189150Y457062D01*
X189077Y457324D01*
X189028Y457592D01*
X189003Y457864D01*
Y458136D01*
X189028Y458408D01*
X189077Y458676D01*
X189150Y458938D01*
X189247Y459193D01*
X189367Y459437D01*
X189400Y459509D01*
X189421Y459585D01*
X189429Y459663D01*
X189425Y459741D01*
X189409Y459818D01*
X189381Y459892D01*
X189342Y459960D01*
X189293Y460021D01*
X189234Y460074D01*
X189168Y460117D01*
X189096Y460149D01*
X189020Y460170D01*
X188942Y460178D01*
X188864Y460174D01*
X188787Y460158D01*
X188716Y460131D01*
Y479335D01*
X188787Y479306D01*
X189139Y479221D01*
X189500Y479193D01*
X189730Y479211D01*
Y419788D01*
X189721Y419790D01*
X189642Y419793D01*
X189563Y419784D01*
X189487Y419763D01*
X189415Y419730D01*
X189350Y419686D01*
X189291Y419633D01*
X189242Y419571D01*
X189204Y419502D01*
X189176Y419428D01*
X189160Y419351D01*
X189157Y419272D01*
X189166Y419193D01*
X189189Y419118D01*
X189238Y418968D01*
X189272Y418814D01*
X189293Y418658D01*
X189300Y418500D01*
X189293Y418342D01*
X189272Y418186D01*
X189238Y418032D01*
X189190Y417882D01*
X189168Y417806D01*
X189159Y417728D01*
X189162Y417650D01*
X189178Y417573D01*
X189205Y417499D01*
X189244Y417430D01*
X189293Y417369D01*
X189351Y417315D01*
X189416Y417272D01*
X189488Y417239D01*
X189564Y417218D01*
X189642Y417209D01*
X189720Y417212D01*
X189730Y417214D01*
Y414478D01*
G37*
G36*
X188716Y487500D02*X189730D01*
Y483789D01*
X189500Y483807D01*
X189139Y483779D01*
X188787Y483694D01*
X188716Y483665D01*
Y487500D01*
G37*
G36*
X185230D02*X188716D01*
Y483665D01*
X188453Y483556D01*
X188144Y483366D01*
X187869Y483131D01*
X187634Y482856D01*
X187444Y482547D01*
X187306Y482213D01*
X187221Y481861D01*
X187193Y481500D01*
X187221Y481139D01*
X187306Y480787D01*
X187444Y480453D01*
X187634Y480144D01*
X187869Y479869D01*
X188144Y479634D01*
X188453Y479444D01*
X188716Y479335D01*
Y460131D01*
X188713Y460130D01*
X188645Y460091D01*
X188584Y460042D01*
X188531Y459983D01*
X188489Y459917D01*
X188326Y459592D01*
X188197Y459252D01*
X188099Y458902D01*
X188033Y458544D01*
X188000Y458182D01*
Y457818D01*
X188033Y457456D01*
X188099Y457098D01*
X188197Y456748D01*
X188326Y456408D01*
X188485Y456081D01*
X188528Y456015D01*
X188581Y455956D01*
X188643Y455906D01*
X188712Y455867D01*
X188716Y455865D01*
Y428684D01*
X188706Y428729D01*
X188632Y428963D01*
X188600Y429035D01*
X188556Y429100D01*
X188503Y429159D01*
X188441Y429208D01*
X188372Y429246D01*
X188298Y429274D01*
X188221Y429290D01*
X188142Y429293D01*
X188063Y429284D01*
X187987Y429263D01*
X187915Y429230D01*
X187850Y429186D01*
X187791Y429133D01*
X187742Y429071D01*
X187704Y429002D01*
X187676Y428928D01*
X187660Y428851D01*
X187657Y428772D01*
X187666Y428693D01*
X187689Y428618D01*
X187738Y428468D01*
X187772Y428314D01*
X187793Y428158D01*
X187800Y428000D01*
X187793Y427842D01*
X187772Y427686D01*
X187738Y427532D01*
X187690Y427382D01*
X187668Y427306D01*
X187659Y427228D01*
X187662Y427150D01*
X187678Y427073D01*
X187705Y426999D01*
X187744Y426930D01*
X187793Y426869D01*
X187851Y426815D01*
X187916Y426772D01*
X187988Y426739D01*
X188064Y426718D01*
X188142Y426709D01*
X188220Y426712D01*
X188298Y426728D01*
X188371Y426755D01*
X188440Y426794D01*
X188502Y426843D01*
X188555Y426901D01*
X188598Y426966D01*
X188630Y427038D01*
X188706Y427271D01*
X188716Y427316D01*
Y420922D01*
X188706Y420940D01*
X188657Y421002D01*
X188599Y421055D01*
X188534Y421098D01*
X188462Y421130D01*
X188229Y421206D01*
X187989Y421260D01*
X187745Y421292D01*
X187500Y421303D01*
X187255Y421292D01*
X187011Y421260D01*
X186771Y421206D01*
X186537Y421132D01*
X186465Y421100D01*
X186400Y421056D01*
X186341Y421003D01*
X186292Y420941D01*
X186254Y420872D01*
X186226Y420798D01*
X186210Y420721D01*
X186207Y420642D01*
X186216Y420563D01*
X186237Y420487D01*
X186270Y420415D01*
X186314Y420350D01*
X186367Y420291D01*
X186429Y420242D01*
X186498Y420204D01*
X186572Y420176D01*
X186649Y420160D01*
X186728Y420157D01*
X186807Y420166D01*
X186882Y420189D01*
X187032Y420238D01*
X187186Y420272D01*
X187342Y420293D01*
X187500Y420300D01*
X187658Y420293D01*
X187814Y420272D01*
X187968Y420238D01*
X188118Y420190D01*
X188194Y420168D01*
X188272Y420159D01*
X188350Y420162D01*
X188427Y420178D01*
X188501Y420205D01*
X188570Y420244D01*
X188631Y420293D01*
X188685Y420351D01*
X188716Y420398D01*
Y416605D01*
X188686Y416650D01*
X188633Y416709D01*
X188571Y416758D01*
X188502Y416796D01*
X188428Y416824D01*
X188351Y416840D01*
X188272Y416843D01*
X188193Y416834D01*
X188118Y416811D01*
X187968Y416762D01*
X187814Y416728D01*
X187658Y416707D01*
X187500Y416700D01*
X187342Y416707D01*
X187186Y416728D01*
X187032Y416762D01*
X186882Y416810D01*
X186806Y416832D01*
X186728Y416841D01*
X186650Y416838D01*
X186573Y416822D01*
X186499Y416795D01*
X186430Y416756D01*
X186369Y416707D01*
X186315Y416649D01*
X186272Y416584D01*
X186239Y416512D01*
X186218Y416436D01*
X186209Y416358D01*
X186212Y416280D01*
X186228Y416202D01*
X186255Y416129D01*
X186294Y416060D01*
X186343Y415998D01*
X186401Y415945D01*
X186466Y415902D01*
X186538Y415870D01*
X186771Y415794D01*
X187011Y415740D01*
X187255Y415708D01*
X187500Y415697D01*
X187745Y415708D01*
X187989Y415740D01*
X188229Y415794D01*
X188463Y415868D01*
X188535Y415900D01*
X188600Y415944D01*
X188659Y415997D01*
X188708Y416059D01*
X188716Y416074D01*
Y413776D01*
X188659Y413683D01*
X188569Y413465D01*
X188514Y413235D01*
X188500Y413000D01*
X188514Y406765D01*
X188569Y406535D01*
X188659Y406317D01*
X188716Y406224D01*
Y402500D01*
X185230D01*
Y417220D01*
X185279Y417210D01*
X185358Y417207D01*
X185437Y417216D01*
X185513Y417237D01*
X185585Y417270D01*
X185650Y417314D01*
X185709Y417367D01*
X185758Y417429D01*
X185796Y417498D01*
X185824Y417572D01*
X185840Y417649D01*
X185843Y417728D01*
X185834Y417807D01*
X185811Y417882D01*
X185762Y418032D01*
X185728Y418186D01*
X185707Y418342D01*
X185700Y418500D01*
X185707Y418658D01*
X185728Y418814D01*
X185762Y418968D01*
X185810Y419118D01*
X185832Y419194D01*
X185841Y419272D01*
X185838Y419350D01*
X185822Y419427D01*
X185795Y419501D01*
X185756Y419570D01*
X185707Y419631D01*
X185649Y419685D01*
X185584Y419728D01*
X185512Y419761D01*
X185436Y419782D01*
X185358Y419791D01*
X185280Y419788D01*
X185230Y419778D01*
Y425307D01*
X185271Y425294D01*
X185511Y425240D01*
X185755Y425208D01*
X186000Y425197D01*
X186245Y425208D01*
X186489Y425240D01*
X186729Y425294D01*
X186963Y425368D01*
X187035Y425400D01*
X187100Y425444D01*
X187159Y425497D01*
X187208Y425559D01*
X187246Y425628D01*
X187274Y425702D01*
X187290Y425779D01*
X187293Y425858D01*
X187284Y425937D01*
X187263Y426013D01*
X187230Y426085D01*
X187186Y426150D01*
X187133Y426209D01*
X187071Y426258D01*
X187002Y426296D01*
X186928Y426324D01*
X186851Y426340D01*
X186772Y426343D01*
X186693Y426334D01*
X186618Y426311D01*
X186468Y426262D01*
X186314Y426228D01*
X186158Y426207D01*
X186000Y426200D01*
X185842Y426207D01*
X185686Y426228D01*
X185532Y426262D01*
X185382Y426310D01*
X185306Y426332D01*
X185230Y426341D01*
Y429657D01*
X185307Y429666D01*
X185382Y429689D01*
X185532Y429738D01*
X185686Y429772D01*
X185842Y429793D01*
X186000Y429800D01*
X186158Y429793D01*
X186314Y429772D01*
X186468Y429738D01*
X186618Y429690D01*
X186694Y429668D01*
X186772Y429659D01*
X186850Y429662D01*
X186927Y429678D01*
X187001Y429705D01*
X187070Y429744D01*
X187131Y429793D01*
X187185Y429851D01*
X187228Y429916D01*
X187261Y429988D01*
X187282Y430064D01*
X187291Y430142D01*
X187288Y430220D01*
X187272Y430298D01*
X187245Y430371D01*
X187206Y430440D01*
X187157Y430502D01*
X187099Y430555D01*
X187034Y430598D01*
X186962Y430630D01*
X186729Y430706D01*
X186489Y430760D01*
X186245Y430792D01*
X186000Y430803D01*
X185755Y430792D01*
X185511Y430760D01*
X185271Y430706D01*
X185230Y430693D01*
Y446932D01*
X185250Y446937D01*
X185832Y447178D01*
X186368Y447507D01*
X186847Y447916D01*
X187256Y448395D01*
X187585Y448932D01*
X187826Y449513D01*
X187973Y450125D01*
X188010Y450753D01*
X187973Y451381D01*
X187826Y451993D01*
X187585Y452575D01*
X187256Y453112D01*
X186847Y453590D01*
X186368Y453999D01*
X185832Y454328D01*
X185250Y454569D01*
X185230Y454574D01*
Y459214D01*
X185500Y459193D01*
X185861Y459221D01*
X186213Y459306D01*
X186547Y459444D01*
X186856Y459634D01*
X187131Y459869D01*
X187366Y460144D01*
X187556Y460453D01*
X187694Y460787D01*
X187779Y461139D01*
X187800Y461500D01*
X187779Y461861D01*
X187694Y462213D01*
X187556Y462547D01*
X187366Y462856D01*
X187131Y463131D01*
X186856Y463366D01*
X186547Y463556D01*
X186213Y463694D01*
X185861Y463779D01*
X185500Y463807D01*
X185230Y463786D01*
Y473714D01*
X185298Y473728D01*
X185371Y473755D01*
X185440Y473794D01*
X185502Y473843D01*
X185555Y473901D01*
X185598Y473966D01*
X185630Y474038D01*
X185706Y474271D01*
X185760Y474511D01*
X185792Y474755D01*
X185803Y475000D01*
X185792Y475245D01*
X185760Y475489D01*
X185706Y475729D01*
X185632Y475963D01*
X185600Y476035D01*
X185556Y476100D01*
X185503Y476159D01*
X185441Y476208D01*
X185372Y476246D01*
X185298Y476274D01*
X185230Y476288D01*
Y487500D01*
G37*
G36*
Y454574D02*X184638Y454716D01*
X184010Y454765D01*
X184004Y454765D01*
Y459753D01*
X184144Y459634D01*
X184453Y459444D01*
X184787Y459306D01*
X185139Y459221D01*
X185230Y459214D01*
Y454574D01*
G37*
G36*
Y402500D02*X184004D01*
Y426735D01*
X184013Y426737D01*
X184085Y426770D01*
X184150Y426814D01*
X184209Y426867D01*
X184258Y426929D01*
X184296Y426998D01*
X184324Y427072D01*
X184340Y427149D01*
X184343Y427228D01*
X184334Y427307D01*
X184311Y427382D01*
X184262Y427532D01*
X184228Y427686D01*
X184207Y427842D01*
X184200Y428000D01*
X184207Y428158D01*
X184228Y428314D01*
X184262Y428468D01*
X184310Y428618D01*
X184332Y428694D01*
X184341Y428772D01*
X184338Y428850D01*
X184322Y428927D01*
X184295Y429001D01*
X184256Y429070D01*
X184207Y429131D01*
X184149Y429185D01*
X184084Y429228D01*
X184012Y429261D01*
X184004Y429263D01*
Y446741D01*
X184010Y446741D01*
X184638Y446790D01*
X185230Y446932D01*
Y430693D01*
X185037Y430632D01*
X184965Y430600D01*
X184900Y430556D01*
X184841Y430503D01*
X184792Y430441D01*
X184754Y430372D01*
X184726Y430298D01*
X184710Y430221D01*
X184707Y430142D01*
X184716Y430063D01*
X184737Y429987D01*
X184770Y429915D01*
X184814Y429850D01*
X184867Y429791D01*
X184929Y429742D01*
X184998Y429704D01*
X185072Y429676D01*
X185149Y429660D01*
X185228Y429657D01*
X185230Y429657D01*
Y426341D01*
X185228Y426341D01*
X185150Y426338D01*
X185073Y426322D01*
X184999Y426295D01*
X184930Y426256D01*
X184869Y426207D01*
X184815Y426149D01*
X184772Y426084D01*
X184739Y426012D01*
X184718Y425936D01*
X184709Y425858D01*
X184712Y425780D01*
X184728Y425702D01*
X184755Y425629D01*
X184794Y425560D01*
X184843Y425498D01*
X184901Y425445D01*
X184966Y425402D01*
X185038Y425370D01*
X185230Y425307D01*
Y419778D01*
X185202Y419772D01*
X185129Y419745D01*
X185060Y419706D01*
X184998Y419657D01*
X184945Y419599D01*
X184902Y419534D01*
X184870Y419462D01*
X184794Y419229D01*
X184740Y418989D01*
X184708Y418745D01*
X184697Y418500D01*
X184708Y418255D01*
X184740Y418011D01*
X184794Y417771D01*
X184868Y417537D01*
X184900Y417465D01*
X184944Y417400D01*
X184997Y417341D01*
X185059Y417292D01*
X185128Y417254D01*
X185202Y417226D01*
X185230Y417220D01*
Y402500D01*
G37*
G36*
X184004Y487500D02*X185230D01*
Y476288D01*
X185221Y476290D01*
X185142Y476293D01*
X185063Y476284D01*
X184987Y476263D01*
X184915Y476230D01*
X184850Y476186D01*
X184791Y476133D01*
X184742Y476071D01*
X184704Y476002D01*
X184676Y475928D01*
X184660Y475851D01*
X184657Y475772D01*
X184666Y475693D01*
X184689Y475618D01*
X184738Y475468D01*
X184772Y475314D01*
X184793Y475158D01*
X184800Y475000D01*
X184793Y474842D01*
X184772Y474686D01*
X184738Y474532D01*
X184690Y474382D01*
X184668Y474306D01*
X184659Y474228D01*
X184662Y474150D01*
X184678Y474073D01*
X184705Y473999D01*
X184744Y473930D01*
X184793Y473869D01*
X184851Y473815D01*
X184916Y473772D01*
X184988Y473739D01*
X185064Y473718D01*
X185142Y473709D01*
X185220Y473712D01*
X185230Y473714D01*
Y463786D01*
X185139Y463779D01*
X184787Y463694D01*
X184453Y463556D01*
X184144Y463366D01*
X184004Y463247D01*
Y472386D01*
X184035Y472400D01*
X184100Y472444D01*
X184159Y472497D01*
X184208Y472559D01*
X184246Y472628D01*
X184274Y472702D01*
X184290Y472779D01*
X184293Y472858D01*
X184284Y472937D01*
X184263Y473013D01*
X184230Y473085D01*
X184186Y473150D01*
X184133Y473209D01*
X184071Y473258D01*
X184004Y473295D01*
Y476707D01*
X184070Y476744D01*
X184131Y476793D01*
X184185Y476851D01*
X184228Y476916D01*
X184261Y476988D01*
X184282Y477064D01*
X184291Y477142D01*
X184288Y477220D01*
X184272Y477298D01*
X184245Y477371D01*
X184206Y477440D01*
X184157Y477502D01*
X184099Y477555D01*
X184034Y477598D01*
X184004Y477611D01*
Y487500D01*
G37*
G36*
X180996Y448123D02*X181173Y447916D01*
X181652Y447507D01*
X182188Y447178D01*
X182770Y446937D01*
X183382Y446790D01*
X184004Y446741D01*
Y429263D01*
X183936Y429282D01*
X183858Y429291D01*
X183780Y429288D01*
X183702Y429272D01*
X183629Y429245D01*
X183560Y429206D01*
X183498Y429157D01*
X183445Y429099D01*
X183402Y429034D01*
X183370Y428962D01*
X183294Y428729D01*
X183240Y428489D01*
X183208Y428245D01*
X183197Y428000D01*
X183208Y427755D01*
X183240Y427511D01*
X183294Y427271D01*
X183368Y427037D01*
X183400Y426965D01*
X183444Y426900D01*
X183497Y426841D01*
X183559Y426792D01*
X183628Y426754D01*
X183702Y426726D01*
X183779Y426710D01*
X183858Y426707D01*
X183937Y426716D01*
X184004Y426735D01*
Y402500D01*
X180996D01*
Y437192D01*
X181000Y437191D01*
X181439Y437226D01*
X181868Y437329D01*
X182275Y437497D01*
X182651Y437728D01*
X182986Y438014D01*
X183272Y438349D01*
X183503Y438725D01*
X183671Y439132D01*
X183774Y439561D01*
X183800Y440000D01*
X183774Y440439D01*
X183671Y440868D01*
X183503Y441275D01*
X183272Y441651D01*
X182986Y441986D01*
X182651Y442272D01*
X182275Y442503D01*
X181868Y442671D01*
X181439Y442774D01*
X181000Y442809D01*
X180996Y442808D01*
Y448123D01*
G37*
G36*
Y469923D02*X181047Y469944D01*
X181356Y470134D01*
X181631Y470369D01*
X181866Y470644D01*
X182056Y470953D01*
X182194Y471287D01*
X182279Y471639D01*
X182300Y472000D01*
X182283Y472291D01*
X182511Y472240D01*
X182755Y472208D01*
X183000Y472197D01*
X183245Y472208D01*
X183489Y472240D01*
X183729Y472294D01*
X183963Y472368D01*
X184004Y472386D01*
Y463247D01*
X183869Y463131D01*
X183634Y462856D01*
X183444Y462547D01*
X183306Y462213D01*
X183221Y461861D01*
X183193Y461500D01*
X183221Y461139D01*
X183306Y460787D01*
X183444Y460453D01*
X183634Y460144D01*
X183869Y459869D01*
X184004Y459753D01*
Y454765D01*
X183382Y454716D01*
X182770Y454569D01*
X182188Y454328D01*
X181652Y453999D01*
X181173Y453590D01*
X180996Y453383D01*
Y469923D01*
G37*
G36*
Y487500D02*X184004D01*
Y477611D01*
X183962Y477630D01*
X183729Y477706D01*
X183489Y477760D01*
X183245Y477792D01*
X183000Y477803D01*
X182755Y477792D01*
X182511Y477760D01*
X182271Y477706D01*
X182037Y477632D01*
X181965Y477600D01*
X181900Y477556D01*
X181841Y477503D01*
X181792Y477441D01*
X181754Y477372D01*
X181726Y477298D01*
X181710Y477221D01*
X181707Y477142D01*
X181716Y477063D01*
X181737Y476987D01*
X181770Y476915D01*
X181814Y476850D01*
X181867Y476791D01*
X181929Y476742D01*
X181998Y476704D01*
X182072Y476676D01*
X182149Y476660D01*
X182228Y476657D01*
X182307Y476666D01*
X182382Y476689D01*
X182532Y476738D01*
X182686Y476772D01*
X182842Y476793D01*
X183000Y476800D01*
X183158Y476793D01*
X183314Y476772D01*
X183468Y476738D01*
X183618Y476690D01*
X183694Y476668D01*
X183772Y476659D01*
X183850Y476662D01*
X183927Y476678D01*
X184001Y476705D01*
X184004Y476707D01*
Y473295D01*
X184002Y473296D01*
X183928Y473324D01*
X183851Y473340D01*
X183772Y473343D01*
X183693Y473334D01*
X183618Y473311D01*
X183468Y473262D01*
X183314Y473228D01*
X183158Y473207D01*
X183000Y473200D01*
X182842Y473207D01*
X182686Y473228D01*
X182532Y473262D01*
X182382Y473310D01*
X182306Y473332D01*
X182228Y473341D01*
X182150Y473338D01*
X182073Y473322D01*
X181999Y473295D01*
X181930Y473256D01*
X181929Y473255D01*
X181866Y473356D01*
X181631Y473631D01*
X181356Y473866D01*
X181256Y473928D01*
X181258Y473929D01*
X181296Y473998D01*
X181324Y474072D01*
X181340Y474149D01*
X181343Y474228D01*
X181334Y474307D01*
X181311Y474382D01*
X181262Y474532D01*
X181228Y474686D01*
X181207Y474842D01*
X181200Y475000D01*
X181207Y475158D01*
X181228Y475314D01*
X181262Y475468D01*
X181310Y475618D01*
X181332Y475694D01*
X181341Y475772D01*
X181338Y475850D01*
X181322Y475927D01*
X181295Y476001D01*
X181256Y476070D01*
X181207Y476131D01*
X181149Y476185D01*
X181084Y476228D01*
X181012Y476261D01*
X180996Y476266D01*
Y487500D01*
G37*
G36*
X178230Y439544D02*X178329Y439132D01*
X178497Y438725D01*
X178728Y438349D01*
X179014Y438014D01*
X179349Y437728D01*
X179725Y437497D01*
X180132Y437329D01*
X180561Y437226D01*
X180996Y437192D01*
Y402500D01*
X178230D01*
Y408714D01*
X178298Y408728D01*
X178371Y408755D01*
X178440Y408794D01*
X178502Y408843D01*
X178555Y408901D01*
X178598Y408966D01*
X178630Y409038D01*
X178706Y409271D01*
X178760Y409511D01*
X178792Y409755D01*
X178803Y410000D01*
X178792Y410245D01*
X178760Y410489D01*
X178706Y410729D01*
X178632Y410963D01*
X178600Y411035D01*
X178556Y411100D01*
X178503Y411159D01*
X178441Y411208D01*
X178372Y411246D01*
X178298Y411274D01*
X178230Y411288D01*
Y416300D01*
X178272Y416349D01*
X178503Y416725D01*
X178671Y417132D01*
X178774Y417561D01*
X178800Y418000D01*
X178774Y418439D01*
X178671Y418868D01*
X178503Y419275D01*
X178272Y419651D01*
X178230Y419700D01*
Y439544D01*
G37*
G36*
Y470531D02*X178369Y470369D01*
X178644Y470134D01*
X178953Y469944D01*
X179287Y469806D01*
X179639Y469721D01*
X180000Y469693D01*
X180361Y469721D01*
X180713Y469806D01*
X180996Y469923D01*
Y453383D01*
X180764Y453112D01*
X180435Y452575D01*
X180194Y451993D01*
X180047Y451381D01*
X179998Y450753D01*
X180047Y450125D01*
X180194Y449513D01*
X180435Y448932D01*
X180764Y448395D01*
X180996Y448123D01*
Y442808D01*
X180561Y442774D01*
X180132Y442671D01*
X179725Y442503D01*
X179349Y442272D01*
X179014Y441986D01*
X178728Y441651D01*
X178497Y441275D01*
X178329Y440868D01*
X178230Y440456D01*
Y470531D01*
G37*
G36*
Y402500D02*X176230D01*
Y407207D01*
X176245Y407208D01*
X176489Y407240D01*
X176729Y407294D01*
X176963Y407368D01*
X177035Y407400D01*
X177100Y407444D01*
X177159Y407497D01*
X177208Y407559D01*
X177246Y407628D01*
X177274Y407702D01*
X177290Y407779D01*
X177293Y407858D01*
X177284Y407937D01*
X177263Y408013D01*
X177230Y408085D01*
X177186Y408150D01*
X177133Y408209D01*
X177071Y408258D01*
X177002Y408296D01*
X176928Y408324D01*
X176851Y408340D01*
X176772Y408343D01*
X176693Y408334D01*
X176618Y408311D01*
X176468Y408262D01*
X176314Y408228D01*
X176230Y408216D01*
Y411784D01*
X176314Y411772D01*
X176468Y411738D01*
X176618Y411690D01*
X176694Y411668D01*
X176772Y411659D01*
X176850Y411662D01*
X176927Y411678D01*
X177001Y411705D01*
X177070Y411744D01*
X177131Y411793D01*
X177185Y411851D01*
X177228Y411916D01*
X177261Y411988D01*
X177282Y412064D01*
X177291Y412142D01*
X177288Y412220D01*
X177272Y412298D01*
X177245Y412371D01*
X177206Y412440D01*
X177157Y412502D01*
X177099Y412555D01*
X177034Y412598D01*
X176962Y412630D01*
X176729Y412706D01*
X176489Y412760D01*
X176245Y412792D01*
X176230Y412793D01*
Y415209D01*
X176439Y415226D01*
X176868Y415329D01*
X177275Y415497D01*
X177651Y415728D01*
X177986Y416014D01*
X178230Y416300D01*
Y411288D01*
X178221Y411290D01*
X178142Y411293D01*
X178063Y411284D01*
X177987Y411263D01*
X177915Y411230D01*
X177850Y411186D01*
X177791Y411133D01*
X177742Y411071D01*
X177704Y411002D01*
X177676Y410928D01*
X177660Y410851D01*
X177657Y410772D01*
X177666Y410693D01*
X177689Y410618D01*
X177738Y410468D01*
X177772Y410314D01*
X177793Y410158D01*
X177800Y410000D01*
X177793Y409842D01*
X177772Y409686D01*
X177738Y409532D01*
X177690Y409382D01*
X177668Y409306D01*
X177659Y409228D01*
X177662Y409150D01*
X177678Y409073D01*
X177705Y408999D01*
X177744Y408930D01*
X177793Y408869D01*
X177851Y408815D01*
X177916Y408772D01*
X177988Y408739D01*
X178064Y408718D01*
X178142Y408709D01*
X178220Y408712D01*
X178230Y408714D01*
Y402500D01*
G37*
G36*
X176230Y470211D02*X176361Y470221D01*
X176713Y470306D01*
X177047Y470444D01*
X177356Y470634D01*
X177631Y470869D01*
X177866Y471143D01*
X177944Y470953D01*
X178134Y470644D01*
X178230Y470531D01*
Y440456D01*
X178226Y440439D01*
X178191Y440000D01*
X178226Y439561D01*
X178230Y439544D01*
Y419700D01*
X177986Y419986D01*
X177651Y420272D01*
X177275Y420503D01*
X176868Y420671D01*
X176439Y420774D01*
X176230Y420791D01*
Y435714D01*
X176298Y435728D01*
X176371Y435755D01*
X176440Y435794D01*
X176502Y435843D01*
X176555Y435901D01*
X176598Y435966D01*
X176630Y436038D01*
X176706Y436271D01*
X176760Y436511D01*
X176792Y436755D01*
X176803Y437000D01*
X176792Y437245D01*
X176760Y437489D01*
X176706Y437729D01*
X176632Y437963D01*
X176600Y438035D01*
X176556Y438100D01*
X176503Y438159D01*
X176441Y438208D01*
X176372Y438246D01*
X176298Y438274D01*
X176230Y438288D01*
Y462877D01*
X176274Y463061D01*
X176300Y463500D01*
X176274Y463939D01*
X176230Y464123D01*
Y470211D01*
G37*
G36*
Y420791D02*X176000Y420809D01*
X175561Y420774D01*
X175132Y420671D01*
X174725Y420503D01*
X174349Y420272D01*
X174014Y419986D01*
X173728Y419651D01*
X173497Y419275D01*
X173496Y419271D01*
Y434244D01*
X173511Y434240D01*
X173755Y434208D01*
X174000Y434197D01*
X174245Y434208D01*
X174489Y434240D01*
X174729Y434294D01*
X174963Y434368D01*
X175035Y434400D01*
X175100Y434444D01*
X175159Y434497D01*
X175208Y434559D01*
X175246Y434628D01*
X175274Y434702D01*
X175290Y434779D01*
X175293Y434858D01*
X175284Y434937D01*
X175263Y435013D01*
X175230Y435085D01*
X175186Y435150D01*
X175133Y435209D01*
X175071Y435258D01*
X175002Y435296D01*
X174928Y435324D01*
X174851Y435340D01*
X174772Y435343D01*
X174693Y435334D01*
X174618Y435311D01*
X174468Y435262D01*
X174314Y435228D01*
X174158Y435207D01*
X174000Y435200D01*
X173842Y435207D01*
X173686Y435228D01*
X173532Y435262D01*
X173496Y435273D01*
Y438726D01*
X173532Y438738D01*
X173686Y438772D01*
X173842Y438793D01*
X174000Y438800D01*
X174158Y438793D01*
X174314Y438772D01*
X174468Y438738D01*
X174618Y438690D01*
X174694Y438668D01*
X174772Y438659D01*
X174850Y438662D01*
X174927Y438678D01*
X175001Y438705D01*
X175070Y438744D01*
X175131Y438793D01*
X175185Y438851D01*
X175228Y438916D01*
X175261Y438988D01*
X175282Y439064D01*
X175291Y439142D01*
X175288Y439220D01*
X175272Y439298D01*
X175245Y439371D01*
X175206Y439440D01*
X175157Y439502D01*
X175099Y439555D01*
X175034Y439598D01*
X174962Y439630D01*
X174729Y439706D01*
X174489Y439760D01*
X174245Y439792D01*
X174000Y439803D01*
X173755Y439792D01*
X173511Y439760D01*
X173496Y439756D01*
Y460692D01*
X173500Y460691D01*
X173939Y460726D01*
X174368Y460829D01*
X174775Y460997D01*
X175151Y461228D01*
X175486Y461514D01*
X175772Y461849D01*
X176003Y462225D01*
X176171Y462632D01*
X176230Y462877D01*
Y438288D01*
X176221Y438290D01*
X176142Y438293D01*
X176063Y438284D01*
X175987Y438263D01*
X175915Y438230D01*
X175850Y438186D01*
X175791Y438133D01*
X175742Y438071D01*
X175704Y438002D01*
X175676Y437928D01*
X175660Y437851D01*
X175657Y437772D01*
X175666Y437693D01*
X175689Y437618D01*
X175738Y437468D01*
X175772Y437314D01*
X175793Y437158D01*
X175800Y437000D01*
X175793Y436842D01*
X175772Y436686D01*
X175738Y436532D01*
X175690Y436382D01*
X175668Y436306D01*
X175659Y436228D01*
X175662Y436150D01*
X175678Y436073D01*
X175705Y435999D01*
X175744Y435930D01*
X175793Y435869D01*
X175851Y435815D01*
X175916Y435772D01*
X175988Y435739D01*
X176064Y435718D01*
X176142Y435709D01*
X176220Y435712D01*
X176230Y435714D01*
Y420791D01*
G37*
G36*
Y402500D02*X173496D01*
Y408843D01*
X173497Y408841D01*
X173559Y408792D01*
X173628Y408754D01*
X173702Y408726D01*
X173779Y408710D01*
X173858Y408707D01*
X173937Y408716D01*
X174013Y408737D01*
X174085Y408770D01*
X174150Y408814D01*
X174209Y408867D01*
X174258Y408929D01*
X174296Y408998D01*
X174324Y409072D01*
X174340Y409149D01*
X174343Y409228D01*
X174334Y409307D01*
X174311Y409382D01*
X174262Y409532D01*
X174228Y409686D01*
X174207Y409842D01*
X174200Y410000D01*
X174207Y410158D01*
X174228Y410314D01*
X174262Y410468D01*
X174310Y410618D01*
X174332Y410694D01*
X174341Y410772D01*
X174338Y410850D01*
X174322Y410927D01*
X174295Y411001D01*
X174256Y411070D01*
X174207Y411131D01*
X174149Y411185D01*
X174084Y411228D01*
X174012Y411261D01*
X173936Y411282D01*
X173858Y411291D01*
X173780Y411288D01*
X173702Y411272D01*
X173629Y411245D01*
X173560Y411206D01*
X173498Y411157D01*
X173496Y411154D01*
Y416729D01*
X173497Y416725D01*
X173728Y416349D01*
X174014Y416014D01*
X174349Y415728D01*
X174725Y415497D01*
X175132Y415329D01*
X175561Y415226D01*
X176000Y415191D01*
X176230Y415209D01*
Y412793D01*
X176000Y412803D01*
X175755Y412792D01*
X175511Y412760D01*
X175271Y412706D01*
X175037Y412632D01*
X174965Y412600D01*
X174900Y412556D01*
X174841Y412503D01*
X174792Y412441D01*
X174754Y412372D01*
X174726Y412298D01*
X174710Y412221D01*
X174707Y412142D01*
X174716Y412063D01*
X174737Y411987D01*
X174770Y411915D01*
X174814Y411850D01*
X174867Y411791D01*
X174929Y411742D01*
X174998Y411704D01*
X175072Y411676D01*
X175149Y411660D01*
X175228Y411657D01*
X175307Y411666D01*
X175382Y411689D01*
X175532Y411738D01*
X175686Y411772D01*
X175842Y411793D01*
X176000Y411800D01*
X176158Y411793D01*
X176230Y411784D01*
Y408216D01*
X176158Y408207D01*
X176000Y408200D01*
X175842Y408207D01*
X175686Y408228D01*
X175532Y408262D01*
X175382Y408310D01*
X175306Y408332D01*
X175228Y408341D01*
X175150Y408338D01*
X175073Y408322D01*
X174999Y408295D01*
X174930Y408256D01*
X174869Y408207D01*
X174815Y408149D01*
X174772Y408084D01*
X174739Y408012D01*
X174718Y407936D01*
X174709Y407858D01*
X174712Y407780D01*
X174728Y407702D01*
X174755Y407629D01*
X174794Y407560D01*
X174843Y407498D01*
X174901Y407445D01*
X174966Y407402D01*
X175038Y407370D01*
X175271Y407294D01*
X175511Y407240D01*
X175755Y407208D01*
X176000Y407197D01*
X176230Y407207D01*
Y402500D01*
G37*
G36*
X173496Y472754D02*X173713Y472806D01*
X173717Y472808D01*
X173693Y472500D01*
X173721Y472139D01*
X173806Y471787D01*
X173944Y471453D01*
X174134Y471144D01*
X174369Y470869D01*
X174644Y470634D01*
X174953Y470444D01*
X175287Y470306D01*
X175639Y470221D01*
X176000Y470193D01*
X176230Y470211D01*
Y464123D01*
X176171Y464368D01*
X176003Y464775D01*
X175772Y465151D01*
X175486Y465486D01*
X175151Y465772D01*
X174775Y466003D01*
X174368Y466171D01*
X173939Y466274D01*
X173500Y466309D01*
X173496Y466308D01*
Y469355D01*
X173556Y469453D01*
X173694Y469787D01*
X173779Y470139D01*
X173800Y470500D01*
X173779Y470861D01*
X173694Y471213D01*
X173556Y471547D01*
X173496Y471645D01*
Y472754D01*
G37*
G36*
Y487500D02*X180996D01*
Y476266D01*
X180936Y476282D01*
X180858Y476291D01*
X180780Y476288D01*
X180702Y476272D01*
X180629Y476245D01*
X180560Y476206D01*
X180498Y476157D01*
X180445Y476099D01*
X180402Y476034D01*
X180370Y475962D01*
X180294Y475729D01*
X180240Y475489D01*
X180208Y475245D01*
X180197Y475000D01*
X180208Y474755D01*
X180240Y474511D01*
X180291Y474284D01*
X180000Y474307D01*
X179639Y474279D01*
X179287Y474194D01*
X178953Y474056D01*
X178644Y473866D01*
X178369Y473631D01*
X178134Y473357D01*
X178056Y473547D01*
X177866Y473856D01*
X177631Y474131D01*
X177356Y474366D01*
X177047Y474556D01*
X176713Y474694D01*
X176361Y474779D01*
X176000Y474807D01*
X175639Y474779D01*
X175287Y474694D01*
X175282Y474692D01*
X175300Y475000D01*
X175279Y475361D01*
X175194Y475713D01*
X175056Y476047D01*
X174866Y476356D01*
X174631Y476631D01*
X174356Y476866D01*
X174047Y477056D01*
X173713Y477194D01*
X173496Y477246D01*
Y487500D01*
G37*
G36*
X171770Y461295D02*X171849Y461228D01*
X172225Y460997D01*
X172632Y460829D01*
X173061Y460726D01*
X173496Y460692D01*
Y439756D01*
X173271Y439706D01*
X173037Y439632D01*
X172965Y439600D01*
X172900Y439556D01*
X172841Y439503D01*
X172792Y439441D01*
X172754Y439372D01*
X172726Y439298D01*
X172710Y439221D01*
X172707Y439142D01*
X172716Y439063D01*
X172737Y438987D01*
X172770Y438915D01*
X172814Y438850D01*
X172867Y438791D01*
X172929Y438742D01*
X172998Y438704D01*
X173072Y438676D01*
X173149Y438660D01*
X173228Y438657D01*
X173307Y438666D01*
X173382Y438689D01*
X173496Y438726D01*
Y435273D01*
X173382Y435310D01*
X173306Y435332D01*
X173228Y435341D01*
X173150Y435338D01*
X173073Y435322D01*
X172999Y435295D01*
X172930Y435256D01*
X172869Y435207D01*
X172815Y435149D01*
X172772Y435084D01*
X172739Y435012D01*
X172718Y434936D01*
X172709Y434858D01*
X172712Y434780D01*
X172728Y434702D01*
X172755Y434629D01*
X172794Y434560D01*
X172843Y434498D01*
X172901Y434445D01*
X172966Y434402D01*
X173038Y434370D01*
X173271Y434294D01*
X173496Y434244D01*
Y419271D01*
X173329Y418868D01*
X173226Y418439D01*
X173191Y418000D01*
X173226Y417561D01*
X173329Y417132D01*
X173496Y416729D01*
Y411154D01*
X173445Y411099D01*
X173402Y411034D01*
X173370Y410962D01*
X173294Y410729D01*
X173240Y410489D01*
X173208Y410245D01*
X173197Y410000D01*
X173208Y409755D01*
X173240Y409511D01*
X173294Y409271D01*
X173368Y409037D01*
X173400Y408965D01*
X173444Y408900D01*
X173496Y408843D01*
Y402500D01*
X171770D01*
Y435712D01*
X171779Y435710D01*
X171858Y435707D01*
X171937Y435716D01*
X172013Y435737D01*
X172085Y435770D01*
X172150Y435814D01*
X172209Y435867D01*
X172258Y435929D01*
X172296Y435998D01*
X172324Y436072D01*
X172340Y436149D01*
X172343Y436228D01*
X172334Y436307D01*
X172311Y436382D01*
X172262Y436532D01*
X172228Y436686D01*
X172207Y436842D01*
X172200Y437000D01*
X172207Y437158D01*
X172228Y437314D01*
X172262Y437468D01*
X172310Y437618D01*
X172332Y437694D01*
X172341Y437772D01*
X172338Y437850D01*
X172322Y437927D01*
X172295Y438001D01*
X172256Y438070D01*
X172207Y438131D01*
X172149Y438185D01*
X172084Y438228D01*
X172012Y438261D01*
X171936Y438282D01*
X171858Y438291D01*
X171780Y438288D01*
X171770Y438286D01*
Y461295D01*
G37*
G36*
Y468214D02*X171861Y468221D01*
X172213Y468306D01*
X172547Y468444D01*
X172856Y468634D01*
X173131Y468869D01*
X173366Y469144D01*
X173496Y469355D01*
Y466308D01*
X173061Y466274D01*
X172632Y466171D01*
X172225Y466003D01*
X171849Y465772D01*
X171770Y465705D01*
Y468214D01*
G37*
G36*
Y473056D02*X171953Y472944D01*
X172287Y472806D01*
X172639Y472721D01*
X173000Y472693D01*
X173361Y472721D01*
X173496Y472754D01*
Y471645D01*
X173366Y471856D01*
X173131Y472131D01*
X172856Y472366D01*
X172547Y472556D01*
X172213Y472694D01*
X171861Y472779D01*
X171770Y472786D01*
Y473056D01*
G37*
G36*
Y487500D02*X173496D01*
Y477246D01*
X173361Y477279D01*
X173000Y477307D01*
X172639Y477279D01*
X172287Y477194D01*
X171953Y477056D01*
X171770Y476944D01*
Y487500D01*
G37*
G36*
X166729D02*X171770D01*
Y476944D01*
X171644Y476866D01*
X171369Y476631D01*
X171134Y476356D01*
X170944Y476047D01*
X170806Y475713D01*
X170721Y475361D01*
X170693Y475000D01*
X170721Y474639D01*
X170806Y474287D01*
X170944Y473953D01*
X171134Y473644D01*
X171369Y473369D01*
X171644Y473134D01*
X171770Y473056D01*
Y472786D01*
X171500Y472807D01*
X171139Y472779D01*
X170787Y472694D01*
X170453Y472556D01*
X170144Y472366D01*
X169869Y472131D01*
X169634Y471856D01*
X169444Y471547D01*
X169306Y471213D01*
X169221Y470861D01*
X169193Y470500D01*
X169221Y470139D01*
X169306Y469787D01*
X169444Y469453D01*
X169634Y469144D01*
X169869Y468869D01*
X170144Y468634D01*
X170453Y468444D01*
X170787Y468306D01*
X171139Y468221D01*
X171500Y468193D01*
X171770Y468214D01*
Y465705D01*
X171514Y465486D01*
X171228Y465151D01*
X170997Y464775D01*
X170829Y464368D01*
X170726Y463939D01*
X170691Y463500D01*
X170726Y463061D01*
X170829Y462632D01*
X170997Y462225D01*
X171228Y461849D01*
X171514Y461514D01*
X171770Y461295D01*
Y438286D01*
X171702Y438272D01*
X171629Y438245D01*
X171560Y438206D01*
X171498Y438157D01*
X171445Y438099D01*
X171402Y438034D01*
X171370Y437962D01*
X171294Y437729D01*
X171240Y437489D01*
X171208Y437245D01*
X171197Y437000D01*
X171208Y436755D01*
X171240Y436511D01*
X171294Y436271D01*
X171368Y436037D01*
X171400Y435965D01*
X171444Y435900D01*
X171497Y435841D01*
X171559Y435792D01*
X171628Y435754D01*
X171702Y435726D01*
X171770Y435712D01*
Y402500D01*
X166729D01*
Y416082D01*
X166953Y415944D01*
X167287Y415806D01*
X167639Y415721D01*
X168000Y415693D01*
X168361Y415721D01*
X168713Y415806D01*
X169047Y415944D01*
X169356Y416134D01*
X169631Y416369D01*
X169866Y416644D01*
X170056Y416953D01*
X170194Y417287D01*
X170279Y417639D01*
X170300Y418000D01*
X170279Y418361D01*
X170194Y418713D01*
X170056Y419047D01*
X169866Y419356D01*
X169631Y419631D01*
X169356Y419866D01*
X169047Y420056D01*
X168713Y420194D01*
X168361Y420279D01*
X168000Y420307D01*
X167639Y420279D01*
X167416Y420225D01*
X167556Y420453D01*
X167694Y420787D01*
X167779Y421139D01*
X167800Y421500D01*
X167779Y421861D01*
X167694Y422213D01*
X167556Y422547D01*
X167366Y422856D01*
X167131Y423131D01*
X166856Y423366D01*
X166729Y423445D01*
Y472714D01*
X167000Y472693D01*
X167361Y472721D01*
X167713Y472806D01*
X168047Y472944D01*
X168356Y473134D01*
X168631Y473369D01*
X168866Y473644D01*
X169056Y473953D01*
X169194Y474287D01*
X169279Y474639D01*
X169300Y475000D01*
X169279Y475361D01*
X169194Y475713D01*
X169056Y476047D01*
X168866Y476356D01*
X168631Y476631D01*
X168356Y476866D01*
X168047Y477056D01*
X167713Y477194D01*
X167361Y477279D01*
X167000Y477307D01*
X166729Y477286D01*
Y487500D01*
G37*
G36*
X163230Y421103D02*X163306Y420787D01*
X163444Y420453D01*
X163634Y420144D01*
X163869Y419869D01*
X164144Y419634D01*
X164453Y419444D01*
X164787Y419306D01*
X165139Y419221D01*
X165500Y419193D01*
X165861Y419221D01*
X166084Y419275D01*
X165944Y419047D01*
X165806Y418713D01*
X165721Y418361D01*
X165693Y418000D01*
X165721Y417639D01*
X165806Y417287D01*
X165944Y416953D01*
X166134Y416644D01*
X166369Y416369D01*
X166644Y416134D01*
X166729Y416082D01*
Y402500D01*
X163230D01*
Y421103D01*
G37*
G36*
Y487500D02*X166729D01*
Y477286D01*
X166639Y477279D01*
X166287Y477194D01*
X165953Y477056D01*
X165644Y476866D01*
X165369Y476631D01*
X165134Y476356D01*
X165009Y476152D01*
X165003Y476159D01*
X164941Y476208D01*
X164872Y476246D01*
X164798Y476274D01*
X164721Y476290D01*
X164642Y476293D01*
X164563Y476284D01*
X164487Y476263D01*
X164415Y476230D01*
X164350Y476186D01*
X164291Y476133D01*
X164242Y476071D01*
X164204Y476002D01*
X164176Y475928D01*
X164160Y475851D01*
X164157Y475772D01*
X164166Y475693D01*
X164189Y475618D01*
X164238Y475468D01*
X164272Y475314D01*
X164293Y475158D01*
X164300Y475000D01*
X164293Y474842D01*
X164272Y474686D01*
X164238Y474532D01*
X164190Y474382D01*
X164168Y474306D01*
X164159Y474228D01*
X164162Y474150D01*
X164178Y474073D01*
X164205Y473999D01*
X164244Y473930D01*
X164293Y473869D01*
X164351Y473815D01*
X164416Y473772D01*
X164488Y473739D01*
X164564Y473718D01*
X164642Y473709D01*
X164720Y473712D01*
X164798Y473728D01*
X164871Y473755D01*
X164940Y473794D01*
X165002Y473843D01*
X165008Y473849D01*
X165134Y473644D01*
X165369Y473369D01*
X165644Y473134D01*
X165953Y472944D01*
X166287Y472806D01*
X166639Y472721D01*
X166729Y472714D01*
Y423445D01*
X166547Y423556D01*
X166213Y423694D01*
X165861Y423779D01*
X165500Y423807D01*
X165139Y423779D01*
X164787Y423694D01*
X164453Y423556D01*
X164144Y423366D01*
X163869Y423131D01*
X163634Y422856D01*
X163444Y422547D01*
X163306Y422213D01*
X163230Y421897D01*
Y423714D01*
X163298Y423728D01*
X163371Y423755D01*
X163440Y423794D01*
X163502Y423843D01*
X163555Y423901D01*
X163598Y423966D01*
X163630Y424038D01*
X163706Y424271D01*
X163760Y424511D01*
X163792Y424755D01*
X163803Y425000D01*
X163792Y425245D01*
X163760Y425489D01*
X163706Y425729D01*
X163632Y425963D01*
X163600Y426035D01*
X163556Y426100D01*
X163503Y426159D01*
X163441Y426208D01*
X163372Y426246D01*
X163298Y426274D01*
X163230Y426288D01*
Y433359D01*
X163376Y433370D01*
X163805Y433473D01*
X164212Y433642D01*
X164588Y433872D01*
X164923Y434158D01*
X165209Y434494D01*
X165440Y434869D01*
X165608Y435277D01*
X165711Y435705D01*
X165737Y436144D01*
X165711Y436584D01*
X165608Y437012D01*
X165440Y437420D01*
X165209Y437795D01*
X164923Y438130D01*
X164588Y438417D01*
X164212Y438647D01*
X163805Y438816D01*
X163376Y438919D01*
X163230Y438930D01*
Y454479D01*
X163275Y454497D01*
X163651Y454728D01*
X163986Y455014D01*
X164272Y455349D01*
X164503Y455725D01*
X164671Y456132D01*
X164774Y456561D01*
X164800Y457000D01*
X164774Y457439D01*
X164671Y457868D01*
X164503Y458275D01*
X164272Y458651D01*
X163986Y458986D01*
X163651Y459272D01*
X163275Y459503D01*
X163230Y459521D01*
Y472294D01*
X163463Y472368D01*
X163535Y472400D01*
X163600Y472444D01*
X163659Y472497D01*
X163708Y472559D01*
X163746Y472628D01*
X163774Y472702D01*
X163790Y472779D01*
X163793Y472858D01*
X163784Y472937D01*
X163763Y473013D01*
X163730Y473085D01*
X163686Y473150D01*
X163633Y473209D01*
X163571Y473258D01*
X163502Y473296D01*
X163428Y473324D01*
X163351Y473340D01*
X163272Y473343D01*
X163230Y473338D01*
Y476664D01*
X163272Y476659D01*
X163350Y476662D01*
X163427Y476678D01*
X163501Y476705D01*
X163570Y476744D01*
X163631Y476793D01*
X163685Y476851D01*
X163728Y476916D01*
X163761Y476988D01*
X163782Y477064D01*
X163791Y477142D01*
X163788Y477220D01*
X163772Y477298D01*
X163745Y477371D01*
X163706Y477440D01*
X163657Y477502D01*
X163599Y477555D01*
X163534Y477598D01*
X163462Y477630D01*
X163230Y477706D01*
Y487500D01*
G37*
G36*
Y473338D02*X163193Y473334D01*
X163118Y473311D01*
X162968Y473262D01*
X162814Y473228D01*
X162658Y473207D01*
X162501Y473200D01*
Y476800D01*
X162658Y476793D01*
X162814Y476772D01*
X162968Y476738D01*
X163118Y476690D01*
X163194Y476668D01*
X163230Y476664D01*
Y473338D01*
G37*
G36*
Y459521D02*X162868Y459671D01*
X162501Y459759D01*
Y472197D01*
X162745Y472208D01*
X162989Y472240D01*
X163229Y472294D01*
X163230Y472294D01*
Y459521D01*
G37*
G36*
Y438930D02*X162937Y438953D01*
X162501Y438919D01*
Y454241D01*
X162868Y454329D01*
X163230Y454479D01*
Y438930D01*
G37*
G36*
Y421897D02*X163221Y421861D01*
X163193Y421500D01*
X163221Y421139D01*
X163230Y421103D01*
Y402500D01*
X162501D01*
Y433370D01*
X162937Y433336D01*
X163230Y433359D01*
Y426288D01*
X163221Y426290D01*
X163142Y426293D01*
X163063Y426284D01*
X162987Y426263D01*
X162915Y426230D01*
X162850Y426186D01*
X162791Y426133D01*
X162742Y426071D01*
X162704Y426002D01*
X162676Y425928D01*
X162660Y425851D01*
X162657Y425772D01*
X162666Y425693D01*
X162689Y425618D01*
X162738Y425468D01*
X162772Y425314D01*
X162793Y425158D01*
X162800Y425000D01*
X162793Y424842D01*
X162772Y424686D01*
X162738Y424532D01*
X162690Y424382D01*
X162668Y424306D01*
X162659Y424228D01*
X162662Y424150D01*
X162678Y424073D01*
X162705Y423999D01*
X162744Y423930D01*
X162793Y423869D01*
X162851Y423815D01*
X162916Y423772D01*
X162988Y423739D01*
X163064Y423718D01*
X163142Y423709D01*
X163220Y423712D01*
X163230Y423714D01*
Y421897D01*
G37*
G36*
X162501Y487500D02*X163230D01*
Y477706D01*
X163229Y477706D01*
X162989Y477760D01*
X162745Y477792D01*
X162501Y477803D01*
Y487500D01*
G37*
G36*
X160270Y435266D02*X160434Y434869D01*
X160665Y434494D01*
X160951Y434158D01*
X161286Y433872D01*
X161662Y433642D01*
X162069Y433473D01*
X162498Y433370D01*
X162501Y433370D01*
Y402500D01*
X160270D01*
Y422294D01*
X160271Y422294D01*
X160511Y422240D01*
X160755Y422208D01*
X161000Y422197D01*
X161245Y422208D01*
X161489Y422240D01*
X161729Y422294D01*
X161963Y422368D01*
X162035Y422400D01*
X162100Y422444D01*
X162159Y422497D01*
X162208Y422559D01*
X162246Y422628D01*
X162274Y422702D01*
X162290Y422779D01*
X162293Y422858D01*
X162284Y422937D01*
X162263Y423013D01*
X162230Y423085D01*
X162186Y423150D01*
X162133Y423209D01*
X162071Y423258D01*
X162002Y423296D01*
X161928Y423324D01*
X161851Y423340D01*
X161772Y423343D01*
X161693Y423334D01*
X161618Y423311D01*
X161468Y423262D01*
X161314Y423228D01*
X161158Y423207D01*
X161000Y423200D01*
X160842Y423207D01*
X160686Y423228D01*
X160532Y423262D01*
X160382Y423310D01*
X160306Y423332D01*
X160270Y423336D01*
Y426662D01*
X160307Y426666D01*
X160382Y426689D01*
X160532Y426738D01*
X160686Y426772D01*
X160842Y426793D01*
X161000Y426800D01*
X161158Y426793D01*
X161314Y426772D01*
X161468Y426738D01*
X161618Y426690D01*
X161694Y426668D01*
X161772Y426659D01*
X161850Y426662D01*
X161927Y426678D01*
X162001Y426705D01*
X162070Y426744D01*
X162131Y426793D01*
X162185Y426851D01*
X162228Y426916D01*
X162261Y426988D01*
X162282Y427064D01*
X162291Y427142D01*
X162288Y427220D01*
X162272Y427298D01*
X162245Y427371D01*
X162206Y427440D01*
X162157Y427502D01*
X162099Y427555D01*
X162034Y427598D01*
X161962Y427630D01*
X161729Y427706D01*
X161489Y427760D01*
X161245Y427792D01*
X161000Y427803D01*
X160755Y427792D01*
X160511Y427760D01*
X160271Y427706D01*
X160270Y427706D01*
Y435266D01*
G37*
G36*
Y454795D02*X160349Y454728D01*
X160725Y454497D01*
X161132Y454329D01*
X161561Y454226D01*
X162000Y454191D01*
X162439Y454226D01*
X162501Y454241D01*
Y438919D01*
X162498Y438919D01*
X162069Y438816D01*
X161662Y438647D01*
X161286Y438417D01*
X160951Y438130D01*
X160665Y437795D01*
X160434Y437420D01*
X160270Y437023D01*
Y454795D01*
G37*
G36*
Y487500D02*X162501D01*
Y477803D01*
X162500Y477803D01*
X162255Y477792D01*
X162011Y477760D01*
X161771Y477706D01*
X161537Y477632D01*
X161465Y477600D01*
X161400Y477556D01*
X161341Y477503D01*
X161292Y477441D01*
X161254Y477372D01*
X161226Y477298D01*
X161210Y477221D01*
X161207Y477142D01*
X161216Y477063D01*
X161237Y476987D01*
X161270Y476915D01*
X161314Y476850D01*
X161367Y476791D01*
X161429Y476742D01*
X161498Y476704D01*
X161572Y476676D01*
X161649Y476660D01*
X161728Y476657D01*
X161807Y476666D01*
X161882Y476689D01*
X162032Y476738D01*
X162186Y476772D01*
X162342Y476793D01*
X162500Y476800D01*
X162501Y476800D01*
Y473200D01*
X162500Y473200D01*
X162342Y473207D01*
X162186Y473228D01*
X162032Y473262D01*
X161882Y473310D01*
X161806Y473332D01*
X161728Y473341D01*
X161650Y473338D01*
X161573Y473322D01*
X161499Y473295D01*
X161430Y473256D01*
X161369Y473207D01*
X161315Y473149D01*
X161272Y473084D01*
X161239Y473012D01*
X161218Y472936D01*
X161209Y472858D01*
X161212Y472780D01*
X161228Y472702D01*
X161255Y472629D01*
X161294Y472560D01*
X161343Y472498D01*
X161401Y472445D01*
X161466Y472402D01*
X161538Y472370D01*
X161771Y472294D01*
X162011Y472240D01*
X162255Y472208D01*
X162500Y472197D01*
X162501Y472197D01*
Y459759D01*
X162439Y459774D01*
X162000Y459809D01*
X161561Y459774D01*
X161132Y459671D01*
X160757Y459516D01*
X160866Y459644D01*
X161056Y459953D01*
X161194Y460287D01*
X161279Y460639D01*
X161300Y461000D01*
X161279Y461361D01*
X161194Y461713D01*
X161056Y462047D01*
X160866Y462356D01*
X160631Y462631D01*
X160356Y462866D01*
X160270Y462919D01*
Y473712D01*
X160279Y473710D01*
X160358Y473707D01*
X160437Y473716D01*
X160513Y473737D01*
X160585Y473770D01*
X160650Y473814D01*
X160709Y473867D01*
X160758Y473929D01*
X160796Y473998D01*
X160824Y474072D01*
X160840Y474149D01*
X160843Y474228D01*
X160834Y474307D01*
X160811Y474382D01*
X160762Y474532D01*
X160728Y474686D01*
X160707Y474842D01*
X160700Y475000D01*
X160707Y475158D01*
X160728Y475314D01*
X160762Y475468D01*
X160810Y475618D01*
X160832Y475694D01*
X160841Y475772D01*
X160838Y475850D01*
X160822Y475927D01*
X160795Y476001D01*
X160756Y476070D01*
X160707Y476131D01*
X160649Y476185D01*
X160584Y476228D01*
X160512Y476261D01*
X160436Y476282D01*
X160358Y476291D01*
X160280Y476288D01*
X160270Y476286D01*
Y487500D01*
G37*
G36*
X158230Y458830D02*X158287Y458806D01*
X158639Y458721D01*
X159000Y458693D01*
X159361Y458721D01*
X159713Y458806D01*
X159941Y458900D01*
X159728Y458651D01*
X159497Y458275D01*
X159329Y457868D01*
X159226Y457439D01*
X159191Y457000D01*
X159226Y456561D01*
X159329Y456132D01*
X159497Y455725D01*
X159728Y455349D01*
X160014Y455014D01*
X160270Y454795D01*
Y437023D01*
X160266Y437012D01*
X160163Y436584D01*
X160128Y436144D01*
X160163Y435705D01*
X160266Y435277D01*
X160270Y435266D01*
Y427706D01*
X160037Y427632D01*
X159965Y427600D01*
X159900Y427556D01*
X159841Y427503D01*
X159792Y427441D01*
X159754Y427372D01*
X159726Y427298D01*
X159710Y427221D01*
X159707Y427142D01*
X159716Y427063D01*
X159737Y426987D01*
X159770Y426915D01*
X159814Y426850D01*
X159867Y426791D01*
X159929Y426742D01*
X159998Y426704D01*
X160072Y426676D01*
X160149Y426660D01*
X160228Y426657D01*
X160270Y426662D01*
Y423336D01*
X160228Y423341D01*
X160150Y423338D01*
X160073Y423322D01*
X159999Y423295D01*
X159930Y423256D01*
X159869Y423207D01*
X159815Y423149D01*
X159772Y423084D01*
X159739Y423012D01*
X159718Y422936D01*
X159709Y422858D01*
X159712Y422780D01*
X159728Y422702D01*
X159755Y422629D01*
X159794Y422560D01*
X159843Y422498D01*
X159901Y422445D01*
X159966Y422402D01*
X160038Y422370D01*
X160270Y422294D01*
Y402500D01*
X158230D01*
Y405514D01*
X158235Y405514D01*
X158465Y405569D01*
X158683Y405659D01*
X158884Y405783D01*
X159064Y405936D01*
X159217Y406116D01*
X159341Y406317D01*
X159431Y406535D01*
X159486Y406765D01*
X159500Y407000D01*
X159486Y413235D01*
X159431Y413465D01*
X159341Y413683D01*
X159217Y413884D01*
X159064Y414064D01*
X158884Y414217D01*
X158683Y414341D01*
X158465Y414431D01*
X158235Y414486D01*
X158230Y414486D01*
Y424590D01*
X158240Y424511D01*
X158294Y424271D01*
X158368Y424037D01*
X158400Y423965D01*
X158444Y423900D01*
X158497Y423841D01*
X158559Y423792D01*
X158628Y423754D01*
X158702Y423726D01*
X158779Y423710D01*
X158858Y423707D01*
X158937Y423716D01*
X159013Y423737D01*
X159085Y423770D01*
X159150Y423814D01*
X159209Y423867D01*
X159258Y423929D01*
X159296Y423998D01*
X159324Y424072D01*
X159340Y424149D01*
X159343Y424228D01*
X159334Y424307D01*
X159311Y424382D01*
X159262Y424532D01*
X159228Y424686D01*
X159207Y424842D01*
X159200Y425000D01*
X159207Y425158D01*
X159228Y425314D01*
X159262Y425468D01*
X159310Y425618D01*
X159332Y425694D01*
X159341Y425772D01*
X159338Y425850D01*
X159322Y425927D01*
X159295Y426001D01*
X159256Y426070D01*
X159207Y426131D01*
X159149Y426185D01*
X159084Y426228D01*
X159012Y426261D01*
X158936Y426282D01*
X158858Y426291D01*
X158780Y426288D01*
X158702Y426272D01*
X158629Y426245D01*
X158560Y426206D01*
X158498Y426157D01*
X158445Y426099D01*
X158402Y426034D01*
X158370Y425962D01*
X158294Y425729D01*
X158240Y425489D01*
X158230Y425411D01*
Y435056D01*
X158356Y435134D01*
X158631Y435369D01*
X158866Y435644D01*
X159056Y435953D01*
X159194Y436287D01*
X159279Y436639D01*
X159300Y437000D01*
X159279Y437361D01*
X159194Y437713D01*
X159056Y438047D01*
X158866Y438356D01*
X158631Y438631D01*
X158356Y438866D01*
X158230Y438944D01*
Y443436D01*
X158279Y443639D01*
X158300Y444000D01*
X158279Y444361D01*
X158230Y444564D01*
Y450214D01*
X158298Y450228D01*
X158371Y450255D01*
X158440Y450294D01*
X158502Y450343D01*
X158555Y450401D01*
X158598Y450466D01*
X158630Y450538D01*
X158706Y450771D01*
X158760Y451011D01*
X158792Y451255D01*
X158803Y451500D01*
X158792Y451745D01*
X158760Y451989D01*
X158706Y452229D01*
X158632Y452463D01*
X158600Y452535D01*
X158556Y452600D01*
X158503Y452659D01*
X158441Y452708D01*
X158372Y452746D01*
X158298Y452774D01*
X158230Y452788D01*
Y458830D01*
G37*
G36*
Y487500D02*X160270D01*
Y476286D01*
X160202Y476272D01*
X160129Y476245D01*
X160060Y476206D01*
X159998Y476157D01*
X159945Y476099D01*
X159902Y476034D01*
X159870Y475962D01*
X159794Y475729D01*
X159740Y475489D01*
X159708Y475245D01*
X159697Y475000D01*
X159708Y474755D01*
X159740Y474511D01*
X159794Y474271D01*
X159868Y474037D01*
X159900Y473965D01*
X159944Y473900D01*
X159997Y473841D01*
X160059Y473792D01*
X160128Y473754D01*
X160202Y473726D01*
X160270Y473712D01*
Y462919D01*
X160047Y463056D01*
X159713Y463194D01*
X159361Y463279D01*
X159000Y463307D01*
X158639Y463279D01*
X158287Y463194D01*
X158230Y463170D01*
Y487500D01*
G37*
G36*
Y438944D02*X158047Y439056D01*
X157713Y439194D01*
X157361Y439279D01*
X157000Y439307D01*
X156639Y439279D01*
X156287Y439194D01*
X156001Y439076D01*
Y441693D01*
X156361Y441721D01*
X156713Y441806D01*
X157047Y441944D01*
X157356Y442134D01*
X157631Y442369D01*
X157866Y442644D01*
X158056Y442953D01*
X158194Y443287D01*
X158230Y443436D01*
Y438944D01*
G37*
G36*
Y414486D02*X158000Y414500D01*
X156001Y414496D01*
Y434924D01*
X156287Y434806D01*
X156639Y434721D01*
X157000Y434693D01*
X157361Y434721D01*
X157713Y434806D01*
X158047Y434944D01*
X158230Y435056D01*
Y425411D01*
X158208Y425245D01*
X158197Y425000D01*
X158208Y424755D01*
X158230Y424590D01*
Y414486D01*
G37*
G36*
Y402500D02*X156001D01*
Y405509D01*
X158230Y405514D01*
Y402500D01*
G37*
G36*
X156001Y487500D02*X158230D01*
Y463170D01*
X157953Y463056D01*
X157644Y462866D01*
X157369Y462631D01*
X157134Y462356D01*
X156944Y462047D01*
X156806Y461713D01*
X156721Y461361D01*
X156693Y461000D01*
X156721Y460639D01*
X156806Y460287D01*
X156944Y459953D01*
X157134Y459644D01*
X157369Y459369D01*
X157644Y459134D01*
X157953Y458944D01*
X158230Y458830D01*
Y452788D01*
X158221Y452790D01*
X158142Y452793D01*
X158063Y452784D01*
X157987Y452763D01*
X157915Y452730D01*
X157850Y452686D01*
X157791Y452633D01*
X157742Y452571D01*
X157704Y452502D01*
X157676Y452428D01*
X157660Y452351D01*
X157657Y452272D01*
X157666Y452193D01*
X157689Y452118D01*
X157738Y451968D01*
X157772Y451814D01*
X157793Y451658D01*
X157800Y451500D01*
X157793Y451342D01*
X157772Y451186D01*
X157738Y451032D01*
X157690Y450882D01*
X157668Y450806D01*
X157659Y450728D01*
X157662Y450650D01*
X157678Y450573D01*
X157705Y450499D01*
X157744Y450430D01*
X157793Y450369D01*
X157851Y450315D01*
X157916Y450272D01*
X157988Y450239D01*
X158064Y450218D01*
X158142Y450209D01*
X158220Y450212D01*
X158230Y450214D01*
Y444564D01*
X158194Y444713D01*
X158056Y445047D01*
X157866Y445356D01*
X157631Y445631D01*
X157356Y445866D01*
X157047Y446056D01*
X156713Y446194D01*
X156361Y446279D01*
X156001Y446307D01*
Y448697D01*
X156245Y448708D01*
X156489Y448740D01*
X156729Y448794D01*
X156963Y448868D01*
X157035Y448900D01*
X157100Y448944D01*
X157159Y448997D01*
X157208Y449059D01*
X157246Y449128D01*
X157274Y449202D01*
X157290Y449279D01*
X157293Y449358D01*
X157284Y449437D01*
X157263Y449513D01*
X157230Y449585D01*
X157186Y449650D01*
X157133Y449709D01*
X157071Y449758D01*
X157002Y449796D01*
X156928Y449824D01*
X156851Y449840D01*
X156772Y449843D01*
X156693Y449834D01*
X156618Y449811D01*
X156468Y449762D01*
X156314Y449728D01*
X156158Y449707D01*
X156001Y449700D01*
Y453300D01*
X156158Y453293D01*
X156314Y453272D01*
X156468Y453238D01*
X156618Y453190D01*
X156694Y453168D01*
X156772Y453159D01*
X156850Y453162D01*
X156927Y453178D01*
X157001Y453205D01*
X157070Y453244D01*
X157131Y453293D01*
X157185Y453351D01*
X157228Y453416D01*
X157261Y453488D01*
X157282Y453564D01*
X157291Y453642D01*
X157288Y453720D01*
X157272Y453798D01*
X157245Y453871D01*
X157206Y453940D01*
X157157Y454002D01*
X157099Y454055D01*
X157034Y454098D01*
X156962Y454130D01*
X156729Y454206D01*
X156489Y454260D01*
X156245Y454292D01*
X156001Y454303D01*
Y487500D01*
G37*
G36*
X153770Y405504D02*X156001Y405509D01*
Y402500D01*
X153770D01*
Y405504D01*
G37*
G36*
Y443436D02*X153806Y443287D01*
X153944Y442953D01*
X154134Y442644D01*
X154369Y442369D01*
X154644Y442134D01*
X154953Y441944D01*
X155287Y441806D01*
X155639Y441721D01*
X156000Y441693D01*
X156001Y441693D01*
Y439076D01*
X155953Y439056D01*
X155644Y438866D01*
X155369Y438631D01*
X155134Y438356D01*
X154944Y438047D01*
X154806Y437713D01*
X154721Y437361D01*
X154693Y437000D01*
X154721Y436639D01*
X154806Y436287D01*
X154944Y435953D01*
X155134Y435644D01*
X155369Y435369D01*
X155644Y435134D01*
X155953Y434944D01*
X156001Y434924D01*
Y414496D01*
X153770Y414491D01*
Y421305D01*
X153868Y421329D01*
X154275Y421497D01*
X154651Y421728D01*
X154986Y422014D01*
X155272Y422349D01*
X155503Y422725D01*
X155671Y423132D01*
X155774Y423561D01*
X155800Y424000D01*
X155774Y424439D01*
X155671Y424868D01*
X155503Y425275D01*
X155272Y425651D01*
X154986Y425986D01*
X154651Y426272D01*
X154275Y426503D01*
X153868Y426671D01*
X153770Y426695D01*
Y443436D01*
G37*
G36*
Y452829D02*X154047Y452944D01*
X154356Y453134D01*
X154631Y453369D01*
X154736Y453491D01*
X154737Y453487D01*
X154770Y453415D01*
X154814Y453350D01*
X154867Y453291D01*
X154929Y453242D01*
X154998Y453204D01*
X155072Y453176D01*
X155149Y453160D01*
X155228Y453157D01*
X155307Y453166D01*
X155382Y453189D01*
X155532Y453238D01*
X155686Y453272D01*
X155842Y453293D01*
X156000Y453300D01*
X156001Y453300D01*
Y449700D01*
X156000Y449700D01*
X155842Y449707D01*
X155686Y449728D01*
X155532Y449762D01*
X155382Y449810D01*
X155306Y449832D01*
X155228Y449841D01*
X155150Y449838D01*
X155073Y449822D01*
X154999Y449795D01*
X154930Y449756D01*
X154869Y449707D01*
X154815Y449649D01*
X154772Y449584D01*
X154739Y449512D01*
X154718Y449436D01*
X154709Y449358D01*
X154712Y449280D01*
X154728Y449202D01*
X154755Y449129D01*
X154794Y449060D01*
X154843Y448998D01*
X154901Y448945D01*
X154966Y448902D01*
X155038Y448870D01*
X155271Y448794D01*
X155511Y448740D01*
X155755Y448708D01*
X156000Y448697D01*
X156001Y448697D01*
Y446307D01*
X156000Y446307D01*
X155639Y446279D01*
X155287Y446194D01*
X154953Y446056D01*
X154644Y445866D01*
X154369Y445631D01*
X154134Y445356D01*
X153944Y445047D01*
X153806Y444713D01*
X153770Y444564D01*
Y450212D01*
X153779Y450210D01*
X153858Y450207D01*
X153937Y450216D01*
X154013Y450237D01*
X154085Y450270D01*
X154150Y450314D01*
X154209Y450367D01*
X154258Y450429D01*
X154296Y450498D01*
X154324Y450572D01*
X154340Y450649D01*
X154343Y450728D01*
X154334Y450807D01*
X154311Y450882D01*
X154262Y451032D01*
X154228Y451186D01*
X154207Y451342D01*
X154200Y451500D01*
X154207Y451658D01*
X154228Y451814D01*
X154262Y451968D01*
X154310Y452118D01*
X154332Y452194D01*
X154341Y452272D01*
X154338Y452350D01*
X154322Y452427D01*
X154295Y452501D01*
X154256Y452570D01*
X154207Y452631D01*
X154149Y452685D01*
X154084Y452728D01*
X154012Y452761D01*
X153936Y452782D01*
X153858Y452791D01*
X153780Y452788D01*
X153770Y452786D01*
Y452829D01*
G37*
G36*
Y487500D02*X156001D01*
Y454303D01*
X156000Y454303D01*
X155755Y454292D01*
X155511Y454260D01*
X155271Y454206D01*
X155144Y454166D01*
X155194Y454287D01*
X155279Y454639D01*
X155300Y455000D01*
X155279Y455361D01*
X155194Y455713D01*
X155056Y456047D01*
X154866Y456356D01*
X154631Y456631D01*
X154356Y456866D01*
X154047Y457056D01*
X153770Y457171D01*
Y487500D01*
G37*
G36*
X148284Y410203D02*X148575Y410678D01*
X148816Y411260D01*
X148963Y411872D01*
X149000Y412500D01*
X148963Y413128D01*
X148816Y413740D01*
X148575Y414322D01*
X148284Y414797D01*
Y417703D01*
X148575Y418178D01*
X148816Y418760D01*
X148963Y419372D01*
X149000Y420000D01*
X148963Y420628D01*
X148816Y421240D01*
X148575Y421822D01*
X148284Y422297D01*
Y425203D01*
X148575Y425678D01*
X148816Y426260D01*
X148963Y426872D01*
X149000Y427500D01*
X148963Y428128D01*
X148816Y428740D01*
X148575Y429322D01*
X148284Y429797D01*
Y432869D01*
X148287Y432870D01*
X148355Y432909D01*
X148416Y432958D01*
X148469Y433017D01*
X148511Y433083D01*
X148674Y433408D01*
X148803Y433748D01*
X148901Y434098D01*
X148967Y434456D01*
X149000Y434818D01*
Y435182D01*
X148967Y435544D01*
X148901Y435902D01*
X148803Y436252D01*
X148674Y436592D01*
X148515Y436919D01*
X148472Y436985D01*
X148419Y437044D01*
X148357Y437094D01*
X148288Y437133D01*
X148284Y437135D01*
Y440203D01*
X148575Y440678D01*
X148816Y441260D01*
X148963Y441872D01*
X149000Y442500D01*
X148963Y443128D01*
X148816Y443740D01*
X148575Y444322D01*
X148284Y444797D01*
Y447703D01*
X148575Y448178D01*
X148816Y448760D01*
X148963Y449372D01*
X149000Y450000D01*
X148963Y450628D01*
X148816Y451240D01*
X148575Y451822D01*
X148284Y452297D01*
Y455203D01*
X148575Y455678D01*
X148816Y456260D01*
X148963Y456872D01*
X149000Y457500D01*
X148963Y458128D01*
X148816Y458740D01*
X148575Y459322D01*
X148284Y459797D01*
Y462869D01*
X148287Y462870D01*
X148355Y462909D01*
X148416Y462958D01*
X148469Y463017D01*
X148511Y463083D01*
X148674Y463408D01*
X148803Y463748D01*
X148901Y464098D01*
X148967Y464456D01*
X149000Y464818D01*
Y465182D01*
X148967Y465544D01*
X148901Y465902D01*
X148803Y466252D01*
X148674Y466592D01*
X148515Y466919D01*
X148472Y466985D01*
X148419Y467044D01*
X148357Y467094D01*
X148288Y467133D01*
X148284Y467135D01*
Y470203D01*
X148575Y470678D01*
X148816Y471260D01*
X148963Y471872D01*
X149000Y472500D01*
X148963Y473128D01*
X148816Y473740D01*
X148575Y474322D01*
X148284Y474797D01*
Y477703D01*
X148575Y478178D01*
X148816Y478760D01*
X148963Y479372D01*
X149000Y480000D01*
X148963Y480628D01*
X148816Y481240D01*
X148575Y481822D01*
X148284Y482297D01*
Y487500D01*
X153770D01*
Y457171D01*
X153713Y457194D01*
X153361Y457279D01*
X153000Y457307D01*
X152639Y457279D01*
X152287Y457194D01*
X151953Y457056D01*
X151644Y456866D01*
X151369Y456631D01*
X151134Y456356D01*
X150944Y456047D01*
X150806Y455713D01*
X150721Y455361D01*
X150693Y455000D01*
X150721Y454639D01*
X150806Y454287D01*
X150944Y453953D01*
X151134Y453644D01*
X151369Y453369D01*
X151644Y453134D01*
X151953Y452944D01*
X152287Y452806D01*
X152639Y452721D01*
X153000Y452693D01*
X153361Y452721D01*
X153713Y452806D01*
X153770Y452829D01*
Y452786D01*
X153702Y452772D01*
X153629Y452745D01*
X153560Y452706D01*
X153498Y452657D01*
X153445Y452599D01*
X153402Y452534D01*
X153370Y452462D01*
X153294Y452229D01*
X153240Y451989D01*
X153208Y451745D01*
X153197Y451500D01*
X153208Y451255D01*
X153240Y451011D01*
X153294Y450771D01*
X153368Y450537D01*
X153400Y450465D01*
X153444Y450400D01*
X153497Y450341D01*
X153559Y450292D01*
X153628Y450254D01*
X153702Y450226D01*
X153770Y450212D01*
Y444564D01*
X153721Y444361D01*
X153693Y444000D01*
X153721Y443639D01*
X153770Y443436D01*
Y426695D01*
X153439Y426774D01*
X153000Y426809D01*
X152561Y426774D01*
X152132Y426671D01*
X151725Y426503D01*
X151349Y426272D01*
X151014Y425986D01*
X150728Y425651D01*
X150497Y425275D01*
X150329Y424868D01*
X150226Y424439D01*
X150191Y424000D01*
X150226Y423561D01*
X150329Y423132D01*
X150497Y422725D01*
X150728Y422349D01*
X151014Y422014D01*
X151349Y421728D01*
X151725Y421497D01*
X152132Y421329D01*
X152561Y421226D01*
X153000Y421191D01*
X153439Y421226D01*
X153770Y421305D01*
Y414491D01*
X151765Y414486D01*
X151535Y414431D01*
X151317Y414341D01*
X151116Y414217D01*
X150936Y414064D01*
X150783Y413884D01*
X150659Y413683D01*
X150569Y413465D01*
X150514Y413235D01*
X150500Y413000D01*
X150514Y406765D01*
X150569Y406535D01*
X150659Y406317D01*
X150783Y406116D01*
X150936Y405936D01*
X151116Y405783D01*
X151317Y405659D01*
X151535Y405569D01*
X151765Y405514D01*
X152000Y405500D01*
X153770Y405504D01*
Y402500D01*
X148284D01*
Y410203D01*
G37*
G36*
Y482297D02*X148246Y482358D01*
X147837Y482837D01*
X147358Y483246D01*
X146822Y483575D01*
X146240Y483816D01*
X145628Y483963D01*
X145000Y484012D01*
X144994Y484012D01*
Y487494D01*
X145000Y487500D01*
X148284D01*
Y482297D01*
G37*
G36*
Y474797D02*X148246Y474858D01*
X147837Y475337D01*
X147358Y475746D01*
X146822Y476075D01*
X146399Y476250D01*
X146822Y476425D01*
X147358Y476754D01*
X147837Y477163D01*
X148246Y477642D01*
X148284Y477703D01*
Y474797D01*
G37*
G36*
Y459797D02*X148246Y459858D01*
X147837Y460337D01*
X147358Y460746D01*
X146822Y461075D01*
X146396Y461251D01*
X146592Y461326D01*
X146919Y461485D01*
X146985Y461528D01*
X147044Y461581D01*
X147094Y461643D01*
X147133Y461712D01*
X147161Y461786D01*
X147177Y461863D01*
X147181Y461942D01*
X147173Y462021D01*
X147152Y462097D01*
X147120Y462170D01*
X147077Y462236D01*
X147024Y462295D01*
X146962Y462344D01*
X146893Y462384D01*
X146819Y462412D01*
X146742Y462428D01*
X146663Y462432D01*
X146584Y462424D01*
X146507Y462403D01*
X146436Y462370D01*
X146193Y462247D01*
X145938Y462150D01*
X145676Y462077D01*
X145408Y462028D01*
X145136Y462003D01*
X144994D01*
Y467997D01*
X145136D01*
X145408Y467972D01*
X145676Y467923D01*
X145938Y467850D01*
X146193Y467753D01*
X146437Y467633D01*
X146509Y467600D01*
X146584Y467579D01*
X146663Y467571D01*
X146741Y467575D01*
X146818Y467591D01*
X146892Y467619D01*
X146960Y467658D01*
X147021Y467707D01*
X147074Y467766D01*
X147117Y467832D01*
X147149Y467904D01*
X147170Y467980D01*
X147178Y468058D01*
X147174Y468136D01*
X147158Y468213D01*
X147130Y468287D01*
X147091Y468355D01*
X147042Y468416D01*
X146983Y468469D01*
X146917Y468511D01*
X146592Y468674D01*
X146396Y468749D01*
X146822Y468925D01*
X147358Y469254D01*
X147837Y469663D01*
X148246Y470142D01*
X148284Y470203D01*
Y467135D01*
X148214Y467161D01*
X148137Y467177D01*
X148058Y467181D01*
X147979Y467173D01*
X147903Y467152D01*
X147830Y467120D01*
X147764Y467077D01*
X147705Y467024D01*
X147656Y466962D01*
X147616Y466893D01*
X147588Y466819D01*
X147572Y466742D01*
X147568Y466663D01*
X147576Y466584D01*
X147597Y466507D01*
X147630Y466436D01*
X147753Y466193D01*
X147850Y465938D01*
X147923Y465676D01*
X147972Y465408D01*
X147997Y465136D01*
Y464864D01*
X147972Y464592D01*
X147923Y464324D01*
X147850Y464062D01*
X147753Y463807D01*
X147633Y463563D01*
X147600Y463491D01*
X147579Y463416D01*
X147571Y463337D01*
X147575Y463259D01*
X147591Y463182D01*
X147619Y463108D01*
X147658Y463040D01*
X147707Y462979D01*
X147766Y462926D01*
X147832Y462883D01*
X147904Y462851D01*
X147980Y462830D01*
X148058Y462822D01*
X148136Y462826D01*
X148213Y462842D01*
X148284Y462869D01*
Y459797D01*
G37*
G36*
Y452297D02*X148246Y452358D01*
X147837Y452837D01*
X147358Y453246D01*
X146822Y453575D01*
X146399Y453750D01*
X146822Y453925D01*
X147358Y454254D01*
X147837Y454663D01*
X148246Y455142D01*
X148284Y455203D01*
Y452297D01*
G37*
G36*
Y444797D02*X148246Y444858D01*
X147837Y445337D01*
X147358Y445746D01*
X146822Y446075D01*
X146399Y446250D01*
X146822Y446425D01*
X147358Y446754D01*
X147837Y447163D01*
X148246Y447642D01*
X148284Y447703D01*
Y444797D01*
G37*
G36*
Y429797D02*X148246Y429858D01*
X147837Y430337D01*
X147358Y430746D01*
X146822Y431075D01*
X146396Y431251D01*
X146592Y431326D01*
X146919Y431485D01*
X146985Y431528D01*
X147044Y431581D01*
X147094Y431643D01*
X147133Y431712D01*
X147161Y431786D01*
X147177Y431863D01*
X147181Y431942D01*
X147173Y432021D01*
X147152Y432097D01*
X147120Y432170D01*
X147077Y432236D01*
X147024Y432295D01*
X146962Y432344D01*
X146893Y432384D01*
X146819Y432412D01*
X146742Y432428D01*
X146663Y432432D01*
X146584Y432424D01*
X146507Y432403D01*
X146436Y432370D01*
X146193Y432247D01*
X145938Y432150D01*
X145676Y432077D01*
X145408Y432028D01*
X145136Y432003D01*
X144994D01*
Y437997D01*
X145136D01*
X145408Y437972D01*
X145676Y437923D01*
X145938Y437850D01*
X146193Y437753D01*
X146437Y437633D01*
X146509Y437600D01*
X146584Y437579D01*
X146663Y437571D01*
X146741Y437575D01*
X146818Y437591D01*
X146892Y437619D01*
X146960Y437658D01*
X147021Y437707D01*
X147074Y437766D01*
X147117Y437832D01*
X147149Y437904D01*
X147170Y437980D01*
X147178Y438058D01*
X147174Y438136D01*
X147158Y438213D01*
X147130Y438287D01*
X147091Y438355D01*
X147042Y438416D01*
X146983Y438469D01*
X146917Y438511D01*
X146592Y438674D01*
X146396Y438749D01*
X146822Y438925D01*
X147358Y439254D01*
X147837Y439663D01*
X148246Y440142D01*
X148284Y440203D01*
Y437135D01*
X148214Y437161D01*
X148137Y437177D01*
X148058Y437181D01*
X147979Y437173D01*
X147903Y437152D01*
X147830Y437120D01*
X147764Y437077D01*
X147705Y437024D01*
X147656Y436962D01*
X147616Y436893D01*
X147588Y436819D01*
X147572Y436742D01*
X147568Y436663D01*
X147576Y436584D01*
X147597Y436507D01*
X147630Y436436D01*
X147753Y436193D01*
X147850Y435938D01*
X147923Y435676D01*
X147972Y435408D01*
X147997Y435136D01*
Y434864D01*
X147972Y434592D01*
X147923Y434324D01*
X147850Y434062D01*
X147753Y433807D01*
X147633Y433563D01*
X147600Y433491D01*
X147579Y433416D01*
X147571Y433337D01*
X147575Y433259D01*
X147591Y433182D01*
X147619Y433108D01*
X147658Y433040D01*
X147707Y432979D01*
X147766Y432926D01*
X147832Y432883D01*
X147904Y432851D01*
X147980Y432830D01*
X148058Y432822D01*
X148136Y432826D01*
X148213Y432842D01*
X148284Y432869D01*
Y429797D01*
G37*
G36*
Y422297D02*X148246Y422358D01*
X147837Y422837D01*
X147358Y423246D01*
X146822Y423575D01*
X146399Y423750D01*
X146822Y423925D01*
X147358Y424254D01*
X147837Y424663D01*
X148246Y425142D01*
X148284Y425203D01*
Y422297D01*
G37*
G36*
Y414797D02*X148246Y414858D01*
X147837Y415337D01*
X147358Y415746D01*
X146822Y416075D01*
X146399Y416250D01*
X146822Y416425D01*
X147358Y416754D01*
X147837Y417163D01*
X148246Y417642D01*
X148284Y417703D01*
Y414797D01*
G37*
G36*
X145000Y402500D02*X144994Y402506D01*
Y408488D01*
X145000Y408488D01*
X145628Y408537D01*
X146240Y408684D01*
X146822Y408925D01*
X147358Y409254D01*
X147837Y409663D01*
X148246Y410142D01*
X148284Y410203D01*
Y402500D01*
X145000D01*
G37*
G36*
X141716Y417703D02*X141754Y417642D01*
X142163Y417163D01*
X142642Y416754D01*
X143178Y416425D01*
X143601Y416250D01*
X143178Y416075D01*
X142642Y415746D01*
X142163Y415337D01*
X141754Y414858D01*
X141716Y414797D01*
Y417703D01*
G37*
G36*
Y425203D02*X141754Y425142D01*
X142163Y424663D01*
X142642Y424254D01*
X143178Y423925D01*
X143601Y423750D01*
X143178Y423575D01*
X142642Y423246D01*
X142163Y422837D01*
X141754Y422358D01*
X141716Y422297D01*
Y425203D01*
G37*
G36*
Y440203D02*X141754Y440142D01*
X142163Y439663D01*
X142642Y439254D01*
X143178Y438925D01*
X143604Y438749D01*
X143408Y438674D01*
X143081Y438515D01*
X143015Y438472D01*
X142956Y438419D01*
X142906Y438357D01*
X142867Y438288D01*
X142839Y438214D01*
X142823Y438137D01*
X142819Y438058D01*
X142827Y437979D01*
X142848Y437903D01*
X142880Y437830D01*
X142923Y437764D01*
X142976Y437705D01*
X143038Y437656D01*
X143107Y437616D01*
X143181Y437588D01*
X143258Y437572D01*
X143337Y437568D01*
X143416Y437576D01*
X143493Y437597D01*
X143564Y437630D01*
X143807Y437753D01*
X144062Y437850D01*
X144324Y437923D01*
X144592Y437972D01*
X144864Y437997D01*
X144994D01*
Y432003D01*
X144864D01*
X144592Y432028D01*
X144324Y432077D01*
X144062Y432150D01*
X143807Y432247D01*
X143563Y432367D01*
X143491Y432400D01*
X143415Y432421D01*
X143337Y432429D01*
X143259Y432425D01*
X143182Y432409D01*
X143108Y432381D01*
X143040Y432342D01*
X142979Y432293D01*
X142926Y432234D01*
X142883Y432168D01*
X142851Y432096D01*
X142830Y432020D01*
X142822Y431942D01*
X142826Y431864D01*
X142842Y431787D01*
X142870Y431713D01*
X142909Y431645D01*
X142958Y431584D01*
X143017Y431531D01*
X143083Y431489D01*
X143408Y431326D01*
X143604Y431251D01*
X143178Y431075D01*
X142642Y430746D01*
X142163Y430337D01*
X141754Y429858D01*
X141716Y429797D01*
Y432865D01*
X141786Y432839D01*
X141863Y432823D01*
X141942Y432819D01*
X142021Y432827D01*
X142097Y432848D01*
X142170Y432880D01*
X142236Y432923D01*
X142295Y432976D01*
X142344Y433038D01*
X142384Y433107D01*
X142412Y433181D01*
X142428Y433258D01*
X142432Y433337D01*
X142424Y433416D01*
X142403Y433493D01*
X142370Y433564D01*
X142247Y433807D01*
X142150Y434062D01*
X142077Y434324D01*
X142028Y434592D01*
X142003Y434864D01*
Y435136D01*
X142028Y435408D01*
X142077Y435676D01*
X142150Y435938D01*
X142247Y436193D01*
X142367Y436437D01*
X142400Y436509D01*
X142421Y436585D01*
X142429Y436663D01*
X142425Y436741D01*
X142409Y436818D01*
X142381Y436892D01*
X142342Y436960D01*
X142293Y437021D01*
X142234Y437074D01*
X142168Y437117D01*
X142096Y437149D01*
X142020Y437170D01*
X141942Y437178D01*
X141864Y437174D01*
X141787Y437158D01*
X141716Y437131D01*
Y440203D01*
G37*
G36*
Y447703D02*X141754Y447642D01*
X142163Y447163D01*
X142642Y446754D01*
X143178Y446425D01*
X143601Y446250D01*
X143178Y446075D01*
X142642Y445746D01*
X142163Y445337D01*
X141754Y444858D01*
X141716Y444797D01*
Y447703D01*
G37*
G36*
Y455203D02*X141754Y455142D01*
X142163Y454663D01*
X142642Y454254D01*
X143178Y453925D01*
X143601Y453750D01*
X143178Y453575D01*
X142642Y453246D01*
X142163Y452837D01*
X141754Y452358D01*
X141716Y452297D01*
Y455203D01*
G37*
G36*
Y470203D02*X141754Y470142D01*
X142163Y469663D01*
X142642Y469254D01*
X143178Y468925D01*
X143604Y468749D01*
X143408Y468674D01*
X143081Y468515D01*
X143015Y468472D01*
X142956Y468419D01*
X142906Y468357D01*
X142867Y468288D01*
X142839Y468214D01*
X142823Y468137D01*
X142819Y468058D01*
X142827Y467979D01*
X142848Y467903D01*
X142880Y467830D01*
X142923Y467764D01*
X142976Y467705D01*
X143038Y467656D01*
X143107Y467616D01*
X143181Y467588D01*
X143258Y467572D01*
X143337Y467568D01*
X143416Y467576D01*
X143493Y467597D01*
X143564Y467630D01*
X143807Y467753D01*
X144062Y467850D01*
X144324Y467923D01*
X144592Y467972D01*
X144864Y467997D01*
X144994D01*
Y462003D01*
X144864D01*
X144592Y462028D01*
X144324Y462077D01*
X144062Y462150D01*
X143807Y462247D01*
X143563Y462367D01*
X143491Y462400D01*
X143415Y462421D01*
X143337Y462429D01*
X143259Y462425D01*
X143182Y462409D01*
X143108Y462381D01*
X143040Y462342D01*
X142979Y462293D01*
X142926Y462234D01*
X142883Y462168D01*
X142851Y462096D01*
X142830Y462020D01*
X142822Y461942D01*
X142826Y461864D01*
X142842Y461787D01*
X142870Y461713D01*
X142909Y461645D01*
X142958Y461584D01*
X143017Y461531D01*
X143083Y461489D01*
X143408Y461326D01*
X143604Y461251D01*
X143178Y461075D01*
X142642Y460746D01*
X142163Y460337D01*
X141754Y459858D01*
X141716Y459797D01*
Y462865D01*
X141786Y462839D01*
X141863Y462823D01*
X141942Y462819D01*
X142021Y462827D01*
X142097Y462848D01*
X142170Y462880D01*
X142236Y462923D01*
X142295Y462976D01*
X142344Y463038D01*
X142384Y463107D01*
X142412Y463181D01*
X142428Y463258D01*
X142432Y463337D01*
X142424Y463416D01*
X142403Y463493D01*
X142370Y463564D01*
X142247Y463807D01*
X142150Y464062D01*
X142077Y464324D01*
X142028Y464592D01*
X142003Y464864D01*
Y465136D01*
X142028Y465408D01*
X142077Y465676D01*
X142150Y465938D01*
X142247Y466193D01*
X142367Y466437D01*
X142400Y466509D01*
X142421Y466585D01*
X142429Y466663D01*
X142425Y466741D01*
X142409Y466818D01*
X142381Y466892D01*
X142342Y466960D01*
X142293Y467021D01*
X142234Y467074D01*
X142168Y467117D01*
X142096Y467149D01*
X142020Y467170D01*
X141942Y467178D01*
X141864Y467174D01*
X141787Y467158D01*
X141716Y467131D01*
Y470203D01*
G37*
G36*
Y477703D02*X141754Y477642D01*
X142163Y477163D01*
X142642Y476754D01*
X143178Y476425D01*
X143601Y476250D01*
X143178Y476075D01*
X142642Y475746D01*
X142163Y475337D01*
X141754Y474858D01*
X141716Y474797D01*
Y477703D01*
G37*
G36*
Y484216D02*X144994Y487494D01*
Y484012D01*
X144372Y483963D01*
X143760Y483816D01*
X143178Y483575D01*
X142642Y483246D01*
X142163Y482837D01*
X141754Y482358D01*
X141716Y482297D01*
Y484216D01*
G37*
G36*
X144994Y402506D02*X141716Y405784D01*
Y410203D01*
X141754Y410142D01*
X142163Y409663D01*
X142642Y409254D01*
X143178Y408925D01*
X143760Y408684D01*
X144372Y408537D01*
X144994Y408488D01*
Y402506D01*
G37*
G36*
X141716Y405784D02*X140000Y407500D01*
Y482500D01*
X141716Y484216D01*
Y482297D01*
X141425Y481822D01*
X141184Y481240D01*
X141037Y480628D01*
X140988Y480000D01*
X141037Y479372D01*
X141184Y478760D01*
X141425Y478178D01*
X141716Y477703D01*
Y474797D01*
X141425Y474322D01*
X141184Y473740D01*
X141037Y473128D01*
X140988Y472500D01*
X141037Y471872D01*
X141184Y471260D01*
X141425Y470678D01*
X141716Y470203D01*
Y467131D01*
X141713Y467130D01*
X141645Y467091D01*
X141584Y467042D01*
X141531Y466983D01*
X141489Y466917D01*
X141326Y466592D01*
X141197Y466252D01*
X141099Y465902D01*
X141033Y465544D01*
X141000Y465182D01*
Y464818D01*
X141033Y464456D01*
X141099Y464098D01*
X141197Y463748D01*
X141326Y463408D01*
X141485Y463081D01*
X141528Y463015D01*
X141581Y462956D01*
X141643Y462906D01*
X141712Y462867D01*
X141716Y462865D01*
Y459797D01*
X141425Y459322D01*
X141184Y458740D01*
X141037Y458128D01*
X140988Y457500D01*
X141037Y456872D01*
X141184Y456260D01*
X141425Y455678D01*
X141716Y455203D01*
Y452297D01*
X141425Y451822D01*
X141184Y451240D01*
X141037Y450628D01*
X140988Y450000D01*
X141037Y449372D01*
X141184Y448760D01*
X141425Y448178D01*
X141716Y447703D01*
Y444797D01*
X141425Y444322D01*
X141184Y443740D01*
X141037Y443128D01*
X140988Y442500D01*
X141037Y441872D01*
X141184Y441260D01*
X141425Y440678D01*
X141716Y440203D01*
Y437131D01*
X141713Y437130D01*
X141645Y437091D01*
X141584Y437042D01*
X141531Y436983D01*
X141489Y436917D01*
X141326Y436592D01*
X141197Y436252D01*
X141099Y435902D01*
X141033Y435544D01*
X141000Y435182D01*
Y434818D01*
X141033Y434456D01*
X141099Y434098D01*
X141197Y433748D01*
X141326Y433408D01*
X141485Y433081D01*
X141528Y433015D01*
X141581Y432956D01*
X141643Y432906D01*
X141712Y432867D01*
X141716Y432865D01*
Y429797D01*
X141425Y429322D01*
X141184Y428740D01*
X141037Y428128D01*
X140988Y427500D01*
X141037Y426872D01*
X141184Y426260D01*
X141425Y425678D01*
X141716Y425203D01*
Y422297D01*
X141425Y421822D01*
X141184Y421240D01*
X141037Y420628D01*
X140988Y420000D01*
X141037Y419372D01*
X141184Y418760D01*
X141425Y418178D01*
X141716Y417703D01*
Y414797D01*
X141425Y414322D01*
X141184Y413740D01*
X141037Y413128D01*
X140988Y412500D01*
X141037Y411872D01*
X141184Y411260D01*
X141425Y410678D01*
X141716Y410203D01*
Y405784D01*
G37*
G54D28*X145000Y480000D03*
Y472500D03*
Y465000D03*
Y457500D03*
Y450000D03*
G54D27*G36*
X190000Y413000D02*Y407000D01*
X196000D01*
Y413000D01*
X190000D01*
G37*
G36*
X152000D02*Y407000D01*
X158000D01*
Y413000D01*
X152000D01*
G37*
G54D28*X145000Y442500D03*
Y435000D03*
Y427500D03*
Y420000D03*
Y412500D03*
X184010Y450753D03*
G54D29*X181000Y440000D03*
X162500Y475000D03*
G54D30*X167000D03*
G54D29*X156000Y451500D03*
G54D30*Y444000D03*
X153000Y455000D03*
G54D29*X162000Y457000D03*
G54D30*X159000Y461000D03*
G54D29*X183000Y475000D03*
X173500Y463500D03*
G54D30*X180000Y472000D03*
X176000Y472500D03*
X173000Y475000D03*
X171500Y470500D03*
X185500Y461500D03*
G54D28*X192000Y458000D03*
G54D30*X189500Y481500D03*
G54D29*X195000Y474500D03*
X161000Y425000D03*
X153000Y424000D03*
X174000Y437000D03*
X162937Y436144D03*
G54D30*X157000Y437000D03*
G54D29*X176000Y410000D03*
Y418000D03*
X186000Y428000D03*
X187500Y418500D03*
G54D30*X165500Y421500D03*
X168000Y418000D03*
G54D31*G54D32*G54D33*G54D32*G54D33*G54D32*G54D33*G54D32*G54D33*G54D31*G54D33*G54D32*G54D33*G54D32*G54D33*G54D31*G54D34*G54D31*M02*
