G04 start of page 8 for group -4079 idx -4079 *
G04 Title: remote-board, topsilk *
G04 Creator: pcb 20140316 *
G04 CreationDate: Fri 18 Apr 2014 07:05:31 PM GMT UTC *
G04 For: ben *
G04 Format: Gerber/RS-274X *
G04 PCB-Dimensions (mil): 6000.00 5000.00 *
G04 PCB-Coordinate-Origin: lower left *
%MOIN*%
%FSLAX25Y25*%
%LNTOPSILK*%
%ADD61C,0.0080*%
%ADD60C,0.0060*%
%ADD59C,0.0100*%
G54D59*X151500Y428000D02*X155000D01*
G54D60*X189675Y453431D02*Y443569D01*
X185325D02*X189675D01*
X185325Y453431D02*Y443569D01*
Y453431D02*X189675D01*
G54D59*X190000Y422000D02*X199500D01*
X190000Y471500D02*X199500D01*
X190000D02*Y422000D01*
X199500Y471500D02*Y422000D01*
G54D60*X185569Y486175D02*X195431D01*
Y481825D01*
X185569D02*X195431D01*
X185569Y486175D02*Y481825D01*
G54D59*X198000Y482500D02*Y472500D01*
X208000D01*
Y482500D01*
X198000D01*
Y472500D02*X208000D01*
Y482500D01*
X198500Y421500D02*Y411500D01*
X208500D01*
Y421500D01*
X198500D01*
Y411500D02*X208500D01*
Y421500D01*
X162500Y470400D02*Y456500D01*
X150700Y470400D02*X162500D01*
X150700D02*Y456500D01*
X162500D01*
G54D60*X157825Y486931D02*Y477069D01*
Y486931D02*X162175D01*
Y477069D01*
X157825D02*X162175D01*
G54D59*X141000Y476500D02*X149000D01*
Y484500D02*Y408500D01*
X141000Y484500D02*X149000D01*
X141000D02*Y408500D01*
X149000D01*
X161846Y436390D02*Y419610D01*
X152154D02*X161846D01*
X152154Y436390D02*Y419610D01*
Y436390D02*X161846D01*
X156091Y428000D02*X152154Y424063D01*
X156091Y428000D02*X152154Y431937D01*
G54D60*X167825Y486931D02*Y477069D01*
Y486931D02*X172175D01*
Y477069D01*
X167825D02*X172175D01*
X172825Y486931D02*Y477069D01*
Y486931D02*X177175D01*
Y477069D01*
X172825D02*X177175D01*
X183825Y471883D02*Y462022D01*
Y471883D02*X188175D01*
Y462022D01*
X183825D02*X188175D01*
X162825Y486931D02*Y477069D01*
Y486931D02*X167175D01*
Y477069D01*
X162825D02*X167175D01*
X177825Y486931D02*Y477069D01*
Y486931D02*X182175D01*
Y477069D01*
X177825D02*X182175D01*
G54D59*X184654Y449317D02*Y435683D01*
X163346D02*X184654D01*
X163346Y440000D02*Y435683D01*
Y449317D02*Y445000D01*
Y449317D02*X184654D01*
X163346Y440000D02*G75*G03X163346Y445000I0J2500D01*G01*
G54D61*X153000Y417874D02*Y414374D01*
X153500Y413874D01*
X154500D01*
X155000Y414374D01*
Y417874D02*Y414374D01*
X156200Y417374D02*X156700Y417874D01*
X157700D01*
X158200Y417374D01*
X157700Y413874D02*X158200Y414374D01*
X156700Y413874D02*X157700D01*
X156200Y414374D02*X156700Y413874D01*
Y416074D02*X157700D01*
X158200Y417374D02*Y416574D01*
Y415574D02*Y414374D01*
Y415574D02*X157700Y416074D01*
X158200Y416574D02*X157700Y416074D01*
X156000Y448874D02*Y445374D01*
X156500Y444874D01*
X157500D01*
X158000Y445374D01*
Y448874D02*Y445374D01*
X159200Y448374D02*X159700Y448874D01*
X161200D01*
X161700Y448374D01*
Y447374D01*
X159200Y444874D02*X161700Y447374D01*
X159200Y444874D02*X161700D01*
X150150Y452461D02*Y451460D01*
X150689Y453000D02*X150150Y452461D01*
X150689Y453000D02*X152691D01*
X153230Y452461D01*
Y451460D01*
X150535Y450536D02*X152845D01*
X153230Y450151D01*
Y449381D01*
X152845Y448996D01*
X150535D02*X152845D01*
X150150Y449381D02*X150535Y448996D01*
X150150Y450151D02*Y449381D01*
X150535Y450536D02*X150150Y450151D01*
Y448072D02*X153230D01*
X150150Y446147D01*
X153230D01*
X150150Y445223D02*X153230D01*
X150150Y443298D01*
X153230D01*
X164500Y466500D02*Y463000D01*
X165000Y462500D01*
X166000D01*
X166500Y463000D01*
Y466500D02*Y463000D01*
X167700Y465700D02*X168500Y466500D01*
Y462500D01*
X167700D02*X169200D01*
X168674Y476000D02*X170834D01*
X168674D02*Y474920D01*
X169862Y474272D02*Y473462D01*
X168674Y474272D02*Y473192D01*
Y474272D02*X170834D01*
Y473192D01*
X168674Y472274D02*X170834D01*
Y471572D02*X170456Y471194D01*
X169052D02*X170456D01*
X168674Y471572D02*X169052Y471194D01*
X168674Y472544D02*Y471572D01*
X170834Y472544D02*Y471572D01*
X170402Y470546D02*X170834Y470114D01*
X168674D02*X170834D01*
X168674Y470546D02*Y469736D01*
X163724Y476000D02*X165844D01*
X163724D02*Y474940D01*
X164890Y474304D02*Y473509D01*
X163724Y474304D02*Y473244D01*
Y474304D02*X165844D01*
Y473244D01*
X163724Y472343D02*X165844D01*
Y471654D02*X165473Y471283D01*
X164095D02*X165473D01*
X163724Y471654D02*X164095Y471283D01*
X163724Y472608D02*Y471654D01*
X165844Y472608D02*Y471654D01*
X163989Y470647D02*X163724Y470382D01*
X163989Y470647D02*X165579D01*
X165844Y470382D01*
Y469852D01*
X165579Y469587D01*
X163989D02*X165579D01*
X163724Y469852D02*X163989Y469587D01*
X163724Y470382D02*Y469852D01*
X164254Y470647D02*X165314Y469587D01*
X156000Y475854D02*Y473774D01*
X157040D01*
X157664Y474918D02*X158444D01*
X157664Y473774D02*X158704D01*
X157664Y475854D02*Y473774D01*
Y475854D02*X158704D01*
X159588D02*Y473774D01*
X160264Y475854D02*X160628Y475490D01*
Y474138D01*
X160264Y473774D02*X160628Y474138D01*
X159328Y473774D02*X160264D01*
X159328Y475854D02*X160264D01*
X161252D02*X162292D01*
X161252D02*Y474814D01*
X161512Y475074D01*
X162032D01*
X162292Y474814D01*
Y474034D01*
X162032Y473774D02*X162292Y474034D01*
X161512Y473774D02*X162032D01*
X161252Y474034D02*X161512Y473774D01*
X185039Y454524D02*X186040D01*
X184500Y455063D02*X185039Y454524D01*
X184500Y457065D02*Y455063D01*
Y457065D02*X185039Y457604D01*
X186040D01*
X186964Y455679D02*X188504Y457604D01*
X186964Y455679D02*X188889D01*
X188504Y457604D02*Y454524D01*
X203844Y470500D02*Y469345D01*
X202150Y470500D02*Y468960D01*
Y470500D02*X205230D01*
Y468960D01*
X202150Y467497D02*Y466496D01*
X202689Y468036D02*X202150Y467497D01*
X202689Y468036D02*X204691D01*
X205230Y467497D01*
Y466496D01*
X202150Y465187D02*X205230D01*
Y465572D02*Y464032D01*
X204845Y463647D01*
X204075D02*X204845D01*
X203690Y464032D02*X204075Y463647D01*
X203690Y465187D02*Y464032D01*
X188000Y480334D02*X189080D01*
X189350Y480064D01*
Y479524D01*
X189080Y479254D02*X189350Y479524D01*
X188270Y479254D02*X189080D01*
X188270Y480334D02*Y478174D01*
X188702Y479254D02*X189350Y478174D01*
X189998Y480064D02*X190268Y480334D01*
X191078D01*
X191348Y480064D01*
Y479524D01*
X189998Y478174D02*X191348Y479524D01*
X189998Y478174D02*X191348D01*
X174224Y476000D02*X176344D01*
X174224D02*Y474940D01*
X175390Y474304D02*Y473509D01*
X174224Y474304D02*Y473244D01*
Y474304D02*X176344D01*
Y473244D01*
X174224Y472343D02*X176344D01*
Y471654D02*X175973Y471283D01*
X174595D02*X175973D01*
X174224Y471654D02*X174595Y471283D01*
X174224Y472608D02*Y471654D01*
X176344Y472608D02*Y471654D01*
X176079Y470647D02*X176344Y470382D01*
Y469587D01*
X176079Y469322D01*
X175549D02*X176079D01*
X174224Y470647D02*X175549Y469322D01*
X174224Y470647D02*Y469322D01*
X176047Y467334D02*Y465174D01*
X177127D01*
X177775Y466362D02*X178585D01*
X177775Y465174D02*X178855D01*
X177775Y467334D02*Y465174D01*
Y467334D02*X178855D01*
X179773D02*Y465174D01*
X180475Y467334D02*X180853Y466956D01*
Y465552D01*
X180475Y465174D02*X180853Y465552D01*
X179503Y465174D02*X180475D01*
X179503Y467334D02*X180475D01*
X181501Y465984D02*X182581Y467334D01*
X181501Y465984D02*X182851D01*
X182581Y467334D02*Y465174D01*
X179274Y476000D02*X181354D01*
X179274D02*Y474960D01*
X180418Y474336D02*Y473556D01*
X179274Y474336D02*Y473296D01*
Y474336D02*X181354D01*
Y473296D01*
X179274Y472412D02*X181354D01*
Y471736D02*X180990Y471372D01*
X179638D02*X180990D01*
X179274Y471736D02*X179638Y471372D01*
X179274Y472672D02*Y471736D01*
X181354Y472672D02*Y471736D01*
X181094Y470748D02*X181354Y470488D01*
Y469968D01*
X181094Y469708D01*
X179274Y469968D02*X179534Y469708D01*
X179274Y470488D02*Y469968D01*
X179534Y470748D02*X179274Y470488D01*
X180418D02*Y469968D01*
X180678Y469708D02*X181094D01*
X179534D02*X180158D01*
X180418Y469968D01*
X180678Y469708D02*X180418Y469968D01*
X197500Y458500D02*Y456500D01*
X197000Y456000D01*
X196000D02*X197000D01*
X195500Y456500D02*X196000Y456000D01*
X195500Y458000D02*Y456500D01*
X193500Y458000D02*X197500D01*
X195500Y457200D02*X193500Y456000D01*
X195700Y454800D02*Y453300D01*
X193500Y454800D02*Y452800D01*
Y454800D02*X197500D01*
Y452800D01*
X195700Y451600D02*Y450100D01*
X193500Y451600D02*Y449600D01*
Y451600D02*X197500D01*
Y449600D01*
X193500Y447900D02*X197500D01*
Y446600D02*X196800Y445900D01*
X194200D02*X196800D01*
X193500Y446600D02*X194200Y445900D01*
X193500Y448400D02*Y446600D01*
X197500Y448400D02*Y446600D01*
X193500Y444700D02*Y442700D01*
X197500Y439500D02*X197000Y439000D01*
X197500Y441000D02*Y439500D01*
X197000Y441500D02*X197500Y441000D01*
X196000Y441500D02*X197000D01*
X196000D02*X195500Y441000D01*
Y439500D01*
X195000Y439000D01*
X194000D02*X195000D01*
X193500Y439500D02*X194000Y439000D01*
X193500Y441000D02*Y439500D01*
X194000Y441500D02*X193500Y441000D01*
X195500Y437800D02*X197500D01*
X195500D02*X193500Y437300D01*
X195500Y436300D01*
X193500Y435300D01*
X195500Y434800D01*
X197500D01*
X204344Y431500D02*Y430345D01*
X202650Y431500D02*Y429960D01*
Y431500D02*X205730D01*
Y429960D01*
X202650Y428497D02*Y427496D01*
X203189Y429036D02*X202650Y428497D01*
X203189Y429036D02*X205191D01*
X205730Y428497D01*
Y427496D01*
X202650Y426572D02*X205730D01*
X204190Y425417D01*
X205730Y424262D01*
X202650D02*X205730D01*
M02*
