G04 start of page 2 for group 0 idx 0 *
G04 Title: remote-board, top *
G04 Creator: pcb 20140316 *
G04 CreationDate: Fri 18 Apr 2014 06:34:43 PM GMT UTC *
G04 For: ben *
G04 Format: Gerber/RS-274X *
G04 PCB-Dimensions (mil): 6000.00 5000.00 *
G04 PCB-Coordinate-Origin: lower left *
%MOIN*%
%FSLAX25Y25*%
%LNTOP*%
%ADD26C,0.0380*%
%ADD25C,0.0130*%
%ADD24C,0.0350*%
%ADD23C,0.0200*%
%ADD22C,0.0300*%
%ADD21C,0.0360*%
%ADD20R,0.0240X0.0240*%
%ADD19R,0.0276X0.0276*%
%ADD18R,0.0400X0.0400*%
%ADD17R,0.0354X0.0354*%
%ADD16R,0.0157X0.0157*%
%ADD15C,0.0600*%
%ADD14C,0.0001*%
%ADD13C,0.0150*%
%ADD12C,0.0250*%
%ADD11C,0.0100*%
G54D11*X171539Y460461D02*X170000Y462000D01*
G54D12*X176461Y455738D02*X186262D01*
G54D11*X171539Y460461D02*Y455738D01*
G54D12*X176461Y464461D02*Y450461D01*
X175421Y465500D02*X176461Y464461D01*
G54D11*X185500Y461500D02*Y463500D01*
X186000Y464000D01*
X200000Y463000D02*Y464000D01*
G54D12*X187000Y455000D02*X191000Y459000D01*
Y472500D01*
G54D11*X200000Y464000D02*X210000Y474000D01*
G54D12*X166000Y484559D02*X184441D01*
X184059D02*X185941D01*
X186000D02*X186988D01*
X187547Y484000D01*
G54D11*X188000Y483547D02*X187274Y484274D01*
X186000Y474000D02*X188000Y476000D01*
Y483547D01*
X160500Y467000D02*Y468500D01*
Y469000D02*Y467000D01*
X152700Y467500D02*X155700D01*
X160500Y469000D02*X158500Y471000D01*
X156500D01*
G54D12*X157250Y474750D02*X160750D01*
G54D11*X151500Y473500D02*X154000D01*
G54D12*X157000Y475000D02*X152000Y480000D01*
G54D11*X157000Y481000D02*X158047D01*
X160000Y479047D01*
X156500Y471000D02*X154000Y473500D01*
X145000Y472500D02*X143000D01*
X139000Y476500D01*
G54D12*X145000Y480000D02*X152000D01*
G54D11*X139000Y476500D02*Y481500D01*
X145500Y488000D01*
G54D12*X165441Y484559D02*X160106D01*
X160000Y484453D01*
G54D11*X206000Y488000D02*X145500D01*
X170000Y462000D02*X161000D01*
X160500Y461500D02*X161000Y462000D01*
X160500Y461500D02*Y455738D01*
X160400Y455700D02*X160500Y455800D01*
X156600Y459300D02*Y466600D01*
X155700Y467500D02*X156600Y466600D01*
X154000Y454500D02*X155200Y455700D01*
X160400D02*X155200D01*
X149500Y456100D02*X152700Y459300D01*
X145000Y457500D02*Y457000D01*
Y465000D02*X150200D01*
X152700Y467500D01*
X165300Y478247D02*Y475700D01*
X168500Y472500D01*
X170500Y478247D02*Y476500D01*
X172500Y474500D01*
X175500Y476500D02*X177500Y474500D01*
Y471000D01*
X175500Y478241D02*Y476500D01*
X180500Y478241D02*Y476000D01*
X182000Y474500D01*
X186000Y469906D02*Y474000D01*
X172500Y474500D02*Y470000D01*
G54D12*X160750Y474750D02*X170000Y465500D01*
X175421D01*
X175000Y419953D02*Y420000D01*
G54D11*X168000D01*
G54D12*X186000Y422000D02*X177047D01*
G54D11*X191000Y409000D02*X148500D01*
X141500Y406500D02*X204500D01*
X203500Y417500D02*X197000Y424000D01*
X192000D01*
X186000Y418000D01*
G54D12*X177047Y422000D02*X175000Y419953D01*
G54D11*X149500Y418500D02*Y423000D01*
Y418500D02*X153000Y415000D01*
X157000Y424063D02*Y421000D01*
X156000Y417000D02*X154378Y418622D01*
Y424000D01*
X167000Y414000D02*X166000Y415000D01*
X153000D02*X166000D01*
X168000Y420000D02*X165000Y417000D01*
X157000Y421000D02*X159000Y419000D01*
X163000D01*
X165000Y417000D02*X156000D01*
X163000Y419000D02*X166500Y422500D01*
X153000Y424000D02*X154378D01*
X154441Y424063D01*
X166500Y422500D02*Y429144D01*
X166618Y429262D01*
X148000Y448000D02*X158000D01*
X162200Y451500D02*X157000D01*
X155500Y450000D01*
X151500D01*
X161500Y450500D02*X161550Y450450D01*
X151500Y450000D02*X149500Y452000D01*
Y456100D01*
X145000Y442500D02*X145500D01*
X139500Y452000D02*X145000Y457500D01*
Y450000D02*X146000D01*
X148000Y448000D01*
X162200Y451500D02*X162500Y451200D01*
G54D12*Y449600D01*
X164100Y448000D01*
X176461Y450461D02*X174000Y448000D01*
X186262Y455738D02*X193000Y449000D01*
X187500Y451453D02*Y454500D01*
X187000Y455000D01*
G54D13*X187500Y445547D02*Y443000D01*
G54D12*X174000Y448000D02*X164100D01*
G54D11*X149500Y423000D02*X145000Y427500D01*
X139500Y409000D02*Y452000D01*
Y408500D02*X141500Y406500D01*
X148500Y409000D02*X145000Y412500D01*
X139500Y409500D02*Y408500D01*
X145500Y442500D02*X154441Y433559D01*
X158000Y448000D02*Y443000D01*
X191000Y409000D02*X195000Y413000D01*
Y417500D01*
X204500Y406500D02*X209000Y411000D01*
X203500Y416500D02*Y417500D01*
X209000Y411000D02*Y420000D01*
X199000Y430000D02*X209000Y420000D01*
G54D12*X171539Y426262D02*Y435539D01*
X174000Y438000D01*
X176461Y426262D02*Y435539D01*
X174000Y438000D01*
G54D11*X166500Y429000D02*Y434500D01*
X165000Y436000D01*
X154441Y431937D02*Y433559D01*
X166500Y434500D02*X158000Y443000D01*
G54D12*X193000Y436000D02*Y449000D01*
Y436000D02*X186000Y429000D01*
Y422000D01*
G54D11*X197000Y430000D02*X199000D01*
X208016Y485984D02*X210000Y484000D01*
Y474000D01*
X206000Y488000D02*X210000Y484000D01*
G54D12*X195000Y480500D02*Y481953D01*
Y482000D02*Y482453D01*
X193453Y484000D01*
X191000Y472500D02*X195000Y476500D01*
G54D14*G36*
X200500Y419500D02*Y413500D01*
X206500D01*
Y419500D01*
X200500D01*
G37*
G36*
X200000Y480500D02*Y474500D01*
X206000D01*
Y480500D01*
X200000D01*
G37*
G54D15*X145000Y480000D03*
Y472500D03*
Y465000D03*
Y457500D03*
Y450000D03*
Y442500D03*
Y435000D03*
Y427500D03*
Y420000D03*
Y412500D03*
G54D16*X154441Y426228D02*Y421898D01*
X157000Y426228D02*Y421898D01*
X159559Y426228D02*Y421898D01*
Y434102D02*Y429772D01*
X157000Y434102D02*Y429772D01*
X154441Y434102D02*Y429772D01*
G54D17*X166618Y432411D02*Y426112D01*
X181382Y458888D02*Y452589D01*
X176461Y458888D02*Y452589D01*
X171539Y458888D02*Y452589D01*
Y432411D02*Y426112D01*
X176461Y432411D02*Y426112D01*
X181382Y432411D02*Y426112D01*
G54D18*X195000Y419500D02*Y415500D01*
G54D19*X187303Y445547D02*X187697D01*
X187303Y451453D02*X187697D01*
X169803Y484953D02*X170197D01*
X174803D02*X175197D01*
X174803Y479047D02*X175197D01*
X193453Y484197D02*Y483803D01*
G54D18*X195000Y478500D02*Y474500D01*
G54D19*X187547Y484197D02*Y483803D01*
X179803Y484953D02*X180197D01*
X179803Y479047D02*X180197D01*
G54D20*X160500Y468300D02*Y466700D01*
X152700Y468300D02*Y466700D01*
Y460100D02*Y458500D01*
X156600Y460100D02*Y458500D01*
X160500Y460100D02*Y458500D01*
G54D19*X159803Y484953D02*X160197D01*
X159803Y479047D02*X160197D01*
X169803D02*X170197D01*
X164803Y484953D02*X165197D01*
X164803Y479047D02*X165197D01*
G54D20*X156600Y468300D02*Y466700D01*
G54D19*X185803Y469906D02*X186197D01*
X185803Y464000D02*X186197D01*
G54D17*X166618Y458888D02*Y452589D01*
G54D21*X161000Y425000D03*
X153000Y424000D03*
X175000Y419953D03*
X186000Y418000D03*
X167000Y414000D03*
G54D15*X174000Y438000D03*
X193000Y436000D03*
G54D21*X197000Y430000D03*
X187500Y443000D03*
X185000Y480000D03*
G54D22*X177500Y471000D03*
X172500Y470000D03*
X168500Y472500D03*
X182000Y474500D03*
G54D21*X161000Y462000D03*
X162200Y451500D03*
X158000Y448000D03*
X154000Y454500D03*
X151500Y473500D03*
X157000Y481000D03*
G54D22*X185500Y461500D03*
G54D21*X200000Y463000D03*
G54D23*G54D24*G54D23*G54D25*G54D23*G54D25*G54D23*G54D26*G54D24*M02*
