G04 start of page 8 for group -4079 idx -4079 *
G04 Title: remote-board, topsilk *
G04 Creator: pcb 20140316 *
G04 CreationDate: Fri 11 Apr 2014 05:27:53 AM GMT UTC *
G04 For: ben *
G04 Format: Gerber/RS-274X *
G04 PCB-Dimensions (mil): 6000.00 5000.00 *
G04 PCB-Coordinate-Origin: lower left *
%MOIN*%
%FSLAX25Y25*%
%LNTOPSILK*%
%ADD58C,0.0080*%
%ADD57C,0.0060*%
%ADD56C,0.0100*%
G54D56*X151500Y428000D02*X155000D01*
X198000Y482500D02*Y472500D01*
X208000D01*
Y482500D01*
X198000D01*
Y472500D02*X208000D01*
Y482500D01*
X198500Y421500D02*Y411500D01*
X208500D01*
Y421500D01*
X198500D01*
Y411500D02*X208500D01*
Y421500D01*
X190000Y422000D02*X199500D01*
X190000Y471500D02*X199500D01*
X190000D02*Y422000D01*
X199500Y471500D02*Y422000D01*
G54D57*X172825Y486931D02*Y477069D01*
Y486931D02*X177175D01*
Y477069D01*
X172825D02*X177175D01*
X185569Y486175D02*X195431D01*
Y481825D01*
X185569D02*X195431D01*
X185569Y486175D02*Y481825D01*
X177825Y486931D02*Y477069D01*
Y486931D02*X182175D01*
Y477069D01*
X177825D02*X182175D01*
X183825Y471883D02*Y462022D01*
Y471883D02*X188175D01*
Y462022D01*
X183825D02*X188175D01*
X189675Y453431D02*Y443569D01*
X185325D02*X189675D01*
X185325Y453431D02*Y443569D01*
Y453431D02*X189675D01*
G54D56*X161846Y436390D02*Y419610D01*
X152154D02*X161846D01*
X152154Y436390D02*Y419610D01*
Y436390D02*X161846D01*
X156091Y428000D02*X152154Y424063D01*
X156091Y428000D02*X152154Y431937D01*
X184654Y449317D02*Y435683D01*
X163346D02*X184654D01*
X163346Y440000D02*Y435683D01*
Y449317D02*Y445000D01*
Y449317D02*X184654D01*
X163346Y440000D02*G75*G03X163346Y445000I0J2500D01*G01*
G54D57*X181569Y415825D02*X191431D01*
X181569D02*Y420175D01*
X191431D01*
Y415825D02*Y420175D01*
G54D56*X141000Y476500D02*X149000D01*
Y484500D02*Y408500D01*
X141000Y484500D02*X149000D01*
X141000D02*Y408500D01*
X149000D01*
X162500Y470400D02*Y456500D01*
X150700Y470400D02*X162500D01*
X150700D02*Y456500D01*
X162500D01*
G54D57*X167825Y486931D02*Y477069D01*
Y486931D02*X172175D01*
Y477069D01*
X167825D02*X172175D01*
X162825Y486931D02*Y477069D01*
Y486931D02*X167175D01*
Y477069D01*
X162825D02*X167175D01*
X157825Y486931D02*Y477069D01*
Y486931D02*X162175D01*
Y477069D01*
X157825D02*X162175D01*
G54D58*X203844Y470500D02*Y469345D01*
X202150Y470500D02*Y468960D01*
Y470500D02*X205230D01*
Y468960D01*
X202150Y467497D02*Y466496D01*
X202689Y468036D02*X202150Y467497D01*
X202689Y468036D02*X204691D01*
X205230Y467497D01*
Y466496D01*
X202150Y465187D02*X205230D01*
Y465572D02*Y464032D01*
X204845Y463647D01*
X204075D02*X204845D01*
X203690Y464032D02*X204075Y463647D01*
X203690Y465187D02*Y464032D01*
X204344Y431500D02*Y430345D01*
X202650Y431500D02*Y429960D01*
Y431500D02*X205730D01*
Y429960D01*
X202650Y428497D02*Y427496D01*
X203189Y429036D02*X202650Y428497D01*
X203189Y429036D02*X205191D01*
X205730Y428497D01*
Y427496D01*
X202650Y426572D02*X205730D01*
X204190Y425417D01*
X205730Y424262D01*
X202650D02*X205730D01*
X197500Y458500D02*Y456500D01*
X197000Y456000D01*
X196000D02*X197000D01*
X195500Y456500D02*X196000Y456000D01*
X195500Y458000D02*Y456500D01*
X193500Y458000D02*X197500D01*
X195500Y457200D02*X193500Y456000D01*
X195700Y454800D02*Y453300D01*
X193500Y454800D02*Y452800D01*
Y454800D02*X197500D01*
Y452800D01*
X195700Y451600D02*Y450100D01*
X193500Y451600D02*Y449600D01*
Y451600D02*X197500D01*
Y449600D01*
X193500Y447900D02*X197500D01*
Y446600D02*X196800Y445900D01*
X194200D02*X196800D01*
X193500Y446600D02*X194200Y445900D01*
X193500Y448400D02*Y446600D01*
X197500Y448400D02*Y446600D01*
X193500Y444700D02*Y442700D01*
X197500Y439500D02*X197000Y439000D01*
X197500Y441000D02*Y439500D01*
X197000Y441500D02*X197500Y441000D01*
X196000Y441500D02*X197000D01*
X196000D02*X195500Y441000D01*
Y439500D01*
X195000Y439000D01*
X194000D02*X195000D01*
X193500Y439500D02*X194000Y439000D01*
X193500Y441000D02*Y439500D01*
X194000Y441500D02*X193500Y441000D01*
X195500Y437800D02*X197500D01*
X195500D02*X193500Y437300D01*
X195500Y436300D01*
X193500Y435300D01*
X195500Y434800D01*
X197500D01*
X164000Y420874D02*Y417374D01*
X164500Y416874D01*
X165500D01*
X166000Y417374D01*
Y420874D02*Y417374D01*
X167200Y420374D02*X167700Y420874D01*
X168700D01*
X169200Y420374D01*
X168700Y416874D02*X169200Y417374D01*
X167700Y416874D02*X168700D01*
X167200Y417374D02*X167700Y416874D01*
Y419074D02*X168700D01*
X169200Y420374D02*Y419574D01*
Y418574D02*Y417374D01*
Y418574D02*X168700Y419074D01*
X169200Y419574D02*X168700Y419074D01*
X181500Y425874D02*X183500D01*
X184000Y425374D01*
Y424374D01*
X183500Y423874D02*X184000Y424374D01*
X182000Y423874D02*X183500D01*
X182000Y425874D02*Y421874D01*
X182800Y423874D02*X184000Y421874D01*
X185200Y425074D02*X186000Y425874D01*
Y421874D01*
X185200D02*X186700D01*
X168674Y475000D02*X170834D01*
X168674D02*Y473920D01*
X169862Y473272D02*Y472462D01*
X168674Y473272D02*Y472192D01*
Y473272D02*X170834D01*
Y472192D01*
X168674Y471274D02*X170834D01*
Y470572D02*X170456Y470194D01*
X169052D02*X170456D01*
X168674Y470572D02*X169052Y470194D01*
X168674Y471544D02*Y470572D01*
X170834Y471544D02*Y470572D01*
X170402Y469546D02*X170834Y469114D01*
X168674D02*X170834D01*
X168674Y469546D02*Y468736D01*
X174224Y475000D02*X176344D01*
X174224D02*Y473940D01*
X175390Y473304D02*Y472509D01*
X174224Y473304D02*Y472244D01*
Y473304D02*X176344D01*
Y472244D01*
X174224Y471343D02*X176344D01*
Y470654D02*X175973Y470283D01*
X174595D02*X175973D01*
X174224Y470654D02*X174595Y470283D01*
X174224Y471608D02*Y470654D01*
X176344Y471608D02*Y470654D01*
X176079Y469647D02*X176344Y469382D01*
Y468587D01*
X176079Y468322D01*
X175549D02*X176079D01*
X174224Y469647D02*X175549Y468322D01*
X174224Y469647D02*Y468322D01*
X191000Y480334D02*X192080D01*
X192350Y480064D01*
Y479524D01*
X192080Y479254D02*X192350Y479524D01*
X191270Y479254D02*X192080D01*
X191270Y480334D02*Y478174D01*
X191702Y479254D02*X192350Y478174D01*
X192998Y480064D02*X193268Y480334D01*
X194078D01*
X194348Y480064D01*
Y479524D01*
X192998Y478174D02*X194348Y479524D01*
X192998Y478174D02*X194348D01*
X179274Y475500D02*X181354D01*
X179274D02*Y474460D01*
X180418Y473836D02*Y473056D01*
X179274Y473836D02*Y472796D01*
Y473836D02*X181354D01*
Y472796D01*
X179274Y471912D02*X181354D01*
Y471236D02*X180990Y470872D01*
X179638D02*X180990D01*
X179274Y471236D02*X179638Y470872D01*
X179274Y472172D02*Y471236D01*
X181354Y472172D02*Y471236D01*
X181094Y470248D02*X181354Y469988D01*
Y469468D01*
X181094Y469208D01*
X179274Y469468D02*X179534Y469208D01*
X179274Y469988D02*Y469468D01*
X179534Y470248D02*X179274Y469988D01*
X180418D02*Y469468D01*
X180678Y469208D02*X181094D01*
X179534D02*X180158D01*
X180418Y469468D01*
X180678Y469208D02*X180418Y469468D01*
X163724Y475000D02*X165844D01*
X163724D02*Y473940D01*
X164890Y473304D02*Y472509D01*
X163724Y473304D02*Y472244D01*
Y473304D02*X165844D01*
Y472244D01*
X163724Y471343D02*X165844D01*
Y470654D02*X165473Y470283D01*
X164095D02*X165473D01*
X163724Y470654D02*X164095Y470283D01*
X163724Y471608D02*Y470654D01*
X165844Y471608D02*Y470654D01*
X163989Y469647D02*X163724Y469382D01*
X163989Y469647D02*X165579D01*
X165844Y469382D01*
Y468852D01*
X165579Y468587D01*
X163989D02*X165579D01*
X163724Y468852D02*X163989Y468587D01*
X163724Y469382D02*Y468852D01*
X164254Y469647D02*X165314Y468587D01*
X156500Y475354D02*Y473274D01*
X157540D01*
X158164Y474418D02*X158944D01*
X158164Y473274D02*X159204D01*
X158164Y475354D02*Y473274D01*
Y475354D02*X159204D01*
X160088D02*Y473274D01*
X160764Y475354D02*X161128Y474990D01*
Y473638D01*
X160764Y473274D02*X161128Y473638D01*
X159828Y473274D02*X160764D01*
X159828Y475354D02*X160764D01*
X161752D02*X162792D01*
X161752D02*Y474314D01*
X162012Y474574D01*
X162532D01*
X162792Y474314D01*
Y473534D01*
X162532Y473274D02*X162792Y473534D01*
X162012Y473274D02*X162532D01*
X161752Y473534D02*X162012Y473274D01*
X150150Y452461D02*Y451460D01*
X150689Y453000D02*X150150Y452461D01*
X150689Y453000D02*X152691D01*
X153230Y452461D01*
Y451460D01*
X150535Y450536D02*X152845D01*
X153230Y450151D01*
Y449381D01*
X152845Y448996D01*
X150535D02*X152845D01*
X150150Y449381D02*X150535Y448996D01*
X150150Y450151D02*Y449381D01*
X150535Y450536D02*X150150Y450151D01*
Y448072D02*X153230D01*
X150150Y446147D01*
X153230D01*
X150150Y445223D02*X153230D01*
X150150Y443298D01*
X153230D01*
X156000Y448874D02*Y445374D01*
X156500Y444874D01*
X157500D01*
X158000Y445374D01*
Y448874D02*Y445374D01*
X159200Y448374D02*X159700Y448874D01*
X161200D01*
X161700Y448374D01*
Y447374D01*
X159200Y444874D02*X161700Y447374D01*
X159200Y444874D02*X161700D01*
X164500Y466500D02*Y463000D01*
X165000Y462500D01*
X166000D01*
X166500Y463000D01*
Y466500D02*Y463000D01*
X167700Y465700D02*X168500Y466500D01*
Y462500D01*
X167700D02*X169200D01*
X176047Y464834D02*Y462674D01*
X177127D01*
X177775Y463862D02*X178585D01*
X177775Y462674D02*X178855D01*
X177775Y464834D02*Y462674D01*
Y464834D02*X178855D01*
X179773D02*Y462674D01*
X180475Y464834D02*X180853Y464456D01*
Y463052D01*
X180475Y462674D02*X180853Y463052D01*
X179503Y462674D02*X180475D01*
X179503Y464834D02*X180475D01*
X181501Y463484D02*X182581Y464834D01*
X181501Y463484D02*X182851D01*
X182581Y464834D02*Y462674D01*
X185539Y455024D02*X186540D01*
X185000Y455563D02*X185539Y455024D01*
X185000Y457565D02*Y455563D01*
Y457565D02*X185539Y458104D01*
X186540D01*
X187464Y456179D02*X189004Y458104D01*
X187464Y456179D02*X189389D01*
X189004Y458104D02*Y455024D01*
M02*
