G04 start of page 2 for group 0 idx 0 *
G04 Title: (unknown), top *
G04 Creator: pcb 1.99z *
G04 CreationDate: Mon 31 Mar 2014 04:05:31 PM GMT UTC *
G04 For: ben *
G04 Format: Gerber/RS-274X *
G04 PCB-Dimensions (mil): 6000.00 5000.00 *
G04 PCB-Coordinate-Origin: lower left *
%MOIN*%
%FSLAX25Y25*%
%LNTOP*%
%ADD26C,0.0380*%
%ADD25C,0.0350*%
%ADD24C,0.0130*%
%ADD23C,0.0200*%
%ADD22C,0.0360*%
%ADD21R,0.0240X0.0240*%
%ADD20R,0.0157X0.0157*%
%ADD19R,0.0354X0.0354*%
%ADD18R,0.0276X0.0276*%
%ADD17R,0.0400X0.0400*%
%ADD16R,0.0295X0.0295*%
%ADD15C,0.0001*%
%ADD14C,0.0600*%
%ADD13C,0.0300*%
%ADD12C,0.0250*%
%ADD11C,0.0100*%
G54D11*X171000Y479441D02*Y477000D01*
G54D12*X166000Y484559D02*X184441D01*
G54D11*X171000Y477000D02*X173000Y475000D01*
X176000Y472500D02*Y479441D01*
X181000D02*Y479000D01*
X179500Y477500D01*
Y472500D01*
X180000Y472000D01*
X176059Y467941D02*X182823D01*
X186500Y478500D02*Y471618D01*
G54D12*X184441Y484559D02*X185000Y484000D01*
G54D11*X195000Y474500D02*Y480000D01*
X186500Y478500D02*X185000Y480000D01*
Y484000D01*
X190953D02*Y482953D01*
X189500Y481500D02*X190953Y482953D01*
X157000Y418000D02*X162000D01*
X166500Y422500D01*
X168000Y419000D02*X165000Y416000D01*
X152000D01*
G54D12*X171539Y426262D02*Y435539D01*
X174000Y438000D01*
X176461Y426262D02*Y435539D01*
X174000Y438000D01*
G54D11*X153000Y424000D02*X154378D01*
X154441Y424063D01*
X148000Y405000D02*X196000D01*
X198000Y407000D01*
Y418000D01*
X195000Y421000D01*
X171539Y449539D02*Y460461D01*
X170000Y462000D01*
X167000Y475000D02*X166000Y476000D01*
X171539Y449539D02*X169000Y447000D01*
X171500Y470500D02*Y468500D01*
X170941Y467941D01*
X164000Y462000D02*X163000Y461000D01*
X161000Y464500D02*X172500D01*
X173500Y463500D01*
X170000Y462000D02*X164000D01*
X163000Y461000D02*X159000D01*
X152800Y464500D02*X155500D01*
X159000Y461000D02*X155500Y464500D01*
X159000Y450000D02*X161000Y452000D01*
X152800Y468400D02*X161000D01*
X166500Y439500D02*X174000Y447000D01*
X166000Y476000D02*Y479441D01*
X161000Y468400D02*Y473500D01*
X162500Y475000D01*
X150600Y474500D02*X152800Y472300D01*
X152500Y472600D02*X152800Y472300D01*
X145000Y480000D02*X145100D01*
X150550Y474550D01*
X154441Y433559D02*X153000Y435000D01*
Y446000D01*
X154000Y447000D02*X153000Y446000D01*
X169000Y447000D02*X154000D01*
X145000Y442500D02*X152500D01*
X153000Y443000D01*
X145000Y450000D02*X159000D01*
X157000Y424063D02*Y418000D01*
X154441Y431937D02*Y433559D01*
X152000Y416000D02*X149500Y418500D01*
Y423000D01*
X145000Y427500D01*
Y420000D02*X155000Y410000D01*
X145000Y412500D02*Y408000D01*
X148000Y405000D01*
X166500Y422500D02*Y439500D01*
X186500Y471618D02*X183500Y468618D01*
X185500Y461500D02*X183500Y463500D01*
X182823Y467941D02*X183691Y468809D01*
G54D12*X176461Y455738D02*X186262D01*
X187000Y455000D01*
G54D13*Y451953D01*
Y446047D02*Y443000D01*
G54D14*X145000Y480000D03*
Y472500D03*
Y465000D03*
Y457500D03*
Y450000D03*
G54D15*G36*
X152000Y413000D02*Y407000D01*
X158000D01*
Y413000D01*
X152000D01*
G37*
G36*
X189000D02*Y407000D01*
X195000D01*
Y413000D01*
X189000D01*
G37*
G54D14*X145000Y442500D03*
Y435000D03*
Y427500D03*
Y420000D03*
Y412500D03*
G54D16*X175508Y484559D02*X176492D01*
X180508D02*X181492D01*
X175508Y479441D02*X176492D01*
X180508D02*X181492D01*
X176059Y468433D02*Y467449D01*
X170941Y468433D02*Y467449D01*
X170508Y484559D02*X171492D01*
X165508D02*X166492D01*
X165508Y479441D02*X166492D01*
X170508D02*X171492D01*
G54D17*X195000Y482000D02*Y478000D01*
G54D18*X190953Y484197D02*Y483803D01*
X185047Y484197D02*Y483803D01*
G54D19*X176461Y432411D02*Y426112D01*
G54D20*X154441Y426228D02*Y421898D01*
X157000Y426228D02*Y421898D01*
X159559Y426228D02*Y421898D01*
Y434102D02*Y429772D01*
X157000Y434102D02*Y429772D01*
X154441Y434102D02*Y429772D01*
G54D19*X166618Y432411D02*Y426112D01*
X171539Y432411D02*Y426112D01*
G54D16*X183008Y468618D02*X183992D01*
X183008Y463500D02*X183992D01*
G54D19*X181382Y458888D02*Y452589D01*
X176461Y458888D02*Y452589D01*
X171539Y458888D02*Y452589D01*
X166618Y458888D02*Y452589D01*
G54D18*X186803Y446047D02*X187197D01*
X186803Y451953D02*X187197D01*
G54D21*X160200Y464500D02*X161800D01*
X160200Y468400D02*X161800D01*
X160200Y472300D02*X161800D01*
X152000D02*X153600D01*
X152000Y468400D02*X153600D01*
X152000Y464500D02*X153600D01*
G54D17*X195000Y423000D02*Y419000D01*
G54D19*X181382Y432411D02*Y426112D01*
G54D22*X161000Y425000D03*
X153000Y424000D03*
X174000Y437000D03*
X162937Y436144D03*
G54D13*X185500Y461500D03*
G54D14*X187000Y443000D03*
Y455000D03*
G54D22*X186000Y428000D03*
X175000Y419953D03*
Y409000D03*
X161000Y452000D03*
X168000Y419000D03*
X174000Y447000D03*
X162500Y475000D03*
X183000D03*
G54D13*X173000D03*
X167000D03*
G54D22*X173500Y463500D03*
X162000Y457000D03*
G54D13*X159000Y461000D03*
X180000Y472000D03*
X189500Y481500D03*
G54D22*X195000Y474500D03*
G54D13*X176000Y472500D03*
X171500Y470500D03*
G54D23*G54D24*G54D25*G54D23*G54D24*G54D23*G54D24*G54D23*G54D24*G54D25*G54D26*G54D25*M02*
