G04 start of page 5 for group 3 idx 3 *
G04 Title: (unknown), signal3 *
G04 Creator: pcb 1.99z *
G04 CreationDate: Tue 11 Mar 2014 07:33:57 PM GMT UTC *
G04 For: ben *
G04 Format: Gerber/RS-274X *
G04 PCB-Dimensions (mil): 6000.00 5000.00 *
G04 PCB-Coordinate-Origin: lower left *
%MOIN*%
%FSLAX25Y25*%
%LNBOTTOM*%
%ADD57C,0.0380*%
%ADD56C,0.0130*%
%ADD55C,0.0200*%
%ADD54C,0.0350*%
%ADD53C,0.0300*%
%ADD52C,0.0360*%
%ADD51R,0.0276X0.0276*%
%ADD50R,0.0240X0.0240*%
%ADD49R,0.0130X0.0130*%
%ADD48C,0.0001*%
%ADD47C,0.0600*%
%ADD46C,0.0060*%
%ADD45C,0.0250*%
%ADD44C,0.0100*%
G54D44*X171500Y442500D02*X173000Y441000D01*
X175000D01*
X171500Y447450D02*Y442500D01*
X176500Y447450D02*Y444500D01*
X166500Y428550D02*Y432500D01*
X163000Y436000D01*
X171500Y422500D02*Y428550D01*
G54D45*X176000Y418000D02*X179441D01*
G54D44*X168000D02*X167500Y417500D01*
X169000Y412500D02*X171500Y415000D01*
Y430000D02*Y415000D01*
X175000Y441000D02*X180000Y436000D01*
X183000D01*
X176500Y444500D02*X181000Y440000D01*
X176500Y432500D02*X180000Y436000D01*
X181500Y428550D02*X185450D01*
X176500D02*Y432500D01*
X185450Y428550D02*X186000Y428000D01*
X183000Y436000D02*X197500Y421500D01*
G54D45*X185358Y418000D02*X187000D01*
X185000Y450000D02*X184000Y451000D01*
X181500Y447450D02*Y448500D01*
X184000Y451000D01*
G54D44*X193000Y410000D02*Y410500D01*
X197500Y415000D01*
Y421500D01*
X193000Y410000D02*X189800Y406800D01*
X171153D01*
X168953Y409000D01*
G54D45*X156000Y451500D02*Y450441D01*
X157441Y449000D01*
G54D44*X156000Y444000D02*X150000Y450000D01*
X157000Y437000D02*X154000D01*
X150000Y433000D01*
Y425000D01*
X160000Y420000D02*Y424000D01*
X153000D02*Y421094D01*
X154094Y420000D01*
X150000Y425000D02*X145000Y420000D01*
X160000Y424000D02*X161000Y425000D01*
X155000Y410000D02*X162047D01*
X163047Y409000D01*
Y410547D01*
X165000Y412500D01*
X169000D01*
X168000Y418000D02*X166000Y416000D01*
X148500D01*
X145000Y412500D01*
X164000Y480000D02*X168548D01*
X169162Y480614D01*
X170000Y476000D02*X168000D01*
X167000Y475000D01*
X164000Y476500D02*X162500Y475000D01*
X171721Y480614D02*Y477721D01*
Y480614D02*Y477721D01*
X181956Y476044D02*X183000Y475000D01*
X180000Y472000D02*Y473000D01*
X179397Y473603D01*
Y480614D01*
X176838D02*Y473338D01*
X176000Y472500D01*
X171721Y477721D02*X170000Y476000D01*
X173000Y475000D02*X174279Y476279D01*
Y480614D02*Y476279D01*
X164000Y482000D02*Y476500D01*
X181956Y480614D02*Y476044D01*
X179397Y457386D02*Y466603D01*
X178500Y467500D01*
X181956Y457386D02*Y457956D01*
X169162Y457386D02*Y461162D01*
X170000Y462000D01*
X171500Y463500D01*
X166603Y457386D02*Y461397D01*
X166000Y462000D01*
X163000D02*X166000D01*
X171500Y463500D02*X173500D01*
X181956Y457956D02*X185500Y461500D01*
X178500Y467500D02*X174500D01*
X171500Y470500D01*
G54D45*X166500Y447450D02*X164950Y449000D01*
X162559D01*
G54D44*X158000Y455000D02*X153000D01*
X150000Y450000D02*Y467500D01*
X145000Y472500D01*
X164044Y457386D02*Y456044D01*
X169162Y457386D02*Y453162D01*
X169000Y453000D01*
X164044Y456956D02*X162044D01*
X162000Y457000D01*
G54D46*X169000Y453000D02*X161500D01*
G54D44*X160000D01*
X158000Y455000D01*
X159000Y461000D02*X160000Y462000D01*
X164000D02*X160000D01*
G54D47*X145000Y480000D03*
Y472500D03*
Y465000D03*
Y457500D03*
Y450000D03*
G54D48*G36*
X190000Y413000D02*Y407000D01*
X196000D01*
Y413000D01*
X190000D01*
G37*
G36*
X152000D02*Y407000D01*
X158000D01*
Y413000D01*
X152000D01*
G37*
G54D47*X145000Y442500D03*
Y435000D03*
Y427500D03*
Y420000D03*
Y412500D03*
G54D49*X181956Y459689D02*Y455083D01*
X179397Y459689D02*Y455083D01*
X166603Y459689D02*Y455083D01*
X164044Y459689D02*Y455083D01*
G54D50*X166500Y450600D02*Y444300D01*
G54D51*X156654Y449197D02*Y448803D01*
X162559Y449197D02*Y448803D01*
G54D50*X171500Y450600D02*Y444300D01*
X176500Y450600D02*Y444300D01*
X181500Y450600D02*Y444300D01*
G54D49*X176838Y459689D02*Y455083D01*
X174279Y459689D02*Y455083D01*
X171721Y459689D02*Y455083D01*
X169162Y459689D02*Y455083D01*
G54D50*X171500Y431700D02*Y425400D01*
X166500Y431700D02*Y425400D01*
G54D51*X160000Y420197D02*Y419803D01*
X154094Y420197D02*Y419803D01*
X168953Y409197D02*Y408803D01*
X163047Y409197D02*Y408803D01*
X179453Y418197D02*Y417803D01*
G54D50*X181500Y431700D02*Y425400D01*
X176500Y431700D02*Y425400D01*
G54D51*X185358Y418197D02*Y417803D01*
G54D49*X164044Y482917D02*Y478311D01*
X166603Y482917D02*Y478311D01*
X169162Y482917D02*Y478311D01*
X171721Y482917D02*Y478311D01*
X174279Y482917D02*Y478311D01*
X176838Y482917D02*Y478311D01*
X179397Y482917D02*Y478311D01*
X181956Y482917D02*Y478311D01*
G54D47*X184010Y450753D03*
G54D52*X181000Y440000D03*
X162500Y475000D03*
G54D53*X167000D03*
G54D52*X156000Y451500D03*
G54D53*Y444000D03*
X153000Y455000D03*
G54D52*X162000Y457000D03*
G54D53*X159000Y461000D03*
G54D52*X183000Y475000D03*
X173500Y463500D03*
G54D53*X180000Y472000D03*
X176000Y472500D03*
X173000Y475000D03*
X171500Y470500D03*
X185500Y461500D03*
G54D47*X192000Y458000D03*
G54D53*X189500Y481500D03*
G54D52*X195000Y474500D03*
X161000Y425000D03*
X153000Y424000D03*
X174000Y437000D03*
X162937Y436144D03*
G54D53*X157000Y437000D03*
G54D52*X176000Y410000D03*
Y418000D03*
X186000Y428000D03*
X187500Y418500D03*
G54D53*X165500Y421500D03*
X168000Y418000D03*
G54D54*G54D55*G54D56*G54D55*G54D56*G54D55*G54D56*G54D55*G54D56*G54D54*G54D56*G54D55*G54D56*G54D55*G54D56*G54D54*G54D57*G54D54*M02*
