G04 start of page 3 for group 3 idx 3 *
G04 Title: remote-board, signal3 *
G04 Creator: pcb 20140316 *
G04 CreationDate: Fri 11 Apr 2014 05:27:53 AM GMT UTC *
G04 For: ben *
G04 Format: Gerber/RS-274X *
G04 PCB-Dimensions (mil): 6000.00 5000.00 *
G04 PCB-Coordinate-Origin: lower left *
%MOIN*%
%FSLAX25Y25*%
%LNBOTTOM*%
%ADD38C,0.0380*%
%ADD37C,0.0130*%
%ADD36C,0.0350*%
%ADD35C,0.0200*%
%ADD34C,0.0300*%
%ADD33C,0.0360*%
%ADD32R,0.0130X0.0130*%
%ADD31R,0.0276X0.0276*%
%ADD30R,0.0240X0.0240*%
%ADD29C,0.0600*%
%ADD28C,0.0250*%
%ADD27C,0.0100*%
%ADD26C,0.0001*%
G54D26*G36*
X156929Y456950D02*X157000Y456879D01*
Y450616D01*
X156929Y450587D01*
Y456950D01*
G37*
G36*
X176250Y474129D02*X177000Y473379D01*
Y473245D01*
X176787Y473194D01*
X176453Y473056D01*
X176250Y472931D01*
Y474129D01*
G37*
G36*
Y461000D02*X177897D01*
Y460627D01*
X177893Y460633D01*
X177842Y460693D01*
X177782Y460744D01*
X177715Y460785D01*
X177642Y460816D01*
X177566Y460834D01*
X177488Y460839D01*
X176250Y460834D01*
Y461000D01*
G37*
G36*
Y413980D02*X176669Y413980D01*
X176761Y414002D01*
X176848Y414039D01*
X176929Y414088D01*
X177000Y414149D01*
X177062Y414221D01*
X177111Y414302D01*
X177147Y414389D01*
X177169Y414481D01*
X177175Y414575D01*
X177173Y415367D01*
X177229Y415600D01*
X177250Y415953D01*
Y417460D01*
X177329Y417132D01*
X177497Y416725D01*
X177728Y416349D01*
X178000Y416030D01*
Y408121D01*
X177379Y407500D01*
X176250D01*
Y408074D01*
X176669Y408075D01*
X176761Y408097D01*
X176848Y408133D01*
X176929Y408182D01*
X177000Y408244D01*
X177062Y408316D01*
X177111Y408396D01*
X177147Y408483D01*
X177169Y408575D01*
X177175Y408669D01*
X177169Y411519D01*
X177147Y411611D01*
X177111Y411698D01*
X177062Y411779D01*
X177000Y411851D01*
X176929Y411912D01*
X176848Y411961D01*
X176761Y411998D01*
X176669Y412020D01*
X176575Y412025D01*
X176250Y412025D01*
Y413980D01*
G37*
G36*
X203000Y490500D02*X204500D01*
X209500Y483500D01*
Y409500D01*
X203000Y405528D01*
Y412006D01*
X206735Y412014D01*
X206965Y412069D01*
X207183Y412159D01*
X207384Y412283D01*
X207564Y412436D01*
X207717Y412616D01*
X207841Y412817D01*
X207931Y413035D01*
X207986Y413265D01*
X208000Y413500D01*
X207986Y419735D01*
X207931Y419965D01*
X207841Y420183D01*
X207717Y420384D01*
X207564Y420564D01*
X207384Y420717D01*
X207183Y420841D01*
X206965Y420931D01*
X206735Y420986D01*
X206500Y421000D01*
X203000Y420992D01*
Y473007D01*
X206235Y473014D01*
X206465Y473069D01*
X206683Y473159D01*
X206884Y473283D01*
X207064Y473436D01*
X207217Y473616D01*
X207341Y473817D01*
X207431Y474035D01*
X207486Y474265D01*
X207500Y474500D01*
X207486Y480735D01*
X207431Y480965D01*
X207341Y481183D01*
X207217Y481384D01*
X207064Y481564D01*
X206884Y481717D01*
X206683Y481841D01*
X206465Y481931D01*
X206235Y481986D01*
X206000Y482000D01*
X203000Y481993D01*
Y490500D01*
G37*
G36*
Y405528D02*X200500Y404000D01*
X197596D01*
Y413500D01*
X199013D01*
X199014Y413265D01*
X199069Y413035D01*
X199159Y412817D01*
X199283Y412616D01*
X199436Y412436D01*
X199616Y412283D01*
X199817Y412159D01*
X200035Y412069D01*
X200265Y412014D01*
X200500Y412000D01*
X203000Y412006D01*
Y405528D01*
G37*
G36*
X197596Y490500D02*X203000D01*
Y481993D01*
X199765Y481986D01*
X199535Y481931D01*
X199317Y481841D01*
X199116Y481717D01*
X198936Y481564D01*
X198783Y481384D01*
X198659Y481183D01*
X198569Y480965D01*
X198514Y480735D01*
X198500Y480500D01*
X198514Y474265D01*
X198569Y474035D01*
X198659Y473817D01*
X198783Y473616D01*
X198936Y473436D01*
X199116Y473283D01*
X199317Y473159D01*
X199535Y473069D01*
X199765Y473014D01*
X200000Y473000D01*
X203000Y473007D01*
Y420992D01*
X200265Y420986D01*
X200035Y420931D01*
X199817Y420841D01*
X199616Y420717D01*
X199436Y420564D01*
X199283Y420384D01*
X199159Y420183D01*
X199069Y419965D01*
X199014Y419735D01*
X199000Y419500D01*
X199007Y416500D01*
X197596D01*
Y490500D01*
G37*
G36*
X188002Y413029D02*X188014Y413014D01*
X188349Y412728D01*
X188725Y412497D01*
X189132Y412329D01*
X189561Y412226D01*
X190000Y412191D01*
X190439Y412226D01*
X190868Y412329D01*
X191275Y412497D01*
X191651Y412728D01*
X191986Y413014D01*
X192272Y413349D01*
X192365Y413500D01*
X197596D01*
Y404000D01*
X188002D01*
Y413029D01*
G37*
G36*
X191284Y490500D02*X197596D01*
Y416500D01*
X192365D01*
X192272Y416651D01*
X191986Y416986D01*
X191651Y417272D01*
X191284Y417497D01*
Y439869D01*
X191287Y439870D01*
X191355Y439909D01*
X191416Y439958D01*
X191469Y440017D01*
X191511Y440083D01*
X191674Y440408D01*
X191803Y440748D01*
X191901Y441098D01*
X191967Y441456D01*
X192000Y441818D01*
Y442182D01*
X191967Y442544D01*
X191901Y442902D01*
X191803Y443252D01*
X191674Y443592D01*
X191515Y443919D01*
X191472Y443985D01*
X191419Y444044D01*
X191357Y444094D01*
X191288Y444133D01*
X191284Y444135D01*
Y490500D01*
G37*
G36*
X188002D02*X191284D01*
Y444135D01*
X191214Y444161D01*
X191137Y444177D01*
X191058Y444181D01*
X190979Y444173D01*
X190903Y444152D01*
X190830Y444120D01*
X190764Y444077D01*
X190705Y444024D01*
X190656Y443962D01*
X190616Y443893D01*
X190588Y443819D01*
X190572Y443742D01*
X190568Y443663D01*
X190576Y443584D01*
X190597Y443507D01*
X190630Y443436D01*
X190753Y443193D01*
X190850Y442938D01*
X190923Y442676D01*
X190972Y442408D01*
X190997Y442136D01*
Y441864D01*
X190972Y441592D01*
X190923Y441324D01*
X190850Y441062D01*
X190753Y440807D01*
X190633Y440563D01*
X190600Y440491D01*
X190579Y440416D01*
X190571Y440337D01*
X190575Y440259D01*
X190591Y440182D01*
X190619Y440108D01*
X190658Y440040D01*
X190707Y439979D01*
X190766Y439926D01*
X190832Y439883D01*
X190904Y439851D01*
X190980Y439830D01*
X191058Y439822D01*
X191136Y439826D01*
X191213Y439842D01*
X191284Y439869D01*
Y417497D01*
X191275Y417503D01*
X190868Y417671D01*
X190439Y417774D01*
X190000Y417809D01*
X189561Y417774D01*
X189132Y417671D01*
X188725Y417503D01*
X188349Y417272D01*
X188014Y416986D01*
X188002Y416971D01*
Y438000D01*
X188182D01*
X188544Y438033D01*
X188902Y438099D01*
X189252Y438197D01*
X189592Y438326D01*
X189919Y438485D01*
X189985Y438528D01*
X190044Y438581D01*
X190094Y438643D01*
X190133Y438712D01*
X190161Y438786D01*
X190177Y438863D01*
X190181Y438942D01*
X190173Y439021D01*
X190152Y439097D01*
X190120Y439170D01*
X190077Y439236D01*
X190024Y439295D01*
X189962Y439344D01*
X189893Y439384D01*
X189819Y439412D01*
X189742Y439428D01*
X189663Y439432D01*
X189584Y439424D01*
X189507Y439403D01*
X189436Y439370D01*
X189193Y439247D01*
X188938Y439150D01*
X188676Y439077D01*
X188408Y439028D01*
X188136Y439003D01*
X188002D01*
Y444997D01*
X188136D01*
X188408Y444972D01*
X188676Y444923D01*
X188938Y444850D01*
X189193Y444753D01*
X189437Y444633D01*
X189509Y444600D01*
X189584Y444579D01*
X189663Y444571D01*
X189741Y444575D01*
X189818Y444591D01*
X189892Y444619D01*
X189960Y444658D01*
X190021Y444707D01*
X190074Y444766D01*
X190117Y444832D01*
X190149Y444904D01*
X190170Y444980D01*
X190178Y445058D01*
X190174Y445136D01*
X190158Y445213D01*
X190130Y445287D01*
X190091Y445355D01*
X190042Y445416D01*
X189983Y445469D01*
X189917Y445511D01*
X189592Y445674D01*
X189252Y445803D01*
X188902Y445901D01*
X188544Y445967D01*
X188182Y446000D01*
X188002D01*
Y451127D01*
X188240Y451184D01*
X188822Y451425D01*
X189358Y451754D01*
X189837Y452163D01*
X190246Y452642D01*
X190575Y453178D01*
X190816Y453760D01*
X190963Y454372D01*
X191000Y455000D01*
X190963Y455628D01*
X190816Y456240D01*
X190575Y456822D01*
X190246Y457358D01*
X189837Y457837D01*
X189358Y458246D01*
X188822Y458575D01*
X188240Y458816D01*
X188002Y458873D01*
Y490500D01*
G37*
G36*
Y416971D02*X187728Y416651D01*
X187497Y416275D01*
X187329Y415868D01*
X187226Y415439D01*
X187191Y415000D01*
X187226Y414561D01*
X187329Y414132D01*
X187497Y413725D01*
X187728Y413349D01*
X188002Y413029D01*
Y404000D01*
X184716D01*
Y439865D01*
X184786Y439839D01*
X184863Y439823D01*
X184942Y439819D01*
X185021Y439827D01*
X185097Y439848D01*
X185170Y439880D01*
X185236Y439923D01*
X185295Y439976D01*
X185344Y440038D01*
X185384Y440107D01*
X185412Y440181D01*
X185428Y440258D01*
X185432Y440337D01*
X185424Y440416D01*
X185403Y440493D01*
X185370Y440564D01*
X185247Y440807D01*
X185150Y441062D01*
X185077Y441324D01*
X185028Y441592D01*
X185003Y441864D01*
Y442136D01*
X185028Y442408D01*
X185077Y442676D01*
X185150Y442938D01*
X185247Y443193D01*
X185367Y443437D01*
X185400Y443509D01*
X185421Y443585D01*
X185429Y443663D01*
X185425Y443741D01*
X185409Y443818D01*
X185381Y443892D01*
X185342Y443960D01*
X185293Y444021D01*
X185234Y444074D01*
X185168Y444117D01*
X185096Y444149D01*
X185020Y444170D01*
X184942Y444178D01*
X184864Y444174D01*
X184787Y444158D01*
X184716Y444131D01*
Y451708D01*
X185178Y451425D01*
X185760Y451184D01*
X186372Y451037D01*
X187000Y450988D01*
X187628Y451037D01*
X188002Y451127D01*
Y446000D01*
X187818D01*
X187456Y445967D01*
X187098Y445901D01*
X186748Y445803D01*
X186408Y445674D01*
X186081Y445515D01*
X186015Y445472D01*
X185956Y445419D01*
X185906Y445357D01*
X185867Y445288D01*
X185839Y445214D01*
X185823Y445137D01*
X185819Y445058D01*
X185827Y444979D01*
X185848Y444903D01*
X185880Y444830D01*
X185923Y444764D01*
X185976Y444705D01*
X186038Y444656D01*
X186107Y444616D01*
X186181Y444588D01*
X186258Y444572D01*
X186337Y444568D01*
X186416Y444576D01*
X186493Y444597D01*
X186564Y444630D01*
X186807Y444753D01*
X187062Y444850D01*
X187324Y444923D01*
X187592Y444972D01*
X187864Y444997D01*
X188002D01*
Y439003D01*
X187864D01*
X187592Y439028D01*
X187324Y439077D01*
X187062Y439150D01*
X186807Y439247D01*
X186563Y439367D01*
X186491Y439400D01*
X186415Y439421D01*
X186337Y439429D01*
X186259Y439425D01*
X186182Y439409D01*
X186108Y439381D01*
X186040Y439342D01*
X185979Y439293D01*
X185926Y439234D01*
X185883Y439168D01*
X185851Y439096D01*
X185830Y439020D01*
X185822Y438942D01*
X185826Y438864D01*
X185842Y438787D01*
X185870Y438713D01*
X185909Y438645D01*
X185958Y438584D01*
X186017Y438531D01*
X186083Y438489D01*
X186408Y438326D01*
X186748Y438197D01*
X187098Y438099D01*
X187456Y438033D01*
X187818Y438000D01*
X188002D01*
Y416971D01*
G37*
G36*
X184716Y404000D02*X180976D01*
Y407224D01*
X180986Y407265D01*
X181005Y407500D01*
X181000Y407559D01*
Y415384D01*
X181275Y415497D01*
X181651Y415728D01*
X181986Y416014D01*
X182272Y416349D01*
X182503Y416725D01*
X182671Y417132D01*
X182774Y417561D01*
X182800Y418000D01*
X182774Y418439D01*
X182671Y418868D01*
X182503Y419275D01*
X182272Y419651D01*
X181986Y419986D01*
X181651Y420272D01*
X181533Y420344D01*
X181586Y420565D01*
X181600Y420800D01*
X181586Y425035D01*
X181531Y425265D01*
X181441Y425483D01*
X181317Y425684D01*
X181164Y425864D01*
X180984Y426017D01*
X180976Y426022D01*
Y427778D01*
X180984Y427783D01*
X181164Y427936D01*
X181317Y428116D01*
X181441Y428317D01*
X181531Y428535D01*
X181586Y428765D01*
X181600Y429000D01*
X181595Y430513D01*
X182529Y431447D01*
X182596Y431504D01*
X182826Y431773D01*
X182826Y431773D01*
X183011Y432075D01*
X183146Y432403D01*
X183229Y432747D01*
X183257Y433100D01*
X183250Y433188D01*
Y437000D01*
X183229Y437353D01*
X183171Y437595D01*
X183169Y438472D01*
X183147Y438564D01*
X183111Y438651D01*
X183062Y438732D01*
X183000Y438804D01*
X182929Y438865D01*
X182848Y438914D01*
X182761Y438950D01*
X182669Y438972D01*
X182575Y438978D01*
X182080Y438977D01*
X182025Y439011D01*
X181697Y439146D01*
X181353Y439229D01*
X181000Y439257D01*
X180976Y439255D01*
Y440650D01*
X181000Y440649D01*
X181353Y440676D01*
X181697Y440759D01*
X182025Y440895D01*
X182086Y440932D01*
X182669Y440933D01*
X182761Y440955D01*
X182848Y440991D01*
X182929Y441041D01*
X183000Y441102D01*
X183062Y441174D01*
X183111Y441254D01*
X183147Y441342D01*
X183169Y441433D01*
X183175Y441528D01*
X183173Y442320D01*
X183229Y442552D01*
X183257Y442906D01*
X183229Y443259D01*
X183171Y443501D01*
X183169Y444378D01*
X183147Y444469D01*
X183111Y444557D01*
X183062Y444637D01*
X183000Y444709D01*
X182929Y444770D01*
X182848Y444820D01*
X182761Y444856D01*
X182669Y444878D01*
X182575Y444883D01*
X182110Y444883D01*
X181977Y444964D01*
X181650Y445099D01*
X181306Y445182D01*
X180976Y445208D01*
Y454058D01*
X181012Y454028D01*
X181079Y453987D01*
X181152Y453957D01*
X181228Y453938D01*
X181306Y453934D01*
X182684Y453938D01*
X182760Y453957D01*
X182833Y453987D01*
X182900Y454028D01*
X182960Y454079D01*
X183011Y454139D01*
X183052Y454206D01*
X183068Y454244D01*
X183184Y453760D01*
X183425Y453178D01*
X183754Y452642D01*
X184163Y452163D01*
X184642Y451754D01*
X184716Y451708D01*
Y444131D01*
X184713Y444130D01*
X184645Y444091D01*
X184584Y444042D01*
X184531Y443983D01*
X184489Y443917D01*
X184326Y443592D01*
X184197Y443252D01*
X184099Y442902D01*
X184033Y442544D01*
X184000Y442182D01*
Y441818D01*
X184033Y441456D01*
X184099Y441098D01*
X184197Y440748D01*
X184326Y440408D01*
X184485Y440081D01*
X184528Y440015D01*
X184581Y439956D01*
X184643Y439906D01*
X184712Y439867D01*
X184716Y439865D01*
Y404000D01*
G37*
G36*
X180976Y439255D02*X180647Y439229D01*
X180303Y439146D01*
X179975Y439011D01*
X179914Y438973D01*
X179331Y438972D01*
X179239Y438950D01*
X179152Y438914D01*
X179071Y438865D01*
X179000Y438804D01*
X178938Y438732D01*
X178889Y438651D01*
X178853Y438564D01*
X178831Y438472D01*
X178825Y438378D01*
X178827Y437586D01*
X178771Y437353D01*
X178750Y437000D01*
Y434493D01*
X177465Y434486D01*
X177250Y434435D01*
Y435856D01*
X177287Y435870D01*
X177355Y435909D01*
X177416Y435958D01*
X177469Y436017D01*
X177511Y436083D01*
X177674Y436408D01*
X177803Y436748D01*
X177901Y437098D01*
X177967Y437456D01*
X178000Y437818D01*
Y438182D01*
X177967Y438544D01*
X177901Y438902D01*
X177803Y439252D01*
X177674Y439592D01*
X177515Y439919D01*
X177472Y439985D01*
X177419Y440044D01*
X177357Y440094D01*
X177288Y440133D01*
X177214Y440161D01*
X177137Y440177D01*
X177058Y440181D01*
X176979Y440173D01*
X176903Y440152D01*
X176830Y440120D01*
X176764Y440077D01*
X176705Y440024D01*
X176656Y439962D01*
X176616Y439893D01*
X176588Y439819D01*
X176572Y439742D01*
X176568Y439663D01*
X176576Y439584D01*
X176597Y439507D01*
X176630Y439436D01*
X176753Y439193D01*
X176850Y438938D01*
X176923Y438676D01*
X176972Y438408D01*
X176997Y438136D01*
Y437864D01*
X176972Y437592D01*
X176923Y437324D01*
X176893Y437217D01*
X176826Y437327D01*
X176596Y437596D01*
X176529Y437653D01*
X176250Y437932D01*
Y453934D01*
X177566Y453938D01*
X177642Y453957D01*
X177715Y453987D01*
X177782Y454028D01*
X177842Y454079D01*
X177893Y454139D01*
X177934Y454206D01*
X177964Y454279D01*
X177983Y454355D01*
X177988Y454434D01*
X177986Y456873D01*
X178056Y456703D01*
X178180Y456501D01*
X178251Y456418D01*
X178252Y454355D01*
X178270Y454279D01*
X178301Y454206D01*
X178342Y454139D01*
X178393Y454079D01*
X178453Y454028D01*
X178520Y453987D01*
X178593Y453957D01*
X178669Y453938D01*
X178747Y453934D01*
X180125Y453938D01*
X180201Y453957D01*
X180274Y453987D01*
X180341Y454028D01*
X180401Y454079D01*
X180452Y454139D01*
X180493Y454206D01*
X180523Y454279D01*
X180542Y454355D01*
X180546Y454434D01*
X180545Y456420D01*
X180614Y456501D01*
X180676Y456603D01*
X180739Y456501D01*
X180810Y456418D01*
X180811Y454355D01*
X180830Y454279D01*
X180860Y454206D01*
X180901Y454139D01*
X180952Y454079D01*
X180976Y454058D01*
Y445208D01*
X180953Y445210D01*
X180600Y445182D01*
X180255Y445099D01*
X179928Y444964D01*
X179789Y444879D01*
X179331Y444878D01*
X179239Y444856D01*
X179152Y444820D01*
X179071Y444770D01*
X179000Y444709D01*
X178938Y444637D01*
X178889Y444557D01*
X178853Y444469D01*
X178831Y444378D01*
X178825Y444283D01*
X178826Y443699D01*
X178806Y443650D01*
X178724Y443306D01*
X178696Y442953D01*
X178724Y442600D01*
X178806Y442255D01*
X178829Y442200D01*
X178831Y441433D01*
X178853Y441342D01*
X178889Y441254D01*
X178938Y441174D01*
X179000Y441102D01*
X179071Y441041D01*
X179152Y440991D01*
X179239Y440955D01*
X179331Y440933D01*
X179425Y440928D01*
X179920Y440928D01*
X179975Y440895D01*
X180303Y440759D01*
X180647Y440676D01*
X180976Y440650D01*
Y439255D01*
G37*
G36*
Y426022D02*X180783Y426141D01*
X180565Y426231D01*
X180335Y426286D01*
X180100Y426300D01*
X177465Y426286D01*
X177235Y426231D01*
X177017Y426141D01*
X176950Y426100D01*
X176883Y426141D01*
X176665Y426231D01*
X176435Y426286D01*
X176250Y426297D01*
Y427513D01*
X176435Y427514D01*
X176665Y427569D01*
X176883Y427659D01*
X176950Y427700D01*
X177017Y427659D01*
X177235Y427569D01*
X177465Y427514D01*
X177700Y427500D01*
X180335Y427514D01*
X180565Y427569D01*
X180783Y427659D01*
X180976Y427778D01*
Y426022D01*
G37*
G36*
Y404000D02*X176250D01*
Y404500D01*
X177941D01*
X178000Y404495D01*
X178235Y404514D01*
X178235Y404514D01*
X178465Y404569D01*
X178683Y404659D01*
X178884Y404783D01*
X179064Y404936D01*
X179102Y404981D01*
X180519Y406398D01*
X180564Y406436D01*
X180717Y406615D01*
X180717Y406616D01*
X180841Y406817D01*
X180931Y407035D01*
X180976Y407224D01*
Y404000D01*
G37*
G36*
X187230Y490500D02*X188002D01*
Y458873D01*
X187628Y458963D01*
X187230Y458994D01*
Y459984D01*
X187366Y460144D01*
X187556Y460453D01*
X187694Y460787D01*
X187779Y461139D01*
X187800Y461500D01*
X187779Y461861D01*
X187694Y462213D01*
X187556Y462547D01*
X187366Y462856D01*
X187230Y463016D01*
Y478714D01*
X187298Y478728D01*
X187371Y478755D01*
X187440Y478794D01*
X187502Y478843D01*
X187555Y478901D01*
X187598Y478966D01*
X187630Y479038D01*
X187706Y479271D01*
X187760Y479511D01*
X187792Y479755D01*
X187803Y480000D01*
X187792Y480245D01*
X187760Y480489D01*
X187706Y480729D01*
X187632Y480963D01*
X187600Y481035D01*
X187556Y481100D01*
X187503Y481159D01*
X187441Y481208D01*
X187372Y481246D01*
X187298Y481274D01*
X187230Y481288D01*
Y490500D01*
G37*
G36*
Y458994D02*X187000Y459012D01*
X186372Y458963D01*
X185760Y458816D01*
X185178Y458575D01*
X185001Y458466D01*
Y458880D01*
X185328Y459206D01*
X185500Y459193D01*
X185861Y459221D01*
X186213Y459306D01*
X186547Y459444D01*
X186856Y459634D01*
X187131Y459869D01*
X187230Y459984D01*
Y458994D01*
G37*
G36*
X185001Y490500D02*X187230D01*
Y481288D01*
X187221Y481290D01*
X187142Y481293D01*
X187063Y481284D01*
X186987Y481263D01*
X186915Y481230D01*
X186850Y481186D01*
X186791Y481133D01*
X186742Y481071D01*
X186704Y481002D01*
X186676Y480928D01*
X186660Y480851D01*
X186657Y480772D01*
X186666Y480693D01*
X186689Y480618D01*
X186738Y480468D01*
X186772Y480314D01*
X186793Y480158D01*
X186800Y480000D01*
X186793Y479842D01*
X186772Y479686D01*
X186738Y479532D01*
X186690Y479382D01*
X186668Y479306D01*
X186659Y479228D01*
X186662Y479150D01*
X186678Y479073D01*
X186705Y478999D01*
X186744Y478930D01*
X186793Y478869D01*
X186851Y478815D01*
X186916Y478772D01*
X186988Y478739D01*
X187064Y478718D01*
X187142Y478709D01*
X187220Y478712D01*
X187230Y478714D01*
Y463016D01*
X187131Y463131D01*
X186856Y463366D01*
X186547Y463556D01*
X186213Y463694D01*
X185861Y463779D01*
X185500Y463807D01*
X185139Y463779D01*
X185001Y463746D01*
Y477197D01*
X185245Y477208D01*
X185489Y477240D01*
X185729Y477294D01*
X185963Y477368D01*
X186035Y477400D01*
X186100Y477444D01*
X186159Y477497D01*
X186208Y477559D01*
X186246Y477628D01*
X186274Y477702D01*
X186290Y477779D01*
X186293Y477858D01*
X186284Y477937D01*
X186263Y478013D01*
X186230Y478085D01*
X186186Y478150D01*
X186133Y478209D01*
X186071Y478258D01*
X186002Y478296D01*
X185928Y478324D01*
X185851Y478340D01*
X185772Y478343D01*
X185693Y478334D01*
X185618Y478311D01*
X185468Y478262D01*
X185314Y478228D01*
X185158Y478207D01*
X185001Y478200D01*
Y478495D01*
X185236Y478514D01*
X185465Y478569D01*
X185683Y478659D01*
X185885Y478783D01*
X186064Y478936D01*
X186217Y479116D01*
X186341Y479317D01*
X186431Y479535D01*
X186486Y479765D01*
X186505Y480000D01*
X186486Y480236D01*
X186431Y480465D01*
X186341Y480683D01*
X186217Y480885D01*
X186061Y481061D01*
X185488Y481633D01*
X185450Y481678D01*
X185348Y481765D01*
X185468Y481738D01*
X185618Y481690D01*
X185694Y481668D01*
X185772Y481659D01*
X185850Y481662D01*
X185927Y481678D01*
X186001Y481705D01*
X186070Y481744D01*
X186131Y481793D01*
X186185Y481851D01*
X186228Y481916D01*
X186261Y481988D01*
X186282Y482064D01*
X186291Y482142D01*
X186288Y482220D01*
X186272Y482298D01*
X186245Y482371D01*
X186206Y482440D01*
X186157Y482502D01*
X186099Y482555D01*
X186034Y482598D01*
X185962Y482630D01*
X185729Y482706D01*
X185489Y482760D01*
X185245Y482792D01*
X185001Y482803D01*
Y490500D01*
G37*
G36*
Y463746D02*X184787Y463694D01*
X184453Y463556D01*
X184144Y463366D01*
X183869Y463131D01*
X183634Y462856D01*
X183444Y462547D01*
X183306Y462213D01*
X183221Y461861D01*
X183193Y461500D01*
X183206Y461328D01*
X182707Y460828D01*
X182684Y460834D01*
X182606Y460839D01*
X181228Y460834D01*
X181152Y460816D01*
X181079Y460785D01*
X181012Y460744D01*
X180952Y460693D01*
X180901Y460633D01*
X180897Y460627D01*
Y462044D01*
X180901Y462103D01*
X180883Y462338D01*
X180883Y462338D01*
X180883Y462338D01*
X180850Y462475D01*
X180828Y462568D01*
X180828Y462568D01*
X180828Y462568D01*
X180773Y462699D01*
X180738Y462786D01*
X180738Y462786D01*
X180737Y462786D01*
X180670Y462897D01*
X180614Y462987D01*
X180614Y462987D01*
X180614Y462987D01*
X180461Y463167D01*
X180416Y463205D01*
X180102Y463519D01*
X180064Y463564D01*
X179885Y463716D01*
X179885Y463717D01*
X179885Y463717D01*
X179884Y463717D01*
X179776Y463784D01*
X179683Y463840D01*
X179683Y463841D01*
X179683Y463841D01*
X179561Y463891D01*
X179465Y463931D01*
X179465Y463931D01*
X179465Y463931D01*
X179339Y463961D01*
X179236Y463986D01*
X179236Y463986D01*
X179235Y463986D01*
X179234Y463986D01*
X179000Y464005D01*
X178941Y464000D01*
X176250D01*
Y469069D01*
X176453Y468944D01*
X176787Y468806D01*
X177139Y468721D01*
X177500Y468693D01*
X177861Y468721D01*
X178213Y468806D01*
X178547Y468944D01*
X178856Y469134D01*
X179131Y469369D01*
X179366Y469644D01*
X179556Y469953D01*
X179694Y470287D01*
X179779Y470639D01*
X179800Y471000D01*
X179787Y471229D01*
X179841Y471317D01*
X179931Y471535D01*
X179986Y471765D01*
X180005Y472000D01*
X180000Y472059D01*
Y473362D01*
X180134Y473144D01*
X180369Y472869D01*
X180644Y472634D01*
X180953Y472444D01*
X181287Y472306D01*
X181639Y472221D01*
X182000Y472193D01*
X182361Y472221D01*
X182713Y472306D01*
X183047Y472444D01*
X183356Y472634D01*
X183631Y472869D01*
X183866Y473144D01*
X184056Y473453D01*
X184194Y473787D01*
X184279Y474139D01*
X184300Y474500D01*
X184279Y474861D01*
X184194Y475213D01*
X184056Y475547D01*
X183866Y475856D01*
X183631Y476131D01*
X183356Y476366D01*
X183047Y476556D01*
X182713Y476694D01*
X182361Y476779D01*
X182000Y476807D01*
X181828Y476794D01*
X181459Y477162D01*
X182684Y477166D01*
X182760Y477185D01*
X182833Y477215D01*
X182900Y477256D01*
X182960Y477307D01*
X183011Y477367D01*
X183052Y477434D01*
X183082Y477507D01*
X183101Y477583D01*
X183106Y477662D01*
X183105Y478784D01*
X183150Y478814D01*
X183209Y478867D01*
X183258Y478929D01*
X183296Y478998D01*
X183324Y479072D01*
X183332Y479114D01*
X183765D01*
X183939Y478939D01*
X184116Y478783D01*
X184317Y478659D01*
X184535Y478569D01*
X184765Y478514D01*
X185000Y478495D01*
X185001Y478495D01*
Y478200D01*
X185000Y478200D01*
X184842Y478207D01*
X184686Y478228D01*
X184532Y478262D01*
X184382Y478310D01*
X184306Y478332D01*
X184228Y478341D01*
X184150Y478338D01*
X184073Y478322D01*
X183999Y478295D01*
X183930Y478256D01*
X183869Y478207D01*
X183815Y478149D01*
X183772Y478084D01*
X183739Y478012D01*
X183718Y477936D01*
X183709Y477858D01*
X183712Y477780D01*
X183728Y477702D01*
X183755Y477629D01*
X183794Y477560D01*
X183843Y477498D01*
X183901Y477445D01*
X183966Y477402D01*
X184038Y477370D01*
X184271Y477294D01*
X184511Y477240D01*
X184755Y477208D01*
X185000Y477197D01*
X185001Y477197D01*
Y463746D01*
G37*
G36*
Y458466D02*X184642Y458246D01*
X184163Y457837D01*
X183754Y457358D01*
X183425Y456822D01*
X183184Y456240D01*
X183104Y455908D01*
X183104Y456420D01*
X183173Y456501D01*
X183297Y456703D01*
X183387Y456921D01*
X183442Y457150D01*
X183453Y457331D01*
X185001Y458880D01*
Y458466D01*
G37*
G36*
X176250Y490500D02*X185001D01*
Y482803D01*
X185000Y482803D01*
X184755Y482792D01*
X184511Y482760D01*
X184271Y482706D01*
X184037Y482632D01*
X183965Y482600D01*
X183900Y482556D01*
X183841Y482503D01*
X183792Y482441D01*
X183754Y482372D01*
X183726Y482298D01*
X183710Y482221D01*
X183707Y482142D01*
X183710Y482114D01*
X183102D01*
X183101Y483645D01*
X183082Y483721D01*
X183052Y483794D01*
X183011Y483861D01*
X182960Y483921D01*
X182900Y483972D01*
X182833Y484013D01*
X182760Y484044D01*
X182684Y484062D01*
X182606Y484067D01*
X181228Y484062D01*
X181152Y484044D01*
X181079Y484013D01*
X181012Y483972D01*
X180952Y483921D01*
X180901Y483861D01*
X180860Y483794D01*
X180830Y483721D01*
X180811Y483645D01*
X180806Y483567D01*
X180808Y481580D01*
X180739Y481498D01*
X180676Y481397D01*
X180614Y481498D01*
X180543Y481581D01*
X180542Y483645D01*
X180523Y483721D01*
X180493Y483794D01*
X180452Y483861D01*
X180401Y483921D01*
X180341Y483972D01*
X180274Y484013D01*
X180201Y484044D01*
X180125Y484062D01*
X180046Y484067D01*
X178669Y484062D01*
X178593Y484044D01*
X178520Y484013D01*
X178453Y483972D01*
X178393Y483921D01*
X178342Y483861D01*
X178301Y483794D01*
X178270Y483721D01*
X178252Y483645D01*
X178247Y483567D01*
X178249Y481580D01*
X178180Y481498D01*
X178056Y481297D01*
X177985Y481125D01*
X177983Y483645D01*
X177964Y483721D01*
X177934Y483794D01*
X177893Y483861D01*
X177842Y483921D01*
X177782Y483972D01*
X177715Y484013D01*
X177642Y484044D01*
X177566Y484062D01*
X177488Y484067D01*
X176250Y484062D01*
Y490500D01*
G37*
G36*
X160263Y459297D02*X160561Y459226D01*
X161000Y459191D01*
X161439Y459226D01*
X161868Y459329D01*
X162275Y459497D01*
X162651Y459728D01*
X162895Y459936D01*
X162896Y458351D01*
X162827Y458270D01*
X162703Y458069D01*
X162613Y457851D01*
X162558Y457621D01*
X162544Y457386D01*
Y454665D01*
X162186Y454308D01*
X161761Y454274D01*
X161332Y454171D01*
X160925Y454003D01*
X160549Y453772D01*
X160263Y453528D01*
Y459297D01*
G37*
G36*
X173998Y461000D02*X176250D01*
Y460834D01*
X176110Y460834D01*
X176034Y460816D01*
X175961Y460785D01*
X175894Y460744D01*
X175834Y460693D01*
X175783Y460633D01*
X175742Y460566D01*
X175712Y460493D01*
X175693Y460417D01*
X175688Y460339D01*
X175693Y454355D01*
X175712Y454279D01*
X175742Y454206D01*
X175783Y454139D01*
X175834Y454079D01*
X175894Y454028D01*
X175961Y453987D01*
X176034Y453957D01*
X176110Y453938D01*
X176188Y453934D01*
X176250Y453934D01*
Y437932D01*
X175591Y438591D01*
X175327Y438826D01*
X175025Y439011D01*
X174697Y439146D01*
X174353Y439229D01*
X174000Y439257D01*
X173998Y439257D01*
Y440997D01*
X174136D01*
X174408Y440972D01*
X174676Y440923D01*
X174938Y440850D01*
X175193Y440753D01*
X175437Y440633D01*
X175509Y440600D01*
X175584Y440579D01*
X175663Y440571D01*
X175741Y440575D01*
X175818Y440591D01*
X175892Y440619D01*
X175960Y440658D01*
X176021Y440707D01*
X176074Y440766D01*
X176117Y440832D01*
X176149Y440904D01*
X176170Y440980D01*
X176178Y441058D01*
X176174Y441136D01*
X176158Y441213D01*
X176130Y441287D01*
X176091Y441355D01*
X176042Y441416D01*
X175983Y441469D01*
X175917Y441511D01*
X175592Y441674D01*
X175252Y441803D01*
X174902Y441901D01*
X174544Y441967D01*
X174182Y442000D01*
X173998D01*
Y453935D01*
X175007Y453938D01*
X175083Y453957D01*
X175156Y453987D01*
X175223Y454028D01*
X175283Y454079D01*
X175334Y454139D01*
X175375Y454206D01*
X175405Y454279D01*
X175424Y454355D01*
X175428Y454434D01*
X175424Y460417D01*
X175405Y460493D01*
X175375Y460566D01*
X175334Y460633D01*
X175283Y460693D01*
X175223Y460744D01*
X175156Y460785D01*
X175083Y460816D01*
X175007Y460834D01*
X174928Y460839D01*
X173998Y460835D01*
Y461000D01*
G37*
G36*
Y408070D02*X176250Y408074D01*
Y407500D01*
X173998D01*
Y408070D01*
G37*
G36*
Y413932D02*X174303Y413806D01*
X174647Y413724D01*
X175000Y413696D01*
X175353Y413724D01*
X175697Y413806D01*
X176025Y413942D01*
X176086Y413979D01*
X176250Y413980D01*
Y412025D01*
X173998Y412021D01*
Y413932D01*
G37*
G36*
X176250Y426297D02*X176200Y426300D01*
X173998Y426288D01*
Y427501D01*
X176250Y427513D01*
Y426297D01*
G37*
G36*
X167500Y449217D02*X170222Y451939D01*
X170379Y452116D01*
X170502Y452317D01*
X170593Y452535D01*
X170648Y452765D01*
X170666Y453000D01*
X170658Y453103D01*
X170662Y453162D01*
Y454145D01*
X170666Y454139D01*
X170717Y454079D01*
X170777Y454028D01*
X170844Y453987D01*
X170917Y453957D01*
X170993Y453938D01*
X171071Y453934D01*
X172449Y453938D01*
X172525Y453957D01*
X172598Y453987D01*
X172665Y454028D01*
X172725Y454079D01*
X172776Y454139D01*
X172817Y454206D01*
X172847Y454279D01*
X172866Y454355D01*
X172870Y454434D01*
X172866Y460417D01*
X172847Y460493D01*
X172817Y460566D01*
X172776Y460633D01*
X172725Y460693D01*
X172665Y460744D01*
X172598Y460785D01*
X172525Y460816D01*
X172449Y460834D01*
X172370Y460839D01*
X170993Y460834D01*
X170917Y460816D01*
X170844Y460785D01*
X170777Y460744D01*
X170717Y460693D01*
X170666Y460633D01*
X170625Y460566D01*
X170594Y460493D01*
X170576Y460417D01*
X170571Y460339D01*
X170573Y457898D01*
X170502Y458069D01*
X170379Y458270D01*
X170308Y458353D01*
X170307Y460417D01*
X170288Y460493D01*
X170258Y460566D01*
X170217Y460633D01*
X170166Y460693D01*
X170106Y460744D01*
X170039Y460785D01*
X169966Y460816D01*
X169890Y460834D01*
X169812Y460839D01*
X168434Y460834D01*
X168358Y460816D01*
X168285Y460785D01*
X168218Y460744D01*
X168158Y460693D01*
X168107Y460633D01*
X168103Y460627D01*
Y461338D01*
X168108Y461397D01*
X168089Y461632D01*
X168089Y461632D01*
X168089Y461632D01*
X168089Y461633D01*
X168064Y461737D01*
X168034Y461862D01*
X168034Y461862D01*
X168034Y461862D01*
X167990Y461969D01*
X167944Y462080D01*
X167944Y462080D01*
X167944Y462080D01*
X167887Y462173D01*
X167820Y462281D01*
X167820Y462281D01*
X167820Y462282D01*
X167820Y462282D01*
X167667Y462461D01*
X167622Y462499D01*
X167500Y462621D01*
Y462879D01*
X168898Y461481D01*
X168936Y461436D01*
X169115Y461283D01*
X169116Y461283D01*
X169317Y461159D01*
X169535Y461069D01*
X169765Y461014D01*
X170000Y460995D01*
X170059Y461000D01*
X173998D01*
Y460835D01*
X173551Y460834D01*
X173475Y460816D01*
X173402Y460785D01*
X173335Y460744D01*
X173275Y460693D01*
X173224Y460633D01*
X173183Y460566D01*
X173152Y460493D01*
X173134Y460417D01*
X173129Y460339D01*
X173134Y454355D01*
X173152Y454279D01*
X173183Y454206D01*
X173224Y454139D01*
X173275Y454079D01*
X173335Y454028D01*
X173402Y453987D01*
X173475Y453957D01*
X173551Y453938D01*
X173629Y453934D01*
X173998Y453935D01*
Y442000D01*
X173818D01*
X173456Y441967D01*
X173098Y441901D01*
X172748Y441803D01*
X172408Y441674D01*
X172081Y441515D01*
X172015Y441472D01*
X171956Y441419D01*
X171906Y441357D01*
X171867Y441288D01*
X171839Y441214D01*
X171823Y441137D01*
X171819Y441058D01*
X171827Y440979D01*
X171848Y440903D01*
X171880Y440830D01*
X171923Y440764D01*
X171976Y440705D01*
X172038Y440656D01*
X172107Y440616D01*
X172181Y440588D01*
X172258Y440572D01*
X172337Y440568D01*
X172416Y440576D01*
X172493Y440597D01*
X172564Y440630D01*
X172807Y440753D01*
X173062Y440850D01*
X173324Y440923D01*
X173592Y440972D01*
X173864Y440997D01*
X173998D01*
Y439257D01*
X173647Y439229D01*
X173303Y439146D01*
X172975Y439011D01*
X172673Y438826D01*
X172404Y438596D01*
X172174Y438327D01*
X171989Y438025D01*
X171854Y437697D01*
X171771Y437353D01*
X171743Y437000D01*
X171771Y436647D01*
X171854Y436303D01*
X171989Y435975D01*
X172174Y435673D01*
X172397Y435423D01*
X172337Y435429D01*
X172302Y435427D01*
X171430Y436299D01*
X171432Y436337D01*
X171424Y436416D01*
X171403Y436493D01*
X171370Y436564D01*
X171247Y436807D01*
X171150Y437062D01*
X171077Y437324D01*
X171028Y437592D01*
X171003Y437864D01*
Y438136D01*
X171028Y438408D01*
X171077Y438676D01*
X171150Y438938D01*
X171247Y439193D01*
X171367Y439437D01*
X171400Y439509D01*
X171421Y439585D01*
X171429Y439663D01*
X171425Y439741D01*
X171409Y439818D01*
X171381Y439892D01*
X171342Y439960D01*
X171293Y440021D01*
X171234Y440074D01*
X171168Y440117D01*
X171096Y440149D01*
X171020Y440170D01*
X170942Y440178D01*
X170864Y440174D01*
X170787Y440158D01*
X170713Y440130D01*
X170645Y440091D01*
X170584Y440042D01*
X170531Y439983D01*
X170489Y439917D01*
X170326Y439592D01*
X170197Y439252D01*
X170099Y438902D01*
X170033Y438544D01*
X170000Y438182D01*
Y437818D01*
X170009Y437720D01*
X169670Y438059D01*
X169669Y438519D01*
X169647Y438611D01*
X169611Y438698D01*
X169562Y438779D01*
X169500Y438851D01*
X169429Y438912D01*
X169348Y438961D01*
X169261Y438998D01*
X169169Y439020D01*
X169075Y439025D01*
X168580Y439024D01*
X168525Y439058D01*
X168197Y439194D01*
X167853Y439276D01*
X167500Y439304D01*
X167500D01*
Y440978D01*
X169169Y440980D01*
X169261Y441002D01*
X169348Y441039D01*
X169429Y441088D01*
X169500Y441149D01*
X169562Y441221D01*
X169611Y441302D01*
X169647Y441389D01*
X169669Y441481D01*
X169675Y441575D01*
X169669Y444425D01*
X169647Y444517D01*
X169611Y444604D01*
X169562Y444684D01*
X169500Y444756D01*
X169429Y444818D01*
X169348Y444867D01*
X169261Y444903D01*
X169169Y444925D01*
X169075Y444931D01*
X167500Y444928D01*
Y449217D01*
G37*
G36*
Y411240D02*X167868Y411329D01*
X168275Y411497D01*
X168651Y411728D01*
X168986Y412014D01*
X169272Y412349D01*
X169503Y412725D01*
X169671Y413132D01*
X169774Y413561D01*
X169800Y414000D01*
X169774Y414439D01*
X169733Y414611D01*
X172119Y416998D01*
X172164Y417036D01*
X172317Y417215D01*
X172317Y417216D01*
X172441Y417417D01*
X172531Y417635D01*
X172586Y417865D01*
X172605Y418100D01*
X172600Y418159D01*
Y418510D01*
X172728Y418302D01*
X172750Y418276D01*
Y415953D01*
X172771Y415600D01*
X172829Y415357D01*
X172831Y414481D01*
X172853Y414389D01*
X172889Y414302D01*
X172938Y414221D01*
X173000Y414149D01*
X173071Y414088D01*
X173152Y414039D01*
X173239Y414002D01*
X173331Y413980D01*
X173425Y413975D01*
X173920Y413976D01*
X173975Y413942D01*
X173998Y413932D01*
Y412021D01*
X173331Y412020D01*
X173239Y411998D01*
X173152Y411961D01*
X173071Y411912D01*
X173000Y411851D01*
X172938Y411779D01*
X172889Y411698D01*
X172853Y411611D01*
X172831Y411519D01*
X172825Y411425D01*
X172831Y408575D01*
X172853Y408483D01*
X172889Y408396D01*
X172938Y408316D01*
X173000Y408244D01*
X173071Y408182D01*
X173152Y408133D01*
X173239Y408097D01*
X173331Y408075D01*
X173425Y408069D01*
X173998Y408070D01*
Y407500D01*
X167500D01*
Y411240D01*
G37*
G36*
X173998Y426288D02*X173565Y426286D01*
X173335Y426231D01*
X173117Y426141D01*
X173050Y426100D01*
X172983Y426141D01*
X172765Y426231D01*
X172535Y426286D01*
X172300Y426300D01*
X169665Y426286D01*
X169435Y426231D01*
X169217Y426141D01*
X169016Y426017D01*
X168836Y425864D01*
X168683Y425684D01*
X168559Y425483D01*
X168469Y425265D01*
X168414Y425035D01*
X168400Y424800D01*
X168414Y420565D01*
X168469Y420335D01*
X168559Y420117D01*
X168683Y419916D01*
X168836Y419736D01*
X169016Y419583D01*
X169217Y419459D01*
X169435Y419369D01*
X169600Y419329D01*
Y418721D01*
X167611Y416733D01*
X167500Y416760D01*
Y433865D01*
X168400Y432965D01*
X168414Y428765D01*
X168469Y428535D01*
X168559Y428317D01*
X168683Y428116D01*
X168836Y427936D01*
X169016Y427783D01*
X169217Y427659D01*
X169435Y427569D01*
X169665Y427514D01*
X169900Y427500D01*
X172535Y427514D01*
X172765Y427569D01*
X172983Y427659D01*
X173050Y427700D01*
X173117Y427659D01*
X173335Y427569D01*
X173565Y427514D01*
X173800Y427500D01*
X173998Y427501D01*
Y426288D01*
G37*
G36*
X167500Y462621D02*X167102Y463019D01*
X167064Y463064D01*
X166884Y463217D01*
X166884Y463217D01*
X166884Y463217D01*
X166791Y463274D01*
X166683Y463341D01*
X166683Y463341D01*
X166683Y463341D01*
X166594Y463377D01*
X166465Y463431D01*
X166465Y463431D01*
X166465Y463431D01*
X166365Y463455D01*
X166235Y463486D01*
X166235Y463486D01*
X166235Y463486D01*
X166000Y463505D01*
X165941Y463500D01*
X163365D01*
X163272Y463651D01*
X163230Y463700D01*
Y465500D01*
X164879D01*
X167500Y462879D01*
Y462621D01*
G37*
G36*
Y416760D02*X167439Y416774D01*
X167000Y416809D01*
X166561Y416774D01*
X166132Y416671D01*
X165725Y416503D01*
X165349Y416272D01*
X165014Y415986D01*
X164728Y415651D01*
X164497Y415275D01*
X164329Y414868D01*
X164226Y414439D01*
X164191Y414000D01*
X164226Y413561D01*
X164329Y413132D01*
X164497Y412725D01*
X164728Y412349D01*
X165014Y412014D01*
X165349Y411728D01*
X165725Y411497D01*
X166132Y411329D01*
X166561Y411226D01*
X167000Y411191D01*
X167439Y411226D01*
X167500Y411240D01*
Y407500D01*
X163230D01*
Y423714D01*
X163298Y423728D01*
X163371Y423755D01*
X163440Y423794D01*
X163502Y423843D01*
X163555Y423901D01*
X163598Y423966D01*
X163630Y424038D01*
X163706Y424271D01*
X163760Y424511D01*
X163792Y424755D01*
X163803Y425000D01*
X163792Y425245D01*
X163760Y425489D01*
X163706Y425729D01*
X163632Y425963D01*
X163600Y426035D01*
X163556Y426100D01*
X163503Y426159D01*
X163441Y426208D01*
X163372Y426246D01*
X163298Y426274D01*
X163230Y426288D01*
Y434479D01*
X163275Y434497D01*
X163651Y434728D01*
X163986Y435014D01*
X164272Y435349D01*
X164503Y435725D01*
X164671Y436132D01*
X164774Y436561D01*
X164800Y437000D01*
X164774Y437439D01*
X164671Y437868D01*
X164503Y438275D01*
X164272Y438651D01*
X163986Y438986D01*
X163651Y439272D01*
X163275Y439503D01*
X163230Y439521D01*
Y442295D01*
X163486Y442514D01*
X163772Y442849D01*
X164003Y443225D01*
X164171Y443632D01*
X164274Y444061D01*
X164300Y444500D01*
X164274Y444939D01*
X164171Y445368D01*
X164003Y445775D01*
X163772Y446151D01*
X163486Y446486D01*
X163470Y446500D01*
X164103D01*
X164162Y446495D01*
X164397Y446514D01*
X164397Y446514D01*
X164627Y446569D01*
X164845Y446659D01*
X165046Y446783D01*
X165226Y446936D01*
X165264Y446981D01*
X167500Y449217D01*
Y444928D01*
X165831Y444925D01*
X165739Y444903D01*
X165652Y444867D01*
X165571Y444818D01*
X165500Y444756D01*
X165438Y444684D01*
X165389Y444604D01*
X165353Y444517D01*
X165331Y444425D01*
X165325Y444331D01*
X165331Y441481D01*
X165353Y441389D01*
X165389Y441302D01*
X165438Y441221D01*
X165500Y441149D01*
X165571Y441088D01*
X165652Y441039D01*
X165739Y441002D01*
X165831Y440980D01*
X165925Y440975D01*
X167500Y440978D01*
Y439304D01*
X167147Y439276D01*
X166803Y439194D01*
X166475Y439058D01*
X166414Y439021D01*
X165831Y439020D01*
X165739Y438998D01*
X165652Y438961D01*
X165571Y438912D01*
X165500Y438851D01*
X165438Y438779D01*
X165389Y438698D01*
X165353Y438611D01*
X165331Y438519D01*
X165325Y438425D01*
X165327Y437633D01*
X165271Y437400D01*
X165243Y437047D01*
X165271Y436694D01*
X165329Y436452D01*
X165331Y435575D01*
X165353Y435483D01*
X165389Y435396D01*
X165438Y435316D01*
X165500Y435244D01*
X165571Y435182D01*
X165652Y435133D01*
X165739Y435097D01*
X165831Y435075D01*
X165925Y435069D01*
X166295Y435070D01*
X167500Y433865D01*
Y416760D01*
G37*
G36*
X163230Y463700D02*X162986Y463986D01*
X162651Y464272D01*
X162275Y464503D01*
X161868Y464671D01*
X161439Y464774D01*
X161000Y464809D01*
X160561Y464774D01*
X160263Y464703D01*
Y465500D01*
X163230D01*
Y463700D01*
G37*
G36*
Y439521D02*X162868Y439671D01*
X162439Y439774D01*
X162000Y439809D01*
X161561Y439774D01*
X161132Y439671D01*
X160725Y439503D01*
X160349Y439272D01*
X160263Y439199D01*
Y441982D01*
X160632Y441829D01*
X161061Y441726D01*
X161500Y441691D01*
X161939Y441726D01*
X162368Y441829D01*
X162775Y441997D01*
X163151Y442228D01*
X163230Y442295D01*
Y439521D01*
G37*
G36*
Y407500D02*X160263D01*
Y417828D01*
X161472Y417831D01*
X161564Y417853D01*
X161651Y417889D01*
X161732Y417938D01*
X161804Y418000D01*
X161865Y418071D01*
X161914Y418152D01*
X161950Y418239D01*
X161972Y418331D01*
X161978Y418425D01*
X161972Y421669D01*
X161950Y421761D01*
X161914Y421848D01*
X161865Y421929D01*
X161804Y422000D01*
X161732Y422062D01*
X161651Y422111D01*
X161564Y422147D01*
X161500Y422163D01*
Y422243D01*
X161729Y422294D01*
X161963Y422368D01*
X162035Y422400D01*
X162100Y422444D01*
X162159Y422497D01*
X162208Y422559D01*
X162246Y422628D01*
X162274Y422702D01*
X162290Y422779D01*
X162293Y422858D01*
X162284Y422937D01*
X162263Y423013D01*
X162230Y423085D01*
X162186Y423150D01*
X162133Y423209D01*
X162071Y423258D01*
X162002Y423296D01*
X161928Y423324D01*
X161851Y423340D01*
X161772Y423343D01*
X161693Y423334D01*
X161618Y423311D01*
X161500Y423272D01*
Y423379D01*
X162061Y423939D01*
X162217Y424116D01*
X162341Y424317D01*
X162431Y424535D01*
X162486Y424765D01*
X162505Y425000D01*
X162486Y425235D01*
X162431Y425465D01*
X162341Y425683D01*
X162217Y425884D01*
X162064Y426064D01*
X161884Y426217D01*
X161683Y426341D01*
X161465Y426431D01*
X161235Y426486D01*
X161000Y426505D01*
X160765Y426486D01*
X160535Y426431D01*
X160317Y426341D01*
X160263Y426308D01*
Y426661D01*
X160307Y426666D01*
X160382Y426689D01*
X160532Y426738D01*
X160686Y426772D01*
X160842Y426793D01*
X161000Y426800D01*
X161158Y426793D01*
X161314Y426772D01*
X161468Y426738D01*
X161618Y426690D01*
X161694Y426668D01*
X161772Y426659D01*
X161850Y426662D01*
X161927Y426678D01*
X162001Y426705D01*
X162070Y426744D01*
X162131Y426793D01*
X162185Y426851D01*
X162228Y426916D01*
X162261Y426988D01*
X162282Y427064D01*
X162291Y427142D01*
X162288Y427220D01*
X162272Y427298D01*
X162245Y427371D01*
X162206Y427440D01*
X162157Y427502D01*
X162099Y427555D01*
X162034Y427598D01*
X161962Y427630D01*
X161729Y427706D01*
X161489Y427760D01*
X161245Y427792D01*
X161000Y427803D01*
X160755Y427792D01*
X160511Y427760D01*
X160271Y427706D01*
X160263Y427704D01*
Y434801D01*
X160349Y434728D01*
X160725Y434497D01*
X161132Y434329D01*
X161561Y434226D01*
X162000Y434191D01*
X162439Y434226D01*
X162868Y434329D01*
X163230Y434479D01*
Y426288D01*
X163221Y426290D01*
X163142Y426293D01*
X163063Y426284D01*
X162987Y426263D01*
X162915Y426230D01*
X162850Y426186D01*
X162791Y426133D01*
X162742Y426071D01*
X162704Y426002D01*
X162676Y425928D01*
X162660Y425851D01*
X162657Y425772D01*
X162666Y425693D01*
X162689Y425618D01*
X162738Y425468D01*
X162772Y425314D01*
X162793Y425158D01*
X162800Y425000D01*
X162793Y424842D01*
X162772Y424686D01*
X162738Y424532D01*
X162690Y424382D01*
X162668Y424306D01*
X162659Y424228D01*
X162662Y424150D01*
X162678Y424073D01*
X162705Y423999D01*
X162744Y423930D01*
X162793Y423869D01*
X162851Y423815D01*
X162916Y423772D01*
X162988Y423739D01*
X163064Y423718D01*
X163142Y423709D01*
X163220Y423712D01*
X163230Y423714D01*
Y407500D01*
G37*
G36*
X160263Y464703D02*X160132Y464671D01*
X159725Y464503D01*
X159349Y464272D01*
X159014Y463986D01*
X158728Y463651D01*
X158497Y463275D01*
X158329Y462868D01*
X158226Y462439D01*
X158191Y462000D01*
X158226Y461561D01*
X158329Y461132D01*
X158497Y460725D01*
X158728Y460349D01*
X159014Y460014D01*
X159349Y459728D01*
X159725Y459497D01*
X160132Y459329D01*
X160263Y459297D01*
Y453528D01*
X160214Y453486D01*
X160000Y453235D01*
Y457441D01*
X160005Y457500D01*
X159986Y457735D01*
X159931Y457965D01*
X159841Y458183D01*
X159717Y458384D01*
X159564Y458564D01*
X159519Y458602D01*
X156929Y461192D01*
Y467950D01*
X157005Y467873D01*
X157014Y467765D01*
X157069Y467535D01*
X157159Y467317D01*
X157283Y467116D01*
X157436Y466936D01*
X157616Y466783D01*
X157817Y466659D01*
X158035Y466569D01*
X158265Y466514D01*
X158371Y466508D01*
X158898Y465981D01*
X158936Y465936D01*
X159116Y465783D01*
X159317Y465659D01*
X159535Y465569D01*
X159765Y465514D01*
X160000Y465495D01*
X160059Y465500D01*
X160263D01*
Y464703D01*
G37*
G36*
Y439199D02*X160014Y438986D01*
X159728Y438651D01*
X159635Y438500D01*
X156929D01*
Y442944D01*
X156936Y442936D01*
X157116Y442783D01*
X157317Y442659D01*
X157535Y442569D01*
X157765Y442514D01*
X158000Y442495D01*
X158059Y442500D01*
X159530D01*
X159849Y442228D01*
X160225Y441997D01*
X160263Y441982D01*
Y439199D01*
G37*
G36*
Y407500D02*X158121D01*
X157233Y408389D01*
X157274Y408561D01*
X157300Y409000D01*
X157274Y409439D01*
X157171Y409868D01*
X157003Y410275D01*
X156929Y410395D01*
Y435500D01*
X159635D01*
X159728Y435349D01*
X160014Y435014D01*
X160263Y434801D01*
Y427704D01*
X160037Y427632D01*
X159965Y427600D01*
X159900Y427556D01*
X159841Y427503D01*
X159792Y427441D01*
X159754Y427372D01*
X159726Y427298D01*
X159710Y427221D01*
X159707Y427142D01*
X159716Y427063D01*
X159737Y426987D01*
X159770Y426915D01*
X159814Y426850D01*
X159867Y426791D01*
X159929Y426742D01*
X159998Y426704D01*
X160072Y426676D01*
X160149Y426660D01*
X160228Y426657D01*
X160263Y426661D01*
Y426308D01*
X160116Y426217D01*
X159939Y426061D01*
X159238Y425359D01*
X159262Y425468D01*
X159310Y425618D01*
X159332Y425694D01*
X159341Y425772D01*
X159338Y425850D01*
X159322Y425927D01*
X159295Y426001D01*
X159256Y426070D01*
X159207Y426131D01*
X159149Y426185D01*
X159084Y426228D01*
X159012Y426261D01*
X158936Y426282D01*
X158858Y426291D01*
X158780Y426288D01*
X158702Y426272D01*
X158629Y426245D01*
X158560Y426206D01*
X158498Y426157D01*
X158445Y426099D01*
X158402Y426034D01*
X158370Y425962D01*
X158294Y425729D01*
X158240Y425489D01*
X158208Y425245D01*
X158197Y425000D01*
X158208Y424755D01*
X158240Y424511D01*
X158294Y424271D01*
X158368Y424037D01*
X158400Y423965D01*
X158444Y423900D01*
X158497Y423841D01*
X158500Y423839D01*
Y422163D01*
X158436Y422147D01*
X158349Y422111D01*
X158268Y422062D01*
X158196Y422000D01*
X158135Y421929D01*
X158086Y421848D01*
X158050Y421761D01*
X158028Y421669D01*
X158022Y421575D01*
X158028Y418331D01*
X158050Y418239D01*
X158086Y418152D01*
X158135Y418071D01*
X158196Y418000D01*
X158268Y417938D01*
X158349Y417889D01*
X158436Y417853D01*
X158528Y417831D01*
X158622Y417825D01*
X160263Y417828D01*
Y407500D01*
G37*
G36*
X176250Y404000D02*X156929D01*
Y404613D01*
X157035Y404569D01*
X157265Y404514D01*
X157500Y404495D01*
X157559Y404500D01*
X176250D01*
Y404000D01*
G37*
G36*
X166603Y471194D02*X166634Y471144D01*
X166869Y470869D01*
X167144Y470634D01*
X167453Y470444D01*
X167787Y470306D01*
X168139Y470221D01*
X168500Y470193D01*
X168861Y470221D01*
X169213Y470306D01*
X169547Y470444D01*
X169856Y470634D01*
X170131Y470869D01*
X170366Y471144D01*
X170500Y471362D01*
Y471138D01*
X170444Y471047D01*
X170306Y470713D01*
X170221Y470361D01*
X170193Y470000D01*
X170221Y469639D01*
X170306Y469287D01*
X170444Y468953D01*
X170634Y468644D01*
X170869Y468369D01*
X171144Y468134D01*
X171453Y467944D01*
X171787Y467806D01*
X172139Y467721D01*
X172500Y467693D01*
X172861Y467721D01*
X173213Y467806D01*
X173547Y467944D01*
X173856Y468134D01*
X174131Y468369D01*
X174366Y468644D01*
X174556Y468953D01*
X174694Y469287D01*
X174779Y469639D01*
X174800Y470000D01*
X174779Y470361D01*
X174694Y470713D01*
X174556Y471047D01*
X174366Y471356D01*
X174131Y471631D01*
X173856Y471866D01*
X173628Y472006D01*
X175019Y473398D01*
X175064Y473436D01*
X175217Y473615D01*
X175217Y473616D01*
X175341Y473817D01*
X175431Y474035D01*
X175486Y474265D01*
X175505Y474500D01*
X175500Y474559D01*
Y474879D01*
X176250Y474129D01*
Y472931D01*
X176144Y472866D01*
X175869Y472631D01*
X175634Y472356D01*
X175444Y472047D01*
X175306Y471713D01*
X175221Y471361D01*
X175193Y471000D01*
X175221Y470639D01*
X175306Y470287D01*
X175444Y469953D01*
X175634Y469644D01*
X175869Y469369D01*
X176144Y469134D01*
X176250Y469069D01*
Y464000D01*
X170621D01*
X166603Y468018D01*
Y471194D01*
G37*
G36*
Y490500D02*X176250D01*
Y484062D01*
X176110Y484062D01*
X176034Y484044D01*
X175961Y484013D01*
X175894Y483972D01*
X175834Y483921D01*
X175783Y483861D01*
X175742Y483794D01*
X175712Y483721D01*
X175693Y483645D01*
X175688Y483567D01*
X175691Y479764D01*
X175616Y479717D01*
X175436Y479564D01*
X175427Y479553D01*
X175424Y483645D01*
X175405Y483721D01*
X175375Y483794D01*
X175334Y483861D01*
X175283Y483921D01*
X175223Y483972D01*
X175156Y484013D01*
X175083Y484044D01*
X175007Y484062D01*
X174928Y484067D01*
X173551Y484062D01*
X173475Y484044D01*
X173402Y484013D01*
X173335Y483972D01*
X173275Y483921D01*
X173224Y483861D01*
X173183Y483794D01*
X173152Y483721D01*
X173134Y483645D01*
X173129Y483567D01*
X173131Y481128D01*
X173062Y481297D01*
X172938Y481498D01*
X172867Y481581D01*
X172866Y483645D01*
X172847Y483721D01*
X172817Y483794D01*
X172776Y483861D01*
X172725Y483921D01*
X172665Y483972D01*
X172598Y484013D01*
X172525Y484044D01*
X172449Y484062D01*
X172370Y484067D01*
X170993Y484062D01*
X170917Y484044D01*
X170844Y484013D01*
X170777Y483972D01*
X170717Y483921D01*
X170666Y483861D01*
X170625Y483794D01*
X170594Y483721D01*
X170576Y483645D01*
X170571Y483567D01*
X170573Y481580D01*
X170504Y481498D01*
X170380Y481297D01*
X170309Y481125D01*
X170307Y483645D01*
X170288Y483721D01*
X170258Y483794D01*
X170217Y483861D01*
X170166Y483921D01*
X170106Y483972D01*
X170039Y484013D01*
X169966Y484044D01*
X169890Y484062D01*
X169812Y484067D01*
X168434Y484062D01*
X168358Y484044D01*
X168285Y484013D01*
X168218Y483972D01*
X168158Y483921D01*
X168107Y483861D01*
X168066Y483794D01*
X168036Y483721D01*
X168017Y483645D01*
X168012Y483567D01*
X168017Y477583D01*
X168036Y477507D01*
X168066Y477434D01*
X168107Y477367D01*
X168158Y477307D01*
X168218Y477256D01*
X168285Y477215D01*
X168358Y477185D01*
X168434Y477166D01*
X168512Y477162D01*
X169890Y477166D01*
X169966Y477185D01*
X170039Y477215D01*
X170106Y477256D01*
X170166Y477307D01*
X170217Y477367D01*
X170221Y477373D01*
Y477342D01*
X169379Y476500D01*
X168559D01*
X168500Y476505D01*
X168265Y476486D01*
X168035Y476431D01*
X167817Y476341D01*
X167616Y476217D01*
X167615Y476217D01*
X167436Y476064D01*
X167398Y476019D01*
X166603Y475224D01*
Y477164D01*
X167331Y477166D01*
X167407Y477185D01*
X167480Y477215D01*
X167547Y477256D01*
X167607Y477307D01*
X167658Y477367D01*
X167699Y477434D01*
X167729Y477507D01*
X167748Y477583D01*
X167752Y477662D01*
X167748Y483645D01*
X167729Y483721D01*
X167699Y483794D01*
X167658Y483861D01*
X167607Y483921D01*
X167547Y483972D01*
X167480Y484013D01*
X167407Y484044D01*
X167331Y484062D01*
X167252Y484067D01*
X166603Y484064D01*
Y490500D01*
G37*
G36*
X164044D02*X166603D01*
Y484064D01*
X165875Y484062D01*
X165799Y484044D01*
X165726Y484013D01*
X165659Y483972D01*
X165599Y483921D01*
X165548Y483861D01*
X165507Y483794D01*
X165476Y483721D01*
X165458Y483645D01*
X165453Y483567D01*
X165458Y477583D01*
X165476Y477507D01*
X165507Y477434D01*
X165548Y477367D01*
X165599Y477307D01*
X165659Y477256D01*
X165726Y477215D01*
X165799Y477185D01*
X165875Y477166D01*
X165953Y477162D01*
X166603Y477164D01*
Y475224D01*
X166481Y475102D01*
X166436Y475064D01*
X166283Y474884D01*
X166159Y474683D01*
X166069Y474465D01*
X166014Y474235D01*
X166014Y474235D01*
X165995Y474000D01*
X166000Y473941D01*
Y473559D01*
X165995Y473500D01*
X166014Y473265D01*
X166069Y473035D01*
X166159Y472817D01*
X166211Y472732D01*
X166193Y472500D01*
X166221Y472139D01*
X166306Y471787D01*
X166444Y471453D01*
X166603Y471194D01*
Y468018D01*
X166602Y468019D01*
X166564Y468064D01*
X166384Y468217D01*
X166183Y468341D01*
X165965Y468431D01*
X165735Y468486D01*
X165735Y468486D01*
X165500Y468505D01*
X165441Y468500D01*
X164044D01*
Y477164D01*
X164772Y477166D01*
X164848Y477185D01*
X164921Y477215D01*
X164988Y477256D01*
X165048Y477307D01*
X165099Y477367D01*
X165140Y477434D01*
X165170Y477507D01*
X165189Y477583D01*
X165194Y477662D01*
X165189Y483645D01*
X165170Y483721D01*
X165140Y483794D01*
X165099Y483861D01*
X165048Y483921D01*
X164988Y483972D01*
X164921Y484013D01*
X164848Y484044D01*
X164772Y484062D01*
X164694Y484067D01*
X164044Y484064D01*
Y490500D01*
G37*
G36*
X156929D02*X164044D01*
Y484064D01*
X163316Y484062D01*
X163240Y484044D01*
X163167Y484013D01*
X163100Y483972D01*
X163040Y483921D01*
X162989Y483861D01*
X162948Y483794D01*
X162918Y483721D01*
X162899Y483645D01*
X162894Y483567D01*
X162899Y477583D01*
X162918Y477507D01*
X162948Y477434D01*
X162989Y477367D01*
X163040Y477307D01*
X163100Y477256D01*
X163167Y477215D01*
X163240Y477185D01*
X163316Y477166D01*
X163394Y477162D01*
X164044Y477164D01*
Y468500D01*
X160621D01*
X160102Y469019D01*
X160064Y469064D01*
X160019Y469102D01*
X158500Y470621D01*
Y478635D01*
X158651Y478728D01*
X158986Y479014D01*
X159272Y479349D01*
X159503Y479725D01*
X159671Y480132D01*
X159774Y480561D01*
X159800Y481000D01*
X159774Y481439D01*
X159671Y481868D01*
X159503Y482275D01*
X159272Y482651D01*
X158986Y482986D01*
X158651Y483272D01*
X158275Y483503D01*
X157868Y483671D01*
X157439Y483774D01*
X157000Y483809D01*
X156929Y483803D01*
Y490500D01*
G37*
G36*
X153132Y406554D02*X153225Y406497D01*
X153632Y406329D01*
X154061Y406226D01*
X154500Y406191D01*
X154939Y406226D01*
X155111Y406267D01*
X156398Y404981D01*
X156436Y404936D01*
X156615Y404783D01*
X156616Y404783D01*
X156817Y404659D01*
X156929Y404613D01*
Y404000D01*
X153132D01*
Y406554D01*
G37*
G36*
Y436497D02*X153200Y436491D01*
X153639Y436526D01*
X153811Y436567D01*
X154398Y435981D01*
X154436Y435936D01*
X154615Y435783D01*
X154616Y435783D01*
X154817Y435659D01*
X155035Y435569D01*
X155265Y435514D01*
X155500Y435495D01*
X155559Y435500D01*
X156929D01*
Y410395D01*
X156772Y410651D01*
X156486Y410986D01*
X156151Y411272D01*
X155775Y411503D01*
X155368Y411671D01*
X154939Y411774D01*
X154500Y411809D01*
X154061Y411774D01*
X153632Y411671D01*
X153225Y411503D01*
X153132Y411446D01*
Y417826D01*
X155567Y417831D01*
X155658Y417853D01*
X155746Y417889D01*
X155826Y417938D01*
X155898Y418000D01*
X155959Y418071D01*
X156009Y418152D01*
X156045Y418239D01*
X156067Y418331D01*
X156072Y418425D01*
X156067Y421669D01*
X156045Y421761D01*
X156009Y421848D01*
X155959Y421929D01*
X155898Y422000D01*
X155826Y422062D01*
X155746Y422111D01*
X155658Y422147D01*
X155567Y422169D01*
X155472Y422175D01*
X155123Y422174D01*
X155272Y422349D01*
X155503Y422725D01*
X155671Y423132D01*
X155774Y423561D01*
X155800Y424000D01*
X155774Y424439D01*
X155671Y424868D01*
X155503Y425275D01*
X155272Y425651D01*
X154986Y425986D01*
X154651Y426272D01*
X154275Y426503D01*
X153868Y426671D01*
X153439Y426774D01*
X153132Y426798D01*
Y436497D01*
G37*
G36*
Y443773D02*X153317Y443659D01*
X153535Y443569D01*
X153765Y443514D01*
X154000Y443495D01*
X154059Y443500D01*
X156379D01*
X156898Y442981D01*
X156929Y442944D01*
Y438500D01*
X156121D01*
X155933Y438689D01*
X155974Y438861D01*
X156000Y439300D01*
X155974Y439739D01*
X155871Y440168D01*
X155703Y440575D01*
X155472Y440951D01*
X155186Y441286D01*
X154851Y441572D01*
X154475Y441803D01*
X154068Y441971D01*
X153639Y442074D01*
X153200Y442109D01*
X153132Y442103D01*
Y443773D01*
G37*
G36*
Y460747D02*X156929Y456950D01*
Y450587D01*
X156725Y450503D01*
X156349Y450272D01*
X156014Y449986D01*
X155728Y449651D01*
X155497Y449275D01*
X155329Y448868D01*
X155226Y448439D01*
X155191Y448000D01*
X155226Y447561D01*
X155329Y447132D01*
X155497Y446725D01*
X155635Y446500D01*
X154621D01*
X154100Y447021D01*
Y451699D01*
X154439Y451726D01*
X154868Y451829D01*
X155275Y451997D01*
X155651Y452228D01*
X155986Y452514D01*
X156272Y452849D01*
X156503Y453225D01*
X156671Y453632D01*
X156774Y454061D01*
X156800Y454500D01*
X156774Y454939D01*
X156671Y455368D01*
X156503Y455775D01*
X156272Y456151D01*
X155986Y456486D01*
X155651Y456772D01*
X155275Y457003D01*
X154868Y457171D01*
X154439Y457274D01*
X154000Y457309D01*
X153561Y457274D01*
X153132Y457171D01*
X153132Y457171D01*
Y460747D01*
G37*
G36*
Y490500D02*X156929D01*
Y483803D01*
X156561Y483774D01*
X156132Y483671D01*
X155725Y483503D01*
X155349Y483272D01*
X155014Y482986D01*
X154728Y482651D01*
X154497Y482275D01*
X154329Y481868D01*
X154226Y481439D01*
X154191Y481000D01*
X154226Y480561D01*
X154329Y480132D01*
X154497Y479725D01*
X154728Y479349D01*
X155014Y479014D01*
X155349Y478728D01*
X155500Y478635D01*
Y470059D01*
X155495Y470000D01*
X155514Y469765D01*
X155569Y469535D01*
X155659Y469317D01*
X155783Y469116D01*
X155936Y468936D01*
X155981Y468898D01*
X156929Y467950D01*
Y461192D01*
X153132Y464989D01*
Y471216D01*
X153151Y471228D01*
X153486Y471514D01*
X153772Y471849D01*
X154003Y472225D01*
X154171Y472632D01*
X154274Y473061D01*
X154300Y473500D01*
X154274Y473939D01*
X154171Y474368D01*
X154003Y474775D01*
X153772Y475151D01*
X153486Y475486D01*
X153151Y475772D01*
X153132Y475784D01*
Y490500D01*
G37*
G36*
Y464989D02*X153000Y465121D01*
Y471135D01*
X153132Y471216D01*
Y464989D01*
G37*
G36*
X148284Y470203D02*X148575Y470678D01*
X148816Y471260D01*
X148963Y471872D01*
X148985Y472254D01*
X148997Y472225D01*
X149228Y471849D01*
X149514Y471514D01*
X149849Y471228D01*
X150000Y471135D01*
Y464559D01*
X149995Y464500D01*
X150014Y464265D01*
X150069Y464035D01*
X150159Y463817D01*
X150283Y463616D01*
X150283Y463615D01*
X150436Y463436D01*
X150481Y463398D01*
X153132Y460747D01*
Y457171D01*
X152725Y457003D01*
X152349Y456772D01*
X152014Y456486D01*
X151728Y456151D01*
X151497Y455775D01*
X151329Y455368D01*
X151226Y454939D01*
X151191Y454500D01*
X151226Y454061D01*
X151283Y453822D01*
X151259Y453783D01*
X151169Y453565D01*
X151114Y453335D01*
X151114Y453335D01*
X151095Y453100D01*
X151100Y453041D01*
Y446459D01*
X151095Y446400D01*
X151114Y446165D01*
X151169Y445935D01*
X151259Y445717D01*
X151383Y445516D01*
X151536Y445336D01*
X151581Y445298D01*
X152898Y443981D01*
X152936Y443936D01*
X153116Y443783D01*
X153132Y443773D01*
Y442103D01*
X152761Y442074D01*
X152332Y441971D01*
X151925Y441803D01*
X151549Y441572D01*
X151214Y441286D01*
X150928Y440951D01*
X150697Y440575D01*
X150529Y440168D01*
X150426Y439739D01*
X150391Y439300D01*
X150426Y438861D01*
X150529Y438432D01*
X150697Y438025D01*
X150928Y437649D01*
X151214Y437314D01*
X151549Y437028D01*
X151925Y436797D01*
X152332Y436629D01*
X152761Y436526D01*
X153132Y436497D01*
Y426798D01*
X153000Y426809D01*
X152561Y426774D01*
X152132Y426671D01*
X151725Y426503D01*
X151349Y426272D01*
X151014Y425986D01*
X150728Y425651D01*
X150497Y425275D01*
X150329Y424868D01*
X150226Y424439D01*
X150191Y424000D01*
X150226Y423561D01*
X150329Y423132D01*
X150497Y422725D01*
X150728Y422349D01*
X151014Y422014D01*
X151349Y421728D01*
X151500Y421635D01*
Y421153D01*
X151495Y421094D01*
X151514Y420859D01*
X151569Y420630D01*
X151659Y420411D01*
X151783Y420210D01*
X151783Y420210D01*
X151936Y420031D01*
X151981Y419992D01*
X152119Y419854D01*
X152122Y418331D01*
X152144Y418239D01*
X152180Y418152D01*
X152230Y418071D01*
X152291Y418000D01*
X152363Y417938D01*
X152443Y417889D01*
X152531Y417853D01*
X152622Y417831D01*
X152717Y417825D01*
X153132Y417826D01*
Y411446D01*
X152849Y411272D01*
X152514Y410986D01*
X152228Y410651D01*
X151997Y410275D01*
X151829Y409868D01*
X151726Y409439D01*
X151691Y409000D01*
X151726Y408561D01*
X151829Y408132D01*
X151997Y407725D01*
X152228Y407349D01*
X152514Y407014D01*
X152849Y406728D01*
X153132Y406554D01*
Y404000D01*
X148284D01*
Y410203D01*
X148575Y410678D01*
X148816Y411260D01*
X148963Y411872D01*
X149000Y412500D01*
X148963Y413128D01*
X148816Y413740D01*
X148575Y414322D01*
X148284Y414797D01*
Y417703D01*
X148575Y418178D01*
X148816Y418760D01*
X148963Y419372D01*
X149000Y420000D01*
X148963Y420628D01*
X148816Y421240D01*
X148575Y421822D01*
X148284Y422297D01*
Y425203D01*
X148575Y425678D01*
X148816Y426260D01*
X148963Y426872D01*
X149000Y427500D01*
X148963Y428128D01*
X148816Y428740D01*
X148575Y429322D01*
X148284Y429797D01*
Y432869D01*
X148287Y432870D01*
X148355Y432909D01*
X148416Y432958D01*
X148469Y433017D01*
X148511Y433083D01*
X148674Y433408D01*
X148803Y433748D01*
X148901Y434098D01*
X148967Y434456D01*
X149000Y434818D01*
Y435182D01*
X148967Y435544D01*
X148901Y435902D01*
X148803Y436252D01*
X148674Y436592D01*
X148515Y436919D01*
X148472Y436985D01*
X148419Y437044D01*
X148357Y437094D01*
X148288Y437133D01*
X148284Y437135D01*
Y440203D01*
X148575Y440678D01*
X148816Y441260D01*
X148963Y441872D01*
X149000Y442500D01*
X148963Y443128D01*
X148816Y443740D01*
X148575Y444322D01*
X148284Y444797D01*
Y447703D01*
X148575Y448178D01*
X148816Y448760D01*
X148963Y449372D01*
X149000Y450000D01*
X148963Y450628D01*
X148816Y451240D01*
X148575Y451822D01*
X148284Y452297D01*
Y455203D01*
X148575Y455678D01*
X148816Y456260D01*
X148963Y456872D01*
X149000Y457500D01*
X148963Y458128D01*
X148816Y458740D01*
X148575Y459322D01*
X148284Y459797D01*
Y462869D01*
X148287Y462870D01*
X148355Y462909D01*
X148416Y462958D01*
X148469Y463017D01*
X148511Y463083D01*
X148674Y463408D01*
X148803Y463748D01*
X148901Y464098D01*
X148967Y464456D01*
X149000Y464818D01*
Y465182D01*
X148967Y465544D01*
X148901Y465902D01*
X148803Y466252D01*
X148674Y466592D01*
X148515Y466919D01*
X148472Y466985D01*
X148419Y467044D01*
X148357Y467094D01*
X148288Y467133D01*
X148284Y467135D01*
Y470203D01*
G37*
G36*
Y490500D02*X153132D01*
Y475784D01*
X152775Y476003D01*
X152368Y476171D01*
X151939Y476274D01*
X151500Y476309D01*
X151061Y476274D01*
X150632Y476171D01*
X150225Y476003D01*
X149849Y475772D01*
X149514Y475486D01*
X149228Y475151D01*
X148997Y474775D01*
X148829Y474368D01*
X148729Y473951D01*
X148575Y474322D01*
X148284Y474797D01*
Y477703D01*
X148575Y478178D01*
X148816Y478760D01*
X148963Y479372D01*
X149000Y480000D01*
X148963Y480628D01*
X148816Y481240D01*
X148575Y481822D01*
X148284Y482297D01*
Y490500D01*
G37*
G36*
Y422297D02*X148246Y422358D01*
X147837Y422837D01*
X147358Y423246D01*
X146822Y423575D01*
X146399Y423750D01*
X146822Y423925D01*
X147358Y424254D01*
X147837Y424663D01*
X148246Y425142D01*
X148284Y425203D01*
Y422297D01*
G37*
G36*
Y414797D02*X148246Y414858D01*
X147837Y415337D01*
X147358Y415746D01*
X146822Y416075D01*
X146399Y416250D01*
X146822Y416425D01*
X147358Y416754D01*
X147837Y417163D01*
X148246Y417642D01*
X148284Y417703D01*
Y414797D01*
G37*
G36*
Y452297D02*X148246Y452358D01*
X147837Y452837D01*
X147358Y453246D01*
X146822Y453575D01*
X146399Y453750D01*
X146822Y453925D01*
X147358Y454254D01*
X147837Y454663D01*
X148246Y455142D01*
X148284Y455203D01*
Y452297D01*
G37*
G36*
Y444797D02*X148246Y444858D01*
X147837Y445337D01*
X147358Y445746D01*
X146822Y446075D01*
X146399Y446250D01*
X146822Y446425D01*
X147358Y446754D01*
X147837Y447163D01*
X148246Y447642D01*
X148284Y447703D01*
Y444797D01*
G37*
G36*
Y474797D02*X148246Y474858D01*
X147837Y475337D01*
X147358Y475746D01*
X146822Y476075D01*
X146399Y476250D01*
X146822Y476425D01*
X147358Y476754D01*
X147837Y477163D01*
X148246Y477642D01*
X148284Y477703D01*
Y474797D01*
G37*
G36*
X141716Y410203D02*X141754Y410142D01*
X142163Y409663D01*
X142642Y409254D01*
X143178Y408925D01*
X143760Y408684D01*
X144372Y408537D01*
X145000Y408488D01*
X145628Y408537D01*
X146240Y408684D01*
X146822Y408925D01*
X147358Y409254D01*
X147837Y409663D01*
X148246Y410142D01*
X148284Y410203D01*
Y404000D01*
X143000D01*
X141716Y404856D01*
Y410203D01*
G37*
G36*
Y417703D02*X141754Y417642D01*
X142163Y417163D01*
X142642Y416754D01*
X143178Y416425D01*
X143601Y416250D01*
X143178Y416075D01*
X142642Y415746D01*
X142163Y415337D01*
X141754Y414858D01*
X141716Y414797D01*
Y417703D01*
G37*
G36*
Y425203D02*X141754Y425142D01*
X142163Y424663D01*
X142642Y424254D01*
X143178Y423925D01*
X143601Y423750D01*
X143178Y423575D01*
X142642Y423246D01*
X142163Y422837D01*
X141754Y422358D01*
X141716Y422297D01*
Y425203D01*
G37*
G36*
Y440203D02*X141754Y440142D01*
X142163Y439663D01*
X142642Y439254D01*
X143178Y438925D01*
X143604Y438749D01*
X143408Y438674D01*
X143081Y438515D01*
X143015Y438472D01*
X142956Y438419D01*
X142906Y438357D01*
X142867Y438288D01*
X142839Y438214D01*
X142823Y438137D01*
X142819Y438058D01*
X142827Y437979D01*
X142848Y437903D01*
X142880Y437830D01*
X142923Y437764D01*
X142976Y437705D01*
X143038Y437656D01*
X143107Y437616D01*
X143181Y437588D01*
X143258Y437572D01*
X143337Y437568D01*
X143416Y437576D01*
X143493Y437597D01*
X143564Y437630D01*
X143807Y437753D01*
X144062Y437850D01*
X144324Y437923D01*
X144592Y437972D01*
X144864Y437997D01*
X145136D01*
X145408Y437972D01*
X145676Y437923D01*
X145938Y437850D01*
X146193Y437753D01*
X146437Y437633D01*
X146509Y437600D01*
X146584Y437579D01*
X146663Y437571D01*
X146741Y437575D01*
X146818Y437591D01*
X146892Y437619D01*
X146960Y437658D01*
X147021Y437707D01*
X147074Y437766D01*
X147117Y437832D01*
X147149Y437904D01*
X147170Y437980D01*
X147178Y438058D01*
X147174Y438136D01*
X147158Y438213D01*
X147130Y438287D01*
X147091Y438355D01*
X147042Y438416D01*
X146983Y438469D01*
X146917Y438511D01*
X146592Y438674D01*
X146396Y438749D01*
X146822Y438925D01*
X147358Y439254D01*
X147837Y439663D01*
X148246Y440142D01*
X148284Y440203D01*
Y437135D01*
X148214Y437161D01*
X148137Y437177D01*
X148058Y437181D01*
X147979Y437173D01*
X147903Y437152D01*
X147830Y437120D01*
X147764Y437077D01*
X147705Y437024D01*
X147656Y436962D01*
X147616Y436893D01*
X147588Y436819D01*
X147572Y436742D01*
X147568Y436663D01*
X147576Y436584D01*
X147597Y436507D01*
X147630Y436436D01*
X147753Y436193D01*
X147850Y435938D01*
X147923Y435676D01*
X147972Y435408D01*
X147997Y435136D01*
Y434864D01*
X147972Y434592D01*
X147923Y434324D01*
X147850Y434062D01*
X147753Y433807D01*
X147633Y433563D01*
X147600Y433491D01*
X147579Y433416D01*
X147571Y433337D01*
X147575Y433259D01*
X147591Y433182D01*
X147619Y433108D01*
X147658Y433040D01*
X147707Y432979D01*
X147766Y432926D01*
X147832Y432883D01*
X147904Y432851D01*
X147980Y432830D01*
X148058Y432822D01*
X148136Y432826D01*
X148213Y432842D01*
X148284Y432869D01*
Y429797D01*
X148246Y429858D01*
X147837Y430337D01*
X147358Y430746D01*
X146822Y431075D01*
X146396Y431251D01*
X146592Y431326D01*
X146919Y431485D01*
X146985Y431528D01*
X147044Y431581D01*
X147094Y431643D01*
X147133Y431712D01*
X147161Y431786D01*
X147177Y431863D01*
X147181Y431942D01*
X147173Y432021D01*
X147152Y432097D01*
X147120Y432170D01*
X147077Y432236D01*
X147024Y432295D01*
X146962Y432344D01*
X146893Y432384D01*
X146819Y432412D01*
X146742Y432428D01*
X146663Y432432D01*
X146584Y432424D01*
X146507Y432403D01*
X146436Y432370D01*
X146193Y432247D01*
X145938Y432150D01*
X145676Y432077D01*
X145408Y432028D01*
X145136Y432003D01*
X144864D01*
X144592Y432028D01*
X144324Y432077D01*
X144062Y432150D01*
X143807Y432247D01*
X143563Y432367D01*
X143491Y432400D01*
X143415Y432421D01*
X143337Y432429D01*
X143259Y432425D01*
X143182Y432409D01*
X143108Y432381D01*
X143040Y432342D01*
X142979Y432293D01*
X142926Y432234D01*
X142883Y432168D01*
X142851Y432096D01*
X142830Y432020D01*
X142822Y431942D01*
X142826Y431864D01*
X142842Y431787D01*
X142870Y431713D01*
X142909Y431645D01*
X142958Y431584D01*
X143017Y431531D01*
X143083Y431489D01*
X143408Y431326D01*
X143604Y431251D01*
X143178Y431075D01*
X142642Y430746D01*
X142163Y430337D01*
X141754Y429858D01*
X141716Y429797D01*
Y432865D01*
X141786Y432839D01*
X141863Y432823D01*
X141942Y432819D01*
X142021Y432827D01*
X142097Y432848D01*
X142170Y432880D01*
X142236Y432923D01*
X142295Y432976D01*
X142344Y433038D01*
X142384Y433107D01*
X142412Y433181D01*
X142428Y433258D01*
X142432Y433337D01*
X142424Y433416D01*
X142403Y433493D01*
X142370Y433564D01*
X142247Y433807D01*
X142150Y434062D01*
X142077Y434324D01*
X142028Y434592D01*
X142003Y434864D01*
Y435136D01*
X142028Y435408D01*
X142077Y435676D01*
X142150Y435938D01*
X142247Y436193D01*
X142367Y436437D01*
X142400Y436509D01*
X142421Y436585D01*
X142429Y436663D01*
X142425Y436741D01*
X142409Y436818D01*
X142381Y436892D01*
X142342Y436960D01*
X142293Y437021D01*
X142234Y437074D01*
X142168Y437117D01*
X142096Y437149D01*
X142020Y437170D01*
X141942Y437178D01*
X141864Y437174D01*
X141787Y437158D01*
X141716Y437131D01*
Y440203D01*
G37*
G36*
Y447703D02*X141754Y447642D01*
X142163Y447163D01*
X142642Y446754D01*
X143178Y446425D01*
X143601Y446250D01*
X143178Y446075D01*
X142642Y445746D01*
X142163Y445337D01*
X141754Y444858D01*
X141716Y444797D01*
Y447703D01*
G37*
G36*
Y455203D02*X141754Y455142D01*
X142163Y454663D01*
X142642Y454254D01*
X143178Y453925D01*
X143601Y453750D01*
X143178Y453575D01*
X142642Y453246D01*
X142163Y452837D01*
X141754Y452358D01*
X141716Y452297D01*
Y455203D01*
G37*
G36*
Y470203D02*X141754Y470142D01*
X142163Y469663D01*
X142642Y469254D01*
X143178Y468925D01*
X143604Y468749D01*
X143408Y468674D01*
X143081Y468515D01*
X143015Y468472D01*
X142956Y468419D01*
X142906Y468357D01*
X142867Y468288D01*
X142839Y468214D01*
X142823Y468137D01*
X142819Y468058D01*
X142827Y467979D01*
X142848Y467903D01*
X142880Y467830D01*
X142923Y467764D01*
X142976Y467705D01*
X143038Y467656D01*
X143107Y467616D01*
X143181Y467588D01*
X143258Y467572D01*
X143337Y467568D01*
X143416Y467576D01*
X143493Y467597D01*
X143564Y467630D01*
X143807Y467753D01*
X144062Y467850D01*
X144324Y467923D01*
X144592Y467972D01*
X144864Y467997D01*
X145136D01*
X145408Y467972D01*
X145676Y467923D01*
X145938Y467850D01*
X146193Y467753D01*
X146437Y467633D01*
X146509Y467600D01*
X146584Y467579D01*
X146663Y467571D01*
X146741Y467575D01*
X146818Y467591D01*
X146892Y467619D01*
X146960Y467658D01*
X147021Y467707D01*
X147074Y467766D01*
X147117Y467832D01*
X147149Y467904D01*
X147170Y467980D01*
X147178Y468058D01*
X147174Y468136D01*
X147158Y468213D01*
X147130Y468287D01*
X147091Y468355D01*
X147042Y468416D01*
X146983Y468469D01*
X146917Y468511D01*
X146592Y468674D01*
X146396Y468749D01*
X146822Y468925D01*
X147358Y469254D01*
X147837Y469663D01*
X148246Y470142D01*
X148284Y470203D01*
Y467135D01*
X148214Y467161D01*
X148137Y467177D01*
X148058Y467181D01*
X147979Y467173D01*
X147903Y467152D01*
X147830Y467120D01*
X147764Y467077D01*
X147705Y467024D01*
X147656Y466962D01*
X147616Y466893D01*
X147588Y466819D01*
X147572Y466742D01*
X147568Y466663D01*
X147576Y466584D01*
X147597Y466507D01*
X147630Y466436D01*
X147753Y466193D01*
X147850Y465938D01*
X147923Y465676D01*
X147972Y465408D01*
X147997Y465136D01*
Y464864D01*
X147972Y464592D01*
X147923Y464324D01*
X147850Y464062D01*
X147753Y463807D01*
X147633Y463563D01*
X147600Y463491D01*
X147579Y463416D01*
X147571Y463337D01*
X147575Y463259D01*
X147591Y463182D01*
X147619Y463108D01*
X147658Y463040D01*
X147707Y462979D01*
X147766Y462926D01*
X147832Y462883D01*
X147904Y462851D01*
X147980Y462830D01*
X148058Y462822D01*
X148136Y462826D01*
X148213Y462842D01*
X148284Y462869D01*
Y459797D01*
X148246Y459858D01*
X147837Y460337D01*
X147358Y460746D01*
X146822Y461075D01*
X146396Y461251D01*
X146592Y461326D01*
X146919Y461485D01*
X146985Y461528D01*
X147044Y461581D01*
X147094Y461643D01*
X147133Y461712D01*
X147161Y461786D01*
X147177Y461863D01*
X147181Y461942D01*
X147173Y462021D01*
X147152Y462097D01*
X147120Y462170D01*
X147077Y462236D01*
X147024Y462295D01*
X146962Y462344D01*
X146893Y462384D01*
X146819Y462412D01*
X146742Y462428D01*
X146663Y462432D01*
X146584Y462424D01*
X146507Y462403D01*
X146436Y462370D01*
X146193Y462247D01*
X145938Y462150D01*
X145676Y462077D01*
X145408Y462028D01*
X145136Y462003D01*
X144864D01*
X144592Y462028D01*
X144324Y462077D01*
X144062Y462150D01*
X143807Y462247D01*
X143563Y462367D01*
X143491Y462400D01*
X143415Y462421D01*
X143337Y462429D01*
X143259Y462425D01*
X143182Y462409D01*
X143108Y462381D01*
X143040Y462342D01*
X142979Y462293D01*
X142926Y462234D01*
X142883Y462168D01*
X142851Y462096D01*
X142830Y462020D01*
X142822Y461942D01*
X142826Y461864D01*
X142842Y461787D01*
X142870Y461713D01*
X142909Y461645D01*
X142958Y461584D01*
X143017Y461531D01*
X143083Y461489D01*
X143408Y461326D01*
X143604Y461251D01*
X143178Y461075D01*
X142642Y460746D01*
X142163Y460337D01*
X141754Y459858D01*
X141716Y459797D01*
Y462865D01*
X141786Y462839D01*
X141863Y462823D01*
X141942Y462819D01*
X142021Y462827D01*
X142097Y462848D01*
X142170Y462880D01*
X142236Y462923D01*
X142295Y462976D01*
X142344Y463038D01*
X142384Y463107D01*
X142412Y463181D01*
X142428Y463258D01*
X142432Y463337D01*
X142424Y463416D01*
X142403Y463493D01*
X142370Y463564D01*
X142247Y463807D01*
X142150Y464062D01*
X142077Y464324D01*
X142028Y464592D01*
X142003Y464864D01*
Y465136D01*
X142028Y465408D01*
X142077Y465676D01*
X142150Y465938D01*
X142247Y466193D01*
X142367Y466437D01*
X142400Y466509D01*
X142421Y466585D01*
X142429Y466663D01*
X142425Y466741D01*
X142409Y466818D01*
X142381Y466892D01*
X142342Y466960D01*
X142293Y467021D01*
X142234Y467074D01*
X142168Y467117D01*
X142096Y467149D01*
X142020Y467170D01*
X141942Y467178D01*
X141864Y467174D01*
X141787Y467158D01*
X141716Y467131D01*
Y470203D01*
G37*
G36*
Y477703D02*X141754Y477642D01*
X142163Y477163D01*
X142642Y476754D01*
X143178Y476425D01*
X143601Y476250D01*
X143178Y476075D01*
X142642Y475746D01*
X142163Y475337D01*
X141754Y474858D01*
X141716Y474797D01*
Y477703D01*
G37*
G36*
Y487011D02*X145000Y490500D01*
X148284D01*
Y482297D01*
X148246Y482358D01*
X147837Y482837D01*
X147358Y483246D01*
X146822Y483575D01*
X146240Y483816D01*
X145628Y483963D01*
X145000Y484012D01*
X144372Y483963D01*
X143760Y483816D01*
X143178Y483575D01*
X142642Y483246D01*
X142163Y482837D01*
X141754Y482358D01*
X141716Y482297D01*
Y487011D01*
G37*
G36*
X137000Y408000D02*Y482000D01*
X141716Y487011D01*
Y482297D01*
X141425Y481822D01*
X141184Y481240D01*
X141037Y480628D01*
X140988Y480000D01*
X141037Y479372D01*
X141184Y478760D01*
X141425Y478178D01*
X141716Y477703D01*
Y474797D01*
X141425Y474322D01*
X141184Y473740D01*
X141037Y473128D01*
X140988Y472500D01*
X141037Y471872D01*
X141184Y471260D01*
X141425Y470678D01*
X141716Y470203D01*
Y467131D01*
X141713Y467130D01*
X141645Y467091D01*
X141584Y467042D01*
X141531Y466983D01*
X141489Y466917D01*
X141326Y466592D01*
X141197Y466252D01*
X141099Y465902D01*
X141033Y465544D01*
X141000Y465182D01*
Y464818D01*
X141033Y464456D01*
X141099Y464098D01*
X141197Y463748D01*
X141326Y463408D01*
X141485Y463081D01*
X141528Y463015D01*
X141581Y462956D01*
X141643Y462906D01*
X141712Y462867D01*
X141716Y462865D01*
Y459797D01*
X141425Y459322D01*
X141184Y458740D01*
X141037Y458128D01*
X140988Y457500D01*
X141037Y456872D01*
X141184Y456260D01*
X141425Y455678D01*
X141716Y455203D01*
Y452297D01*
X141425Y451822D01*
X141184Y451240D01*
X141037Y450628D01*
X140988Y450000D01*
X141037Y449372D01*
X141184Y448760D01*
X141425Y448178D01*
X141716Y447703D01*
Y444797D01*
X141425Y444322D01*
X141184Y443740D01*
X141037Y443128D01*
X140988Y442500D01*
X141037Y441872D01*
X141184Y441260D01*
X141425Y440678D01*
X141716Y440203D01*
Y437131D01*
X141713Y437130D01*
X141645Y437091D01*
X141584Y437042D01*
X141531Y436983D01*
X141489Y436917D01*
X141326Y436592D01*
X141197Y436252D01*
X141099Y435902D01*
X141033Y435544D01*
X141000Y435182D01*
Y434818D01*
X141033Y434456D01*
X141099Y434098D01*
X141197Y433748D01*
X141326Y433408D01*
X141485Y433081D01*
X141528Y433015D01*
X141581Y432956D01*
X141643Y432906D01*
X141712Y432867D01*
X141716Y432865D01*
Y429797D01*
X141425Y429322D01*
X141184Y428740D01*
X141037Y428128D01*
X140988Y427500D01*
X141037Y426872D01*
X141184Y426260D01*
X141425Y425678D01*
X141716Y425203D01*
Y422297D01*
X141425Y421822D01*
X141184Y421240D01*
X141037Y420628D01*
X140988Y420000D01*
X141037Y419372D01*
X141184Y418760D01*
X141425Y418178D01*
X141716Y417703D01*
Y414797D01*
X141425Y414322D01*
X141184Y413740D01*
X141037Y413128D01*
X140988Y412500D01*
X141037Y411872D01*
X141184Y411260D01*
X141425Y410678D01*
X141716Y410203D01*
Y404856D01*
X137000Y408000D01*
G37*
G54D27*X158900Y448900D02*X158000Y448000D01*
X158500Y448500D02*X158000Y448000D01*
X152600Y453100D02*X154000Y454500D01*
X151500Y464500D02*Y473500D01*
X158500Y448500D02*Y457500D01*
X151500Y464500D01*
X165500Y467000D02*X160000D01*
X159000Y468000D01*
X157000Y470000D02*X160000Y467000D01*
X159000Y468000D02*X158500D01*
X164044Y457386D02*Y454044D01*
X164000Y454000D01*
X169162Y457386D02*Y453162D01*
X166603Y457386D02*Y461397D01*
X166000Y462000D01*
X161000D01*
X164044Y454044D02*X162100Y452100D01*
X169162Y453000D02*X164162Y448000D01*
X158000D02*X164162D01*
X154000Y445000D02*X157000D01*
X152600Y446400D02*X154000Y445000D01*
X152600Y446400D02*Y453100D01*
X157000Y445000D02*X158000Y444000D01*
X161000D01*
X161500Y444500D01*
G54D28*X167500Y442953D02*X180953D01*
X181000Y442906D01*
G54D27*X179397Y457386D02*Y462103D01*
X181956Y457386D02*Y457956D01*
X185500Y461500D01*
X179397Y462103D02*X179000Y462500D01*
X170000D01*
X171721Y480614D02*Y477721D01*
Y480614D02*Y477721D01*
Y477500D02*Y476721D01*
X174000Y478500D02*Y474500D01*
X172000Y472500D01*
Y470500D01*
X172500Y470000D01*
X176500Y478500D02*Y476000D01*
X178500Y474000D01*
Y472000D01*
X177500Y471000D01*
X181956Y480614D02*X184386D01*
X185000Y480000D01*
X182000Y474500D02*X179397Y477103D01*
Y480614D01*
X170000Y462500D02*X165500Y467000D01*
X167500Y474000D02*Y473500D01*
X168500Y472500D01*
X157000Y481000D02*Y470000D01*
X171721Y476721D02*X170000Y475000D01*
X168500D02*X167500Y474000D01*
X169162Y480614D02*X161114D01*
X170000Y475000D02*X168500D01*
G54D28*X174000Y437000D02*X175000Y436000D01*
Y431000D02*Y436000D01*
X178900Y431000D02*X181000Y433100D01*
Y437000D01*
X167500Y437047D02*X171100Y433447D01*
G54D27*X155500Y437000D02*X162000D01*
G54D28*X171100Y433447D02*Y431000D01*
G54D27*Y418100D02*X167000Y414000D01*
X179500Y417500D02*Y407500D01*
X178000Y406000D01*
X157500D01*
X154500Y409000D01*
G54D28*X175000Y410047D02*X171047D01*
G54D27*X160000Y424000D02*X161000Y425000D01*
X160000Y420000D02*Y424000D01*
X153000D02*Y421094D01*
X154094Y420000D01*
X153200Y439300D02*X155500Y437000D01*
X180000Y418000D02*Y421700D01*
X178900Y422800D01*
X171100D02*Y418100D01*
X179500Y417500D02*X180000Y418000D01*
G54D28*X175000Y420000D02*Y415953D01*
Y422800D02*Y419953D01*
G54D27*X190000Y415000D02*X202000D01*
X203500Y416500D01*
G54D26*G36*
X200500Y419500D02*Y413500D01*
X206500D01*
Y419500D01*
X200500D01*
G37*
G36*
X200000Y480500D02*Y474500D01*
X206000D01*
Y480500D01*
X200000D01*
G37*
G54D29*X145000Y480000D03*
Y472500D03*
Y465000D03*
Y457500D03*
Y450000D03*
Y442500D03*
Y435000D03*
Y427500D03*
Y420000D03*
Y412500D03*
G54D30*X171100Y431800D02*Y430200D01*
Y423600D02*Y422000D01*
G54D31*X167303Y437047D02*X167697D01*
X167303Y442953D02*X167697D01*
X180803Y437000D02*X181197D01*
X180803Y442906D02*X181197D01*
X160000Y420197D02*Y419803D01*
X154094Y420197D02*Y419803D01*
G54D32*X171721Y482917D02*Y478311D01*
X174279Y482917D02*Y478311D01*
X176838Y482917D02*Y478311D01*
X179397Y482917D02*Y478311D01*
X181956Y482917D02*Y478311D01*
X166603Y459689D02*Y455083D01*
X164044Y459689D02*Y455083D01*
X169162Y482917D02*Y478311D01*
X164044Y482917D02*Y478311D01*
X166603Y482917D02*Y478311D01*
G54D30*X175000Y431800D02*Y430200D01*
Y423600D02*Y422000D01*
G54D31*X174803Y410047D02*X175197D01*
X174803Y415953D02*X175197D01*
G54D30*X178900Y431800D02*Y430200D01*
Y423600D02*Y422000D01*
G54D32*X181956Y459689D02*Y455083D01*
X179397Y459689D02*Y455083D01*
X176838Y459689D02*Y455083D01*
X174279Y459689D02*Y455083D01*
X171721Y459689D02*Y455083D01*
X169162Y459689D02*Y455083D01*
G54D33*X161000Y425000D03*
X153000Y424000D03*
X175000Y419953D03*
G54D29*X187000Y455000D03*
G54D33*X162200Y451500D03*
X154000Y454500D03*
X180000Y418000D03*
X190000Y415000D03*
X167000Y414000D03*
G54D29*X174000Y438000D03*
G54D33*X162000Y437000D03*
X153200Y439300D03*
X161500Y444500D03*
X158000Y448000D03*
G54D29*X188000Y442000D03*
G54D33*X154500Y409000D03*
X185000Y480000D03*
G54D34*X177500Y471000D03*
X185500Y461500D03*
X182000Y474500D03*
X172500Y470000D03*
G54D33*X161000Y462000D03*
X151500Y473500D03*
G54D34*X168500Y472500D03*
G54D33*X157000Y481000D03*
G54D35*G54D36*G54D35*G54D36*G54D35*G54D36*G54D35*G54D37*G54D35*G54D37*G54D35*G54D38*G54D36*M02*
