G04 start of page 8 for group -4063 idx -4063 *
G04 Title: (unknown), componentmask *
G04 Creator: pcb 1.99z *
G04 CreationDate: Tue 11 Mar 2014 07:33:07 PM GMT UTC *
G04 For: ben *
G04 Format: Gerber/RS-274X *
G04 PCB-Dimensions (mil): 6000.00 5000.00 *
G04 PCB-Coordinate-Origin: lower left *
%MOIN*%
%FSLAX25Y25*%
%LNTOPMASK*%
%ADD70R,0.0355X0.0355*%
%ADD69R,0.0600X0.0600*%
%ADD68R,0.0300X0.0300*%
%ADD67R,0.0157X0.0157*%
%ADD66R,0.0336X0.0336*%
%ADD65R,0.0354X0.0354*%
%ADD64C,0.0001*%
%ADD63C,0.0660*%
G54D63*X145000Y480000D03*
Y472500D03*
Y465000D03*
Y457500D03*
Y450000D03*
G54D64*G36*
X189700Y413300D02*Y406700D01*
X196300D01*
Y413300D01*
X189700D01*
G37*
G36*
X151700D02*Y406700D01*
X158300D01*
Y413300D01*
X151700D01*
G37*
G54D63*X145000Y442500D03*
Y435000D03*
Y427500D03*
Y420000D03*
Y412500D03*
G54D65*X181382Y458888D02*Y452589D01*
G54D66*X187803Y457906D02*X188197D01*
X187803Y452000D02*X188197D01*
G54D65*X166618Y458888D02*Y452589D01*
X176461Y458888D02*Y452589D01*
X171539Y458888D02*Y452589D01*
X166618Y432411D02*Y426112D01*
X171539Y432411D02*Y426112D01*
G54D67*X154441Y426228D02*Y421898D01*
Y434102D02*Y429772D01*
X157000Y426228D02*Y421898D01*
X159559Y426228D02*Y421898D01*
Y434102D02*Y429772D01*
X157000Y434102D02*Y429772D01*
G54D68*X172200Y407600D02*Y406000D01*
Y415800D02*Y414200D01*
G54D66*X165803Y406047D02*X166197D01*
X165803Y411953D02*X166197D01*
G54D68*X176100Y407600D02*Y406000D01*
Y415800D02*Y414200D01*
X180000Y407600D02*Y406000D01*
Y415800D02*Y414200D01*
G54D65*X176461Y432411D02*Y426112D01*
X181382Y432411D02*Y426112D01*
G54D69*X195000Y423000D02*Y419000D01*
G54D66*X184803Y406047D02*X185197D01*
X184803Y411953D02*X185197D01*
G54D70*X170508Y484559D02*X171492D01*
X165508D02*X166492D01*
X170508Y479441D02*X171492D01*
X165508D02*X166492D01*
X170941Y468433D02*Y467449D01*
X183008Y468618D02*X183992D01*
X183008Y463500D02*X183992D01*
X176059Y468433D02*Y467449D01*
G54D68*X160200Y464500D02*X161800D01*
X160200Y468400D02*X161800D01*
X160200Y472300D02*X161800D01*
X152000D02*X153600D01*
X152000Y468400D02*X153600D01*
X152000Y464500D02*X153600D01*
G54D70*X175508Y484559D02*X176492D01*
X175508Y479441D02*X176492D01*
X180508D02*X181492D01*
G54D69*X195000Y482000D02*Y478000D01*
G54D66*X190953Y484197D02*Y483803D01*
G54D70*X180508Y484559D02*X181492D01*
G54D66*X185047Y484197D02*Y483803D01*
M02*
