M48
INCH
T61C0.013
T60C0.020
T59C0.038
T58C0.035
%
T61
X015900Y046100
X016700Y047500
X017150Y047050
X017300Y047500
X017600Y047250
X018000Y047200
X018550Y046150
X018950Y048150
T60
X015300Y042400
X016100Y045200
X016100Y042500
X016200Y045700
X016250Y047500
X016294Y043614
X016800Y041900
X017350Y046350
X017400Y044700
X017400Y043700
X017500Y041995
X017500Y040900
X018300Y047500
X018600Y042800
X019500Y047450
T58
X014500Y048000
X014500Y047250
X014500Y046500
X014500Y045750
X014500Y045000
X014500Y044250
X014500Y043500
X014500Y042750
X014500Y042000
X014500Y041250
X018700Y045500
X018700Y044300
T59
X015500Y041000
X019200Y041000
M30
