G04 start of page 3 for group 3 idx 3 *
G04 Title: remote-board, signal3 *
G04 Creator: pcb 20140316 *
G04 CreationDate: Fri 18 Apr 2014 07:05:31 PM GMT UTC *
G04 For: ben *
G04 Format: Gerber/RS-274X *
G04 PCB-Dimensions (mil): 6000.00 5000.00 *
G04 PCB-Coordinate-Origin: lower left *
%MOIN*%
%FSLAX25Y25*%
%LNBOTTOM*%
%ADD40C,0.0380*%
%ADD39C,0.0130*%
%ADD38C,0.0350*%
%ADD37C,0.0200*%
%ADD36C,0.0300*%
%ADD35C,0.0360*%
%ADD34R,0.0177X0.0177*%
%ADD33R,0.0240X0.0240*%
%ADD32R,0.0130X0.0130*%
%ADD31R,0.0276X0.0276*%
%ADD30C,0.0600*%
%ADD29C,0.0250*%
%ADD28C,0.0100*%
%ADD27C,0.0001*%
G54D27*G36*
X176496Y473883D02*X177000Y473379D01*
Y473245D01*
X176787Y473194D01*
X176496Y473073D01*
Y473883D01*
G37*
G36*
X193000Y452115D02*X197480Y447635D01*
X197483Y445630D01*
X197512Y445508D01*
X197561Y445392D01*
X197626Y445284D01*
X197708Y445188D01*
X197804Y445107D01*
X197911Y445041D01*
X198028Y444993D01*
X198150Y444963D01*
X198276Y444956D01*
X200173Y444963D01*
X200295Y444993D01*
X200412Y445041D01*
X200441Y445059D01*
X200470Y445041D01*
X200587Y444993D01*
X200709Y444963D01*
X200835Y444956D01*
X202732Y444963D01*
X202854Y444993D01*
X202971Y445041D01*
X203000Y445059D01*
X203029Y445041D01*
X203146Y444993D01*
X203268Y444963D01*
X203394Y444956D01*
X205291Y444963D01*
X205413Y444993D01*
X205530Y445041D01*
X205559Y445059D01*
X205588Y445041D01*
X205705Y444993D01*
X205827Y444963D01*
X205953Y444956D01*
X207850Y444963D01*
X207972Y444993D01*
X208089Y445041D01*
X208196Y445107D01*
X208292Y445188D01*
X208374Y445284D01*
X208439Y445392D01*
X208488Y445508D01*
X208500Y445560D01*
Y441621D01*
X207903Y441024D01*
X207850Y441037D01*
X207724Y441044D01*
X205827Y441037D01*
X205705Y441007D01*
X205588Y440959D01*
X205559Y440941D01*
X205530Y440959D01*
X205413Y441007D01*
X205291Y441037D01*
X205165Y441044D01*
X203268Y441037D01*
X203146Y441007D01*
X203029Y440959D01*
X203000Y440941D01*
X202971Y440959D01*
X202854Y441007D01*
X202732Y441037D01*
X202606Y441044D01*
X200709Y441037D01*
X200587Y441007D01*
X200470Y440959D01*
X200441Y440941D01*
X200412Y440959D01*
X200295Y441007D01*
X200173Y441037D01*
X200047Y441044D01*
X198150Y441037D01*
X198028Y441007D01*
X197911Y440959D01*
X197804Y440893D01*
X197708Y440812D01*
X197626Y440716D01*
X197561Y440608D01*
X197512Y440492D01*
X197483Y440370D01*
X197476Y440244D01*
X197479Y438320D01*
X196694Y437535D01*
X196575Y437822D01*
X196246Y438358D01*
X195837Y438837D01*
X195358Y439246D01*
X195250Y439312D01*
Y442047D01*
X195229Y442400D01*
X195171Y442643D01*
X195169Y443519D01*
X195147Y443611D01*
X195111Y443698D01*
X195062Y443779D01*
X195000Y443851D01*
X194929Y443912D01*
X194848Y443961D01*
X194761Y443998D01*
X194669Y444020D01*
X194575Y444025D01*
X194080Y444024D01*
X194025Y444058D01*
X193697Y444194D01*
X193353Y444276D01*
X193000Y444304D01*
Y445978D01*
X194669Y445980D01*
X194761Y446002D01*
X194848Y446039D01*
X194929Y446088D01*
X195000Y446149D01*
X195062Y446221D01*
X195111Y446302D01*
X195147Y446389D01*
X195169Y446481D01*
X195175Y446575D01*
X195169Y449425D01*
X195147Y449517D01*
X195111Y449604D01*
X195062Y449684D01*
X195000Y449756D01*
X194929Y449818D01*
X194848Y449867D01*
X194761Y449903D01*
X194669Y449925D01*
X194575Y449931D01*
X193000Y449928D01*
Y452115D01*
G37*
G36*
X189730Y456500D02*X191830D01*
X191825Y456425D01*
X191831Y453575D01*
X191853Y453483D01*
X191889Y453396D01*
X191938Y453316D01*
X192000Y453244D01*
X192071Y453182D01*
X192152Y453133D01*
X192239Y453097D01*
X192331Y453075D01*
X192425Y453069D01*
X192508Y453069D01*
X192514Y453001D01*
X192569Y452771D01*
X192659Y452553D01*
X192783Y452352D01*
X192936Y452172D01*
X192981Y452134D01*
X193000Y452115D01*
Y449928D01*
X191331Y449925D01*
X191239Y449903D01*
X191152Y449867D01*
X191071Y449818D01*
X191000Y449756D01*
X190938Y449684D01*
X190889Y449604D01*
X190853Y449517D01*
X190831Y449425D01*
X190825Y449331D01*
X190831Y446481D01*
X190853Y446389D01*
X190889Y446302D01*
X190938Y446221D01*
X191000Y446149D01*
X191071Y446088D01*
X191152Y446039D01*
X191239Y446002D01*
X191331Y445980D01*
X191425Y445975D01*
X193000Y445978D01*
Y444304D01*
X192647Y444276D01*
X192303Y444194D01*
X191975Y444058D01*
X191914Y444021D01*
X191331Y444020D01*
X191239Y443998D01*
X191152Y443961D01*
X191071Y443912D01*
X191000Y443851D01*
X190938Y443779D01*
X190889Y443698D01*
X190853Y443611D01*
X190831Y443519D01*
X190825Y443425D01*
X190827Y442633D01*
X190771Y442400D01*
X190750Y442047D01*
Y439312D01*
X190642Y439246D01*
X190163Y438837D01*
X189754Y438358D01*
X189730Y438319D01*
Y441714D01*
X189798Y441728D01*
X189871Y441755D01*
X189940Y441794D01*
X190002Y441843D01*
X190055Y441901D01*
X190098Y441966D01*
X190130Y442038D01*
X190206Y442271D01*
X190260Y442511D01*
X190292Y442755D01*
X190303Y443000D01*
X190292Y443245D01*
X190260Y443489D01*
X190206Y443729D01*
X190132Y443963D01*
X190100Y444035D01*
X190056Y444100D01*
X190003Y444159D01*
X189941Y444208D01*
X189872Y444246D01*
X189798Y444274D01*
X189730Y444288D01*
Y456500D01*
G37*
G36*
X198047Y434711D02*X198095Y434740D01*
X198150Y434727D01*
X198276Y434720D01*
X200173Y434727D01*
X200220Y434739D01*
Y432342D01*
X200051Y432172D01*
X198771Y432170D01*
X198651Y432272D01*
X198275Y432503D01*
X198047Y432597D01*
Y434711D01*
G37*
G36*
Y490928D02*X207000Y491000D01*
X212000Y487000D01*
Y409000D01*
X206000Y404000D01*
X198047D01*
Y421828D01*
X199519Y421831D01*
X199611Y421853D01*
X199698Y421889D01*
X199779Y421938D01*
X199851Y422000D01*
X199912Y422071D01*
X199961Y422152D01*
X199998Y422239D01*
X200020Y422331D01*
X200025Y422425D01*
X200020Y425669D01*
X199998Y425761D01*
X199961Y425848D01*
X199912Y425929D01*
X199851Y426000D01*
X199779Y426062D01*
X199698Y426111D01*
X199611Y426147D01*
X199519Y426169D01*
X199425Y426175D01*
X198047Y426172D01*
Y427403D01*
X198275Y427497D01*
X198651Y427728D01*
X198765Y427825D01*
X201472Y427831D01*
X201564Y427853D01*
X201651Y427889D01*
X201732Y427938D01*
X201804Y428000D01*
X201865Y428071D01*
X201914Y428152D01*
X201950Y428239D01*
X201972Y428331D01*
X201978Y428425D01*
X201976Y429854D01*
X202740Y430618D01*
X202784Y430657D01*
X202937Y430836D01*
X202938Y430836D01*
X202971Y430890D01*
X203062Y430742D01*
X203216Y430562D01*
X203260Y430524D01*
X203831Y429953D01*
X202934Y429055D01*
X202889Y429017D01*
X202735Y428837D01*
X202612Y428636D01*
X202522Y428418D01*
X202467Y428188D01*
X202467Y428188D01*
X202448Y427953D01*
X202453Y427894D01*
Y426163D01*
X202389Y426147D01*
X202302Y426111D01*
X202221Y426062D01*
X202149Y426000D01*
X202088Y425929D01*
X202039Y425848D01*
X202002Y425761D01*
X201980Y425669D01*
X201975Y425575D01*
X201980Y422331D01*
X202002Y422239D01*
X202039Y422152D01*
X202088Y422071D01*
X202149Y422000D01*
X202221Y421938D01*
X202302Y421889D01*
X202389Y421853D01*
X202481Y421831D01*
X202575Y421825D01*
X205425Y421831D01*
X205517Y421853D01*
X205604Y421889D01*
X205684Y421938D01*
X205756Y422000D01*
X205818Y422071D01*
X205867Y422152D01*
X205903Y422239D01*
X205925Y422331D01*
X205931Y422425D01*
X205925Y425669D01*
X205903Y425761D01*
X205867Y425848D01*
X205818Y425929D01*
X205756Y426000D01*
X205684Y426062D01*
X205604Y426111D01*
X205517Y426147D01*
X205453Y426163D01*
Y427331D01*
X205949Y427828D01*
X207378Y427831D01*
X207469Y427853D01*
X207500Y427865D01*
Y423621D01*
X204875Y420996D01*
X200265Y420986D01*
X200035Y420931D01*
X199817Y420841D01*
X199616Y420717D01*
X199436Y420564D01*
X199283Y420384D01*
X199159Y420183D01*
X199069Y419965D01*
X199014Y419735D01*
X199000Y419500D01*
X199014Y413265D01*
X199069Y413035D01*
X199159Y412817D01*
X199283Y412616D01*
X199436Y412436D01*
X199616Y412283D01*
X199817Y412159D01*
X200035Y412069D01*
X200265Y412014D01*
X200500Y412000D01*
X206735Y412014D01*
X206965Y412069D01*
X207183Y412159D01*
X207384Y412283D01*
X207564Y412436D01*
X207717Y412616D01*
X207841Y412817D01*
X207931Y413035D01*
X207986Y413265D01*
X208000Y413500D01*
X207986Y419735D01*
X207961Y419840D01*
X210019Y421898D01*
X210064Y421936D01*
X210217Y422115D01*
X210217Y422116D01*
X210341Y422317D01*
X210431Y422535D01*
X210486Y422765D01*
X210505Y423000D01*
X210500Y423059D01*
Y435662D01*
X210505Y435720D01*
X210486Y435956D01*
X210486Y435956D01*
X210431Y436185D01*
X210341Y436404D01*
X210217Y436605D01*
X210064Y436784D01*
X210019Y436823D01*
X208982Y437860D01*
X211019Y439898D01*
X211064Y439936D01*
X211217Y440115D01*
X211217Y440116D01*
X211341Y440317D01*
X211431Y440535D01*
X211486Y440765D01*
X211505Y441000D01*
X211500Y441059D01*
Y456941D01*
X211505Y457000D01*
X211486Y457235D01*
X211431Y457465D01*
X211341Y457683D01*
X211217Y457884D01*
X211064Y458064D01*
X211019Y458102D01*
X210102Y459019D01*
X210064Y459064D01*
X209884Y459217D01*
X209683Y459341D01*
X209465Y459431D01*
X209235Y459486D01*
X209235Y459486D01*
X209000Y459505D01*
X208941Y459500D01*
X208173D01*
X208175Y459528D01*
X208169Y462378D01*
X208147Y462469D01*
X208111Y462557D01*
X208062Y462637D01*
X208000Y462709D01*
X207929Y462770D01*
X207848Y462820D01*
X207761Y462856D01*
X207669Y462878D01*
X207575Y462883D01*
X204331Y462878D01*
X204239Y462856D01*
X204152Y462820D01*
X204071Y462770D01*
X204000Y462709D01*
X203938Y462637D01*
X203889Y462557D01*
X203853Y462469D01*
X203831Y462378D01*
X203825Y462283D01*
X203831Y459500D01*
X202229D01*
X202231Y459543D01*
X202228Y461297D01*
X202272Y461349D01*
X202503Y461725D01*
X202671Y462132D01*
X202774Y462561D01*
X202800Y463000D01*
X202774Y463439D01*
X202671Y463868D01*
X202503Y464275D01*
X202272Y464651D01*
X201986Y464986D01*
X201651Y465272D01*
X201275Y465503D01*
X200868Y465671D01*
X200439Y465774D01*
X200000Y465809D01*
X199561Y465774D01*
X199132Y465671D01*
X198725Y465503D01*
X198349Y465272D01*
X198047Y465014D01*
Y470426D01*
X200623Y473001D01*
X206235Y473014D01*
X206465Y473069D01*
X206683Y473159D01*
X206884Y473283D01*
X207064Y473436D01*
X207217Y473616D01*
X207341Y473817D01*
X207431Y474035D01*
X207486Y474265D01*
X207500Y474500D01*
X207486Y480735D01*
X207431Y480965D01*
X207341Y481183D01*
X207217Y481384D01*
X207064Y481564D01*
X206884Y481717D01*
X206683Y481841D01*
X206465Y481931D01*
X206235Y481986D01*
X206000Y482000D01*
X199765Y481986D01*
X199535Y481931D01*
X199317Y481841D01*
X199116Y481717D01*
X198936Y481564D01*
X198783Y481384D01*
X198659Y481183D01*
X198569Y480965D01*
X198514Y480735D01*
X198500Y480500D01*
X198512Y475133D01*
X198047Y474669D01*
Y490928D01*
G37*
G36*
Y465014D02*X198014Y464986D01*
X197728Y464651D01*
X197497Y464275D01*
X197329Y463868D01*
X197226Y463439D01*
X197191Y463000D01*
X197226Y462561D01*
X197329Y462132D01*
X197497Y461725D01*
X197728Y461349D01*
X197884Y461166D01*
X197887Y459500D01*
X196170D01*
X196175Y459575D01*
X196169Y462425D01*
X196147Y462517D01*
X196111Y462604D01*
X196062Y462684D01*
X196000Y462756D01*
X195929Y462818D01*
X195848Y462867D01*
X195761Y462903D01*
X195669Y462925D01*
X195575Y462931D01*
X195500Y462931D01*
Y467879D01*
X198047Y470426D01*
Y465014D01*
G37*
G36*
Y404000D02*X189730D01*
Y433681D01*
X189754Y433642D01*
X190163Y433163D01*
X190642Y432754D01*
X191178Y432425D01*
X191760Y432184D01*
X192372Y432037D01*
X193000Y431988D01*
X193628Y432037D01*
X194240Y432184D01*
X194822Y432425D01*
X195358Y432754D01*
X195837Y433163D01*
X196246Y433642D01*
X196575Y434178D01*
X196708Y434500D01*
X197221D01*
X197280Y434495D01*
X197514Y434514D01*
X197515Y434514D01*
X197744Y434569D01*
X197963Y434659D01*
X198047Y434711D01*
Y432597D01*
X197868Y432671D01*
X197439Y432774D01*
X197000Y432809D01*
X196561Y432774D01*
X196132Y432671D01*
X195725Y432503D01*
X195349Y432272D01*
X195014Y431986D01*
X194728Y431651D01*
X194497Y431275D01*
X194329Y430868D01*
X194226Y430439D01*
X194191Y430000D01*
X194226Y429561D01*
X194329Y429132D01*
X194497Y428725D01*
X194728Y428349D01*
X195014Y428014D01*
X195349Y427728D01*
X195725Y427497D01*
X196132Y427329D01*
X196561Y427226D01*
X197000Y427191D01*
X197439Y427226D01*
X197868Y427329D01*
X198047Y427403D01*
Y426172D01*
X196575Y426169D01*
X196483Y426147D01*
X196396Y426111D01*
X196316Y426062D01*
X196244Y426000D01*
X196182Y425929D01*
X196133Y425848D01*
X196097Y425761D01*
X196075Y425669D01*
X196069Y425575D01*
X196075Y422331D01*
X196097Y422239D01*
X196133Y422152D01*
X196182Y422071D01*
X196244Y422000D01*
X196316Y421938D01*
X196396Y421889D01*
X196483Y421853D01*
X196575Y421831D01*
X196669Y421825D01*
X198047Y421828D01*
Y404000D01*
G37*
G36*
X189730Y490861D02*X198047Y490928D01*
Y474669D01*
X192981Y469602D01*
X192936Y469564D01*
X192783Y469384D01*
X192659Y469183D01*
X192569Y468965D01*
X192514Y468735D01*
X192514Y468735D01*
X192495Y468500D01*
X192500Y468441D01*
Y462925D01*
X192331Y462925D01*
X192239Y462903D01*
X192152Y462867D01*
X192071Y462818D01*
X192000Y462756D01*
X191938Y462684D01*
X191889Y462604D01*
X191853Y462517D01*
X191831Y462425D01*
X191825Y462331D01*
X191831Y459500D01*
X189730D01*
Y490861D01*
G37*
G36*
Y404000D02*X187501D01*
Y415636D01*
X187651Y415728D01*
X187986Y416014D01*
X188272Y416349D01*
X188503Y416725D01*
X188671Y417132D01*
X188774Y417561D01*
X188800Y418000D01*
X188774Y418439D01*
X188671Y418868D01*
X188503Y419275D01*
X188272Y419651D01*
X187986Y419986D01*
X187651Y420272D01*
X187501Y420364D01*
Y440197D01*
X187745Y440208D01*
X187989Y440240D01*
X188229Y440294D01*
X188463Y440368D01*
X188535Y440400D01*
X188600Y440444D01*
X188659Y440497D01*
X188708Y440559D01*
X188746Y440628D01*
X188774Y440702D01*
X188790Y440779D01*
X188793Y440858D01*
X188784Y440937D01*
X188763Y441013D01*
X188730Y441085D01*
X188686Y441150D01*
X188633Y441209D01*
X188571Y441258D01*
X188502Y441296D01*
X188428Y441324D01*
X188351Y441340D01*
X188272Y441343D01*
X188193Y441334D01*
X188118Y441311D01*
X187968Y441262D01*
X187814Y441228D01*
X187658Y441207D01*
X187501Y441200D01*
Y444800D01*
X187658Y444793D01*
X187814Y444772D01*
X187968Y444738D01*
X188118Y444690D01*
X188194Y444668D01*
X188272Y444659D01*
X188350Y444662D01*
X188427Y444678D01*
X188501Y444705D01*
X188570Y444744D01*
X188631Y444793D01*
X188685Y444851D01*
X188728Y444916D01*
X188761Y444988D01*
X188782Y445064D01*
X188791Y445142D01*
X188788Y445220D01*
X188772Y445298D01*
X188745Y445371D01*
X188706Y445440D01*
X188657Y445502D01*
X188599Y445555D01*
X188534Y445598D01*
X188462Y445630D01*
X188229Y445706D01*
X187989Y445760D01*
X187745Y445792D01*
X187501Y445803D01*
Y454380D01*
X189621Y456500D01*
X189730D01*
Y444288D01*
X189721Y444290D01*
X189642Y444293D01*
X189563Y444284D01*
X189487Y444263D01*
X189415Y444230D01*
X189350Y444186D01*
X189291Y444133D01*
X189242Y444071D01*
X189204Y444002D01*
X189176Y443928D01*
X189160Y443851D01*
X189157Y443772D01*
X189166Y443693D01*
X189189Y443618D01*
X189238Y443468D01*
X189272Y443314D01*
X189293Y443158D01*
X189300Y443000D01*
X189293Y442842D01*
X189272Y442686D01*
X189238Y442532D01*
X189190Y442382D01*
X189168Y442306D01*
X189159Y442228D01*
X189162Y442150D01*
X189178Y442073D01*
X189205Y441999D01*
X189244Y441930D01*
X189293Y441869D01*
X189351Y441815D01*
X189416Y441772D01*
X189488Y441739D01*
X189564Y441718D01*
X189642Y441709D01*
X189720Y441712D01*
X189730Y441714D01*
Y438319D01*
X189425Y437822D01*
X189184Y437240D01*
X189037Y436628D01*
X188988Y436000D01*
X189037Y435372D01*
X189184Y434760D01*
X189425Y434178D01*
X189730Y433681D01*
Y404000D01*
G37*
G36*
X187501Y490843D02*X189730Y490861D01*
Y459500D01*
X189059D01*
X189000Y459505D01*
X188765Y459486D01*
X188535Y459431D01*
X188317Y459341D01*
X188116Y459217D01*
X188115Y459217D01*
X187936Y459064D01*
X187898Y459019D01*
X187501Y458622D01*
Y460363D01*
X187556Y460453D01*
X187694Y460787D01*
X187779Y461139D01*
X187800Y461500D01*
X187779Y461861D01*
X187694Y462213D01*
X187556Y462547D01*
X187501Y462637D01*
Y478842D01*
X187502Y478843D01*
X187555Y478901D01*
X187598Y478966D01*
X187630Y479038D01*
X187706Y479271D01*
X187760Y479511D01*
X187792Y479755D01*
X187803Y480000D01*
X187792Y480245D01*
X187760Y480489D01*
X187706Y480729D01*
X187632Y480963D01*
X187600Y481035D01*
X187556Y481100D01*
X187503Y481159D01*
X187501Y481160D01*
Y490843D01*
G37*
G36*
Y458622D02*X183405Y454527D01*
X183402Y456985D01*
X183442Y457150D01*
X183453Y457331D01*
X185328Y459206D01*
X185500Y459193D01*
X185861Y459221D01*
X186213Y459306D01*
X186547Y459444D01*
X186856Y459634D01*
X187131Y459869D01*
X187366Y460144D01*
X187501Y460363D01*
Y458622D01*
G37*
G36*
Y420364D02*X187275Y420503D01*
X186868Y420671D01*
X186439Y420774D01*
X186000Y420809D01*
X185561Y420774D01*
X185270Y420704D01*
Y441712D01*
X185279Y441710D01*
X185358Y441707D01*
X185437Y441716D01*
X185513Y441737D01*
X185585Y441770D01*
X185650Y441814D01*
X185709Y441867D01*
X185758Y441929D01*
X185796Y441998D01*
X185824Y442072D01*
X185840Y442149D01*
X185843Y442228D01*
X185834Y442307D01*
X185811Y442382D01*
X185762Y442532D01*
X185728Y442686D01*
X185707Y442842D01*
X185700Y443000D01*
X185707Y443158D01*
X185728Y443314D01*
X185762Y443468D01*
X185810Y443618D01*
X185832Y443694D01*
X185841Y443772D01*
X185838Y443850D01*
X185822Y443927D01*
X185795Y444001D01*
X185756Y444070D01*
X185707Y444131D01*
X185649Y444185D01*
X185584Y444228D01*
X185512Y444261D01*
X185436Y444282D01*
X185358Y444291D01*
X185280Y444288D01*
X185270Y444286D01*
Y452149D01*
X187501Y454380D01*
Y445803D01*
X187500Y445803D01*
X187255Y445792D01*
X187011Y445760D01*
X186771Y445706D01*
X186537Y445632D01*
X186465Y445600D01*
X186400Y445556D01*
X186341Y445503D01*
X186292Y445441D01*
X186254Y445372D01*
X186226Y445298D01*
X186210Y445221D01*
X186207Y445142D01*
X186216Y445063D01*
X186237Y444987D01*
X186270Y444915D01*
X186314Y444850D01*
X186367Y444791D01*
X186429Y444742D01*
X186498Y444704D01*
X186572Y444676D01*
X186649Y444660D01*
X186728Y444657D01*
X186807Y444666D01*
X186882Y444689D01*
X187032Y444738D01*
X187186Y444772D01*
X187342Y444793D01*
X187500Y444800D01*
X187501Y444800D01*
Y441200D01*
X187500Y441200D01*
X187342Y441207D01*
X187186Y441228D01*
X187032Y441262D01*
X186882Y441310D01*
X186806Y441332D01*
X186728Y441341D01*
X186650Y441338D01*
X186573Y441322D01*
X186499Y441295D01*
X186430Y441256D01*
X186369Y441207D01*
X186315Y441149D01*
X186272Y441084D01*
X186239Y441012D01*
X186218Y440936D01*
X186209Y440858D01*
X186212Y440780D01*
X186228Y440702D01*
X186255Y440629D01*
X186294Y440560D01*
X186343Y440498D01*
X186401Y440445D01*
X186466Y440402D01*
X186538Y440370D01*
X186771Y440294D01*
X187011Y440240D01*
X187255Y440208D01*
X187500Y440197D01*
X187501Y440197D01*
Y420364D01*
G37*
G36*
X185270Y420704D02*X185132Y420671D01*
X184725Y420503D01*
X184349Y420272D01*
X184014Y419986D01*
X183932Y419890D01*
X181595Y422226D01*
X181586Y425035D01*
X181531Y425265D01*
X181441Y425483D01*
X181317Y425684D01*
X181164Y425864D01*
X180984Y426017D01*
X180976Y426022D01*
Y427778D01*
X180984Y427783D01*
X181164Y427936D01*
X181317Y428116D01*
X181441Y428317D01*
X181531Y428535D01*
X181586Y428765D01*
X181600Y429000D01*
X181595Y430513D01*
X182529Y431447D01*
X182596Y431504D01*
X182826Y431773D01*
X182826Y431773D01*
X183011Y432075D01*
X183146Y432403D01*
X183229Y432747D01*
X183257Y433100D01*
X183250Y433188D01*
Y437000D01*
X183229Y437353D01*
X183171Y437595D01*
X183169Y438472D01*
X183147Y438564D01*
X183111Y438651D01*
X183062Y438732D01*
X183000Y438804D01*
X182929Y438865D01*
X182848Y438914D01*
X182761Y438950D01*
X182669Y438972D01*
X182575Y438978D01*
X182080Y438977D01*
X182025Y439011D01*
X181697Y439146D01*
X181353Y439229D01*
X181000Y439257D01*
X180976Y439255D01*
Y440650D01*
X181000Y440649D01*
X181353Y440676D01*
X181697Y440759D01*
X182025Y440895D01*
X182086Y440932D01*
X182669Y440933D01*
X182761Y440955D01*
X182848Y440991D01*
X182929Y441041D01*
X183000Y441102D01*
X183062Y441174D01*
X183111Y441254D01*
X183147Y441342D01*
X183169Y441433D01*
X183175Y441528D01*
X183173Y442320D01*
X183229Y442552D01*
X183257Y442906D01*
X183229Y443259D01*
X183171Y443501D01*
X183169Y444378D01*
X183147Y444469D01*
X183111Y444557D01*
X183062Y444637D01*
X183000Y444709D01*
X182929Y444770D01*
X182848Y444820D01*
X182761Y444856D01*
X182669Y444878D01*
X182575Y444883D01*
X182110Y444883D01*
X181977Y444964D01*
X181650Y445099D01*
X181306Y445182D01*
X180976Y445208D01*
Y451500D01*
X183941D01*
X184000Y451495D01*
X184235Y451514D01*
X184235Y451514D01*
X184465Y451569D01*
X184683Y451659D01*
X184884Y451783D01*
X185064Y451936D01*
X185102Y451981D01*
X185270Y452149D01*
Y444286D01*
X185202Y444272D01*
X185129Y444245D01*
X185060Y444206D01*
X184998Y444157D01*
X184945Y444099D01*
X184902Y444034D01*
X184870Y443962D01*
X184794Y443729D01*
X184740Y443489D01*
X184708Y443245D01*
X184697Y443000D01*
X184708Y442755D01*
X184740Y442511D01*
X184794Y442271D01*
X184868Y442037D01*
X184900Y441965D01*
X184944Y441900D01*
X184997Y441841D01*
X185059Y441792D01*
X185128Y441754D01*
X185202Y441726D01*
X185270Y441712D01*
Y420704D01*
G37*
G36*
X180976Y439255D02*X180647Y439229D01*
X180303Y439146D01*
X179975Y439011D01*
X179914Y438973D01*
X179331Y438972D01*
X179239Y438950D01*
X179152Y438914D01*
X179071Y438865D01*
X179000Y438804D01*
X178938Y438732D01*
X178889Y438651D01*
X178853Y438564D01*
X178831Y438472D01*
X178825Y438378D01*
X178827Y437586D01*
X178771Y437353D01*
X178750Y437000D01*
Y434493D01*
X177465Y434486D01*
X177250Y434435D01*
Y435856D01*
X177287Y435870D01*
X177355Y435909D01*
X177416Y435958D01*
X177469Y436017D01*
X177511Y436083D01*
X177674Y436408D01*
X177803Y436748D01*
X177901Y437098D01*
X177967Y437456D01*
X178000Y437818D01*
Y438182D01*
X177967Y438544D01*
X177901Y438902D01*
X177803Y439252D01*
X177674Y439592D01*
X177515Y439919D01*
X177472Y439985D01*
X177419Y440044D01*
X177357Y440094D01*
X177288Y440133D01*
X177214Y440161D01*
X177137Y440177D01*
X177058Y440181D01*
X176979Y440173D01*
X176903Y440152D01*
X176830Y440120D01*
X176764Y440077D01*
X176705Y440024D01*
X176656Y439962D01*
X176616Y439893D01*
X176588Y439819D01*
X176572Y439742D01*
X176568Y439663D01*
X176576Y439584D01*
X176597Y439507D01*
X176630Y439436D01*
X176753Y439193D01*
X176850Y438938D01*
X176923Y438676D01*
X176972Y438408D01*
X176997Y438136D01*
Y437864D01*
X176972Y437592D01*
X176923Y437324D01*
X176893Y437217D01*
X176826Y437327D01*
X176596Y437596D01*
X176529Y437653D01*
X176496Y437686D01*
Y450280D01*
X177736Y451521D01*
X177765Y451514D01*
X177765Y451514D01*
X177765Y451514D01*
X177765Y451514D01*
X178000Y451495D01*
X178059Y451500D01*
X180976D01*
Y445208D01*
X180953Y445210D01*
X180600Y445182D01*
X180255Y445099D01*
X179928Y444964D01*
X179789Y444879D01*
X179331Y444878D01*
X179239Y444856D01*
X179152Y444820D01*
X179071Y444770D01*
X179000Y444709D01*
X178938Y444637D01*
X178889Y444557D01*
X178853Y444469D01*
X178831Y444378D01*
X178825Y444283D01*
X178826Y443699D01*
X178806Y443650D01*
X178724Y443306D01*
X178696Y442953D01*
X178724Y442600D01*
X178806Y442255D01*
X178829Y442200D01*
X178831Y441433D01*
X178853Y441342D01*
X178889Y441254D01*
X178938Y441174D01*
X179000Y441102D01*
X179071Y441041D01*
X179152Y440991D01*
X179239Y440955D01*
X179331Y440933D01*
X179425Y440928D01*
X179920Y440928D01*
X179975Y440895D01*
X180303Y440759D01*
X180647Y440676D01*
X180976Y440650D01*
Y439255D01*
G37*
G36*
Y426022D02*X180783Y426141D01*
X180565Y426231D01*
X180335Y426286D01*
X180100Y426300D01*
X177465Y426286D01*
X177235Y426231D01*
X177017Y426141D01*
X176950Y426100D01*
X176883Y426141D01*
X176665Y426231D01*
X176496Y426272D01*
Y427528D01*
X176665Y427569D01*
X176883Y427659D01*
X176950Y427700D01*
X177017Y427659D01*
X177235Y427569D01*
X177465Y427514D01*
X177700Y427500D01*
X180335Y427514D01*
X180565Y427569D01*
X180783Y427659D01*
X180976Y427778D01*
Y426022D01*
G37*
G36*
X187501Y404000D02*X176496D01*
Y412836D01*
X176564Y412853D01*
X176651Y412889D01*
X176732Y412938D01*
X176804Y413000D01*
X176865Y413071D01*
X176914Y413152D01*
X176950Y413239D01*
X176972Y413331D01*
X176978Y413425D01*
X176977Y413920D01*
X177011Y413975D01*
X177146Y414303D01*
X177229Y414647D01*
X177250Y415000D01*
Y418276D01*
X177272Y418302D01*
X177503Y418678D01*
X177671Y419085D01*
X177723Y419300D01*
X180265Y419314D01*
X182419Y417159D01*
X182378Y417169D01*
X182283Y417175D01*
X179433Y417169D01*
X179342Y417147D01*
X179254Y417111D01*
X179174Y417062D01*
X179102Y417000D01*
X179041Y416929D01*
X178991Y416848D01*
X178955Y416761D01*
X178933Y416669D01*
X178928Y416575D01*
X178933Y413331D01*
X178955Y413239D01*
X178991Y413152D01*
X179041Y413071D01*
X179102Y413000D01*
X179174Y412938D01*
X179254Y412889D01*
X179342Y412853D01*
X179433Y412831D01*
X179528Y412825D01*
X182378Y412831D01*
X182469Y412853D01*
X182557Y412889D01*
X182637Y412938D01*
X182709Y413000D01*
X182770Y413071D01*
X182820Y413152D01*
X182856Y413239D01*
X182878Y413331D01*
X182883Y413425D01*
X182878Y416669D01*
X182857Y416758D01*
X183017Y416659D01*
X183235Y416569D01*
X183465Y416514D01*
X183635Y416500D01*
X183728Y416349D01*
X184014Y416014D01*
X184349Y415728D01*
X184725Y415497D01*
X185132Y415329D01*
X185561Y415226D01*
X186000Y415191D01*
X186439Y415226D01*
X186868Y415329D01*
X187275Y415497D01*
X187501Y415636D01*
Y404000D01*
G37*
G36*
X185001Y490823D02*X187501Y490843D01*
Y481160D01*
X187441Y481208D01*
X187372Y481246D01*
X187298Y481274D01*
X187221Y481290D01*
X187142Y481293D01*
X187063Y481284D01*
X186987Y481263D01*
X186915Y481230D01*
X186850Y481186D01*
X186791Y481133D01*
X186742Y481071D01*
X186704Y481002D01*
X186676Y480928D01*
X186660Y480851D01*
X186657Y480772D01*
X186666Y480693D01*
X186689Y480618D01*
X186738Y480468D01*
X186772Y480314D01*
X186793Y480158D01*
X186800Y480000D01*
X186793Y479842D01*
X186772Y479686D01*
X186738Y479532D01*
X186690Y479382D01*
X186668Y479306D01*
X186659Y479228D01*
X186662Y479150D01*
X186678Y479073D01*
X186705Y478999D01*
X186744Y478930D01*
X186793Y478869D01*
X186851Y478815D01*
X186916Y478772D01*
X186988Y478739D01*
X187064Y478718D01*
X187142Y478709D01*
X187220Y478712D01*
X187298Y478728D01*
X187371Y478755D01*
X187440Y478794D01*
X187501Y478842D01*
Y462637D01*
X187366Y462856D01*
X187131Y463131D01*
X186856Y463366D01*
X186547Y463556D01*
X186213Y463694D01*
X185861Y463779D01*
X185500Y463807D01*
X185139Y463779D01*
X185001Y463746D01*
Y477197D01*
X185245Y477208D01*
X185489Y477240D01*
X185729Y477294D01*
X185963Y477368D01*
X186035Y477400D01*
X186100Y477444D01*
X186159Y477497D01*
X186208Y477559D01*
X186246Y477628D01*
X186274Y477702D01*
X186290Y477779D01*
X186293Y477858D01*
X186284Y477937D01*
X186263Y478013D01*
X186230Y478085D01*
X186186Y478150D01*
X186133Y478209D01*
X186071Y478258D01*
X186002Y478296D01*
X185928Y478324D01*
X185851Y478340D01*
X185772Y478343D01*
X185693Y478334D01*
X185618Y478311D01*
X185468Y478262D01*
X185314Y478228D01*
X185158Y478207D01*
X185001Y478200D01*
Y478495D01*
X185236Y478514D01*
X185465Y478569D01*
X185683Y478659D01*
X185885Y478783D01*
X186064Y478936D01*
X186217Y479116D01*
X186341Y479317D01*
X186431Y479535D01*
X186486Y479765D01*
X186505Y480000D01*
X186486Y480236D01*
X186431Y480465D01*
X186341Y480683D01*
X186217Y480885D01*
X186061Y481061D01*
X185488Y481633D01*
X185450Y481678D01*
X185348Y481765D01*
X185468Y481738D01*
X185618Y481690D01*
X185694Y481668D01*
X185772Y481659D01*
X185850Y481662D01*
X185927Y481678D01*
X186001Y481705D01*
X186070Y481744D01*
X186131Y481793D01*
X186185Y481851D01*
X186228Y481916D01*
X186261Y481988D01*
X186282Y482064D01*
X186291Y482142D01*
X186288Y482220D01*
X186272Y482298D01*
X186245Y482371D01*
X186206Y482440D01*
X186157Y482502D01*
X186099Y482555D01*
X186034Y482598D01*
X185962Y482630D01*
X185729Y482706D01*
X185489Y482760D01*
X185245Y482792D01*
X185001Y482803D01*
Y490823D01*
G37*
G36*
Y463746D02*X184787Y463694D01*
X184453Y463556D01*
X184144Y463366D01*
X183869Y463131D01*
X183634Y462856D01*
X183444Y462547D01*
X183306Y462213D01*
X183221Y461861D01*
X183193Y461500D01*
X183206Y461328D01*
X182943Y461065D01*
X182853Y461102D01*
X182731Y461131D01*
X182606Y461139D01*
X181181Y461131D01*
X181059Y461102D01*
X180942Y461054D01*
X180897Y461026D01*
Y462044D01*
X180901Y462103D01*
X180883Y462338D01*
X180883Y462338D01*
X180883Y462338D01*
X180850Y462475D01*
X180828Y462568D01*
X180828Y462568D01*
X180828Y462568D01*
X180773Y462699D01*
X180738Y462786D01*
X180738Y462786D01*
X180737Y462786D01*
X180670Y462897D01*
X180614Y462987D01*
X180614Y462987D01*
X180614Y462987D01*
X180461Y463167D01*
X180416Y463205D01*
X180102Y463519D01*
X180064Y463564D01*
X179885Y463716D01*
X179885Y463717D01*
X179885Y463717D01*
X179884Y463717D01*
X179776Y463784D01*
X179683Y463840D01*
X179683Y463841D01*
X179683Y463841D01*
X179561Y463891D01*
X179465Y463931D01*
X179465Y463931D01*
X179465Y463931D01*
X179339Y463961D01*
X179236Y463986D01*
X179236Y463986D01*
X179235Y463986D01*
X179234Y463986D01*
X179000Y464005D01*
X178941Y464000D01*
X176496D01*
Y468927D01*
X176787Y468806D01*
X177139Y468721D01*
X177500Y468693D01*
X177861Y468721D01*
X178213Y468806D01*
X178547Y468944D01*
X178856Y469134D01*
X179131Y469369D01*
X179366Y469644D01*
X179556Y469953D01*
X179694Y470287D01*
X179779Y470639D01*
X179800Y471000D01*
X179787Y471229D01*
X179841Y471317D01*
X179931Y471535D01*
X179986Y471765D01*
X180005Y472000D01*
X180000Y472059D01*
Y473362D01*
X180134Y473144D01*
X180369Y472869D01*
X180644Y472634D01*
X180953Y472444D01*
X181287Y472306D01*
X181639Y472221D01*
X182000Y472193D01*
X182361Y472221D01*
X182713Y472306D01*
X183047Y472444D01*
X183356Y472634D01*
X183631Y472869D01*
X183866Y473144D01*
X184056Y473453D01*
X184194Y473787D01*
X184279Y474139D01*
X184300Y474500D01*
X184279Y474861D01*
X184194Y475213D01*
X184056Y475547D01*
X183866Y475856D01*
X183631Y476131D01*
X183356Y476366D01*
X183047Y476556D01*
X182713Y476694D01*
X182361Y476779D01*
X182000Y476807D01*
X181828Y476794D01*
X181757Y476864D01*
X182731Y476869D01*
X182853Y476898D01*
X182970Y476946D01*
X183077Y477012D01*
X183173Y477094D01*
X183255Y477190D01*
X183321Y477297D01*
X183369Y477414D01*
X183398Y477536D01*
X183406Y477662D01*
X183404Y479114D01*
X183765D01*
X183939Y478939D01*
X184116Y478783D01*
X184317Y478659D01*
X184535Y478569D01*
X184765Y478514D01*
X185000Y478495D01*
X185001Y478495D01*
Y478200D01*
X185000Y478200D01*
X184842Y478207D01*
X184686Y478228D01*
X184532Y478262D01*
X184382Y478310D01*
X184306Y478332D01*
X184228Y478341D01*
X184150Y478338D01*
X184073Y478322D01*
X183999Y478295D01*
X183930Y478256D01*
X183869Y478207D01*
X183815Y478149D01*
X183772Y478084D01*
X183739Y478012D01*
X183718Y477936D01*
X183709Y477858D01*
X183712Y477780D01*
X183728Y477702D01*
X183755Y477629D01*
X183794Y477560D01*
X183843Y477498D01*
X183901Y477445D01*
X183966Y477402D01*
X184038Y477370D01*
X184271Y477294D01*
X184511Y477240D01*
X184755Y477208D01*
X185000Y477197D01*
X185001Y477197D01*
Y463746D01*
G37*
G36*
X176496Y490754D02*X185001Y490823D01*
Y482803D01*
X185000Y482803D01*
X184755Y482792D01*
X184511Y482760D01*
X184271Y482706D01*
X184037Y482632D01*
X183965Y482600D01*
X183900Y482556D01*
X183841Y482503D01*
X183792Y482441D01*
X183754Y482372D01*
X183726Y482298D01*
X183710Y482221D01*
X183707Y482142D01*
X183710Y482114D01*
X183400D01*
X183398Y483692D01*
X183369Y483814D01*
X183321Y483931D01*
X183255Y484038D01*
X183173Y484134D01*
X183077Y484216D01*
X182970Y484282D01*
X182853Y484330D01*
X182731Y484359D01*
X182606Y484367D01*
X181181Y484359D01*
X181059Y484330D01*
X180942Y484282D01*
X180835Y484216D01*
X180739Y484134D01*
X180676Y484061D01*
X180614Y484134D01*
X180518Y484216D01*
X180411Y484282D01*
X180294Y484330D01*
X180172Y484359D01*
X180046Y484367D01*
X178622Y484359D01*
X178500Y484330D01*
X178383Y484282D01*
X178276Y484216D01*
X178180Y484134D01*
X178117Y484061D01*
X178055Y484134D01*
X177959Y484216D01*
X177852Y484282D01*
X177735Y484330D01*
X177613Y484359D01*
X177488Y484367D01*
X176496Y484361D01*
Y490754D01*
G37*
G36*
X173998Y412826D02*X174414Y412827D01*
X174647Y412771D01*
X175000Y412743D01*
X175353Y412771D01*
X175595Y412829D01*
X176472Y412831D01*
X176496Y412836D01*
Y404000D01*
X173998D01*
Y412826D01*
G37*
G36*
Y427501D02*X176435Y427514D01*
X176496Y427528D01*
Y426272D01*
X176435Y426286D01*
X176200Y426300D01*
X173998Y426288D01*
Y427501D01*
G37*
G36*
Y447930D02*X175669Y447933D01*
X175761Y447955D01*
X175848Y447991D01*
X175929Y448041D01*
X176000Y448102D01*
X176062Y448174D01*
X176111Y448254D01*
X176147Y448342D01*
X176169Y448433D01*
X176175Y448528D01*
X176172Y449956D01*
X176496Y450280D01*
Y437686D01*
X175591Y438591D01*
X175327Y438826D01*
X175025Y439011D01*
X174697Y439146D01*
X174353Y439229D01*
X174000Y439257D01*
X173998Y439257D01*
Y440997D01*
X174136D01*
X174408Y440972D01*
X174676Y440923D01*
X174938Y440850D01*
X175193Y440753D01*
X175437Y440633D01*
X175509Y440600D01*
X175584Y440579D01*
X175663Y440571D01*
X175741Y440575D01*
X175818Y440591D01*
X175892Y440619D01*
X175960Y440658D01*
X176021Y440707D01*
X176074Y440766D01*
X176117Y440832D01*
X176149Y440904D01*
X176170Y440980D01*
X176178Y441058D01*
X176174Y441136D01*
X176158Y441213D01*
X176130Y441287D01*
X176091Y441355D01*
X176042Y441416D01*
X175983Y441469D01*
X175917Y441511D01*
X175592Y441674D01*
X175252Y441803D01*
X174902Y441901D01*
X174544Y441967D01*
X174182Y442000D01*
X173998D01*
Y442025D01*
X175669Y442028D01*
X175761Y442050D01*
X175848Y442086D01*
X175929Y442135D01*
X176000Y442196D01*
X176062Y442268D01*
X176111Y442349D01*
X176147Y442436D01*
X176169Y442528D01*
X176175Y442622D01*
X176169Y445472D01*
X176147Y445564D01*
X176111Y445651D01*
X176062Y445732D01*
X176000Y445804D01*
X175929Y445865D01*
X175848Y445914D01*
X175761Y445950D01*
X175669Y445972D01*
X175575Y445978D01*
X173998Y445975D01*
Y447930D01*
G37*
G36*
Y453635D02*X175054Y453641D01*
X175176Y453670D01*
X175293Y453718D01*
X175338Y453746D01*
Y453365D01*
X173998Y452025D01*
Y453635D01*
G37*
G36*
X167500Y411240D02*X167868Y411329D01*
X168275Y411497D01*
X168651Y411728D01*
X168986Y412014D01*
X169272Y412349D01*
X169503Y412725D01*
X169671Y413132D01*
X169774Y413561D01*
X169800Y414000D01*
X169774Y414439D01*
X169733Y414611D01*
X172119Y416998D01*
X172164Y417036D01*
X172317Y417215D01*
X172317Y417216D01*
X172441Y417417D01*
X172531Y417635D01*
X172586Y417865D01*
X172605Y418100D01*
X172600Y418159D01*
Y418510D01*
X172728Y418302D01*
X172750Y418276D01*
Y415000D01*
X172771Y414647D01*
X172854Y414303D01*
X172989Y413975D01*
X173027Y413914D01*
X173028Y413331D01*
X173050Y413239D01*
X173086Y413152D01*
X173135Y413071D01*
X173196Y413000D01*
X173268Y412938D01*
X173349Y412889D01*
X173436Y412853D01*
X173528Y412831D01*
X173622Y412825D01*
X173998Y412826D01*
Y404000D01*
X167500D01*
Y411240D01*
G37*
G36*
Y433865D02*X168400Y432965D01*
X168414Y428765D01*
X168469Y428535D01*
X168559Y428317D01*
X168683Y428116D01*
X168836Y427936D01*
X169016Y427783D01*
X169217Y427659D01*
X169435Y427569D01*
X169665Y427514D01*
X169900Y427500D01*
X172535Y427514D01*
X172765Y427569D01*
X172983Y427659D01*
X173050Y427700D01*
X173117Y427659D01*
X173335Y427569D01*
X173565Y427514D01*
X173800Y427500D01*
X173998Y427501D01*
Y426288D01*
X173565Y426286D01*
X173335Y426231D01*
X173117Y426141D01*
X173050Y426100D01*
X172983Y426141D01*
X172765Y426231D01*
X172535Y426286D01*
X172300Y426300D01*
X169665Y426286D01*
X169435Y426231D01*
X169217Y426141D01*
X169016Y426017D01*
X168836Y425864D01*
X168683Y425684D01*
X168559Y425483D01*
X168469Y425265D01*
X168414Y425035D01*
X168400Y424800D01*
X168414Y420565D01*
X168469Y420335D01*
X168559Y420117D01*
X168683Y419916D01*
X168836Y419736D01*
X169016Y419583D01*
X169217Y419459D01*
X169435Y419369D01*
X169600Y419329D01*
Y418721D01*
X167611Y416733D01*
X167500Y416760D01*
Y433865D01*
G37*
G36*
Y449217D02*X170222Y451939D01*
X170379Y452116D01*
X170502Y452317D01*
X170593Y452535D01*
X170648Y452765D01*
X170666Y453000D01*
X170658Y453103D01*
X170662Y453162D01*
Y453746D01*
X170707Y453718D01*
X170824Y453670D01*
X170946Y453641D01*
X171071Y453634D01*
X172496Y453641D01*
X172618Y453670D01*
X172735Y453718D01*
X172842Y453784D01*
X172938Y453866D01*
X173000Y453939D01*
X173062Y453866D01*
X173158Y453784D01*
X173265Y453718D01*
X173382Y453670D01*
X173504Y453641D01*
X173629Y453634D01*
X173998Y453635D01*
Y452025D01*
X173854Y451881D01*
X172331Y451878D01*
X172239Y451856D01*
X172152Y451820D01*
X172071Y451770D01*
X172000Y451709D01*
X171938Y451637D01*
X171889Y451557D01*
X171853Y451469D01*
X171831Y451378D01*
X171825Y451283D01*
X171831Y448433D01*
X171853Y448342D01*
X171889Y448254D01*
X171938Y448174D01*
X172000Y448102D01*
X172071Y448041D01*
X172152Y447991D01*
X172239Y447955D01*
X172331Y447933D01*
X172425Y447928D01*
X173998Y447930D01*
Y445975D01*
X172331Y445972D01*
X172239Y445950D01*
X172152Y445914D01*
X172071Y445865D01*
X172000Y445804D01*
X171938Y445732D01*
X171889Y445651D01*
X171853Y445564D01*
X171831Y445472D01*
X171825Y445378D01*
X171831Y442528D01*
X171853Y442436D01*
X171889Y442349D01*
X171938Y442268D01*
X172000Y442196D01*
X172071Y442135D01*
X172152Y442086D01*
X172239Y442050D01*
X172331Y442028D01*
X172425Y442022D01*
X173998Y442025D01*
Y442000D01*
X173818D01*
X173456Y441967D01*
X173098Y441901D01*
X172748Y441803D01*
X172408Y441674D01*
X172081Y441515D01*
X172015Y441472D01*
X171956Y441419D01*
X171906Y441357D01*
X171867Y441288D01*
X171839Y441214D01*
X171823Y441137D01*
X171819Y441058D01*
X171827Y440979D01*
X171848Y440903D01*
X171880Y440830D01*
X171923Y440764D01*
X171976Y440705D01*
X172038Y440656D01*
X172107Y440616D01*
X172181Y440588D01*
X172258Y440572D01*
X172337Y440568D01*
X172416Y440576D01*
X172493Y440597D01*
X172564Y440630D01*
X172807Y440753D01*
X173062Y440850D01*
X173324Y440923D01*
X173592Y440972D01*
X173864Y440997D01*
X173998D01*
Y439257D01*
X173647Y439229D01*
X173303Y439146D01*
X172975Y439011D01*
X172673Y438826D01*
X172404Y438596D01*
X172174Y438327D01*
X171989Y438025D01*
X171854Y437697D01*
X171771Y437353D01*
X171743Y437000D01*
X171771Y436647D01*
X171854Y436303D01*
X171989Y435975D01*
X172174Y435673D01*
X172397Y435423D01*
X172337Y435429D01*
X172302Y435427D01*
X171430Y436299D01*
X171432Y436337D01*
X171424Y436416D01*
X171403Y436493D01*
X171370Y436564D01*
X171247Y436807D01*
X171150Y437062D01*
X171077Y437324D01*
X171028Y437592D01*
X171003Y437864D01*
Y438136D01*
X171028Y438408D01*
X171077Y438676D01*
X171150Y438938D01*
X171247Y439193D01*
X171367Y439437D01*
X171400Y439509D01*
X171421Y439585D01*
X171429Y439663D01*
X171425Y439741D01*
X171409Y439818D01*
X171381Y439892D01*
X171342Y439960D01*
X171293Y440021D01*
X171234Y440074D01*
X171168Y440117D01*
X171096Y440149D01*
X171020Y440170D01*
X170942Y440178D01*
X170864Y440174D01*
X170787Y440158D01*
X170713Y440130D01*
X170645Y440091D01*
X170584Y440042D01*
X170531Y439983D01*
X170489Y439917D01*
X170326Y439592D01*
X170197Y439252D01*
X170099Y438902D01*
X170033Y438544D01*
X170000Y438182D01*
Y437818D01*
X170009Y437720D01*
X169670Y438059D01*
X169669Y438519D01*
X169647Y438611D01*
X169611Y438698D01*
X169562Y438779D01*
X169500Y438851D01*
X169429Y438912D01*
X169348Y438961D01*
X169261Y438998D01*
X169169Y439020D01*
X169075Y439025D01*
X168580Y439024D01*
X168525Y439058D01*
X168197Y439194D01*
X167853Y439276D01*
X167500Y439304D01*
X167500D01*
Y440978D01*
X169169Y440980D01*
X169261Y441002D01*
X169348Y441039D01*
X169429Y441088D01*
X169500Y441149D01*
X169562Y441221D01*
X169611Y441302D01*
X169647Y441389D01*
X169669Y441481D01*
X169675Y441575D01*
X169669Y444425D01*
X169647Y444517D01*
X169611Y444604D01*
X169562Y444684D01*
X169500Y444756D01*
X169429Y444818D01*
X169348Y444867D01*
X169261Y444903D01*
X169169Y444925D01*
X169075Y444931D01*
X167500Y444928D01*
Y449217D01*
G37*
G36*
X163230Y446500D02*X164103D01*
X164162Y446495D01*
X164397Y446514D01*
X164397Y446514D01*
X164627Y446569D01*
X164845Y446659D01*
X165046Y446783D01*
X165226Y446936D01*
X165264Y446981D01*
X167500Y449217D01*
Y444928D01*
X165831Y444925D01*
X165739Y444903D01*
X165652Y444867D01*
X165571Y444818D01*
X165500Y444756D01*
X165438Y444684D01*
X165389Y444604D01*
X165353Y444517D01*
X165331Y444425D01*
X165325Y444331D01*
X165331Y441481D01*
X165353Y441389D01*
X165389Y441302D01*
X165438Y441221D01*
X165500Y441149D01*
X165571Y441088D01*
X165652Y441039D01*
X165739Y441002D01*
X165831Y440980D01*
X165925Y440975D01*
X167500Y440978D01*
Y439304D01*
X167147Y439276D01*
X166803Y439194D01*
X166475Y439058D01*
X166414Y439021D01*
X165831Y439020D01*
X165739Y438998D01*
X165652Y438961D01*
X165571Y438912D01*
X165500Y438851D01*
X165438Y438779D01*
X165389Y438698D01*
X165353Y438611D01*
X165331Y438519D01*
X165325Y438425D01*
X165327Y437633D01*
X165271Y437400D01*
X165243Y437047D01*
X165271Y436694D01*
X165329Y436452D01*
X165331Y435575D01*
X165353Y435483D01*
X165389Y435396D01*
X165438Y435316D01*
X165500Y435244D01*
X165571Y435182D01*
X165652Y435133D01*
X165739Y435097D01*
X165831Y435075D01*
X165925Y435069D01*
X166295Y435070D01*
X167500Y433865D01*
Y416760D01*
X167439Y416774D01*
X167000Y416809D01*
X166561Y416774D01*
X166132Y416671D01*
X165725Y416503D01*
X165349Y416272D01*
X165014Y415986D01*
X164728Y415651D01*
X164497Y415275D01*
X164329Y414868D01*
X164226Y414439D01*
X164191Y414000D01*
X164226Y413561D01*
X164329Y413132D01*
X164497Y412725D01*
X164728Y412349D01*
X165014Y412014D01*
X165349Y411728D01*
X165725Y411497D01*
X166132Y411329D01*
X166561Y411226D01*
X167000Y411191D01*
X167439Y411226D01*
X167500Y411240D01*
Y404000D01*
X163230D01*
Y423714D01*
X163298Y423728D01*
X163371Y423755D01*
X163440Y423794D01*
X163502Y423843D01*
X163555Y423901D01*
X163598Y423966D01*
X163630Y424038D01*
X163706Y424271D01*
X163760Y424511D01*
X163792Y424755D01*
X163803Y425000D01*
X163792Y425245D01*
X163760Y425489D01*
X163706Y425729D01*
X163632Y425963D01*
X163600Y426035D01*
X163556Y426100D01*
X163503Y426159D01*
X163441Y426208D01*
X163372Y426246D01*
X163298Y426274D01*
X163230Y426288D01*
Y446500D01*
G37*
G36*
X160263Y446339D02*X160272Y446349D01*
X160365Y446500D01*
X163230D01*
Y426288D01*
X163221Y426290D01*
X163142Y426293D01*
X163063Y426284D01*
X162987Y426263D01*
X162915Y426230D01*
X162850Y426186D01*
X162791Y426133D01*
X162742Y426071D01*
X162704Y426002D01*
X162676Y425928D01*
X162660Y425851D01*
X162657Y425772D01*
X162666Y425693D01*
X162689Y425618D01*
X162738Y425468D01*
X162772Y425314D01*
X162793Y425158D01*
X162800Y425000D01*
X162793Y424842D01*
X162772Y424686D01*
X162738Y424532D01*
X162690Y424382D01*
X162668Y424306D01*
X162659Y424228D01*
X162662Y424150D01*
X162678Y424073D01*
X162705Y423999D01*
X162744Y423930D01*
X162793Y423869D01*
X162851Y423815D01*
X162916Y423772D01*
X162988Y423739D01*
X163064Y423718D01*
X163142Y423709D01*
X163220Y423712D01*
X163230Y423714D01*
Y404000D01*
X160263D01*
Y417828D01*
X161472Y417831D01*
X161564Y417853D01*
X161651Y417889D01*
X161732Y417938D01*
X161804Y418000D01*
X161865Y418071D01*
X161914Y418152D01*
X161950Y418239D01*
X161972Y418331D01*
X161978Y418425D01*
X161972Y421669D01*
X161950Y421761D01*
X161914Y421848D01*
X161865Y421929D01*
X161804Y422000D01*
X161732Y422062D01*
X161651Y422111D01*
X161564Y422147D01*
X161500Y422163D01*
Y422243D01*
X161729Y422294D01*
X161963Y422368D01*
X162035Y422400D01*
X162100Y422444D01*
X162159Y422497D01*
X162208Y422559D01*
X162246Y422628D01*
X162274Y422702D01*
X162290Y422779D01*
X162293Y422858D01*
X162284Y422937D01*
X162263Y423013D01*
X162230Y423085D01*
X162186Y423150D01*
X162133Y423209D01*
X162071Y423258D01*
X162002Y423296D01*
X161928Y423324D01*
X161851Y423340D01*
X161772Y423343D01*
X161693Y423334D01*
X161618Y423311D01*
X161500Y423272D01*
Y423379D01*
X162061Y423939D01*
X162217Y424116D01*
X162341Y424317D01*
X162431Y424535D01*
X162486Y424765D01*
X162505Y425000D01*
X162486Y425235D01*
X162431Y425465D01*
X162341Y425683D01*
X162217Y425884D01*
X162064Y426064D01*
X161884Y426217D01*
X161683Y426341D01*
X161465Y426431D01*
X161235Y426486D01*
X161000Y426505D01*
X160765Y426486D01*
X160535Y426431D01*
X160317Y426341D01*
X160263Y426308D01*
Y426661D01*
X160307Y426666D01*
X160382Y426689D01*
X160532Y426738D01*
X160686Y426772D01*
X160842Y426793D01*
X161000Y426800D01*
X161158Y426793D01*
X161314Y426772D01*
X161468Y426738D01*
X161618Y426690D01*
X161694Y426668D01*
X161772Y426659D01*
X161850Y426662D01*
X161927Y426678D01*
X162001Y426705D01*
X162070Y426744D01*
X162131Y426793D01*
X162185Y426851D01*
X162228Y426916D01*
X162261Y426988D01*
X162282Y427064D01*
X162291Y427142D01*
X162288Y427220D01*
X162272Y427298D01*
X162245Y427371D01*
X162206Y427440D01*
X162157Y427502D01*
X162099Y427555D01*
X162034Y427598D01*
X161962Y427630D01*
X161729Y427706D01*
X161489Y427760D01*
X161245Y427792D01*
X161000Y427803D01*
X160755Y427792D01*
X160511Y427760D01*
X160271Y427706D01*
X160263Y427704D01*
Y446339D01*
G37*
G36*
X153132Y445011D02*X155019Y446898D01*
X155064Y446936D01*
X155217Y447115D01*
X155217Y447116D01*
X155300Y447251D01*
X155329Y447132D01*
X155497Y446725D01*
X155728Y446349D01*
X156014Y446014D01*
X156349Y445728D01*
X156725Y445497D01*
X157132Y445329D01*
X157561Y445226D01*
X158000Y445191D01*
X158439Y445226D01*
X158868Y445329D01*
X159275Y445497D01*
X159651Y445728D01*
X159986Y446014D01*
X160263Y446339D01*
Y427704D01*
X160037Y427632D01*
X159965Y427600D01*
X159900Y427556D01*
X159841Y427503D01*
X159792Y427441D01*
X159754Y427372D01*
X159726Y427298D01*
X159710Y427221D01*
X159707Y427142D01*
X159716Y427063D01*
X159737Y426987D01*
X159770Y426915D01*
X159814Y426850D01*
X159867Y426791D01*
X159929Y426742D01*
X159998Y426704D01*
X160072Y426676D01*
X160149Y426660D01*
X160228Y426657D01*
X160263Y426661D01*
Y426308D01*
X160116Y426217D01*
X159939Y426061D01*
X159238Y425359D01*
X159262Y425468D01*
X159310Y425618D01*
X159332Y425694D01*
X159341Y425772D01*
X159338Y425850D01*
X159322Y425927D01*
X159295Y426001D01*
X159256Y426070D01*
X159207Y426131D01*
X159149Y426185D01*
X159084Y426228D01*
X159012Y426261D01*
X158936Y426282D01*
X158858Y426291D01*
X158780Y426288D01*
X158702Y426272D01*
X158629Y426245D01*
X158560Y426206D01*
X158498Y426157D01*
X158445Y426099D01*
X158402Y426034D01*
X158370Y425962D01*
X158294Y425729D01*
X158240Y425489D01*
X158208Y425245D01*
X158197Y425000D01*
X158208Y424755D01*
X158240Y424511D01*
X158294Y424271D01*
X158368Y424037D01*
X158400Y423965D01*
X158444Y423900D01*
X158497Y423841D01*
X158500Y423839D01*
Y422163D01*
X158436Y422147D01*
X158349Y422111D01*
X158268Y422062D01*
X158196Y422000D01*
X158135Y421929D01*
X158086Y421848D01*
X158050Y421761D01*
X158028Y421669D01*
X158022Y421575D01*
X158028Y418331D01*
X158050Y418239D01*
X158086Y418152D01*
X158135Y418071D01*
X158196Y418000D01*
X158268Y417938D01*
X158349Y417889D01*
X158436Y417853D01*
X158528Y417831D01*
X158622Y417825D01*
X160263Y417828D01*
Y404000D01*
X153132D01*
Y417826D01*
X155567Y417831D01*
X155658Y417853D01*
X155746Y417889D01*
X155826Y417938D01*
X155898Y418000D01*
X155959Y418071D01*
X156009Y418152D01*
X156045Y418239D01*
X156067Y418331D01*
X156072Y418425D01*
X156067Y421669D01*
X156045Y421761D01*
X156009Y421848D01*
X155959Y421929D01*
X155898Y422000D01*
X155826Y422062D01*
X155746Y422111D01*
X155658Y422147D01*
X155567Y422169D01*
X155472Y422175D01*
X155123Y422174D01*
X155272Y422349D01*
X155503Y422725D01*
X155671Y423132D01*
X155774Y423561D01*
X155800Y424000D01*
X155774Y424439D01*
X155671Y424868D01*
X155503Y425275D01*
X155272Y425651D01*
X154986Y425986D01*
X154651Y426272D01*
X154275Y426503D01*
X153868Y426671D01*
X153439Y426774D01*
X153132Y426798D01*
Y445011D01*
G37*
G36*
Y460747D02*X157000Y456879D01*
Y450616D01*
X156725Y450503D01*
X156349Y450272D01*
X156014Y449986D01*
X155728Y449651D01*
X155500Y449279D01*
Y452135D01*
X155651Y452228D01*
X155986Y452514D01*
X156272Y452849D01*
X156503Y453225D01*
X156671Y453632D01*
X156774Y454061D01*
X156800Y454500D01*
X156774Y454939D01*
X156671Y455368D01*
X156503Y455775D01*
X156272Y456151D01*
X155986Y456486D01*
X155651Y456772D01*
X155275Y457003D01*
X154868Y457171D01*
X154439Y457274D01*
X154000Y457309D01*
X153561Y457274D01*
X153132Y457171D01*
X153132Y457171D01*
Y460747D01*
G37*
G36*
Y490566D02*X176496Y490754D01*
Y484361D01*
X176063Y484359D01*
X175941Y484330D01*
X175824Y484282D01*
X175717Y484216D01*
X175621Y484134D01*
X175558Y484061D01*
X175496Y484134D01*
X175400Y484216D01*
X175293Y484282D01*
X175176Y484330D01*
X175054Y484359D01*
X174928Y484367D01*
X173504Y484359D01*
X173382Y484330D01*
X173265Y484282D01*
X173158Y484216D01*
X173062Y484134D01*
X173000Y484061D01*
X172938Y484134D01*
X172842Y484216D01*
X172735Y484282D01*
X172618Y484330D01*
X172496Y484359D01*
X172370Y484367D01*
X170946Y484359D01*
X170824Y484330D01*
X170707Y484282D01*
X170600Y484216D01*
X170504Y484134D01*
X170442Y484061D01*
X170379Y484134D01*
X170283Y484216D01*
X170176Y484282D01*
X170059Y484330D01*
X169937Y484359D01*
X169812Y484367D01*
X168387Y484359D01*
X168265Y484330D01*
X168148Y484282D01*
X168041Y484216D01*
X167945Y484134D01*
X167882Y484061D01*
X167820Y484134D01*
X167724Y484216D01*
X167617Y484282D01*
X167500Y484330D01*
X167378Y484359D01*
X167252Y484367D01*
X165828Y484359D01*
X165706Y484330D01*
X165589Y484282D01*
X165482Y484216D01*
X165386Y484134D01*
X165323Y484061D01*
X165261Y484134D01*
X165165Y484216D01*
X165058Y484282D01*
X164941Y484330D01*
X164819Y484359D01*
X164694Y484367D01*
X163269Y484359D01*
X163147Y484330D01*
X163030Y484282D01*
X162923Y484216D01*
X162827Y484134D01*
X162745Y484038D01*
X162679Y483931D01*
X162631Y483814D01*
X162602Y483692D01*
X162594Y483567D01*
X162602Y477536D01*
X162631Y477414D01*
X162679Y477297D01*
X162745Y477190D01*
X162827Y477094D01*
X162923Y477012D01*
X163030Y476946D01*
X163147Y476898D01*
X163269Y476869D01*
X163394Y476862D01*
X164819Y476869D01*
X164941Y476898D01*
X165058Y476946D01*
X165165Y477012D01*
X165261Y477094D01*
X165324Y477167D01*
X165386Y477094D01*
X165482Y477012D01*
X165589Y476946D01*
X165706Y476898D01*
X165828Y476869D01*
X165953Y476862D01*
X167378Y476869D01*
X167500Y476898D01*
X167617Y476946D01*
X167724Y477012D01*
X167820Y477094D01*
X167882Y477167D01*
X167945Y477094D01*
X168041Y477012D01*
X168148Y476946D01*
X168265Y476898D01*
X168387Y476869D01*
X168512Y476862D01*
X169747Y476868D01*
X169379Y476500D01*
X168559D01*
X168500Y476505D01*
X168265Y476486D01*
X168035Y476431D01*
X167817Y476341D01*
X167616Y476217D01*
X167615Y476217D01*
X167436Y476064D01*
X167398Y476019D01*
X166481Y475102D01*
X166436Y475064D01*
X166283Y474884D01*
X166159Y474683D01*
X166069Y474465D01*
X166014Y474235D01*
X166014Y474235D01*
X165995Y474000D01*
X166000Y473941D01*
Y473559D01*
X165995Y473500D01*
X166014Y473265D01*
X166069Y473035D01*
X166159Y472817D01*
X166211Y472732D01*
X166193Y472500D01*
X166221Y472139D01*
X166306Y471787D01*
X166444Y471453D01*
X166634Y471144D01*
X166869Y470869D01*
X167144Y470634D01*
X167453Y470444D01*
X167787Y470306D01*
X168139Y470221D01*
X168500Y470193D01*
X168861Y470221D01*
X169213Y470306D01*
X169547Y470444D01*
X169856Y470634D01*
X170131Y470869D01*
X170366Y471144D01*
X170500Y471362D01*
Y471138D01*
X170444Y471047D01*
X170306Y470713D01*
X170221Y470361D01*
X170193Y470000D01*
X170221Y469639D01*
X170306Y469287D01*
X170444Y468953D01*
X170634Y468644D01*
X170869Y468369D01*
X171144Y468134D01*
X171453Y467944D01*
X171787Y467806D01*
X172139Y467721D01*
X172500Y467693D01*
X172861Y467721D01*
X173213Y467806D01*
X173547Y467944D01*
X173856Y468134D01*
X174131Y468369D01*
X174366Y468644D01*
X174556Y468953D01*
X174694Y469287D01*
X174779Y469639D01*
X174800Y470000D01*
X174779Y470361D01*
X174694Y470713D01*
X174556Y471047D01*
X174366Y471356D01*
X174131Y471631D01*
X173856Y471866D01*
X173628Y472006D01*
X175019Y473398D01*
X175064Y473436D01*
X175217Y473615D01*
X175217Y473616D01*
X175341Y473817D01*
X175431Y474035D01*
X175486Y474265D01*
X175505Y474500D01*
X175500Y474559D01*
Y474879D01*
X176496Y473883D01*
Y473073D01*
X176453Y473056D01*
X176144Y472866D01*
X175869Y472631D01*
X175634Y472356D01*
X175444Y472047D01*
X175306Y471713D01*
X175221Y471361D01*
X175193Y471000D01*
X175221Y470639D01*
X175306Y470287D01*
X175444Y469953D01*
X175634Y469644D01*
X175869Y469369D01*
X176144Y469134D01*
X176453Y468944D01*
X176496Y468927D01*
Y464000D01*
X170621D01*
X166602Y468019D01*
X166564Y468064D01*
X166384Y468217D01*
X166183Y468341D01*
X165965Y468431D01*
X165735Y468486D01*
X165735Y468486D01*
X165500Y468505D01*
X165441Y468500D01*
X160621D01*
X160102Y469019D01*
X160064Y469064D01*
X160019Y469102D01*
X158500Y470621D01*
Y478635D01*
X158651Y478728D01*
X158986Y479014D01*
X159272Y479349D01*
X159503Y479725D01*
X159671Y480132D01*
X159774Y480561D01*
X159800Y481000D01*
X159774Y481439D01*
X159671Y481868D01*
X159503Y482275D01*
X159272Y482651D01*
X158986Y482986D01*
X158651Y483272D01*
X158275Y483503D01*
X157868Y483671D01*
X157439Y483774D01*
X157000Y483809D01*
X156561Y483774D01*
X156132Y483671D01*
X155725Y483503D01*
X155349Y483272D01*
X155014Y482986D01*
X154728Y482651D01*
X154497Y482275D01*
X154329Y481868D01*
X154226Y481439D01*
X154191Y481000D01*
X154226Y480561D01*
X154329Y480132D01*
X154497Y479725D01*
X154728Y479349D01*
X155014Y479014D01*
X155349Y478728D01*
X155500Y478635D01*
Y470059D01*
X155495Y470000D01*
X155514Y469765D01*
X155569Y469535D01*
X155659Y469317D01*
X155783Y469116D01*
X155936Y468936D01*
X155981Y468898D01*
X157005Y467873D01*
X157014Y467765D01*
X157069Y467535D01*
X157159Y467317D01*
X157283Y467116D01*
X157436Y466936D01*
X157616Y466783D01*
X157817Y466659D01*
X158035Y466569D01*
X158265Y466514D01*
X158371Y466508D01*
X158898Y465981D01*
X158936Y465936D01*
X159116Y465783D01*
X159317Y465659D01*
X159535Y465569D01*
X159765Y465514D01*
X160000Y465495D01*
X160059Y465500D01*
X164879D01*
X168898Y461481D01*
X168936Y461436D01*
X169115Y461283D01*
X169116Y461283D01*
X169317Y461159D01*
X169373Y461136D01*
X168387Y461131D01*
X168265Y461102D01*
X168148Y461054D01*
X168103Y461026D01*
Y461338D01*
X168108Y461397D01*
X168089Y461632D01*
X168089Y461632D01*
X168089Y461632D01*
X168089Y461633D01*
X168064Y461737D01*
X168034Y461862D01*
X168034Y461862D01*
X168034Y461862D01*
X167990Y461969D01*
X167944Y462080D01*
X167944Y462080D01*
X167944Y462080D01*
X167887Y462173D01*
X167820Y462281D01*
X167820Y462281D01*
X167820Y462282D01*
X167820Y462282D01*
X167667Y462461D01*
X167622Y462499D01*
X167102Y463019D01*
X167064Y463064D01*
X166884Y463217D01*
X166884Y463217D01*
X166884Y463217D01*
X166791Y463274D01*
X166683Y463341D01*
X166683Y463341D01*
X166683Y463341D01*
X166594Y463377D01*
X166465Y463431D01*
X166465Y463431D01*
X166465Y463431D01*
X166365Y463455D01*
X166235Y463486D01*
X166235Y463486D01*
X166235Y463486D01*
X166000Y463505D01*
X165941Y463500D01*
X163365D01*
X163272Y463651D01*
X162986Y463986D01*
X162651Y464272D01*
X162275Y464503D01*
X161868Y464671D01*
X161439Y464774D01*
X161000Y464809D01*
X160561Y464774D01*
X160132Y464671D01*
X159725Y464503D01*
X159349Y464272D01*
X159014Y463986D01*
X158728Y463651D01*
X158497Y463275D01*
X158329Y462868D01*
X158226Y462439D01*
X158191Y462000D01*
X158226Y461561D01*
X158329Y461132D01*
X158497Y460725D01*
X158728Y460349D01*
X159014Y460014D01*
X159349Y459728D01*
X159725Y459497D01*
X160132Y459329D01*
X160561Y459226D01*
X161000Y459191D01*
X161439Y459226D01*
X161868Y459329D01*
X162275Y459497D01*
X162595Y459694D01*
X162598Y457786D01*
X162558Y457621D01*
X162544Y457386D01*
Y454665D01*
X162186Y454308D01*
X161761Y454274D01*
X161332Y454171D01*
X160925Y454003D01*
X160549Y453772D01*
X160214Y453486D01*
X160000Y453235D01*
Y457441D01*
X160005Y457500D01*
X159986Y457735D01*
X159931Y457965D01*
X159841Y458183D01*
X159717Y458384D01*
X159564Y458564D01*
X159519Y458602D01*
X153132Y464989D01*
Y471216D01*
X153151Y471228D01*
X153486Y471514D01*
X153772Y471849D01*
X154003Y472225D01*
X154171Y472632D01*
X154274Y473061D01*
X154300Y473500D01*
X154274Y473939D01*
X154171Y474368D01*
X154003Y474775D01*
X153772Y475151D01*
X153486Y475486D01*
X153151Y475772D01*
X153132Y475784D01*
Y490566D01*
G37*
G36*
Y464989D02*X153000Y465121D01*
Y471135D01*
X153132Y471216D01*
Y464989D01*
G37*
G36*
X148284Y440203D02*X148575Y440678D01*
X148713Y441012D01*
X148735Y441014D01*
X148735Y441014D01*
X148965Y441069D01*
X149183Y441159D01*
X149384Y441283D01*
X149564Y441436D01*
X149602Y441481D01*
X153132Y445011D01*
Y426798D01*
X153000Y426809D01*
X152561Y426774D01*
X152132Y426671D01*
X151725Y426503D01*
X151349Y426272D01*
X151014Y425986D01*
X150728Y425651D01*
X150497Y425275D01*
X150329Y424868D01*
X150226Y424439D01*
X150191Y424000D01*
X150226Y423561D01*
X150329Y423132D01*
X150497Y422725D01*
X150728Y422349D01*
X151014Y422014D01*
X151349Y421728D01*
X151500Y421635D01*
Y421153D01*
X151495Y421094D01*
X151514Y420859D01*
X151569Y420630D01*
X151659Y420411D01*
X151783Y420210D01*
X151783Y420210D01*
X151936Y420031D01*
X151981Y419992D01*
X152119Y419854D01*
X152122Y418331D01*
X152144Y418239D01*
X152180Y418152D01*
X152230Y418071D01*
X152291Y418000D01*
X152363Y417938D01*
X152443Y417889D01*
X152531Y417853D01*
X152622Y417831D01*
X152717Y417825D01*
X153132Y417826D01*
Y404000D01*
X148284D01*
Y410203D01*
X148575Y410678D01*
X148816Y411260D01*
X148963Y411872D01*
X149000Y412500D01*
X148963Y413128D01*
X148816Y413740D01*
X148575Y414322D01*
X148284Y414797D01*
Y417703D01*
X148575Y418178D01*
X148816Y418760D01*
X148963Y419372D01*
X149000Y420000D01*
X148963Y420628D01*
X148816Y421240D01*
X148575Y421822D01*
X148284Y422297D01*
Y425203D01*
X148575Y425678D01*
X148816Y426260D01*
X148963Y426872D01*
X149000Y427500D01*
X148963Y428128D01*
X148816Y428740D01*
X148575Y429322D01*
X148284Y429797D01*
Y432869D01*
X148287Y432870D01*
X148355Y432909D01*
X148416Y432958D01*
X148469Y433017D01*
X148511Y433083D01*
X148674Y433408D01*
X148803Y433748D01*
X148901Y434098D01*
X148967Y434456D01*
X149000Y434818D01*
Y435182D01*
X148967Y435544D01*
X148901Y435902D01*
X148803Y436252D01*
X148674Y436592D01*
X148515Y436919D01*
X148472Y436985D01*
X148419Y437044D01*
X148357Y437094D01*
X148288Y437133D01*
X148284Y437135D01*
Y440203D01*
G37*
G36*
Y470203D02*X148575Y470678D01*
X148816Y471260D01*
X148963Y471872D01*
X148985Y472254D01*
X148997Y472225D01*
X149228Y471849D01*
X149514Y471514D01*
X149849Y471228D01*
X150000Y471135D01*
Y464559D01*
X149995Y464500D01*
X150014Y464265D01*
X150069Y464035D01*
X150159Y463817D01*
X150283Y463616D01*
X150283Y463615D01*
X150436Y463436D01*
X150481Y463398D01*
X153132Y460747D01*
Y457171D01*
X152725Y457003D01*
X152349Y456772D01*
X152014Y456486D01*
X151728Y456151D01*
X151497Y455775D01*
X151329Y455368D01*
X151226Y454939D01*
X151191Y454500D01*
X151226Y454061D01*
X151329Y453632D01*
X151497Y453225D01*
X151728Y452849D01*
X152014Y452514D01*
X152349Y452228D01*
X152500Y452135D01*
Y448621D01*
X148433Y444554D01*
X148284Y444797D01*
Y447703D01*
X148575Y448178D01*
X148816Y448760D01*
X148963Y449372D01*
X149000Y450000D01*
X148963Y450628D01*
X148816Y451240D01*
X148575Y451822D01*
X148284Y452297D01*
Y455203D01*
X148575Y455678D01*
X148816Y456260D01*
X148963Y456872D01*
X149000Y457500D01*
X148963Y458128D01*
X148816Y458740D01*
X148575Y459322D01*
X148284Y459797D01*
Y462869D01*
X148287Y462870D01*
X148355Y462909D01*
X148416Y462958D01*
X148469Y463017D01*
X148511Y463083D01*
X148674Y463408D01*
X148803Y463748D01*
X148901Y464098D01*
X148967Y464456D01*
X149000Y464818D01*
Y465182D01*
X148967Y465544D01*
X148901Y465902D01*
X148803Y466252D01*
X148674Y466592D01*
X148515Y466919D01*
X148472Y466985D01*
X148419Y467044D01*
X148357Y467094D01*
X148288Y467133D01*
X148284Y467135D01*
Y470203D01*
G37*
G36*
Y490526D02*X153132Y490566D01*
Y475784D01*
X152775Y476003D01*
X152368Y476171D01*
X151939Y476274D01*
X151500Y476309D01*
X151061Y476274D01*
X150632Y476171D01*
X150225Y476003D01*
X149849Y475772D01*
X149514Y475486D01*
X149228Y475151D01*
X148997Y474775D01*
X148829Y474368D01*
X148729Y473951D01*
X148575Y474322D01*
X148284Y474797D01*
Y477703D01*
X148575Y478178D01*
X148816Y478760D01*
X148963Y479372D01*
X149000Y480000D01*
X148963Y480628D01*
X148816Y481240D01*
X148575Y481822D01*
X148284Y482297D01*
Y490526D01*
G37*
G36*
Y422297D02*X148246Y422358D01*
X147837Y422837D01*
X147358Y423246D01*
X146822Y423575D01*
X146399Y423750D01*
X146822Y423925D01*
X147358Y424254D01*
X147837Y424663D01*
X148246Y425142D01*
X148284Y425203D01*
Y422297D01*
G37*
G36*
Y414797D02*X148246Y414858D01*
X147837Y415337D01*
X147358Y415746D01*
X146822Y416075D01*
X146399Y416250D01*
X146822Y416425D01*
X147358Y416754D01*
X147837Y417163D01*
X148246Y417642D01*
X148284Y417703D01*
Y414797D01*
G37*
G36*
Y452297D02*X148246Y452358D01*
X147837Y452837D01*
X147358Y453246D01*
X146822Y453575D01*
X146399Y453750D01*
X146822Y453925D01*
X147358Y454254D01*
X147837Y454663D01*
X148246Y455142D01*
X148284Y455203D01*
Y452297D01*
G37*
G36*
Y444797D02*X148246Y444858D01*
X147837Y445337D01*
X147358Y445746D01*
X146822Y446075D01*
X146399Y446250D01*
X146822Y446425D01*
X147358Y446754D01*
X147837Y447163D01*
X148246Y447642D01*
X148284Y447703D01*
Y444797D01*
G37*
G36*
Y474797D02*X148246Y474858D01*
X147837Y475337D01*
X147358Y475746D01*
X146822Y476075D01*
X146399Y476250D01*
X146822Y476425D01*
X147358Y476754D01*
X147837Y477163D01*
X148246Y477642D01*
X148284Y477703D01*
Y474797D01*
G37*
G36*
X141716Y410203D02*X141754Y410142D01*
X142163Y409663D01*
X142642Y409254D01*
X143178Y408925D01*
X143760Y408684D01*
X144372Y408537D01*
X145000Y408488D01*
X145628Y408537D01*
X146240Y408684D01*
X146822Y408925D01*
X147358Y409254D01*
X147837Y409663D01*
X148246Y410142D01*
X148284Y410203D01*
Y404000D01*
X143000D01*
X141716Y404856D01*
Y410203D01*
G37*
G36*
Y417703D02*X141754Y417642D01*
X142163Y417163D01*
X142642Y416754D01*
X143178Y416425D01*
X143601Y416250D01*
X143178Y416075D01*
X142642Y415746D01*
X142163Y415337D01*
X141754Y414858D01*
X141716Y414797D01*
Y417703D01*
G37*
G36*
Y425203D02*X141754Y425142D01*
X142163Y424663D01*
X142642Y424254D01*
X143178Y423925D01*
X143601Y423750D01*
X143178Y423575D01*
X142642Y423246D01*
X142163Y422837D01*
X141754Y422358D01*
X141716Y422297D01*
Y425203D01*
G37*
G36*
Y440203D02*X141754Y440142D01*
X142163Y439663D01*
X142642Y439254D01*
X143178Y438925D01*
X143604Y438749D01*
X143408Y438674D01*
X143081Y438515D01*
X143015Y438472D01*
X142956Y438419D01*
X142906Y438357D01*
X142867Y438288D01*
X142839Y438214D01*
X142823Y438137D01*
X142819Y438058D01*
X142827Y437979D01*
X142848Y437903D01*
X142880Y437830D01*
X142923Y437764D01*
X142976Y437705D01*
X143038Y437656D01*
X143107Y437616D01*
X143181Y437588D01*
X143258Y437572D01*
X143337Y437568D01*
X143416Y437576D01*
X143493Y437597D01*
X143564Y437630D01*
X143807Y437753D01*
X144062Y437850D01*
X144324Y437923D01*
X144592Y437972D01*
X144864Y437997D01*
X145136D01*
X145408Y437972D01*
X145676Y437923D01*
X145938Y437850D01*
X146193Y437753D01*
X146437Y437633D01*
X146509Y437600D01*
X146584Y437579D01*
X146663Y437571D01*
X146741Y437575D01*
X146818Y437591D01*
X146892Y437619D01*
X146960Y437658D01*
X147021Y437707D01*
X147074Y437766D01*
X147117Y437832D01*
X147149Y437904D01*
X147170Y437980D01*
X147178Y438058D01*
X147174Y438136D01*
X147158Y438213D01*
X147130Y438287D01*
X147091Y438355D01*
X147042Y438416D01*
X146983Y438469D01*
X146917Y438511D01*
X146592Y438674D01*
X146396Y438749D01*
X146822Y438925D01*
X147358Y439254D01*
X147837Y439663D01*
X148246Y440142D01*
X148284Y440203D01*
Y437135D01*
X148214Y437161D01*
X148137Y437177D01*
X148058Y437181D01*
X147979Y437173D01*
X147903Y437152D01*
X147830Y437120D01*
X147764Y437077D01*
X147705Y437024D01*
X147656Y436962D01*
X147616Y436893D01*
X147588Y436819D01*
X147572Y436742D01*
X147568Y436663D01*
X147576Y436584D01*
X147597Y436507D01*
X147630Y436436D01*
X147753Y436193D01*
X147850Y435938D01*
X147923Y435676D01*
X147972Y435408D01*
X147997Y435136D01*
Y434864D01*
X147972Y434592D01*
X147923Y434324D01*
X147850Y434062D01*
X147753Y433807D01*
X147633Y433563D01*
X147600Y433491D01*
X147579Y433416D01*
X147571Y433337D01*
X147575Y433259D01*
X147591Y433182D01*
X147619Y433108D01*
X147658Y433040D01*
X147707Y432979D01*
X147766Y432926D01*
X147832Y432883D01*
X147904Y432851D01*
X147980Y432830D01*
X148058Y432822D01*
X148136Y432826D01*
X148213Y432842D01*
X148284Y432869D01*
Y429797D01*
X148246Y429858D01*
X147837Y430337D01*
X147358Y430746D01*
X146822Y431075D01*
X146396Y431251D01*
X146592Y431326D01*
X146919Y431485D01*
X146985Y431528D01*
X147044Y431581D01*
X147094Y431643D01*
X147133Y431712D01*
X147161Y431786D01*
X147177Y431863D01*
X147181Y431942D01*
X147173Y432021D01*
X147152Y432097D01*
X147120Y432170D01*
X147077Y432236D01*
X147024Y432295D01*
X146962Y432344D01*
X146893Y432384D01*
X146819Y432412D01*
X146742Y432428D01*
X146663Y432432D01*
X146584Y432424D01*
X146507Y432403D01*
X146436Y432370D01*
X146193Y432247D01*
X145938Y432150D01*
X145676Y432077D01*
X145408Y432028D01*
X145136Y432003D01*
X144864D01*
X144592Y432028D01*
X144324Y432077D01*
X144062Y432150D01*
X143807Y432247D01*
X143563Y432367D01*
X143491Y432400D01*
X143415Y432421D01*
X143337Y432429D01*
X143259Y432425D01*
X143182Y432409D01*
X143108Y432381D01*
X143040Y432342D01*
X142979Y432293D01*
X142926Y432234D01*
X142883Y432168D01*
X142851Y432096D01*
X142830Y432020D01*
X142822Y431942D01*
X142826Y431864D01*
X142842Y431787D01*
X142870Y431713D01*
X142909Y431645D01*
X142958Y431584D01*
X143017Y431531D01*
X143083Y431489D01*
X143408Y431326D01*
X143604Y431251D01*
X143178Y431075D01*
X142642Y430746D01*
X142163Y430337D01*
X141754Y429858D01*
X141716Y429797D01*
Y432865D01*
X141786Y432839D01*
X141863Y432823D01*
X141942Y432819D01*
X142021Y432827D01*
X142097Y432848D01*
X142170Y432880D01*
X142236Y432923D01*
X142295Y432976D01*
X142344Y433038D01*
X142384Y433107D01*
X142412Y433181D01*
X142428Y433258D01*
X142432Y433337D01*
X142424Y433416D01*
X142403Y433493D01*
X142370Y433564D01*
X142247Y433807D01*
X142150Y434062D01*
X142077Y434324D01*
X142028Y434592D01*
X142003Y434864D01*
Y435136D01*
X142028Y435408D01*
X142077Y435676D01*
X142150Y435938D01*
X142247Y436193D01*
X142367Y436437D01*
X142400Y436509D01*
X142421Y436585D01*
X142429Y436663D01*
X142425Y436741D01*
X142409Y436818D01*
X142381Y436892D01*
X142342Y436960D01*
X142293Y437021D01*
X142234Y437074D01*
X142168Y437117D01*
X142096Y437149D01*
X142020Y437170D01*
X141942Y437178D01*
X141864Y437174D01*
X141787Y437158D01*
X141716Y437131D01*
Y440203D01*
G37*
G36*
Y447703D02*X141754Y447642D01*
X142163Y447163D01*
X142642Y446754D01*
X143178Y446425D01*
X143601Y446250D01*
X143178Y446075D01*
X142642Y445746D01*
X142163Y445337D01*
X141754Y444858D01*
X141716Y444797D01*
Y447703D01*
G37*
G36*
Y455203D02*X141754Y455142D01*
X142163Y454663D01*
X142642Y454254D01*
X143178Y453925D01*
X143601Y453750D01*
X143178Y453575D01*
X142642Y453246D01*
X142163Y452837D01*
X141754Y452358D01*
X141716Y452297D01*
Y455203D01*
G37*
G36*
Y470203D02*X141754Y470142D01*
X142163Y469663D01*
X142642Y469254D01*
X143178Y468925D01*
X143604Y468749D01*
X143408Y468674D01*
X143081Y468515D01*
X143015Y468472D01*
X142956Y468419D01*
X142906Y468357D01*
X142867Y468288D01*
X142839Y468214D01*
X142823Y468137D01*
X142819Y468058D01*
X142827Y467979D01*
X142848Y467903D01*
X142880Y467830D01*
X142923Y467764D01*
X142976Y467705D01*
X143038Y467656D01*
X143107Y467616D01*
X143181Y467588D01*
X143258Y467572D01*
X143337Y467568D01*
X143416Y467576D01*
X143493Y467597D01*
X143564Y467630D01*
X143807Y467753D01*
X144062Y467850D01*
X144324Y467923D01*
X144592Y467972D01*
X144864Y467997D01*
X145136D01*
X145408Y467972D01*
X145676Y467923D01*
X145938Y467850D01*
X146193Y467753D01*
X146437Y467633D01*
X146509Y467600D01*
X146584Y467579D01*
X146663Y467571D01*
X146741Y467575D01*
X146818Y467591D01*
X146892Y467619D01*
X146960Y467658D01*
X147021Y467707D01*
X147074Y467766D01*
X147117Y467832D01*
X147149Y467904D01*
X147170Y467980D01*
X147178Y468058D01*
X147174Y468136D01*
X147158Y468213D01*
X147130Y468287D01*
X147091Y468355D01*
X147042Y468416D01*
X146983Y468469D01*
X146917Y468511D01*
X146592Y468674D01*
X146396Y468749D01*
X146822Y468925D01*
X147358Y469254D01*
X147837Y469663D01*
X148246Y470142D01*
X148284Y470203D01*
Y467135D01*
X148214Y467161D01*
X148137Y467177D01*
X148058Y467181D01*
X147979Y467173D01*
X147903Y467152D01*
X147830Y467120D01*
X147764Y467077D01*
X147705Y467024D01*
X147656Y466962D01*
X147616Y466893D01*
X147588Y466819D01*
X147572Y466742D01*
X147568Y466663D01*
X147576Y466584D01*
X147597Y466507D01*
X147630Y466436D01*
X147753Y466193D01*
X147850Y465938D01*
X147923Y465676D01*
X147972Y465408D01*
X147997Y465136D01*
Y464864D01*
X147972Y464592D01*
X147923Y464324D01*
X147850Y464062D01*
X147753Y463807D01*
X147633Y463563D01*
X147600Y463491D01*
X147579Y463416D01*
X147571Y463337D01*
X147575Y463259D01*
X147591Y463182D01*
X147619Y463108D01*
X147658Y463040D01*
X147707Y462979D01*
X147766Y462926D01*
X147832Y462883D01*
X147904Y462851D01*
X147980Y462830D01*
X148058Y462822D01*
X148136Y462826D01*
X148213Y462842D01*
X148284Y462869D01*
Y459797D01*
X148246Y459858D01*
X147837Y460337D01*
X147358Y460746D01*
X146822Y461075D01*
X146396Y461251D01*
X146592Y461326D01*
X146919Y461485D01*
X146985Y461528D01*
X147044Y461581D01*
X147094Y461643D01*
X147133Y461712D01*
X147161Y461786D01*
X147177Y461863D01*
X147181Y461942D01*
X147173Y462021D01*
X147152Y462097D01*
X147120Y462170D01*
X147077Y462236D01*
X147024Y462295D01*
X146962Y462344D01*
X146893Y462384D01*
X146819Y462412D01*
X146742Y462428D01*
X146663Y462432D01*
X146584Y462424D01*
X146507Y462403D01*
X146436Y462370D01*
X146193Y462247D01*
X145938Y462150D01*
X145676Y462077D01*
X145408Y462028D01*
X145136Y462003D01*
X144864D01*
X144592Y462028D01*
X144324Y462077D01*
X144062Y462150D01*
X143807Y462247D01*
X143563Y462367D01*
X143491Y462400D01*
X143415Y462421D01*
X143337Y462429D01*
X143259Y462425D01*
X143182Y462409D01*
X143108Y462381D01*
X143040Y462342D01*
X142979Y462293D01*
X142926Y462234D01*
X142883Y462168D01*
X142851Y462096D01*
X142830Y462020D01*
X142822Y461942D01*
X142826Y461864D01*
X142842Y461787D01*
X142870Y461713D01*
X142909Y461645D01*
X142958Y461584D01*
X143017Y461531D01*
X143083Y461489D01*
X143408Y461326D01*
X143604Y461251D01*
X143178Y461075D01*
X142642Y460746D01*
X142163Y460337D01*
X141754Y459858D01*
X141716Y459797D01*
Y462865D01*
X141786Y462839D01*
X141863Y462823D01*
X141942Y462819D01*
X142021Y462827D01*
X142097Y462848D01*
X142170Y462880D01*
X142236Y462923D01*
X142295Y462976D01*
X142344Y463038D01*
X142384Y463107D01*
X142412Y463181D01*
X142428Y463258D01*
X142432Y463337D01*
X142424Y463416D01*
X142403Y463493D01*
X142370Y463564D01*
X142247Y463807D01*
X142150Y464062D01*
X142077Y464324D01*
X142028Y464592D01*
X142003Y464864D01*
Y465136D01*
X142028Y465408D01*
X142077Y465676D01*
X142150Y465938D01*
X142247Y466193D01*
X142367Y466437D01*
X142400Y466509D01*
X142421Y466585D01*
X142429Y466663D01*
X142425Y466741D01*
X142409Y466818D01*
X142381Y466892D01*
X142342Y466960D01*
X142293Y467021D01*
X142234Y467074D01*
X142168Y467117D01*
X142096Y467149D01*
X142020Y467170D01*
X141942Y467178D01*
X141864Y467174D01*
X141787Y467158D01*
X141716Y467131D01*
Y470203D01*
G37*
G36*
Y477703D02*X141754Y477642D01*
X142163Y477163D01*
X142642Y476754D01*
X143178Y476425D01*
X143601Y476250D01*
X143178Y476075D01*
X142642Y475746D01*
X142163Y475337D01*
X141754Y474858D01*
X141716Y474797D01*
Y477703D01*
G37*
G36*
Y487011D02*X145000Y490500D01*
X148284Y490526D01*
Y482297D01*
X148246Y482358D01*
X147837Y482837D01*
X147358Y483246D01*
X146822Y483575D01*
X146240Y483816D01*
X145628Y483963D01*
X145000Y484012D01*
X144372Y483963D01*
X143760Y483816D01*
X143178Y483575D01*
X142642Y483246D01*
X142163Y482837D01*
X141754Y482358D01*
X141716Y482297D01*
Y487011D01*
G37*
G36*
X137000Y408000D02*Y482000D01*
X141716Y487011D01*
Y482297D01*
X141425Y481822D01*
X141184Y481240D01*
X141037Y480628D01*
X140988Y480000D01*
X141037Y479372D01*
X141184Y478760D01*
X141425Y478178D01*
X141716Y477703D01*
Y474797D01*
X141425Y474322D01*
X141184Y473740D01*
X141037Y473128D01*
X140988Y472500D01*
X141037Y471872D01*
X141184Y471260D01*
X141425Y470678D01*
X141716Y470203D01*
Y467131D01*
X141713Y467130D01*
X141645Y467091D01*
X141584Y467042D01*
X141531Y466983D01*
X141489Y466917D01*
X141326Y466592D01*
X141197Y466252D01*
X141099Y465902D01*
X141033Y465544D01*
X141000Y465182D01*
Y464818D01*
X141033Y464456D01*
X141099Y464098D01*
X141197Y463748D01*
X141326Y463408D01*
X141485Y463081D01*
X141528Y463015D01*
X141581Y462956D01*
X141643Y462906D01*
X141712Y462867D01*
X141716Y462865D01*
Y459797D01*
X141425Y459322D01*
X141184Y458740D01*
X141037Y458128D01*
X140988Y457500D01*
X141037Y456872D01*
X141184Y456260D01*
X141425Y455678D01*
X141716Y455203D01*
Y452297D01*
X141425Y451822D01*
X141184Y451240D01*
X141037Y450628D01*
X140988Y450000D01*
X141037Y449372D01*
X141184Y448760D01*
X141425Y448178D01*
X141716Y447703D01*
Y444797D01*
X141425Y444322D01*
X141184Y443740D01*
X141037Y443128D01*
X140988Y442500D01*
X141037Y441872D01*
X141184Y441260D01*
X141425Y440678D01*
X141716Y440203D01*
Y437131D01*
X141713Y437130D01*
X141645Y437091D01*
X141584Y437042D01*
X141531Y436983D01*
X141489Y436917D01*
X141326Y436592D01*
X141197Y436252D01*
X141099Y435902D01*
X141033Y435544D01*
X141000Y435182D01*
Y434818D01*
X141033Y434456D01*
X141099Y434098D01*
X141197Y433748D01*
X141326Y433408D01*
X141485Y433081D01*
X141528Y433015D01*
X141581Y432956D01*
X141643Y432906D01*
X141712Y432867D01*
X141716Y432865D01*
Y429797D01*
X141425Y429322D01*
X141184Y428740D01*
X141037Y428128D01*
X140988Y427500D01*
X141037Y426872D01*
X141184Y426260D01*
X141425Y425678D01*
X141716Y425203D01*
Y422297D01*
X141425Y421822D01*
X141184Y421240D01*
X141037Y420628D01*
X140988Y420000D01*
X141037Y419372D01*
X141184Y418760D01*
X141425Y418178D01*
X141716Y417703D01*
Y414797D01*
X141425Y414322D01*
X141184Y413740D01*
X141037Y413128D01*
X140988Y412500D01*
X141037Y411872D01*
X141184Y411260D01*
X141425Y410678D01*
X141716Y410203D01*
Y404856D01*
X137000Y408000D01*
G37*
G54D28*X160000Y424000D02*X161000Y425000D01*
X171100Y422800D02*Y418100D01*
X160000Y420000D02*Y424000D01*
G54D29*X175000Y419953D02*X175047D01*
G54D28*X171100Y418100D02*X167000Y414000D01*
G54D29*X175000Y410047D02*X171047D01*
G54D28*X189953Y419000D02*X190000Y415000D01*
G54D29*X180906D02*Y412094D01*
G54D28*X183700Y418000D02*X186000D01*
X153000Y424000D02*Y421094D01*
X154094Y420000D01*
G54D29*X175000Y422800D02*Y415000D01*
G54D28*X178900Y422800D02*X183700Y418000D01*
G54D29*X167500Y437047D02*X171100Y433447D01*
X167500Y442953D02*X180953D01*
X181000Y442906D01*
X178900Y431000D02*X181000Y433100D01*
X174000Y437000D02*X175000Y436000D01*
Y431000D02*Y436000D01*
X171100Y433447D02*Y431000D01*
G54D28*X145000Y442500D02*X148500D01*
X154000Y448000D01*
G54D29*X181000Y433100D02*Y437000D01*
G54D28*X193000Y436000D02*X197280D01*
G54D29*X193000Y442047D02*Y436000D01*
G54D28*Y447953D02*Y451000D01*
X184000Y453000D02*X178000D01*
X176838Y454162D01*
X174000Y449906D02*X176838Y452744D01*
Y454162D02*Y457386D01*
Y452744D02*Y457386D01*
X194000Y453236D02*Y455000D01*
X204280Y437882D02*Y431626D01*
X201720Y437882D02*Y431720D01*
X203500Y416500D02*Y417500D01*
X209000Y423000D01*
Y435720D01*
X206839Y437882D01*
X204280Y431626D02*X205906Y430000D01*
X203953Y424000D02*Y427953D01*
X205953Y429953D01*
X201720Y431720D02*X200000Y430000D01*
X197000D02*X200000D01*
X198047Y424000D02*X195000D01*
X197280Y436000D02*X199161Y437882D01*
X201720Y448118D02*X199161D01*
X206839Y437882D02*X206882D01*
X202057Y455016D02*X203264D01*
X199118Y448118D02*X194000Y453236D01*
X202000Y455016D02*X200057D01*
X203264D02*X204280Y454000D01*
X206839Y448118D02*X207000Y444000D01*
X204280Y448118D02*Y454280D01*
X205000Y455000D01*
X207000D01*
X210000Y441000D02*Y457000D01*
X206882Y437882D02*X210000Y441000D01*
X209000Y458000D02*X189000D01*
X184000Y453000D01*
X210000Y457000D02*X209000Y458000D01*
X151500Y464500D02*Y473500D01*
X165500Y467000D02*X160000D01*
X159000Y468000D01*
X158500D01*
Y457500D02*X151500Y464500D01*
X157000Y470000D02*X160000Y467000D01*
X179397Y457386D02*Y462103D01*
X179000Y462500D01*
X181956Y457386D02*Y457956D01*
X185500Y461500D01*
X179000Y462500D02*X170000D01*
X194000Y460953D02*Y468500D01*
X200057Y460921D02*Y462943D01*
X200000Y463000D01*
X206000Y460906D02*Y465000D01*
X171721Y480614D02*Y477721D01*
Y480614D02*Y477721D01*
Y477500D02*Y476721D01*
X174000Y478500D02*Y474500D01*
X172000Y472500D01*
Y470500D01*
X172500Y470000D01*
X169162Y457386D02*Y453162D01*
X166603Y457386D02*Y461397D01*
X158000Y448000D02*X164162D01*
X158900Y448900D02*X158000Y448000D01*
X158500Y448500D02*X158000Y448000D01*
X169162Y453000D02*X164162Y448000D01*
X166603Y461397D02*X166000Y462000D01*
X161000D01*
X164044Y454044D02*X162100Y452100D01*
X164044Y457386D02*Y454044D01*
X164000Y454000D01*
X158500Y448500D02*Y457500D01*
X154000Y448000D02*Y454500D01*
X176500Y478500D02*Y476000D01*
X178500Y474000D01*
Y472000D01*
X177500Y471000D01*
X181956Y480614D02*X184386D01*
X185000Y480000D01*
X182000Y474500D02*X179397Y477103D01*
Y480614D01*
X203000Y477500D02*X194000Y468500D01*
X170000Y462500D02*X165500Y467000D01*
X167500Y474000D02*Y473500D01*
X168500Y472500D01*
X157000Y481000D02*Y470000D01*
X171721Y476721D02*X170000Y475000D01*
X168500D02*X167500Y474000D01*
X169162Y480614D02*X161114D01*
X170000Y475000D02*X168500D01*
G54D27*G36*
X200500Y419500D02*Y413500D01*
X206500D01*
Y419500D01*
X200500D01*
G37*
G36*
X200000Y480500D02*Y474500D01*
X206000D01*
Y480500D01*
X200000D01*
G37*
G54D30*X145000Y480000D03*
Y472500D03*
Y465000D03*
Y457500D03*
Y450000D03*
Y442500D03*
Y435000D03*
Y427500D03*
Y420000D03*
Y412500D03*
G54D31*X160000Y420197D02*Y419803D01*
X154094Y420197D02*Y419803D01*
X193803Y460953D02*X194197D01*
X193803Y455047D02*X194197D01*
G54D32*X181956Y459689D02*Y455083D01*
X171721Y459689D02*Y455083D01*
G54D31*X173803Y449906D02*X174197D01*
G54D32*X179397Y459689D02*Y455083D01*
X176838Y459689D02*Y455083D01*
G54D31*X199860Y460921D02*X200254D01*
X199860Y455016D02*X200254D01*
X180803Y437000D02*X181197D01*
X180803Y442906D02*X181197D01*
X167303Y437047D02*X167697D01*
X167303Y442953D02*X167697D01*
G54D33*X171100Y431800D02*Y430200D01*
X175000Y431800D02*Y430200D01*
X178900Y431800D02*Y430200D01*
Y423600D02*Y422000D01*
G54D31*X180906Y415197D02*Y414803D01*
G54D33*X175000Y423600D02*Y422000D01*
G54D31*Y415197D02*Y414803D01*
G54D33*X171100Y423600D02*Y422000D01*
G54D31*X173803Y444000D02*X174197D01*
X205906Y430197D02*Y429803D01*
X200000Y430197D02*Y429803D01*
X198047Y424197D02*Y423803D01*
X203953Y424197D02*Y423803D01*
X192803Y447953D02*X193197D01*
X192803Y442047D02*X193197D01*
G54D34*X199161Y449594D02*Y446642D01*
X201720Y449594D02*Y446642D01*
X204280Y449594D02*Y446642D01*
X206839Y449594D02*Y446642D01*
Y439358D02*Y436406D01*
X204280Y439358D02*Y436406D01*
X201720Y439358D02*Y436406D01*
X199161Y439358D02*Y436406D01*
G54D32*X176838Y482917D02*Y478311D01*
X179397Y482917D02*Y478311D01*
X181956Y482917D02*Y478311D01*
X171721Y482917D02*Y478311D01*
X174279Y482917D02*Y478311D01*
X164044Y482917D02*Y478311D01*
X166603Y482917D02*Y478311D01*
X169162Y482917D02*Y478311D01*
X174279Y459689D02*Y455083D01*
X169162Y459689D02*Y455083D01*
X166603Y459689D02*Y455083D01*
X164044Y459689D02*Y455083D01*
G54D31*X205803Y460906D02*X206197D01*
X205803Y455000D02*X206197D01*
G54D35*X161000Y425000D03*
X153000Y424000D03*
X175000Y419953D03*
X186000Y418000D03*
X167000Y414000D03*
G54D30*X174000Y438000D03*
X193000Y436000D03*
G54D35*X197000Y430000D03*
X187500Y443000D03*
X185000Y480000D03*
G54D36*X177500Y471000D03*
X172500Y470000D03*
X168500Y472500D03*
X182000Y474500D03*
G54D35*X161000Y462000D03*
X162200Y451500D03*
X158000Y448000D03*
X154000Y454500D03*
X151500Y473500D03*
X157000Y481000D03*
G54D36*X185500Y461500D03*
G54D35*X200000Y463000D03*
G54D37*G54D38*G54D37*G54D39*G54D37*G54D39*G54D37*G54D40*G54D38*M02*
