G04 start of page 5 for group 3 idx 3 *
G04 Title: (unknown), signal3 *
G04 Creator: pcb 1.99z *
G04 CreationDate: Sun 23 Mar 2014 08:23:50 PM GMT UTC *
G04 For: ben *
G04 Format: Gerber/RS-274X *
G04 PCB-Dimensions (mil): 6000.00 5000.00 *
G04 PCB-Coordinate-Origin: lower left *
%MOIN*%
%FSLAX25Y25*%
%LNBOTTOM*%
%ADD56C,0.0380*%
%ADD55C,0.0350*%
%ADD54C,0.0130*%
%ADD53C,0.0200*%
%ADD52C,0.0300*%
%ADD51C,0.0360*%
%ADD50R,0.0276X0.0276*%
%ADD49R,0.0240X0.0240*%
%ADD48R,0.0130X0.0130*%
%ADD47C,0.0001*%
%ADD46C,0.0600*%
%ADD45C,0.0250*%
%ADD44C,0.0100*%
G54D44*X181500Y428550D02*X185450D01*
X186000Y428000D01*
G54D45*X175000Y412047D02*Y409000D01*
Y422800D02*Y417953D01*
X178900Y422800D02*Y411147D01*
X180047Y410000D01*
X185953D02*X192000D01*
G54D44*X164000Y480000D02*X168548D01*
X169162Y480614D01*
X168000Y476000D02*X167000Y475000D01*
X164000Y482000D02*Y476500D01*
X162500Y475000D01*
X171721Y480614D02*Y477721D01*
Y480614D02*Y477721D01*
X170000Y476000D01*
X168000D01*
X173000Y475000D02*X174279Y476279D01*
Y480614D02*Y476279D01*
X181956Y480614D02*Y476044D01*
X183000Y475000D01*
X179397Y473603D02*Y480614D01*
X176838D02*Y473338D01*
X169162Y461162D02*X170000Y462000D01*
X171500Y463500D01*
X173500D01*
X181956Y457956D02*X185500Y461500D01*
X180000Y472000D02*Y473000D01*
X179397Y473603D01*
X176838Y473338D02*X176000Y472500D01*
X179397Y466603D02*X178500Y467500D01*
X174500D01*
X171500Y470500D01*
X181956Y457386D02*Y457956D01*
X179397Y457386D02*Y466603D01*
X169162Y457386D02*Y461162D01*
X166603Y457386D02*Y461397D01*
X166000Y462000D01*
X169162Y457386D02*Y453162D01*
X174000Y447000D02*Y448000D01*
X169162Y453162D02*X174000Y448000D01*
X169162Y452838D02*X168324Y452000D01*
X164044Y456956D02*X162044D01*
X162000Y457000D01*
X159547Y442953D02*X145000Y457500D01*
X164044Y457386D02*Y456044D01*
X163000Y462000D02*X166000D01*
X159000Y461000D02*X160000Y462000D01*
X164000D02*X160000D01*
X168324Y452000D02*X161000D01*
X160000Y420000D02*Y424000D01*
X161000Y425000D01*
X171100Y422800D02*Y422100D01*
X168000Y419000D01*
X153000Y424000D02*Y421094D01*
X154094Y420000D01*
X166500Y428550D02*Y432500D01*
X163000Y436000D01*
G54D45*X175000Y431000D02*Y436000D01*
X169000Y437047D02*Y433100D01*
X171100Y431000D01*
X178900D02*Y435947D01*
X180000Y437047D01*
X174000Y437000D02*X175000Y436000D01*
G54D44*X180000Y442953D02*X159547D01*
G54D46*X145000Y480000D03*
Y472500D03*
Y465000D03*
Y457500D03*
Y450000D03*
G54D47*G36*
X152000Y413000D02*Y407000D01*
X158000D01*
Y413000D01*
X152000D01*
G37*
G36*
X189000D02*Y407000D01*
X195000D01*
Y413000D01*
X189000D01*
G37*
G54D46*X145000Y442500D03*
Y435000D03*
Y427500D03*
Y420000D03*
Y412500D03*
G54D48*X164044Y482917D02*Y478311D01*
X166603Y482917D02*Y478311D01*
X169162Y482917D02*Y478311D01*
X171721Y482917D02*Y478311D01*
X174279Y482917D02*Y478311D01*
X176838Y482917D02*Y478311D01*
X179397Y482917D02*Y478311D01*
X181956Y482917D02*Y478311D01*
G54D49*X171100Y431800D02*Y430200D01*
X175000Y431800D02*Y430200D01*
X178900Y431800D02*Y430200D01*
G54D50*X168803Y437047D02*X169197D01*
X160000Y420197D02*Y419803D01*
X154094Y420197D02*Y419803D01*
G54D48*X181956Y459689D02*Y455083D01*
X179397Y459689D02*Y455083D01*
X176838Y459689D02*Y455083D01*
X174279Y459689D02*Y455083D01*
G54D50*X179803Y442953D02*X180197D01*
X168803D02*X169197D01*
G54D48*X171721Y459689D02*Y455083D01*
X169162Y459689D02*Y455083D01*
X166603Y459689D02*Y455083D01*
X164044Y459689D02*Y455083D01*
G54D50*X179803Y437047D02*X180197D01*
X180047Y410197D02*Y409803D01*
X185953Y410197D02*Y409803D01*
G54D49*X178900Y423600D02*Y422000D01*
X175000Y423600D02*Y422000D01*
X171100Y423600D02*Y422000D01*
G54D50*X174803Y412047D02*X175197D01*
X174803Y417953D02*X175197D01*
G54D51*X161000Y425000D03*
X153000Y424000D03*
X174000Y437000D03*
X162937Y436144D03*
G54D52*X185500Y461500D03*
G54D46*X187000Y443000D03*
Y455000D03*
G54D51*X186000Y428000D03*
X175000Y419953D03*
Y409000D03*
X161000Y452000D03*
X168000Y419000D03*
X174000Y447000D03*
X162500Y475000D03*
X183000D03*
G54D52*X173000D03*
X167000D03*
G54D51*X173500Y463500D03*
X162000Y457000D03*
G54D52*X159000Y461000D03*
X180000Y472000D03*
X189500Y481500D03*
G54D51*X195000Y474500D03*
G54D52*X176000Y472500D03*
X171500Y470500D03*
G54D53*G54D54*G54D55*G54D53*G54D54*G54D53*G54D54*G54D53*G54D54*G54D55*G54D56*G54D55*M02*
