M48
INCH
T62C0.013
T61C0.020
T60C0.038
T59C0.035
%
T62
X015300Y045500
X015600Y044400
X015700Y043700
X015900Y046100
X016550Y042150
X016700Y047500
X016800Y041800
X017150Y047050
X017300Y047500
X017600Y047250
X018000Y047200
X018550Y046150
X018950Y048150
T61
X015300Y042400
X015600Y045150
X016100Y042500
X016200Y045700
X016250Y047500
X016294Y043614
X017350Y046350
X017400Y043700
X017600Y041800
X017600Y041000
X018100Y044000
X018300Y047500
X018600Y042800
X018750Y041850
X019500Y047450
T59
X014500Y048000
X014500Y047250
X014500Y046500
X014500Y045750
X014500Y045000
X014500Y044250
X014500Y043500
X014500Y042750
X014500Y042000
X014500Y041250
X018401Y045075
X019200Y045800
T60
X015500Y041000
X019300Y041000
M30
